<?xml version="1.0" encoding="UTF-8"?>
<svg xmlns="http://www.w3.org/2000/svg" xmlns:xlink="http://www.w3.org/1999/xlink" width="150" height="150" viewBox="0 0 150 150">
<defs>
<linearGradient id="linear-pattern-0" gradientUnits="userSpaceOnUse" x1="244.82254" y1="-272.523468" x2="1115.340454" y2="-272.523468" gradientTransform="matrix(0.068929, 0.158141, -0.158141, 0.068929, -14.887817, -13.67741)">
<stop offset="0" stop-color="rgb(0%, 45.098039%, 63.137255%)" stop-opacity="1"/>
<stop offset="1" stop-color="rgb(0%, 20.784314%, 33.333333%)" stop-opacity="1"/>
</linearGradient>
</defs>
<path fill-rule="nonzero" fill="rgb(100%, 100%, 100%)" fill-opacity="1" d="M 150 75 C 150 116.421875 116.421875 150 75 150 C 33.578125 150 0 116.421875 0 75 C 0 33.578125 33.578125 0 75 0 C 116.421875 0 150 33.578125 150 75 Z M 150 75 "/>
<path fill-rule="nonzero" fill="url(#linear-pattern-0)" d="M 76.390625 0.0117188 C 65.628906 -0.175781 54.953125 1.953125 45.085938 6.253906 C 7.070312 22.824219 -10.316406 67.074219 6.253906 105.089844 C 20.273438 137.035156 54.453125 155.117188 88.75 148.730469 C 90.210938 144.070312 91.410156 138.960938 91.410156 133.386719 C 91.410156 132.59375 91.390625 131.804688 91.34375 130.988281 C 91.34375 130.988281 94.027344 126.414062 96.140625 120.453125 C 98.757812 113.082031 97.371094 104.964844 92.839844 98.542969 C 92.578125 98.191406 92.3125 97.792969 92.027344 97.398438 C 65.34375 97.398438 52.144531 73.199219 48.800781 58.480469 C 47.414062 52.433594 46.289062 51.832031 42.511719 51.832031 C 35.523438 51.832031 30.476562 48.933594 30.476562 48.933594 C 24.0625 51.875 21.1875 50.675781 22.050781 47.605469 C 19.257812 47.296875 19.3125 44.128906 21.015625 41.210938 C 23.148438 37.558594 27.503906 35.074219 32.71875 35.074219 L 35.511719 35.074219 C 41.277344 35.074219 42.464844 32.0625 48.402344 32.699219 C 49.328125 32.789062 50.183594 32.941406 50.976562 33.140625 C 52.628906 31.246094 54.496094 30.457031 56.761719 30.609375 C 57.113281 30.652344 57.335938 30.960938 57.269531 31.292969 L 56.71875 33.84375 C 56.519531 34.789062 56.785156 35.78125 57.464844 36.417969 C 62.261719 40.90625 65.011719 48.558594 68.09375 55.46875 C 73.085938 65.652344 85.140625 79.796875 104.476562 61.648438 C 118.074219 48.886719 126.289062 38.25 139.792969 37.203125 C 126.585938 14.601562 102.5625 0.507812 76.390625 0.0117188 Z M 44.507812 36.953125 C 42.527344 36.953125 40.550781 38.542969 41.226562 38.828125 C 41.375 38.890625 41.628906 38.933594 41.921875 38.964844 C 42.128906 40.234375 43.191406 41.214844 44.519531 41.214844 C 45.847656 41.214844 46.890625 40.234375 47.097656 38.964844 C 47.390625 38.933594 47.644531 38.890625 47.792969 38.828125 C 48.464844 38.542969 46.488281 36.953125 44.507812 36.953125 Z M 114.648438 109.144531 C 113.042969 109.183594 111.601562 110.203125 111.121094 111.761719 L 111.121094 111.785156 C 108.722656 119.484375 104.058594 129.425781 104.058594 129.425781 C 104.058594 129.425781 99.421875 137.644531 96.792969 146.851562 C 99.613281 146.035156 102.382812 145.058594 105.089844 143.917969 C 110.378906 141.605469 115.386719 138.6875 120.007812 135.222656 C 119.289062 133.789062 118.476562 132.324219 117.511719 130.8125 C 117.511719 130.8125 115.972656 123.972656 113.023438 116.515625 C 113.484375 115.238281 113.902344 113.984375 114.277344 112.773438 L 114.300781 112.6875 C 114.386719 112.511719 114.585938 112.445312 114.804688 112.445312 L 114.828125 112.445312 C 116.367188 112.6875 117.996094 112.929688 119.886719 113.148438 C 120.460938 113.191406 121.054688 113.238281 121.648438 113.300781 C 122.371094 113.367188 123.078125 113.433594 123.804688 113.480469 C 123.976562 120.398438 126.980469 127.015625 127.742188 128.59375 C 133.28125 123.140625 137.9375 116.859375 141.550781 109.976562 C 136.203125 110.585938 129.664062 110.792969 121.96875 110.023438 C 121.351562 109.957031 120.734375 109.894531 120.121094 109.847656 C 118.425781 109.652344 116.839844 109.429688 115.34375 109.1875 C 115.113281 109.152344 114.878906 109.140625 114.648438 109.144531 Z M 114.648438 109.144531 "/>
</svg>
