<svg xmlns="http://www.w3.org/2000/svg" width="128" height="128">
    <path fill="#0073A1" d="M128 64c0 35.348-28.652 64-64 64S0 99.348 0 64 28.652 0 64 0s64 28.652 64 64m0 0"/>
    <path fill="#0073A1" d="M121.93 64c0 31.992-25.938 57.93-57.93 57.93S6.07 95.992 6.07 64 32.008 6.07 64 6.07 121.93 32.008 121.93 64m0 0"/>
    <path fill="#FFF" d="M64.84 5.879a58.2 58.2 0 0 0-24.266 4.84C11.114 23.563-2.363 57.855 10.48 87.32c10.868 24.762 37.356 38.774 63.938 33.825 1.133-3.61 2.062-7.57 2.062-11.891 0-.613-.015-1.227-.05-1.86 0 0 2.078-3.546 3.718-8.167 2.028-5.711.954-12.004-2.558-16.98-.207-.274-.41-.579-.633-.888-20.68 0-30.91-18.754-33.504-30.16-1.074-4.691-1.945-5.156-4.871-5.156-5.418 0-9.328-2.246-9.328-2.246-4.973 2.277-7.2 1.351-6.531-1.027-2.164-.239-2.121-2.7-.801-4.958 1.652-2.832 5.027-4.757 9.07-4.757h2.164c4.469 0 5.387-2.336 9.992-1.84.715.07 1.38.187 1.997.34 1.277-1.465 2.726-2.078 4.48-1.961a.445.445 0 0 1 .395.531l-.426 1.977c-.157.734.05 1.5.578 1.996 3.719 3.476 5.848 9.41 8.234 14.765 3.871 7.895 13.215 18.856 28.203 4.79 10.54-9.891 16.903-18.137 27.368-18.946A58.19 58.19 0 0 0 64.84 5.879M40.129 34.512c-1.535 0-3.066 1.23-2.547 1.453.117.05.316.082.543.11.16.98.984 1.737 2.012 1.737 1.027 0 1.84-.757 2-1.742.226-.023.422-.054.539-.105.52-.223-1.012-1.453-2.547-1.453m54.363 55.953c-1.242.027-2.36.82-2.734 2.027v.02c-1.86 5.965-5.473 13.672-5.473 13.672s-3.597 6.37-5.633 13.504a58 58 0 0 0 6.43-2.274 58 58 0 0 0 11.563-6.738 37 37 0 0 0-1.934-3.418s-1.195-5.301-3.48-11.082c.359-.989.683-1.961.972-2.899l.02-.07c.066-.133.218-.187.39-.187h.016c1.195.187 2.457.378 3.922.546.445.036.902.07 1.363.121.563.051 1.11.102 1.672.137.137 5.364 2.465 10.489 3.05 11.715a58.2 58.2 0 0 0 10.708-14.43c-4.145.473-9.215.633-15.18.036a45 45 0 0 0-1.434-.137 84 84 0 0 1-3.699-.508 3 3 0 0 0-.539-.035m0 0"/>
</svg>
