<svg xmlns="http://www.w3.org/2000/svg" width="128" height="128">
    <path fill="#005A7D" d="M119.117 63.895c0 30.343-24.597 54.94-54.941 54.94S9.234 94.239 9.234 63.896c0-30.344 24.598-54.942 54.942-54.942s54.941 24.598 54.941 54.942m0 0"/>
    <path fill="#E9E9E9" stroke="#E9E9E9" stroke-miterlimit="10" stroke-width="2.349" d="M99.008 89.915c.14 5.605 3.223 13.582 3.223 13.582l-2.395 3.297c-3.265 1.074-4.289-.903-5.11-2.184 0 0-2.663-7.55-4.76-12.86l-1.329-3.773Zm0 0"/>
    <path fill="#E9E9E9" stroke="#E9E9E9" stroke-miterlimit="10" stroke-width="2.349" d="M79.532 117.821c1.347-5.066 3.046-9.535 5.64-14.195 0 0 3.32-7.078 5.028-12.559.39-1.27 1.675-2.039 3.007-1.832 1.063.168 2.192.328 3.399.465.437.059.875.078 1.312.125 2.653.074 5.223.18 7.7.2a75 75 0 0 0 3.648-.056c1.191-.05 3.234-.23 4.375-.375.328-.039 6.27-.796 6.469-26.652-.414-25.82-7.66-25.039-7.953-25.039-10.57 0-16.504 7.91-26.7 17.477-13.761 12.918-22.343 2.847-25.898-4.399-2.191-4.918-4.148-10.367-7.563-13.562-.484-.457-.671-1.16-.53-1.832l.39-1.817c.058-.238-.11-.457-.363-.484-1.614-.11-2.942.453-4.118 1.8a12.4 12.4 0 0 0-1.832-.316c-4.226-.453-5.074 1.692-9.175 1.692h-1.989c-3.71 0-6.812 1.77-8.332 4.37-1.21 2.075-1.25 4.333.739 4.552-.614 2.183 1.43 3.039 5.996.945 0 0 3.593 2.062 8.566 2.062 2.688 0 3.488.426 4.477 4.735 2.379 10.472 11.773 27.699 30.77 27.699.198.285.39.562.577.812 3.227 4.575 4.215 10.352 2.352 15.598-1.504 4.242-3.414 7.5-3.414 7.5.058.582.058 1.145.058 1.707-.093 4.457-1.25 9.504-2.332 12.555"/>
    <path fill="#005A7D" d="M45.102 39.133c-.106.058-.29.078-.497.101-.148.903-.89 1.598-1.835 1.598-.946 0-1.7-.695-1.848-1.598-.211 0-.39-.058-.5-.101-.477-.2.93-1.332 2.34-1.332 1.406 0 2.812 1.129 2.336 1.332Zm0 0"/>
    <path fill="none" stroke="#E9E9E9" stroke-linejoin="round" stroke-width="5.449" d="M119.89 64c0 30.868-25.023 55.891-55.89 55.891S8.11 94.868 8.11 64.001 33.133 8.11 64 8.11 119.89 33.133 119.89 64Zm0 0"/>
    <path fill="none" stroke="#005A7D" stroke-linejoin="round" stroke-width="5.95" d="M125.024 64c0 33.704-27.32 61.024-61.024 61.024S2.977 97.704 2.977 64.001 30.297 2.977 64 2.977s61.024 27.32 61.024 61.024Zm0 0"/>
</svg>
