<svg xmlns="http://www.w3.org/2000/svg" width="128" height="128">
    <path fill="#005A7D" d="M119.117 63.895c0 30.343-24.597 54.94-54.941 54.94S9.234 94.239 9.234 63.896c0-30.344 24.598-54.942 54.942-54.942s54.941 24.598 54.941 54.942m0 0"/>
    <path fill="none" stroke="#E9E9E9" stroke-miterlimit="10" stroke-width="2.349" d="M99.008 90.145c.14 5.606 3.222 13.586 3.222 13.586l-2.394 3.293c-3.266 1.074-4.29-.902-5.11-2.183 0 0-2.664-7.551-4.761-12.856"/>
    <path fill="none" stroke="#E9E9E9" stroke-miterlimit="10" stroke-width="2.349" d="M79.531 117.821c1.348-5.066 3.047-9.535 5.64-14.195 0 0 3.321-7.078 5.028-12.559.39-1.27 1.676-2.039 3.008-1.832 1.063.172 2.191.328 3.398.465.438.059.875.078 1.313.125 2.652.074 5.223.18 7.7.2a75 75 0 0 0 3.648-.055 66 66 0 0 0 4.375-.375c.328-.04 6.27-.797 6.468-26.653-.414-25.82-7.66-25.039-7.953-25.039-10.57 0-16.504 7.91-26.699 17.477-13.762 12.918-22.344 2.851-25.898-4.399-2.192-4.918-4.149-10.367-7.563-13.562-.484-.457-.672-1.16-.531-1.832l.39-1.817c.06-.238-.109-.457-.363-.484-1.613-.105-2.941.453-4.117 1.8a12 12 0 0 0-1.832-.312c-4.226-.457-5.074 1.692-9.176 1.692H34.38c-3.71 0-6.812 1.765-8.332 4.367-1.21 2.074-1.25 4.332.738 4.55-.613 2.184 1.43 3.04 5.996.946 0 0 3.594 2.062 8.567 2.062 2.691 0 3.488.426 4.476 4.735 2.38 10.472 11.774 27.699 30.77 27.699.199.285.39.563.578.813 3.226 4.574 4.215 10.351 2.351 15.597-1.503 4.242-3.414 7.5-3.414 7.5.059.582.059 1.145.059 1.707-.094 4.457-1.25 9.504-2.332 12.555"/>
    <path fill="#FFF" d="M45.102 39.133c-.106.058-.29.078-.497.101-.148.903-.89 1.598-1.835 1.598-.946 0-1.7-.695-1.848-1.598-.211 0-.39-.058-.5-.101-.477-.2.93-1.332 2.34-1.332 1.406 0 2.812 1.129 2.336 1.332Zm0 0"/>
    <path fill="none" stroke="#E9E9E9" stroke-linejoin="round" stroke-width="5.449" d="M119.89 64c0 30.868-25.023 55.891-55.89 55.891S8.11 94.868 8.11 64.001 33.133 8.11 64 8.11 119.89 33.133 119.89 64Zm0 0"/>
    <path fill="none" stroke="#005A7D" stroke-linejoin="round" stroke-width="5.95" d="M125.023 64c0 33.704-27.32 61.024-61.023 61.024S2.977 97.704 2.977 64.001 30.297 2.978 64 2.978 125.023 30.298 125.023 64Zm0 0"/>
</svg>
