<svg xmlns="http://www.w3.org/2000/svg" width="128" height="128">
    <path fill="#E9E9E9" d="M119.117 63.895c0 30.343-24.597 54.94-54.941 54.94S9.234 94.239 9.234 63.896c0-30.344 24.598-54.942 54.942-54.942s54.941 24.598 54.941 54.942m0 0"/>
    <path fill="#005A7D" stroke="#005A7D" stroke-miterlimit="10" stroke-width="2.349" d="M99.008 89.914c.14 5.606 3.223 13.586 3.223 13.586l-2.395 3.293c-3.265 1.075-4.289-.902-5.11-2.183 0 0-2.663-7.551-4.76-12.86l-1.329-3.77Zm0 0"/>
    <path fill="#005A7D" stroke="#005A7D" stroke-miterlimit="10" stroke-width="2.349" d="M79.532 117.82c1.347-5.066 3.046-9.535 5.64-14.195 0 0 3.32-7.078 5.028-12.558.39-1.27 1.675-2.035 3.007-1.832 1.063.172 2.192.332 3.399.465.437.062.875.078 1.312.125 2.653.074 5.223.18 7.7.199a75 75 0 0 0 3.648-.055c1.191-.05 3.234-.23 4.375-.375.328-.039 6.27-.793 6.469-26.652-.414-25.82-7.66-25.04-7.953-25.04-10.57 0-16.504 7.911-26.7 17.477-13.761 12.918-22.343 2.852-25.898-4.398-2.191-4.918-4.148-10.367-7.563-13.563-.484-.453-.671-1.156-.53-1.832l.39-1.816c.058-.234-.11-.453-.363-.484-1.614-.106-2.942.457-4.118 1.8-.562-.14-1.175-.25-1.832-.312-4.226-.457-5.074 1.691-9.175 1.691h-1.989c-3.71 0-6.812 1.766-8.332 4.368-1.21 2.074-1.25 4.332.739 4.55-.614 2.184 1.43 3.04 5.996.946 0 0 3.593 2.062 8.566 2.062 2.688 0 3.488.426 4.477 4.734 2.379 10.477 11.773 27.7 30.77 27.7.198.285.39.562.577.816 3.227 4.57 4.215 10.348 2.352 15.594-1.504 4.246-3.414 7.5-3.414 7.5.058.582.058 1.144.058 1.707-.093 4.457-1.25 9.504-2.332 12.554"/>
    <path fill="#FFF" d="M45.102 39.133c-.106.062-.29.078-.497.101-.148.903-.89 1.602-1.835 1.602-.946 0-1.7-.7-1.848-1.602-.211 0-.39-.058-.5-.101-.477-.2.93-1.332 2.34-1.332 1.406 0 2.812 1.129 2.336 1.332Zm0 0"/>
    <path fill="none" stroke="#005A7D" stroke-linejoin="round" stroke-width="5.449" d="M119.89 64c0 30.868-25.023 55.89-55.89 55.89S8.11 94.869 8.11 64C8.11 33.133 33.133 8.11 64 8.11S119.89 33.133 119.89 64Zm0 0"/>
    <path fill="none" stroke="#E9E9E9" stroke-linejoin="round" stroke-width="5.95" d="M125.024 64c0 33.703-27.32 61.024-61.024 61.024S2.977 97.704 2.977 64 30.297 2.977 64 2.977 125.024 30.297 125.024 64Zm0 0"/>
</svg>
