<svg xmlns="http://www.w3.org/2000/svg" width="128" height="128">
    <path fill="#E9E9E9" d="M119.117 63.895c0 30.343-24.597 54.94-54.941 54.94S9.234 94.239 9.234 63.896c0-30.344 24.598-54.942 54.942-54.942s54.941 24.598 54.941 54.942m0 0"/>
    <path fill="none" stroke="#005A7D" stroke-miterlimit="10" stroke-width="2.349" d="M99.008 89.914c.144 5.606 3.222 13.582 3.222 13.582l-2.394 3.297c-3.266 1.075-4.29-.902-5.11-2.183 0 0-2.66-7.551-4.761-12.86l-1.328-3.773Zm0 0"/>
    <path fill="#E9E9E9" stroke="#005A7D" stroke-miterlimit="10" stroke-width="2.349" d="M79.531 117.82c1.348-5.066 3.047-9.535 5.64-14.195 0 0 3.321-7.078 5.028-12.558.39-1.27 1.676-2.04 3.008-1.832 1.063.168 2.191.328 3.398.465.438.058.875.078 1.313.125 2.652.074 5.223.18 7.7.199a75 75 0 0 0 3.648-.055c1.195-.05 3.234-.23 4.375-.375.328-.039 6.27-.797 6.468-26.652-.414-25.82-7.66-25.04-7.953-25.04-10.57 0-16.504 7.91-26.695 17.477-13.766 12.918-22.348 2.848-25.902-4.398-2.192-4.918-4.149-10.367-7.563-13.563-.484-.457-.672-1.16-.531-1.832l.39-1.816c.06-.238-.109-.457-.363-.484-1.613-.11-2.941.453-4.117 1.8a12.4 12.4 0 0 0-1.832-.316c-4.226-.453-5.074 1.691-9.176 1.691H34.38c-3.71 0-6.812 1.77-8.332 4.371-1.21 2.075-1.25 4.333.738 4.551-.613 2.184 1.43 3.04 5.996.946 0 0 3.594 2.062 8.567 2.062 2.691 0 3.492.426 4.476 4.734 2.38 10.473 11.774 27.7 30.77 27.7.199.285.39.562.578.812 3.226 4.574 4.215 10.352 2.351 15.598-1.503 4.242-3.414 7.5-3.414 7.5.059.582.059 1.144.059 1.707-.094 4.457-1.25 9.504-2.332 12.554"/>
    <path fill="#005A7D" d="M45.102 39.133c-.106.058-.29.078-.497.101-.148.903-.89 1.598-1.835 1.598-.942 0-1.7-.695-1.848-1.598-.207 0-.39-.058-.5-.101-.477-.2.93-1.332 2.34-1.332 1.406 0 2.812 1.129 2.336 1.332Zm0 0"/>
    <path fill="none" stroke="#005A7D" stroke-linejoin="round" stroke-width="5.449" d="M119.89 64c0 30.868-25.023 55.89-55.89 55.89S8.11 94.869 8.11 64C8.11 33.133 33.133 8.11 64 8.11S119.89 33.133 119.89 64Zm0 0"/>
    <path fill="none" stroke="#E9E9E9" stroke-linejoin="round" stroke-width="5.95" d="M125.023 64c0 33.703-27.32 61.024-61.023 61.024S2.977 97.704 2.977 64 30.297 2.977 64 2.977 125.023 30.297 125.023 64Zm0 0"/>
</svg>
