<svg xmlns="http://www.w3.org/2000/svg" width="128" height="128">
    <defs>
        <linearGradient id="a" x1="244.823" x2="1115.34" y1="-272.523" y2="-272.523" gradientTransform="rotate(66.449 .782 -5.288)scale(.13208)" gradientUnits="userSpaceOnUse">
            <stop offset="0" stop-color="#0073A1"/>
            <stop offset="1" stop-color="#003555"/>
        </linearGradient>
    </defs>
    <path fill="#FFF" d="M128 64c0 35.348-28.652 64-64 64S0 99.348 0 64 28.652 0 64 0s64 28.652 64 64m0 0"/>
    <path fill="url(#a)" d="M65.504 6.586a57.5 57.5 0 0 0-23.965 4.781C12.434 24.055-.879 57.93 11.81 87.035c10.734 24.461 36.902 38.3 63.16 33.414 1.117-3.566 2.035-7.48 2.035-11.746q0-.906-.05-1.836s2.054-3.504 3.671-8.07c2.004-5.64.945-11.856-2.523-16.774-.204-.27-.407-.574-.625-.875-20.43 0-30.536-18.527-33.094-29.793-1.063-4.632-1.922-5.093-4.817-5.093-5.351 0-9.21-2.219-9.21-2.219-4.915 2.25-7.114 1.336-6.454-1.016-2.14-.234-2.093-2.664-.793-4.894 1.633-2.797 4.97-4.7 8.961-4.7h2.137c4.414 0 5.324-2.308 9.871-1.82.707.067 1.363.188 1.973.336 1.261-1.445 2.691-2.054 4.426-1.933.27.03.441.27.39.52l-.422 1.952c-.152.727.051 1.485.57 1.973 3.672 3.434 5.778 9.297 8.137 14.586 3.825 7.797 13.051 18.629 27.856 4.73 10.41-9.77 16.699-17.914 27.039-18.714A57.5 57.5 0 0 0 65.504 6.586M41.098 34.87c-1.52 0-3.032 1.219-2.516 1.434.113.05.309.082.531.11.16.968.977 1.718 1.992 1.718s1.817-.75 1.973-1.719c.223-.027.418-.059.531-.11.516-.214-.996-1.433-2.511-1.433m53.699 55.27c-1.23.03-2.332.812-2.7 2.004v.02c-1.835 5.894-5.406 13.507-5.406 13.507s-3.554 6.289-5.566 13.336a57 57 0 0 0 6.352-2.242 57.7 57.7 0 0 0 11.421-6.657 37 37 0 0 0-1.91-3.379s-1.18-5.238-3.437-10.945a60 60 0 0 0 .96-2.863l.016-.07c.07-.133.22-.184.391-.184h.016c1.18.184 2.425.371 3.875.539.437.035.89.066 1.343.117.559.051 1.098.102 1.653.137.132 5.297 2.433 10.363 3.015 11.57a57.5 57.5 0 0 0 10.575-14.254c-4.094.47-9.102.625-14.997.04a42 42 0 0 0-1.414-.137 89 89 0 0 1-3.656-.504 3 3 0 0 0-.531-.035m0 0"/>
</svg>
