<svg xmlns="http://www.w3.org/2000/svg" width="128" height="128">
    <path fill="#FFF" d="M128 64c0 35.348-28.652 64-64 64S0 99.348 0 64 28.652 0 64 0s64 28.652 64 64m0 0"/>
    <path d="M65.504 6.59a57.45 57.45 0 0 0-23.965 4.777C12.434 24.055-.875 57.93 11.81 87.035c10.734 24.461 36.898 38.305 63.16 33.414 1.12-3.566 2.035-7.48 2.035-11.746q0-.906-.05-1.836s2.058-3.504 3.671-8.07c2.004-5.64.945-11.856-2.523-16.774-.204-.27-.407-.57-.625-.875-20.43 0-30.536-18.527-33.094-29.796-1.063-4.63-1.922-5.09-4.817-5.09-5.351 0-9.21-2.219-9.21-2.219-4.915 2.254-7.114 1.332-6.454-1.016-2.14-.234-2.093-2.664-.793-4.894 1.633-2.797 4.97-4.7 8.961-4.7h2.137c4.414 0 5.324-2.308 9.871-1.82.707.07 1.363.188 1.969.34 1.266-1.45 2.695-2.055 4.43-1.941.273.035.441.273.386.523l-.418 1.953c-.152.727.051 1.485.57 1.973 3.672 3.437 5.778 9.297 8.137 14.586 3.825 7.797 13.051 18.625 27.86 4.73 10.41-9.77 16.695-17.914 27.035-18.714A57.48 57.48 0 0 0 65.504 6.59M41.098 34.87c-1.516 0-3.032 1.219-2.516 1.438.113.046.309.078.531.101.16.973.977 1.723 1.992 1.723s1.817-.75 1.973-1.723c.223-.023.418-.055.531-.101.516-.22-.996-1.438-2.511-1.438m53.699 55.27c-1.23.03-2.332.812-2.7 2.007v.016c-1.835 5.895-5.406 13.508-5.406 13.508s-3.554 6.289-5.566 13.34a58 58 0 0 0 6.352-2.246 57.7 57.7 0 0 0 11.421-6.657 37 37 0 0 0-1.91-3.379s-1.18-5.238-3.437-10.945q.516-1.423.96-2.863l.02-.07c.067-.133.219-.184.387-.184h.016a98 98 0 0 0 3.87.539c.442.031.895.066 1.352.117.555.051 1.094.102 1.649.137.132 5.297 2.433 10.363 3.015 11.57a57.5 57.5 0 0 0 10.575-14.254c-4.094.47-9.102.625-14.997.04a42 42 0 0 0-1.414-.137 87 87 0 0 1-3.652-.504 3 3 0 0 0-.535-.035"/>
</svg>
