<svg xmlns="http://www.w3.org/2000/svg" width="128" height="128">
    <path fill="#FFF" d="M128 64c0 35.348-28.652 64-64 64S0 99.348 0 64 28.652 0 64 0s64 28.652 64 64m0 0"/>
    <path fill="#0073A1" d="M65.188.012a64.1 64.1 0 0 0-26.715 5.324C6.035 19.476-8.805 57.238 5.336 89.676c11.965 27.261 41.129 42.691 70.398 37.242 1.246-3.977 2.27-8.34 2.27-13.094 0-.676-.02-1.351-.055-2.047 0 0 2.29-3.902 4.09-8.992 2.234-6.289 1.05-13.215-2.816-18.695-.223-.3-.45-.64-.692-.977-22.773 0-34.035-20.648-36.89-33.207-1.18-5.164-2.141-5.676-5.364-5.676-5.965 0-10.27-2.472-10.27-2.472-5.476 2.508-7.925 1.484-7.19-1.133-2.383-.262-2.337-2.969-.883-5.457 1.816-3.117 5.535-5.238 9.988-5.238h2.383c4.918 0 5.93-2.57 11-2.028.785.075 1.52.207 2.195.375 1.406-1.613 3.004-2.289 4.938-2.156.3.035.488.3.433.582l-.473 2.176c-.168.808.059 1.652.641 2.2 4.09 3.827 6.438 10.359 9.066 16.253 4.262 8.691 14.547 20.762 31.051 5.277 11.602-10.89 18.61-19.972 30.133-20.863A64.07 64.07 0 0 0 65.188.012M37.98 31.535c-1.69 0-3.375 1.356-2.8 1.598.125.054.343.09.59.117.18 1.082 1.09 1.918 2.218 1.918 1.133 0 2.028-.836 2.2-1.918.25-.027.468-.062.593-.117.574-.242-1.113-1.598-2.8-1.598m59.855 61.602c-1.371.035-2.602.902-3.012 2.234v.02c-2.047 6.57-6.023 15.054-6.023 15.054s-3.961 7.012-6.203 14.868a65 65 0 0 0 7.078-2.5 64.3 64.3 0 0 0 12.734-7.422 42 42 0 0 0-2.133-3.762s-1.312-5.84-3.832-12.203a70 70 0 0 0 1.07-3.192l.02-.074c.074-.152.246-.207.434-.207h.02c1.312.207 2.698.414 4.316.602.488.039.992.074 1.5.129.62.058 1.222.113 1.84.152.148 5.906 2.71 11.55 3.359 12.898a64.2 64.2 0 0 0 11.785-15.886c-4.562.52-10.144.695-16.71.043a36 36 0 0 0-1.575-.153 89 89 0 0 1-4.074-.562 3.4 3.4 0 0 0-.594-.04"/>
</svg>
