<?xml version="1.0" encoding="UTF-8"?>
<svg xmlns="http://www.w3.org/2000/svg" xmlns:xlink="http://www.w3.org/1999/xlink" width="1700" height="1700" viewBox="0 0 1700 1700">
<path fill-rule="nonzero" fill="rgb(0%, 45.098039%, 63.137255%)" fill-opacity="1" d="M 1700 850 C 1700 1319.464844 1319.464844 1700 850 1700 C 380.535156 1700 0 1319.464844 0 850 C 0 380.535156 380.535156 0 850 0 C 1319.464844 0 1700 380.535156 1700 850 M 1700 850 "/>
<path fill-rule="nonzero" fill="rgb(0%, 45.098039%, 63.137255%)" fill-opacity="1" d="M 1619.382812 850 C 1619.382812 1274.894531 1274.894531 1619.382812 850 1619.382812 C 425.105469 1619.382812 80.617188 1274.894531 80.617188 850 C 80.617188 425.105469 425.105469 80.617188 850 80.617188 C 1274.894531 80.617188 1619.382812 425.105469 1619.382812 850 M 1619.382812 850 "/>
<path fill-rule="nonzero" fill="rgb(100%, 100%, 100%)" fill-opacity="1" d="M 861.15625 78.082031 C 750.363281 76.160156 640.453125 98.082031 538.875 142.363281 C 147.609375 312.945312 -31.382812 768.386719 139.1875 1159.71875 C 283.527344 1488.589844 635.320312 1674.6875 988.363281 1608.957031 C 1003.410156 1561.011719 1015.75 1508.417969 1015.75 1451.03125 C 1015.75 1442.886719 1015.550781 1434.734375 1015.085938 1426.328125 C 1015.085938 1426.328125 1042.683594 1379.230469 1064.464844 1317.859375 C 1091.398438 1242.007812 1077.136719 1158.429688 1030.492188 1092.34375 C 1027.742188 1088.703125 1025.046875 1084.652344 1022.085938 1080.550781 C 747.429688 1080.550781 611.5625 831.472656 577.109375 679.988281 C 562.847656 617.683594 551.277344 611.507812 512.417969 611.507812 C 440.460938 611.507812 388.53125 581.679688 388.53125 581.679688 C 322.480469 611.921875 292.90625 599.621094 301.789062 568.039062 C 273.050781 564.863281 273.621094 532.179688 291.152344 502.191406 C 313.09375 464.578125 357.917969 439.011719 411.613281 439.011719 L 440.351562 439.011719 C 499.707031 439.011719 511.898438 407.988281 573.058594 414.574219 C 582.554688 415.503906 591.386719 417.058594 599.582031 419.089844 C 616.542969 399.632812 635.785156 391.492188 659.082031 393.046875 C 660.75 393.199219 662.277344 394.058594 663.277344 395.402344 C 664.277344 396.746094 664.660156 398.453125 664.328125 400.097656 L 658.671875 426.355469 C 656.585938 436.101562 659.335938 446.277344 666.347656 452.863281 C 715.738281 499.03125 744.015625 577.839844 775.703125 648.960938 C 827.117188 753.816406 951.214844 899.394531 1150.277344 712.578125 C 1290.261719 581.214844 1374.769531 471.695312 1513.757812 460.953125 C 1377.84375 228.289062 1130.558594 83.210938 861.15625 78.082031 M 532.964844 458.363281 C 512.578125 458.363281 492.242188 474.699219 499.136719 477.660156 C 500.691406 478.324219 503.332031 478.75 506.347656 479.121094 C 508.472656 492.136719 519.417969 502.191406 533.070312 502.191406 C 546.710938 502.191406 557.507812 492.136719 559.632812 479.054688 C 562.632812 478.75 565.238281 478.335938 566.789062 477.660156 C 573.695312 474.699219 553.351562 458.363281 532.964844 458.363281 M 1254.972656 1201.488281 C 1238.476562 1201.847656 1223.628906 1212.378906 1218.660156 1228.410156 L 1218.660156 1228.675781 C 1193.957031 1307.898438 1145.972656 1410.257812 1145.972656 1410.257812 C 1145.972656 1410.257812 1098.199219 1494.859375 1071.160156 1589.605469 C 1100.191406 1581.222656 1128.707031 1571.136719 1156.558594 1559.40625 C 1211.03125 1535.601562 1262.5625 1505.570312 1310.128906 1469.914062 C 1302.375 1454.339844 1293.800781 1439.1875 1284.441406 1424.519531 C 1284.441406 1424.519531 1268.570312 1354.117188 1238.222656 1277.335938 C 1242.992188 1264.203125 1247.296875 1251.292969 1251.132812 1238.835938 L 1251.398438 1237.90625 C 1252.277344 1236.140625 1254.292969 1235.421875 1256.578125 1235.421875 L 1256.792969 1235.421875 C 1272.664062 1237.90625 1289.421875 1240.441406 1308.878906 1242.671875 C 1314.789062 1243.152344 1320.859375 1243.601562 1326.984375 1244.28125 C 1334.460938 1244.957031 1341.726562 1245.636719 1349.1875 1246.101562 C 1351.007812 1317.339844 1381.925781 1385.40625 1389.695312 1401.691406 C 1446.738281 1345.554688 1494.714844 1280.902344 1531.914062 1210.042969 C 1476.863281 1216.324219 1409.527344 1218.449219 1330.304688 1210.519531 C 1323.964844 1209.8125 1317.617188 1209.203125 1311.257812 1208.699219 C 1294.835938 1206.816406 1278.453125 1204.566406 1262.128906 1201.953125 C 1259.761719 1201.582031 1257.367188 1201.425781 1254.972656 1201.488281 M 1254.972656 1201.488281 "/>
</svg>
