<?xml version="1.0" encoding="UTF-8"?>
<svg xmlns="http://www.w3.org/2000/svg" xmlns:xlink="http://www.w3.org/1999/xlink" width="5000" height="5000" viewBox="0 0 5000 5000">
<path fill-rule="nonzero" fill="rgb(0%, 45.098039%, 63.137255%)" fill-opacity="1" d="M 5000 2500 C 5000 3880.78125 3880.78125 5000 2500 5000 C 1119.21875 5000 0 3880.78125 0 2500 C 0 1119.21875 1119.21875 0 2500 0 C 3880.78125 0 5000 1119.21875 5000 2500 M 5000 2500 "/>
<path fill-rule="nonzero" fill="rgb(0%, 45.098039%, 63.137255%)" fill-opacity="1" d="M 4762.890625 2500 C 4762.890625 3749.6875 3749.6875 4762.890625 2500 4762.890625 C 1250.3125 4762.890625 237.109375 3749.6875 237.109375 2500 C 237.109375 1250.3125 1250.3125 237.109375 2500 237.109375 C 3749.6875 237.109375 4762.890625 1250.3125 4762.890625 2500 M 4762.890625 2500 "/>
<path fill-rule="nonzero" fill="rgb(100%, 100%, 100%)" fill-opacity="1" d="M 2532.8125 229.648438 C 2206.949219 223.996094 1883.679688 288.476562 1584.921875 418.710938 C 434.140625 920.429688 -92.304688 2259.960938 409.375 3410.9375 C 833.90625 4378.203125 1868.59375 4925.546875 2906.953125 4732.226562 C 2951.210938 4591.210938 2987.5 4436.523438 2987.5 4267.734375 C 2987.5 4243.789062 2986.914062 4219.804688 2985.546875 4195.078125 C 2985.546875 4195.078125 3066.71875 4056.5625 3130.78125 3876.054688 C 3210 3652.96875 3168.046875 3407.148438 3030.859375 3212.773438 C 3022.773438 3202.070312 3014.84375 3190.15625 3006.132812 3178.085938 C 2198.320312 3178.085938 1798.710938 2445.507812 1697.382812 1999.960938 C 1655.429688 1816.71875 1621.40625 1798.554688 1507.109375 1798.554688 C 1295.46875 1798.554688 1142.734375 1710.820312 1142.734375 1710.820312 C 948.476562 1799.765625 861.484375 1763.59375 887.617188 1670.703125 C 803.085938 1661.367188 804.765625 1565.234375 856.328125 1477.03125 C 920.859375 1366.40625 1052.695312 1291.210938 1210.625 1291.210938 L 1295.15625 1291.210938 C 1469.726562 1291.210938 1505.585938 1199.960938 1685.46875 1219.335938 C 1713.398438 1222.070312 1739.375 1226.640625 1763.476562 1232.617188 C 1813.359375 1175.390625 1869.960938 1151.445312 1938.476562 1156.015625 C 1943.386719 1156.472656 1947.871094 1158.992188 1950.8125 1162.949219 C 1953.757812 1166.90625 1954.878906 1171.925781 1953.90625 1176.757812 L 1937.265625 1253.984375 C 1931.132812 1282.65625 1939.21875 1312.578125 1959.84375 1331.953125 C 2105.117188 1467.734375 2188.28125 1699.53125 2281.484375 1908.710938 C 2432.695312 2217.109375 2797.695312 2645.273438 3383.164062 2095.820312 C 3794.882812 1709.453125 4043.4375 1387.34375 4452.226562 1355.742188 C 4052.480469 671.4375 3325.179688 244.738281 2532.8125 229.648438 M 1567.539062 1348.125 C 1507.578125 1348.125 1447.773438 1396.171875 1468.046875 1404.882812 C 1472.617188 1406.835938 1480.390625 1408.085938 1489.257812 1409.179688 C 1495.507812 1447.460938 1527.695312 1477.03125 1567.851562 1477.03125 C 1607.96875 1477.03125 1639.726562 1447.460938 1645.976562 1408.984375 C 1654.804688 1408.085938 1662.460938 1406.875 1667.03125 1404.882812 C 1687.34375 1396.171875 1627.5 1348.125 1567.539062 1348.125 M 3691.09375 3533.789062 C 3642.578125 3534.84375 3598.90625 3565.820312 3584.296875 3612.96875 L 3584.296875 3613.75 C 3511.640625 3846.757812 3370.507812 4147.8125 3370.507812 4147.8125 C 3370.507812 4147.8125 3230 4396.640625 3150.46875 4675.3125 C 3235.863281 4650.65625 3319.730469 4620.996094 3401.640625 4586.484375 C 3561.851562 4516.472656 3713.421875 4428.148438 3853.320312 4323.28125 C 3830.519531 4277.46875 3805.300781 4232.902344 3777.773438 4189.765625 C 3777.773438 4189.765625 3731.09375 3982.695312 3641.835938 3756.875 C 3655.859375 3718.242188 3668.515625 3680.273438 3679.804688 3643.632812 L 3680.585938 3640.898438 C 3683.164062 3635.703125 3689.101562 3633.59375 3695.820312 3633.59375 L 3696.445312 3633.59375 C 3743.125 3640.898438 3792.421875 3648.359375 3849.648438 3654.921875 C 3867.03125 3656.328125 3884.882812 3657.65625 3902.890625 3659.648438 C 3924.882812 3661.640625 3946.25 3663.632812 3968.203125 3665 C 3973.554688 3874.53125 4064.492188 4074.726562 4087.34375 4122.617188 C 4255.109375 3957.511719 4396.21875 3767.355469 4505.625 3558.945312 C 4343.710938 3577.421875 4145.664062 3583.671875 3912.65625 3560.351562 C 3894.015625 3558.269531 3875.339844 3556.484375 3856.640625 3555 C 3808.335938 3549.457031 3760.160156 3542.839844 3712.148438 3535.15625 C 3705.1875 3534.070312 3698.140625 3533.609375 3691.09375 3533.789062 M 3691.09375 3533.789062 "/>
</svg>
