<?xml version="1.0" encoding="UTF-8"?>
<svg xmlns="http://www.w3.org/2000/svg" xmlns:xlink="http://www.w3.org/1999/xlink" width="150" height="150" viewBox="0 0 150 150">
<path fill-rule="nonzero" fill="rgb(0%, 45.098039%, 63.137255%)" fill-opacity="1" d="M 150 75 C 150 116.421875 116.421875 150 75 150 C 33.578125 150 0 116.421875 0 75 C 0 33.578125 33.578125 0 75 0 C 116.421875 0 150 33.578125 150 75 M 150 75 "/>
<path fill-rule="nonzero" fill="rgb(0%, 45.098039%, 63.137255%)" fill-opacity="1" d="M 142.886719 75 C 142.886719 112.492188 112.492188 142.886719 75 142.886719 C 37.507812 142.886719 7.113281 112.492188 7.113281 75 C 7.113281 37.507812 37.507812 7.113281 75 7.113281 C 112.492188 7.113281 142.886719 37.507812 142.886719 75 M 142.886719 75 "/>
<path fill-rule="nonzero" fill="rgb(100%, 100%, 100%)" fill-opacity="1" d="M 75.984375 6.890625 C 66.207031 6.71875 56.511719 8.652344 47.546875 12.5625 C 13.023438 27.613281 -2.769531 67.796875 12.28125 102.328125 C 25.015625 131.347656 56.058594 147.765625 87.207031 141.96875 C 88.535156 137.734375 89.625 133.09375 89.625 128.03125 C 89.625 127.3125 89.609375 126.59375 89.566406 125.851562 C 89.566406 125.851562 92 121.695312 93.921875 116.28125 C 96.300781 109.589844 95.042969 102.214844 90.925781 96.382812 C 90.683594 96.0625 90.445312 95.703125 90.183594 95.34375 C 65.949219 95.34375 53.960938 73.363281 50.921875 60 C 49.664062 54.5 48.640625 53.957031 45.214844 53.957031 C 38.863281 53.957031 34.28125 51.324219 34.28125 51.324219 C 28.453125 53.992188 25.84375 52.90625 26.628906 50.121094 C 24.09375 49.839844 24.144531 46.957031 25.691406 44.3125 C 27.625 40.992188 31.582031 38.734375 36.320312 38.734375 L 38.855469 38.734375 C 44.09375 38.734375 45.167969 36 50.5625 36.578125 C 51.402344 36.660156 52.179688 36.800781 52.90625 36.976562 C 54.402344 35.261719 56.097656 34.542969 58.15625 34.679688 C 58.300781 34.695312 58.4375 34.769531 58.523438 34.886719 C 58.613281 35.007812 58.644531 35.15625 58.617188 35.300781 L 58.117188 37.621094 C 57.933594 38.480469 58.175781 39.378906 58.796875 39.957031 C 63.152344 44.03125 65.648438 50.984375 68.445312 57.261719 C 72.980469 66.511719 83.929688 79.359375 101.496094 62.875 C 113.847656 51.285156 121.304688 41.621094 133.566406 40.671875 C 121.574219 20.144531 99.753906 7.34375 75.984375 6.890625 M 47.027344 40.445312 C 45.226562 40.445312 43.433594 41.886719 44.042969 42.148438 C 44.179688 42.203125 44.410156 42.242188 44.679688 42.273438 C 44.863281 43.421875 45.832031 44.3125 47.035156 44.3125 C 48.238281 44.3125 49.191406 43.425781 49.378906 42.269531 C 49.644531 42.242188 49.875 42.207031 50.011719 42.148438 C 50.621094 41.886719 48.824219 40.445312 47.027344 40.445312 M 110.734375 106.015625 C 109.277344 106.046875 107.96875 106.976562 107.527344 108.390625 L 107.527344 108.414062 C 105.347656 115.402344 101.117188 124.433594 101.117188 124.433594 C 101.117188 124.433594 96.898438 131.898438 94.515625 140.257812 C 97.074219 139.519531 99.59375 138.628906 102.050781 137.59375 C 106.855469 135.496094 111.402344 132.84375 115.601562 129.699219 C 114.914062 128.324219 114.160156 126.988281 113.332031 125.691406 C 113.332031 125.691406 111.933594 119.480469 109.253906 112.707031 C 109.675781 111.546875 110.054688 110.40625 110.394531 109.308594 L 110.417969 109.226562 C 110.496094 109.070312 110.671875 109.007812 110.875 109.007812 L 110.894531 109.007812 C 112.292969 109.226562 113.773438 109.449219 115.488281 109.648438 C 116.011719 109.691406 116.546875 109.730469 117.085938 109.789062 C 117.746094 109.847656 118.386719 109.910156 119.046875 109.949219 C 119.207031 116.234375 121.933594 122.242188 122.621094 123.679688 C 127.652344 118.726562 131.886719 113.019531 135.167969 106.769531 C 130.3125 107.324219 124.371094 107.511719 117.378906 106.8125 C 116.820312 106.75 116.261719 106.695312 115.699219 106.648438 C 114.25 106.484375 112.804688 106.285156 111.363281 106.054688 C 111.15625 106.023438 110.945312 106.007812 110.734375 106.015625 M 110.734375 106.015625 "/>
</svg>
