<?xml version="1.0" encoding="UTF-8"?>
<svg xmlns="http://www.w3.org/2000/svg" xmlns:xlink="http://www.w3.org/1999/xlink" width="600" height="600" viewBox="0 0 600 600">
<path fill-rule="nonzero" fill="rgb(0%, 45.098039%, 63.137255%)" fill-opacity="1" d="M 600 300 C 600 465.695312 465.695312 600 300 600 C 134.304688 600 0 465.695312 0 300 C 0 134.304688 134.304688 0 300 0 C 465.695312 0 600 134.304688 600 300 M 600 300 "/>
<path fill-rule="nonzero" fill="rgb(0%, 45.098039%, 63.137255%)" fill-opacity="1" d="M 571.546875 300 C 571.546875 449.960938 449.960938 571.546875 300 571.546875 C 150.039062 571.546875 28.453125 449.960938 28.453125 300 C 28.453125 150.039062 150.039062 28.453125 300 28.453125 C 449.960938 28.453125 571.546875 150.039062 571.546875 300 M 571.546875 300 "/>
<path fill-rule="nonzero" fill="rgb(100%, 100%, 100%)" fill-opacity="1" d="M 303.9375 27.558594 C 264.832031 26.878906 226.042969 34.617188 190.191406 50.246094 C 52.097656 110.453125 -11.078125 271.195312 49.125 409.3125 C 100.070312 525.382812 224.230469 591.066406 348.835938 567.867188 C 354.144531 550.945312 358.5 532.382812 358.5 512.128906 C 358.5 509.253906 358.429688 506.375 358.265625 503.410156 C 358.265625 503.410156 368.007812 486.789062 375.695312 465.125 C 385.199219 438.355469 380.164062 408.859375 363.703125 385.53125 C 362.734375 384.25 361.78125 382.820312 360.734375 381.371094 C 263.796875 381.371094 215.84375 293.460938 203.6875 239.996094 C 198.652344 218.007812 194.570312 215.828125 180.851562 215.828125 C 155.457031 215.828125 137.128906 205.296875 137.128906 205.296875 C 113.816406 215.972656 103.378906 211.632812 106.515625 200.484375 C 96.371094 199.363281 96.570312 187.828125 102.757812 177.242188 C 110.503906 163.96875 126.324219 154.945312 145.273438 154.945312 L 155.417969 154.945312 C 176.367188 154.945312 180.671875 143.996094 202.257812 146.320312 C 205.609375 146.648438 208.726562 147.195312 211.617188 147.914062 C 217.601562 141.046875 224.394531 138.171875 232.617188 138.722656 C 233.207031 138.777344 233.746094 139.078125 234.097656 139.554688 C 234.449219 140.027344 234.585938 140.632812 234.46875 141.210938 L 232.472656 150.476562 C 231.734375 153.917969 232.707031 157.507812 235.179688 159.835938 C 252.613281 176.128906 262.59375 203.945312 273.777344 229.046875 C 291.921875 266.054688 335.722656 317.433594 405.980469 251.5 C 455.386719 205.132812 485.210938 166.480469 534.265625 162.6875 C 486.296875 80.574219 399.019531 29.367188 303.9375 27.558594 M 188.105469 161.773438 C 180.910156 161.773438 173.734375 167.539062 176.164062 168.585938 C 176.714844 168.820312 177.648438 168.96875 178.710938 169.101562 C 179.460938 173.695312 183.324219 177.242188 188.140625 177.242188 C 192.957031 177.242188 196.765625 173.695312 197.515625 169.078125 C 198.578125 168.96875 199.496094 168.824219 200.042969 168.585938 C 202.480469 167.539062 195.300781 161.773438 188.105469 161.773438 M 442.929688 424.054688 C 437.109375 424.179688 431.867188 427.898438 430.117188 433.554688 L 430.117188 433.648438 C 421.398438 461.609375 404.460938 497.738281 404.460938 497.738281 C 404.460938 497.738281 387.601562 527.597656 378.054688 561.039062 C 388.304688 558.078125 398.367188 554.519531 408.195312 550.378906 C 427.421875 541.976562 445.609375 531.378906 462.398438 518.792969 C 459.664062 513.296875 456.636719 507.949219 453.332031 502.773438 C 453.332031 502.773438 447.730469 477.921875 437.019531 450.824219 C 438.703125 446.1875 440.222656 441.632812 441.578125 437.234375 L 441.671875 436.90625 C 441.980469 436.285156 442.691406 436.03125 443.5 436.03125 L 443.574219 436.03125 C 449.175781 436.90625 455.089844 437.804688 461.957031 438.589844 C 464.042969 438.757812 466.1875 438.917969 468.347656 439.15625 C 470.984375 439.398438 473.550781 439.636719 476.183594 439.800781 C 476.828125 464.945312 487.738281 488.96875 490.480469 494.714844 C 510.613281 474.902344 527.546875 452.082031 540.675781 427.074219 C 521.246094 429.289062 497.480469 430.039062 469.519531 427.242188 C 467.28125 426.992188 465.039062 426.777344 462.796875 426.601562 C 457 425.933594 451.21875 425.140625 445.457031 424.21875 C 444.621094 424.089844 443.777344 424.035156 442.929688 424.054688 M 442.929688 424.054688 "/>
</svg>
