<?xml version="1.0" encoding="UTF-8"?>
<svg xmlns="http://www.w3.org/2000/svg" xmlns:xlink="http://www.w3.org/1999/xlink" width="1200" height="1200" viewBox="0 0 1200 1200">
<path fill-rule="nonzero" fill="rgb(0%, 45.098039%, 63.137255%)" fill-opacity="1" d="M 1200 600 C 1200 931.386719 931.386719 1200 600 1200 C 268.613281 1200 0 931.386719 0 600 C 0 268.613281 268.613281 0 600 0 C 931.386719 0 1200 268.613281 1200 600 M 1200 600 "/>
<path fill-rule="nonzero" fill="rgb(0%, 45.098039%, 63.137255%)" fill-opacity="1" d="M 1143.09375 600 C 1143.09375 899.925781 899.925781 1143.09375 600 1143.09375 C 300.074219 1143.09375 56.90625 899.925781 56.90625 600 C 56.90625 300.074219 300.074219 56.90625 600 56.90625 C 899.925781 56.90625 1143.09375 300.074219 1143.09375 600 M 1143.09375 600 "/>
<path fill-rule="nonzero" fill="rgb(100%, 100%, 100%)" fill-opacity="1" d="M 607.875 55.117188 C 529.667969 53.757812 452.082031 69.234375 380.382812 100.492188 C 104.195312 220.902344 -22.152344 542.390625 98.25 818.625 C 200.136719 1050.769531 448.460938 1182.132812 697.667969 1135.734375 C 708.289062 1101.890625 717 1064.765625 717 1024.257812 C 717 1018.507812 716.859375 1012.753906 716.53125 1006.820312 C 716.53125 1006.820312 736.011719 973.574219 751.386719 930.253906 C 770.398438 876.710938 760.332031 817.714844 727.40625 771.066406 C 725.464844 768.496094 723.5625 765.636719 721.472656 762.742188 C 527.597656 762.742188 431.691406 586.921875 407.371094 479.992188 C 397.304688 436.011719 389.136719 431.652344 361.707031 431.652344 C 310.914062 431.652344 274.257812 410.597656 274.257812 410.597656 C 227.632812 431.945312 206.757812 423.261719 213.027344 400.96875 C 192.742188 398.726562 193.144531 375.65625 205.519531 354.488281 C 221.007812 327.9375 252.648438 309.890625 290.550781 309.890625 L 310.835938 309.890625 C 352.734375 309.890625 361.339844 287.992188 404.511719 292.640625 C 411.214844 293.296875 417.449219 294.394531 423.234375 295.828125 C 435.207031 282.09375 448.789062 276.347656 465.234375 277.445312 C 466.414062 277.554688 467.488281 278.160156 468.195312 279.109375 C 468.902344 280.058594 469.171875 281.261719 468.9375 282.421875 L 464.945312 300.957031 C 463.472656 307.835938 465.414062 315.019531 470.363281 319.667969 C 505.226562 352.257812 525.1875 407.886719 547.554688 458.089844 C 583.847656 532.105469 671.445312 634.867188 811.960938 502.996094 C 910.773438 410.269531 970.425781 332.960938 1068.535156 325.378906 C 972.59375 161.144531 798.042969 58.738281 607.875 55.117188 M 376.210938 323.550781 C 361.820312 323.550781 347.464844 335.082031 352.332031 337.171875 C 353.429688 337.640625 355.292969 337.941406 357.421875 338.203125 C 358.921875 347.390625 366.648438 354.488281 376.285156 354.488281 C 385.914062 354.488281 393.535156 347.390625 395.035156 338.15625 C 397.152344 337.941406 398.992188 337.648438 400.085938 337.171875 C 404.960938 335.082031 390.601562 323.550781 376.210938 323.550781 M 885.863281 848.109375 C 874.21875 848.363281 863.738281 855.796875 860.230469 867.113281 L 860.230469 867.300781 C 842.792969 923.222656 808.921875 995.476562 808.921875 995.476562 C 808.921875 995.476562 775.199219 1055.195312 756.113281 1122.074219 C 776.605469 1116.15625 796.734375 1109.039062 816.394531 1100.757812 C 854.84375 1083.953125 891.222656 1062.757812 924.796875 1037.585938 C 919.324219 1026.59375 913.273438 1015.898438 906.664062 1005.542969 C 906.664062 1005.542969 895.460938 955.847656 874.039062 901.648438 C 877.40625 892.378906 880.445312 883.265625 883.152344 874.472656 L 883.339844 873.816406 C 883.960938 872.570312 885.382812 872.0625 886.996094 872.0625 L 887.148438 872.0625 C 898.351562 873.816406 910.179688 875.605469 923.914062 877.179688 C 928.085938 877.519531 932.371094 877.835938 936.695312 878.316406 C 941.972656 878.792969 947.101562 879.273438 952.367188 879.601562 C 953.652344 929.886719 975.476562 977.933594 980.960938 989.429688 C 1021.226562 949.804688 1055.09375 904.164062 1081.351562 854.148438 C 1042.492188 858.582031 994.960938 860.082031 939.039062 854.484375 C 934.5625 853.984375 930.082031 853.554688 925.59375 853.199219 C 914 851.871094 902.4375 850.28125 890.914062 848.4375 C 889.246094 848.175781 887.554688 848.066406 885.863281 848.109375 M 885.863281 848.109375 "/>
</svg>
