<?xml version="1.0" encoding="UTF-8"?>
<svg xmlns="http://www.w3.org/2000/svg" xmlns:xlink="http://www.w3.org/1999/xlink" width="900" height="900" viewBox="0 0 900 900">
<path fill-rule="nonzero" fill="rgb(0%, 45.098039%, 63.137255%)" fill-opacity="1" d="M 900 450 C 900 698.539062 698.539062 900 450 900 C 201.460938 900 0 698.539062 0 450 C 0 201.460938 201.460938 0 450 0 C 698.539062 0 900 201.460938 900 450 M 900 450 "/>
<path fill-rule="nonzero" fill="rgb(0%, 45.098039%, 63.137255%)" fill-opacity="1" d="M 857.320312 450 C 857.320312 674.945312 674.945312 857.320312 450 857.320312 C 225.054688 857.320312 42.679688 674.945312 42.679688 450 C 42.679688 225.054688 225.054688 42.679688 450 42.679688 C 674.945312 42.679688 857.320312 225.054688 857.320312 450 M 857.320312 450 "/>
<path fill-rule="nonzero" fill="rgb(100%, 100%, 100%)" fill-opacity="1" d="M 455.90625 41.335938 C 397.25 40.320312 339.0625 51.925781 285.285156 75.367188 C 78.144531 165.675781 -16.613281 406.792969 73.6875 613.96875 C 150.101562 788.078125 336.347656 886.597656 523.25 851.800781 C 531.21875 826.417969 537.75 798.574219 537.75 768.191406 C 537.75 763.882812 537.644531 759.566406 537.398438 755.113281 C 537.398438 755.113281 552.007812 730.179688 563.539062 697.691406 C 577.800781 657.535156 570.25 613.285156 545.554688 578.300781 C 544.097656 576.371094 542.671875 574.226562 541.105469 572.054688 C 395.699219 572.054688 323.769531 440.191406 305.527344 359.992188 C 297.976562 327.007812 291.851562 323.738281 271.28125 323.738281 C 233.183594 323.738281 205.691406 307.949219 205.691406 307.949219 C 170.726562 323.957031 155.066406 317.445312 159.769531 300.726562 C 144.554688 299.046875 144.859375 281.742188 154.140625 265.867188 C 165.753906 245.953125 189.484375 232.417969 217.914062 232.417969 L 233.128906 232.417969 C 264.550781 232.417969 271.003906 215.992188 303.382812 219.480469 C 308.410156 219.972656 313.085938 220.796875 317.425781 221.871094 C 326.40625 211.570312 336.59375 207.261719 348.925781 208.082031 C 349.808594 208.164062 350.617188 208.617188 351.144531 209.332031 C 351.675781 210.042969 351.878906 210.945312 351.703125 211.816406 L 348.707031 225.71875 C 347.605469 230.878906 349.058594 236.265625 352.773438 239.75 C 378.921875 264.191406 393.890625 305.914062 410.667969 343.566406 C 437.886719 399.078125 503.585938 476.148438 608.96875 377.246094 C 683.078125 307.703125 727.820312 249.722656 801.402344 244.035156 C 729.445312 120.859375 598.53125 44.054688 455.90625 41.335938 M 282.15625 242.664062 C 271.363281 242.664062 260.597656 251.3125 264.25 252.878906 C 265.070312 253.230469 266.46875 253.457031 268.066406 253.652344 C 269.191406 260.542969 274.984375 265.867188 282.214844 265.867188 C 289.433594 265.867188 295.152344 260.542969 296.277344 253.617188 C 297.863281 253.457031 299.242188 253.238281 300.066406 252.878906 C 303.722656 251.3125 292.949219 242.664062 282.15625 242.664062 M 664.398438 636.082031 C 655.664062 636.273438 647.804688 641.847656 645.171875 650.335938 L 645.171875 650.476562 C 632.09375 692.417969 606.691406 746.605469 606.691406 746.605469 C 606.691406 746.605469 581.398438 791.394531 567.085938 841.554688 C 582.457031 837.117188 597.550781 831.777344 612.296875 825.566406 C 641.132812 812.964844 668.414062 797.066406 693.597656 778.191406 C 689.492188 769.945312 684.953125 761.921875 680 754.15625 C 680 754.15625 671.597656 716.886719 655.53125 676.238281 C 658.054688 669.285156 660.332031 662.449219 662.363281 655.855469 L 662.503906 655.363281 C 662.96875 654.425781 664.039062 654.046875 665.246094 654.046875 L 665.359375 654.046875 C 673.761719 655.363281 682.636719 656.703125 692.9375 657.886719 C 696.066406 658.140625 699.277344 658.378906 702.519531 658.738281 C 706.480469 659.09375 710.324219 659.453125 714.277344 659.699219 C 715.238281 697.414062 731.609375 733.449219 735.722656 742.070312 C 765.917969 712.351562 791.320312 678.125 811.011719 640.609375 C 781.867188 643.9375 746.21875 645.0625 704.277344 640.863281 C 700.921875 640.488281 697.5625 640.167969 694.195312 639.898438 C 685.5 638.902344 676.828125 637.710938 668.1875 636.328125 C 666.933594 636.132812 665.664062 636.050781 664.398438 636.082031 M 664.398438 636.082031 "/>
</svg>
