<?xml version="1.0" encoding="UTF-8"?>
<svg xmlns="http://www.w3.org/2000/svg" xmlns:xlink="http://www.w3.org/1999/xlink" width="400" height="400" viewBox="0 0 400 400">
<path fill-rule="nonzero" fill="rgb(0%, 45.098039%, 63.137255%)" fill-opacity="1" d="M 400 200 C 400 310.460938 310.460938 400 200 400 C 89.539062 400 0 310.460938 0 200 C 0 89.539062 89.539062 0 200 0 C 310.460938 0 400 89.539062 400 200 M 400 200 "/>
<path fill-rule="nonzero" fill="rgb(0%, 45.098039%, 63.137255%)" fill-opacity="1" d="M 381.03125 200 C 381.03125 299.976562 299.976562 381.03125 200 381.03125 C 100.023438 381.03125 18.96875 299.976562 18.96875 200 C 18.96875 100.023438 100.023438 18.96875 200 18.96875 C 299.976562 18.96875 381.03125 100.023438 381.03125 200 M 381.03125 200 "/>
<path fill-rule="nonzero" fill="rgb(100%, 100%, 100%)" fill-opacity="1" d="M 202.625 18.371094 C 176.554688 17.917969 150.695312 23.078125 126.792969 33.496094 C 34.730469 73.632812 -7.382812 180.796875 32.75 272.875 C 66.710938 350.257812 149.488281 394.042969 232.554688 378.578125 C 236.097656 367.296875 239 354.921875 239 341.417969 C 239 339.503906 238.953125 337.585938 238.84375 335.605469 C 238.84375 335.605469 245.335938 324.523438 250.460938 310.085938 C 256.800781 292.238281 253.445312 272.570312 242.46875 257.023438 C 241.820312 256.164062 241.1875 255.210938 240.492188 254.246094 C 175.867188 254.246094 143.898438 195.640625 135.789062 159.996094 C 132.433594 145.335938 129.710938 143.882812 120.570312 143.882812 C 103.636719 143.882812 91.417969 136.867188 91.417969 136.867188 C 75.878906 143.980469 68.917969 141.085938 71.007812 133.65625 C 64.246094 132.910156 64.382812 125.21875 68.507812 118.164062 C 73.667969 109.3125 84.214844 103.296875 96.851562 103.296875 L 103.613281 103.296875 C 117.578125 103.296875 120.445312 95.996094 134.835938 97.546875 C 137.070312 97.765625 139.148438 98.132812 141.078125 98.609375 C 145.070312 94.03125 149.597656 92.117188 155.078125 92.480469 C 155.472656 92.519531 155.828125 92.71875 156.066406 93.035156 C 156.300781 93.351562 156.390625 93.753906 156.3125 94.140625 L 154.980469 100.320312 C 154.492188 102.613281 155.136719 105.007812 156.789062 106.554688 C 168.410156 117.417969 175.0625 135.960938 182.519531 152.695312 C 194.617188 177.367188 223.816406 211.621094 270.652344 167.664062 C 303.589844 136.757812 323.476562 110.988281 356.179688 108.460938 C 324.199219 53.714844 266.015625 19.578125 202.625 18.371094 M 125.402344 107.851562 C 120.605469 107.851562 115.820312 111.695312 117.445312 112.390625 C 117.808594 112.546875 118.429688 112.648438 119.140625 112.734375 C 119.640625 115.796875 122.214844 118.164062 125.429688 118.164062 C 128.636719 118.164062 131.179688 115.796875 131.679688 112.71875 C 132.382812 112.648438 132.996094 112.550781 133.363281 112.390625 C 134.988281 111.695312 130.199219 107.851562 125.402344 107.851562 M 295.289062 282.703125 C 291.40625 282.789062 287.914062 285.265625 286.742188 289.039062 L 286.742188 289.101562 C 280.929688 307.742188 269.640625 331.824219 269.640625 331.824219 C 269.640625 331.824219 258.398438 351.730469 252.039062 374.023438 C 258.867188 372.050781 265.578125 369.679688 272.132812 366.917969 C 284.949219 361.316406 297.074219 354.253906 308.265625 345.863281 C 306.441406 342.199219 304.425781 338.632812 302.222656 335.179688 C 302.222656 335.179688 298.488281 318.617188 291.347656 300.550781 C 292.46875 297.460938 293.480469 294.421875 294.382812 291.492188 L 294.445312 291.273438 C 294.652344 290.855469 295.128906 290.6875 295.664062 290.6875 L 295.714844 290.6875 C 299.449219 291.273438 303.394531 291.867188 307.972656 292.394531 C 309.363281 292.507812 310.789062 292.613281 312.230469 292.773438 C 313.992188 292.929688 315.699219 293.089844 317.457031 293.199219 C 317.882812 309.960938 325.160156 325.976562 326.988281 329.808594 C 340.410156 316.601562 351.699219 301.386719 360.449219 284.714844 C 347.496094 286.195312 331.652344 286.695312 313.011719 284.828125 C 311.519531 284.660156 310.027344 284.519531 308.53125 284.398438 C 304.667969 283.957031 300.8125 283.425781 296.972656 282.8125 C 296.414062 282.726562 295.851562 282.6875 295.289062 282.703125 M 295.289062 282.703125 "/>
</svg>
