<?xml version="1.0" encoding="UTF-8"?>
<svg xmlns="http://www.w3.org/2000/svg" xmlns:xlink="http://www.w3.org/1999/xlink" width="1900" height="1900" viewBox="0 0 1900 1900">
<path fill-rule="nonzero" fill="rgb(0%, 45.098039%, 63.137255%)" fill-opacity="1" d="M 1900 950 C 1900 1474.695312 1474.695312 1900 950 1900 C 425.304688 1900 0 1474.695312 0 950 C 0 425.304688 425.304688 0 950 0 C 1474.695312 0 1900 425.304688 1900 950 M 1900 950 "/>
<path fill-rule="nonzero" fill="rgb(0%, 45.098039%, 63.137255%)" fill-opacity="1" d="M 1809.898438 950 C 1809.898438 1424.882812 1424.882812 1809.898438 950 1809.898438 C 475.117188 1809.898438 90.101562 1424.882812 90.101562 950 C 90.101562 475.117188 475.117188 90.101562 950 90.101562 C 1424.882812 90.101562 1809.898438 475.117188 1809.898438 950 M 1809.898438 950 "/>
<path fill-rule="nonzero" fill="rgb(100%, 100%, 100%)" fill-opacity="1" d="M 962.46875 87.265625 C 838.640625 85.117188 715.800781 109.621094 602.269531 159.109375 C 164.972656 349.761719 -35.074219 858.785156 155.5625 1296.15625 C 316.882812 1663.71875 710.066406 1871.707031 1104.640625 1798.246094 C 1121.460938 1744.660156 1135.25 1685.878906 1135.25 1621.738281 C 1135.25 1612.640625 1135.027344 1603.527344 1134.507812 1594.128906 C 1134.507812 1594.128906 1165.351562 1541.492188 1189.695312 1472.902344 C 1219.800781 1388.128906 1203.859375 1294.714844 1151.726562 1220.855469 C 1148.652344 1216.785156 1145.640625 1212.257812 1142.332031 1207.671875 C 835.363281 1207.671875 683.511719 929.292969 645.003906 759.984375 C 629.0625 690.351562 616.132812 683.449219 572.703125 683.449219 C 492.277344 683.449219 434.238281 650.113281 434.238281 650.113281 C 360.421875 683.910156 327.363281 670.164062 337.292969 634.867188 C 305.171875 631.320312 305.8125 594.789062 325.40625 561.273438 C 349.925781 519.234375 400.023438 490.660156 460.039062 490.660156 L 492.160156 490.660156 C 558.496094 490.660156 572.121094 455.984375 640.476562 463.347656 C 651.089844 464.386719 660.960938 466.125 670.121094 468.394531 C 689.078125 446.648438 710.585938 437.550781 736.621094 439.285156 C 738.488281 439.460938 740.191406 440.417969 741.308594 441.921875 C 742.425781 443.421875 742.855469 445.332031 742.484375 447.167969 L 736.160156 476.515625 C 733.832031 487.410156 736.902344 498.78125 744.742188 506.140625 C 799.945312 557.738281 831.546875 645.820312 866.964844 725.308594 C 924.425781 842.5 1063.125 1005.203125 1285.601562 796.410156 C 1442.054688 649.59375 1536.507812 527.191406 1691.847656 515.183594 C 1539.941406 255.144531 1263.566406 93 962.46875 87.265625 M 595.664062 512.289062 C 572.878906 512.289062 550.152344 530.546875 557.859375 533.855469 C 559.59375 534.597656 562.546875 535.074219 565.917969 535.488281 C 568.292969 550.035156 580.523438 561.273438 595.785156 561.273438 C 611.027344 561.273438 623.097656 550.035156 625.472656 535.414062 C 628.824219 535.074219 631.734375 534.613281 633.472656 533.855469 C 641.191406 530.546875 618.449219 512.289062 595.664062 512.289062 M 1402.617188 1342.839844 C 1384.179688 1343.242188 1367.585938 1355.011719 1362.03125 1372.929688 L 1362.03125 1373.226562 C 1334.421875 1461.769531 1280.792969 1576.167969 1280.792969 1576.167969 C 1280.792969 1576.167969 1227.398438 1670.722656 1197.179688 1776.617188 C 1229.628906 1767.25 1261.496094 1755.976562 1292.625 1742.863281 C 1353.503906 1716.257812 1411.101562 1682.695312 1464.261719 1642.847656 C 1455.597656 1625.4375 1446.015625 1608.503906 1435.554688 1592.109375 C 1435.554688 1592.109375 1417.816406 1513.425781 1383.898438 1427.613281 C 1389.226562 1412.933594 1394.035156 1398.503906 1398.324219 1384.582031 L 1398.621094 1383.542969 C 1399.601562 1381.566406 1401.859375 1380.765625 1404.410156 1380.765625 L 1404.648438 1380.765625 C 1422.386719 1383.542969 1441.121094 1386.375 1462.867188 1388.871094 C 1469.472656 1389.40625 1476.253906 1389.910156 1483.097656 1390.667969 C 1491.457031 1391.421875 1499.574219 1392.179688 1507.917969 1392.699219 C 1509.949219 1472.320312 1544.507812 1548.394531 1553.191406 1566.59375 C 1616.941406 1503.855469 1670.5625 1431.59375 1712.136719 1352.398438 C 1650.609375 1359.421875 1575.351562 1361.796875 1486.808594 1352.933594 C 1479.726562 1352.140625 1472.628906 1351.464844 1465.523438 1350.898438 C 1447.167969 1348.792969 1428.859375 1346.28125 1410.617188 1343.359375 C 1407.96875 1342.945312 1405.292969 1342.773438 1402.617188 1342.839844 M 1402.617188 1342.839844 "/>
</svg>
