<?xml version="1.0" encoding="UTF-8"?>
<svg xmlns="http://www.w3.org/2000/svg" xmlns:xlink="http://www.w3.org/1999/xlink" width="350" height="350" viewBox="0 0 350 350">
<path fill-rule="nonzero" fill="rgb(0%, 45.098039%, 63.137255%)" fill-opacity="1" d="M 350 175 C 350 271.65625 271.65625 350 175 350 C 78.34375 350 0 271.65625 0 175 C 0 78.34375 78.34375 0 175 0 C 271.65625 0 350 78.34375 350 175 M 350 175 "/>
<path fill-rule="nonzero" fill="rgb(0%, 45.098039%, 63.137255%)" fill-opacity="1" d="M 333.402344 175 C 333.402344 262.476562 262.476562 333.402344 175 333.402344 C 87.523438 333.402344 16.597656 262.476562 16.597656 175 C 16.597656 87.523438 87.523438 16.597656 175 16.597656 C 262.476562 16.597656 333.402344 87.523438 333.402344 175 M 333.402344 175 "/>
<path fill-rule="nonzero" fill="rgb(100%, 100%, 100%)" fill-opacity="1" d="M 177.296875 16.074219 C 154.488281 15.679688 131.859375 20.191406 110.945312 29.308594 C 30.390625 64.429688 -6.460938 158.195312 28.65625 238.765625 C 58.375 306.472656 130.800781 344.789062 203.488281 331.257812 C 206.585938 321.382812 209.125 310.554688 209.125 298.742188 C 209.125 297.066406 209.085938 295.386719 208.988281 293.65625 C 208.988281 293.65625 214.671875 283.960938 219.15625 271.324219 C 224.699219 255.707031 221.761719 238.5 212.160156 224.894531 C 211.59375 224.144531 211.039062 223.3125 210.429688 222.464844 C 153.882812 222.464844 125.910156 171.183594 118.816406 139.996094 C 115.878906 127.171875 113.5 125.898438 105.496094 125.898438 C 90.683594 125.898438 79.992188 119.757812 79.992188 119.757812 C 66.394531 125.984375 60.304688 123.453125 62.132812 116.949219 C 56.214844 116.296875 56.332031 109.566406 59.941406 103.390625 C 64.460938 95.648438 73.6875 90.382812 84.742188 90.382812 L 90.660156 90.382812 C 102.882812 90.382812 105.390625 83.996094 117.984375 85.351562 C 119.9375 85.542969 121.757812 85.863281 123.445312 86.28125 C 126.933594 82.277344 130.898438 80.601562 135.695312 80.921875 C 136.035156 80.953125 136.351562 81.128906 136.558594 81.40625 C 136.761719 81.683594 136.839844 82.035156 136.773438 82.371094 L 135.609375 87.777344 C 135.179688 89.785156 135.746094 91.878906 137.1875 93.238281 C 147.359375 102.742188 153.179688 118.96875 159.703125 133.609375 C 170.289062 155.199219 195.839844 185.167969 236.820312 146.707031 C 265.640625 119.660156 283.039062 97.113281 311.65625 94.902344 C 283.671875 47 232.761719 17.132812 177.296875 16.074219 M 109.726562 94.367188 C 105.53125 94.367188 101.34375 97.730469 102.761719 98.34375 C 103.082031 98.476562 103.628906 98.566406 104.25 98.644531 C 104.683594 101.320312 106.9375 103.390625 109.75 103.390625 C 112.558594 103.390625 114.78125 101.324219 115.21875 98.628906 C 115.835938 98.566406 116.371094 98.480469 116.691406 98.34375 C 118.113281 97.730469 113.925781 94.367188 109.726562 94.367188 M 258.375 247.367188 C 254.980469 247.4375 251.921875 249.609375 250.902344 252.90625 L 250.902344 252.960938 C 245.816406 269.273438 235.9375 290.347656 235.9375 290.347656 C 235.9375 290.347656 226.101562 307.765625 220.53125 327.273438 C 226.511719 325.546875 232.382812 323.46875 238.113281 321.054688 C 249.328125 316.152344 259.9375 309.96875 269.734375 302.628906 C 268.136719 299.421875 266.371094 296.304688 264.445312 293.285156 C 264.445312 293.285156 261.175781 278.789062 254.929688 262.980469 C 255.910156 260.277344 256.796875 257.617188 257.585938 255.054688 L 257.640625 254.863281 C 257.820312 254.5 258.238281 254.351562 258.707031 254.351562 L 258.75 254.351562 C 262.019531 254.863281 265.46875 255.386719 269.476562 255.84375 C 270.691406 255.941406 271.941406 256.035156 273.203125 256.175781 C 274.742188 256.316406 276.238281 256.453125 277.773438 256.550781 C 278.148438 271.21875 284.515625 285.230469 286.113281 288.582031 C 297.859375 277.027344 307.734375 263.714844 315.394531 249.125 C 304.058594 250.417969 290.195312 250.855469 273.886719 249.226562 C 272.582031 249.078125 271.273438 248.953125 269.964844 248.851562 C 266.582031 248.460938 263.210938 248 259.851562 247.460938 C 259.363281 247.386719 258.871094 247.351562 258.375 247.367188 M 258.375 247.367188 "/>
</svg>
