<?xml version="1.0" encoding="UTF-8"?>
<svg xmlns="http://www.w3.org/2000/svg" xmlns:xlink="http://www.w3.org/1999/xlink" width="1300" height="1300" viewBox="0 0 1300 1300">
<path fill-rule="nonzero" fill="rgb(0%, 45.098039%, 63.137255%)" fill-opacity="1" d="M 1300 650 C 1300 1009.003906 1009.003906 1300 650 1300 C 290.996094 1300 0 1009.003906 0 650 C 0 290.996094 290.996094 0 650 0 C 1009.003906 0 1300 290.996094 1300 650 M 1300 650 "/>
<path fill-rule="nonzero" fill="rgb(0%, 45.098039%, 63.137255%)" fill-opacity="1" d="M 1238.351562 650 C 1238.351562 974.917969 974.917969 1238.351562 650 1238.351562 C 325.082031 1238.351562 61.648438 974.917969 61.648438 650 C 61.648438 325.082031 325.082031 61.648438 650 61.648438 C 974.917969 61.648438 1238.351562 325.082031 1238.351562 650 M 1238.351562 650 "/>
<path fill-rule="nonzero" fill="rgb(100%, 100%, 100%)" fill-opacity="1" d="M 658.53125 59.707031 C 573.808594 58.238281 489.757812 75.003906 412.078125 108.863281 C 112.875 239.3125 -24 587.589844 106.4375 886.84375 C 216.816406 1138.332031 485.835938 1280.640625 755.808594 1230.378906 C 767.316406 1193.714844 776.75 1153.496094 776.75 1109.609375 C 776.75 1103.386719 776.597656 1097.148438 776.242188 1090.71875 C 776.242188 1090.71875 797.347656 1054.707031 814.003906 1007.773438 C 834.601562 949.773438 823.691406 885.859375 788.023438 835.320312 C 785.921875 832.539062 783.859375 829.441406 781.59375 826.300781 C 571.5625 826.300781 467.664062 635.832031 441.320312 519.988281 C 430.410156 472.347656 421.566406 467.625 391.847656 467.625 C 336.820312 467.625 297.109375 444.8125 297.109375 444.8125 C 246.605469 467.9375 223.984375 458.535156 230.78125 434.382812 C 208.800781 431.957031 209.238281 406.960938 222.644531 384.027344 C 239.421875 355.265625 273.699219 335.714844 314.761719 335.714844 L 336.742188 335.714844 C 382.128906 335.714844 391.453125 311.988281 438.222656 317.027344 C 445.484375 317.738281 452.238281 318.925781 458.503906 320.480469 C 471.472656 305.601562 486.191406 299.375 504.003906 300.5625 C 505.28125 300.683594 506.445312 301.339844 507.210938 302.367188 C 507.976562 303.394531 508.269531 304.699219 508.015625 305.957031 L 503.6875 326.035156 C 502.09375 333.492188 504.195312 341.269531 509.558594 346.308594 C 547.332031 381.609375 568.953125 441.878906 593.1875 496.265625 C 632.5 576.449219 727.402344 687.769531 879.621094 544.914062 C 986.667969 444.457031 1051.292969 360.710938 1157.578125 352.492188 C 1053.644531 174.574219 864.546875 63.632812 658.53125 59.707031 M 407.558594 350.511719 C 391.96875 350.511719 376.421875 363.003906 381.691406 365.269531 C 382.878906 365.777344 384.902344 366.101562 387.207031 366.386719 C 388.832031 376.339844 397.199219 384.027344 407.640625 384.027344 C 418.070312 384.027344 426.328125 376.339844 427.953125 366.335938 C 430.25 366.101562 432.238281 365.789062 433.429688 365.269531 C 438.710938 363.003906 423.148438 350.511719 407.558594 350.511719 M 959.683594 918.785156 C 947.070312 919.058594 935.714844 927.113281 931.917969 939.371094 L 931.917969 939.574219 C 913.027344 1000.15625 876.332031 1078.429688 876.332031 1078.429688 C 876.332031 1078.429688 839.800781 1143.125 819.121094 1215.582031 C 841.324219 1209.171875 863.128906 1201.457031 884.425781 1192.484375 C 926.082031 1174.28125 965.488281 1151.320312 1001.863281 1124.054688 C 995.933594 1112.140625 989.378906 1100.554688 982.222656 1089.339844 C 982.222656 1089.339844 970.085938 1035.5 946.878906 976.789062 C 950.523438 966.742188 953.8125 956.871094 956.75 947.34375 L 956.953125 946.632812 C 957.621094 945.28125 959.167969 944.734375 960.914062 944.734375 L 961.074219 944.734375 C 973.210938 946.632812 986.03125 948.574219 1000.910156 950.28125 C 1005.429688 950.644531 1010.070312 950.992188 1014.75 951.507812 C 1020.46875 952.027344 1026.023438 952.542969 1031.734375 952.898438 C 1033.125 1007.378906 1056.769531 1059.429688 1062.710938 1071.878906 C 1106.328125 1028.953125 1143.015625 979.511719 1171.460938 925.324219 C 1129.363281 930.128906 1077.871094 931.753906 1017.289062 925.691406 C 1012.445312 925.148438 1007.589844 924.6875 1002.726562 924.300781 C 990.167969 922.859375 977.640625 921.136719 965.160156 919.140625 C 963.347656 918.859375 961.515625 918.738281 959.683594 918.785156 M 959.683594 918.785156 "/>
</svg>
