<?xml version="1.0" encoding="UTF-8"?>
<svg xmlns="http://www.w3.org/2000/svg" xmlns:xlink="http://www.w3.org/1999/xlink" width="48" height="48" viewBox="0 0 48 48">
<path fill-rule="nonzero" fill="rgb(0%, 45.098039%, 63.137255%)" fill-opacity="1" d="M 48 24 C 48 37.253906 37.253906 48 24 48 C 10.746094 48 0 37.253906 0 24 C 0 10.746094 10.746094 0 24 0 C 37.253906 0 48 10.746094 48 24 M 48 24 "/>
<path fill-rule="nonzero" fill="rgb(0%, 45.098039%, 63.137255%)" fill-opacity="1" d="M 45.722656 24 C 45.722656 35.996094 35.996094 45.722656 24 45.722656 C 12.003906 45.722656 2.277344 35.996094 2.277344 24 C 2.277344 12.003906 12.003906 2.277344 24 2.277344 C 35.996094 2.277344 45.722656 12.003906 45.722656 24 M 45.722656 24 "/>
<path fill-rule="nonzero" fill="rgb(100%, 100%, 100%)" fill-opacity="1" d="M 24.316406 2.203125 C 21.1875 2.148438 18.082031 2.769531 15.214844 4.019531 C 4.167969 8.835938 -0.886719 21.695312 3.929688 32.746094 C 8.003906 42.03125 17.9375 47.285156 27.90625 45.429688 C 28.332031 44.074219 28.679688 42.589844 28.679688 40.96875 C 28.679688 40.742188 28.675781 40.511719 28.660156 40.273438 C 28.660156 40.273438 29.441406 38.941406 30.054688 37.210938 C 30.816406 35.070312 30.414062 32.707031 29.097656 30.84375 C 29.019531 30.738281 28.941406 30.625 28.859375 30.507812 C 21.105469 30.507812 17.269531 23.476562 16.292969 19.199219 C 15.890625 17.441406 15.566406 17.265625 14.46875 17.265625 C 12.4375 17.265625 10.96875 16.425781 10.96875 16.425781 C 9.105469 17.277344 8.269531 16.929688 8.519531 16.039062 C 7.710938 15.949219 7.726562 15.027344 8.222656 14.179688 C 8.839844 13.117188 10.105469 12.394531 11.621094 12.394531 L 12.433594 12.394531 C 14.109375 12.394531 14.453125 11.519531 16.179688 11.707031 C 16.449219 11.730469 16.699219 11.777344 16.929688 11.832031 C 17.410156 11.285156 17.953125 11.054688 18.609375 11.097656 C 18.65625 11.101562 18.699219 11.125 18.726562 11.164062 C 18.757812 11.203125 18.765625 11.25 18.757812 11.296875 L 18.597656 12.039062 C 18.539062 12.3125 18.617188 12.601562 18.816406 12.785156 C 20.210938 14.089844 21.007812 16.316406 21.902344 18.324219 C 23.355469 21.285156 26.859375 25.394531 32.476562 20.121094 C 36.429688 16.410156 38.816406 13.320312 42.742188 13.015625 C 38.902344 6.445312 31.921875 2.347656 24.316406 2.203125 M 15.046875 12.941406 C 14.472656 12.941406 13.898438 13.402344 14.09375 13.488281 C 14.136719 13.503906 14.210938 13.519531 14.296875 13.527344 C 14.355469 13.894531 14.664062 14.179688 15.050781 14.179688 C 15.4375 14.179688 15.742188 13.894531 15.800781 13.527344 C 15.886719 13.519531 15.960938 13.507812 16.003906 13.488281 C 16.199219 13.402344 15.625 12.941406 15.046875 12.941406 M 35.433594 33.925781 C 34.96875 33.933594 34.550781 34.230469 34.410156 34.683594 L 34.410156 34.691406 C 33.710938 36.929688 32.355469 39.820312 32.355469 39.820312 C 32.355469 39.820312 31.007812 42.207031 30.246094 44.882812 C 31.0625 44.644531 31.871094 44.363281 32.65625 44.03125 C 34.195312 43.359375 35.648438 42.511719 36.992188 41.503906 C 36.773438 41.0625 36.53125 40.636719 36.265625 40.222656 C 36.265625 40.222656 35.820312 38.234375 34.960938 36.066406 C 35.097656 35.695312 35.21875 35.332031 35.324219 34.980469 L 35.332031 34.953125 C 35.359375 34.902344 35.414062 34.882812 35.480469 34.882812 L 35.484375 34.882812 C 35.933594 34.953125 36.40625 35.023438 36.957031 35.085938 C 37.125 35.101562 37.292969 35.113281 37.46875 35.132812 C 37.679688 35.152344 37.882812 35.171875 38.09375 35.183594 C 38.144531 37.195312 39.019531 39.117188 39.238281 39.578125 C 40.847656 37.992188 42.203125 36.167969 43.253906 34.164062 C 41.699219 34.34375 39.796875 34.402344 37.5625 34.179688 C 37.382812 34.160156 37.203125 34.140625 37.023438 34.128906 C 36.558594 34.074219 36.097656 34.011719 35.636719 33.9375 C 35.570312 33.925781 35.503906 33.921875 35.433594 33.925781 M 35.433594 33.925781 "/>
</svg>
