<?xml version="1.0" encoding="UTF-8"?>
<svg xmlns="http://www.w3.org/2000/svg" xmlns:xlink="http://www.w3.org/1999/xlink" width="4000" height="4000" viewBox="0 0 4000 4000">
<path fill-rule="nonzero" fill="rgb(0%, 45.098039%, 63.137255%)" fill-opacity="1" d="M 4000 2000 C 4000 3104.625 3104.625 4000 2000 4000 C 895.375 4000 0 3104.625 0 2000 C 0 895.375 895.375 0 2000 0 C 3104.625 0 4000 895.375 4000 2000 M 4000 2000 "/>
<path fill-rule="nonzero" fill="rgb(0%, 45.098039%, 63.137255%)" fill-opacity="1" d="M 3810.3125 2000 C 3810.3125 2999.75 2999.75 3810.3125 2000 3810.3125 C 1000.25 3810.3125 189.6875 2999.75 189.6875 2000 C 189.6875 1000.25 1000.25 189.6875 2000 189.6875 C 2999.75 189.6875 3810.3125 1000.25 3810.3125 2000 M 3810.3125 2000 "/>
<path fill-rule="nonzero" fill="rgb(100%, 100%, 100%)" fill-opacity="1" d="M 2026.25 183.71875 C 1765.558594 179.199219 1506.945312 230.78125 1267.9375 334.96875 C 347.3125 736.34375 -73.84375 1807.96875 327.5 2728.75 C 667.125 3502.5625 1494.875 3940.4375 2325.5625 3785.78125 C 2360.96875 3672.96875 2390 3549.21875 2390 3414.1875 C 2390 3395.03125 2389.53125 3375.84375 2388.4375 3356.0625 C 2388.4375 3356.0625 2453.375 3245.25 2504.625 3100.84375 C 2568 2922.375 2534.4375 2725.71875 2424.6875 2570.21875 C 2418.21875 2561.65625 2411.875 2552.125 2404.90625 2542.46875 C 1758.65625 2542.46875 1438.96875 1956.40625 1357.90625 1599.96875 C 1324.34375 1453.375 1297.125 1438.84375 1205.6875 1438.84375 C 1036.375 1438.84375 914.1875 1368.65625 914.1875 1368.65625 C 758.78125 1439.8125 689.1875 1410.875 710.09375 1336.5625 C 642.46875 1329.09375 643.8125 1252.1875 685.0625 1181.625 C 736.6875 1093.125 842.15625 1032.96875 968.5 1032.96875 L 1036.125 1032.96875 C 1175.78125 1032.96875 1204.46875 959.96875 1348.375 975.46875 C 1370.71875 977.65625 1391.5 981.3125 1410.78125 986.09375 C 1450.6875 940.3125 1495.96875 921.15625 1550.78125 924.8125 C 1554.707031 925.179688 1558.296875 927.195312 1560.652344 930.359375 C 1563.003906 933.523438 1563.902344 937.539062 1563.125 941.40625 L 1549.8125 1003.1875 C 1544.90625 1026.125 1551.375 1050.0625 1567.875 1065.5625 C 1684.09375 1174.1875 1750.625 1359.625 1825.1875 1526.96875 C 1946.15625 1773.6875 2238.15625 2116.21875 2706.53125 1676.65625 C 3035.90625 1367.5625 3234.75 1109.875 3561.78125 1084.59375 C 3241.984375 537.148438 2660.140625 195.792969 2026.25 183.71875 M 1254.03125 1078.5 C 1206.0625 1078.5 1158.21875 1116.9375 1174.4375 1123.90625 C 1178.09375 1125.46875 1184.3125 1126.46875 1191.40625 1127.34375 C 1196.40625 1157.96875 1222.15625 1181.625 1254.28125 1181.625 C 1286.375 1181.625 1311.78125 1157.96875 1316.78125 1127.1875 C 1323.84375 1126.46875 1329.96875 1125.5 1333.625 1123.90625 C 1349.875 1116.9375 1302 1078.5 1254.03125 1078.5 M 2952.875 2827.03125 C 2914.0625 2827.875 2879.125 2852.65625 2867.4375 2890.375 L 2867.4375 2891 C 2809.3125 3077.40625 2696.40625 3318.25 2696.40625 3318.25 C 2696.40625 3318.25 2584 3517.3125 2520.375 3740.25 C 2588.691406 3720.523438 2655.785156 3696.796875 2721.3125 3669.1875 C 2849.480469 3613.179688 2970.738281 3542.519531 3082.65625 3458.625 C 3064.414062 3421.976562 3044.242188 3386.320312 3022.21875 3351.8125 C 3022.21875 3351.8125 2984.875 3186.15625 2913.46875 3005.5 C 2924.6875 2974.59375 2934.8125 2944.21875 2943.84375 2914.90625 L 2944.46875 2912.71875 C 2946.53125 2908.5625 2951.28125 2906.875 2956.65625 2906.875 L 2957.15625 2906.875 C 2994.5 2912.71875 3033.9375 2918.6875 3079.71875 2923.9375 C 3093.625 2925.0625 3107.90625 2926.125 3122.3125 2927.71875 C 3139.90625 2929.3125 3157 2930.90625 3174.5625 2932 C 3178.84375 3099.625 3251.59375 3259.78125 3269.875 3298.09375 C 3404.089844 3166.011719 3516.976562 3013.886719 3604.5 2847.15625 C 3474.96875 2861.9375 3316.53125 2866.9375 3130.125 2848.28125 C 3115.210938 2846.613281 3100.273438 2845.1875 3085.3125 2844 C 3046.667969 2839.566406 3008.128906 2834.273438 2969.71875 2828.125 C 2964.148438 2827.253906 2958.511719 2826.886719 2952.875 2827.03125 M 2952.875 2827.03125 "/>
</svg>
