<?xml version="1.0" encoding="UTF-8"?>
<svg xmlns="http://www.w3.org/2000/svg" xmlns:xlink="http://www.w3.org/1999/xlink" width="250" height="250" viewBox="0 0 250 250">
<path fill-rule="nonzero" fill="rgb(0%, 45.098039%, 63.137255%)" fill-opacity="1" d="M 250 125 C 250 194.039062 194.039062 250 125 250 C 55.960938 250 0 194.039062 0 125 C 0 55.960938 55.960938 0 125 0 C 194.039062 0 250 55.960938 250 125 M 250 125 "/>
<path fill-rule="nonzero" fill="rgb(0%, 45.098039%, 63.137255%)" fill-opacity="1" d="M 238.144531 125 C 238.144531 187.484375 187.484375 238.144531 125 238.144531 C 62.515625 238.144531 11.855469 187.484375 11.855469 125 C 11.855469 62.515625 62.515625 11.855469 125 11.855469 C 187.484375 11.855469 238.144531 62.515625 238.144531 125 M 238.144531 125 "/>
<path fill-rule="nonzero" fill="rgb(100%, 100%, 100%)" fill-opacity="1" d="M 126.640625 11.484375 C 110.347656 11.199219 94.183594 14.421875 79.246094 20.9375 C 21.707031 46.023438 -4.617188 113 20.46875 170.546875 C 41.695312 218.910156 93.429688 246.277344 145.347656 236.609375 C 147.5625 229.5625 149.375 221.824219 149.375 213.386719 C 149.375 212.1875 149.34375 210.988281 149.277344 209.753906 C 149.277344 209.753906 153.335938 202.828125 156.539062 193.800781 C 160.5 182.648438 158.402344 170.355469 151.542969 160.636719 C 151.140625 160.101562 150.742188 159.507812 150.308594 158.902344 C 109.917969 158.902344 89.9375 122.273438 84.871094 99.996094 C 82.773438 90.835938 81.070312 89.925781 75.355469 89.925781 C 64.773438 89.925781 57.136719 85.539062 57.136719 85.539062 C 47.425781 89.988281 43.074219 88.179688 44.382812 83.535156 C 40.15625 83.066406 40.238281 78.261719 42.816406 73.851562 C 46.042969 68.320312 52.636719 64.558594 60.53125 64.558594 L 64.757812 64.558594 C 73.488281 64.558594 75.28125 59.996094 84.273438 60.964844 C 85.671875 61.101562 86.96875 61.332031 88.175781 61.628906 C 90.667969 58.769531 93.5 57.570312 96.925781 57.800781 C 97.167969 57.824219 97.394531 57.949219 97.539062 58.148438 C 97.6875 58.34375 97.742188 58.597656 97.695312 58.835938 L 96.863281 62.699219 C 96.558594 64.132812 96.960938 65.628906 97.992188 66.597656 C 105.257812 73.386719 109.414062 84.976562 114.074219 95.433594 C 121.636719 110.855469 139.886719 132.265625 169.160156 104.789062 C 189.746094 85.472656 202.171875 69.367188 222.613281 67.785156 C 202.625 33.570312 166.257812 12.238281 126.640625 11.484375 M 78.375 67.40625 C 75.378906 67.40625 72.386719 69.808594 73.402344 70.242188 C 73.632812 70.34375 74.019531 70.40625 74.460938 70.460938 C 74.773438 72.375 76.382812 73.851562 78.390625 73.851562 C 80.398438 73.851562 81.988281 72.375 82.296875 70.449219 C 82.742188 70.40625 83.125 70.34375 83.351562 70.246094 C 84.367188 69.808594 81.375 67.40625 78.378906 67.40625 M 184.554688 176.6875 C 182.128906 176.742188 179.945312 178.289062 179.214844 180.648438 L 179.214844 180.6875 C 175.582031 192.335938 168.527344 207.390625 168.527344 207.390625 C 168.527344 207.390625 161.5 219.832031 157.523438 233.765625 C 161.792969 232.53125 165.988281 231.050781 170.082031 229.324219 C 178.09375 225.824219 185.671875 221.40625 192.667969 216.164062 C 191.527344 213.875 190.265625 211.644531 188.890625 209.488281 C 188.890625 209.488281 186.554688 199.132812 182.09375 187.84375 C 182.792969 185.910156 183.425781 184.011719 183.992188 182.179688 L 184.03125 182.046875 C 184.160156 181.785156 184.457031 181.679688 184.792969 181.679688 L 184.824219 181.679688 C 187.15625 182.046875 189.621094 182.417969 192.484375 182.746094 C 193.351562 182.816406 194.246094 182.882812 195.144531 182.984375 C 196.246094 183.082031 197.3125 183.179688 198.410156 183.25 C 198.679688 193.726562 203.226562 203.734375 204.367188 206.132812 C 212.753906 197.875 219.8125 188.367188 225.28125 177.949219 C 217.1875 178.871094 207.28125 179.183594 195.632812 178.019531 C 194.699219 177.914062 193.765625 177.824219 192.832031 177.75 C 190.417969 177.472656 188.007812 177.140625 185.609375 176.757812 C 185.257812 176.703125 184.90625 176.679688 184.554688 176.691406 M 184.554688 176.691406 "/>
</svg>
