<?xml version="1.0" encoding="UTF-8"?>
<svg xmlns="http://www.w3.org/2000/svg" xmlns:xlink="http://www.w3.org/1999/xlink" width="200" height="200" viewBox="0 0 200 200">
<path fill-rule="nonzero" fill="rgb(0%, 45.098039%, 63.137255%)" fill-opacity="1" d="M 200 100 C 200 155.230469 155.230469 200 100 200 C 44.769531 200 0 155.230469 0 100 C 0 44.769531 44.769531 0 100 0 C 155.230469 0 200 44.769531 200 100 M 200 100 "/>
<path fill-rule="nonzero" fill="rgb(0%, 45.098039%, 63.137255%)" fill-opacity="1" d="M 190.515625 100 C 190.515625 149.988281 149.988281 190.515625 100 190.515625 C 50.011719 190.515625 9.484375 149.988281 9.484375 100 C 9.484375 50.011719 50.011719 9.484375 100 9.484375 C 149.988281 9.484375 190.515625 50.011719 190.515625 100 M 190.515625 100 "/>
<path fill-rule="nonzero" fill="rgb(100%, 100%, 100%)" fill-opacity="1" d="M 101.3125 9.1875 C 88.277344 8.960938 75.347656 11.539062 63.398438 16.75 C 17.367188 36.816406 -3.691406 90.398438 16.375 136.4375 C 33.355469 175.128906 74.742188 197.023438 116.277344 189.289062 C 118.046875 183.648438 119.5 177.460938 119.5 170.710938 C 119.5 169.75 119.476562 168.792969 119.421875 167.804688 C 119.421875 167.804688 122.667969 162.261719 125.230469 155.042969 C 128.398438 146.117188 126.722656 136.285156 121.234375 128.511719 C 120.910156 128.082031 120.59375 127.605469 120.246094 127.125 C 87.933594 127.125 71.949219 97.820312 67.894531 80 C 66.21875 72.667969 64.855469 71.941406 60.285156 71.941406 C 51.820312 71.941406 45.710938 68.433594 45.710938 68.433594 C 37.9375 71.992188 34.460938 70.542969 35.503906 66.828125 C 32.125 66.453125 32.191406 62.609375 34.253906 59.082031 C 36.835938 54.65625 42.109375 51.648438 48.425781 51.648438 L 51.804688 51.648438 C 58.789062 51.648438 60.222656 48 67.417969 48.773438 C 68.535156 48.882812 69.574219 49.066406 70.539062 49.304688 C 72.535156 47.015625 74.796875 46.058594 77.539062 46.242188 C 77.734375 46.257812 77.914062 46.359375 78.03125 46.519531 C 78.148438 46.675781 78.195312 46.878906 78.15625 47.070312 L 77.492188 50.160156 C 77.246094 51.304688 77.570312 52.503906 78.394531 53.277344 C 84.203125 58.710938 87.53125 67.980469 91.257812 76.347656 C 97.308594 88.683594 111.90625 105.8125 135.328125 83.832031 C 151.796875 68.378906 161.738281 55.492188 178.089844 54.230469 C 162.097656 26.859375 133.007812 9.789062 101.3125 9.1875 M 62.703125 53.925781 C 60.304688 53.925781 57.910156 55.847656 58.722656 56.195312 C 58.90625 56.273438 59.214844 56.324219 59.570312 56.367188 C 59.820312 57.898438 61.109375 59.082031 62.714844 59.082031 C 64.320312 59.082031 65.589844 57.898438 65.839844 56.359375 C 66.191406 56.324219 66.5 56.273438 66.679688 56.195312 C 67.492188 55.847656 65.101562 53.925781 62.703125 53.925781 M 147.644531 141.351562 C 145.703125 141.394531 143.957031 142.632812 143.371094 144.519531 L 143.371094 144.550781 C 140.464844 153.871094 134.820312 165.914062 134.820312 165.914062 C 134.820312 165.914062 129.199219 175.867188 126.019531 187.011719 C 129.433594 186.027344 132.789062 184.839844 136.066406 183.460938 C 142.472656 180.660156 148.535156 177.125 154.132812 172.929688 C 153.222656 171.097656 152.210938 169.316406 151.109375 167.589844 C 151.109375 167.589844 149.242188 159.308594 145.671875 150.273438 C 146.234375 148.730469 146.742188 147.210938 147.191406 145.746094 L 147.222656 145.636719 C 147.328125 145.429688 147.5625 145.34375 147.832031 145.34375 L 147.859375 145.34375 C 149.726562 145.636719 151.695312 145.933594 153.984375 146.195312 C 154.679688 146.253906 155.394531 146.304688 156.117188 146.386719 C 156.996094 146.464844 157.851562 146.546875 158.726562 146.601562 C 158.941406 154.980469 162.578125 162.988281 163.492188 164.90625 C 170.203125 158.300781 175.847656 150.695312 180.226562 142.359375 C 173.75 143.097656 165.828125 143.347656 156.507812 142.414062 C 155.761719 142.332031 155.011719 142.257812 154.265625 142.199219 C 152.332031 141.976562 150.40625 141.714844 148.484375 141.40625 C 148.207031 141.363281 147.925781 141.34375 147.644531 141.351562 M 147.644531 141.351562 "/>
</svg>
