<?xml version="1.0" encoding="UTF-8"?>
<svg xmlns="http://www.w3.org/2000/svg" xmlns:xlink="http://www.w3.org/1999/xlink" width="500" height="500" viewBox="0 0 500 500">
<path fill-rule="nonzero" fill="rgb(0%, 45.098039%, 63.137255%)" fill-opacity="1" d="M 500 250 C 500 388.078125 388.078125 500 250 500 C 111.921875 500 0 388.078125 0 250 C 0 111.921875 111.921875 0 250 0 C 388.078125 0 500 111.921875 500 250 M 500 250 "/>
<path fill-rule="nonzero" fill="rgb(0%, 45.098039%, 63.137255%)" fill-opacity="1" d="M 476.289062 250 C 476.289062 374.96875 374.96875 476.289062 250 476.289062 C 125.03125 476.289062 23.710938 374.96875 23.710938 250 C 23.710938 125.03125 125.03125 23.710938 250 23.710938 C 374.96875 23.710938 476.289062 125.03125 476.289062 250 M 476.289062 250 "/>
<path fill-rule="nonzero" fill="rgb(100%, 100%, 100%)" fill-opacity="1" d="M 253.28125 22.964844 C 220.695312 22.398438 188.367188 28.847656 158.492188 41.871094 C 43.414062 92.042969 -9.230469 225.996094 40.9375 341.09375 C 83.390625 437.820312 186.859375 492.554688 290.695312 473.222656 C 295.121094 459.121094 298.75 443.652344 298.75 426.773438 C 298.75 424.378906 298.691406 421.980469 298.554688 419.507812 C 298.554688 419.507812 306.671875 405.65625 313.078125 387.605469 C 321 365.296875 316.804688 340.714844 303.085938 321.277344 C 302.277344 320.207031 301.484375 319.015625 300.613281 317.808594 C 219.832031 317.808594 179.871094 244.550781 169.738281 199.996094 C 165.542969 181.671875 162.140625 179.855469 150.710938 179.855469 C 129.546875 179.855469 114.273438 171.082031 114.273438 171.082031 C 94.847656 179.976562 86.148438 176.359375 88.761719 167.070312 C 80.308594 166.136719 80.476562 156.523438 85.632812 147.703125 C 92.085938 136.640625 105.269531 129.121094 121.0625 129.121094 L 129.515625 129.121094 C 146.972656 129.121094 150.558594 119.996094 168.546875 121.933594 C 171.339844 122.207031 173.9375 122.664062 176.347656 123.261719 C 181.335938 117.539062 186.996094 115.144531 193.847656 115.601562 C 194.339844 115.648438 194.785156 115.898438 195.082031 116.292969 C 195.375 116.691406 195.488281 117.191406 195.390625 117.675781 L 193.726562 125.398438 C 193.113281 128.265625 193.921875 131.257812 195.984375 133.195312 C 210.511719 146.773438 218.828125 169.953125 228.148438 190.871094 C 243.269531 221.710938 279.769531 264.527344 338.316406 209.582031 C 379.488281 170.945312 404.34375 138.734375 445.222656 135.574219 C 405.246094 67.144531 332.519531 24.472656 253.28125 22.964844 M 156.753906 134.8125 C 150.757812 134.8125 144.777344 139.617188 146.804688 140.488281 C 147.261719 140.683594 148.039062 140.808594 148.925781 140.917969 C 149.550781 144.746094 152.769531 147.703125 156.785156 147.703125 C 160.796875 147.703125 163.972656 144.746094 164.597656 140.898438 C 165.480469 140.808594 166.246094 140.6875 166.703125 140.488281 C 168.734375 139.617188 162.75 134.8125 156.753906 134.8125 M 369.109375 353.378906 C 364.257812 353.484375 359.890625 356.582031 358.429688 361.296875 L 358.429688 361.375 C 351.164062 384.675781 337.050781 414.78125 337.050781 414.78125 C 337.050781 414.78125 323 439.664062 315.046875 467.53125 C 323.585938 465.066406 331.972656 462.097656 340.164062 458.648438 C 356.183594 451.648438 371.34375 442.816406 385.332031 432.328125 C 383.050781 427.746094 380.53125 423.289062 377.777344 418.976562 C 377.777344 418.976562 373.109375 398.269531 364.183594 375.6875 C 365.585938 371.824219 366.851562 368.027344 367.980469 364.363281 L 368.058594 364.089844 C 368.316406 363.570312 368.910156 363.359375 369.582031 363.359375 L 369.644531 363.359375 C 374.3125 364.089844 379.242188 364.835938 384.964844 365.492188 C 386.703125 365.632812 388.488281 365.765625 390.289062 365.964844 C 392.488281 366.164062 394.625 366.363281 396.820312 366.5 C 397.355469 387.453125 406.449219 407.472656 408.734375 412.261719 C 425.511719 395.75 439.621094 376.734375 450.5625 355.894531 C 434.371094 357.742188 414.566406 358.367188 391.265625 356.035156 C 389.402344 355.828125 387.535156 355.648438 385.664062 355.5 C 380.832031 354.945312 376.015625 354.285156 371.214844 353.515625 C 370.519531 353.40625 369.8125 353.359375 369.109375 353.378906 M 369.109375 353.378906 "/>
</svg>
