<?xml version="1.0" encoding="UTF-8"?>
<svg xmlns="http://www.w3.org/2000/svg" xmlns:xlink="http://www.w3.org/1999/xlink" width="1500" height="1500" viewBox="0 0 1500 1500">
<path fill-rule="nonzero" fill="rgb(0%, 45.098039%, 63.137255%)" fill-opacity="1" d="M 1500 750 C 1500 1164.234375 1164.234375 1500 750 1500 C 335.765625 1500 0 1164.234375 0 750 C 0 335.765625 335.765625 0 750 0 C 1164.234375 0 1500 335.765625 1500 750 M 1500 750 "/>
<path fill-rule="nonzero" fill="rgb(0%, 45.098039%, 63.137255%)" fill-opacity="1" d="M 1428.867188 750 C 1428.867188 1124.90625 1124.90625 1428.867188 750 1428.867188 C 375.09375 1428.867188 71.132812 1124.90625 71.132812 750 C 71.132812 375.09375 375.09375 71.132812 750 71.132812 C 1124.90625 71.132812 1428.867188 375.09375 1428.867188 750 M 1428.867188 750 "/>
<path fill-rule="nonzero" fill="rgb(100%, 100%, 100%)" fill-opacity="1" d="M 759.84375 68.894531 C 662.085938 67.199219 565.105469 86.542969 475.476562 125.613281 C 130.242188 276.128906 -27.691406 677.988281 122.8125 1023.28125 C 250.171875 1313.460938 560.578125 1477.664062 872.085938 1419.667969 C 885.363281 1377.363281 896.25 1330.957031 896.25 1280.320312 C 896.25 1273.136719 896.074219 1265.941406 895.664062 1258.523438 C 895.664062 1258.523438 920.015625 1216.96875 939.234375 1162.816406 C 963 1095.890625 950.414062 1022.144531 909.257812 963.832031 C 906.832031 960.621094 904.453125 957.046875 901.839844 953.425781 C 659.496094 953.425781 539.613281 733.652344 509.214844 599.988281 C 496.628906 545.015625 486.421875 539.566406 452.132812 539.566406 C 388.640625 539.566406 342.820312 513.246094 342.820312 513.246094 C 284.542969 539.929688 258.445312 529.078125 266.285156 501.210938 C 240.925781 498.410156 241.429688 469.570312 256.898438 443.109375 C 276.257812 409.921875 315.808594 387.363281 363.1875 387.363281 L 388.546875 387.363281 C 440.917969 387.363281 451.675781 359.988281 505.640625 365.800781 C 514.019531 366.621094 521.8125 367.992188 529.042969 369.785156 C 544.007812 352.617188 560.988281 345.433594 581.542969 346.804688 C 583.015625 346.941406 584.359375 347.699219 585.242188 348.882812 C 586.125 350.070312 586.464844 351.578125 586.171875 353.027344 L 581.179688 376.195312 C 579.339844 384.796875 581.765625 393.773438 587.953125 399.585938 C 631.535156 440.320312 656.484375 509.859375 684.445312 572.613281 C 729.808594 665.132812 839.308594 793.582031 1014.949219 628.746094 C 1138.464844 512.835938 1213.03125 416.203125 1335.667969 406.722656 C 1215.742188 201.429688 997.554688 73.421875 759.84375 68.894531 M 470.261719 404.4375 C 452.273438 404.4375 434.332031 418.851562 440.414062 421.464844 C 441.785156 422.050781 444.117188 422.425781 446.777344 422.753906 C 448.652344 434.238281 458.308594 443.109375 470.355469 443.109375 C 482.390625 443.109375 491.917969 434.238281 493.792969 422.695312 C 496.441406 422.425781 498.738281 422.0625 500.109375 421.464844 C 506.203125 418.851562 488.25 404.4375 470.261719 404.4375 M 1107.328125 1060.136719 C 1092.773438 1060.453125 1079.671875 1069.746094 1075.289062 1083.890625 L 1075.289062 1084.125 C 1053.492188 1154.027344 1011.152344 1244.34375 1011.152344 1244.34375 C 1011.152344 1244.34375 969 1318.992188 945.140625 1402.59375 C 970.757812 1395.195312 995.917969 1386.296875 1020.492188 1375.945312 C 1068.554688 1354.941406 1114.027344 1328.445312 1155.996094 1296.984375 C 1149.15625 1283.242188 1141.589844 1269.871094 1133.332031 1256.929688 C 1133.332031 1256.929688 1119.328125 1194.808594 1092.550781 1127.0625 C 1096.757812 1115.472656 1100.554688 1104.082031 1103.941406 1093.089844 L 1104.175781 1092.269531 C 1104.949219 1090.710938 1106.730469 1090.078125 1108.746094 1090.078125 L 1108.933594 1090.078125 C 1122.9375 1092.269531 1137.726562 1094.507812 1154.894531 1096.476562 C 1160.109375 1096.898438 1165.464844 1097.296875 1170.867188 1097.894531 C 1177.464844 1098.492188 1183.875 1099.089844 1190.460938 1099.5 C 1192.066406 1162.359375 1219.347656 1222.417969 1226.203125 1236.785156 C 1276.53125 1187.253906 1318.867188 1130.207031 1351.6875 1067.683594 C 1303.113281 1073.226562 1243.699219 1075.101562 1173.796875 1068.105469 C 1168.203125 1067.480469 1162.601562 1066.945312 1156.992188 1066.5 C 1142.5 1064.835938 1128.046875 1062.851562 1113.644531 1060.546875 C 1111.554688 1060.21875 1109.441406 1060.082031 1107.328125 1060.136719 M 1107.328125 1060.136719 "/>
</svg>
