<?xml version="1.0" encoding="UTF-8"?>
<svg xmlns="http://www.w3.org/2000/svg" xmlns:xlink="http://www.w3.org/1999/xlink" width="1400" height="1400" viewBox="0 0 1400 1400">
<path fill-rule="nonzero" fill="rgb(0%, 45.098039%, 63.137255%)" fill-opacity="1" d="M 1400 700 C 1400 1086.617188 1086.617188 1400 700 1400 C 313.382812 1400 0 1086.617188 0 700 C 0 313.382812 313.382812 0 700 0 C 1086.617188 0 1400 313.382812 1400 700 M 1400 700 "/>
<path fill-rule="nonzero" fill="rgb(0%, 45.098039%, 63.137255%)" fill-opacity="1" d="M 1333.609375 700 C 1333.609375 1049.914062 1049.914062 1333.609375 700 1333.609375 C 350.085938 1333.609375 66.390625 1049.914062 66.390625 700 C 66.390625 350.085938 350.085938 66.390625 700 66.390625 C 1049.914062 66.390625 1333.609375 350.085938 1333.609375 700 M 1333.609375 700 "/>
<path fill-rule="nonzero" fill="rgb(100%, 100%, 100%)" fill-opacity="1" d="M 709.1875 64.300781 C 617.945312 62.71875 527.429688 80.773438 443.777344 117.238281 C 121.558594 257.71875 -25.84375 632.789062 114.625 955.0625 C 233.492188 1225.898438 523.207031 1379.152344 813.945312 1325.023438 C 826.339844 1285.539062 836.5 1242.226562 836.5 1194.964844 C 836.5 1188.261719 836.335938 1181.546875 835.953125 1174.621094 C 835.953125 1174.621094 858.679688 1135.835938 876.617188 1085.296875 C 898.800781 1022.832031 887.054688 954 848.640625 899.578125 C 846.375 896.578125 844.15625 893.242188 841.71875 889.863281 C 615.53125 889.863281 503.640625 684.742188 475.265625 559.988281 C 463.519531 508.679688 453.992188 503.59375 421.992188 503.59375 C 362.730469 503.59375 319.964844 479.03125 319.964844 479.03125 C 265.574219 503.933594 241.214844 493.804688 248.53125 467.796875 C 224.863281 465.183594 225.335938 438.265625 239.773438 413.570312 C 257.839844 382.59375 294.753906 361.539062 338.976562 361.539062 L 362.644531 361.539062 C 411.523438 361.539062 421.5625 335.988281 471.929688 341.414062 C 479.75 342.179688 487.023438 343.460938 493.773438 345.132812 C 507.742188 329.109375 523.589844 322.40625 542.773438 323.683594 C 544.148438 323.8125 545.402344 324.519531 546.226562 325.625 C 547.050781 326.734375 547.367188 328.140625 547.09375 329.492188 L 542.433594 351.117188 C 540.71875 359.144531 542.980469 367.523438 548.757812 372.945312 C 589.433594 410.964844 612.71875 475.867188 638.816406 534.4375 C 681.15625 620.789062 783.355469 740.675781 947.285156 586.828125 C 1062.566406 478.648438 1132.164062 388.457031 1246.625 379.609375 C 1134.695312 188.003906 931.050781 68.527344 709.1875 64.300781 M 438.910156 377.476562 C 422.121094 377.476562 405.375 390.929688 411.054688 393.367188 C 412.332031 393.914062 414.507812 394.265625 416.992188 394.570312 C 418.742188 405.289062 427.753906 413.570312 439 413.570312 C 450.230469 413.570312 459.125 405.289062 460.875 394.515625 C 463.34375 394.265625 465.488281 393.925781 466.769531 393.367188 C 472.457031 390.929688 455.699219 377.476562 438.910156 377.476562 M 1033.507812 989.460938 C 1019.921875 989.757812 1007.695312 998.429688 1003.601562 1011.632812 L 1003.601562 1011.851562 C 983.257812 1077.09375 943.742188 1161.386719 943.742188 1161.386719 C 943.742188 1161.386719 904.398438 1231.058594 882.132812 1309.085938 C 906.042969 1302.183594 929.523438 1293.878906 952.460938 1284.214844 C 997.320312 1264.613281 1039.757812 1239.882812 1078.929688 1210.519531 C 1072.546875 1197.691406 1065.484375 1185.210938 1057.777344 1173.132812 C 1057.777344 1173.132812 1044.707031 1115.15625 1019.714844 1051.925781 C 1023.640625 1041.109375 1027.183594 1030.476562 1030.34375 1020.21875 L 1030.5625 1019.453125 C 1031.285156 1017.996094 1032.949219 1017.40625 1034.828125 1017.40625 L 1035.003906 1017.40625 C 1048.074219 1019.453125 1061.878906 1021.539062 1077.902344 1023.378906 C 1082.769531 1023.773438 1087.765625 1024.144531 1092.808594 1024.703125 C 1098.96875 1025.257812 1104.949219 1025.816406 1111.097656 1026.199219 C 1112.59375 1084.867188 1138.058594 1140.921875 1144.457031 1154.332031 C 1191.429688 1108.105469 1230.941406 1054.859375 1261.574219 996.503906 C 1216.238281 1001.679688 1160.785156 1003.429688 1095.542969 996.898438 C 1090.324219 996.316406 1085.09375 995.816406 1079.859375 995.398438 C 1066.332031 993.847656 1052.84375 991.996094 1039.402344 989.84375 C 1037.453125 989.539062 1035.480469 989.410156 1033.507812 989.460938 M 1033.507812 989.460938 "/>
</svg>
