<?xml version="1.0" encoding="UTF-8"?>
<svg xmlns="http://www.w3.org/2000/svg" xmlns:xlink="http://www.w3.org/1999/xlink" width="700" height="700" viewBox="0 0 700 700">
<path fill-rule="nonzero" fill="rgb(0%, 45.098039%, 63.137255%)" fill-opacity="1" d="M 700 350 C 700 543.308594 543.308594 700 350 700 C 156.691406 700 0 543.308594 0 350 C 0 156.691406 156.691406 0 350 0 C 543.308594 0 700 156.691406 700 350 M 700 350 "/>
<path fill-rule="nonzero" fill="rgb(0%, 45.098039%, 63.137255%)" fill-opacity="1" d="M 666.804688 350 C 666.804688 524.957031 524.957031 666.804688 350 666.804688 C 175.042969 666.804688 33.195312 524.957031 33.195312 350 C 33.195312 175.042969 175.042969 33.195312 350 33.195312 C 524.957031 33.195312 666.804688 175.042969 666.804688 350 M 666.804688 350 "/>
<path fill-rule="nonzero" fill="rgb(100%, 100%, 100%)" fill-opacity="1" d="M 354.59375 32.152344 C 308.972656 31.359375 263.714844 40.386719 221.890625 58.621094 C 60.78125 128.859375 -12.921875 316.394531 57.3125 477.53125 C 116.746094 612.949219 261.601562 689.578125 406.972656 662.511719 C 413.167969 642.769531 418.25 621.113281 418.25 597.484375 C 418.25 594.128906 418.167969 590.773438 417.976562 587.3125 C 417.976562 587.3125 429.339844 567.917969 438.308594 542.648438 C 449.398438 511.414062 443.527344 477 424.320312 449.789062 C 423.1875 448.289062 422.078125 446.621094 420.859375 444.933594 C 307.765625 444.933594 251.820312 342.371094 237.632812 279.996094 C 231.761719 254.339844 226.996094 251.796875 210.996094 251.796875 C 181.367188 251.796875 159.984375 239.515625 159.984375 239.515625 C 132.785156 251.96875 120.609375 246.902344 124.265625 233.898438 C 112.433594 232.589844 112.667969 219.132812 119.886719 206.785156 C 128.921875 191.296875 147.378906 180.769531 169.488281 180.769531 L 181.320312 180.769531 C 205.761719 180.769531 210.78125 167.996094 235.964844 170.707031 C 239.875 171.089844 243.511719 171.730469 246.886719 172.566406 C 253.871094 164.554688 261.792969 161.203125 271.386719 161.84375 C 272.074219 161.90625 272.703125 162.257812 273.113281 162.8125 C 273.527344 163.367188 273.683594 164.070312 273.546875 164.746094 L 271.21875 175.558594 C 270.359375 179.570312 271.492188 183.761719 274.378906 186.472656 C 294.714844 205.484375 306.359375 237.933594 319.40625 267.21875 C 340.578125 310.394531 391.675781 370.339844 473.644531 293.414062 C 531.285156 239.324219 566.082031 194.226562 623.3125 189.804688 C 567.347656 94 465.523438 34.261719 354.59375 32.152344 M 219.457031 188.738281 C 211.0625 188.738281 202.6875 195.464844 205.527344 196.683594 C 206.167969 196.957031 207.253906 197.132812 208.496094 197.285156 C 209.371094 202.644531 213.878906 206.785156 219.5 206.785156 C 225.117188 206.785156 229.5625 202.644531 230.4375 197.257812 C 231.671875 197.132812 232.746094 196.960938 233.382812 196.683594 C 236.226562 195.464844 227.851562 188.738281 219.457031 188.738281 M 516.753906 494.730469 C 509.960938 494.878906 503.847656 499.214844 501.800781 505.816406 L 501.800781 505.925781 C 491.628906 538.546875 471.871094 580.695312 471.871094 580.695312 C 471.871094 580.695312 452.199219 615.53125 441.066406 654.542969 C 453.019531 651.089844 464.761719 646.9375 476.230469 642.109375 C 498.660156 632.304688 519.878906 619.941406 539.464844 605.257812 C 536.273438 598.847656 532.742188 592.605469 528.886719 586.566406 C 528.886719 586.566406 522.351562 557.578125 509.855469 525.960938 C 511.820312 520.554688 513.59375 515.238281 515.171875 510.109375 L 515.28125 509.726562 C 515.644531 509 516.472656 508.703125 517.414062 508.703125 L 517.503906 508.703125 C 524.039062 509.726562 530.9375 510.769531 538.949219 511.6875 C 541.382812 511.886719 543.882812 512.070312 546.40625 512.351562 C 549.484375 512.628906 552.476562 512.910156 555.546875 513.101562 C 556.296875 542.433594 569.027344 570.460938 572.226562 577.167969 C 595.714844 554.050781 615.46875 527.429688 630.789062 498.253906 C 608.121094 500.839844 580.394531 501.714844 547.773438 498.449219 C 545.160156 498.15625 542.546875 497.90625 539.929688 497.699219 C 533.167969 496.925781 526.421875 495.996094 519.699219 494.921875 C 518.726562 494.769531 517.738281 494.707031 516.753906 494.730469 M 516.753906 494.730469 "/>
</svg>
