<?xml version="1.0" encoding="UTF-8"?>
<svg xmlns="http://www.w3.org/2000/svg" xmlns:xlink="http://www.w3.org/1999/xlink" width="800" height="800" viewBox="0 0 800 800">
<path fill-rule="nonzero" fill="rgb(0%, 45.098039%, 63.137255%)" fill-opacity="1" d="M 800 400 C 800 620.925781 620.925781 800 400 800 C 179.074219 800 0 620.925781 0 400 C 0 179.074219 179.074219 0 400 0 C 620.925781 0 800 179.074219 800 400 M 800 400 "/>
<path fill-rule="nonzero" fill="rgb(0%, 45.098039%, 63.137255%)" fill-opacity="1" d="M 762.0625 400 C 762.0625 599.949219 599.949219 762.0625 400 762.0625 C 200.050781 762.0625 37.9375 599.949219 37.9375 400 C 37.9375 200.050781 200.050781 37.9375 400 37.9375 C 599.949219 37.9375 762.0625 200.050781 762.0625 400 M 762.0625 400 "/>
<path fill-rule="nonzero" fill="rgb(100%, 100%, 100%)" fill-opacity="1" d="M 405.25 36.742188 C 353.113281 35.839844 301.390625 46.15625 253.585938 66.992188 C 69.460938 147.269531 -14.769531 361.59375 65.5 545.75 C 133.425781 700.511719 298.976562 788.085938 465.113281 757.15625 C 472.195312 734.59375 478 709.84375 478 682.835938 C 478 679.007812 477.90625 675.167969 477.6875 671.210938 C 477.6875 671.210938 490.675781 649.050781 500.925781 620.167969 C 513.601562 584.476562 506.886719 545.144531 484.9375 514.042969 C 483.644531 512.332031 482.375 510.425781 480.980469 508.492188 C 351.730469 508.492188 287.792969 391.28125 271.582031 319.992188 C 264.867188 290.675781 259.425781 287.769531 241.136719 287.769531 C 207.273438 287.769531 182.835938 273.730469 182.835938 273.730469 C 151.757812 287.960938 137.835938 282.175781 142.019531 267.3125 C 128.492188 265.820312 128.761719 250.4375 137.011719 236.324219 C 147.335938 218.625 168.429688 206.59375 193.699219 206.59375 L 207.226562 206.59375 C 235.15625 206.59375 240.894531 191.992188 269.675781 195.09375 C 274.144531 195.53125 278.300781 196.261719 282.15625 197.21875 C 290.136719 188.0625 299.195312 184.230469 310.15625 184.960938 C 310.941406 185.035156 311.660156 185.4375 312.128906 186.070312 C 312.601562 186.703125 312.78125 187.507812 312.625 188.28125 L 309.960938 200.636719 C 308.980469 205.226562 310.273438 210.011719 313.574219 213.113281 C 336.820312 234.835938 350.125 271.925781 365.039062 305.394531 C 389.230469 354.738281 447.632812 423.242188 541.304688 335.332031 C 607.179688 273.511719 646.949219 221.976562 712.355469 216.917969 C 648.398438 107.429688 532.027344 39.160156 405.25 36.742188 M 250.804688 215.699219 C 241.210938 215.699219 231.644531 223.386719 234.886719 224.78125 C 235.617188 225.09375 236.863281 225.292969 238.28125 225.46875 C 239.28125 231.59375 244.429688 236.324219 250.855469 236.324219 C 257.273438 236.324219 262.355469 231.59375 263.355469 225.4375 C 264.769531 225.292969 265.992188 225.101562 266.726562 224.78125 C 269.976562 223.386719 260.398438 215.699219 250.804688 215.699219 M 590.574219 565.40625 C 582.8125 565.574219 575.824219 570.53125 573.488281 578.074219 L 573.488281 578.199219 C 561.863281 615.480469 539.28125 663.648438 539.28125 663.648438 C 539.28125 663.648438 516.800781 703.460938 504.074219 748.050781 C 517.738281 744.105469 531.15625 739.359375 544.261719 733.835938 C 569.894531 722.636719 594.148438 708.503906 616.53125 691.726562 C 612.882812 684.394531 608.847656 677.265625 604.445312 670.363281 C 604.445312 670.363281 596.976562 637.230469 582.695312 601.101562 C 584.9375 594.917969 586.960938 588.84375 588.769531 582.980469 L 588.894531 582.542969 C 589.304688 581.710938 590.257812 581.375 591.332031 581.375 L 591.429688 581.375 C 598.898438 582.542969 606.789062 583.738281 615.945312 584.789062 C 618.726562 585.011719 621.582031 585.226562 624.460938 585.542969 C 627.980469 585.863281 631.398438 586.179688 634.914062 586.398438 C 635.769531 619.925781 650.320312 651.957031 653.976562 659.617188 C 680.816406 633.203125 703.394531 602.777344 720.898438 569.429688 C 694.992188 572.386719 663.304688 573.386719 626.023438 569.65625 C 623.042969 569.324219 620.054688 569.039062 617.0625 568.800781 C 609.332031 567.914062 601.625 566.855469 593.945312 565.625 C 592.828125 565.449219 591.703125 565.378906 590.574219 565.40625 M 590.574219 565.40625 "/>
</svg>
