<?xml version="1.0" encoding="UTF-8"?>
<svg xmlns="http://www.w3.org/2000/svg" xmlns:xlink="http://www.w3.org/1999/xlink" width="1800" height="1800" viewBox="0 0 1800 1800">
<path fill-rule="nonzero" fill="rgb(0%, 45.098039%, 63.137255%)" fill-opacity="1" d="M 1800 900 C 1800 1397.082031 1397.082031 1800 900 1800 C 402.917969 1800 0 1397.082031 0 900 C 0 402.917969 402.917969 0 900 0 C 1397.082031 0 1800 402.917969 1800 900 M 1800 900 "/>
<path fill-rule="nonzero" fill="rgb(0%, 45.098039%, 63.137255%)" fill-opacity="1" d="M 1714.640625 900 C 1714.640625 1349.886719 1349.886719 1714.640625 900 1714.640625 C 450.113281 1714.640625 85.359375 1349.886719 85.359375 900 C 85.359375 450.113281 450.113281 85.359375 900 85.359375 C 1349.886719 85.359375 1714.640625 450.113281 1714.640625 900 M 1714.640625 900 "/>
<path fill-rule="nonzero" fill="rgb(100%, 100%, 100%)" fill-opacity="1" d="M 911.8125 82.671875 C 794.5 80.640625 678.125 103.851562 570.570312 150.734375 C 156.289062 331.355469 -33.230469 813.585938 147.375 1227.9375 C 300.207031 1576.152344 672.695312 1773.195312 1046.503906 1703.601562 C 1062.4375 1652.835938 1075.5 1597.148438 1075.5 1536.382812 C 1075.5 1527.765625 1075.289062 1519.128906 1074.796875 1510.226562 C 1074.796875 1510.226562 1104.019531 1460.363281 1127.082031 1395.378906 C 1155.601562 1315.070312 1140.496094 1226.574219 1091.109375 1156.597656 C 1088.199219 1152.746094 1085.34375 1148.457031 1082.207031 1144.109375 C 791.394531 1144.109375 647.535156 880.382812 611.058594 719.984375 C 595.953125 654.019531 583.707031 647.480469 542.558594 647.480469 C 466.367188 647.480469 411.382812 615.894531 411.382812 615.894531 C 341.453125 647.914062 310.132812 634.894531 319.542969 601.453125 C 289.109375 598.09375 289.714844 563.484375 308.277344 531.730469 C 331.507812 491.90625 378.96875 464.835938 435.824219 464.835938 L 466.257812 464.835938 C 529.101562 464.835938 542.011719 431.984375 606.769531 438.960938 C 616.824219 439.945312 626.175781 441.589844 634.851562 443.742188 C 652.808594 423.140625 673.1875 414.519531 697.851562 416.164062 C 699.617188 416.332031 701.234375 417.238281 702.292969 418.660156 C 703.351562 420.085938 703.757812 421.894531 703.40625 423.632812 L 697.414062 451.433594 C 695.207031 461.757812 698.117188 472.527344 705.542969 479.503906 C 757.84375 528.382812 787.78125 611.832031 821.335938 687.136719 C 875.769531 798.160156 1007.171875 952.296875 1217.9375 754.496094 C 1366.15625 615.402344 1455.636719 499.445312 1602.800781 488.066406 C 1458.890625 241.71875 1197.0625 88.105469 911.8125 82.671875 M 564.3125 485.324219 C 542.726562 485.324219 521.199219 502.621094 528.496094 505.757812 C 530.140625 506.460938 532.941406 506.910156 536.132812 507.304688 C 538.382812 521.085938 549.96875 531.730469 564.425781 531.730469 C 578.867188 531.730469 590.300781 521.085938 592.550781 507.234375 C 595.730469 506.910156 598.484375 506.476562 600.132812 505.757812 C 607.445312 502.621094 585.898438 485.324219 564.3125 485.324219 M 1328.792969 1272.164062 C 1311.328125 1272.542969 1295.605469 1283.695312 1290.347656 1300.667969 L 1290.347656 1300.949219 C 1264.191406 1384.832031 1213.382812 1493.210938 1213.382812 1493.210938 C 1213.382812 1493.210938 1162.800781 1582.789062 1134.167969 1683.113281 C 1164.910156 1674.234375 1195.101562 1663.558594 1224.589844 1651.132812 C 1282.265625 1625.929688 1336.832031 1594.132812 1387.195312 1556.382812 C 1378.988281 1539.890625 1369.910156 1523.84375 1360 1508.316406 C 1360 1508.316406 1343.195312 1433.769531 1311.0625 1352.476562 C 1316.109375 1338.566406 1320.664062 1324.898438 1324.730469 1311.707031 L 1325.011719 1310.722656 C 1325.9375 1308.851562 1328.078125 1308.09375 1330.496094 1308.09375 L 1330.71875 1308.09375 C 1347.523438 1310.722656 1365.273438 1313.410156 1385.875 1315.773438 C 1392.132812 1316.277344 1398.558594 1316.757812 1405.039062 1317.472656 C 1412.957031 1318.191406 1420.648438 1318.90625 1428.554688 1319.398438 C 1430.480469 1394.832031 1463.21875 1466.902344 1471.445312 1484.140625 C 1531.839844 1424.703125 1582.640625 1356.25 1622.023438 1281.21875 C 1563.734375 1287.871094 1492.4375 1290.121094 1408.554688 1281.726562 C 1401.84375 1280.976562 1395.121094 1280.335938 1388.390625 1279.800781 C 1371 1277.804688 1353.65625 1275.421875 1336.375 1272.65625 C 1333.867188 1272.265625 1331.328125 1272.101562 1328.792969 1272.164062 M 1328.792969 1272.164062 "/>
</svg>
