<?xml version="1.0" encoding="UTF-8"?>
<svg xmlns="http://www.w3.org/2000/svg" xmlns:xlink="http://www.w3.org/1999/xlink" width="2250" height="2250" viewBox="0 0 2250 2250">
<path fill-rule="nonzero" fill="rgb(0%, 45.098039%, 63.137255%)" fill-opacity="1" d="M 2250 1125 C 2250 1746.351562 1746.351562 2250 1125 2250 C 503.648438 2250 0 1746.351562 0 1125 C 0 503.648438 503.648438 0 1125 0 C 1746.351562 0 2250 503.648438 2250 1125 M 2250 1125 "/>
<path fill-rule="nonzero" fill="rgb(0%, 45.098039%, 63.137255%)" fill-opacity="1" d="M 2143.300781 1125 C 2143.300781 1687.359375 1687.359375 2143.300781 1125 2143.300781 C 562.640625 2143.300781 106.699219 1687.359375 106.699219 1125 C 106.699219 562.640625 562.640625 106.699219 1125 106.699219 C 1687.359375 106.699219 2143.300781 562.640625 2143.300781 1125 M 2143.300781 1125 "/>
<path fill-rule="nonzero" fill="rgb(100%, 100%, 100%)" fill-opacity="1" d="M 1139.765625 103.339844 C 993.128906 100.800781 847.65625 129.8125 713.214844 188.421875 C 195.363281 414.195312 -41.539062 1016.984375 184.21875 1534.921875 C 375.257812 1970.191406 840.867188 2216.496094 1308.128906 2129.5 C 1328.046875 2066.046875 1344.375 1996.433594 1344.375 1920.480469 C 1344.375 1909.703125 1344.109375 1898.910156 1343.496094 1887.785156 C 1343.496094 1887.785156 1380.023438 1825.453125 1408.851562 1744.222656 C 1444.5 1643.835938 1425.621094 1533.214844 1363.886719 1445.746094 C 1360.25 1440.929688 1356.679688 1435.570312 1352.761719 1430.136719 C 989.246094 1430.136719 809.421875 1100.476562 763.824219 899.980469 C 744.945312 817.523438 729.632812 809.347656 678.199219 809.347656 C 582.960938 809.347656 514.230469 769.867188 514.230469 769.867188 C 426.816406 809.894531 387.667969 793.617188 399.429688 751.816406 C 361.390625 747.613281 362.144531 704.355469 385.347656 664.664062 C 414.386719 614.882812 473.714844 581.042969 544.78125 581.042969 L 582.820312 581.042969 C 661.378906 581.042969 677.515625 539.980469 758.460938 548.699219 C 771.03125 549.929688 782.71875 551.988281 793.566406 554.675781 C 816.011719 528.925781 841.484375 518.148438 872.316406 520.207031 C 874.523438 520.414062 876.542969 521.546875 877.867188 523.328125 C 879.191406 525.105469 879.695312 527.367188 879.257812 529.539062 L 871.769531 564.292969 C 869.011719 577.195312 872.648438 590.660156 881.929688 599.378906 C 947.304688 660.480469 984.726562 764.789062 1026.667969 858.917969 C 1094.714844 997.699219 1258.964844 1190.375 1522.425781 943.117188 C 1707.699219 769.253906 1819.546875 624.304688 2003.503906 610.082031 C 1823.617188 302.148438 1496.328125 110.132812 1139.765625 103.34375 M 705.390625 606.65625 C 678.410156 606.65625 651.496094 628.277344 660.621094 632.199219 C 662.679688 633.078125 666.175781 633.640625 670.164062 634.132812 C 672.976562 651.359375 687.460938 664.664062 705.53125 664.664062 C 723.585938 664.664062 737.878906 651.359375 740.6875 634.042969 C 744.664062 633.640625 748.109375 633.09375 750.164062 632.199219 C 759.304688 628.277344 732.375 606.65625 705.394531 606.65625 M 1660.992188 1590.203125 C 1639.160156 1590.679688 1619.507812 1604.617188 1612.933594 1625.835938 L 1612.933594 1626.1875 C 1580.238281 1731.039062 1516.730469 1866.515625 1516.730469 1866.515625 C 1516.730469 1866.515625 1453.5 1978.488281 1417.710938 2103.890625 C 1456.136719 2092.796875 1493.878906 2079.449219 1530.738281 2063.917969 C 1602.832031 2032.414062 1671.039062 1992.667969 1733.996094 1945.476562 C 1723.734375 1924.863281 1712.386719 1904.804688 1700 1885.394531 C 1700 1885.394531 1678.992188 1792.210938 1638.828125 1690.59375 C 1645.136719 1673.207031 1650.832031 1656.121094 1655.914062 1639.632812 L 1656.265625 1638.40625 C 1657.425781 1636.066406 1660.097656 1635.117188 1663.121094 1635.117188 L 1663.402344 1635.117188 C 1684.40625 1638.40625 1706.589844 1641.761719 1732.34375 1644.714844 C 1740.164062 1645.347656 1748.199219 1645.945312 1756.300781 1646.84375 C 1766.199219 1647.738281 1775.8125 1648.632812 1785.691406 1649.25 C 1788.101562 1743.539062 1829.023438 1833.625 1839.304688 1855.179688 C 1914.800781 1780.882812 1978.296875 1695.308594 2027.53125 1601.527344 C 1954.671875 1609.839844 1865.546875 1612.652344 1760.695312 1602.160156 C 1752.304688 1601.222656 1743.902344 1600.417969 1735.488281 1599.75 C 1713.75 1597.253906 1692.070312 1594.277344 1670.46875 1590.820312 C 1667.332031 1590.332031 1664.164062 1590.125 1660.992188 1590.207031 M 1660.992188 1590.207031 "/>
</svg>
