<?xml version="1.0" encoding="UTF-8"?>
<svg xmlns="http://www.w3.org/2000/svg" xmlns:xlink="http://www.w3.org/1999/xlink" width="1600" height="1600" viewBox="0 0 1600 1600">
<path fill-rule="nonzero" fill="rgb(0%, 45.098039%, 63.137255%)" fill-opacity="1" d="M 1600 800 C 1600 1241.851562 1241.851562 1600 800 1600 C 358.148438 1600 0 1241.851562 0 800 C 0 358.148438 358.148438 0 800 0 C 1241.851562 0 1600 358.148438 1600 800 M 1600 800 "/>
<path fill-rule="nonzero" fill="rgb(0%, 45.098039%, 63.137255%)" fill-opacity="1" d="M 1524.125 800 C 1524.125 1199.898438 1199.898438 1524.125 800 1524.125 C 400.101562 1524.125 75.875 1199.898438 75.875 800 C 75.875 400.101562 400.101562 75.875 800 75.875 C 1199.898438 75.875 1524.125 400.101562 1524.125 800 M 1524.125 800 "/>
<path fill-rule="nonzero" fill="rgb(100%, 100%, 100%)" fill-opacity="1" d="M 810.5 73.488281 C 706.222656 71.679688 602.777344 92.3125 507.175781 133.988281 C 138.925781 294.539062 -29.539062 723.1875 131 1091.5 C 266.851562 1401.023438 597.949219 1576.175781 930.226562 1514.3125 C 944.386719 1469.1875 956 1419.6875 956 1365.675781 C 956 1358.011719 955.8125 1350.335938 955.375 1342.425781 C 955.375 1342.425781 981.351562 1298.101562 1001.851562 1240.335938 C 1027.199219 1168.949219 1013.773438 1090.289062 969.875 1028.085938 C 967.289062 1024.664062 964.75 1020.851562 961.960938 1016.988281 C 703.460938 1016.988281 575.585938 782.5625 543.164062 639.988281 C 529.738281 581.351562 518.851562 575.539062 482.273438 575.539062 C 414.550781 575.539062 365.675781 547.460938 365.675781 547.460938 C 303.511719 575.925781 275.675781 564.351562 284.039062 534.625 C 256.988281 531.636719 257.523438 500.875 274.023438 472.648438 C 294.675781 437.25 336.863281 413.1875 387.398438 413.1875 L 414.449219 413.1875 C 470.3125 413.1875 481.789062 383.988281 539.351562 390.1875 C 548.289062 391.0625 556.601562 392.523438 564.3125 394.4375 C 580.273438 376.125 598.386719 368.460938 620.3125 369.925781 C 621.882812 370.070312 623.320312 370.878906 624.261719 372.144531 C 625.203125 373.410156 625.5625 375.015625 625.25 376.5625 L 619.925781 401.273438 C 617.960938 410.449219 620.550781 420.023438 627.148438 426.226562 C 673.636719 469.675781 700.25 543.851562 730.074219 610.789062 C 778.460938 709.476562 895.261719 846.488281 1082.613281 670.664062 C 1214.363281 547.023438 1293.898438 443.949219 1424.710938 433.835938 C 1296.792969 214.859375 1064.058594 78.316406 810.5 73.488281 M 501.613281 431.398438 C 482.425781 431.398438 463.289062 446.773438 469.773438 449.5625 C 471.238281 450.1875 473.726562 450.585938 476.5625 450.9375 C 478.5625 463.1875 488.863281 472.648438 501.710938 472.648438 C 514.550781 472.648438 524.710938 463.1875 526.710938 450.875 C 529.539062 450.585938 531.988281 450.199219 533.449219 449.5625 C 539.949219 446.773438 520.800781 431.398438 501.613281 431.398438 M 1181.148438 1130.8125 C 1165.625 1131.148438 1151.648438 1141.0625 1146.976562 1156.148438 L 1146.976562 1156.398438 C 1123.726562 1230.960938 1078.5625 1327.300781 1078.5625 1327.300781 C 1078.5625 1327.300781 1033.601562 1406.925781 1008.148438 1496.101562 C 1035.476562 1488.210938 1062.3125 1478.71875 1088.523438 1467.675781 C 1139.792969 1445.269531 1188.292969 1417.007812 1233.0625 1383.449219 C 1225.765625 1368.789062 1217.695312 1354.527344 1208.886719 1340.726562 C 1208.886719 1340.726562 1193.949219 1274.460938 1165.386719 1202.199219 C 1169.875 1189.835938 1173.925781 1177.6875 1177.539062 1165.960938 L 1177.789062 1165.085938 C 1178.613281 1163.425781 1180.511719 1162.75 1182.664062 1162.75 L 1182.863281 1162.75 C 1197.800781 1165.085938 1213.574219 1167.476562 1231.886719 1169.574219 C 1237.449219 1170.023438 1243.164062 1170.449219 1248.925781 1171.085938 C 1255.960938 1171.726562 1262.800781 1172.363281 1269.824219 1172.800781 C 1271.539062 1239.851562 1300.636719 1303.914062 1307.949219 1319.238281 C 1361.636719 1266.402344 1406.789062 1205.554688 1441.800781 1138.863281 C 1389.988281 1144.773438 1326.613281 1146.773438 1252.050781 1139.3125 C 1246.085938 1138.644531 1240.109375 1138.074219 1234.125 1137.601562 C 1218.667969 1135.828125 1203.25 1133.707031 1187.886719 1131.25 C 1185.660156 1130.902344 1183.40625 1130.753906 1181.148438 1130.8125 M 1181.148438 1130.8125 "/>
</svg>
