<?xml version="1.0" encoding="UTF-8"?>
<svg xmlns="http://www.w3.org/2000/svg" xmlns:xlink="http://www.w3.org/1999/xlink" width="3500" height="3500" viewBox="0 0 3500 3500">
<path fill-rule="nonzero" fill="rgb(0%, 45.098039%, 63.137255%)" fill-opacity="1" d="M 3500 1750 C 3500 2716.546875 2716.546875 3500 1750 3500 C 783.453125 3500 0 2716.546875 0 1750 C 0 783.453125 783.453125 0 1750 0 C 2716.546875 0 3500 783.453125 3500 1750 M 3500 1750 "/>
<path fill-rule="nonzero" fill="rgb(0%, 45.098039%, 63.137255%)" fill-opacity="1" d="M 3334.023438 1750 C 3334.023438 2624.78125 2624.78125 3334.023438 1750 3334.023438 C 875.21875 3334.023438 165.976562 2624.78125 165.976562 1750 C 165.976562 875.21875 875.21875 165.976562 1750 165.976562 C 2624.78125 165.976562 3334.023438 875.21875 3334.023438 1750 M 3334.023438 1750 "/>
<path fill-rule="nonzero" fill="rgb(100%, 100%, 100%)" fill-opacity="1" d="M 1772.96875 160.753906 C 1544.863281 156.796875 1318.578125 201.933594 1109.445312 293.097656 C 303.898438 644.300781 -64.613281 1581.972656 286.5625 2387.65625 C 583.734375 3064.742188 1308.015625 3447.882812 2034.867188 3312.558594 C 2065.847656 3213.847656 2091.25 3105.566406 2091.25 2987.414062 C 2091.25 2970.652344 2090.839844 2953.863281 2089.882812 2936.554688 C 2089.882812 2936.554688 2146.703125 2839.59375 2191.546875 2713.238281 C 2247 2557.078125 2217.632812 2385.003906 2121.601562 2248.941406 C 2115.941406 2241.449219 2110.390625 2233.109375 2104.292969 2224.660156 C 1538.824219 2224.660156 1259.097656 1711.855469 1188.167969 1399.972656 C 1158.800781 1271.703125 1134.984375 1258.988281 1054.976562 1258.988281 C 906.828125 1258.988281 799.914062 1197.574219 799.914062 1197.574219 C 663.933594 1259.835938 603.039062 1234.515625 621.332031 1169.492188 C 562.160156 1162.957031 563.335938 1095.664062 599.429688 1033.921875 C 644.601562 956.484375 736.886719 903.847656 847.4375 903.847656 L 906.609375 903.847656 C 1028.808594 903.847656 1053.910156 839.972656 1179.828125 853.535156 C 1199.378906 855.449219 1217.5625 858.648438 1234.433594 862.832031 C 1269.351562 822.773438 1308.972656 806.011719 1356.933594 809.210938 C 1360.371094 809.53125 1363.507812 811.292969 1365.570312 814.0625 C 1367.628906 816.832031 1368.417969 820.347656 1367.734375 823.730469 L 1356.085938 877.789062 C 1351.792969 897.859375 1357.453125 918.804688 1371.890625 932.367188 C 1473.582031 1027.414062 1531.796875 1189.671875 1597.039062 1336.097656 C 1702.886719 1551.976562 1958.386719 1851.691406 2368.214844 1467.074219 C 2656.417969 1196.617188 2830.40625 971.140625 3116.558594 949.019531 C 2836.734375 470.007812 2327.625 171.316406 1772.96875 160.753906 M 1097.277344 943.6875 C 1055.304688 943.6875 1013.441406 977.320312 1027.632812 983.417969 C 1030.832031 984.785156 1036.273438 985.660156 1042.480469 986.425781 C 1046.855469 1013.222656 1069.386719 1033.921875 1097.496094 1033.921875 C 1125.578125 1033.921875 1147.808594 1013.222656 1152.183594 986.289062 C 1158.363281 985.660156 1163.722656 984.8125 1166.921875 983.417969 C 1181.140625 977.320312 1139.25 943.6875 1097.277344 943.6875 M 2583.765625 2473.652344 C 2549.804688 2474.390625 2519.234375 2496.074219 2509.007812 2529.078125 L 2509.007812 2529.625 C 2458.148438 2692.730469 2359.355469 2903.46875 2359.355469 2903.46875 C 2359.355469 2903.46875 2261 3077.648438 2205.328125 3272.71875 C 2265.105469 3255.457031 2323.8125 3234.695312 2381.148438 3210.539062 C 2493.296875 3161.53125 2599.394531 3099.703125 2697.324219 3026.296875 C 2681.363281 2994.230469 2663.710938 2963.03125 2644.441406 2932.835938 C 2644.441406 2932.835938 2611.765625 2787.886719 2549.285156 2629.8125 C 2559.101562 2602.769531 2567.960938 2576.191406 2575.863281 2550.542969 L 2576.410156 2548.628906 C 2578.214844 2544.992188 2582.371094 2543.515625 2587.074219 2543.515625 L 2587.511719 2543.515625 C 2620.1875 2548.628906 2654.695312 2553.851562 2694.753906 2558.445312 C 2706.921875 2559.429688 2719.417969 2560.359375 2732.023438 2561.753906 C 2747.417969 2563.148438 2762.375 2564.542969 2777.742188 2565.5 C 2781.488281 2712.171875 2845.144531 2852.308594 2861.140625 2885.832031 C 2978.578125 2770.257812 3077.351562 2637.148438 3153.9375 2491.261719 C 3040.597656 2504.195312 2901.964844 2508.570312 2738.859375 2492.246094 C 2725.808594 2490.789062 2712.738281 2489.539062 2699.648438 2488.5 C 2665.835938 2484.621094 2632.113281 2479.988281 2598.503906 2474.609375 C 2593.628906 2473.847656 2588.695312 2473.527344 2583.765625 2473.652344 M 2583.765625 2473.652344 "/>
</svg>
