<?xml version="1.0" encoding="UTF-8"?>
<svg xmlns="http://www.w3.org/2000/svg" xmlns:xlink="http://www.w3.org/1999/xlink" width="100" height="100" viewBox="0 0 100 100">
<path fill-rule="nonzero" fill="rgb(0%, 45.098039%, 63.137255%)" fill-opacity="1" d="M 100 50 C 100 77.617188 77.617188 100 50 100 C 22.382812 100 0 77.617188 0 50 C 0 22.382812 22.382812 0 50 0 C 77.617188 0 100 22.382812 100 50 M 100 50 "/>
<path fill-rule="nonzero" fill="rgb(0%, 45.098039%, 63.137255%)" fill-opacity="1" d="M 95.257812 50 C 95.257812 74.992188 74.992188 95.257812 50 95.257812 C 25.007812 95.257812 4.742188 74.992188 4.742188 50 C 4.742188 25.007812 25.007812 4.742188 50 4.742188 C 74.992188 4.742188 95.257812 25.007812 95.257812 50 M 95.257812 50 "/>
<path fill-rule="nonzero" fill="rgb(100%, 100%, 100%)" fill-opacity="1" d="M 50.65625 4.59375 C 44.140625 4.480469 37.671875 5.769531 31.699219 8.375 C 8.683594 18.410156 -1.847656 45.199219 8.1875 68.21875 C 16.679688 87.5625 37.371094 98.511719 58.140625 94.644531 C 59.023438 91.824219 59.75 88.730469 59.75 85.355469 C 59.75 84.875 59.738281 84.394531 59.710938 83.902344 C 59.710938 83.902344 61.335938 81.132812 62.617188 77.519531 C 64.199219 73.058594 63.359375 68.144531 60.617188 64.253906 C 60.457031 64.042969 60.296875 63.804688 60.121094 63.5625 C 43.964844 63.5625 35.972656 48.910156 33.949219 40 C 33.109375 36.335938 32.429688 35.972656 30.140625 35.972656 C 25.910156 35.972656 22.855469 34.214844 22.855469 34.214844 C 18.96875 35.996094 17.230469 35.273438 17.753906 33.414062 C 16.0625 33.226562 16.09375 31.304688 17.125 29.539062 C 18.417969 27.328125 21.054688 25.824219 24.210938 25.824219 L 25.902344 25.824219 C 29.394531 25.824219 30.113281 24 33.710938 24.386719 C 34.269531 24.441406 34.789062 24.53125 35.269531 24.652344 C 36.265625 23.507812 37.398438 23.027344 38.769531 23.121094 C 38.867188 23.128906 38.957031 23.179688 39.015625 23.257812 C 39.074219 23.339844 39.097656 23.4375 39.078125 23.535156 L 38.746094 25.078125 C 38.621094 25.652344 38.785156 26.25 39.195312 26.640625 C 42.101562 29.355469 43.765625 33.992188 45.628906 38.175781 C 48.652344 44.34375 55.953125 52.90625 67.664062 41.917969 C 75.898438 34.1875 80.867188 27.746094 89.042969 27.113281 C 81.050781 13.429688 66.503906 4.894531 50.65625 4.59375 M 31.351562 26.960938 C 30.152344 26.960938 28.957031 27.921875 29.359375 28.097656 C 29.453125 28.136719 29.609375 28.160156 29.785156 28.183594 C 29.910156 28.949219 30.554688 29.539062 31.355469 29.539062 C 32.160156 29.539062 32.792969 28.949219 32.917969 28.179688 C 33.097656 28.160156 33.25 28.136719 33.339844 28.097656 C 33.746094 27.921875 32.550781 26.960938 31.351562 26.960938 M 73.820312 70.675781 C 72.851562 70.695312 71.976562 71.316406 71.6875 72.257812 L 71.6875 72.273438 C 70.234375 76.933594 67.410156 82.957031 67.410156 82.957031 C 67.410156 82.957031 64.601562 87.933594 63.007812 93.507812 C 64.71875 93.011719 66.394531 92.417969 68.03125 91.730469 C 71.238281 90.328125 74.269531 88.5625 77.066406 86.464844 C 76.609375 85.550781 76.105469 84.65625 75.554688 83.796875 C 75.554688 83.796875 74.621094 79.652344 72.835938 75.136719 C 73.117188 74.363281 73.371094 73.605469 73.597656 72.871094 L 73.613281 72.816406 C 73.664062 72.714844 73.78125 72.671875 73.917969 72.671875 L 73.929688 72.671875 C 74.863281 72.816406 75.847656 72.96875 76.992188 73.097656 C 77.339844 73.125 77.699219 73.152344 78.058594 73.191406 C 78.496094 73.234375 78.925781 73.273438 79.363281 73.300781 C 79.472656 77.492188 81.289062 81.496094 81.746094 82.453125 C 85.101562 79.148438 87.925781 75.347656 90.113281 71.179688 C 86.875 71.546875 82.914062 71.671875 78.253906 71.207031 C 77.878906 71.164062 77.507812 71.128906 77.132812 71.101562 C 76.167969 70.988281 75.203125 70.855469 74.242188 70.703125 C 74.105469 70.679688 73.960938 70.671875 73.820312 70.675781 M 73.820312 70.675781 "/>
</svg>
