<?xml version="1.0" encoding="UTF-8"?>
<svg xmlns="http://www.w3.org/2000/svg" xmlns:xlink="http://www.w3.org/1999/xlink" width="96" height="96" viewBox="0 0 96 96">
<path fill-rule="nonzero" fill="rgb(0%, 45.098039%, 63.137255%)" fill-opacity="1" d="M 96 48 C 96 74.511719 74.511719 96 48 96 C 21.488281 96 0 74.511719 0 48 C 0 21.488281 21.488281 0 48 0 C 74.511719 0 96 21.488281 96 48 M 96 48 "/>
<path fill-rule="nonzero" fill="rgb(0%, 45.098039%, 63.137255%)" fill-opacity="1" d="M 91.449219 48 C 91.449219 71.992188 71.992188 91.449219 48 91.449219 C 24.007812 91.449219 4.550781 71.992188 4.550781 48 C 4.550781 24.007812 24.007812 4.550781 48 4.550781 C 71.992188 4.550781 91.449219 24.007812 91.449219 48 M 91.449219 48 "/>
<path fill-rule="nonzero" fill="rgb(100%, 100%, 100%)" fill-opacity="1" d="M 48.628906 4.410156 C 42.375 4.300781 36.167969 5.539062 30.429688 8.039062 C 8.335938 17.671875 -1.773438 43.390625 7.859375 65.488281 C 16.011719 84.0625 35.878906 94.570312 55.8125 90.859375 C 56.664062 88.152344 57.359375 85.179688 57.359375 81.941406 C 57.359375 81.480469 57.347656 81.019531 57.324219 80.546875 C 57.324219 80.546875 58.882812 77.886719 60.109375 74.421875 C 61.632812 70.136719 60.828125 65.417969 58.191406 61.683594 C 58.039062 61.480469 57.886719 61.25 57.71875 61.019531 C 42.207031 61.019531 34.535156 46.953125 32.589844 38.398438 C 31.785156 34.882812 31.132812 34.53125 28.9375 34.53125 C 24.871094 34.53125 21.941406 32.847656 21.941406 32.847656 C 18.210938 34.554688 16.539062 33.859375 17.042969 32.078125 C 15.417969 31.898438 15.453125 30.050781 16.441406 28.359375 C 17.679688 26.234375 20.210938 24.792969 23.242188 24.792969 L 24.867188 24.792969 C 28.21875 24.792969 28.90625 23.039062 32.359375 23.410156 C 32.898438 23.464844 33.394531 23.550781 33.859375 23.667969 C 34.816406 22.566406 35.902344 22.109375 37.21875 22.195312 C 37.3125 22.203125 37.398438 22.253906 37.457031 22.328125 C 37.511719 22.40625 37.535156 22.5 37.515625 22.59375 L 37.195312 24.078125 C 37.078125 24.628906 37.234375 25.203125 37.628906 25.574219 C 40.417969 28.179688 42.015625 32.632812 43.804688 36.648438 C 46.707031 42.570312 53.714844 50.789062 64.957031 40.238281 C 72.863281 32.820312 77.632812 26.636719 85.484375 26.03125 C 77.808594 12.890625 63.84375 4.699219 48.628906 4.410156 M 30.097656 25.882812 C 28.945312 25.882812 27.796875 26.804688 28.1875 26.972656 C 28.273438 27.011719 28.421875 27.035156 28.59375 27.054688 C 28.714844 27.792969 29.332031 28.359375 30.101562 28.359375 C 30.871094 28.359375 31.484375 27.792969 31.601562 27.050781 C 31.773438 27.035156 31.917969 27.011719 32.007812 26.972656 C 32.398438 26.804688 31.246094 25.882812 30.097656 25.882812 M 70.867188 67.847656 C 69.9375 67.867188 69.097656 68.464844 68.820312 69.367188 L 68.820312 69.382812 C 67.421875 73.859375 64.714844 79.636719 64.714844 79.636719 C 64.714844 79.636719 62.015625 84.414062 60.488281 89.765625 C 62.128906 89.292969 63.738281 88.722656 65.3125 88.058594 C 68.386719 86.714844 71.296875 85.019531 73.984375 83.007812 C 73.546875 82.128906 73.0625 81.273438 72.535156 80.445312 C 72.535156 80.445312 71.636719 76.46875 69.921875 72.132812 C 70.191406 71.390625 70.433594 70.660156 70.652344 69.957031 L 70.667969 69.90625 C 70.714844 69.804688 70.832031 69.765625 70.960938 69.765625 L 70.972656 69.765625 C 71.867188 69.90625 72.816406 70.046875 73.914062 70.175781 C 74.246094 70.203125 74.589844 70.226562 74.933594 70.265625 C 75.359375 70.304688 75.769531 70.339844 76.191406 70.367188 C 76.292969 74.390625 78.039062 78.234375 78.476562 79.152344 C 81.699219 75.984375 84.40625 72.332031 86.507812 68.332031 C 83.398438 68.6875 79.597656 68.804688 75.121094 68.359375 C 74.765625 68.320312 74.40625 68.285156 74.046875 68.257812 C 73.121094 68.148438 72.195312 68.023438 71.273438 67.875 C 71.140625 67.855469 71.003906 67.84375 70.867188 67.847656 M 70.867188 67.847656 "/>
</svg>
