<?xml version="1.0" encoding="UTF-8"?>
<svg xmlns="http://www.w3.org/2000/svg" xmlns:xlink="http://www.w3.org/1999/xlink" width="64" height="64" viewBox="0 0 64 64">
<path fill-rule="nonzero" fill="rgb(0%, 45.098039%, 63.137255%)" fill-opacity="1" d="M 64 32 C 64 49.675781 49.675781 64 32 64 C 14.324219 64 0 49.675781 0 32 C 0 14.324219 14.324219 0 32 0 C 49.675781 0 64 14.324219 64 32 M 64 32 "/>
<path fill-rule="nonzero" fill="rgb(0%, 45.098039%, 63.137255%)" fill-opacity="1" d="M 60.964844 32 C 60.964844 47.996094 47.996094 60.964844 32 60.964844 C 16.003906 60.964844 3.035156 47.996094 3.035156 32 C 3.035156 16.003906 16.003906 3.035156 32 3.035156 C 47.996094 3.035156 60.964844 16.003906 60.964844 32 M 60.964844 32 "/>
<path fill-rule="nonzero" fill="rgb(100%, 100%, 100%)" fill-opacity="1" d="M 32.421875 2.941406 C 28.25 2.867188 24.109375 3.691406 20.285156 5.359375 C 5.558594 11.78125 -1.179688 28.925781 5.238281 43.660156 C 10.675781 56.039062 23.917969 63.046875 37.210938 60.574219 C 37.777344 58.765625 38.238281 56.789062 38.238281 54.628906 C 38.238281 54.320312 38.234375 54.011719 38.214844 53.695312 C 38.214844 53.695312 39.253906 51.925781 40.074219 49.613281 C 41.089844 46.757812 40.550781 43.613281 38.796875 41.125 C 38.691406 40.988281 38.589844 40.835938 38.476562 40.679688 C 28.136719 40.679688 23.023438 31.300781 21.726562 25.597656 C 21.191406 23.253906 20.753906 23.023438 19.289062 23.023438 C 16.582031 23.023438 14.628906 21.898438 14.628906 21.898438 C 12.140625 23.035156 11.027344 22.574219 11.363281 21.386719 C 10.28125 21.265625 10.300781 20.035156 10.960938 18.90625 C 11.785156 17.488281 13.472656 16.527344 15.496094 16.527344 L 16.578125 16.527344 C 18.8125 16.527344 19.273438 15.359375 21.574219 15.609375 C 21.929688 15.640625 22.265625 15.699219 22.574219 15.777344 C 23.210938 15.046875 23.933594 14.738281 24.8125 14.796875 C 24.875 14.804688 24.933594 14.835938 24.96875 14.886719 C 25.007812 14.9375 25.023438 15 25.011719 15.0625 L 24.796875 16.050781 C 24.71875 16.417969 24.820312 16.800781 25.085938 17.050781 C 26.945312 18.785156 28.011719 21.753906 29.203125 24.429688 C 31.136719 28.378906 35.808594 33.859375 43.304688 26.828125 C 48.574219 21.882812 51.757812 17.757812 56.988281 17.351562 C 51.871094 8.59375 42.5625 3.132812 32.421875 2.941406 M 20.066406 17.257812 C 19.296875 17.257812 18.53125 17.871094 18.789062 17.984375 C 18.847656 18.007812 18.949219 18.023438 19.0625 18.039062 C 19.140625 18.527344 19.554688 18.90625 20.070312 18.90625 C 20.582031 18.90625 20.988281 18.527344 21.070312 18.035156 C 21.179688 18.023438 21.28125 18.007812 21.339844 17.984375 C 21.597656 17.871094 20.832031 17.257812 20.066406 17.257812 M 47.246094 45.234375 C 46.625 45.246094 46.066406 45.640625 45.878906 46.246094 L 45.878906 46.257812 C 44.949219 49.238281 43.140625 53.09375 43.140625 53.09375 C 43.140625 53.09375 41.34375 56.277344 40.324219 59.84375 C 41.417969 59.527344 42.492188 59.148438 43.539062 58.707031 C 45.589844 57.8125 47.53125 56.679688 49.324219 55.339844 C 49.03125 54.75 48.707031 54.179688 48.355469 53.628906 C 48.355469 53.628906 47.757812 50.976562 46.617188 48.089844 C 46.796875 47.59375 46.957031 47.109375 47.101562 46.636719 L 47.113281 46.601562 C 47.144531 46.535156 47.21875 46.511719 47.304688 46.511719 L 47.316406 46.511719 C 47.910156 46.601562 48.542969 46.699219 49.277344 46.78125 C 49.496094 46.800781 49.726562 46.816406 49.957031 46.84375 C 50.238281 46.867188 50.511719 46.894531 50.792969 46.910156 C 50.863281 49.59375 52.027344 52.15625 52.316406 52.769531 C 54.464844 50.65625 56.273438 48.222656 57.671875 45.554688 C 55.597656 45.789062 53.066406 45.871094 50.082031 45.574219 C 49.84375 45.546875 49.605469 45.523438 49.363281 45.503906 C 48.746094 45.433594 48.128906 45.347656 47.515625 45.25 C 47.425781 45.234375 47.335938 45.230469 47.246094 45.234375 M 47.246094 45.234375 "/>
</svg>
