<?xml version="1.0" encoding="UTF-8"?>
<svg xmlns="http://www.w3.org/2000/svg" xmlns:xlink="http://www.w3.org/1999/xlink" width="2000" height="2000" viewBox="0 0 2000 2000">
<path fill-rule="nonzero" fill="rgb(0%, 45.098039%, 63.137255%)" fill-opacity="1" d="M 2000 1000 C 2000 1552.3125 1552.3125 2000 1000 2000 C 447.6875 2000 0 1552.3125 0 1000 C 0 447.6875 447.6875 0 1000 0 C 1552.3125 0 2000 447.6875 2000 1000 M 2000 1000 "/>
<path fill-rule="nonzero" fill="rgb(0%, 45.098039%, 63.137255%)" fill-opacity="1" d="M 1905.15625 1000 C 1905.15625 1499.875 1499.875 1905.15625 1000 1905.15625 C 500.125 1905.15625 94.84375 1499.875 94.84375 1000 C 94.84375 500.125 500.125 94.84375 1000 94.84375 C 1499.875 94.84375 1905.15625 500.125 1905.15625 1000 M 1905.15625 1000 "/>
<path fill-rule="nonzero" fill="rgb(100%, 100%, 100%)" fill-opacity="1" d="M 1013.125 91.859375 C 882.78125 89.597656 753.472656 115.390625 633.96875 167.484375 C 173.65625 368.171875 -36.921875 903.984375 163.75 1364.375 C 333.5625 1751.28125 747.4375 1970.21875 1162.78125 1892.890625 C 1180.484375 1836.484375 1195 1774.609375 1195 1707.09375 C 1195 1697.515625 1194.765625 1687.921875 1194.21875 1678.03125 C 1194.21875 1678.03125 1226.6875 1622.625 1252.3125 1550.421875 C 1284 1461.1875 1267.21875 1362.859375 1212.34375 1285.109375 C 1209.109375 1280.828125 1205.9375 1276.0625 1202.453125 1271.234375 C 879.328125 1271.234375 719.484375 978.203125 678.953125 799.984375 C 662.171875 726.6875 648.5625 719.421875 602.84375 719.421875 C 518.1875 719.421875 457.09375 684.328125 457.09375 684.328125 C 379.390625 719.90625 344.59375 705.4375 355.046875 668.28125 C 321.234375 664.546875 321.90625 626.09375 342.53125 590.8125 C 368.34375 546.5625 421.078125 516.484375 484.25 516.484375 L 518.0625 516.484375 C 587.890625 516.484375 602.234375 479.984375 674.1875 487.734375 C 685.359375 488.828125 695.75 490.65625 705.390625 493.046875 C 725.34375 470.15625 747.984375 460.578125 775.390625 462.40625 C 777.355469 462.589844 779.148438 463.597656 780.324219 465.179688 C 781.503906 466.761719 781.953125 468.769531 781.5625 470.703125 L 774.90625 501.59375 C 772.453125 513.0625 775.6875 525.03125 783.9375 532.78125 C 842.046875 587.09375 875.3125 679.8125 912.59375 763.484375 C 973.078125 886.84375 1119.078125 1058.109375 1353.265625 838.328125 C 1517.953125 683.78125 1617.375 554.9375 1780.890625 542.296875 C 1620.992188 268.574219 1330.070312 97.894531 1013.125 91.859375 M 627.015625 539.25 C 603.03125 539.25 579.109375 558.46875 587.21875 561.953125 C 589.046875 562.734375 592.15625 563.234375 595.703125 563.671875 C 598.203125 578.984375 611.078125 590.8125 627.140625 590.8125 C 643.1875 590.8125 655.890625 578.984375 658.390625 563.59375 C 661.921875 563.234375 664.984375 562.75 666.8125 561.953125 C 674.9375 558.46875 651 539.25 627.015625 539.25 M 1476.4375 1413.515625 C 1457.03125 1413.9375 1439.5625 1426.328125 1433.71875 1445.1875 L 1433.71875 1445.5 C 1404.65625 1538.703125 1348.203125 1659.125 1348.203125 1659.125 C 1348.203125 1659.125 1292 1758.65625 1260.1875 1870.125 C 1294.34375 1860.261719 1327.894531 1848.398438 1360.65625 1834.59375 C 1424.742188 1806.589844 1485.367188 1771.261719 1541.328125 1729.3125 C 1532.207031 1710.988281 1522.121094 1693.160156 1511.109375 1675.90625 C 1511.109375 1675.90625 1492.4375 1593.078125 1456.734375 1502.75 C 1462.34375 1487.296875 1467.40625 1472.109375 1471.921875 1457.453125 L 1472.234375 1456.359375 C 1473.265625 1454.28125 1475.640625 1453.4375 1478.328125 1453.4375 L 1478.578125 1453.4375 C 1497.25 1456.359375 1516.96875 1459.34375 1539.859375 1461.96875 C 1546.8125 1462.53125 1553.953125 1463.0625 1561.15625 1463.859375 C 1569.953125 1464.65625 1578.5 1465.453125 1587.28125 1466 C 1589.421875 1549.8125 1625.796875 1629.890625 1634.9375 1649.046875 C 1702.042969 1583.003906 1758.488281 1506.941406 1802.25 1423.578125 C 1737.484375 1430.96875 1658.265625 1433.46875 1565.0625 1424.140625 C 1557.605469 1423.308594 1550.136719 1422.59375 1542.65625 1422 C 1523.335938 1419.78125 1504.0625 1417.136719 1484.859375 1414.0625 C 1482.074219 1413.628906 1479.253906 1413.445312 1476.4375 1413.515625 M 1476.4375 1413.515625 "/>
</svg>
