<?xml version="1.0" encoding="UTF-8"?>
<svg xmlns="http://www.w3.org/2000/svg" xmlns:xlink="http://www.w3.org/1999/xlink" width="2500" height="2500" viewBox="0 0 2500 2500">
<path fill-rule="nonzero" fill="rgb(0%, 45.098039%, 63.137255%)" fill-opacity="1" d="M 2500 1250 C 2500 1940.390625 1940.390625 2500 1250 2500 C 559.609375 2500 0 1940.390625 0 1250 C 0 559.609375 559.609375 0 1250 0 C 1940.390625 0 2500 559.609375 2500 1250 M 2500 1250 "/>
<path fill-rule="nonzero" fill="rgb(0%, 45.098039%, 63.137255%)" fill-opacity="1" d="M 2381.445312 1250 C 2381.445312 1874.84375 1874.84375 2381.445312 1250 2381.445312 C 625.15625 2381.445312 118.554688 1874.84375 118.554688 1250 C 118.554688 625.15625 625.15625 118.554688 1250 118.554688 C 1874.84375 118.554688 2381.445312 625.15625 2381.445312 1250 M 2381.445312 1250 "/>
<path fill-rule="nonzero" fill="rgb(100%, 100%, 100%)" fill-opacity="1" d="M 1266.40625 114.824219 C 1103.476562 112 941.839844 144.238281 792.460938 209.355469 C 217.070312 460.214844 -46.152344 1129.980469 204.6875 1705.46875 C 416.953125 2189.101562 934.296875 2462.773438 1453.476562 2366.113281 C 1475.605469 2295.605469 1493.75 2218.261719 1493.75 2133.867188 C 1493.75 2121.894531 1493.457031 2109.902344 1492.773438 2097.539062 C 1492.773438 2097.539062 1533.359375 2028.28125 1565.390625 1938.027344 C 1605 1826.484375 1584.023438 1703.574219 1515.429688 1606.386719 C 1511.386719 1601.035156 1507.421875 1595.078125 1503.066406 1589.042969 C 1099.160156 1589.042969 899.355469 1222.753906 848.691406 999.980469 C 827.714844 908.359375 810.703125 899.277344 753.554688 899.277344 C 647.734375 899.277344 571.367188 855.410156 571.367188 855.410156 C 474.238281 899.882812 430.742188 881.796875 443.808594 835.351562 C 401.542969 830.683594 402.382812 782.617188 428.164062 738.515625 C 460.429688 683.203125 526.347656 645.605469 605.3125 645.605469 L 647.578125 645.605469 C 734.863281 645.605469 752.792969 599.980469 842.734375 609.667969 C 856.699219 611.035156 869.6875 613.320312 881.738281 616.308594 C 906.679688 587.695312 934.980469 575.722656 969.238281 578.007812 C 971.691406 578.234375 973.933594 579.496094 975.40625 581.472656 C 976.878906 583.453125 977.441406 585.960938 976.953125 588.378906 L 968.632812 626.992188 C 965.566406 641.328125 969.609375 656.289062 979.921875 665.976562 C 1052.558594 733.867188 1094.140625 849.765625 1140.742188 954.355469 C 1216.347656 1108.554688 1398.847656 1322.636719 1691.582031 1047.910156 C 1897.441406 854.726562 2021.71875 693.671875 2226.113281 677.871094 C 2026.238281 335.71875 1662.589844 122.371094 1266.40625 114.824219 M 783.769531 674.0625 C 753.789062 674.0625 723.886719 698.085938 734.023438 702.441406 C 736.308594 703.417969 740.195312 704.042969 744.628906 704.589844 C 747.753906 723.730469 763.847656 738.515625 783.925781 738.515625 C 803.984375 738.515625 819.863281 723.730469 822.988281 704.492188 C 827.402344 704.042969 831.230469 703.4375 833.515625 702.441406 C 843.671875 698.085938 813.75 674.0625 783.769531 674.0625 M 1845.546875 1766.894531 C 1821.289062 1767.421875 1799.453125 1782.910156 1792.148438 1806.484375 L 1792.148438 1806.875 C 1755.820312 1923.378906 1685.253906 2073.90625 1685.253906 2073.90625 C 1685.253906 2073.90625 1615 2198.320312 1575.234375 2337.65625 C 1617.929688 2325.328125 1659.867188 2310.496094 1700.820312 2293.242188 C 1780.925781 2258.234375 1856.710938 2214.074219 1926.660156 2161.640625 C 1915.257812 2138.734375 1902.652344 2116.449219 1888.886719 2094.882812 C 1888.886719 2094.882812 1865.546875 1991.347656 1820.917969 1878.4375 C 1827.929688 1859.121094 1834.257812 1840.136719 1839.902344 1821.816406 L 1840.292969 1820.449219 C 1841.582031 1817.851562 1844.550781 1816.796875 1847.910156 1816.796875 L 1848.222656 1816.796875 C 1871.5625 1820.449219 1896.210938 1824.179688 1924.824219 1827.460938 C 1933.515625 1828.164062 1942.441406 1828.828125 1951.445312 1829.824219 C 1962.441406 1830.820312 1973.125 1831.816406 1984.101562 1832.5 C 1986.777344 1937.265625 2032.246094 2037.363281 2043.671875 2061.308594 C 2127.554688 1978.757812 2198.109375 1883.679688 2252.8125 1779.472656 C 2171.855469 1788.710938 2072.832031 1791.835938 1956.328125 1780.175781 C 1947.007812 1779.132812 1937.671875 1778.242188 1928.320312 1777.5 C 1904.167969 1774.726562 1880.078125 1771.421875 1856.074219 1767.578125 C 1852.59375 1767.035156 1849.070312 1766.804688 1845.546875 1766.894531 M 1845.546875 1766.894531 "/>
</svg>
