<?xml version="1.0" encoding="UTF-8"?>
<svg xmlns="http://www.w3.org/2000/svg" xmlns:xlink="http://www.w3.org/1999/xlink" width="32" height="32" viewBox="0 0 32 32">
<path fill-rule="nonzero" fill="rgb(0%, 45.098039%, 63.137255%)" fill-opacity="1" d="M 32 16 C 32 24.835938 24.835938 32 16 32 C 7.164062 32 0 24.835938 0 16 C 0 7.164062 7.164062 0 16 0 C 24.835938 0 32 7.164062 32 16 M 32 16 "/>
<path fill-rule="nonzero" fill="rgb(0%, 45.098039%, 63.137255%)" fill-opacity="1" d="M 30.484375 16 C 30.484375 23.996094 23.996094 30.484375 16 30.484375 C 8.003906 30.484375 1.515625 23.996094 1.515625 16 C 1.515625 8.003906 8.003906 1.515625 16 1.515625 C 23.996094 1.515625 30.484375 8.003906 30.484375 16 M 30.484375 16 "/>
<path fill-rule="nonzero" fill="rgb(100%, 100%, 100%)" fill-opacity="1" d="M 16.210938 1.46875 C 14.125 1.433594 12.054688 1.847656 10.144531 2.679688 C 2.777344 5.890625 -0.589844 14.464844 2.621094 21.828125 C 5.335938 28.019531 11.960938 31.523438 18.605469 30.285156 C 18.886719 29.382812 19.121094 28.394531 19.121094 27.3125 C 19.121094 27.160156 19.117188 27.007812 19.109375 26.847656 C 19.109375 26.847656 19.628906 25.960938 20.035156 24.808594 C 20.542969 23.378906 20.277344 21.804688 19.398438 20.5625 C 19.347656 20.492188 19.296875 20.417969 19.238281 20.339844 C 14.070312 20.339844 11.511719 15.652344 10.863281 12.800781 C 10.59375 11.628906 10.378906 11.511719 9.644531 11.511719 C 8.289062 11.511719 7.3125 10.949219 7.3125 10.949219 C 6.070312 11.519531 5.511719 11.285156 5.679688 10.691406 C 5.140625 10.632812 5.152344 10.015625 5.480469 9.453125 C 5.894531 8.746094 6.738281 8.265625 7.746094 8.265625 L 8.289062 8.265625 C 9.40625 8.265625 9.636719 7.679688 10.785156 7.804688 C 10.964844 7.820312 11.132812 7.851562 11.285156 7.890625 C 11.605469 7.523438 11.96875 7.371094 12.40625 7.398438 C 12.4375 7.402344 12.464844 7.417969 12.484375 7.441406 C 12.503906 7.46875 12.511719 7.5 12.503906 7.53125 L 12.398438 8.027344 C 12.359375 8.210938 12.410156 8.402344 12.542969 8.523438 C 13.472656 9.394531 14.003906 10.878906 14.601562 12.214844 C 15.570312 14.191406 17.90625 16.929688 21.652344 13.414062 C 24.289062 10.941406 25.878906 8.878906 28.496094 8.675781 C 25.9375 4.296875 21.28125 1.566406 16.210938 1.46875 M 10.03125 8.628906 C 9.648438 8.628906 9.265625 8.933594 9.394531 8.992188 C 9.425781 9.003906 9.472656 9.011719 9.53125 9.019531 C 9.570312 9.265625 9.777344 9.453125 10.035156 9.453125 C 10.289062 9.453125 10.496094 9.265625 10.535156 9.015625 C 10.589844 9.011719 10.640625 9.003906 10.667969 8.992188 C 10.800781 8.933594 10.414062 8.628906 10.03125 8.628906 M 23.621094 22.617188 C 23.3125 22.621094 23.03125 22.820312 22.941406 23.121094 L 22.941406 23.128906 C 22.472656 24.621094 21.570312 26.546875 21.570312 26.546875 C 21.570312 26.546875 20.671875 28.136719 20.164062 29.921875 C 20.710938 29.765625 21.246094 29.574219 21.769531 29.351562 C 22.796875 28.90625 23.765625 28.339844 24.660156 27.667969 C 24.515625 27.375 24.355469 27.089844 24.179688 26.816406 C 24.179688 26.816406 23.878906 25.488281 23.308594 24.042969 C 23.398438 23.796875 23.476562 23.554688 23.550781 23.320312 L 23.554688 23.300781 C 23.570312 23.269531 23.609375 23.253906 23.652344 23.253906 L 23.65625 23.253906 C 23.957031 23.300781 24.273438 23.347656 24.636719 23.390625 C 24.75 23.402344 24.863281 23.410156 24.976562 23.421875 C 25.121094 23.433594 25.257812 23.445312 25.398438 23.457031 C 25.429688 24.796875 26.011719 26.078125 26.160156 26.382812 C 27.234375 25.328125 28.136719 24.109375 28.835938 22.777344 C 27.800781 22.894531 26.53125 22.933594 25.039062 22.785156 C 24.921875 22.773438 24.800781 22.761719 24.683594 22.753906 C 24.375 22.714844 24.066406 22.675781 23.757812 22.625 C 23.714844 22.617188 23.667969 22.613281 23.621094 22.617188 M 23.621094 22.617188 "/>
</svg>
