<?xml version="1.0" encoding="UTF-8"?>
<svg xmlns="http://www.w3.org/2000/svg" xmlns:xlink="http://www.w3.org/1999/xlink" width="1000" height="1000" viewBox="0 0 1000 1000">
<path fill-rule="nonzero" fill="rgb(0%, 45.098039%, 63.137255%)" fill-opacity="1" d="M 1000 500 C 1000 776.15625 776.15625 1000 500 1000 C 223.84375 1000 0 776.15625 0 500 C 0 223.84375 223.84375 0 500 0 C 776.15625 0 1000 223.84375 1000 500 M 1000 500 "/>
<path fill-rule="nonzero" fill="rgb(0%, 45.098039%, 63.137255%)" fill-opacity="1" d="M 952.578125 500 C 952.578125 749.9375 749.9375 952.578125 500 952.578125 C 250.0625 952.578125 47.421875 749.9375 47.421875 500 C 47.421875 250.0625 250.0625 47.421875 500 47.421875 C 749.9375 47.421875 952.578125 250.0625 952.578125 500 M 952.578125 500 "/>
<path fill-rule="nonzero" fill="rgb(100%, 100%, 100%)" fill-opacity="1" d="M 506.5625 45.929688 C 441.390625 44.800781 376.734375 57.695312 316.984375 83.742188 C 86.828125 184.085938 -18.460938 451.992188 81.875 682.1875 C 166.78125 875.640625 373.71875 985.109375 581.390625 946.445312 C 590.242188 918.242188 597.5 887.304688 597.5 853.546875 C 597.5 848.757812 597.382812 843.960938 597.109375 839.015625 C 597.109375 839.015625 613.34375 811.3125 626.15625 775.210938 C 642 730.59375 633.609375 681.429688 606.171875 642.554688 C 604.554688 640.414062 602.96875 638.03125 601.226562 635.617188 C 439.664062 635.617188 359.742188 489.101562 339.476562 399.992188 C 331.085938 363.34375 324.28125 359.710938 301.421875 359.710938 C 259.09375 359.710938 228.546875 342.164062 228.546875 342.164062 C 189.695312 359.953125 172.296875 352.71875 177.523438 334.140625 C 160.617188 332.273438 160.953125 313.046875 171.265625 295.40625 C 184.171875 273.28125 210.539062 258.242188 242.125 258.242188 L 259.03125 258.242188 C 293.945312 258.242188 301.117188 239.992188 337.09375 243.867188 C 342.679688 244.414062 347.875 245.328125 352.695312 246.523438 C 362.671875 235.078125 373.992188 230.289062 387.695312 231.203125 C 388.675781 231.292969 389.574219 231.796875 390.164062 232.589844 C 390.75 233.382812 390.976562 234.386719 390.78125 235.351562 L 387.453125 250.796875 C 386.226562 256.53125 387.84375 262.515625 391.96875 266.390625 C 421.023438 293.546875 437.65625 339.90625 456.296875 381.742188 C 486.539062 443.421875 559.539062 529.054688 676.632812 419.164062 C 758.976562 341.890625 808.6875 277.46875 890.445312 271.148438 C 810.496094 134.289062 665.035156 48.949219 506.5625 45.929688 M 313.507812 269.625 C 301.515625 269.625 289.554688 279.234375 293.609375 280.976562 C 294.523438 281.367188 296.078125 281.617188 297.851562 281.835938 C 299.101562 289.492188 305.539062 295.40625 313.570312 295.40625 C 321.59375 295.40625 327.945312 289.492188 329.195312 281.796875 C 330.960938 281.617188 332.492188 281.375 333.40625 280.976562 C 337.46875 279.234375 325.5 269.625 313.507812 269.625 M 738.21875 706.757812 C 728.515625 706.96875 719.78125 713.164062 716.859375 722.59375 L 716.859375 722.75 C 702.328125 769.351562 674.101562 829.5625 674.101562 829.5625 C 674.101562 829.5625 646 879.328125 630.09375 935.0625 C 647.171875 930.132812 663.945312 924.199219 680.328125 917.296875 C 712.371094 903.292969 742.683594 885.628906 770.664062 864.65625 C 766.105469 855.492188 761.058594 846.582031 755.554688 837.953125 C 755.554688 837.953125 746.21875 796.539062 728.367188 751.375 C 731.171875 743.648438 733.703125 736.054688 735.960938 728.726562 L 736.117188 728.179688 C 736.632812 727.140625 737.820312 726.71875 739.164062 726.71875 L 739.289062 726.71875 C 748.625 728.179688 758.484375 729.671875 769.929688 730.984375 C 773.40625 731.265625 776.976562 731.53125 780.578125 731.929688 C 784.976562 732.328125 789.25 732.726562 793.640625 733 C 794.710938 774.90625 812.898438 814.945312 817.46875 824.523438 C 851.023438 791.503906 879.242188 753.472656 901.125 711.789062 C 868.742188 715.484375 829.132812 716.734375 782.53125 712.070312 C 778.804688 711.652344 775.066406 711.296875 771.328125 711 C 761.667969 709.890625 752.03125 708.566406 742.429688 707.03125 C 741.039062 706.8125 739.628906 706.722656 738.21875 706.757812 M 738.21875 706.757812 "/>
</svg>
