<?xml version="1.0" encoding="UTF-8"?>
<svg xmlns="http://www.w3.org/2000/svg" xmlns:xlink="http://www.w3.org/1999/xlink" width="3000" height="3000" viewBox="0 0 3000 3000">
<path fill-rule="nonzero" fill="rgb(0%, 45.098039%, 63.137255%)" fill-opacity="1" d="M 3000 1500 C 3000 2328.46875 2328.46875 3000 1500 3000 C 671.53125 3000 0 2328.46875 0 1500 C 0 671.53125 671.53125 0 1500 0 C 2328.46875 0 3000 671.53125 3000 1500 M 3000 1500 "/>
<path fill-rule="nonzero" fill="rgb(0%, 45.098039%, 63.137255%)" fill-opacity="1" d="M 2857.734375 1500 C 2857.734375 2249.8125 2249.8125 2857.734375 1500 2857.734375 C 750.1875 2857.734375 142.265625 2249.8125 142.265625 1500 C 142.265625 750.1875 750.1875 142.265625 1500 142.265625 C 2249.8125 142.265625 2857.734375 750.1875 2857.734375 1500 M 2857.734375 1500 "/>
<path fill-rule="nonzero" fill="rgb(100%, 100%, 100%)" fill-opacity="1" d="M 1519.6875 137.789062 C 1324.167969 134.398438 1130.207031 173.085938 950.953125 251.226562 C 260.484375 552.257812 -55.382812 1355.976562 245.625 2046.5625 C 500.34375 2626.921875 1121.15625 2955.328125 1744.171875 2839.335938 C 1770.726562 2754.726562 1792.5 2661.914062 1792.5 2560.640625 C 1792.5 2546.273438 1792.148438 2531.882812 1791.328125 2517.046875 C 1791.328125 2517.046875 1840.03125 2433.9375 1878.46875 2325.632812 C 1926 2191.78125 1900.828125 2044.289062 1818.515625 1927.664062 C 1813.664062 1921.242188 1808.90625 1914.09375 1803.679688 1906.851562 C 1318.992188 1906.851562 1079.226562 1467.304688 1018.429688 1199.976562 C 993.257812 1090.03125 972.84375 1079.132812 904.265625 1079.132812 C 777.28125 1079.132812 685.640625 1026.492188 685.640625 1026.492188 C 569.085938 1079.859375 516.890625 1058.15625 532.570312 1002.421875 C 481.851562 996.820312 482.859375 939.140625 513.796875 886.21875 C 552.515625 819.84375 631.617188 774.726562 726.375 774.726562 L 777.09375 774.726562 C 881.835938 774.726562 903.351562 719.976562 1011.28125 731.601562 C 1028.039062 733.242188 1043.625 735.984375 1058.085938 739.570312 C 1088.015625 705.234375 1121.976562 690.867188 1163.085938 693.609375 C 1166.03125 693.882812 1168.722656 695.394531 1170.488281 697.769531 C 1172.253906 700.144531 1172.929688 703.15625 1172.34375 706.054688 L 1162.359375 752.390625 C 1158.679688 769.59375 1163.53125 787.546875 1175.90625 799.171875 C 1263.070312 880.640625 1312.96875 1019.71875 1368.890625 1145.226562 C 1459.617188 1330.265625 1678.617188 1587.164062 2029.898438 1257.492188 C 2276.929688 1025.671875 2426.0625 832.40625 2671.335938 813.445312 C 2431.488281 402.863281 1995.105469 146.84375 1519.6875 137.789062 M 940.523438 808.875 C 904.546875 808.875 868.664062 837.703125 880.828125 842.929688 C 883.570312 844.101562 888.234375 844.851562 893.554688 845.507812 C 897.304688 868.476562 916.617188 886.21875 940.710938 886.21875 C 964.78125 886.21875 983.835938 868.476562 987.585938 845.390625 C 992.882812 844.851562 997.476562 844.125 1000.21875 842.929688 C 1012.40625 837.703125 976.5 808.875 940.523438 808.875 M 2214.65625 2120.273438 C 2185.546875 2120.90625 2159.34375 2139.492188 2150.578125 2167.78125 L 2150.578125 2168.25 C 2106.984375 2308.054688 2022.304688 2488.6875 2022.304688 2488.6875 C 2022.304688 2488.6875 1938 2637.984375 1890.28125 2805.1875 C 1941.515625 2790.394531 1991.839844 2772.597656 2040.984375 2751.890625 C 2137.109375 2709.882812 2228.050781 2656.890625 2311.992188 2593.96875 C 2298.3125 2566.480469 2283.179688 2539.742188 2266.664062 2513.859375 C 2266.664062 2513.859375 2238.65625 2389.617188 2185.101562 2254.125 C 2193.515625 2230.945312 2201.109375 2208.164062 2207.882812 2186.179688 L 2208.351562 2184.539062 C 2209.898438 2181.421875 2213.460938 2180.15625 2217.492188 2180.15625 L 2217.867188 2180.15625 C 2245.875 2184.539062 2275.453125 2189.015625 2309.789062 2192.953125 C 2320.21875 2193.796875 2330.929688 2194.59375 2341.734375 2195.789062 C 2354.929688 2196.984375 2367.75 2198.179688 2380.921875 2199 C 2384.132812 2324.71875 2438.695312 2444.835938 2452.40625 2473.570312 C 2553.066406 2374.507812 2637.730469 2260.414062 2703.375 2135.367188 C 2606.226562 2146.453125 2487.398438 2150.203125 2347.59375 2136.210938 C 2336.410156 2134.960938 2325.203125 2133.890625 2313.984375 2133 C 2285 2129.675781 2256.097656 2125.703125 2227.289062 2121.09375 C 2223.113281 2120.441406 2218.882812 2120.167969 2214.65625 2120.273438 M 2214.65625 2120.273438 "/>
</svg>
