<?xml version="1.0" encoding="UTF-8"?>
<svg xmlns="http://www.w3.org/2000/svg" xmlns:xlink="http://www.w3.org/1999/xlink" width="2750" height="2750" viewBox="0 0 2750 2750">
<path fill-rule="nonzero" fill="rgb(0%, 45.098039%, 63.137255%)" fill-opacity="1" d="M 2750 1375 C 2750 2134.429688 2134.429688 2750 1375 2750 C 615.570312 2750 0 2134.429688 0 1375 C 0 615.570312 615.570312 0 1375 0 C 2134.429688 0 2750 615.570312 2750 1375 M 2750 1375 "/>
<path fill-rule="nonzero" fill="rgb(0%, 45.098039%, 63.137255%)" fill-opacity="1" d="M 2619.589844 1375 C 2619.589844 2062.328125 2062.328125 2619.589844 1375 2619.589844 C 687.671875 2619.589844 130.410156 2062.328125 130.410156 1375 C 130.410156 687.671875 687.671875 130.410156 1375 130.410156 C 2062.328125 130.410156 2619.589844 687.671875 2619.589844 1375 M 2619.589844 1375 "/>
<path fill-rule="nonzero" fill="rgb(100%, 100%, 100%)" fill-opacity="1" d="M 1393.046875 126.304688 C 1213.824219 123.199219 1036.023438 158.660156 871.707031 230.292969 C 238.777344 506.234375 -50.765625 1242.976562 225.15625 1876.015625 C 458.648438 2408.011719 1027.726562 2709.050781 1598.824219 2602.726562 C 1623.164062 2525.164062 1643.125 2440.085938 1643.125 2347.253906 C 1643.125 2334.085938 1642.804688 2320.890625 1642.050781 2307.292969 C 1642.050781 2307.292969 1686.695312 2231.109375 1721.929688 2131.828125 C 1765.5 2009.132812 1742.425781 1873.929688 1666.972656 1767.023438 C 1662.527344 1761.136719 1658.164062 1754.585938 1653.375 1747.945312 C 1209.078125 1747.945312 989.292969 1345.027344 933.5625 1099.976562 C 910.488281 999.195312 891.773438 989.203125 828.910156 989.203125 C 712.507812 989.203125 628.503906 940.949219 628.503906 940.949219 C 521.664062 989.871094 473.816406 969.976562 488.191406 918.886719 C 441.699219 913.75 442.621094 860.878906 470.980469 812.367188 C 506.472656 751.523438 578.984375 710.164062 665.84375 710.164062 L 712.335938 710.164062 C 808.351562 710.164062 828.074219 659.976562 927.007812 670.632812 C 942.371094 672.136719 956.65625 674.652344 969.914062 677.9375 C 997.347656 646.464844 1028.480469 633.292969 1066.164062 635.808594 C 1068.863281 636.058594 1071.328125 637.445312 1072.945312 639.621094 C 1074.566406 641.796875 1075.183594 644.558594 1074.648438 647.214844 L 1065.496094 689.691406 C 1062.125 705.460938 1066.570312 721.917969 1077.914062 732.574219 C 1157.816406 807.253906 1203.554688 934.742188 1254.816406 1049.789062 C 1337.984375 1219.410156 1538.734375 1454.898438 1860.742188 1152.699219 C 2087.1875 940.199219 2223.890625 763.039062 2448.726562 745.65625 C 2228.863281 369.289062 1828.847656 134.605469 1393.046875 126.308594 M 862.148438 741.46875 C 829.167969 741.46875 796.273438 767.894531 807.425781 772.6875 C 809.9375 773.757812 814.214844 774.449219 819.09375 775.050781 C 822.527344 796.101562 840.234375 812.367188 862.320312 812.367188 C 884.382812 812.367188 901.851562 796.105469 905.289062 774.941406 C 910.140625 774.449219 914.351562 773.78125 916.867188 772.6875 C 928.039062 767.894531 895.125 741.46875 862.148438 741.46875 M 2030.101562 1943.585938 C 2003.417969 1944.164062 1979.398438 1961.203125 1971.363281 1987.132812 L 1971.363281 1987.5625 C 1931.402344 2115.71875 1853.78125 2281.296875 1853.78125 2281.296875 C 1853.78125 2281.296875 1776.5 2418.152344 1732.757812 2571.421875 C 1779.722656 2557.859375 1825.851562 2541.546875 1870.902344 2522.566406 C 1959.019531 2484.058594 2042.382812 2435.484375 2119.328125 2377.804688 C 2106.785156 2352.609375 2092.914062 2328.097656 2077.777344 2304.371094 C 2077.777344 2304.371094 2052.101562 2190.484375 2003.011719 2066.28125 C 2010.722656 2045.03125 2017.683594 2024.148438 2023.894531 2003.996094 L 2024.324219 2002.492188 C 2025.742188 1999.636719 2029.007812 1998.476562 2032.703125 1998.476562 L 2033.046875 1998.476562 C 2058.71875 2002.492188 2085.832031 2006.597656 2117.308594 2010.207031 C 2126.867188 2010.980469 2136.6875 2011.710938 2146.589844 2012.804688 C 2158.6875 2013.902344 2170.4375 2015 2182.511719 2015.75 C 2185.457031 2130.992188 2235.472656 2241.101562 2248.039062 2267.4375 C 2340.3125 2176.632812 2417.921875 2072.046875 2478.09375 1957.421875 C 2389.042969 1967.582031 2280.117188 1971.019531 2151.960938 1958.195312 C 2141.707031 1957.046875 2131.4375 1956.066406 2121.152344 1955.25 C 2094.585938 1952.203125 2068.085938 1948.5625 2041.683594 1944.335938 C 2037.851562 1943.738281 2033.976562 1943.484375 2030.101562 1943.585938 M 2030.101562 1943.585938 "/>
</svg>
