<?xml version="1.0" encoding="UTF-8"?>
<svg xmlns="http://www.w3.org/2000/svg" xmlns:xlink="http://www.w3.org/1999/xlink" width="300" height="300" viewBox="0 0 300 300">
<path fill-rule="nonzero" fill="rgb(0%, 45.098039%, 63.137255%)" fill-opacity="1" d="M 300 150 C 300 232.847656 232.847656 300 150 300 C 67.152344 300 0 232.847656 0 150 C 0 67.152344 67.152344 0 150 0 C 232.847656 0 300 67.152344 300 150 M 300 150 "/>
<path fill-rule="nonzero" fill="rgb(0%, 45.098039%, 63.137255%)" fill-opacity="1" d="M 285.773438 150 C 285.773438 224.980469 224.980469 285.773438 150 285.773438 C 75.019531 285.773438 14.226562 224.980469 14.226562 150 C 14.226562 75.019531 75.019531 14.226562 150 14.226562 C 224.980469 14.226562 285.773438 75.019531 285.773438 150 M 285.773438 150 "/>
<path fill-rule="nonzero" fill="rgb(100%, 100%, 100%)" fill-opacity="1" d="M 151.96875 13.777344 C 132.417969 13.441406 113.019531 17.308594 95.09375 25.121094 C 26.046875 55.226562 -5.539062 135.597656 24.5625 204.65625 C 50.035156 262.691406 112.117188 295.53125 174.417969 283.933594 C 177.074219 275.472656 179.25 266.191406 179.25 256.0625 C 179.25 254.628906 179.214844 253.1875 179.132812 251.703125 C 179.132812 251.703125 184.003906 243.394531 187.847656 232.5625 C 192.601562 219.179688 190.082031 204.429688 181.851562 192.765625 C 181.367188 192.125 180.890625 191.410156 180.367188 190.683594 C 131.898438 190.683594 107.921875 146.730469 101.84375 119.996094 C 99.324219 109.003906 97.285156 107.914062 90.425781 107.914062 C 77.726562 107.914062 68.5625 102.648438 68.5625 102.648438 C 56.910156 107.984375 51.6875 105.816406 53.257812 100.242188 C 48.183594 99.683594 48.285156 93.914062 51.378906 88.621094 C 55.25 81.984375 63.160156 77.472656 72.636719 77.472656 L 77.710938 77.472656 C 88.183594 77.472656 90.335938 71.996094 101.128906 73.160156 C 102.804688 73.324219 104.363281 73.597656 105.808594 73.957031 C 108.800781 70.523438 112.199219 69.085938 116.308594 69.359375 C 116.601562 69.386719 116.871094 69.539062 117.046875 69.777344 C 117.226562 70.015625 117.292969 70.316406 117.234375 70.605469 L 116.234375 75.238281 C 115.867188 76.960938 116.351562 78.753906 117.589844 79.917969 C 126.308594 88.0625 131.296875 101.972656 136.890625 114.523438 C 145.960938 133.027344 167.863281 158.714844 202.988281 125.75 C 227.691406 102.566406 242.605469 83.242188 267.132812 81.34375 C 243.148438 40.285156 199.511719 14.683594 151.96875 13.777344 M 94.050781 80.886719 C 90.453125 80.886719 86.867188 83.769531 88.082031 84.292969 C 88.355469 84.410156 88.824219 84.484375 89.355469 84.550781 C 89.730469 86.847656 91.660156 88.621094 94.070312 88.621094 C 96.476562 88.621094 98.382812 86.847656 98.757812 84.539062 C 99.289062 84.484375 99.746094 84.414062 100.023438 84.292969 C 101.242188 83.769531 97.648438 80.886719 94.050781 80.886719 M 221.464844 212.027344 C 218.554688 212.089844 215.933594 213.949219 215.058594 216.777344 L 215.058594 216.824219 C 210.699219 230.804688 202.230469 248.867188 202.230469 248.867188 C 202.230469 248.867188 193.800781 263.796875 189.027344 280.519531 C 194.152344 279.039062 199.183594 277.257812 204.097656 275.1875 C 213.710938 270.988281 222.804688 265.6875 231.199219 259.398438 C 229.832031 256.648438 228.316406 253.972656 226.667969 251.386719 C 226.667969 251.386719 223.867188 238.960938 218.511719 225.414062 C 219.351562 223.09375 220.109375 220.816406 220.789062 218.617188 L 220.835938 218.453125 C 220.988281 218.140625 221.347656 218.015625 221.75 218.015625 L 221.785156 218.015625 C 224.585938 218.453125 227.546875 218.902344 230.980469 219.296875 C 232.023438 219.378906 233.09375 219.460938 234.171875 219.578125 C 235.492188 219.699219 236.773438 219.816406 238.09375 219.898438 C 238.414062 232.472656 243.871094 244.484375 245.242188 247.355469 C 255.304688 237.449219 263.773438 226.042969 270.335938 213.535156 C 260.621094 214.644531 248.738281 215.019531 234.757812 213.621094 C 233.640625 213.496094 232.519531 213.390625 231.398438 213.300781 C 228.5 212.96875 225.609375 212.570312 222.730469 212.109375 C 222.3125 212.042969 221.886719 212.015625 221.464844 212.027344 M 221.464844 212.027344 "/>
</svg>
