<?xml version="1.0" encoding="UTF-8"?>
<svg xmlns="http://www.w3.org/2000/svg" xmlns:xlink="http://www.w3.org/1999/xlink" width="16" height="16" viewBox="0 0 16 16">
<path fill-rule="nonzero" fill="rgb(0%, 45.098039%, 63.137255%)" fill-opacity="1" d="M 16 8 C 16 12.417969 12.417969 16 8 16 C 3.582031 16 0 12.417969 0 8 C 0 3.582031 3.582031 0 8 0 C 12.417969 0 16 3.582031 16 8 M 16 8 "/>
<path fill-rule="nonzero" fill="rgb(0%, 45.098039%, 63.137255%)" fill-opacity="1" d="M 15.242188 8 C 15.242188 12 12 15.242188 8 15.242188 C 4 15.242188 0.757812 12 0.757812 8 C 0.757812 4 4 0.757812 8 0.757812 C 12 0.757812 15.242188 4 15.242188 8 M 15.242188 8 "/>
<path fill-rule="nonzero" fill="rgb(100%, 100%, 100%)" fill-opacity="1" d="M 8.105469 0.734375 C 7.0625 0.714844 6.027344 0.921875 5.070312 1.339844 C 1.390625 2.945312 -0.296875 7.230469 1.308594 10.914062 C 2.667969 14.011719 5.980469 15.761719 9.300781 15.144531 C 9.445312 14.691406 9.558594 14.195312 9.558594 13.65625 C 9.558594 13.582031 9.558594 13.503906 9.554688 13.425781 C 9.554688 13.425781 9.8125 12.980469 10.019531 12.402344 C 10.273438 11.691406 10.136719 10.902344 9.699219 10.28125 C 9.671875 10.246094 9.648438 10.207031 9.621094 10.167969 C 7.035156 10.167969 5.757812 7.824219 5.429688 6.398438 C 5.296875 5.8125 5.1875 5.753906 4.824219 5.753906 C 4.144531 5.753906 3.65625 5.476562 3.65625 5.476562 C 3.035156 5.757812 2.757812 5.644531 2.839844 5.347656 C 2.570312 5.316406 2.574219 5.007812 2.742188 4.726562 C 2.945312 4.371094 3.367188 4.132812 3.875 4.132812 L 4.144531 4.132812 C 4.703125 4.132812 4.816406 3.839844 5.394531 3.902344 C 5.484375 3.910156 5.566406 3.925781 5.644531 3.945312 C 5.804688 3.761719 5.984375 3.683594 6.203125 3.699219 C 6.21875 3.699219 6.234375 3.707031 6.242188 3.722656 C 6.253906 3.734375 6.253906 3.75 6.253906 3.765625 L 6.199219 4.011719 C 6.179688 4.105469 6.207031 4.199219 6.273438 4.261719 C 6.738281 4.695312 7.003906 5.4375 7.300781 6.109375 C 7.785156 7.09375 8.953125 8.464844 10.824219 6.707031 C 12.144531 5.46875 12.9375 4.441406 14.246094 4.339844 C 12.96875 2.148438 10.640625 0.78125 8.105469 0.734375 M 5.015625 4.3125 C 4.824219 4.3125 4.632812 4.46875 4.699219 4.496094 C 4.710938 4.5 4.738281 4.507812 4.765625 4.507812 C 4.785156 4.632812 4.886719 4.726562 5.015625 4.726562 C 5.144531 4.726562 5.246094 4.632812 5.265625 4.507812 C 5.296875 4.507812 5.320312 4.503906 5.335938 4.496094 C 5.398438 4.46875 5.207031 4.3125 5.015625 4.3125 M 11.8125 11.308594 C 11.65625 11.3125 11.515625 11.410156 11.46875 11.5625 C 11.238281 12.308594 10.785156 13.273438 10.785156 13.273438 C 10.785156 13.273438 10.335938 14.070312 10.082031 14.960938 C 10.355469 14.882812 10.625 14.789062 10.886719 14.675781 C 11.398438 14.453125 11.882812 14.171875 12.332031 13.835938 C 12.257812 13.6875 12.175781 13.546875 12.089844 13.40625 C 12.089844 13.40625 11.941406 12.746094 11.652344 12.023438 C 11.699219 11.898438 11.738281 11.777344 11.773438 11.660156 L 11.777344 11.652344 C 11.785156 11.632812 11.804688 11.628906 11.828125 11.628906 C 11.976562 11.652344 12.136719 11.675781 12.320312 11.695312 C 12.375 11.699219 12.429688 11.703125 12.488281 11.710938 C 12.558594 11.71875 12.628906 11.722656 12.699219 11.726562 C 12.714844 12.398438 13.007812 13.039062 13.078125 13.191406 C 13.617188 12.664062 14.066406 12.054688 14.417969 11.386719 C 13.898438 11.449219 13.265625 11.46875 12.519531 11.394531 C 12.460938 11.386719 12.402344 11.378906 12.339844 11.375 C 12.1875 11.359375 12.03125 11.335938 11.878906 11.3125 C 11.855469 11.308594 11.835938 11.308594 11.8125 11.308594 M 11.8125 11.308594 "/>
</svg>
