<?xml version="1.0" encoding="UTF-8"?>
<svg xmlns="http://www.w3.org/2000/svg" xmlns:xlink="http://www.w3.org/1999/xlink" width="1100" height="1100" viewBox="0 0 1100 1100">
<path fill-rule="nonzero" fill="rgb(0%, 45.098039%, 63.137255%)" fill-opacity="1" d="M 1100 550 C 1100 853.773438 853.773438 1100 550 1100 C 246.226562 1100 0 853.773438 0 550 C 0 246.226562 246.226562 0 550 0 C 853.773438 0 1100 246.226562 1100 550 M 1100 550 "/>
<path fill-rule="nonzero" fill="rgb(0%, 45.098039%, 63.137255%)" fill-opacity="1" d="M 1047.835938 550 C 1047.835938 824.929688 824.929688 1047.835938 550 1047.835938 C 275.070312 1047.835938 52.164062 824.929688 52.164062 550 C 52.164062 275.070312 275.070312 52.164062 550 52.164062 C 824.929688 52.164062 1047.835938 275.070312 1047.835938 550 M 1047.835938 550 "/>
<path fill-rule="nonzero" fill="rgb(100%, 100%, 100%)" fill-opacity="1" d="M 557.21875 50.523438 C 485.527344 49.28125 414.410156 63.464844 348.683594 92.117188 C 95.511719 202.496094 -20.308594 497.191406 90.0625 750.40625 C 183.460938 963.203125 411.089844 1083.621094 639.53125 1041.089844 C 649.265625 1010.066406 657.25 976.035156 657.25 938.902344 C 657.25 933.632812 657.121094 928.355469 656.820312 922.917969 C 656.820312 922.917969 674.679688 892.445312 688.773438 852.730469 C 706.199219 803.652344 696.96875 749.574219 666.789062 706.808594 C 665.011719 704.457031 663.265625 701.835938 661.347656 699.179688 C 483.628906 699.179688 395.714844 538.011719 373.425781 439.992188 C 364.195312 399.679688 356.710938 395.683594 331.5625 395.683594 C 285.003906 395.683594 251.402344 376.378906 251.402344 376.378906 C 208.664062 395.949219 189.527344 387.992188 195.277344 367.554688 C 176.679688 365.5 177.046875 344.351562 188.390625 324.945312 C 202.589844 300.609375 231.59375 284.066406 266.335938 284.066406 L 284.933594 284.066406 C 323.339844 284.066406 331.230469 263.992188 370.804688 268.253906 C 376.949219 268.855469 382.664062 269.859375 387.964844 271.175781 C 398.9375 258.585938 411.390625 253.316406 426.464844 254.324219 C 427.542969 254.425781 428.53125 254.976562 429.179688 255.847656 C 429.828125 256.71875 430.074219 257.824219 429.859375 258.886719 L 426.199219 275.875 C 424.847656 282.183594 426.628906 288.765625 431.164062 293.03125 C 463.125 322.902344 481.421875 373.898438 501.925781 419.917969 C 535.191406 487.765625 615.492188 581.960938 744.296875 461.082031 C 834.875 376.078125 889.554688 305.214844 979.488281 298.261719 C 891.546875 147.714844 731.539062 53.84375 557.21875 50.523438 M 344.859375 296.585938 C 331.667969 296.585938 318.511719 307.15625 322.96875 309.074219 C 323.976562 309.503906 325.6875 309.777344 327.636719 310.019531 C 329.011719 318.441406 336.09375 324.945312 344.925781 324.945312 C 353.753906 324.945312 360.738281 318.441406 362.113281 309.976562 C 364.058594 309.777344 365.742188 309.511719 366.746094 309.074219 C 371.214844 307.15625 358.050781 296.585938 344.859375 296.585938 M 812.039062 777.433594 C 801.367188 777.664062 791.757812 784.480469 788.546875 794.851562 L 788.546875 795.023438 C 772.5625 846.285156 741.511719 912.519531 741.511719 912.519531 C 741.511719 912.519531 710.601562 967.261719 693.101562 1028.570312 C 711.890625 1023.144531 730.339844 1016.617188 748.359375 1009.027344 C 783.609375 993.625 816.953125 974.191406 847.730469 951.121094 C 842.714844 941.042969 837.167969 931.238281 831.109375 921.75 C 831.109375 921.75 820.839844 876.191406 801.203125 826.511719 C 804.289062 818.011719 807.074219 809.660156 809.558594 801.597656 L 809.730469 800.996094 C 810.296875 799.855469 811.601562 799.390625 813.082031 799.390625 L 813.21875 799.390625 C 823.488281 800.996094 834.332031 802.640625 846.921875 804.082031 C 850.746094 804.390625 854.675781 804.683594 858.636719 805.121094 C 863.472656 805.5625 868.175781 806 873.003906 806.300781 C 874.183594 852.398438 894.1875 896.441406 899.214844 906.976562 C 936.125 870.652344 967.167969 828.820312 991.238281 782.96875 C 955.617188 787.03125 912.046875 788.40625 860.785156 783.277344 C 856.683594 782.820312 852.574219 782.425781 848.460938 782.101562 C 837.832031 780.878906 827.234375 779.425781 816.671875 777.734375 C 815.140625 777.496094 813.589844 777.394531 812.039062 777.433594 M 812.039062 777.433594 "/>
</svg>
