<?xml version="1.0" encoding="UTF-8"?>
<svg xmlns="http://www.w3.org/2000/svg" xmlns:xlink="http://www.w3.org/1999/xlink" width="700" height="700" viewBox="0 0 700 700">
<path fill-rule="nonzero" fill="rgb(0%, 35.294118%, 49.019608%)" fill-opacity="1" d="M 651.421875 349.425781 C 651.421875 515.363281 516.90625 649.878906 350.960938 649.878906 C 185.019531 649.878906 50.5 515.371094 50.5 349.429688 C 50.5 183.488281 185.019531 48.96875 350.960938 48.96875 C 516.90625 48.96875 651.421875 183.488281 651.421875 349.429688 M 651.421875 349.429688 "/>
<path fill-rule="nonzero" fill="rgb(91.372549%, 91.372549%, 91.372549%)" fill-opacity="1" stroke-width="2.349" stroke-linecap="butt" stroke-linejoin="miter" stroke="rgb(91.372549%, 91.372549%, 91.372549%)" stroke-opacity="1" stroke-miterlimit="10" d="M 99.007857 89.915 C 99.147857 95.52 102.230714 103.497143 102.230714 103.497143 L 99.835714 106.794286 C 96.570714 107.867857 95.547143 105.890714 94.725714 104.61 C 94.725714 104.61 92.062857 97.06 89.965714 91.75 L 88.637143 87.977143 Z M 99.007857 89.915 " transform="matrix(5.46875, 0, 0, 5.46875, 0, 0)"/>
<path fill-rule="nonzero" fill="rgb(91.372549%, 91.372549%, 91.372549%)" fill-opacity="1" stroke-width="2.349" stroke-linecap="butt" stroke-linejoin="miter" stroke="rgb(91.372549%, 91.372549%, 91.372549%)" stroke-opacity="1" stroke-miterlimit="10" d="M 79.532143 117.820714 C 80.879286 112.755 82.577857 108.285714 85.172143 103.625714 C 85.172143 103.625714 88.492143 96.547857 90.2 91.067143 C 90.59 89.797143 91.875 89.027857 93.207143 89.235 C 94.27 89.402857 95.399286 89.562857 96.605714 89.7 C 97.042857 89.759286 97.480714 89.777857 97.917857 89.825 C 100.570714 89.899286 103.140714 90.005 105.617857 90.025 C 106.834286 90.035714 108.050714 90.017143 109.265714 89.969286 C 110.457143 89.919286 112.5 89.739286 113.640714 89.594286 C 113.969286 89.555 119.910714 88.797857 120.11 62.942143 C 119.695714 37.122143 112.45 37.902857 112.157143 37.902857 C 101.587143 37.902857 95.652857 45.812857 85.457143 55.38 C 71.695714 68.297857 63.114286 58.227143 59.559286 50.980714 C 57.367857 46.062857 55.410714 40.614286 51.995714 37.419286 C 51.512143 36.962143 51.325 36.259286 51.465714 35.587143 L 51.855714 33.77 C 51.914286 33.532143 51.745714 33.312857 51.492857 33.285714 C 49.879286 33.175714 48.550714 33.739286 47.375 35.085714 C 46.772857 34.935 46.160714 34.829286 45.542857 34.77 C 41.317143 34.317143 40.469286 36.462143 36.367857 36.462143 L 34.379286 36.462143 C 30.669286 36.462143 27.567143 38.232143 26.047143 40.832143 C 24.837143 42.907143 24.797143 45.165 26.785714 45.384286 C 26.172143 47.567143 28.215714 48.422857 32.782143 46.329286 C 32.782143 46.329286 36.375 48.390714 41.347857 48.390714 C 44.035714 48.390714 44.835714 48.817143 45.825 53.125714 C 48.204286 63.597857 57.597857 80.825 76.595 80.825 C 76.792857 81.11 76.985 81.387143 77.172143 81.637143 C 80.399286 86.212143 81.387143 91.989286 79.524286 97.235 C 78.02 101.477143 76.11 104.735 76.11 104.735 C 76.167857 105.317143 76.167857 105.88 76.167857 106.442143 C 76.075 110.899286 74.917857 115.945714 73.835714 118.997143 " transform="matrix(5.46875, 0, 0, 5.46875, 0, 0)"/>
<path fill-rule="nonzero" fill="rgb(0%, 35.294118%, 49.019608%)" fill-opacity="1" d="M 246.652344 214.007812 C 246.070312 214.324219 245.066406 214.433594 243.933594 214.5625 C 243.125 219.5 239.066406 223.300781 233.898438 223.300781 C 228.726562 223.300781 224.601562 219.5 223.792969 214.5625 C 222.636719 214.5625 221.660156 214.242188 221.058594 214.007812 C 218.449219 212.914062 226.144531 206.722656 233.855469 206.722656 C 241.542969 206.722656 249.234375 212.898438 246.628906 214.007812 Z M 246.652344 214.007812 "/>
<path fill="none" stroke-width="5.449" stroke-linecap="butt" stroke-linejoin="round" stroke="rgb(91.372549%, 91.372549%, 91.372549%)" stroke-opacity="1" stroke-miterlimit="4" d="M 119.89 64 C 119.89 94.867857 94.867143 119.890714 64 119.890714 C 33.132857 119.890714 8.11 94.867857 8.11 64.000714 C 8.11 33.134286 33.132857 8.11 64 8.11 C 94.867143 8.11 119.89 33.132857 119.89 64 Z M 119.89 64 " transform="matrix(5.46875, 0, 0, 5.46875, 0, 0)"/>
<path fill="none" stroke-width="5.95" stroke-linecap="butt" stroke-linejoin="round" stroke="rgb(0%, 35.294118%, 49.019608%)" stroke-opacity="1" stroke-miterlimit="4" d="M 125.024286 64 C 125.024286 97.704286 97.704286 125.024286 64 125.024286 C 30.295714 125.024286 2.977143 97.704286 2.977143 64.000714 C 2.977143 30.297857 30.297143 2.977143 64 2.977143 C 97.702857 2.977143 125.024286 30.297143 125.024286 64.000714 Z M 125.024286 64 " transform="matrix(5.46875, 0, 0, 5.46875, 0, 0)"/>
</svg>
