<?xml version="1.0" encoding="UTF-8"?>
<svg xmlns="http://www.w3.org/2000/svg" xmlns:xlink="http://www.w3.org/1999/xlink" width="1200" height="1200" viewBox="0 0 1200 1200">
<path fill-rule="nonzero" fill="rgb(0%, 35.294118%, 49.019608%)" fill-opacity="1" d="M 1116.722656 599.015625 C 1116.722656 883.480469 886.125 1114.078125 601.648438 1114.078125 C 317.175781 1114.078125 86.570312 883.492188 86.570312 599.023438 C 86.570312 314.550781 317.175781 83.945312 601.648438 83.945312 C 886.125 83.945312 1116.722656 314.550781 1116.722656 599.023438 M 1116.722656 599.023438 "/>
<path fill-rule="nonzero" fill="rgb(91.372549%, 91.372549%, 91.372549%)" fill-opacity="1" stroke-width="2.349" stroke-linecap="butt" stroke-linejoin="miter" stroke="rgb(91.372549%, 91.372549%, 91.372549%)" stroke-opacity="1" stroke-miterlimit="10" d="M 99.007917 89.915 C 99.147917 95.52 102.230833 103.497083 102.230833 103.497083 L 99.835833 106.794167 C 96.570833 107.867917 95.547083 105.890833 94.725833 104.61 C 94.725833 104.61 92.062917 97.06 89.965833 91.75 L 88.637083 87.977083 Z M 99.007917 89.915 " transform="matrix(9.375, 0, 0, 9.375, 0, 0)"/>
<path fill-rule="nonzero" fill="rgb(91.372549%, 91.372549%, 91.372549%)" fill-opacity="1" stroke-width="2.349" stroke-linecap="butt" stroke-linejoin="miter" stroke="rgb(91.372549%, 91.372549%, 91.372549%)" stroke-opacity="1" stroke-miterlimit="10" d="M 79.532083 117.820833 C 80.879167 112.755 82.577917 108.285833 85.172083 103.625833 C 85.172083 103.625833 88.492083 96.547917 90.2 91.067083 C 90.59 89.797083 91.875 89.027917 93.207083 89.235 C 94.27 89.402917 95.399167 89.562917 96.605833 89.7 C 97.042917 89.759167 97.480833 89.777917 97.917917 89.825 C 100.570833 89.899167 103.140833 90.005 105.617917 90.025 C 106.834167 90.035833 108.050833 90.017083 109.265833 89.969167 C 110.457083 89.919167 112.5 89.739167 113.640833 89.594167 C 113.969167 89.555 119.910833 88.797917 120.11 62.942083 C 119.695833 37.122083 112.45 37.902917 112.157083 37.902917 C 101.587083 37.902917 95.652917 45.812917 85.457083 55.38 C 71.695833 68.297917 63.114167 58.227083 59.559167 50.980833 C 57.367917 46.062917 55.410833 40.614167 51.995833 37.419167 C 51.512083 36.962083 51.325 36.259167 51.465833 35.587083 L 51.855833 33.77 C 51.914167 33.532083 51.745833 33.312917 51.492917 33.285833 C 49.879167 33.175833 48.550833 33.739167 47.375 35.085833 C 46.772917 34.935 46.160833 34.829167 45.542917 34.77 C 41.317083 34.317083 40.469167 36.462083 36.367917 36.462083 L 34.379167 36.462083 C 30.669167 36.462083 27.567083 38.232083 26.047083 40.832083 C 24.837083 42.907083 24.797083 45.165 26.785833 45.384167 C 26.172083 47.567083 28.215833 48.422917 32.782083 46.329167 C 32.782083 46.329167 36.375 48.390833 41.347917 48.390833 C 44.035833 48.390833 44.835833 48.817083 45.825 53.125833 C 48.204167 63.597917 57.597917 80.825 76.595 80.825 C 76.792917 81.11 76.985 81.387083 77.172083 81.637083 C 80.399167 86.212083 81.387083 91.989167 79.524167 97.235 C 78.02 101.477083 76.11 104.735 76.11 104.735 C 76.167917 105.317083 76.167917 105.88 76.167917 106.442083 C 76.075 110.899167 74.917917 115.945833 73.835833 118.997083 " transform="matrix(9.375, 0, 0, 9.375, 0, 0)"/>
<path fill-rule="nonzero" fill="rgb(0%, 35.294118%, 49.019608%)" fill-opacity="1" d="M 422.832031 366.871094 C 421.835938 367.414062 420.113281 367.601562 418.171875 367.820312 C 416.785156 376.285156 409.828125 382.800781 400.96875 382.800781 C 392.101562 382.800781 385.03125 376.285156 383.644531 367.820312 C 381.664062 367.820312 379.988281 367.273438 378.957031 366.871094 C 374.484375 364.996094 387.675781 354.382812 400.894531 354.382812 C 414.074219 354.382812 427.257812 364.96875 422.792969 366.871094 Z M 422.832031 366.871094 "/>
<path fill="none" stroke-width="5.449" stroke-linecap="butt" stroke-linejoin="round" stroke="rgb(91.372549%, 91.372549%, 91.372549%)" stroke-opacity="1" stroke-miterlimit="4" d="M 119.89 64 C 119.89 94.867917 94.867083 119.890833 64 119.890833 C 33.132917 119.890833 8.11 94.867917 8.11 64.000833 C 8.11 33.134167 33.132917 8.11 64 8.11 C 94.867083 8.11 119.89 33.132917 119.89 64 Z M 119.89 64 " transform="matrix(9.375, 0, 0, 9.375, 0, 0)"/>
<path fill="none" stroke-width="5.95" stroke-linecap="butt" stroke-linejoin="round" stroke="rgb(0%, 35.294118%, 49.019608%)" stroke-opacity="1" stroke-miterlimit="4" d="M 125.024167 64 C 125.024167 97.704167 97.704167 125.024167 64 125.024167 C 30.295833 125.024167 2.977083 97.704167 2.977083 64.000833 C 2.977083 30.297917 30.297083 2.977083 64 2.977083 C 97.702917 2.977083 125.024167 30.297083 125.024167 64.000833 Z M 125.024167 64 " transform="matrix(9.375, 0, 0, 9.375, 0, 0)"/>
</svg>
