<?xml version="1.0" encoding="UTF-8"?>
<svg xmlns="http://www.w3.org/2000/svg" xmlns:xlink="http://www.w3.org/1999/xlink" width="1700" height="1700" viewBox="0 0 1700 1700">
<path fill-rule="nonzero" fill="rgb(0%, 35.294118%, 49.019608%)" fill-opacity="1" d="M 1582.023438 848.605469 C 1582.023438 1251.597656 1255.34375 1578.277344 852.335938 1578.277344 C 449.332031 1578.277344 122.640625 1251.613281 122.640625 848.617188 C 122.640625 445.613281 449.332031 118.921875 852.335938 118.921875 C 1255.34375 118.921875 1582.023438 445.613281 1582.023438 848.617188 M 1582.023438 848.617188 "/>
<path fill-rule="nonzero" fill="rgb(91.372549%, 91.372549%, 91.372549%)" fill-opacity="1" stroke-width="2.349" stroke-linecap="butt" stroke-linejoin="miter" stroke="rgb(91.372549%, 91.372549%, 91.372549%)" stroke-opacity="1" stroke-miterlimit="10" d="M 99.007941 89.915 C 99.147941 95.52 102.230882 103.497059 102.230882 103.497059 L 99.835882 106.794118 C 96.570882 107.867941 95.547059 105.890882 94.725882 104.61 C 94.725882 104.61 92.062941 97.06 89.965882 91.75 L 88.637059 87.977059 Z M 99.007941 89.915 " transform="matrix(13.28125, 0, 0, 13.28125, 0, 0)"/>
<path fill-rule="nonzero" fill="rgb(91.372549%, 91.372549%, 91.372549%)" fill-opacity="1" stroke-width="2.349" stroke-linecap="butt" stroke-linejoin="miter" stroke="rgb(91.372549%, 91.372549%, 91.372549%)" stroke-opacity="1" stroke-miterlimit="10" d="M 79.532059 117.820882 C 80.879118 112.755 82.577941 108.285882 85.172059 103.625882 C 85.172059 103.625882 88.492059 96.547941 90.2 91.067059 C 90.59 89.797059 91.875 89.027941 93.207059 89.235 C 94.27 89.402941 95.399118 89.562941 96.605882 89.7 C 97.042941 89.759118 97.480882 89.777941 97.917941 89.825 C 100.570882 89.899118 103.140882 90.005 105.617941 90.025 C 106.834412 90.035882 108.050588 90.017353 109.265882 89.969118 C 110.457059 89.919118 112.5 89.739118 113.640882 89.594118 C 113.969118 89.555 119.910882 88.797941 120.11 62.942059 C 119.695882 37.122059 112.45 37.902941 112.157059 37.902941 C 101.587059 37.902941 95.652941 45.812941 85.457059 55.38 C 71.695882 68.297941 63.114118 58.227059 59.559118 50.980882 C 57.367941 46.062941 55.410882 40.614118 51.995882 37.419118 C 51.512059 36.962059 51.325 36.259118 51.465882 35.587059 L 51.855882 33.77 C 51.914118 33.532059 51.745882 33.312941 51.492941 33.285882 C 49.879118 33.175882 48.550882 33.739118 47.375 35.085882 C 46.773235 34.935 46.160588 34.829412 45.542941 34.77 C 41.317059 34.317059 40.469118 36.462059 36.367941 36.462059 L 34.379118 36.462059 C 30.669118 36.462059 27.567059 38.232059 26.047059 40.832059 C 24.837059 42.907059 24.797059 45.165 26.785882 45.384118 C 26.172059 47.567059 28.215882 48.422941 32.782059 46.329118 C 32.782059 46.329118 36.375 48.390882 41.347941 48.390882 C 44.035882 48.390882 44.835882 48.817059 45.825 53.125882 C 48.204118 63.597941 57.597941 80.825 76.595 80.825 C 76.792941 81.11 76.985 81.387059 77.172059 81.637059 C 80.399118 86.212059 81.387059 91.989118 79.524118 97.235 C 78.02 101.477059 76.11 104.735 76.11 104.735 C 76.167941 105.317059 76.167941 105.88 76.167941 106.442059 C 76.075 110.899118 74.917941 115.945882 73.835882 118.997059 " transform="matrix(13.28125, 0, 0, 13.28125, 0, 0)"/>
<path fill-rule="nonzero" fill="rgb(0%, 35.294118%, 49.019608%)" fill-opacity="1" d="M 599.011719 519.734375 C 597.601562 520.503906 595.160156 520.769531 592.410156 521.078125 C 590.445312 533.070312 580.589844 542.300781 568.039062 542.300781 C 555.476562 542.300781 545.460938 533.070312 543.496094 521.078125 C 540.691406 521.078125 538.316406 520.304688 536.855469 519.734375 C 530.519531 517.078125 549.207031 502.042969 567.933594 502.042969 C 586.605469 502.042969 605.28125 517.039062 598.957031 519.734375 Z M 599.011719 519.734375 "/>
<path fill="none" stroke-width="5.449" stroke-linecap="butt" stroke-linejoin="round" stroke="rgb(91.372549%, 91.372549%, 91.372549%)" stroke-opacity="1" stroke-miterlimit="4" d="M 119.89 64 C 119.89 94.867941 94.867059 119.890882 64 119.890882 C 33.132941 119.890882 8.11 94.867941 8.11 64.000882 C 8.11 33.134118 33.132941 8.11 64 8.11 C 94.867059 8.11 119.89 33.132941 119.89 64 Z M 119.89 64 " transform="matrix(13.28125, 0, 0, 13.28125, 0, 0)"/>
<path fill="none" stroke-width="5.95" stroke-linecap="butt" stroke-linejoin="round" stroke="rgb(0%, 35.294118%, 49.019608%)" stroke-opacity="1" stroke-miterlimit="4" d="M 125.024118 64 C 125.024118 97.704118 97.704118 125.024118 64 125.024118 C 30.295882 125.024118 2.977059 97.704118 2.977059 64.000882 C 2.977059 30.297941 30.297059 2.977059 64 2.977059 C 97.702941 2.977059 125.024118 30.297059 125.024118 64.000882 Z M 125.024118 64 " transform="matrix(13.28125, 0, 0, 13.28125, 0, 0)"/>
</svg>
