<?xml version="1.0" encoding="UTF-8"?>
<svg xmlns="http://www.w3.org/2000/svg" xmlns:xlink="http://www.w3.org/1999/xlink" width="2500" height="2500" viewBox="0 0 2500 2500">
<path fill-rule="nonzero" fill="rgb(0%, 35.294118%, 49.019608%)" fill-opacity="1" d="M 2326.503906 1247.949219 C 2326.503906 1840.585938 1846.09375 2320.996094 1253.4375 2320.996094 C 660.78125 2320.996094 180.351562 1840.605469 180.351562 1247.96875 C 180.351562 655.3125 660.78125 174.882812 1253.4375 174.882812 C 1846.09375 174.882812 2326.503906 655.3125 2326.503906 1247.96875 M 2326.503906 1247.96875 "/>
<path fill-rule="nonzero" fill="rgb(91.372549%, 91.372549%, 91.372549%)" fill-opacity="1" stroke-width="2.349" stroke-linecap="butt" stroke-linejoin="miter" stroke="rgb(91.372549%, 91.372549%, 91.372549%)" stroke-opacity="1" stroke-miterlimit="10" d="M 99.008 89.915 C 99.148 95.52 102.231 103.497 102.231 103.497 L 99.836 106.794 C 96.571 107.868 95.547 105.891 94.726 104.61 C 94.726 104.61 92.063 97.06 89.966 91.75 L 88.637 87.977 Z M 99.008 89.915 " transform="matrix(19.53125, 0, 0, 19.53125, 0, 0)"/>
<path fill-rule="nonzero" fill="rgb(91.372549%, 91.372549%, 91.372549%)" fill-opacity="1" stroke-width="2.349" stroke-linecap="butt" stroke-linejoin="miter" stroke="rgb(91.372549%, 91.372549%, 91.372549%)" stroke-opacity="1" stroke-miterlimit="10" d="M 79.532 117.821 C 80.879 112.755 82.578 108.286 85.172 103.626 C 85.172 103.626 88.492 96.548 90.2 91.067 C 90.59 89.797 91.875 89.028 93.207 89.235 C 94.27 89.403 95.399 89.563 96.606 89.7 C 97.043 89.759 97.481 89.778 97.918 89.825 C 100.571 89.899 103.141 90.005 105.618 90.025 C 106.8342 90.036 108.0506 90.0172 109.266 89.969 C 110.457 89.919 112.5 89.739 113.641 89.594 C 113.969 89.555 119.911 88.798 120.11 62.942 C 119.696 37.122 112.45 37.903 112.157 37.903 C 101.587 37.903 95.653 45.813 85.457 55.38 C 71.696 68.298 63.114 58.227 59.559 50.981 C 57.368 46.063 55.411 40.614 51.996 37.419 C 51.512 36.962 51.325 36.259 51.466 35.587 L 51.856 33.77 C 51.914 33.532 51.746 33.313 51.493 33.286 C 49.879 33.176 48.551 33.739 47.375 35.086 C 46.7732 34.935 46.1608 34.8294 45.543 34.77 C 41.317 34.317 40.469 36.462 36.368 36.462 L 34.379 36.462 C 30.669 36.462 27.567 38.232 26.047 40.832 C 24.837 42.907 24.797 45.165 26.786 45.384 C 26.172 47.567 28.216 48.423 32.782 46.329 C 32.782 46.329 36.375 48.391 41.348 48.391 C 44.036 48.391 44.836 48.817 45.825 53.126 C 48.204 63.598 57.598 80.825 76.595 80.825 C 76.793 81.11 76.985 81.387 77.172 81.637 C 80.399 86.212 81.387 91.989 79.524 97.235 C 78.02 101.477 76.11 104.735 76.11 104.735 C 76.168 105.317 76.168 105.88 76.168 106.442 C 76.075 110.899 74.918 115.946 73.836 118.997 " transform="matrix(19.53125, 0, 0, 19.53125, 0, 0)"/>
<path fill-rule="nonzero" fill="rgb(0%, 35.294118%, 49.019608%)" fill-opacity="1" d="M 880.898438 764.316406 C 878.828125 765.449219 875.234375 765.839844 871.191406 766.289062 C 868.300781 783.925781 853.808594 797.5 835.351562 797.5 C 816.875 797.5 802.148438 783.925781 799.257812 766.289062 C 795.136719 766.289062 791.640625 765.15625 789.492188 764.316406 C 780.175781 760.410156 807.65625 738.300781 835.195312 738.300781 C 862.65625 738.300781 890.117188 760.351562 880.820312 764.316406 Z M 880.898438 764.316406 "/>
<path fill="none" stroke-width="5.449" stroke-linecap="butt" stroke-linejoin="round" stroke="rgb(91.372549%, 91.372549%, 91.372549%)" stroke-opacity="1" stroke-miterlimit="4" d="M 119.89 64 C 119.89 94.868 94.867 119.891 64 119.891 C 33.133 119.891 8.11 94.868 8.11 64.001 C 8.11 33.134 33.133 8.11 64 8.11 C 94.867 8.11 119.89 33.133 119.89 64 Z M 119.89 64 " transform="matrix(19.53125, 0, 0, 19.53125, 0, 0)"/>
<path fill="none" stroke-width="5.95" stroke-linecap="butt" stroke-linejoin="round" stroke="rgb(0%, 35.294118%, 49.019608%)" stroke-opacity="1" stroke-miterlimit="4" d="M 125.024 64 C 125.024 97.704 97.704 125.024 64 125.024 C 30.296 125.024 2.977 97.704 2.977 64.001 C 2.977 30.298 30.297 2.977 64 2.977 C 97.703 2.977 125.024 30.297 125.024 64.001 Z M 125.024 64 " transform="matrix(19.53125, 0, 0, 19.53125, 0, 0)"/>
</svg>
