<?xml version="1.0" encoding="UTF-8"?>
<svg xmlns="http://www.w3.org/2000/svg" xmlns:xlink="http://www.w3.org/1999/xlink" width="1400" height="1400" viewBox="0 0 1400 1400">
<path fill-rule="nonzero" fill="rgb(0%, 35.294118%, 49.019608%)" fill-opacity="1" d="M 1302.84375 698.851562 C 1302.84375 1030.726562 1033.8125 1299.757812 701.925781 1299.757812 C 370.039062 1299.757812 100.996094 1030.738281 100.996094 698.863281 C 100.996094 366.976562 370.039062 97.933594 701.925781 97.933594 C 1033.8125 97.933594 1302.84375 366.976562 1302.84375 698.863281 M 1302.84375 698.863281 "/>
<path fill-rule="nonzero" fill="rgb(91.372549%, 91.372549%, 91.372549%)" fill-opacity="1" stroke-width="2.349" stroke-linecap="butt" stroke-linejoin="miter" stroke="rgb(91.372549%, 91.372549%, 91.372549%)" stroke-opacity="1" stroke-miterlimit="10" d="M 99.007857 89.915 C 99.147857 95.52 102.231071 103.497143 102.231071 103.497143 L 99.836071 106.793929 C 96.571071 107.867857 95.547143 105.891071 94.726071 104.61 C 94.726071 104.61 92.062857 97.06 89.966071 91.75 L 88.637143 87.977143 Z M 99.007857 89.915 " transform="matrix(10.9375, 0, 0, 10.9375, 0, 0)"/>
<path fill-rule="nonzero" fill="rgb(91.372549%, 91.372549%, 91.372549%)" fill-opacity="1" stroke-width="2.349" stroke-linecap="butt" stroke-linejoin="miter" stroke="rgb(91.372549%, 91.372549%, 91.372549%)" stroke-opacity="1" stroke-miterlimit="10" d="M 79.532143 117.821071 C 80.878929 112.755 82.577857 108.286071 85.172143 103.626071 C 85.172143 103.626071 88.492143 96.547857 90.2 91.067143 C 90.59 89.797143 91.875 89.027857 93.207143 89.235 C 94.27 89.402857 95.398929 89.562857 96.606071 89.7 C 97.042857 89.758929 97.481071 89.777857 97.917857 89.825 C 100.571071 89.898929 103.141071 90.005 105.617857 90.025 C 106.834286 90.036071 108.050714 90.017143 109.266071 89.968929 C 110.457143 89.918929 112.5 89.738929 113.641071 89.593929 C 113.968929 89.555 119.911071 88.797857 120.11 62.942143 C 119.696071 37.122143 112.45 37.902857 112.157143 37.902857 C 101.587143 37.902857 95.652857 45.812857 85.457143 55.38 C 71.696071 68.297857 63.113929 58.227143 59.558929 50.981071 C 57.367857 46.062857 55.411071 40.613929 51.996071 37.418929 C 51.512143 36.962143 51.325 36.258929 51.466071 35.587143 L 51.856071 33.77 C 51.913929 33.532143 51.746071 33.312857 51.492857 33.286071 C 49.878929 33.176071 48.551071 33.738929 47.375 35.086071 C 46.773214 34.935 46.160714 34.829286 45.542857 34.77 C 41.317143 34.317143 40.468929 36.462143 36.367857 36.462143 L 34.378929 36.462143 C 30.668929 36.462143 27.567143 38.232143 26.047143 40.832143 C 24.837143 42.907143 24.797143 45.165 26.786071 45.383929 C 26.172143 47.567143 28.216071 48.422857 32.782143 46.328929 C 32.782143 46.328929 36.375 48.391071 41.347857 48.391071 C 44.036071 48.391071 44.836071 48.817143 45.825 53.126071 C 48.203929 63.597857 57.597857 80.825 76.595 80.825 C 76.792857 81.11 76.985 81.387143 77.172143 81.637143 C 80.398929 86.212143 81.387143 91.988929 79.523929 97.235 C 78.02 101.477143 76.11 104.735 76.11 104.735 C 76.167857 105.317143 76.167857 105.88 76.167857 106.442143 C 76.075 110.898929 74.917857 115.946071 73.836071 118.997143 " transform="matrix(10.9375, 0, 0, 10.9375, 0, 0)"/>
<path fill-rule="nonzero" fill="rgb(0%, 35.294118%, 49.019608%)" fill-opacity="1" d="M 493.304688 428.015625 C 492.144531 428.652344 490.132812 428.871094 487.867188 429.121094 C 486.25 439 478.132812 446.601562 467.796875 446.601562 C 457.449219 446.601562 449.203125 439 447.585938 429.121094 C 445.277344 429.121094 443.320312 428.488281 442.117188 428.015625 C 436.898438 425.828125 452.289062 413.449219 467.710938 413.449219 C 483.085938 413.449219 498.464844 425.796875 493.257812 428.015625 Z M 493.304688 428.015625 "/>
<path fill="none" stroke-width="5.449" stroke-linecap="butt" stroke-linejoin="round" stroke="rgb(91.372549%, 91.372549%, 91.372549%)" stroke-opacity="1" stroke-miterlimit="4" d="M 119.89 64 C 119.89 94.867857 94.867143 119.891071 64 119.891071 C 33.132857 119.891071 8.11 94.867857 8.11 64.001071 C 8.11 33.133929 33.132857 8.11 64 8.11 C 94.867143 8.11 119.89 33.132857 119.89 64 Z M 119.89 64 " transform="matrix(10.9375, 0, 0, 10.9375, 0, 0)"/>
<path fill="none" stroke-width="5.95" stroke-linecap="butt" stroke-linejoin="round" stroke="rgb(0%, 35.294118%, 49.019608%)" stroke-opacity="1" stroke-miterlimit="4" d="M 125.023929 64 C 125.023929 97.703929 97.703929 125.023929 64 125.023929 C 30.296071 125.023929 2.977143 97.703929 2.977143 64.001071 C 2.977143 30.297857 30.297143 2.977143 64 2.977143 C 97.702857 2.977143 125.023929 30.297143 125.023929 64.001071 Z M 125.023929 64 " transform="matrix(10.9375, 0, 0, 10.9375, 0, 0)"/>
</svg>
