<?xml version="1.0" encoding="UTF-8"?>
<svg xmlns="http://www.w3.org/2000/svg" xmlns:xlink="http://www.w3.org/1999/xlink" width="1800" height="1800" viewBox="0 0 1800 1800">
<path fill-rule="nonzero" fill="rgb(0%, 35.294118%, 49.019608%)" fill-opacity="1" d="M 1675.082031 898.523438 C 1675.082031 1325.222656 1329.1875 1671.117188 902.476562 1671.117188 C 475.761719 1671.117188 129.851562 1325.234375 129.851562 898.539062 C 129.851562 471.824219 475.761719 125.914062 902.476562 125.914062 C 1329.1875 125.914062 1675.082031 471.824219 1675.082031 898.539062 M 1675.082031 898.539062 "/>
<path fill-rule="nonzero" fill="rgb(91.372549%, 91.372549%, 91.372549%)" fill-opacity="1" stroke-width="2.349" stroke-linecap="butt" stroke-linejoin="miter" stroke="rgb(91.372549%, 91.372549%, 91.372549%)" stroke-opacity="1" stroke-miterlimit="10" d="M 99.008056 89.915 C 99.148056 95.52 102.231111 103.496944 102.231111 103.496944 L 99.836111 106.793889 C 96.571111 107.868056 95.546944 105.891111 94.726111 104.61 C 94.726111 104.61 92.063056 97.06 89.966111 91.75 L 88.636944 87.976944 Z M 99.008056 89.915 " transform="matrix(14.0625, 0, 0, 14.0625, 0, 0)"/>
<path fill-rule="nonzero" fill="rgb(91.372549%, 91.372549%, 91.372549%)" fill-opacity="1" stroke-width="2.349" stroke-linecap="butt" stroke-linejoin="miter" stroke="rgb(91.372549%, 91.372549%, 91.372549%)" stroke-opacity="1" stroke-miterlimit="10" d="M 79.531944 117.821111 C 80.878889 112.755 82.578056 108.286111 85.171944 103.626111 C 85.171944 103.626111 88.491944 96.548056 90.2 91.066944 C 90.59 89.796944 91.875 89.028056 93.206944 89.235 C 94.27 89.403056 95.398889 89.563056 96.606111 89.7 C 97.043056 89.758889 97.481111 89.778056 97.918056 89.825 C 100.571111 89.898889 103.141111 90.005 105.618056 90.025 C 106.834167 90.035833 108.050556 90.017222 109.266111 89.968889 C 110.456944 89.918889 112.5 89.738889 113.641111 89.593889 C 113.968889 89.555 119.911111 88.798056 120.11 62.941944 C 119.696111 37.121944 112.45 37.903056 112.156944 37.903056 C 101.586944 37.903056 95.653056 45.813056 85.456944 55.38 C 71.696111 68.298056 63.113889 58.226944 59.558889 50.981111 C 57.368056 46.063056 55.411111 40.613889 51.996111 37.418889 C 51.511944 36.961944 51.325 36.258889 51.466111 35.586944 L 51.856111 33.77 C 51.913889 33.531944 51.746111 33.313056 51.493056 33.286111 C 49.878889 33.176111 48.551111 33.738889 47.375 35.086111 C 46.773056 34.935 46.160833 34.829444 45.543056 34.77 C 41.316944 34.316944 40.468889 36.461944 36.368056 36.461944 L 34.378889 36.461944 C 30.668889 36.461944 27.566944 38.231944 26.046944 40.831944 C 24.836944 42.906944 24.796944 45.165 26.786111 45.383889 C 26.171944 47.566944 28.216111 48.423056 32.781944 46.328889 C 32.781944 46.328889 36.375 48.391111 41.348056 48.391111 C 44.036111 48.391111 44.836111 48.816944 45.825 53.126111 C 48.203889 63.598056 57.598056 80.825 76.595 80.825 C 76.793056 81.11 76.985 81.386944 77.171944 81.636944 C 80.398889 86.211944 81.386944 91.988889 79.523889 97.235 C 78.02 101.476944 76.11 104.735 76.11 104.735 C 76.168056 105.316944 76.168056 105.88 76.168056 106.441944 C 76.075 110.898889 74.918056 115.946111 73.836111 118.996944 " transform="matrix(14.0625, 0, 0, 14.0625, 0, 0)"/>
<path fill-rule="nonzero" fill="rgb(0%, 35.294118%, 49.019608%)" fill-opacity="1" d="M 634.246094 550.308594 C 632.757812 551.125 630.167969 551.40625 627.257812 551.726562 C 625.175781 564.425781 614.742188 574.199219 601.453125 574.199219 C 588.148438 574.199219 577.546875 564.425781 575.464844 551.726562 C 572.5 551.726562 569.980469 550.914062 568.433594 550.308594 C 561.726562 547.496094 581.511719 531.578125 601.339844 531.578125 C 621.113281 531.578125 640.882812 547.453125 634.191406 550.308594 Z M 634.246094 550.308594 "/>
<path fill="none" stroke-width="5.449" stroke-linecap="butt" stroke-linejoin="round" stroke="rgb(91.372549%, 91.372549%, 91.372549%)" stroke-opacity="1" stroke-miterlimit="4" d="M 119.89 64 C 119.89 94.868056 94.866944 119.891111 64 119.891111 C 33.133056 119.891111 8.11 94.868056 8.11 64.001111 C 8.11 33.133889 33.133056 8.11 64 8.11 C 94.866944 8.11 119.89 33.133056 119.89 64 Z M 119.89 64 " transform="matrix(14.0625, 0, 0, 14.0625, 0, 0)"/>
<path fill="none" stroke-width="5.95" stroke-linecap="butt" stroke-linejoin="round" stroke="rgb(0%, 35.294118%, 49.019608%)" stroke-opacity="1" stroke-miterlimit="4" d="M 125.023889 64 C 125.023889 97.703889 97.703889 125.023889 64 125.023889 C 30.296111 125.023889 2.976944 97.703889 2.976944 64.001111 C 2.976944 30.298056 30.296944 2.976944 64 2.976944 C 97.703056 2.976944 125.023889 30.296944 125.023889 64.001111 Z M 125.023889 64 " transform="matrix(14.0625, 0, 0, 14.0625, 0, 0)"/>
</svg>
