<?xml version="1.0" encoding="UTF-8"?>
<svg xmlns="http://www.w3.org/2000/svg" xmlns:xlink="http://www.w3.org/1999/xlink" width="5000" height="5000" viewBox="0 0 5000 5000">
<path fill-rule="nonzero" fill="rgb(0%, 35.294118%, 49.019608%)" fill-opacity="1" d="M 4653.007812 2495.898438 C 4653.007812 3681.171875 3692.1875 4641.992188 2506.875 4641.992188 C 1321.5625 4641.992188 360.703125 3681.210938 360.703125 2495.9375 C 360.703125 1310.625 1321.5625 349.765625 2506.875 349.765625 C 3692.1875 349.765625 4653.007812 1310.625 4653.007812 2495.9375 M 4653.007812 2495.9375 "/>
<path fill-rule="nonzero" fill="rgb(91.372549%, 91.372549%, 91.372549%)" fill-opacity="1" stroke-width="2.349" stroke-linecap="butt" stroke-linejoin="miter" stroke="rgb(91.372549%, 91.372549%, 91.372549%)" stroke-opacity="1" stroke-miterlimit="10" d="M 99.008 89.915 C 99.148 95.52 102.231 103.497 102.231 103.497 L 99.836 106.794 C 96.571 107.868 95.547 105.891 94.726 104.61 C 94.726 104.61 92.063 97.06 89.966 91.75 L 88.637 87.977 Z M 99.008 89.915 " transform="matrix(39.0625, 0, 0, 39.0625, 0, 0)"/>
<path fill-rule="nonzero" fill="rgb(91.372549%, 91.372549%, 91.372549%)" fill-opacity="1" stroke-width="2.349" stroke-linecap="butt" stroke-linejoin="miter" stroke="rgb(91.372549%, 91.372549%, 91.372549%)" stroke-opacity="1" stroke-miterlimit="10" d="M 79.532 117.821 C 80.879 112.755 82.578 108.286 85.172 103.626 C 85.172 103.626 88.492 96.548 90.2 91.067 C 90.59 89.797 91.875 89.028 93.207 89.235 C 94.27 89.403 95.399 89.563 96.606 89.7 C 97.043 89.759 97.481 89.778 97.918 89.825 C 100.571 89.899 103.141 90.005 105.618 90.025 C 106.8343 90.0359 108.0506 90.0172 109.266 89.969 C 110.457 89.919 112.5 89.739 113.641 89.594 C 113.969 89.555 119.911 88.798 120.11 62.942 C 119.696 37.122 112.45 37.903 112.157 37.903 C 101.587 37.903 95.653 45.813 85.457 55.38 C 71.696 68.298 63.114 58.227 59.559 50.981 C 57.368 46.063 55.411 40.614 51.996 37.419 C 51.512 36.962 51.325 36.259 51.466 35.587 L 51.856 33.77 C 51.914 33.532 51.746 33.313 51.493 33.286 C 49.879 33.176 48.551 33.739 47.375 35.086 C 46.7731 34.935 46.1607 34.8293 45.543 34.77 C 41.317 34.317 40.469 36.462 36.368 36.462 L 34.379 36.462 C 30.669 36.462 27.567 38.232 26.047 40.832 C 24.837 42.907 24.797 45.165 26.786 45.384 C 26.172 47.567 28.216 48.423 32.782 46.329 C 32.782 46.329 36.375 48.391 41.348 48.391 C 44.036 48.391 44.836 48.817 45.825 53.126 C 48.204 63.598 57.598 80.825 76.595 80.825 C 76.793 81.11 76.985 81.387 77.172 81.637 C 80.399 86.212 81.387 91.989 79.524 97.235 C 78.02 101.477 76.11 104.735 76.11 104.735 C 76.168 105.317 76.168 105.88 76.168 106.442 C 76.075 110.899 74.918 115.946 73.836 118.997 " transform="matrix(39.0625, 0, 0, 39.0625, 0, 0)"/>
<path fill-rule="nonzero" fill="rgb(0%, 35.294118%, 49.019608%)" fill-opacity="1" d="M 1761.796875 1528.632812 C 1757.65625 1530.898438 1750.46875 1531.679688 1742.382812 1532.578125 C 1736.601562 1567.851562 1707.617188 1595 1670.703125 1595 C 1633.75 1595 1604.296875 1567.851562 1598.515625 1532.578125 C 1590.273438 1532.578125 1583.28125 1530.3125 1578.984375 1528.632812 C 1560.351562 1520.820312 1615.3125 1476.601562 1670.390625 1476.601562 C 1725.3125 1476.601562 1780.234375 1520.703125 1761.640625 1528.632812 Z M 1761.796875 1528.632812 "/>
<path fill="none" stroke-width="5.449" stroke-linecap="butt" stroke-linejoin="round" stroke="rgb(91.372549%, 91.372549%, 91.372549%)" stroke-opacity="1" stroke-miterlimit="4" d="M 119.89 64 C 119.89 94.868 94.867 119.891 64 119.891 C 33.133 119.891 8.11 94.868 8.11 64.001 C 8.11 33.134 33.133 8.11 64 8.11 C 94.867 8.11 119.89 33.133 119.89 64 Z M 119.89 64 " transform="matrix(39.0625, 0, 0, 39.0625, 0, 0)"/>
<path fill="none" stroke-width="5.95" stroke-linecap="butt" stroke-linejoin="round" stroke="rgb(0%, 35.294118%, 49.019608%)" stroke-opacity="1" stroke-miterlimit="4" d="M 125.024 64 C 125.024 97.704 97.704 125.024 64 125.024 C 30.296 125.024 2.977 97.704 2.977 64.001 C 2.977 30.298 30.297 2.977 64 2.977 C 97.703 2.977 125.024 30.297 125.024 64.001 Z M 125.024 64 " transform="matrix(39.0625, 0, 0, 39.0625, 0, 0)"/>
</svg>
