<?xml version="1.0" encoding="UTF-8"?>
<svg xmlns="http://www.w3.org/2000/svg" xmlns:xlink="http://www.w3.org/1999/xlink" width="2250" height="2250" viewBox="0 0 2250 2250">
<path fill-rule="nonzero" fill="rgb(0%, 35.294118%, 49.019608%)" fill-opacity="1" d="M 2093.851562 1123.15625 C 2093.851562 1656.527344 1661.484375 2088.898438 1128.09375 2088.898438 C 594.703125 2088.898438 162.316406 1656.546875 162.316406 1123.171875 C 162.316406 589.78125 594.703125 157.394531 1128.09375 157.394531 C 1661.484375 157.394531 2093.851562 589.78125 2093.851562 1123.171875 M 2093.851562 1123.171875 "/>
<path fill-rule="nonzero" fill="rgb(91.372549%, 91.372549%, 91.372549%)" fill-opacity="1" stroke-width="2.349" stroke-linecap="butt" stroke-linejoin="miter" stroke="rgb(91.372549%, 91.372549%, 91.372549%)" stroke-opacity="1" stroke-miterlimit="10" d="M 99.008 89.915111 C 99.148 95.52 102.231111 103.497111 102.231111 103.497111 L 99.836 106.794 C 96.571111 107.868 95.547111 105.891111 94.726 104.61 C 94.726 104.61 92.063111 97.06 89.966 91.75 L 88.636889 87.977111 Z M 99.008 89.915111 " transform="matrix(17.578125, 0, 0, 17.578125, 0, 0)"/>
<path fill-rule="nonzero" fill="rgb(91.372549%, 91.372549%, 91.372549%)" fill-opacity="1" stroke-width="2.349" stroke-linecap="butt" stroke-linejoin="miter" stroke="rgb(91.372549%, 91.372549%, 91.372549%)" stroke-opacity="1" stroke-miterlimit="10" d="M 79.532 117.820889 C 80.878889 112.755111 82.578 108.286 85.172 103.626 C 85.172 103.626 88.492 96.548 90.2 91.067111 C 90.59 89.797111 91.875111 89.028 93.207111 89.235111 C 94.27 89.403111 95.399111 89.563111 96.606 89.7 C 97.043111 89.759111 97.481111 89.778 97.918 89.825111 C 100.571111 89.899111 103.140889 90.005111 105.618 90.025111 C 106.834222 90.036 108.050667 90.017333 109.266 89.969111 C 110.457111 89.919111 112.5 89.739111 113.640889 89.594 C 113.969111 89.555111 119.911111 88.798 120.11 62.942 C 119.696 37.122 112.45 37.903111 112.156889 37.903111 C 101.586889 37.903111 95.652889 45.813111 85.456889 55.38 C 71.696 68.298 63.114 58.227111 59.559111 50.981111 C 57.368 46.063111 55.411111 40.614 51.996 37.419111 C 51.512 36.962 51.324889 36.259111 51.466 35.587111 L 51.856 33.77 C 51.914 33.532 51.746 33.313111 51.492889 33.286 C 49.879111 33.176 48.550889 33.739111 47.374889 35.086 C 46.773111 34.934889 46.160667 34.829333 45.543111 34.77 C 41.316889 34.317111 40.468889 36.462 36.368 36.462 L 34.379111 36.462 C 30.668889 36.462 27.566889 38.232 26.046889 40.832 C 24.836889 42.907111 24.796889 45.165111 26.786 45.384 C 26.172 47.567111 28.216 48.423111 32.782 46.329111 C 32.782 46.329111 36.375111 48.391111 41.348 48.391111 C 44.036 48.391111 44.836 48.817111 45.824889 53.126 C 48.204 63.598 57.598 80.825111 76.595111 80.825111 C 76.792889 81.11 76.984889 81.387111 77.172 81.637111 C 80.399111 86.212 81.387111 91.989111 79.524 97.235111 C 78.02 101.477111 76.11 104.735111 76.11 104.735111 C 76.168 105.317111 76.168 105.88 76.168 106.442 C 76.075111 110.899111 74.918 115.946 73.836 118.997111 " transform="matrix(17.578125, 0, 0, 17.578125, 0, 0)"/>
<path fill-rule="nonzero" fill="rgb(0%, 35.294118%, 49.019608%)" fill-opacity="1" d="M 792.808594 687.882812 C 790.945312 688.90625 787.710938 689.257812 784.070312 689.660156 C 781.46875 705.53125 768.425781 717.75 751.816406 717.75 C 735.1875 717.75 721.933594 705.53125 719.332031 689.660156 C 715.625 689.660156 712.476562 688.640625 710.542969 687.882812 C 702.15625 684.367188 726.890625 664.46875 751.675781 664.46875 C 776.390625 664.46875 801.105469 684.316406 792.738281 687.882812 Z M 792.808594 687.882812 "/>
<path fill="none" stroke-width="5.449" stroke-linecap="butt" stroke-linejoin="round" stroke="rgb(91.372549%, 91.372549%, 91.372549%)" stroke-opacity="1" stroke-miterlimit="4" d="M 119.89 64 C 119.89 94.868 94.867111 119.891111 64 119.891111 C 33.132889 119.891111 8.11 94.868 8.11 64.000889 C 8.11 33.134 33.132889 8.11 64 8.11 C 94.866889 8.11 119.89 33.132889 119.89 64 Z M 119.89 64 " transform="matrix(17.578125, 0, 0, 17.578125, 0, 0)"/>
<path fill="none" stroke-width="5.95" stroke-linecap="butt" stroke-linejoin="round" stroke="rgb(0%, 35.294118%, 49.019608%)" stroke-opacity="1" stroke-miterlimit="4" d="M 125.024 64 C 125.024 97.704 97.704 125.024 64 125.024 C 30.296 125.024 2.976889 97.704 2.976889 64.000889 C 2.976889 30.298 30.296889 2.976889 64 2.976889 C 97.703111 2.976889 125.024 30.296889 125.024 64.000889 Z M 125.024 64 " transform="matrix(17.578125, 0, 0, 17.578125, 0, 0)"/>
</svg>
