<?xml version="1.0" encoding="UTF-8"?>
<svg xmlns="http://www.w3.org/2000/svg" xmlns:xlink="http://www.w3.org/1999/xlink" width="2750" height="2750" viewBox="0 0 2750 2750">
<path fill-rule="nonzero" fill="rgb(0%, 35.294118%, 49.019608%)" fill-opacity="1" d="M 2559.15625 1372.742188 C 2559.15625 2024.644531 2030.703125 2553.09375 1378.78125 2553.09375 C 726.859375 2553.09375 198.386719 2024.664062 198.386719 1372.765625 C 198.386719 720.84375 726.859375 192.371094 1378.78125 192.371094 C 2030.703125 192.371094 2559.15625 720.84375 2559.15625 1372.765625 M 2559.15625 1372.765625 "/>
<path fill-rule="nonzero" fill="rgb(91.372549%, 91.372549%, 91.372549%)" fill-opacity="1" stroke-width="2.349" stroke-linecap="butt" stroke-linejoin="miter" stroke="rgb(91.372549%, 91.372549%, 91.372549%)" stroke-opacity="1" stroke-miterlimit="10" d="M 99.008 89.915091 C 99.148 95.52 102.230909 103.497091 102.230909 103.497091 L 99.836 106.794 C 96.570909 107.868 95.546909 105.890909 94.726 104.61 C 94.726 104.61 92.062909 97.06 89.966 91.75 L 88.637091 87.977091 Z M 99.008 89.915091 " transform="matrix(21.484375, 0, 0, 21.484375, 0, 0)"/>
<path fill-rule="nonzero" fill="rgb(91.372549%, 91.372549%, 91.372549%)" fill-opacity="1" stroke-width="2.349" stroke-linecap="butt" stroke-linejoin="miter" stroke="rgb(91.372549%, 91.372549%, 91.372549%)" stroke-opacity="1" stroke-miterlimit="10" d="M 79.532 117.821091 C 80.878909 112.754909 82.578 108.286 85.172 103.626 C 85.172 103.626 88.492 96.548 90.2 91.067091 C 90.59 89.797091 91.874909 89.028 93.207091 89.235091 C 94.27 89.403091 95.398909 89.563091 96.606 89.7 C 97.042909 89.759091 97.481091 89.778 97.918 89.825091 C 100.571091 89.899091 103.141091 90.005091 105.618 90.025091 C 106.834364 90.036 108.050545 90.017273 109.266 89.969091 C 110.457091 89.919091 112.5 89.739091 113.641091 89.594 C 113.969091 89.555091 119.910909 88.798 120.11 62.942 C 119.696 37.122 112.45 37.903091 112.157091 37.903091 C 101.586909 37.903091 95.653091 45.813091 85.456909 55.38 C 71.696 68.298 63.114 58.227091 59.558909 50.981091 C 57.368 46.063091 55.410909 40.614 51.996 37.419091 C 51.512 36.962 51.325091 36.259091 51.466 35.587091 L 51.856 33.77 C 51.914 33.532 51.746 33.313091 51.493091 33.286 C 49.878909 33.176 48.550909 33.739091 47.374909 35.086 C 46.773091 34.934909 46.160727 34.829273 45.542909 34.77 C 41.316909 34.317091 40.468909 36.462 36.368 36.462 L 34.378909 36.462 C 30.668909 36.462 27.566909 38.232 26.046909 40.832 C 24.836909 42.907091 24.796909 45.165091 26.786 45.384 C 26.172 47.567091 28.216 48.423091 32.782 46.329091 C 32.782 46.329091 36.374909 48.391091 41.348 48.391091 C 44.036 48.391091 44.836 48.817091 45.825091 53.126 C 48.204 63.598 57.598 80.825091 76.594909 80.825091 C 76.792909 81.11 76.985091 81.387091 77.172 81.637091 C 80.398909 86.212 81.386909 91.989091 79.524 97.235091 C 78.02 101.477091 76.11 104.735091 76.11 104.735091 C 76.168 105.317091 76.168 105.88 76.168 106.442 C 76.074909 110.898909 74.918 115.946 73.836 118.997091 " transform="matrix(21.484375, 0, 0, 21.484375, 0, 0)"/>
<path fill-rule="nonzero" fill="rgb(0%, 35.294118%, 49.019608%)" fill-opacity="1" d="M 968.988281 840.75 C 966.710938 841.992188 962.757812 842.425781 958.308594 842.917969 C 955.128906 862.320312 939.1875 877.25 918.886719 877.25 C 898.5625 877.25 882.363281 862.320312 879.183594 842.917969 C 874.648438 842.917969 870.804688 841.671875 868.441406 840.75 C 858.195312 836.453125 888.421875 812.132812 918.714844 812.132812 C 948.921875 812.132812 979.128906 836.386719 968.902344 840.75 Z M 968.988281 840.75 "/>
<path fill="none" stroke-width="5.449" stroke-linecap="butt" stroke-linejoin="round" stroke="rgb(91.372549%, 91.372549%, 91.372549%)" stroke-opacity="1" stroke-miterlimit="4" d="M 119.89 64 C 119.89 94.868 94.866909 119.890909 64 119.890909 C 33.132909 119.890909 8.11 94.868 8.11 64.001091 C 8.11 33.134 33.133091 8.11 64 8.11 C 94.866909 8.11 119.89 33.133091 119.89 64 Z M 119.89 64 " transform="matrix(21.484375, 0, 0, 21.484375, 0, 0)"/>
<path fill="none" stroke-width="5.95" stroke-linecap="butt" stroke-linejoin="round" stroke="rgb(0%, 35.294118%, 49.019608%)" stroke-opacity="1" stroke-miterlimit="4" d="M 125.024 64 C 125.024 97.704 97.704 125.024 64 125.024 C 30.296 125.024 2.977091 97.704 2.977091 64.001091 C 2.977091 30.298 30.297091 2.977091 64 2.977091 C 97.702909 2.977091 125.024 30.297091 125.024 64.001091 Z M 125.024 64 " transform="matrix(21.484375, 0, 0, 21.484375, 0, 0)"/>
</svg>
