<?xml version="1.0" encoding="UTF-8"?>
<svg xmlns="http://www.w3.org/2000/svg" xmlns:xlink="http://www.w3.org/1999/xlink" width="800" height="800" viewBox="0 0 800 800">
<path fill-rule="nonzero" fill="rgb(0%, 35.294118%, 49.019608%)" fill-opacity="1" d="M 744.480469 399.34375 C 744.480469 588.988281 590.75 742.71875 401.101562 742.71875 C 211.449219 742.71875 57.710938 588.992188 57.710938 399.351562 C 57.710938 209.699219 211.449219 55.960938 401.101562 55.960938 C 590.75 55.960938 744.480469 209.699219 744.480469 399.351562 M 744.480469 399.351562 "/>
<path fill="none" stroke-width="2.349" stroke-linecap="butt" stroke-linejoin="miter" stroke="rgb(91.372549%, 91.372549%, 91.372549%)" stroke-opacity="1" stroke-miterlimit="10" d="M 99.008125 90.145 C 99.148125 95.75125 102.23 103.73125 102.23 103.73125 L 99.83625 107.02375 C 96.57 108.098125 95.54625 106.121875 94.72625 104.84125 C 94.72625 104.84125 92.061875 97.29 89.965 91.985 " transform="matrix(6.25, 0, 0, 6.25, 0, 0)"/>
<path fill="none" stroke-width="2.349" stroke-linecap="butt" stroke-linejoin="miter" stroke="rgb(91.372549%, 91.372549%, 91.372549%)" stroke-opacity="1" stroke-miterlimit="10" d="M 79.53125 117.82125 C 80.87875 112.755 82.578125 108.28625 85.17125 103.62625 C 85.17125 103.62625 88.491875 96.548125 90.19875 91.066875 C 90.58875 89.796875 91.875 89.028125 93.206875 89.235 C 94.27 89.406875 95.398125 89.563125 96.605 89.7 C 97.043125 89.75875 97.48 89.778125 97.918125 89.825 C 100.57 89.89875 103.14125 90.005 105.618125 90.025 C 106.834375 90.03625 108.050625 90.018125 109.26625 89.97 C 110.728125 89.89375 112.1875 89.76875 113.64125 89.595 C 113.96875 89.555 119.91125 88.798125 120.10875 62.941875 C 119.695 37.121875 112.44875 37.903125 112.15625 37.903125 C 101.58625 37.903125 95.651875 45.813125 85.456875 55.38 C 71.695 68.298125 63.113125 58.23125 59.55875 50.98125 C 57.366875 46.063125 55.41 40.61375 51.99625 37.41875 C 51.511875 36.961875 51.32375 36.25875 51.465 35.586875 L 51.855 33.77 C 51.915 33.531875 51.74625 33.313125 51.491875 33.28625 C 49.87875 33.18125 48.55125 33.73875 47.375 35.08625 C 46.773125 34.935 46.160625 34.830625 45.543125 34.77375 C 41.316875 34.316875 40.46875 36.46625 36.366875 36.46625 L 34.38 36.46625 C 30.67 36.46625 27.568125 38.23125 26.048125 40.833125 C 24.838125 42.906875 24.798125 45.165 26.78625 45.383125 C 26.173125 47.566875 28.21625 48.423125 32.781875 46.32875 C 32.781875 46.32875 36.37625 48.39125 41.34875 48.39125 C 44.04 48.39125 44.836875 48.816875 45.825 53.12625 C 48.205 63.598125 57.59875 80.825 76.595 80.825 C 76.79375 81.11 76.985 81.388125 77.173125 81.638125 C 80.39875 86.211875 81.388125 91.98875 79.52375 97.235 C 78.02125 101.476875 76.11 104.735 76.11 104.735 C 76.16875 105.316875 76.16875 105.88 76.16875 106.441875 C 76.075 110.89875 74.91875 115.94625 73.836875 118.996875 " transform="matrix(6.25, 0, 0, 6.25, 0, 0)"/>
<path fill-rule="nonzero" fill="rgb(100%, 100%, 100%)" fill-opacity="1" d="M 281.886719 244.582031 C 281.226562 244.945312 280.074219 245.070312 278.78125 245.210938 C 277.855469 250.855469 273.21875 255.199219 267.3125 255.199219 C 261.398438 255.199219 256.6875 250.855469 255.761719 245.210938 C 254.445312 245.210938 253.324219 244.851562 252.636719 244.582031 C 249.65625 243.332031 258.449219 236.257812 267.261719 236.257812 C 276.050781 236.257812 284.835938 243.3125 281.863281 244.582031 Z M 281.886719 244.582031 "/>
<path fill="none" stroke-width="5.449" stroke-linecap="butt" stroke-linejoin="round" stroke="rgb(91.372549%, 91.372549%, 91.372549%)" stroke-opacity="1" stroke-miterlimit="4" d="M 119.89 64 C 119.89 94.868125 94.866875 119.89125 64 119.89125 C 33.133125 119.89125 8.11 94.868125 8.11 64.00125 C 8.11 33.13375 33.133125 8.11 64 8.11 C 94.866875 8.11 119.89 33.133125 119.89 64 Z M 119.89 64 " transform="matrix(6.25, 0, 0, 6.25, 0, 0)"/>
<path fill="none" stroke-width="5.95" stroke-linecap="butt" stroke-linejoin="round" stroke="rgb(0%, 35.294118%, 49.019608%)" stroke-opacity="1" stroke-miterlimit="4" d="M 125.023125 64 C 125.023125 97.70375 97.703125 125.02375 64 125.02375 C 30.296875 125.02375 2.976875 97.70375 2.976875 64.00125 C 2.976875 30.298125 30.296875 2.978125 64 2.978125 C 97.703125 2.978125 125.023125 30.298125 125.023125 64 Z M 125.023125 64 " transform="matrix(6.25, 0, 0, 6.25, 0, 0)"/>
</svg>
