<?xml version="1.0" encoding="UTF-8"?>
<svg xmlns="http://www.w3.org/2000/svg" xmlns:xlink="http://www.w3.org/1999/xlink" width="200" height="200" viewBox="0 0 200 200">
<path fill-rule="nonzero" fill="rgb(0%, 35.294118%, 49.019608%)" fill-opacity="1" d="M 186.121094 99.835938 C 186.121094 147.246094 147.6875 185.679688 100.273438 185.679688 C 52.863281 185.679688 14.429688 147.25 14.429688 99.835938 C 14.429688 52.425781 52.863281 13.992188 100.273438 13.992188 C 147.6875 13.992188 186.121094 52.425781 186.121094 99.835938 M 186.121094 99.835938 "/>
<path fill="none" stroke-width="2.349" stroke-linecap="butt" stroke-linejoin="miter" stroke="rgb(91.372549%, 91.372549%, 91.372549%)" stroke-opacity="1" stroke-miterlimit="10" d="M 99.0075 90.145 C 99.1475 95.75 102.23 103.73 102.23 103.73 L 99.835 107.025 C 96.57 108.0975 95.545 106.1225 94.725 104.84 C 94.725 104.84 92.0625 97.29 89.965 91.985 " transform="matrix(1.5625, 0, 0, 1.5625, 0, 0)"/>
<path fill="none" stroke-width="2.349" stroke-linecap="butt" stroke-linejoin="miter" stroke="rgb(91.372549%, 91.372549%, 91.372549%)" stroke-opacity="1" stroke-miterlimit="10" d="M 79.53 117.82 C 80.88 112.755 82.5775 108.285 85.17 103.625 C 85.17 103.625 88.4925 96.5475 90.2 91.0675 C 90.59 89.7975 91.875 89.0275 93.2075 89.235 C 94.27 89.4075 95.3975 89.5625 96.605 89.7 C 97.0425 89.76 97.48 89.7775 97.9175 89.825 C 100.57 89.9 103.14 90.005 105.6175 90.025 C 106.835 90.0375 108.05 90.0175 109.265 89.97 C 110.7275 89.8925 112.1875 89.7675 113.64 89.595 C 113.97 89.555 119.91 88.7975 120.11 62.9425 C 119.695 37.1225 112.45 37.9025 112.155 37.9025 C 101.585 37.9025 95.6525 45.8125 85.4575 55.38 C 71.695 68.2975 63.1125 58.23 59.56 50.98 C 57.3675 46.0625 55.41 40.615 51.995 37.42 C 51.5125 36.9625 51.325 36.26 51.465 35.5875 L 51.855 33.77 C 51.915 33.5325 51.745 33.3125 51.4925 33.285 C 49.88 33.18 48.55 33.74 47.375 35.085 C 46.7725 34.935 46.16 34.83 45.5425 34.775 C 41.3175 34.3175 40.47 36.465 36.3675 36.465 L 34.38 36.465 C 30.67 36.465 27.5675 38.23 26.0475 40.8325 C 24.8375 42.9075 24.7975 45.165 26.785 45.3825 C 26.1725 47.5675 28.215 48.4225 32.7825 46.33 C 32.7825 46.33 36.375 48.39 41.35 48.39 C 44.04 48.39 44.8375 48.8175 45.825 53.125 C 48.205 63.5975 57.6 80.825 76.595 80.825 C 76.795 81.11 76.985 81.3875 77.1725 81.6375 C 80.4 86.2125 81.3875 91.99 79.525 97.235 C 78.02 101.4775 76.11 104.735 76.11 104.735 C 76.17 105.3175 76.17 105.88 76.17 106.4425 C 76.075 110.9 74.92 115.945 73.8375 118.9975 " transform="matrix(1.5625, 0, 0, 1.5625, 0, 0)"/>
<path fill-rule="nonzero" fill="rgb(100%, 100%, 100%)" fill-opacity="1" d="M 70.472656 61.144531 C 70.304688 61.234375 70.019531 61.265625 69.695312 61.304688 C 69.464844 62.714844 68.304688 63.800781 66.828125 63.800781 C 65.351562 63.800781 64.171875 62.714844 63.941406 61.304688 C 63.609375 61.304688 63.332031 61.210938 63.160156 61.144531 C 62.414062 60.832031 64.613281 59.0625 66.816406 59.0625 C 69.011719 59.0625 71.210938 60.828125 70.464844 61.144531 Z M 70.472656 61.144531 "/>
<path fill="none" stroke-width="5.449" stroke-linecap="butt" stroke-linejoin="round" stroke="rgb(91.372549%, 91.372549%, 91.372549%)" stroke-opacity="1" stroke-miterlimit="4" d="M 119.89 64 C 119.89 94.8675 94.8675 119.89 64 119.89 C 33.1325 119.89 8.11 94.8675 8.11 64 C 8.11 33.135 33.1325 8.11 64 8.11 C 94.8675 8.11 119.89 33.1325 119.89 64 Z M 119.89 64 " transform="matrix(1.5625, 0, 0, 1.5625, 0, 0)"/>
<path fill="none" stroke-width="5.95" stroke-linecap="butt" stroke-linejoin="round" stroke="rgb(0%, 35.294118%, 49.019608%)" stroke-opacity="1" stroke-miterlimit="4" d="M 125.0225 64 C 125.0225 97.705 97.7025 125.025 64 125.025 C 30.2975 125.025 2.9775 97.705 2.9775 64 C 2.9775 30.2975 30.2975 2.9775 64 2.9775 C 97.7025 2.9775 125.0225 30.2975 125.0225 64 Z M 125.0225 64 " transform="matrix(1.5625, 0, 0, 1.5625, 0, 0)"/>
</svg>
