<?xml version="1.0" encoding="UTF-8"?>
<svg xmlns="http://www.w3.org/2000/svg" xmlns:xlink="http://www.w3.org/1999/xlink" width="1900" height="1900" viewBox="0 0 1900 1900">
<path fill-rule="nonzero" fill="rgb(0%, 35.294118%, 49.019608%)" fill-opacity="1" d="M 1768.144531 948.441406 C 1768.144531 1398.84375 1403.03125 1763.957031 952.613281 1763.957031 C 502.195312 1763.957031 137.066406 1398.859375 137.066406 948.457031 C 137.066406 498.039062 502.195312 132.910156 952.613281 132.910156 C 1403.03125 132.910156 1768.144531 498.039062 1768.144531 948.457031 M 1768.144531 948.457031 "/>
<path fill="none" stroke-width="2.349" stroke-linecap="butt" stroke-linejoin="miter" stroke="rgb(91.372549%, 91.372549%, 91.372549%)" stroke-opacity="1" stroke-miterlimit="10" d="M 99.007895 90.145 C 99.147895 95.751053 102.23 103.731053 102.23 103.731053 L 99.836053 107.023947 C 96.57 108.097895 95.546053 106.122105 94.726053 104.841053 C 94.726053 104.841053 92.062105 97.29 89.965 91.985 " transform="matrix(14.84375, 0, 0, 14.84375, 0, 0)"/>
<path fill="none" stroke-width="2.349" stroke-linecap="butt" stroke-linejoin="miter" stroke="rgb(91.372549%, 91.372549%, 91.372549%)" stroke-opacity="1" stroke-miterlimit="10" d="M 79.531053 117.821053 C 80.878947 112.755 82.577895 108.286053 85.171053 103.626053 C 85.171053 103.626053 88.492105 96.547895 90.198947 91.067105 C 90.588947 89.797105 91.875 89.027895 93.207105 89.235 C 94.27 89.407105 95.397895 89.562895 96.605 89.7 C 97.042895 89.758947 97.48 89.777895 97.917895 89.825 C 100.57 89.898947 103.141053 90.005 105.617895 90.025 C 106.834211 90.036316 108.050526 90.017895 109.266053 89.97 C 110.728158 89.893684 112.187105 89.768421 113.641053 89.595 C 113.968947 89.555 119.911053 88.797895 120.108947 62.942105 C 119.695 37.122105 112.448947 37.902895 112.156053 37.902895 C 101.586053 37.902895 95.652105 45.812895 85.457105 55.38 C 71.695 68.297895 63.112895 58.231053 59.558947 50.981053 C 57.367105 46.062895 55.41 40.613947 51.996053 37.418947 C 51.512105 36.962105 51.323947 36.258947 51.465 35.587105 L 51.855 33.77 C 51.915 33.532105 51.746053 33.312895 51.492105 33.286053 C 49.878947 33.181053 48.551053 33.738947 47.375 35.086053 C 46.773421 34.934737 46.160789 34.830526 45.542895 34.773947 C 41.317105 34.317105 40.468947 36.466053 36.367105 36.466053 L 34.38 36.466053 C 30.67 36.466053 27.567895 38.231053 26.047895 40.832895 C 24.837895 42.907105 24.797895 45.165 26.786053 45.382895 C 26.172895 47.567105 28.216053 48.422895 32.782105 46.328947 C 32.782105 46.328947 36.376053 48.391053 41.348947 48.391053 C 44.04 48.391053 44.837105 48.817105 45.825 53.126053 C 48.205 63.597895 57.598947 80.825 76.595 80.825 C 76.793947 81.11 76.985 81.387895 77.172895 81.637895 C 80.398947 86.212105 81.387895 91.988947 79.523947 97.235 C 78.021053 101.477105 76.11 104.735 76.11 104.735 C 76.168947 105.317105 76.168947 105.88 76.168947 106.442105 C 76.075 110.898947 74.918947 115.946053 73.837105 118.997105 " transform="matrix(14.84375, 0, 0, 14.84375, 0, 0)"/>
<path fill-rule="nonzero" fill="rgb(100%, 100%, 100%)" fill-opacity="1" d="M 669.484375 580.878906 C 667.910156 581.742188 665.179688 582.039062 662.105469 582.378906 C 659.910156 595.785156 648.894531 606.101562 634.867188 606.101562 C 620.824219 606.101562 609.632812 595.785156 607.4375 582.378906 C 604.304688 582.378906 601.648438 581.519531 600.015625 580.878906 C 592.933594 577.910156 613.820312 561.109375 634.75 561.109375 C 655.617188 561.109375 676.488281 577.867188 669.421875 580.878906 Z M 669.484375 580.878906 "/>
<path fill="none" stroke-width="5.449" stroke-linecap="butt" stroke-linejoin="round" stroke="rgb(91.372549%, 91.372549%, 91.372549%)" stroke-opacity="1" stroke-miterlimit="4" d="M 119.89 64 C 119.89 94.867895 94.867105 119.891053 64 119.891053 C 33.132895 119.891053 8.11 94.867895 8.11 64.001053 C 8.11 33.133947 33.132895 8.11 64 8.11 C 94.867105 8.11 119.89 33.132895 119.89 64 Z M 119.89 64 " transform="matrix(14.84375, 0, 0, 14.84375, 0, 0)"/>
<path fill="none" stroke-width="5.95" stroke-linecap="butt" stroke-linejoin="round" stroke="rgb(0%, 35.294118%, 49.019608%)" stroke-opacity="1" stroke-miterlimit="4" d="M 125.022895 64 C 125.022895 97.703947 97.702895 125.023947 64 125.023947 C 30.297105 125.023947 2.977105 97.703947 2.977105 64.001053 C 2.977105 30.297895 30.297105 2.977895 64 2.977895 C 97.702895 2.977895 125.022895 30.297895 125.022895 64 Z M 125.022895 64 " transform="matrix(14.84375, 0, 0, 14.84375, 0, 0)"/>
</svg>
