<?xml version="1.0" encoding="UTF-8"?>
<svg xmlns="http://www.w3.org/2000/svg" xmlns:xlink="http://www.w3.org/1999/xlink" width="400" height="400" viewBox="0 0 400 400">
<path fill-rule="nonzero" fill="rgb(0%, 35.294118%, 49.019608%)" fill-opacity="1" d="M 372.242188 199.671875 C 372.242188 294.492188 295.375 371.359375 200.550781 371.359375 C 105.726562 371.359375 28.855469 294.496094 28.855469 199.675781 C 28.855469 104.851562 105.726562 27.980469 200.550781 27.980469 C 295.375 27.980469 372.242188 104.851562 372.242188 199.675781 M 372.242188 199.675781 "/>
<path fill="none" stroke-width="2.349" stroke-linecap="butt" stroke-linejoin="miter" stroke="rgb(91.372549%, 91.372549%, 91.372549%)" stroke-opacity="1" stroke-miterlimit="10" d="M 99.0075 90.145 C 99.1475 95.75125 102.23 103.73125 102.23 103.73125 L 99.83625 107.02375 C 96.57 108.0975 95.54625 106.1225 94.72625 104.84125 C 94.72625 104.84125 92.0625 97.29 89.965 91.985 " transform="matrix(3.125, 0, 0, 3.125, 0, 0)"/>
<path fill="none" stroke-width="2.349" stroke-linecap="butt" stroke-linejoin="miter" stroke="rgb(91.372549%, 91.372549%, 91.372549%)" stroke-opacity="1" stroke-miterlimit="10" d="M 79.53125 117.82125 C 80.87875 112.755 82.5775 108.28625 85.17125 103.62625 C 85.17125 103.62625 88.4925 96.5475 90.19875 91.0675 C 90.58875 89.7975 91.875 89.0275 93.2075 89.235 C 94.27 89.4075 95.3975 89.5625 96.605 89.7 C 97.0425 89.75875 97.48 89.7775 97.9175 89.825 C 100.57 89.89875 103.14125 90.005 105.6175 90.025 C 106.83375 90.03625 108.05125 90.0175 109.26625 89.97 C 110.7275 89.89375 112.1875 89.76875 113.64125 89.595 C 113.96875 89.555 119.91125 88.7975 120.10875 62.9425 C 119.695 37.1225 112.44875 37.9025 112.15625 37.9025 C 101.58625 37.9025 95.6525 45.8125 85.4575 55.38 C 71.695 68.2975 63.1125 58.23125 59.55875 50.98125 C 57.3675 46.0625 55.41 40.61375 51.99625 37.41875 C 51.5125 36.9625 51.32375 36.25875 51.465 35.5875 L 51.855 33.77 C 51.915 33.5325 51.74625 33.3125 51.4925 33.28625 C 49.87875 33.18125 48.55125 33.73875 47.375 35.08625 C 46.77375 34.935 46.16125 34.83 45.5425 34.77375 C 41.3175 34.3175 40.46875 36.46625 36.3675 36.46625 L 34.38 36.46625 C 30.67 36.46625 27.5675 38.23125 26.0475 40.8325 C 24.8375 42.9075 24.7975 45.165 26.78625 45.3825 C 26.1725 47.5675 28.21625 48.4225 32.7825 46.32875 C 32.7825 46.32875 36.37625 48.39125 41.34875 48.39125 C 44.04 48.39125 44.8375 48.8175 45.825 53.12625 C 48.205 63.5975 57.59875 80.825 76.595 80.825 C 76.79375 81.11 76.985 81.3875 77.1725 81.6375 C 80.39875 86.2125 81.3875 91.98875 79.52375 97.235 C 78.02125 101.4775 76.11 104.735 76.11 104.735 C 76.16875 105.3175 76.16875 105.88 76.16875 106.4425 C 76.075 110.89875 74.91875 115.94625 73.8375 118.9975 " transform="matrix(3.125, 0, 0, 3.125, 0, 0)"/>
<path fill-rule="nonzero" fill="rgb(100%, 100%, 100%)" fill-opacity="1" d="M 140.945312 122.289062 C 140.613281 122.472656 140.039062 122.535156 139.390625 122.605469 C 138.929688 125.429688 136.609375 127.601562 133.65625 127.601562 C 130.699219 127.601562 128.34375 125.429688 127.882812 122.605469 C 127.222656 122.605469 126.664062 122.425781 126.320312 122.289062 C 124.828125 121.664062 129.226562 118.128906 133.632812 118.128906 C 138.023438 118.128906 142.417969 121.65625 140.929688 122.289062 Z M 140.945312 122.289062 "/>
<path fill="none" stroke-width="5.449" stroke-linecap="butt" stroke-linejoin="round" stroke="rgb(91.372549%, 91.372549%, 91.372549%)" stroke-opacity="1" stroke-miterlimit="4" d="M 119.89 64 C 119.89 94.8675 94.8675 119.89125 64 119.89125 C 33.1325 119.89125 8.11 94.8675 8.11 64.00125 C 8.11 33.13375 33.1325 8.11 64 8.11 C 94.8675 8.11 119.89 33.1325 119.89 64 Z M 119.89 64 " transform="matrix(3.125, 0, 0, 3.125, 0, 0)"/>
<path fill="none" stroke-width="5.95" stroke-linecap="butt" stroke-linejoin="round" stroke="rgb(0%, 35.294118%, 49.019608%)" stroke-opacity="1" stroke-miterlimit="4" d="M 125.0225 64 C 125.0225 97.70375 97.7025 125.02375 64 125.02375 C 30.2975 125.02375 2.9775 97.70375 2.9775 64.00125 C 2.9775 30.2975 30.2975 2.9775 64 2.9775 C 97.7025 2.9775 125.0225 30.2975 125.0225 64 Z M 125.0225 64 " transform="matrix(3.125, 0, 0, 3.125, 0, 0)"/>
</svg>
