<?xml version="1.0" encoding="UTF-8"?>
<svg xmlns="http://www.w3.org/2000/svg" xmlns:xlink="http://www.w3.org/1999/xlink" width="300" height="300" viewBox="0 0 300 300">
<path fill-rule="nonzero" fill="rgb(0%, 35.294118%, 49.019608%)" fill-opacity="1" d="M 279.179688 149.753906 C 279.179688 220.871094 221.53125 278.519531 150.414062 278.519531 C 79.292969 278.519531 21.640625 220.871094 21.640625 149.757812 C 21.640625 78.636719 79.292969 20.984375 150.414062 20.984375 C 221.53125 20.984375 279.179688 78.636719 279.179688 149.757812 M 279.179688 149.757812 "/>
<path fill="none" stroke-width="2.349" stroke-linecap="butt" stroke-linejoin="miter" stroke="rgb(91.372549%, 91.372549%, 91.372549%)" stroke-opacity="1" stroke-miterlimit="10" d="M 99.008333 90.145 C 99.148333 95.751667 102.23 103.731667 102.23 103.731667 L 99.836667 107.023333 C 96.57 108.098333 95.546667 106.121667 94.726667 104.841667 C 94.726667 104.841667 92.061667 97.29 89.965 91.985 " transform="matrix(2.34375, 0, 0, 2.34375, 0, 0)"/>
<path fill="none" stroke-width="2.349" stroke-linecap="butt" stroke-linejoin="miter" stroke="rgb(91.372549%, 91.372549%, 91.372549%)" stroke-opacity="1" stroke-miterlimit="10" d="M 79.531667 117.821667 C 80.878333 112.755 82.578333 108.286667 85.171667 103.626667 C 85.171667 103.626667 88.491667 96.548333 90.198333 91.066667 C 90.588333 89.796667 91.875 89.028333 93.206667 89.235 C 94.27 89.406667 95.398333 89.563333 96.605 89.7 C 97.043333 89.758333 97.48 89.778333 97.918333 89.825 C 100.57 89.898333 103.141667 90.005 105.618333 90.025 C 106.835 90.036667 108.05 90.018333 109.266667 89.97 C 110.728333 89.893333 112.186667 89.768333 113.641667 89.595 C 113.968333 89.555 119.911667 88.798333 120.108333 62.941667 C 119.695 37.121667 112.448333 37.903333 112.156667 37.903333 C 101.586667 37.903333 95.651667 45.813333 85.456667 55.38 C 71.695 68.298333 63.113333 58.231667 59.558333 50.981667 C 57.366667 46.063333 55.41 40.613333 51.996667 37.418333 C 51.511667 36.961667 51.323333 36.258333 51.465 35.586667 L 51.855 33.77 C 51.915 33.531667 51.746667 33.313333 51.491667 33.286667 C 49.878333 33.181667 48.551667 33.738333 47.375 35.086667 C 46.773333 34.935 46.16 34.83 45.543333 34.773333 C 41.316667 34.316667 40.468333 36.466667 36.366667 36.466667 L 34.38 36.466667 C 30.67 36.466667 27.568333 38.231667 26.048333 40.833333 C 24.838333 42.906667 24.798333 45.165 26.786667 45.383333 C 26.173333 47.566667 28.216667 48.423333 32.781667 46.328333 C 32.781667 46.328333 36.376667 48.391667 41.348333 48.391667 C 44.04 48.391667 44.836667 48.816667 45.825 53.126667 C 48.205 63.598333 57.598333 80.825 76.595 80.825 C 76.793333 81.11 76.985 81.388333 77.173333 81.638333 C 80.398333 86.211667 81.388333 91.988333 79.523333 97.235 C 78.021667 101.476667 76.11 104.735 76.11 104.735 C 76.168333 105.316667 76.168333 105.88 76.168333 106.441667 C 76.075 110.898333 74.918333 115.946667 73.836667 118.996667 " transform="matrix(2.34375, 0, 0, 2.34375, 0, 0)"/>
<path fill-rule="nonzero" fill="rgb(100%, 100%, 100%)" fill-opacity="1" d="M 105.707031 91.71875 C 105.460938 91.855469 105.027344 91.902344 104.542969 91.953125 C 104.195312 94.070312 102.457031 95.699219 100.242188 95.699219 C 98.023438 95.699219 96.257812 94.070312 95.910156 91.953125 C 95.417969 91.953125 94.996094 91.820312 94.738281 91.71875 C 93.621094 91.25 96.917969 88.597656 100.222656 88.597656 C 103.519531 88.597656 106.8125 91.242188 105.699219 91.71875 Z M 105.707031 91.71875 "/>
<path fill="none" stroke-width="5.449" stroke-linecap="butt" stroke-linejoin="round" stroke="rgb(91.372549%, 91.372549%, 91.372549%)" stroke-opacity="1" stroke-miterlimit="4" d="M 119.89 64 C 119.89 94.868333 94.866667 119.891667 64 119.891667 C 33.133333 119.891667 8.11 94.868333 8.11 64.001667 C 8.11 33.133333 33.133333 8.11 64 8.11 C 94.866667 8.11 119.89 33.133333 119.89 64 Z M 119.89 64 " transform="matrix(2.34375, 0, 0, 2.34375, 0, 0)"/>
<path fill="none" stroke-width="5.95" stroke-linecap="butt" stroke-linejoin="round" stroke="rgb(0%, 35.294118%, 49.019608%)" stroke-opacity="1" stroke-miterlimit="4" d="M 125.023333 64 C 125.023333 97.703333 97.703333 125.023333 64 125.023333 C 30.296667 125.023333 2.976667 97.703333 2.976667 64.001667 C 2.976667 30.298333 30.296667 2.978333 64 2.978333 C 97.703333 2.978333 125.023333 30.298333 125.023333 64 Z M 125.023333 64 " transform="matrix(2.34375, 0, 0, 2.34375, 0, 0)"/>
</svg>
