<?xml version="1.0" encoding="UTF-8"?>
<svg xmlns="http://www.w3.org/2000/svg" xmlns:xlink="http://www.w3.org/1999/xlink" width="700" height="700" viewBox="0 0 700 700">
<path fill-rule="nonzero" fill="rgb(0%, 35.294118%, 49.019608%)" fill-opacity="1" d="M 651.421875 349.425781 C 651.421875 515.363281 516.90625 649.878906 350.960938 649.878906 C 185.019531 649.878906 50.5 515.371094 50.5 349.429688 C 50.5 183.488281 185.019531 48.96875 350.960938 48.96875 C 516.90625 48.96875 651.421875 183.488281 651.421875 349.429688 M 651.421875 349.429688 "/>
<path fill="none" stroke-width="2.349" stroke-linecap="butt" stroke-linejoin="miter" stroke="rgb(91.372549%, 91.372549%, 91.372549%)" stroke-opacity="1" stroke-miterlimit="10" d="M 99.007857 90.145 C 99.147857 95.750714 102.23 103.730714 102.23 103.730714 L 99.835714 107.024286 C 96.57 108.097857 95.545714 106.122143 94.725714 104.840714 C 94.725714 104.840714 92.062143 97.29 89.965 91.985 " transform="matrix(5.46875, 0, 0, 5.46875, 0, 0)"/>
<path fill="none" stroke-width="2.349" stroke-linecap="butt" stroke-linejoin="miter" stroke="rgb(91.372549%, 91.372549%, 91.372549%)" stroke-opacity="1" stroke-miterlimit="10" d="M 79.530714 117.820714 C 80.879286 112.755 82.577857 108.285714 85.170714 103.625714 C 85.170714 103.625714 88.492143 96.547857 90.199286 91.067143 C 90.589286 89.797143 91.875 89.027857 93.207143 89.235 C 94.27 89.407143 95.397857 89.562857 96.605 89.7 C 97.042857 89.759286 97.48 89.777857 97.917857 89.825 C 100.57 89.899286 103.140714 90.005 105.617857 90.025 C 106.834286 90.036429 108.050714 90.017857 109.265714 89.97 C 110.727857 89.893571 112.187143 89.768571 113.640714 89.595 C 113.969286 89.555 119.910714 88.797857 120.109286 62.942143 C 119.695 37.122143 112.449286 37.902857 112.155714 37.902857 C 101.585714 37.902857 95.652143 45.812857 85.457143 55.38 C 71.695 68.297857 63.112857 58.230714 59.559286 50.980714 C 57.367143 46.062857 55.41 40.614286 51.995714 37.419286 C 51.512143 36.962143 51.324286 36.259286 51.465 35.587143 L 51.855 33.77 C 51.915 33.532143 51.745714 33.312857 51.492143 33.285714 C 49.879286 33.180714 48.550714 33.739286 47.375 35.085714 C 46.773571 34.935 46.160714 34.830714 45.542857 34.774286 C 41.317143 34.317143 40.469286 36.465714 36.367143 36.465714 L 34.38 36.465714 C 30.67 36.465714 27.567857 38.230714 26.047857 40.832857 C 24.837857 42.907143 24.797857 45.165 26.785714 45.382857 C 26.172857 47.567143 28.215714 48.422857 32.782143 46.329286 C 32.782143 46.329286 36.375714 48.390714 41.349286 48.390714 C 44.04 48.390714 44.837143 48.817143 45.825 53.125714 C 48.205 63.597857 57.599286 80.825 76.595 80.825 C 76.794286 81.11 76.985 81.387857 77.172857 81.637857 C 80.399286 86.212143 81.387857 91.989286 79.524286 97.235 C 78.020714 101.477143 76.11 104.735 76.11 104.735 C 76.169286 105.317143 76.169286 105.88 76.169286 106.442143 C 76.075 110.899286 74.919286 115.945714 73.837143 118.997143 " transform="matrix(5.46875, 0, 0, 5.46875, 0, 0)"/>
<path fill-rule="nonzero" fill="rgb(100%, 100%, 100%)" fill-opacity="1" d="M 246.652344 214.007812 C 246.070312 214.324219 245.066406 214.433594 243.933594 214.5625 C 243.125 219.5 239.066406 223.300781 233.898438 223.300781 C 228.726562 223.300781 224.601562 219.5 223.792969 214.5625 C 222.636719 214.5625 221.660156 214.242188 221.058594 214.007812 C 218.449219 212.914062 226.144531 206.722656 233.855469 206.722656 C 241.542969 206.722656 249.234375 212.898438 246.628906 214.007812 Z M 246.652344 214.007812 "/>
<path fill="none" stroke-width="5.449" stroke-linecap="butt" stroke-linejoin="round" stroke="rgb(91.372549%, 91.372549%, 91.372549%)" stroke-opacity="1" stroke-miterlimit="4" d="M 119.89 64 C 119.89 94.867857 94.867143 119.890714 64 119.890714 C 33.132857 119.890714 8.11 94.867857 8.11 64.000714 C 8.11 33.134286 33.132857 8.11 64 8.11 C 94.867143 8.11 119.89 33.132857 119.89 64 Z M 119.89 64 " transform="matrix(5.46875, 0, 0, 5.46875, 0, 0)"/>
<path fill="none" stroke-width="5.95" stroke-linecap="butt" stroke-linejoin="round" stroke="rgb(0%, 35.294118%, 49.019608%)" stroke-opacity="1" stroke-miterlimit="4" d="M 125.022857 64 C 125.022857 97.704286 97.702857 125.024286 64 125.024286 C 30.297143 125.024286 2.977143 97.704286 2.977143 64.000714 C 2.977143 30.297857 30.297143 2.977857 64 2.977857 C 97.702857 2.977857 125.022857 30.297857 125.022857 64 Z M 125.022857 64 " transform="matrix(5.46875, 0, 0, 5.46875, 0, 0)"/>
</svg>
