<?xml version="1.0" encoding="UTF-8"?>
<svg xmlns="http://www.w3.org/2000/svg" xmlns:xlink="http://www.w3.org/1999/xlink" width="2750" height="2750" viewBox="0 0 2750 2750">
<path fill-rule="nonzero" fill="rgb(0%, 35.294118%, 49.019608%)" fill-opacity="1" d="M 2559.15625 1372.742188 C 2559.15625 2024.644531 2030.703125 2553.09375 1378.78125 2553.09375 C 726.859375 2553.09375 198.386719 2024.664062 198.386719 1372.765625 C 198.386719 720.84375 726.859375 192.371094 1378.78125 192.371094 C 2030.703125 192.371094 2559.15625 720.84375 2559.15625 1372.765625 M 2559.15625 1372.765625 "/>
<path fill="none" stroke-width="2.349" stroke-linecap="butt" stroke-linejoin="miter" stroke="rgb(91.372549%, 91.372549%, 91.372549%)" stroke-opacity="1" stroke-miterlimit="10" d="M 99.008 90.145091 C 99.148 95.750909 102.23 103.730909 102.23 103.730909 L 99.836 107.024 C 96.57 108.098 95.546 106.122 94.726 104.841091 C 94.726 104.841091 92.062 97.29 89.964909 91.985091 " transform="matrix(21.484375, 0, 0, 21.484375, 0, 0)"/>
<path fill="none" stroke-width="2.349" stroke-linecap="butt" stroke-linejoin="miter" stroke="rgb(91.372549%, 91.372549%, 91.372549%)" stroke-opacity="1" stroke-miterlimit="10" d="M 79.531091 117.821091 C 80.878909 112.754909 82.578 108.286 85.171091 103.626 C 85.171091 103.626 88.492 96.548 90.199091 91.067091 C 90.589091 89.797091 91.875091 89.028 93.207091 89.235091 C 94.27 89.407091 95.398 89.563091 96.605091 89.7 C 97.042909 89.759091 97.48 89.778 97.918 89.825091 C 100.57 89.899091 103.141091 90.005091 105.618 90.025091 C 106.834182 90.036182 108.050545 90.018 109.266 89.97 C 110.728 89.893636 112.187273 89.768545 113.641091 89.595091 C 113.969091 89.555091 119.910909 88.798 120.109091 62.942 C 119.694909 37.122 112.449091 37.903091 112.156 37.903091 C 101.586 37.903091 95.652 45.813091 85.457091 55.38 C 71.695091 68.298 63.113091 58.231091 59.559091 50.981091 C 57.367091 46.063091 55.41 40.614 51.996 37.419091 C 51.512 36.962 51.324 36.259091 51.465091 35.587091 L 51.855091 33.77 C 51.915091 33.532 51.746 33.313091 51.492 33.286 C 49.879091 33.181091 48.551091 33.739091 47.375091 35.086 C 46.773273 34.934727 46.160727 34.830545 45.543091 34.774 C 41.317091 34.317091 40.469091 36.466 36.367091 36.466 L 34.38 36.466 C 30.67 36.466 27.568 38.231091 26.048 40.833091 C 24.838 42.907091 24.798 45.165091 26.786 45.383091 C 26.173091 47.566909 28.216 48.422909 32.782 46.329091 C 32.782 46.329091 36.376 48.390909 41.349091 48.390909 C 44.04 48.390909 44.837091 48.817091 45.825091 53.126 C 48.205091 63.598 57.598909 80.825091 76.594909 80.825091 C 76.794 81.11 76.985091 81.388 77.173091 81.638 C 80.398909 86.212 81.388 91.989091 79.524 97.234909 C 78.021091 101.477091 76.11 104.734909 76.11 104.734909 C 76.169091 105.317091 76.169091 105.88 76.169091 106.442 C 76.074909 110.898909 74.918909 115.946 73.837091 118.996909 " transform="matrix(21.484375, 0, 0, 21.484375, 0, 0)"/>
<path fill-rule="nonzero" fill="rgb(100%, 100%, 100%)" fill-opacity="1" d="M 968.988281 840.75 C 966.710938 841.992188 962.757812 842.425781 958.308594 842.917969 C 955.128906 862.320312 939.1875 877.25 918.886719 877.25 C 898.5625 877.25 882.363281 862.320312 879.183594 842.917969 C 874.648438 842.917969 870.804688 841.671875 868.441406 840.75 C 858.195312 836.453125 888.421875 812.132812 918.714844 812.132812 C 948.921875 812.132812 979.128906 836.386719 968.902344 840.75 Z M 968.988281 840.75 "/>
<path fill="none" stroke-width="5.449" stroke-linecap="butt" stroke-linejoin="round" stroke="rgb(91.372549%, 91.372549%, 91.372549%)" stroke-opacity="1" stroke-miterlimit="4" d="M 119.89 64 C 119.89 94.868 94.866909 119.890909 64 119.890909 C 33.132909 119.890909 8.11 94.868 8.11 64.001091 C 8.11 33.134 33.133091 8.11 64 8.11 C 94.866909 8.11 119.89 33.133091 119.89 64 Z M 119.89 64 " transform="matrix(21.484375, 0, 0, 21.484375, 0, 0)"/>
<path fill="none" stroke-width="5.95" stroke-linecap="butt" stroke-linejoin="round" stroke="rgb(0%, 35.294118%, 49.019608%)" stroke-opacity="1" stroke-miterlimit="4" d="M 125.022909 64 C 125.022909 97.704 97.702909 125.024 64 125.024 C 30.296909 125.024 2.977091 97.704 2.977091 64.001091 C 2.977091 30.298 30.297091 2.978 64 2.978 C 97.702909 2.978 125.022909 30.298 125.022909 64 Z M 125.022909 64 " transform="matrix(21.484375, 0, 0, 21.484375, 0, 0)"/>
</svg>
