<?xml version="1.0" encoding="UTF-8"?>
<svg xmlns="http://www.w3.org/2000/svg" xmlns:xlink="http://www.w3.org/1999/xlink" width="1400" height="1400" viewBox="0 0 1400 1400">
<path fill-rule="nonzero" fill="rgb(0%, 35.294118%, 49.019608%)" fill-opacity="1" d="M 1302.84375 698.851562 C 1302.84375 1030.726562 1033.8125 1299.757812 701.925781 1299.757812 C 370.039062 1299.757812 100.996094 1030.738281 100.996094 698.863281 C 100.996094 366.976562 370.039062 97.933594 701.925781 97.933594 C 1033.8125 97.933594 1302.84375 366.976562 1302.84375 698.863281 M 1302.84375 698.863281 "/>
<path fill="none" stroke-width="2.349" stroke-linecap="butt" stroke-linejoin="miter" stroke="rgb(91.372549%, 91.372549%, 91.372549%)" stroke-opacity="1" stroke-miterlimit="10" d="M 99.007857 90.145 C 99.147857 95.751071 102.23 103.731071 102.23 103.731071 L 99.836071 107.023929 C 96.57 108.097857 95.546071 106.122143 94.726071 104.841071 C 94.726071 104.841071 92.062143 97.29 89.965 91.985 " transform="matrix(10.9375, 0, 0, 10.9375, 0, 0)"/>
<path fill="none" stroke-width="2.349" stroke-linecap="butt" stroke-linejoin="miter" stroke="rgb(91.372549%, 91.372549%, 91.372549%)" stroke-opacity="1" stroke-miterlimit="10" d="M 79.531071 117.821071 C 80.878929 112.755 82.577857 108.286071 85.171071 103.626071 C 85.171071 103.626071 88.492143 96.547857 90.198929 91.067143 C 90.588929 89.797143 91.875 89.027857 93.207143 89.235 C 94.27 89.407143 95.397857 89.562857 96.605 89.7 C 97.042857 89.758929 97.48 89.777857 97.917857 89.825 C 100.57 89.898929 103.141071 90.005 105.617857 90.025 C 106.834286 90.036429 108.050714 90.017857 109.266071 89.97 C 110.728214 89.893571 112.187143 89.768571 113.641071 89.595 C 113.968929 89.555 119.911071 88.797857 120.108929 62.942143 C 119.695 37.122143 112.448929 37.902857 112.156071 37.902857 C 101.586071 37.902857 95.652143 45.812857 85.457143 55.38 C 71.695 68.297857 63.112857 58.231071 59.558929 50.981071 C 57.367143 46.062857 55.41 40.613929 51.996071 37.418929 C 51.512143 36.962143 51.323929 36.258929 51.465 35.587143 L 51.855 33.77 C 51.915 33.532143 51.746071 33.312857 51.492143 33.286071 C 49.878929 33.181071 48.551071 33.738929 47.375 35.086071 C 46.773214 34.934643 46.160714 34.830357 45.542857 34.773929 C 41.317143 34.317143 40.468929 36.466071 36.367143 36.466071 L 34.38 36.466071 C 30.67 36.466071 27.567857 38.231071 26.047857 40.832857 C 24.837857 42.907143 24.797857 45.165 26.786071 45.382857 C 26.172857 47.567143 28.216071 48.422857 32.782143 46.328929 C 32.782143 46.328929 36.376071 48.391071 41.348929 48.391071 C 44.04 48.391071 44.837143 48.817143 45.825 53.126071 C 48.205 63.597857 57.598929 80.825 76.595 80.825 C 76.793929 81.11 76.985 81.387857 77.172857 81.637857 C 80.398929 86.212143 81.387857 91.988929 79.523929 97.235 C 78.021071 101.477143 76.11 104.735 76.11 104.735 C 76.168929 105.317143 76.168929 105.88 76.168929 106.442143 C 76.075 110.898929 74.918929 115.946071 73.837143 118.997143 " transform="matrix(10.9375, 0, 0, 10.9375, 0, 0)"/>
<path fill-rule="nonzero" fill="rgb(100%, 100%, 100%)" fill-opacity="1" d="M 493.304688 428.015625 C 492.144531 428.652344 490.132812 428.871094 487.867188 429.121094 C 486.25 439 478.132812 446.601562 467.796875 446.601562 C 457.449219 446.601562 449.203125 439 447.585938 429.121094 C 445.277344 429.121094 443.320312 428.488281 442.117188 428.015625 C 436.898438 425.828125 452.289062 413.449219 467.710938 413.449219 C 483.085938 413.449219 498.464844 425.796875 493.257812 428.015625 Z M 493.304688 428.015625 "/>
<path fill="none" stroke-width="5.449" stroke-linecap="butt" stroke-linejoin="round" stroke="rgb(91.372549%, 91.372549%, 91.372549%)" stroke-opacity="1" stroke-miterlimit="4" d="M 119.89 64 C 119.89 94.867857 94.867143 119.891071 64 119.891071 C 33.132857 119.891071 8.11 94.867857 8.11 64.001071 C 8.11 33.133929 33.132857 8.11 64 8.11 C 94.867143 8.11 119.89 33.132857 119.89 64 Z M 119.89 64 " transform="matrix(10.9375, 0, 0, 10.9375, 0, 0)"/>
<path fill="none" stroke-width="5.95" stroke-linecap="butt" stroke-linejoin="round" stroke="rgb(0%, 35.294118%, 49.019608%)" stroke-opacity="1" stroke-miterlimit="4" d="M 125.022857 64 C 125.022857 97.703929 97.702857 125.023929 64 125.023929 C 30.297143 125.023929 2.977143 97.703929 2.977143 64.001071 C 2.977143 30.297857 30.297143 2.977857 64 2.977857 C 97.702857 2.977857 125.022857 30.297857 125.022857 64 Z M 125.022857 64 " transform="matrix(10.9375, 0, 0, 10.9375, 0, 0)"/>
</svg>
