<?xml version="1.0" encoding="UTF-8"?>
<svg xmlns="http://www.w3.org/2000/svg" xmlns:xlink="http://www.w3.org/1999/xlink" width="1300" height="1300" viewBox="0 0 1300 1300">
<path fill-rule="nonzero" fill="rgb(0%, 35.294118%, 49.019608%)" fill-opacity="1" d="M 1209.78125 648.933594 C 1209.78125 957.105469 959.96875 1206.917969 651.789062 1206.917969 C 343.605469 1206.917969 93.78125 957.113281 93.78125 648.945312 C 93.78125 340.761719 343.605469 90.9375 651.789062 90.9375 C 959.96875 90.9375 1209.78125 340.761719 1209.78125 648.945312 M 1209.78125 648.945312 "/>
<path fill="none" stroke-width="2.349" stroke-linecap="butt" stroke-linejoin="miter" stroke="rgb(91.372549%, 91.372549%, 91.372549%)" stroke-opacity="1" stroke-miterlimit="10" d="M 99.008077 90.145 C 99.148077 95.751154 102.23 103.731154 102.23 103.731154 L 99.836154 107.023846 C 96.57 108.098077 95.546154 106.121923 94.726154 104.841154 C 94.726154 104.841154 92.061923 97.29 89.965 91.985 " transform="matrix(10.15625, 0, 0, 10.15625, 0, 0)"/>
<path fill="none" stroke-width="2.349" stroke-linecap="butt" stroke-linejoin="miter" stroke="rgb(91.372549%, 91.372549%, 91.372549%)" stroke-opacity="1" stroke-miterlimit="10" d="M 79.531154 117.821154 C 80.878846 112.755 82.578077 108.286154 85.171154 103.626154 C 85.171154 103.626154 88.491923 96.548077 90.198846 91.066923 C 90.588846 89.796923 91.875 89.028077 93.206923 89.235 C 94.27 89.406923 95.398077 89.563077 96.605 89.7 C 97.043077 89.758846 97.48 89.778077 97.918077 89.825 C 100.57 89.898846 103.141154 90.005 105.618077 90.025 C 106.834231 90.036154 108.050769 90.018077 109.266154 89.97 C 110.728077 89.893462 112.187308 89.768462 113.641154 89.595 C 113.968846 89.555 119.911154 88.798077 120.108846 62.941923 C 119.695 37.121923 112.448846 37.903077 112.156154 37.903077 C 101.586154 37.903077 95.651923 45.813077 85.456923 55.38 C 71.695 68.298077 63.113077 58.231154 59.558846 50.981154 C 57.366923 46.063077 55.41 40.613846 51.996154 37.418846 C 51.511923 36.961923 51.323846 36.258846 51.465 35.586923 L 51.855 33.77 C 51.915 33.531923 51.746154 33.313077 51.491923 33.286154 C 49.878846 33.181154 48.551154 33.738846 47.375 35.086154 C 46.773462 34.934615 46.160769 34.830385 45.543077 34.773846 C 41.316923 34.316923 40.468846 36.466154 36.366923 36.466154 L 34.38 36.466154 C 30.67 36.466154 27.568077 38.231154 26.048077 40.833077 C 24.838077 42.906923 24.798077 45.165 26.786154 45.383077 C 26.173077 47.566923 28.216154 48.423077 32.781923 46.328846 C 32.781923 46.328846 36.376154 48.391154 41.348846 48.391154 C 44.04 48.391154 44.836923 48.816923 45.825 53.126154 C 48.205 63.598077 57.598846 80.825 76.595 80.825 C 76.793846 81.11 76.985 81.388077 77.173077 81.638077 C 80.398846 86.211923 81.388077 91.988846 79.523846 97.235 C 78.021154 101.476923 76.11 104.735 76.11 104.735 C 76.168846 105.316923 76.168846 105.88 76.168846 106.441923 C 76.075 110.898846 74.918846 115.946154 73.836923 118.996923 " transform="matrix(10.15625, 0, 0, 10.15625, 0, 0)"/>
<path fill-rule="nonzero" fill="rgb(100%, 100%, 100%)" fill-opacity="1" d="M 458.066406 397.445312 C 456.992188 398.035156 455.121094 398.238281 453.019531 398.46875 C 451.515625 407.640625 443.980469 414.699219 434.382812 414.699219 C 424.773438 414.699219 417.117188 407.640625 415.613281 398.46875 C 413.472656 398.46875 411.652344 397.882812 410.535156 397.445312 C 405.691406 395.414062 419.980469 383.917969 434.300781 383.917969 C 448.582031 383.917969 462.859375 395.382812 458.027344 397.445312 Z M 458.066406 397.445312 "/>
<path fill="none" stroke-width="5.449" stroke-linecap="butt" stroke-linejoin="round" stroke="rgb(91.372549%, 91.372549%, 91.372549%)" stroke-opacity="1" stroke-miterlimit="4" d="M 119.89 64 C 119.89 94.868077 94.866923 119.891154 64 119.891154 C 33.133077 119.891154 8.11 94.868077 8.11 64.001154 C 8.11 33.133846 33.133077 8.11 64 8.11 C 94.866923 8.11 119.89 33.133077 119.89 64 Z M 119.89 64 " transform="matrix(10.15625, 0, 0, 10.15625, 0, 0)"/>
<path fill="none" stroke-width="5.95" stroke-linecap="butt" stroke-linejoin="round" stroke="rgb(0%, 35.294118%, 49.019608%)" stroke-opacity="1" stroke-miterlimit="4" d="M 125.023077 64 C 125.023077 97.703846 97.703077 125.023846 64 125.023846 C 30.296923 125.023846 2.976923 97.703846 2.976923 64.001154 C 2.976923 30.298077 30.296923 2.978077 64 2.978077 C 97.703077 2.978077 125.023077 30.298077 125.023077 64 Z M 125.023077 64 " transform="matrix(10.15625, 0, 0, 10.15625, 0, 0)"/>
</svg>
