<?xml version="1.0" encoding="UTF-8"?>
<svg xmlns="http://www.w3.org/2000/svg" xmlns:xlink="http://www.w3.org/1999/xlink" width="48" height="48" viewBox="0 0 48 48">
<path fill-rule="nonzero" fill="rgb(0%, 35.294118%, 49.019608%)" fill-opacity="1" d="M 44.667969 23.960938 C 44.667969 35.339844 35.445312 44.5625 24.066406 44.5625 C 12.6875 44.5625 3.460938 35.339844 3.460938 23.960938 C 3.460938 12.582031 12.6875 3.359375 24.066406 3.359375 C 35.445312 3.359375 44.667969 12.582031 44.667969 23.960938 M 44.667969 23.960938 "/>
<path fill="none" stroke-width="2.349" stroke-linecap="butt" stroke-linejoin="miter" stroke="rgb(91.372549%, 91.372549%, 91.372549%)" stroke-opacity="1" stroke-miterlimit="10" d="M 99.010417 90.145833 C 99.145833 95.75 102.229167 103.729167 102.229167 103.729167 L 99.833333 107.020833 C 96.572917 108.09375 95.541667 106.125 94.729167 104.84375 C 94.729167 104.84375 92.0625 97.291667 89.96875 91.989583 " transform="matrix(0.375, 0, 0, 0.375, 0, 0)"/>
<path fill="none" stroke-width="2.349" stroke-linecap="butt" stroke-linejoin="miter" stroke="rgb(91.372549%, 91.372549%, 91.372549%)" stroke-opacity="1" stroke-miterlimit="10" d="M 79.53125 117.822917 C 80.875 112.75 82.572917 108.28125 85.166667 103.625 C 85.166667 103.625 88.489583 96.552083 90.197917 91.0625 C 90.59375 89.802083 91.875 89.03125 93.208333 89.239583 C 94.270833 89.40625 95.395833 89.5625 96.604167 89.697917 C 97.041667 89.760417 97.479167 89.78125 97.916667 89.822917 C 100.572917 89.895833 103.145833 90 105.614583 90.020833 C 106.833333 90.03125 108.052083 90.020833 109.270833 89.96875 C 110.729167 89.895833 112.1875 89.770833 113.645833 89.59375 C 113.96875 89.552083 119.90625 88.802083 120.104167 62.9375 C 119.697917 37.125 112.447917 37.90625 112.15625 37.90625 C 101.583333 37.90625 95.65625 45.8125 85.458333 55.375 C 71.697917 68.302083 63.114583 58.229167 59.5625 50.979167 C 57.364583 46.0625 55.40625 40.614583 52 37.416667 C 51.510417 36.958333 51.322917 36.260417 51.46875 35.583333 L 51.854167 33.770833 C 51.916667 33.53125 51.75 33.3125 51.489583 33.28125 C 49.875 33.177083 48.552083 33.739583 47.375 35.083333 C 46.770833 34.9375 46.15625 34.833333 45.541667 34.770833 C 41.3125 34.3125 40.46875 36.46875 36.364583 36.46875 L 34.375 36.46875 C 30.666667 36.46875 27.572917 38.229167 26.052083 40.833333 C 24.833333 42.90625 24.802083 45.166667 26.78125 45.385417 C 26.177083 47.5625 28.21875 48.427083 32.78125 46.333333 C 32.78125 46.333333 36.375 48.395833 41.354167 48.395833 C 44.041667 48.395833 44.833333 48.8125 45.822917 53.125 C 48.208333 63.59375 57.604167 80.822917 76.59375 80.822917 C 76.791667 81.114583 76.989583 81.385417 77.177083 81.635417 C 80.395833 86.208333 81.385417 91.989583 79.520833 97.239583 C 78.020833 101.479167 76.114583 104.739583 76.114583 104.739583 C 76.166667 105.3125 76.166667 105.875 76.166667 106.4375 C 76.072917 110.895833 74.916667 115.947917 73.833333 119 " transform="matrix(0.375, 0, 0, 0.375, 0, 0)"/>
<path fill-rule="nonzero" fill="rgb(100%, 100%, 100%)" fill-opacity="1" d="M 16.914062 14.675781 C 16.875 14.695312 16.804688 14.703125 16.726562 14.710938 C 16.671875 15.050781 16.394531 15.3125 16.039062 15.3125 C 15.683594 15.3125 15.402344 15.050781 15.347656 14.710938 C 15.265625 14.710938 15.199219 14.691406 15.160156 14.675781 C 14.980469 14.601562 15.507812 14.175781 16.035156 14.175781 C 16.5625 14.175781 17.089844 14.597656 16.910156 14.675781 Z M 16.914062 14.675781 "/>
<path fill="none" stroke-width="5.449" stroke-linecap="butt" stroke-linejoin="round" stroke="rgb(91.372549%, 91.372549%, 91.372549%)" stroke-opacity="1" stroke-miterlimit="4" d="M 119.885417 64 C 119.885417 94.864583 94.864583 119.895833 64 119.895833 C 33.135417 119.895833 8.114583 94.864583 8.114583 64 C 8.114583 33.135417 33.135417 8.114583 64 8.114583 C 94.864583 8.114583 119.885417 33.135417 119.885417 64 Z M 119.885417 64 " transform="matrix(0.375, 0, 0, 0.375, 0, 0)"/>
<path fill="none" stroke-width="5.95" stroke-linecap="butt" stroke-linejoin="round" stroke="rgb(0%, 35.294118%, 49.019608%)" stroke-opacity="1" stroke-miterlimit="4" d="M 125.020833 64 C 125.020833 97.708333 97.697917 125.020833 64 125.020833 C 30.302083 125.020833 2.979167 97.708333 2.979167 64 C 2.979167 30.302083 30.302083 2.979167 64 2.979167 C 97.697917 2.979167 125.020833 30.302083 125.020833 64 Z M 125.020833 64 " transform="matrix(0.375, 0, 0, 0.375, 0, 0)"/>
</svg>
