<?xml version="1.0" encoding="UTF-8"?>
<svg xmlns="http://www.w3.org/2000/svg" xmlns:xlink="http://www.w3.org/1999/xlink" width="16" height="16" viewBox="0 0 16 16">
<path fill-rule="nonzero" fill="rgb(0%, 35.294118%, 49.019608%)" fill-opacity="1" d="M 14.890625 7.988281 C 14.890625 11.78125 11.816406 14.855469 8.023438 14.855469 C 4.230469 14.855469 1.152344 11.78125 1.152344 7.988281 C 1.152344 4.195312 4.230469 1.121094 8.023438 1.121094 C 11.816406 1.121094 14.890625 4.195312 14.890625 7.988281 M 14.890625 7.988281 "/>
<path fill="none" stroke-width="2.349" stroke-linecap="butt" stroke-linejoin="miter" stroke="rgb(91.372549%, 91.372549%, 91.372549%)" stroke-opacity="1" stroke-miterlimit="10" d="M 99 90.15625 C 99.15625 95.75 102.21875 103.71875 102.21875 103.71875 L 99.84375 107.03125 C 96.5625 108.09375 95.53125 106.125 94.71875 104.84375 C 94.71875 104.84375 92.0625 97.28125 89.96875 92 " transform="matrix(0.125, 0, 0, 0.125, 0, 0)"/>
<path fill="none" stroke-width="2.349" stroke-linecap="butt" stroke-linejoin="miter" stroke="rgb(91.372549%, 91.372549%, 91.372549%)" stroke-opacity="1" stroke-miterlimit="10" d="M 79.53125 117.8125 C 80.875 112.75 82.5625 108.28125 85.15625 103.625 C 85.15625 103.625 88.5 96.5625 90.1875 91.0625 C 90.59375 89.8125 91.875 89.03125 93.21875 89.25 C 94.28125 89.40625 95.40625 89.5625 96.59375 89.6875 C 97.03125 89.75 97.46875 89.78125 97.90625 89.8125 C 100.5625 89.90625 103.15625 90 105.625 90.03125 C 106.84375 90.03125 108.0625 90.03125 109.28125 89.96875 C 110.71875 89.90625 112.1875 89.78125 113.65625 89.59375 C 113.96875 89.5625 119.90625 88.8125 120.09375 62.9375 C 119.6875 37.125 112.4375 37.90625 112.15625 37.90625 C 101.59375 37.90625 95.65625 45.8125 85.46875 55.375 C 71.6875 68.3125 63.125 58.21875 59.5625 50.96875 C 57.375 46.0625 55.40625 40.625 52 37.40625 C 51.5 36.96875 51.3125 36.25 51.46875 35.59375 L 51.84375 33.78125 C 51.90625 33.53125 51.75 33.3125 51.5 33.28125 C 49.875 33.1875 48.5625 33.75 47.375 35.09375 C 46.78125 34.9375 46.15625 34.84375 45.53125 34.78125 C 41.3125 34.3125 40.46875 36.46875 36.375 36.46875 L 34.375 36.46875 C 30.65625 36.46875 27.5625 38.21875 26.0625 40.84375 C 24.84375 42.90625 24.8125 45.15625 26.78125 45.375 C 26.1875 47.5625 28.21875 48.4375 32.78125 46.34375 C 32.78125 46.34375 36.375 48.40625 41.34375 48.40625 C 44.03125 48.40625 44.84375 48.8125 45.8125 53.125 C 48.21875 63.59375 57.59375 80.8125 76.59375 80.8125 C 76.78125 81.125 77 81.375 77.1875 81.625 C 80.40625 86.21875 81.375 92 79.53125 97.25 C 78.03125 101.46875 76.125 104.75 76.125 104.75 C 76.15625 105.3125 76.15625 105.875 76.15625 106.4375 C 76.0625 110.90625 74.90625 115.9375 73.84375 119 " transform="matrix(0.125, 0, 0, 0.125, 0, 0)"/>
<path fill-rule="nonzero" fill="rgb(100%, 100%, 100%)" fill-opacity="1" d="M 5.636719 4.890625 C 5.625 4.898438 5.601562 4.902344 5.574219 4.902344 C 5.558594 5.015625 5.464844 5.105469 5.347656 5.105469 C 5.226562 5.105469 5.132812 5.015625 5.117188 4.902344 C 5.089844 4.902344 5.066406 4.898438 5.054688 4.890625 C 4.992188 4.867188 5.167969 4.726562 5.34375 4.726562 C 5.519531 4.726562 5.695312 4.867188 5.636719 4.890625 Z M 5.636719 4.890625 "/>
<path fill="none" stroke-width="5.449" stroke-linecap="butt" stroke-linejoin="round" stroke="rgb(91.372549%, 91.372549%, 91.372549%)" stroke-opacity="1" stroke-miterlimit="4" d="M 119.875 64 C 119.875 94.875 94.875 119.90625 64 119.90625 C 33.125 119.90625 8.125 94.875 8.125 64 C 8.125 33.125 33.125 8.125 64 8.125 C 94.875 8.125 119.875 33.125 119.875 64 Z M 119.875 64 " transform="matrix(0.125, 0, 0, 0.125, 0, 0)"/>
<path fill="none" stroke-width="5.95" stroke-linecap="butt" stroke-linejoin="round" stroke="rgb(0%, 35.294118%, 49.019608%)" stroke-opacity="1" stroke-miterlimit="4" d="M 125.03125 64 C 125.03125 97.71875 97.6875 125.03125 64 125.03125 C 30.3125 125.03125 2.96875 97.71875 2.96875 64 C 2.96875 30.3125 30.3125 2.96875 64 2.96875 C 97.6875 2.96875 125.03125 30.3125 125.03125 64 Z M 125.03125 64 " transform="matrix(0.125, 0, 0, 0.125, 0, 0)"/>
</svg>
