<?xml version="1.0" encoding="UTF-8"?>
<svg xmlns="http://www.w3.org/2000/svg" xmlns:xlink="http://www.w3.org/1999/xlink" width="3500" height="3500" viewBox="0 0 3500 3500">
<path fill-rule="nonzero" fill="rgb(0%, 35.294118%, 49.019608%)" fill-opacity="1" d="M 3257.105469 1747.128906 C 3257.105469 2576.820312 2584.53125 3249.394531 1754.8125 3249.394531 C 925.09375 3249.394531 252.492188 2576.847656 252.492188 1747.15625 C 252.492188 917.4375 925.09375 244.835938 1754.8125 244.835938 C 2584.53125 244.835938 3257.105469 917.4375 3257.105469 1747.15625 M 3257.105469 1747.15625 "/>
<path fill="none" stroke-width="2.349" stroke-linecap="butt" stroke-linejoin="miter" stroke="rgb(91.372549%, 91.372549%, 91.372549%)" stroke-opacity="1" stroke-miterlimit="10" d="M 99.008 90.145 C 99.148 95.751 102.23 103.731 102.23 103.731 L 99.836 107.024 C 96.57 108.098 95.546 106.122 94.726 104.841 C 94.726 104.841 92.062 97.29 89.965 91.985 " transform="matrix(27.34375, 0, 0, 27.34375, 0, 0)"/>
<path fill="none" stroke-width="2.349" stroke-linecap="butt" stroke-linejoin="miter" stroke="rgb(91.372549%, 91.372549%, 91.372549%)" stroke-opacity="1" stroke-miterlimit="10" d="M 79.531 117.821 C 80.879 112.755 82.578 108.286 85.171 103.626 C 85.171 103.626 88.492 96.548 90.199 91.067 C 90.589 89.797 91.875 89.028 93.207 89.235 C 94.27 89.407 95.398 89.563 96.605 89.7 C 97.043 89.759 97.48 89.778 97.918 89.825 C 100.57 89.899 103.141 90.005 105.618 90.025 C 106.834286 90.036286 108.050571 90.017857 109.266 89.97 C 110.728143 89.893571 112.187286 89.768429 113.641 89.595 C 113.969 89.555 119.911 88.798 120.109 62.942 C 119.695 37.122 112.449 37.903 112.156 37.903 C 101.586 37.903 95.652 45.813 85.457 55.38 C 71.695 68.298 63.113 58.231 59.559 50.981 C 57.367 46.063 55.41 40.614 51.996 37.419 C 51.512 36.962 51.324 36.259 51.465 35.587 L 51.855 33.77 C 51.915 33.532 51.746 33.313 51.492 33.286 C 49.879 33.181 48.551 33.739 47.375 35.086 C 46.773286 34.934857 46.160857 34.830429 45.543 34.774 C 41.317 34.317 40.469 36.466 36.367 36.466 L 34.38 36.466 C 30.67 36.466 27.568 38.231 26.048 40.833 C 24.838 42.907 24.798 45.165 26.786 45.383 C 26.173 47.567 28.216 48.423 32.782 46.329 C 32.782 46.329 36.376 48.391 41.349 48.391 C 44.04 48.391 44.837 48.817 45.825 53.126 C 48.205 63.598 57.599 80.825 76.595 80.825 C 76.794 81.11 76.985 81.388 77.173 81.638 C 80.399 86.212 81.388 91.989 79.524 97.235 C 78.021 101.477 76.11 104.735 76.11 104.735 C 76.169 105.317 76.169 105.88 76.169 106.442 C 76.075 110.899 74.919 115.946 73.837 118.997 " transform="matrix(27.34375, 0, 0, 27.34375, 0, 0)"/>
<path fill-rule="nonzero" fill="rgb(100%, 100%, 100%)" fill-opacity="1" d="M 1233.257812 1070.042969 C 1230.359375 1071.628906 1225.328125 1072.175781 1219.667969 1072.804688 C 1215.621094 1097.496094 1195.332031 1116.5 1169.492188 1116.5 C 1143.625 1116.5 1123.007812 1097.496094 1118.960938 1072.804688 C 1113.191406 1072.804688 1108.296875 1071.21875 1105.289062 1070.042969 C 1092.246094 1064.574219 1130.71875 1033.621094 1169.273438 1033.621094 C 1207.71875 1033.621094 1246.164062 1064.492188 1233.148438 1070.042969 Z M 1233.257812 1070.042969 "/>
<path fill="none" stroke-width="5.449" stroke-linecap="butt" stroke-linejoin="round" stroke="rgb(91.372549%, 91.372549%, 91.372549%)" stroke-opacity="1" stroke-miterlimit="4" d="M 119.89 64 C 119.89 94.868 94.867 119.891 64 119.891 C 33.133 119.891 8.11 94.868 8.11 64.001 C 8.11 33.134 33.133 8.11 64 8.11 C 94.867 8.11 119.89 33.133 119.89 64 Z M 119.89 64 " transform="matrix(27.34375, 0, 0, 27.34375, 0, 0)"/>
<path fill="none" stroke-width="5.95" stroke-linecap="butt" stroke-linejoin="round" stroke="rgb(0%, 35.294118%, 49.019608%)" stroke-opacity="1" stroke-miterlimit="4" d="M 125.023 64 C 125.023 97.704 97.703 125.024 64 125.024 C 30.297 125.024 2.977 97.704 2.977 64.001 C 2.977 30.298 30.297 2.978 64 2.978 C 97.703 2.978 125.023 30.298 125.023 64 Z M 125.023 64 " transform="matrix(27.34375, 0, 0, 27.34375, 0, 0)"/>
</svg>
