<?xml version="1.0" encoding="UTF-8"?>
<svg xmlns="http://www.w3.org/2000/svg" xmlns:xlink="http://www.w3.org/1999/xlink" width="600" height="600" viewBox="0 0 600 600">
<path fill-rule="nonzero" fill="rgb(0%, 35.294118%, 49.019608%)" fill-opacity="1" d="M 558.359375 299.507812 C 558.359375 441.742188 443.0625 557.039062 300.824219 557.039062 C 158.585938 557.039062 43.285156 441.746094 43.285156 299.511719 C 43.285156 157.273438 158.585938 41.972656 300.824219 41.972656 C 443.0625 41.972656 558.359375 157.273438 558.359375 299.511719 M 558.359375 299.511719 "/>
<path fill="none" stroke-width="2.349" stroke-linecap="butt" stroke-linejoin="miter" stroke="rgb(91.372549%, 91.372549%, 91.372549%)" stroke-opacity="1" stroke-miterlimit="10" d="M 99.008333 90.145 C 99.148333 95.750833 102.23 103.730833 102.23 103.730833 L 99.835833 107.024167 C 96.57 108.098333 95.545833 106.121667 94.725833 104.840833 C 94.725833 104.840833 92.061667 97.29 89.965 91.985 " transform="matrix(4.6875, 0, 0, 4.6875, 0, 0)"/>
<path fill="none" stroke-width="2.349" stroke-linecap="butt" stroke-linejoin="miter" stroke="rgb(91.372549%, 91.372549%, 91.372549%)" stroke-opacity="1" stroke-miterlimit="10" d="M 79.530833 117.820833 C 80.879167 112.755 82.578333 108.285833 85.170833 103.625833 C 85.170833 103.625833 88.491667 96.548333 90.199167 91.066667 C 90.589167 89.796667 91.875 89.028333 93.206667 89.235 C 94.27 89.406667 95.398333 89.563333 96.605 89.7 C 97.043333 89.759167 97.48 89.778333 97.918333 89.825 C 100.57 89.899167 103.140833 90.005 105.618333 90.025 C 106.834167 90.036667 108.050833 90.0175 109.265833 89.97 C 110.728333 89.893333 112.1875 89.768333 113.640833 89.595 C 113.969167 89.555 119.910833 88.798333 120.109167 62.941667 C 119.695 37.121667 112.449167 37.903333 112.155833 37.903333 C 101.585833 37.903333 95.651667 45.813333 85.456667 55.38 C 71.695 68.298333 63.113333 58.230833 59.559167 50.980833 C 57.366667 46.063333 55.41 40.614167 51.995833 37.419167 C 51.511667 36.961667 51.324167 36.259167 51.465 35.586667 L 51.855 33.77 C 51.915 33.531667 51.745833 33.313333 51.491667 33.285833 C 49.879167 33.180833 48.550833 33.739167 47.375 35.085833 C 46.773333 34.935 46.160833 34.830833 45.543333 34.774167 C 41.316667 34.316667 40.469167 36.465833 36.366667 36.465833 L 34.38 36.465833 C 30.67 36.465833 27.568333 38.230833 26.048333 40.833333 C 24.838333 42.906667 24.798333 45.165 26.785833 45.383333 C 26.173333 47.566667 28.215833 48.423333 32.781667 46.329167 C 32.781667 46.329167 36.375833 48.390833 41.349167 48.390833 C 44.04 48.390833 44.836667 48.816667 45.825 53.125833 C 48.205 63.598333 57.599167 80.825 76.595 80.825 C 76.794167 81.11 76.985 81.388333 77.173333 81.638333 C 80.399167 86.211667 81.388333 91.989167 79.524167 97.235 C 78.020833 101.476667 76.11 104.735 76.11 104.735 C 76.169167 105.316667 76.169167 105.88 76.169167 106.441667 C 76.075 110.899167 74.919167 115.945833 73.836667 118.996667 " transform="matrix(4.6875, 0, 0, 4.6875, 0, 0)"/>
<path fill-rule="nonzero" fill="rgb(100%, 100%, 100%)" fill-opacity="1" d="M 211.414062 183.4375 C 210.917969 183.707031 210.054688 183.800781 209.085938 183.910156 C 208.390625 188.140625 204.914062 191.398438 200.484375 191.398438 C 196.050781 191.398438 192.515625 188.140625 191.820312 183.910156 C 190.832031 183.910156 189.992188 183.636719 189.476562 183.4375 C 187.242188 182.5 193.835938 177.191406 200.445312 177.191406 C 207.039062 177.191406 213.628906 182.484375 211.398438 183.4375 Z M 211.414062 183.4375 "/>
<path fill="none" stroke-width="5.449" stroke-linecap="butt" stroke-linejoin="round" stroke="rgb(91.372549%, 91.372549%, 91.372549%)" stroke-opacity="1" stroke-miterlimit="4" d="M 119.89 64 C 119.89 94.868333 94.866667 119.890833 64 119.890833 C 33.133333 119.890833 8.11 94.868333 8.11 64.000833 C 8.11 33.134167 33.133333 8.11 64 8.11 C 94.866667 8.11 119.89 33.133333 119.89 64 Z M 119.89 64 " transform="matrix(4.6875, 0, 0, 4.6875, 0, 0)"/>
<path fill="none" stroke-width="5.95" stroke-linecap="butt" stroke-linejoin="round" stroke="rgb(0%, 35.294118%, 49.019608%)" stroke-opacity="1" stroke-miterlimit="4" d="M 125.023333 64 C 125.023333 97.704167 97.703333 125.024167 64 125.024167 C 30.296667 125.024167 2.976667 97.704167 2.976667 64.000833 C 2.976667 30.298333 30.296667 2.978333 64 2.978333 C 97.703333 2.978333 125.023333 30.298333 125.023333 64 Z M 125.023333 64 " transform="matrix(4.6875, 0, 0, 4.6875, 0, 0)"/>
</svg>
