<?xml version="1.0" encoding="UTF-8"?>
<svg xmlns="http://www.w3.org/2000/svg" xmlns:xlink="http://www.w3.org/1999/xlink" width="2000" height="2000" viewBox="0 0 2000 2000">
<path fill-rule="nonzero" fill="rgb(91.372549%, 91.372549%, 91.372549%)" fill-opacity="1" d="M 1861.203125 998.359375 C 1861.203125 1472.46875 1476.875 1856.796875 1002.75 1856.796875 C 528.625 1856.796875 144.28125 1472.484375 144.28125 998.375 C 144.28125 524.25 528.625 139.90625 1002.75 139.90625 C 1476.875 139.90625 1861.203125 524.25 1861.203125 998.375 M 1861.203125 998.375 "/>
<path fill-rule="nonzero" fill="rgb(0%, 35.294118%, 49.019608%)" fill-opacity="1" stroke-width="2.349" stroke-linecap="butt" stroke-linejoin="miter" stroke="rgb(0%, 35.294118%, 49.019608%)" stroke-opacity="1" stroke-miterlimit="10" d="M 99.008 89.914 C 99.148 95.52 102.231 103.5 102.231 103.5 L 99.836 106.793 C 96.571 107.868 95.547 105.891 94.726 104.61 C 94.726 104.61 92.063 97.059 89.966 91.75 L 88.637 87.98 Z M 99.008 89.914 " transform="matrix(15.625, 0, 0, 15.625, 0, 0)"/>
<path fill-rule="nonzero" fill="rgb(0%, 35.294118%, 49.019608%)" fill-opacity="1" stroke-width="2.349" stroke-linecap="butt" stroke-linejoin="miter" stroke="rgb(0%, 35.294118%, 49.019608%)" stroke-opacity="1" stroke-miterlimit="10" d="M 79.532 117.82 C 80.879 112.754 82.578 108.285 85.172 103.625 C 85.172 103.625 88.492 96.547 90.2 91.067 C 90.59 89.797 91.875 89.032 93.207 89.235 C 94.27 89.407 95.399 89.567 96.606 89.7 C 97.043 89.762 97.481 89.778 97.918 89.825 C 100.571 89.899 103.141 90.005 105.618 90.024 C 106.83425 90.03525 108.05075 90.017 109.266 89.969 C 110.457 89.919 112.5 89.739 113.641 89.594 C 113.969 89.555 119.911 88.801 120.11 62.942 C 119.696 37.122 112.45 37.902 112.157 37.902 C 101.587 37.902 95.653 45.813 85.457 55.379 C 71.696 68.297 63.114 58.231 59.559 50.981 C 57.368 46.063 55.411 40.614 51.996 37.418 C 51.512 36.965 51.325 36.262 51.466 35.586 L 51.856 33.77 C 51.914 33.536 51.746 33.317 51.493 33.286 C 49.879 33.18 48.551 33.743 47.375 35.086 C 46.813 34.946 46.2 34.836 45.543 34.774 C 41.317 34.317 40.469 36.465 36.368 36.465 L 34.379 36.465 C 30.669 36.465 27.567 38.231 26.047 40.833 C 24.837 42.907 24.797 45.165 26.786 45.383 C 26.172 47.567 28.216 48.423 32.782 46.329 C 32.782 46.329 36.375 48.391 41.348 48.391 C 44.036 48.391 44.836 48.817 45.825 53.125 C 48.204 63.602 57.598 80.825 76.595 80.825 C 76.793 81.11 76.985 81.387 77.172 81.641 C 80.399 86.211 81.387 91.989 79.524 97.235 C 78.02 101.481 76.11 104.735 76.11 104.735 C 76.168 105.317 76.168 105.879 76.168 106.442 C 76.075 110.899 74.918 115.946 73.836 118.996 " transform="matrix(15.625, 0, 0, 15.625, 0, 0)"/>
<path fill-rule="nonzero" fill="rgb(100%, 100%, 100%)" fill-opacity="1" d="M 704.71875 611.453125 C 703.0625 612.421875 700.1875 612.671875 696.953125 613.03125 C 694.640625 627.140625 683.046875 638.0625 668.28125 638.0625 C 653.5 638.0625 641.71875 627.125 639.40625 613.03125 C 636.109375 613.03125 633.3125 612.125 631.59375 611.453125 C 624.140625 608.328125 646.125 590.640625 668.15625 590.640625 C 690.125 590.640625 712.09375 608.28125 704.65625 611.453125 Z M 704.71875 611.453125 "/>
<path fill="none" stroke-width="5.449" stroke-linecap="butt" stroke-linejoin="round" stroke="rgb(0%, 35.294118%, 49.019608%)" stroke-opacity="1" stroke-miterlimit="4" d="M 119.89 64 C 119.89 94.868 94.867 119.89 64 119.89 C 33.133 119.89 8.11 94.869 8.11 64 C 8.11 33.133 33.133 8.11 64 8.11 C 94.867 8.11 119.89 33.133 119.89 64 Z M 119.89 64 " transform="matrix(15.625, 0, 0, 15.625, 0, 0)"/>
<path fill="none" stroke-width="5.95" stroke-linecap="butt" stroke-linejoin="round" stroke="rgb(91.372549%, 91.372549%, 91.372549%)" stroke-opacity="1" stroke-miterlimit="4" d="M 125.024 64 C 125.024 97.703 97.704 125.024 64 125.024 C 30.296 125.024 2.977 97.704 2.977 64 C 2.977 30.296 30.297 2.977 64 2.977 C 97.703 2.977 125.024 30.297 125.024 64 Z M 125.024 64 " transform="matrix(15.625, 0, 0, 15.625, 0, 0)"/>
</svg>
