<?xml version="1.0" encoding="UTF-8"?>
<svg xmlns="http://www.w3.org/2000/svg" xmlns:xlink="http://www.w3.org/1999/xlink" width="600" height="600" viewBox="0 0 600 600">
<path fill-rule="nonzero" fill="rgb(91.372549%, 91.372549%, 91.372549%)" fill-opacity="1" d="M 558.359375 299.507812 C 558.359375 441.742188 443.0625 557.039062 300.824219 557.039062 C 158.585938 557.039062 43.285156 441.746094 43.285156 299.511719 C 43.285156 157.273438 158.585938 41.972656 300.824219 41.972656 C 443.0625 41.972656 558.359375 157.273438 558.359375 299.511719 M 558.359375 299.511719 "/>
<path fill-rule="nonzero" fill="rgb(0%, 35.294118%, 49.019608%)" fill-opacity="1" stroke-width="2.349" stroke-linecap="butt" stroke-linejoin="miter" stroke="rgb(0%, 35.294118%, 49.019608%)" stroke-opacity="1" stroke-miterlimit="10" d="M 99.008333 89.914167 C 99.148333 95.52 102.230833 103.5 102.230833 103.5 L 99.835833 106.793333 C 96.570833 107.868333 95.546667 105.890833 94.725833 104.61 C 94.725833 104.61 92.063333 97.059167 89.965833 91.75 L 88.636667 87.98 Z M 99.008333 89.914167 " transform="matrix(4.6875, 0, 0, 4.6875, 0, 0)"/>
<path fill-rule="nonzero" fill="rgb(0%, 35.294118%, 49.019608%)" fill-opacity="1" stroke-width="2.349" stroke-linecap="butt" stroke-linejoin="miter" stroke="rgb(0%, 35.294118%, 49.019608%)" stroke-opacity="1" stroke-miterlimit="10" d="M 79.531667 117.82 C 80.879167 112.754167 82.578333 108.285 85.171667 103.625 C 85.171667 103.625 88.491667 96.546667 90.2 91.066667 C 90.59 89.796667 91.875 89.031667 93.206667 89.235 C 94.27 89.406667 95.399167 89.566667 96.605833 89.7 C 97.043333 89.761667 97.480833 89.778333 97.918333 89.825 C 100.570833 89.899167 103.140833 90.005 105.618333 90.024167 C 106.834167 90.035 108.050833 90.016667 109.265833 89.969167 C 110.456667 89.919167 112.5 89.739167 113.640833 89.594167 C 113.969167 89.555 119.910833 88.800833 120.11 62.941667 C 119.695833 37.121667 112.45 37.901667 112.156667 37.901667 C 101.586667 37.901667 95.653333 45.813333 85.456667 55.379167 C 71.695833 68.296667 63.114167 58.230833 59.559167 50.980833 C 57.368333 46.063333 55.410833 40.614167 51.995833 37.418333 C 51.511667 36.965 51.325 36.261667 51.465833 35.585833 L 51.855833 33.77 C 51.914167 33.535833 51.745833 33.316667 51.493333 33.285833 C 49.879167 33.18 48.550833 33.743333 47.375 35.085833 C 46.813333 34.945833 46.2 34.835833 45.543333 34.774167 C 41.316667 34.316667 40.469167 36.465 36.368333 36.465 L 34.379167 36.465 C 30.669167 36.465 27.566667 38.230833 26.046667 40.833333 C 24.836667 42.906667 24.796667 45.165 26.785833 45.383333 C 26.171667 47.566667 28.215833 48.423333 32.781667 46.329167 C 32.781667 46.329167 36.375 48.390833 41.348333 48.390833 C 44.035833 48.390833 44.835833 48.816667 45.825 53.125 C 48.204167 63.601667 57.598333 80.825 76.595 80.825 C 76.793333 81.11 76.985 81.386667 77.171667 81.640833 C 80.399167 86.210833 81.386667 91.989167 79.524167 97.235 C 78.02 101.480833 76.11 104.735 76.11 104.735 C 76.168333 105.316667 76.168333 105.879167 76.168333 106.441667 C 76.075 110.899167 74.918333 115.945833 73.835833 118.995833 " transform="matrix(4.6875, 0, 0, 4.6875, 0, 0)"/>
<path fill-rule="nonzero" fill="rgb(100%, 100%, 100%)" fill-opacity="1" d="M 211.414062 183.4375 C 210.917969 183.726562 210.054688 183.800781 209.085938 183.910156 C 208.390625 188.140625 204.914062 191.417969 200.484375 191.417969 C 196.050781 191.417969 192.515625 188.136719 191.820312 183.910156 C 190.832031 183.910156 189.992188 183.636719 189.476562 183.4375 C 187.242188 182.5 193.835938 177.191406 200.445312 177.191406 C 207.039062 177.191406 213.628906 182.484375 211.398438 183.4375 Z M 211.414062 183.4375 "/>
<path fill="none" stroke-width="5.449" stroke-linecap="butt" stroke-linejoin="round" stroke="rgb(0%, 35.294118%, 49.019608%)" stroke-opacity="1" stroke-miterlimit="4" d="M 119.89 64 C 119.89 94.868333 94.866667 119.89 64 119.89 C 33.133333 119.89 8.11 94.869167 8.11 64 C 8.11 33.133333 33.133333 8.11 64 8.11 C 94.866667 8.11 119.89 33.133333 119.89 64 Z M 119.89 64 " transform="matrix(4.6875, 0, 0, 4.6875, 0, 0)"/>
<path fill="none" stroke-width="5.95" stroke-linecap="butt" stroke-linejoin="round" stroke="rgb(91.372549%, 91.372549%, 91.372549%)" stroke-opacity="1" stroke-miterlimit="4" d="M 125.024167 64 C 125.024167 97.703333 97.704167 125.024167 64 125.024167 C 30.295833 125.024167 2.976667 97.704167 2.976667 64 C 2.976667 30.295833 30.296667 2.976667 64 2.976667 C 97.703333 2.976667 125.024167 30.296667 125.024167 64 Z M 125.024167 64 " transform="matrix(4.6875, 0, 0, 4.6875, 0, 0)"/>
</svg>
