<?xml version="1.0" encoding="UTF-8"?>
<svg xmlns="http://www.w3.org/2000/svg" xmlns:xlink="http://www.w3.org/1999/xlink" width="2750" height="2750" viewBox="0 0 2750 2750">
<path fill-rule="nonzero" fill="rgb(91.372549%, 91.372549%, 91.372549%)" fill-opacity="1" d="M 2559.15625 1372.742188 C 2559.15625 2024.644531 2030.703125 2553.09375 1378.78125 2553.09375 C 726.859375 2553.09375 198.386719 2024.664062 198.386719 1372.765625 C 198.386719 720.84375 726.859375 192.371094 1378.78125 192.371094 C 2030.703125 192.371094 2559.15625 720.84375 2559.15625 1372.765625 M 2559.15625 1372.765625 "/>
<path fill-rule="nonzero" fill="rgb(0%, 35.294118%, 49.019608%)" fill-opacity="1" stroke-width="2.349" stroke-linecap="butt" stroke-linejoin="miter" stroke="rgb(0%, 35.294118%, 49.019608%)" stroke-opacity="1" stroke-miterlimit="10" d="M 99.008 89.914 C 99.148 95.52 102.230909 103.5 102.230909 103.5 L 99.836 106.793091 C 96.570909 107.868 95.546909 105.890909 94.726 104.61 C 94.726 104.61 92.062909 97.059091 89.966 91.75 L 88.637091 87.98 Z M 99.008 89.914 " transform="matrix(21.484375, 0, 0, 21.484375, 0, 0)"/>
<path fill-rule="nonzero" fill="rgb(0%, 35.294118%, 49.019608%)" fill-opacity="1" stroke-width="2.349" stroke-linecap="butt" stroke-linejoin="miter" stroke="rgb(0%, 35.294118%, 49.019608%)" stroke-opacity="1" stroke-miterlimit="10" d="M 79.532 117.82 C 80.878909 112.754 82.578 108.285091 85.172 103.625091 C 85.172 103.625091 88.492 96.546909 90.2 91.067091 C 90.59 89.797091 91.874909 89.032 93.207091 89.235091 C 94.27 89.407091 95.398909 89.567091 96.606 89.7 C 97.042909 89.762 97.481091 89.778 97.918 89.825091 C 100.571091 89.899091 103.141091 90.005091 105.618 90.024 C 106.834182 90.035273 108.050545 90.016909 109.266 89.969091 C 110.457091 89.919091 112.5 89.738909 113.641091 89.594 C 113.969091 89.555091 119.910909 88.801091 120.11 62.942 C 119.696 37.122 112.45 37.902 112.157091 37.902 C 101.586909 37.902 95.653091 45.813091 85.456909 55.378909 C 71.696 68.297091 63.114 58.230909 59.558909 50.981091 C 57.368 46.063091 55.410909 40.614 51.996 37.418 C 51.512 36.965091 51.325091 36.262 51.466 35.586 L 51.856 33.77 C 51.914 33.536 51.746 33.317091 51.493091 33.286 C 49.878909 33.18 48.550909 33.742909 47.374909 35.086 C 46.812909 34.946 46.2 34.836 45.542909 34.774 C 41.316909 34.317091 40.468909 36.465091 36.368 36.465091 L 34.378909 36.465091 C 30.668909 36.465091 27.566909 38.230909 26.046909 40.833091 C 24.836909 42.907091 24.796909 45.165091 26.786 45.383091 C 26.172 47.566909 28.216 48.422909 32.782 46.329091 C 32.782 46.329091 36.374909 48.390909 41.348 48.390909 C 44.036 48.390909 44.836 48.817091 45.825091 53.125091 C 48.204 63.602 57.598 80.825091 76.594909 80.825091 C 76.792909 81.11 76.985091 81.386909 77.172 81.641091 C 80.398909 86.211091 81.386909 91.989091 79.524 97.234909 C 78.02 101.481091 76.11 104.734909 76.11 104.734909 C 76.168 105.317091 76.168 105.878909 76.168 106.442 C 76.074909 110.898909 74.918 115.946 73.836 118.996 " transform="matrix(21.484375, 0, 0, 21.484375, 0, 0)"/>
<path fill-rule="nonzero" fill="rgb(100%, 100%, 100%)" fill-opacity="1" d="M 968.988281 840.75 C 966.710938 842.078125 962.757812 842.425781 958.308594 842.917969 C 955.128906 862.320312 939.1875 877.335938 918.886719 877.335938 C 898.5625 877.335938 882.363281 862.296875 879.183594 842.917969 C 874.648438 842.917969 870.804688 841.671875 868.441406 840.75 C 858.195312 836.453125 888.421875 812.132812 918.714844 812.132812 C 948.921875 812.132812 979.128906 836.386719 968.902344 840.75 Z M 968.988281 840.75 "/>
<path fill="none" stroke-width="5.449" stroke-linecap="butt" stroke-linejoin="round" stroke="rgb(0%, 35.294118%, 49.019608%)" stroke-opacity="1" stroke-miterlimit="4" d="M 119.89 64 C 119.89 94.868 94.866909 119.89 64 119.89 C 33.132909 119.89 8.11 94.869091 8.11 64 C 8.11 33.133091 33.133091 8.11 64 8.11 C 94.866909 8.11 119.89 33.133091 119.89 64 Z M 119.89 64 " transform="matrix(21.484375, 0, 0, 21.484375, 0, 0)"/>
<path fill="none" stroke-width="5.95" stroke-linecap="butt" stroke-linejoin="round" stroke="rgb(91.372549%, 91.372549%, 91.372549%)" stroke-opacity="1" stroke-miterlimit="4" d="M 125.024 64 C 125.024 97.702909 97.704 125.024 64 125.024 C 30.296 125.024 2.977091 97.704 2.977091 64 C 2.977091 30.296 30.297091 2.977091 64 2.977091 C 97.702909 2.977091 125.024 30.297091 125.024 64 Z M 125.024 64 " transform="matrix(21.484375, 0, 0, 21.484375, 0, 0)"/>
</svg>
