<?xml version="1.0" encoding="UTF-8"?>
<svg xmlns="http://www.w3.org/2000/svg" xmlns:xlink="http://www.w3.org/1999/xlink" width="1100" height="1100" viewBox="0 0 1100 1100">
<path fill-rule="nonzero" fill="rgb(91.372549%, 91.372549%, 91.372549%)" fill-opacity="1" d="M 1023.660156 549.097656 C 1023.660156 809.859375 812.28125 1021.238281 551.511719 1021.238281 C 290.742188 1021.238281 79.355469 809.867188 79.355469 549.105469 C 79.355469 288.335938 290.742188 76.949219 551.511719 76.949219 C 812.28125 76.949219 1023.660156 288.335938 1023.660156 549.105469 M 1023.660156 549.105469 "/>
<path fill-rule="nonzero" fill="rgb(0%, 35.294118%, 49.019608%)" fill-opacity="1" stroke-width="2.349" stroke-linecap="butt" stroke-linejoin="miter" stroke="rgb(0%, 35.294118%, 49.019608%)" stroke-opacity="1" stroke-miterlimit="10" d="M 99.008182 89.914091 C 99.148182 95.52 102.230909 103.5 102.230909 103.5 L 99.835909 106.793182 C 96.570909 107.868182 95.546818 105.890909 94.725909 104.61 C 94.725909 104.61 92.063182 97.059091 89.965909 91.75 L 88.636818 87.98 Z M 99.008182 89.914091 " transform="matrix(8.59375, 0, 0, 8.59375, 0, 0)"/>
<path fill-rule="nonzero" fill="rgb(0%, 35.294118%, 49.019608%)" fill-opacity="1" stroke-width="2.349" stroke-linecap="butt" stroke-linejoin="miter" stroke="rgb(0%, 35.294118%, 49.019608%)" stroke-opacity="1" stroke-miterlimit="10" d="M 79.531818 117.82 C 80.879091 112.754091 82.578182 108.285 85.171818 103.625 C 85.171818 103.625 88.491818 96.546818 90.2 91.066818 C 90.59 89.796818 91.875 89.031818 93.206818 89.235 C 94.27 89.406818 95.399091 89.566818 96.605909 89.7 C 97.043182 89.761818 97.480909 89.778182 97.918182 89.825 C 100.570909 89.899091 103.140909 90.005 105.618182 90.024091 C 106.834091 90.035455 108.050455 90.016818 109.265909 89.969091 C 110.456818 89.919091 112.5 89.739091 113.640909 89.594091 C 113.969091 89.555 119.910909 88.800909 120.11 62.941818 C 119.695909 37.121818 112.45 37.901818 112.156818 37.901818 C 101.586818 37.901818 95.653182 45.813182 85.456818 55.379091 C 71.695909 68.296818 63.114091 58.230909 59.559091 50.980909 C 57.368182 46.063182 55.410909 40.614091 51.995909 37.418182 C 51.511818 36.965 51.325 36.261818 51.465909 35.585909 L 51.855909 33.77 C 51.914091 33.535909 51.745909 33.316818 51.493182 33.285909 C 49.879091 33.18 48.550909 33.743182 47.375 35.085909 C 46.813182 34.945909 46.2 34.835909 45.543182 34.774091 C 41.316818 34.316818 40.469091 36.465 36.368182 36.465 L 34.379091 36.465 C 30.669091 36.465 27.566818 38.230909 26.046818 40.833182 C 24.836818 42.906818 24.796818 45.165 26.785909 45.383182 C 26.171818 47.566818 28.215909 48.423182 32.781818 46.329091 C 32.781818 46.329091 36.375 48.390909 41.348182 48.390909 C 44.035909 48.390909 44.835909 48.816818 45.825 53.125 C 48.204091 63.601818 57.598182 80.825 76.595 80.825 C 76.793182 81.11 76.985 81.386818 77.171818 81.640909 C 80.399091 86.210909 81.386818 91.989091 79.524091 97.235 C 78.02 101.480909 76.11 104.735 76.11 104.735 C 76.168182 105.316818 76.168182 105.879091 76.168182 106.441818 C 76.075 110.899091 74.918182 115.945909 73.835909 118.995909 " transform="matrix(8.59375, 0, 0, 8.59375, 0, 0)"/>
<path fill-rule="nonzero" fill="rgb(100%, 100%, 100%)" fill-opacity="1" d="M 387.59375 336.300781 C 386.683594 336.832031 385.101562 336.96875 383.324219 337.167969 C 382.050781 344.925781 375.675781 350.933594 367.554688 350.933594 C 359.425781 350.933594 352.945312 344.917969 351.671875 337.167969 C 349.859375 337.167969 348.320312 336.667969 347.375 336.300781 C 343.277344 334.582031 355.367188 324.851562 367.484375 324.851562 C 379.570312 324.851562 391.652344 334.554688 387.5625 336.300781 Z M 387.59375 336.300781 "/>
<path fill="none" stroke-width="5.449" stroke-linecap="butt" stroke-linejoin="round" stroke="rgb(0%, 35.294118%, 49.019608%)" stroke-opacity="1" stroke-miterlimit="4" d="M 119.89 64 C 119.89 94.868182 94.866818 119.89 64 119.89 C 33.133182 119.89 8.11 94.869091 8.11 64 C 8.11 33.133182 33.133182 8.11 64 8.11 C 94.866818 8.11 119.89 33.133182 119.89 64 Z M 119.89 64 " transform="matrix(8.59375, 0, 0, 8.59375, 0, 0)"/>
<path fill="none" stroke-width="5.95" stroke-linecap="butt" stroke-linejoin="round" stroke="rgb(91.372549%, 91.372549%, 91.372549%)" stroke-opacity="1" stroke-miterlimit="4" d="M 125.024091 64 C 125.024091 97.703182 97.704091 125.024091 64 125.024091 C 30.295909 125.024091 2.976818 97.704091 2.976818 64 C 2.976818 30.295909 30.296818 2.976818 64 2.976818 C 97.703182 2.976818 125.024091 30.296818 125.024091 64 Z M 125.024091 64 " transform="matrix(8.59375, 0, 0, 8.59375, 0, 0)"/>
</svg>
