<?xml version="1.0" encoding="UTF-8"?>
<svg xmlns="http://www.w3.org/2000/svg" xmlns:xlink="http://www.w3.org/1999/xlink" width="800" height="800" viewBox="0 0 800 800">
<path fill-rule="nonzero" fill="rgb(91.372549%, 91.372549%, 91.372549%)" fill-opacity="1" d="M 744.480469 399.34375 C 744.480469 588.988281 590.75 742.71875 401.101562 742.71875 C 211.449219 742.71875 57.710938 588.992188 57.710938 399.351562 C 57.710938 209.699219 211.449219 55.960938 401.101562 55.960938 C 590.75 55.960938 744.480469 209.699219 744.480469 399.351562 M 744.480469 399.351562 "/>
<path fill-rule="nonzero" fill="rgb(0%, 35.294118%, 49.019608%)" fill-opacity="1" stroke-width="2.349" stroke-linecap="butt" stroke-linejoin="miter" stroke="rgb(0%, 35.294118%, 49.019608%)" stroke-opacity="1" stroke-miterlimit="10" d="M 99.008125 89.91375 C 99.148125 95.52 102.23125 103.5 102.23125 103.5 L 99.83625 106.793125 C 96.57125 107.868125 95.546875 105.89125 94.72625 104.61 C 94.72625 104.61 92.063125 97.05875 89.96625 91.75 L 88.636875 87.98 Z M 99.008125 89.91375 " transform="matrix(6.25, 0, 0, 6.25, 0, 0)"/>
<path fill-rule="nonzero" fill="rgb(0%, 35.294118%, 49.019608%)" fill-opacity="1" stroke-width="2.349" stroke-linecap="butt" stroke-linejoin="miter" stroke="rgb(0%, 35.294118%, 49.019608%)" stroke-opacity="1" stroke-miterlimit="10" d="M 79.531875 117.82 C 80.87875 112.75375 82.578125 108.285 85.171875 103.625 C 85.171875 103.625 88.491875 96.546875 90.2 91.066875 C 90.59 89.796875 91.875 89.031875 93.206875 89.235 C 94.27 89.406875 95.39875 89.566875 96.60625 89.7 C 97.043125 89.761875 97.48125 89.778125 97.918125 89.825 C 100.57125 89.89875 103.14125 90.005 105.618125 90.02375 C 106.834375 90.035 108.050625 90.016875 109.26625 89.96875 C 110.456875 89.91875 112.5 89.73875 113.64125 89.59375 C 113.96875 89.555 119.91125 88.80125 120.11 62.941875 C 119.69625 37.121875 112.45 37.901875 112.156875 37.901875 C 101.586875 37.901875 95.653125 45.813125 85.456875 55.37875 C 71.69625 68.296875 63.11375 58.23125 59.55875 50.98125 C 57.368125 46.063125 55.41125 40.61375 51.99625 37.418125 C 51.511875 36.965 51.325 36.261875 51.46625 35.58625 L 51.85625 33.77 C 51.91375 33.53625 51.74625 33.316875 51.493125 33.28625 C 49.87875 33.18 48.55125 33.743125 47.375 35.08625 C 46.813125 34.94625 46.2 34.83625 45.543125 34.77375 C 41.316875 34.316875 40.46875 36.465 36.368125 36.465 L 34.37875 36.465 C 30.66875 36.465 27.566875 38.23125 26.046875 40.833125 C 24.836875 42.906875 24.796875 45.165 26.78625 45.383125 C 26.171875 47.566875 28.21625 48.423125 32.781875 46.32875 C 32.781875 46.32875 36.375 48.39125 41.348125 48.39125 C 44.03625 48.39125 44.83625 48.816875 45.825 53.125 C 48.20375 63.601875 57.598125 80.825 76.595 80.825 C 76.793125 81.11 76.985 81.386875 77.171875 81.64125 C 80.39875 86.21125 81.386875 91.98875 79.52375 97.235 C 78.02 101.48125 76.11 104.735 76.11 104.735 C 76.168125 105.316875 76.168125 105.87875 76.168125 106.441875 C 76.075 110.89875 74.918125 115.94625 73.83625 118.99625 " transform="matrix(6.25, 0, 0, 6.25, 0, 0)"/>
<path fill-rule="nonzero" fill="rgb(100%, 100%, 100%)" fill-opacity="1" d="M 281.886719 244.582031 C 281.226562 244.96875 280.074219 245.070312 278.78125 245.210938 C 277.855469 250.855469 273.21875 255.226562 267.3125 255.226562 C 261.398438 255.226562 256.6875 250.851562 255.761719 245.210938 C 254.445312 245.210938 253.324219 244.851562 252.636719 244.582031 C 249.65625 243.332031 258.449219 236.257812 267.261719 236.257812 C 276.050781 236.257812 284.835938 243.3125 281.863281 244.582031 Z M 281.886719 244.582031 "/>
<path fill="none" stroke-width="5.449" stroke-linecap="butt" stroke-linejoin="round" stroke="rgb(0%, 35.294118%, 49.019608%)" stroke-opacity="1" stroke-miterlimit="4" d="M 119.89 64 C 119.89 94.868125 94.866875 119.89 64 119.89 C 33.133125 119.89 8.11 94.86875 8.11 64 C 8.11 33.133125 33.133125 8.11 64 8.11 C 94.866875 8.11 119.89 33.133125 119.89 64 Z M 119.89 64 " transform="matrix(6.25, 0, 0, 6.25, 0, 0)"/>
<path fill="none" stroke-width="5.95" stroke-linecap="butt" stroke-linejoin="round" stroke="rgb(91.372549%, 91.372549%, 91.372549%)" stroke-opacity="1" stroke-miterlimit="4" d="M 125.02375 64 C 125.02375 97.703125 97.70375 125.02375 64 125.02375 C 30.29625 125.02375 2.976875 97.70375 2.976875 64 C 2.976875 30.29625 30.296875 2.976875 64 2.976875 C 97.703125 2.976875 125.02375 30.296875 125.02375 64 Z M 125.02375 64 " transform="matrix(6.25, 0, 0, 6.25, 0, 0)"/>
</svg>
