<?xml version="1.0" encoding="UTF-8"?>
<svg xmlns="http://www.w3.org/2000/svg" xmlns:xlink="http://www.w3.org/1999/xlink" width="350" height="350" viewBox="0 0 350 350">
<path fill-rule="nonzero" fill="rgb(91.372549%, 91.372549%, 91.372549%)" fill-opacity="1" d="M 325.710938 174.710938 C 325.710938 257.683594 258.453125 324.9375 175.480469 324.9375 C 92.507812 324.9375 25.25 257.683594 25.25 174.714844 C 25.25 91.742188 92.507812 24.484375 175.480469 24.484375 C 258.453125 24.484375 325.710938 91.742188 325.710938 174.714844 M 325.710938 174.714844 "/>
<path fill-rule="nonzero" fill="rgb(0%, 35.294118%, 49.019608%)" fill-opacity="1" stroke-width="2.349" stroke-linecap="butt" stroke-linejoin="miter" stroke="rgb(0%, 35.294118%, 49.019608%)" stroke-opacity="1" stroke-miterlimit="10" d="M 99.008571 89.914286 C 99.148571 95.52 102.231429 103.5 102.231429 103.5 L 99.835714 106.792857 C 96.571429 107.868571 95.547143 105.891429 94.725714 104.61 C 94.725714 104.61 92.062857 97.058571 89.965714 91.75 L 88.637143 87.98 Z M 99.008571 89.914286 " transform="matrix(2.734375, 0, 0, 2.734375, 0, 0)"/>
<path fill-rule="nonzero" fill="rgb(0%, 35.294118%, 49.019608%)" fill-opacity="1" stroke-width="2.349" stroke-linecap="butt" stroke-linejoin="miter" stroke="rgb(0%, 35.294118%, 49.019608%)" stroke-opacity="1" stroke-miterlimit="10" d="M 79.531429 117.82 C 80.878571 112.754286 82.578571 108.285714 85.171429 103.625714 C 85.171429 103.625714 88.491429 96.547143 90.2 91.067143 C 90.59 89.797143 91.874286 89.031429 93.207143 89.235714 C 94.27 89.407143 95.398571 89.567143 96.605714 89.7 C 97.042857 89.761429 97.481429 89.778571 97.918571 89.825714 C 100.571429 89.898571 103.141429 90.005714 105.618571 90.024286 C 106.834286 90.035714 108.05 90.017143 109.265714 89.968571 C 110.457143 89.918571 112.5 89.738571 113.641429 89.594286 C 113.968571 89.555714 119.911429 88.801429 120.11 62.941429 C 119.695714 37.121429 112.45 37.901429 112.157143 37.901429 C 101.587143 37.901429 95.652857 45.812857 85.457143 55.378571 C 71.695714 68.297143 63.114286 58.231429 59.558571 50.981429 C 57.368571 46.062857 55.411429 40.614286 51.995714 37.418571 C 51.511429 36.965714 51.325714 36.261429 51.465714 35.585714 L 51.855714 33.77 C 51.914286 33.535714 51.745714 33.317143 51.492857 33.285714 C 49.878571 33.18 48.551429 33.742857 47.374286 35.085714 C 46.812857 34.945714 46.2 34.835714 45.542857 34.774286 C 41.317143 34.317143 40.468571 36.465714 36.368571 36.465714 L 34.378571 36.465714 C 30.668571 36.465714 27.567143 38.231429 26.047143 40.832857 C 24.837143 42.907143 24.797143 45.165714 26.785714 45.382857 C 26.171429 47.567143 28.215714 48.422857 32.781429 46.328571 C 32.781429 46.328571 36.374286 48.391429 41.348571 48.391429 C 44.035714 48.391429 44.835714 48.817143 45.825714 53.125714 C 48.204286 63.601429 57.598571 80.825714 76.594286 80.825714 C 76.792857 81.11 76.985714 81.387143 77.171429 81.641429 C 80.398571 86.211429 81.387143 91.988571 79.524286 97.234286 C 78.02 101.481429 76.11 104.734286 76.11 104.734286 C 76.168571 105.317143 76.168571 105.878571 76.168571 106.441429 C 76.074286 110.898571 74.918571 115.945714 73.835714 118.995714 " transform="matrix(2.734375, 0, 0, 2.734375, 0, 0)"/>
<path fill-rule="nonzero" fill="rgb(100%, 100%, 100%)" fill-opacity="1" d="M 123.324219 107.003906 C 123.035156 107.171875 122.53125 107.21875 121.964844 107.28125 C 121.5625 109.75 119.53125 111.660156 116.949219 111.660156 C 114.363281 111.660156 112.300781 109.746094 111.894531 107.28125 C 111.320312 107.28125 110.828125 107.121094 110.527344 107.003906 C 109.226562 106.457031 113.070312 103.363281 116.925781 103.363281 C 120.773438 103.363281 124.617188 106.449219 123.316406 107.003906 Z M 123.324219 107.003906 "/>
<path fill="none" stroke-width="5.449" stroke-linecap="butt" stroke-linejoin="round" stroke="rgb(0%, 35.294118%, 49.019608%)" stroke-opacity="1" stroke-miterlimit="4" d="M 119.89 64 C 119.89 94.868571 94.867143 119.89 64 119.89 C 33.132857 119.89 8.11 94.868571 8.11 64 C 8.11 33.132857 33.132857 8.11 64 8.11 C 94.867143 8.11 119.89 33.132857 119.89 64 Z M 119.89 64 " transform="matrix(2.734375, 0, 0, 2.734375, 0, 0)"/>
<path fill="none" stroke-width="5.95" stroke-linecap="butt" stroke-linejoin="round" stroke="rgb(91.372549%, 91.372549%, 91.372549%)" stroke-opacity="1" stroke-miterlimit="4" d="M 125.024286 64 C 125.024286 97.702857 97.704286 125.024286 64 125.024286 C 30.295714 125.024286 2.977143 97.704286 2.977143 64 C 2.977143 30.295714 30.297143 2.977143 64 2.977143 C 97.702857 2.977143 125.024286 30.297143 125.024286 64 Z M 125.024286 64 " transform="matrix(2.734375, 0, 0, 2.734375, 0, 0)"/>
</svg>
