<?xml version="1.0" encoding="UTF-8"?>
<svg xmlns="http://www.w3.org/2000/svg" xmlns:xlink="http://www.w3.org/1999/xlink" width="150" height="150" viewBox="0 0 150 150">
<path fill-rule="nonzero" fill="rgb(91.372549%, 91.372549%, 91.372549%)" fill-opacity="1" d="M 139.589844 74.875 C 139.589844 110.433594 110.765625 139.257812 75.207031 139.257812 C 39.648438 139.257812 10.820312 110.4375 10.820312 74.878906 C 10.820312 39.320312 39.648438 10.492188 75.207031 10.492188 C 110.765625 10.492188 139.589844 39.320312 139.589844 74.878906 M 139.589844 74.878906 "/>
<path fill-rule="nonzero" fill="rgb(0%, 35.294118%, 49.019608%)" fill-opacity="1" stroke-width="2.349" stroke-linecap="butt" stroke-linejoin="miter" stroke="rgb(0%, 35.294118%, 49.019608%)" stroke-opacity="1" stroke-miterlimit="10" d="M 99.006667 89.913333 C 99.146667 95.52 102.23 103.5 102.23 103.5 L 99.836667 106.793333 C 96.57 107.866667 95.546667 105.89 94.726667 104.61 C 94.726667 104.61 92.063333 97.06 89.966667 91.75 L 88.636667 87.98 Z M 99.006667 89.913333 " transform="matrix(1.171875, 0, 0, 1.171875, 0, 0)"/>
<path fill-rule="nonzero" fill="rgb(0%, 35.294118%, 49.019608%)" fill-opacity="1" stroke-width="2.349" stroke-linecap="butt" stroke-linejoin="miter" stroke="rgb(0%, 35.294118%, 49.019608%)" stroke-opacity="1" stroke-miterlimit="10" d="M 79.533333 117.82 C 80.88 112.753333 82.576667 108.286667 85.173333 103.626667 C 85.173333 103.626667 88.493333 96.546667 90.2 91.066667 C 90.59 89.796667 91.873333 89.033333 93.206667 89.236667 C 94.27 89.406667 95.4 89.566667 96.606667 89.7 C 97.043333 89.763333 97.48 89.776667 97.916667 89.826667 C 100.57 89.9 103.14 90.006667 105.616667 90.023333 C 106.833333 90.036667 108.05 90.016667 109.266667 89.97 C 110.456667 89.92 112.5 89.74 113.64 89.593333 C 113.97 89.556667 119.91 88.8 120.11 62.943333 C 119.696667 37.123333 112.45 37.903333 112.156667 37.903333 C 101.586667 37.903333 95.653333 45.813333 85.456667 55.38 C 71.696667 68.296667 63.113333 58.23 59.56 50.98 C 57.366667 46.063333 55.41 40.613333 51.996667 37.416667 C 51.513333 36.966667 51.323333 36.263333 51.466667 35.586667 L 51.856667 33.77 C 51.913333 33.536667 51.746667 33.316667 51.493333 33.286667 C 49.88 33.18 48.55 33.743333 47.373333 35.086667 C 46.813333 34.946667 46.2 34.836667 45.543333 34.773333 C 41.316667 34.316667 40.47 36.466667 36.366667 36.466667 L 34.38 36.466667 C 30.67 36.466667 27.566667 38.23 26.046667 40.833333 C 24.836667 42.906667 24.796667 45.166667 26.786667 45.383333 C 26.173333 47.566667 28.216667 48.423333 32.783333 46.33 C 32.783333 46.33 36.373333 48.39 41.346667 48.39 C 44.036667 48.39 44.836667 48.816667 45.826667 53.126667 C 48.203333 63.603333 57.596667 80.826667 76.593333 80.826667 C 76.793333 81.11 76.986667 81.386667 77.173333 81.64 C 80.4 86.21 81.386667 91.99 79.523333 97.233333 C 78.02 101.48 76.11 104.733333 76.11 104.733333 C 76.166667 105.316667 76.166667 105.88 76.166667 106.443333 C 76.073333 110.9 74.916667 115.946667 73.836667 118.996667 " transform="matrix(1.171875, 0, 0, 1.171875, 0, 0)"/>
<path fill-rule="nonzero" fill="rgb(100%, 100%, 100%)" fill-opacity="1" d="M 52.855469 45.859375 C 52.730469 45.929688 52.515625 45.949219 52.269531 45.976562 C 52.097656 47.035156 51.226562 47.855469 50.121094 47.855469 C 49.011719 47.855469 48.128906 47.035156 47.957031 45.976562 C 47.707031 45.976562 47.5 45.910156 47.371094 45.859375 C 46.8125 45.625 48.460938 44.296875 50.113281 44.296875 C 51.757812 44.296875 53.40625 45.621094 52.847656 45.859375 Z M 52.855469 45.859375 "/>
<path fill="none" stroke-width="5.449" stroke-linecap="butt" stroke-linejoin="round" stroke="rgb(0%, 35.294118%, 49.019608%)" stroke-opacity="1" stroke-miterlimit="4" d="M 119.89 64 C 119.89 94.866667 94.866667 119.89 64 119.89 C 33.133333 119.89 8.11 94.87 8.11 64 C 8.11 33.133333 33.133333 8.11 64 8.11 C 94.866667 8.11 119.89 33.133333 119.89 64 Z M 119.89 64 " transform="matrix(1.171875, 0, 0, 1.171875, 0, 0)"/>
<path fill="none" stroke-width="5.95" stroke-linecap="butt" stroke-linejoin="round" stroke="rgb(91.372549%, 91.372549%, 91.372549%)" stroke-opacity="1" stroke-miterlimit="4" d="M 125.023333 64 C 125.023333 97.703333 97.703333 125.023333 64 125.023333 C 30.296667 125.023333 2.976667 97.703333 2.976667 64 C 2.976667 30.296667 30.296667 2.976667 64 2.976667 C 97.703333 2.976667 125.023333 30.296667 125.023333 64 Z M 125.023333 64 " transform="matrix(1.171875, 0, 0, 1.171875, 0, 0)"/>
</svg>
