<?xml version="1.0" encoding="UTF-8"?>
<svg xmlns="http://www.w3.org/2000/svg" xmlns:xlink="http://www.w3.org/1999/xlink" width="1600" height="1600" viewBox="0 0 1600 1600">
<path fill-rule="nonzero" fill="rgb(91.372549%, 91.372549%, 91.372549%)" fill-opacity="1" d="M 1488.960938 798.6875 C 1488.960938 1177.976562 1181.5 1485.4375 802.199219 1485.4375 C 422.898438 1485.4375 115.425781 1177.988281 115.425781 798.699219 C 115.425781 419.398438 422.898438 111.925781 802.199219 111.925781 C 1181.5 111.925781 1488.960938 419.398438 1488.960938 798.699219 M 1488.960938 798.699219 "/>
<path fill-rule="nonzero" fill="rgb(0%, 35.294118%, 49.019608%)" fill-opacity="1" stroke-width="2.349" stroke-linecap="butt" stroke-linejoin="miter" stroke="rgb(0%, 35.294118%, 49.019608%)" stroke-opacity="1" stroke-miterlimit="10" d="M 99.008125 89.914062 C 99.148125 95.52 102.230937 103.5 102.230937 103.5 L 99.835938 106.793125 C 96.570937 107.868125 95.546875 105.890938 94.725938 104.61 C 94.725938 104.61 92.063125 97.059062 89.965937 91.75 L 88.636875 87.98 Z M 99.008125 89.914062 " transform="matrix(12.5, 0, 0, 12.5, 0, 0)"/>
<path fill-rule="nonzero" fill="rgb(0%, 35.294118%, 49.019608%)" fill-opacity="1" stroke-width="2.349" stroke-linecap="butt" stroke-linejoin="miter" stroke="rgb(0%, 35.294118%, 49.019608%)" stroke-opacity="1" stroke-miterlimit="10" d="M 79.531875 117.82 C 80.879063 112.754063 82.578125 108.285 85.171875 103.625 C 85.171875 103.625 88.491875 96.546875 90.2 91.066875 C 90.59 89.796875 91.875 89.031875 93.206875 89.235 C 94.27 89.406875 95.399062 89.566875 96.605937 89.7 C 97.043125 89.761875 97.480937 89.778125 97.918125 89.825 C 100.570937 89.899062 103.140938 90.005 105.618125 90.024062 C 106.834375 90.035313 108.050625 90.016875 109.265938 89.969063 C 110.456875 89.919062 112.5 89.739063 113.640938 89.594063 C 113.969063 89.555 119.910938 88.800938 120.11 62.941875 C 119.695937 37.121875 112.45 37.901875 112.156875 37.901875 C 101.586875 37.901875 95.653125 45.813125 85.456875 55.379063 C 71.695937 68.296875 63.114063 58.230938 59.559063 50.980938 C 57.368125 46.063125 55.410938 40.614063 51.995938 37.418125 C 51.511875 36.965 51.325 36.261875 51.465938 35.585938 L 51.855938 33.77 C 51.914062 33.535938 51.745938 33.316875 51.493125 33.285938 C 49.879063 33.18 48.550938 33.743125 47.375 35.085938 C 46.813125 34.945937 46.2 34.835938 45.543125 34.774062 C 41.316875 34.316875 40.469062 36.465 36.368125 36.465 L 34.379063 36.465 C 30.669062 36.465 27.566875 38.230938 26.046875 40.833125 C 24.836875 42.906875 24.796875 45.165 26.785937 45.383125 C 26.171875 47.566875 28.215937 48.423125 32.781875 46.329062 C 32.781875 46.329062 36.375 48.390937 41.348125 48.390937 C 44.035938 48.390937 44.835938 48.816875 45.825 53.125 C 48.204062 63.601875 57.598125 80.825 76.595 80.825 C 76.793125 81.11 76.985 81.386875 77.171875 81.640938 C 80.399062 86.210938 81.386875 91.989063 79.524062 97.235 C 78.02 101.480937 76.11 104.735 76.11 104.735 C 76.168125 105.316875 76.168125 105.879063 76.168125 106.441875 C 76.075 110.899062 74.918125 115.945937 73.835938 118.995937 " transform="matrix(12.5, 0, 0, 12.5, 0, 0)"/>
<path fill-rule="nonzero" fill="rgb(100%, 100%, 100%)" fill-opacity="1" d="M 563.773438 489.164062 C 562.449219 489.9375 560.148438 490.136719 557.5625 490.425781 C 555.710938 501.710938 546.4375 510.449219 534.625 510.449219 C 522.800781 510.449219 513.375 501.699219 511.523438 490.425781 C 508.886719 490.425781 506.648438 489.699219 505.273438 489.164062 C 499.3125 486.664062 516.898438 472.511719 534.523438 472.511719 C 552.101562 472.511719 569.675781 486.625 563.726562 489.164062 Z M 563.773438 489.164062 "/>
<path fill="none" stroke-width="5.449" stroke-linecap="butt" stroke-linejoin="round" stroke="rgb(0%, 35.294118%, 49.019608%)" stroke-opacity="1" stroke-miterlimit="4" d="M 119.89 64 C 119.89 94.868125 94.866875 119.89 64 119.89 C 33.133125 119.89 8.11 94.869062 8.11 64 C 8.11 33.133125 33.133125 8.11 64 8.11 C 94.866875 8.11 119.89 33.133125 119.89 64 Z M 119.89 64 " transform="matrix(12.5, 0, 0, 12.5, 0, 0)"/>
<path fill="none" stroke-width="5.95" stroke-linecap="butt" stroke-linejoin="round" stroke="rgb(91.372549%, 91.372549%, 91.372549%)" stroke-opacity="1" stroke-miterlimit="4" d="M 125.024062 64 C 125.024062 97.703125 97.704063 125.024062 64 125.024062 C 30.295938 125.024062 2.976875 97.704063 2.976875 64 C 2.976875 30.295938 30.296875 2.976875 64 2.976875 C 97.703125 2.976875 125.024062 30.296875 125.024062 64 Z M 125.024062 64 " transform="matrix(12.5, 0, 0, 12.5, 0, 0)"/>
</svg>
