<?xml version="1.0" encoding="UTF-8"?>
<svg xmlns="http://www.w3.org/2000/svg" xmlns:xlink="http://www.w3.org/1999/xlink" width="900" height="900" viewBox="0 0 900 900">
<path fill-rule="nonzero" fill="rgb(91.372549%, 91.372549%, 91.372549%)" fill-opacity="1" d="M 837.542969 449.261719 C 837.542969 662.609375 664.59375 835.558594 451.238281 835.558594 C 237.882812 835.558594 64.925781 662.617188 64.925781 449.269531 C 64.925781 235.914062 237.882812 62.957031 451.238281 62.957031 C 664.59375 62.957031 837.542969 235.914062 837.542969 449.269531 M 837.542969 449.269531 "/>
<path fill-rule="nonzero" fill="rgb(0%, 35.294118%, 49.019608%)" fill-opacity="1" stroke-width="2.349" stroke-linecap="butt" stroke-linejoin="miter" stroke="rgb(0%, 35.294118%, 49.019608%)" stroke-opacity="1" stroke-miterlimit="10" d="M 99.007778 89.913889 C 99.147778 95.52 102.231111 103.5 102.231111 103.5 L 99.836111 106.792778 C 96.571111 107.867778 95.547222 105.891111 94.726111 104.61 C 94.726111 104.61 92.062778 97.058889 89.966111 91.75 L 88.637222 87.98 Z M 99.007778 89.913889 " transform="matrix(7.03125, 0, 0, 7.03125, 0, 0)"/>
<path fill-rule="nonzero" fill="rgb(0%, 35.294118%, 49.019608%)" fill-opacity="1" stroke-width="2.349" stroke-linecap="butt" stroke-linejoin="miter" stroke="rgb(0%, 35.294118%, 49.019608%)" stroke-opacity="1" stroke-miterlimit="10" d="M 79.532222 117.82 C 80.878889 112.753889 82.577778 108.285 85.172222 103.625 C 85.172222 103.625 88.492222 96.547222 90.2 91.067222 C 90.59 89.797222 91.875 89.032222 93.207222 89.235 C 94.27 89.407222 95.398889 89.567222 96.606111 89.7 C 97.042778 89.762222 97.481111 89.777778 97.917778 89.825 C 100.571111 89.898889 103.141111 90.005 105.617778 90.023889 C 106.834444 90.035 108.050556 90.016667 109.266111 89.968889 C 110.457222 89.918889 112.5 89.738889 113.641111 89.593889 C 113.968889 89.555 119.911111 88.801111 120.11 62.942222 C 119.696111 37.122222 112.45 37.902222 112.157222 37.902222 C 101.587222 37.902222 95.652778 45.812778 85.457222 55.378889 C 71.696111 68.297222 63.113889 58.231111 59.558889 50.981111 C 57.367778 46.062778 55.411111 40.613889 51.996111 37.417778 C 51.512222 36.965 51.325 36.262222 51.466111 35.586111 L 51.856111 33.77 C 51.913889 33.536111 51.746111 33.317222 51.492778 33.286111 C 49.878889 33.18 48.551111 33.742778 47.375 35.086111 C 46.812778 34.946111 46.2 34.836111 45.542778 34.773889 C 41.317222 34.317222 40.468889 36.465 36.367778 36.465 L 34.378889 36.465 C 30.668889 36.465 27.567222 38.231111 26.047222 40.832778 C 24.837222 42.907222 24.797222 45.165 26.786111 45.382778 C 26.172222 47.567222 28.216111 48.422778 32.782222 46.328889 C 32.782222 46.328889 36.375 48.391111 41.347778 48.391111 C 44.036111 48.391111 44.836111 48.817222 45.825 53.125 C 48.203889 63.602222 57.597778 80.825 76.595 80.825 C 76.792778 81.11 76.985 81.387222 77.172222 81.641111 C 80.398889 86.211111 81.387222 91.988889 79.523889 97.235 C 78.02 101.481111 76.11 104.735 76.11 104.735 C 76.167778 105.317222 76.167778 105.878889 76.167778 106.442222 C 76.075 110.898889 74.917778 115.946111 73.836111 118.996111 " transform="matrix(7.03125, 0, 0, 7.03125, 0, 0)"/>
<path fill-rule="nonzero" fill="rgb(100%, 100%, 100%)" fill-opacity="1" d="M 317.125 275.152344 C 316.378906 275.589844 315.085938 275.703125 313.628906 275.863281 C 312.589844 282.214844 307.371094 287.128906 300.726562 287.128906 C 294.074219 287.128906 288.773438 282.207031 287.734375 275.863281 C 286.25 275.863281 284.992188 275.457031 284.21875 275.152344 C 280.863281 273.746094 290.757812 265.789062 300.671875 265.789062 C 310.554688 265.789062 320.441406 273.726562 317.09375 275.152344 Z M 317.125 275.152344 "/>
<path fill="none" stroke-width="5.449" stroke-linecap="butt" stroke-linejoin="round" stroke="rgb(0%, 35.294118%, 49.019608%)" stroke-opacity="1" stroke-miterlimit="4" d="M 119.89 64 C 119.89 94.867778 94.867222 119.89 64 119.89 C 33.132778 119.89 8.11 94.868889 8.11 64 C 8.11 33.132778 33.132778 8.11 64 8.11 C 94.867222 8.11 119.89 33.132778 119.89 64 Z M 119.89 64 " transform="matrix(7.03125, 0, 0, 7.03125, 0, 0)"/>
<path fill="none" stroke-width="5.95" stroke-linecap="butt" stroke-linejoin="round" stroke="rgb(91.372549%, 91.372549%, 91.372549%)" stroke-opacity="1" stroke-miterlimit="4" d="M 125.023889 64 C 125.023889 97.702778 97.703889 125.023889 64 125.023889 C 30.296111 125.023889 2.977222 97.703889 2.977222 64 C 2.977222 30.296111 30.297222 2.977222 64 2.977222 C 97.702778 2.977222 125.023889 30.297222 125.023889 64 Z M 125.023889 64 " transform="matrix(7.03125, 0, 0, 7.03125, 0, 0)"/>
</svg>
