<?xml version="1.0" encoding="UTF-8"?>
<svg xmlns="http://www.w3.org/2000/svg" xmlns:xlink="http://www.w3.org/1999/xlink" width="1900" height="1900" viewBox="0 0 1900 1900">
<path fill-rule="nonzero" fill="rgb(91.372549%, 91.372549%, 91.372549%)" fill-opacity="1" d="M 1768.144531 948.441406 C 1768.144531 1398.84375 1403.03125 1763.957031 952.613281 1763.957031 C 502.195312 1763.957031 137.066406 1398.859375 137.066406 948.457031 C 137.066406 498.039062 502.195312 132.910156 952.613281 132.910156 C 1403.03125 132.910156 1768.144531 498.039062 1768.144531 948.457031 M 1768.144531 948.457031 "/>
<path fill-rule="nonzero" fill="rgb(0%, 35.294118%, 49.019608%)" fill-opacity="1" stroke-width="2.349" stroke-linecap="butt" stroke-linejoin="miter" stroke="rgb(0%, 35.294118%, 49.019608%)" stroke-opacity="1" stroke-miterlimit="10" d="M 99.007895 89.913947 C 99.147895 95.52 102.231053 103.5 102.231053 103.5 L 99.836053 106.792895 C 96.571053 107.867895 95.547105 105.891053 94.726053 104.61 C 94.726053 104.61 92.062895 97.058947 89.966053 91.75 L 88.637105 87.98 Z M 99.007895 89.913947 " transform="matrix(14.84375, 0, 0, 14.84375, 0, 0)"/>
<path fill-rule="nonzero" fill="rgb(0%, 35.294118%, 49.019608%)" fill-opacity="1" stroke-width="2.349" stroke-linecap="butt" stroke-linejoin="miter" stroke="rgb(0%, 35.294118%, 49.019608%)" stroke-opacity="1" stroke-miterlimit="10" d="M 79.532105 117.82 C 80.878947 112.753947 82.577895 108.285 85.172105 103.625 C 85.172105 103.625 88.492105 96.547105 90.2 91.067105 C 90.59 89.797105 91.875 89.032105 93.207105 89.235 C 94.27 89.407105 95.398947 89.567105 96.606053 89.7 C 97.042895 89.762105 97.481053 89.777895 97.917895 89.825 C 100.571053 89.898947 103.141053 90.005 105.617895 90.023947 C 106.834211 90.035263 108.050526 90.016842 109.266053 89.968947 C 110.457105 89.918947 112.5 89.738947 113.641053 89.593947 C 113.968947 89.555 119.911053 88.801053 120.11 62.942105 C 119.696053 37.122105 112.45 37.902105 112.157105 37.902105 C 101.587105 37.902105 95.652895 45.812895 85.457105 55.378947 C 71.696053 68.297105 63.113947 58.231053 59.558947 50.981053 C 57.367895 46.062895 55.411053 40.613947 51.996053 37.417895 C 51.512105 36.965 51.325 36.262105 51.466053 35.586053 L 51.856053 33.77 C 51.913947 33.536053 51.746053 33.317105 51.492895 33.286053 C 49.878947 33.18 48.551053 33.742895 47.375 35.086053 C 46.812895 34.946053 46.2 34.836053 45.542895 34.773947 C 41.317105 34.317105 40.468947 36.465 36.367895 36.465 L 34.378947 36.465 C 30.668947 36.465 27.567105 38.231053 26.047105 40.832895 C 24.837105 42.907105 24.797105 45.165 26.786053 45.382895 C 26.172105 47.567105 28.216053 48.422895 32.782105 46.328947 C 32.782105 46.328947 36.375 48.391053 41.347895 48.391053 C 44.036053 48.391053 44.836053 48.817105 45.825 53.125 C 48.203947 63.602105 57.597895 80.825 76.595 80.825 C 76.792895 81.11 76.985 81.387105 77.172105 81.641053 C 80.398947 86.211053 81.387105 91.988947 79.523947 97.235 C 78.02 101.481053 76.11 104.735 76.11 104.735 C 76.167895 105.317105 76.167895 105.878947 76.167895 106.442105 C 76.075 110.898947 74.917895 115.946053 73.836053 118.996053 " transform="matrix(14.84375, 0, 0, 14.84375, 0, 0)"/>
<path fill-rule="nonzero" fill="rgb(100%, 100%, 100%)" fill-opacity="1" d="M 669.484375 580.878906 C 667.910156 581.800781 665.179688 582.039062 662.105469 582.378906 C 659.910156 595.785156 648.894531 606.160156 634.867188 606.160156 C 620.824219 606.160156 609.632812 595.769531 607.4375 582.378906 C 604.304688 582.378906 601.648438 581.519531 600.015625 580.878906 C 592.933594 577.910156 613.820312 561.109375 634.75 561.109375 C 655.617188 561.109375 676.488281 577.867188 669.421875 580.878906 Z M 669.484375 580.878906 "/>
<path fill="none" stroke-width="5.449" stroke-linecap="butt" stroke-linejoin="round" stroke="rgb(0%, 35.294118%, 49.019608%)" stroke-opacity="1" stroke-miterlimit="4" d="M 119.89 64 C 119.89 94.867895 94.867105 119.89 64 119.89 C 33.132895 119.89 8.11 94.868947 8.11 64 C 8.11 33.132895 33.132895 8.11 64 8.11 C 94.867105 8.11 119.89 33.132895 119.89 64 Z M 119.89 64 " transform="matrix(14.84375, 0, 0, 14.84375, 0, 0)"/>
<path fill="none" stroke-width="5.95" stroke-linecap="butt" stroke-linejoin="round" stroke="rgb(91.372549%, 91.372549%, 91.372549%)" stroke-opacity="1" stroke-miterlimit="4" d="M 125.023947 64 C 125.023947 97.702895 97.703947 125.023947 64 125.023947 C 30.296053 125.023947 2.977105 97.703947 2.977105 64 C 2.977105 30.296053 30.297105 2.977105 64 2.977105 C 97.702895 2.977105 125.023947 30.297105 125.023947 64 Z M 125.023947 64 " transform="matrix(14.84375, 0, 0, 14.84375, 0, 0)"/>
</svg>
