<?xml version="1.0" encoding="UTF-8"?>
<svg xmlns="http://www.w3.org/2000/svg" xmlns:xlink="http://www.w3.org/1999/xlink" width="96" height="96" viewBox="0 0 96 96">
<path fill-rule="nonzero" fill="rgb(91.372549%, 91.372549%, 91.372549%)" fill-opacity="1" d="M 89.335938 47.921875 C 89.335938 70.679688 70.890625 89.125 48.132812 89.125 C 25.375 89.125 6.925781 70.679688 6.925781 47.921875 C 6.925781 25.164062 25.375 6.714844 48.132812 6.714844 C 70.890625 6.714844 89.335938 25.164062 89.335938 47.921875 M 89.335938 47.921875 "/>
<path fill="none" stroke-width="2.349" stroke-linecap="butt" stroke-linejoin="miter" stroke="rgb(0%, 35.294118%, 49.019608%)" stroke-opacity="1" stroke-miterlimit="10" d="M 99.010417 89.911458 C 99.151042 95.520833 102.229167 103.494792 102.229167 103.494792 L 99.838542 106.791667 C 96.567708 107.869792 95.546875 105.890625 94.723958 104.609375 C 94.723958 104.609375 92.067708 97.057292 89.963542 91.75 L 88.635417 87.979167 Z M 99.010417 89.911458 " transform="matrix(0.75, 0, 0, 0.75, 0, 0)"/>
<path fill-rule="nonzero" fill="rgb(91.372549%, 91.372549%, 91.372549%)" fill-opacity="1" stroke-width="2.349" stroke-linecap="butt" stroke-linejoin="miter" stroke="rgb(0%, 35.294118%, 49.019608%)" stroke-opacity="1" stroke-miterlimit="10" d="M 79.53125 117.817708 C 80.880208 112.755208 82.578125 108.286458 85.171875 103.625 C 85.171875 103.625 88.489583 96.546875 90.197917 91.067708 C 90.588542 89.796875 91.875 89.026042 93.208333 89.234375 C 94.270833 89.401042 95.395833 89.5625 96.604167 89.697917 C 97.041667 89.760417 97.479167 89.776042 97.916667 89.822917 C 100.567708 89.901042 103.140625 90.005208 105.619792 90.026042 C 106.833333 90.036458 108.052083 90.015625 109.265625 89.96875 C 110.463542 89.916667 112.5 89.739583 113.640625 89.59375 C 113.96875 89.557292 119.911458 88.796875 120.109375 62.942708 C 119.692708 37.119792 112.447917 37.901042 112.15625 37.901042 C 101.588542 37.901042 95.651042 45.8125 85.463542 55.380208 C 71.692708 68.296875 63.114583 58.229167 59.557292 50.979167 C 57.364583 46.0625 55.411458 40.614583 51.994792 37.416667 C 51.510417 36.963542 51.322917 36.260417 51.463542 35.588542 L 51.854167 33.770833 C 51.916667 33.53125 51.744792 33.3125 51.489583 33.286458 C 49.880208 33.177083 48.552083 33.739583 47.375 35.088542 C 46.770833 34.9375 46.161458 34.828125 45.541667 34.770833 C 41.317708 34.317708 40.46875 36.463542 36.364583 36.463542 L 34.380208 36.463542 C 30.671875 36.463542 27.567708 38.229167 26.046875 40.833333 C 24.838542 42.90625 24.796875 45.166667 26.786458 45.385417 C 26.171875 47.567708 28.213542 48.421875 32.78125 46.328125 C 32.78125 46.328125 36.375 48.390625 41.348958 48.390625 C 44.041667 48.390625 44.838542 48.817708 45.822917 53.125 C 48.203125 63.598958 57.598958 80.822917 76.59375 80.822917 C 76.791667 81.109375 76.984375 81.385417 77.171875 81.635417 C 80.401042 86.213542 81.385417 91.989583 79.526042 97.234375 C 78.020833 101.479167 76.109375 104.734375 76.109375 104.734375 C 76.166667 105.317708 76.166667 105.880208 76.166667 106.442708 C 76.072917 110.901042 74.916667 115.947917 73.838542 118.994792 " transform="matrix(0.75, 0, 0, 0.75, 0, 0)"/>
<path fill-rule="nonzero" fill="rgb(0%, 35.294118%, 49.019608%)" fill-opacity="1" d="M 33.828125 29.351562 C 33.746094 29.394531 33.609375 29.410156 33.453125 29.425781 C 33.34375 30.101562 32.785156 30.625 32.078125 30.625 C 31.371094 30.625 30.800781 30.101562 30.691406 29.425781 C 30.535156 29.425781 30.398438 29.382812 30.316406 29.351562 C 29.957031 29.199219 31.015625 28.351562 32.070312 28.351562 C 33.125 28.351562 34.179688 29.199219 33.824219 29.351562 Z M 33.828125 29.351562 "/>
<path fill="none" stroke-width="5.449" stroke-linecap="butt" stroke-linejoin="round" stroke="rgb(0%, 35.294118%, 49.019608%)" stroke-opacity="1" stroke-miterlimit="4" d="M 119.890625 64 C 119.890625 94.869792 94.864583 119.890625 64 119.890625 C 33.135417 119.890625 8.109375 94.869792 8.109375 64 C 8.109375 33.135417 33.135417 8.109375 64 8.109375 C 94.864583 8.109375 119.890625 33.135417 119.890625 64 Z M 119.890625 64 " transform="matrix(0.75, 0, 0, 0.75, 0, 0)"/>
<path fill="none" stroke-width="5.95" stroke-linecap="butt" stroke-linejoin="round" stroke="rgb(91.372549%, 91.372549%, 91.372549%)" stroke-opacity="1" stroke-miterlimit="4" d="M 125.020833 64 C 125.020833 97.703125 97.703125 125.026042 64 125.026042 C 30.296875 125.026042 2.979167 97.703125 2.979167 64 C 2.979167 30.296875 30.296875 2.979167 64 2.979167 C 97.703125 2.979167 125.020833 30.296875 125.020833 64 Z M 125.020833 64 " transform="matrix(0.75, 0, 0, 0.75, 0, 0)"/>
</svg>
