<?xml version="1.0" encoding="UTF-8"?>
<svg xmlns="http://www.w3.org/2000/svg" xmlns:xlink="http://www.w3.org/1999/xlink" width="2250" height="2250" viewBox="0 0 2250 2250">
<path fill-rule="nonzero" fill="rgb(91.372549%, 91.372549%, 91.372549%)" fill-opacity="1" d="M 2093.851562 1123.15625 C 2093.851562 1656.527344 1661.484375 2088.898438 1128.09375 2088.898438 C 594.703125 2088.898438 162.316406 1656.546875 162.316406 1123.171875 C 162.316406 589.78125 594.703125 157.394531 1128.09375 157.394531 C 1661.484375 157.394531 2093.851562 589.78125 2093.851562 1123.171875 M 2093.851562 1123.171875 "/>
<path fill="none" stroke-width="2.349" stroke-linecap="butt" stroke-linejoin="miter" stroke="rgb(0%, 35.294118%, 49.019608%)" stroke-opacity="1" stroke-miterlimit="10" d="M 99.008 89.914 C 99.152 95.52 102.23 103.496 102.23 103.496 L 99.836 106.792889 C 96.57 107.868 95.546 105.891111 94.726 104.61 C 94.726 104.61 92.066 97.059111 89.964889 91.75 L 88.636889 87.977111 Z M 99.008 89.914 " transform="matrix(17.578125, 0, 0, 17.578125, 0, 0)"/>
<path fill-rule="nonzero" fill="rgb(91.372549%, 91.372549%, 91.372549%)" fill-opacity="1" stroke-width="2.349" stroke-linecap="butt" stroke-linejoin="miter" stroke="rgb(0%, 35.294118%, 49.019608%)" stroke-opacity="1" stroke-miterlimit="10" d="M 79.531111 117.82 C 80.879111 112.754 82.578 108.284889 85.171111 103.624889 C 85.171111 103.624889 88.492 96.547111 90.199111 91.067111 C 90.589111 89.797111 91.875111 89.027111 93.207111 89.235111 C 94.27 89.403111 95.398 89.563111 96.604889 89.7 C 97.043111 89.758 97.48 89.778 97.918 89.825111 C 100.57 89.899111 103.140889 90.005111 105.618 90.024 C 106.834222 90.035333 108.050667 90.016889 109.266 89.969111 C 110.460889 89.919111 112.5 89.739111 113.640889 89.594 C 113.969111 89.555111 119.911111 88.797111 120.108889 62.942 C 119.695111 37.122 112.449111 37.902 112.156 37.902 C 101.586 37.902 95.652 45.812 85.461111 55.379111 C 71.695111 68.296889 63.113111 58.227111 59.559111 50.981111 C 57.367111 46.063111 55.41 40.614 51.996 37.418 C 51.512 36.961111 51.324 36.258 51.465111 35.586 L 51.855111 33.77 C 51.915111 33.532 51.746 33.312889 51.492 33.286 C 49.879111 33.176 48.551111 33.739111 47.375111 35.086 C 46.773111 34.934889 46.160667 34.829333 45.543111 34.77 C 41.317111 34.316889 40.469111 36.460889 36.367111 36.460889 L 34.38 36.460889 C 30.67 36.460889 27.568 38.231111 26.048 40.832 C 24.838 42.907111 24.798 45.164889 26.786 45.383111 C 26.173111 47.567111 28.216 48.423111 32.782 46.328889 C 32.782 46.328889 36.376 48.391111 41.349111 48.391111 C 44.04 48.391111 44.840889 48.816889 45.824889 53.124889 C 48.205111 63.598 57.599111 80.824889 76.595111 80.824889 C 76.794 81.11 76.984889 81.387111 77.172889 81.636889 C 80.399111 86.211111 81.388 91.988889 79.524 97.235111 C 78.020889 101.476889 76.11 104.735111 76.11 104.735111 C 76.168889 105.316889 76.168889 105.879111 76.168889 106.442 C 76.075111 110.898889 74.919111 115.946 73.836889 118.996 " transform="matrix(17.578125, 0, 0, 17.578125, 0, 0)"/>
<path fill-rule="nonzero" fill="rgb(0%, 35.294118%, 49.019608%)" fill-opacity="1" d="M 792.808594 687.882812 C 790.945312 688.90625 787.710938 689.257812 784.070312 689.660156 C 781.46875 705.53125 768.425781 717.75 751.816406 717.75 C 735.257812 717.75 721.933594 705.53125 719.332031 689.660156 C 715.691406 689.660156 712.476562 688.640625 710.542969 687.882812 C 702.15625 684.367188 726.890625 664.46875 751.675781 664.46875 C 776.390625 664.46875 801.105469 684.316406 792.738281 687.882812 Z M 792.808594 687.882812 "/>
<path fill="none" stroke-width="5.449" stroke-linecap="butt" stroke-linejoin="round" stroke="rgb(0%, 35.294118%, 49.019608%)" stroke-opacity="1" stroke-miterlimit="4" d="M 119.89 64 C 119.89 94.868 94.867111 119.89 64 119.89 C 33.132889 119.89 8.11 94.868889 8.11 64 C 8.11 33.132889 33.132889 8.11 64 8.11 C 94.866889 8.11 119.89 33.132889 119.89 64 Z M 119.89 64 " transform="matrix(17.578125, 0, 0, 17.578125, 0, 0)"/>
<path fill="none" stroke-width="5.95" stroke-linecap="butt" stroke-linejoin="round" stroke="rgb(91.372549%, 91.372549%, 91.372549%)" stroke-opacity="1" stroke-miterlimit="4" d="M 125.023111 64 C 125.023111 97.703111 97.703111 125.024 64 125.024 C 30.296889 125.024 2.976889 97.704 2.976889 64 C 2.976889 30.296 30.296889 2.976889 64 2.976889 C 97.703111 2.976889 125.023111 30.296889 125.023111 64 Z M 125.023111 64 " transform="matrix(17.578125, 0, 0, 17.578125, 0, 0)"/>
</svg>
