<?xml version="1.0" encoding="UTF-8"?>
<svg xmlns="http://www.w3.org/2000/svg" xmlns:xlink="http://www.w3.org/1999/xlink" width="2500" height="2500" viewBox="0 0 2500 2500">
<path fill-rule="nonzero" fill="rgb(91.372549%, 91.372549%, 91.372549%)" fill-opacity="1" d="M 2326.503906 1247.949219 C 2326.503906 1840.585938 1846.09375 2320.996094 1253.4375 2320.996094 C 660.78125 2320.996094 180.351562 1840.605469 180.351562 1247.96875 C 180.351562 655.3125 660.78125 174.882812 1253.4375 174.882812 C 1846.09375 174.882812 2326.503906 655.3125 2326.503906 1247.96875 M 2326.503906 1247.96875 "/>
<path fill="none" stroke-width="2.349" stroke-linecap="butt" stroke-linejoin="miter" stroke="rgb(0%, 35.294118%, 49.019608%)" stroke-opacity="1" stroke-miterlimit="10" d="M 99.008 89.914 C 99.152 95.52 102.23 103.496 102.23 103.496 L 99.836 106.793 C 96.57 107.868 95.546 105.891 94.726 104.61 C 94.726 104.61 92.066 97.059 89.965 91.75 L 88.637 87.977 Z M 99.008 89.914 " transform="matrix(19.53125, 0, 0, 19.53125, 0, 0)"/>
<path fill-rule="nonzero" fill="rgb(91.372549%, 91.372549%, 91.372549%)" fill-opacity="1" stroke-width="2.349" stroke-linecap="butt" stroke-linejoin="miter" stroke="rgb(0%, 35.294118%, 49.019608%)" stroke-opacity="1" stroke-miterlimit="10" d="M 79.531 117.82 C 80.879 112.754 82.578 108.285 85.171 103.625 C 85.171 103.625 88.492 96.547 90.199 91.067 C 90.589 89.797 91.875 89.027 93.207 89.235 C 94.27 89.403 95.398 89.563 96.605 89.7 C 97.043 89.758 97.48 89.778 97.918 89.825 C 100.57 89.899 103.141 90.005 105.618 90.024 C 106.8342 90.0352 108.0506 90.017 109.266 89.969 C 110.461 89.919 112.5 89.739 113.641 89.594 C 113.969 89.555 119.911 88.797 120.109 62.942 C 119.695 37.122 112.449 37.902 112.156 37.902 C 101.586 37.902 95.652 45.812 85.461 55.379 C 71.695 68.297 63.113 58.227 59.559 50.981 C 57.367 46.063 55.41 40.614 51.996 37.418 C 51.512 36.961 51.324 36.258 51.465 35.586 L 51.855 33.77 C 51.915 33.532 51.746 33.313 51.492 33.286 C 49.879 33.176 48.551 33.739 47.375 35.086 C 46.7732 34.935 46.1608 34.8294 45.543 34.77 C 41.317 34.317 40.469 36.461 36.367 36.461 L 34.38 36.461 C 30.67 36.461 27.568 38.231 26.048 40.832 C 24.838 42.907 24.798 45.165 26.786 45.383 C 26.173 47.567 28.216 48.423 32.782 46.329 C 32.782 46.329 36.376 48.391 41.349 48.391 C 44.04 48.391 44.841 48.817 45.825 53.125 C 48.205 63.598 57.599 80.825 76.595 80.825 C 76.794 81.11 76.985 81.387 77.173 81.637 C 80.399 86.211 81.388 91.989 79.524 97.235 C 78.021 101.477 76.11 104.735 76.11 104.735 C 76.169 105.317 76.169 105.879 76.169 106.442 C 76.075 110.899 74.919 115.946 73.837 118.996 " transform="matrix(19.53125, 0, 0, 19.53125, 0, 0)"/>
<path fill-rule="nonzero" fill="rgb(0%, 35.294118%, 49.019608%)" fill-opacity="1" d="M 880.898438 764.316406 C 878.828125 765.449219 875.234375 765.839844 871.191406 766.289062 C 868.300781 783.925781 853.808594 797.5 835.351562 797.5 C 816.953125 797.5 802.148438 783.925781 799.257812 766.289062 C 795.214844 766.289062 791.640625 765.15625 789.492188 764.316406 C 780.175781 760.410156 807.65625 738.300781 835.195312 738.300781 C 862.65625 738.300781 890.117188 760.351562 880.820312 764.316406 Z M 880.898438 764.316406 "/>
<path fill="none" stroke-width="5.449" stroke-linecap="butt" stroke-linejoin="round" stroke="rgb(0%, 35.294118%, 49.019608%)" stroke-opacity="1" stroke-miterlimit="4" d="M 119.89 64 C 119.89 94.868 94.867 119.89 64 119.89 C 33.133 119.89 8.11 94.869 8.11 64 C 8.11 33.133 33.133 8.11 64 8.11 C 94.867 8.11 119.89 33.133 119.89 64 Z M 119.89 64 " transform="matrix(19.53125, 0, 0, 19.53125, 0, 0)"/>
<path fill="none" stroke-width="5.95" stroke-linecap="butt" stroke-linejoin="round" stroke="rgb(91.372549%, 91.372549%, 91.372549%)" stroke-opacity="1" stroke-miterlimit="4" d="M 125.023 64 C 125.023 97.703 97.703 125.024 64 125.024 C 30.297 125.024 2.977 97.704 2.977 64 C 2.977 30.296 30.297 2.977 64 2.977 C 97.703 2.977 125.023 30.297 125.023 64 Z M 125.023 64 " transform="matrix(19.53125, 0, 0, 19.53125, 0, 0)"/>
</svg>
