<?xml version="1.0" encoding="UTF-8"?>
<svg xmlns="http://www.w3.org/2000/svg" xmlns:xlink="http://www.w3.org/1999/xlink" width="900" height="900" viewBox="0 0 900 900">
<path fill-rule="nonzero" fill="rgb(91.372549%, 91.372549%, 91.372549%)" fill-opacity="1" d="M 837.542969 449.261719 C 837.542969 662.609375 664.59375 835.558594 451.238281 835.558594 C 237.882812 835.558594 64.925781 662.617188 64.925781 449.269531 C 64.925781 235.914062 237.882812 62.957031 451.238281 62.957031 C 664.59375 62.957031 837.542969 235.914062 837.542969 449.269531 M 837.542969 449.269531 "/>
<path fill="none" stroke-width="2.349" stroke-linecap="butt" stroke-linejoin="miter" stroke="rgb(0%, 35.294118%, 49.019608%)" stroke-opacity="1" stroke-miterlimit="10" d="M 99.007778 89.913889 C 99.152222 95.52 102.23 103.496111 102.23 103.496111 L 99.836111 106.792778 C 96.57 107.867778 95.546111 105.891111 94.726111 104.61 C 94.726111 104.61 92.066111 97.058889 89.965 91.75 L 88.637222 87.977222 Z M 99.007778 89.913889 " transform="matrix(7.03125, 0, 0, 7.03125, 0, 0)"/>
<path fill-rule="nonzero" fill="rgb(91.372549%, 91.372549%, 91.372549%)" fill-opacity="1" stroke-width="2.349" stroke-linecap="butt" stroke-linejoin="miter" stroke="rgb(0%, 35.294118%, 49.019608%)" stroke-opacity="1" stroke-miterlimit="10" d="M 79.531111 117.82 C 80.878889 112.753889 82.577778 108.285 85.171111 103.625 C 85.171111 103.625 88.492222 96.547222 90.198889 91.067222 C 90.588889 89.797222 91.875 89.027222 93.207222 89.235 C 94.27 89.402778 95.397778 89.562778 96.605 89.7 C 97.042778 89.757778 97.48 89.777778 97.917778 89.825 C 100.57 89.898889 103.141111 90.005 105.617778 90.023889 C 106.834444 90.035 108.050556 90.016667 109.266111 89.968889 C 110.461111 89.918889 112.5 89.738889 113.641111 89.593889 C 113.968889 89.555 119.911111 88.797222 120.108889 62.942222 C 119.695 37.122222 112.448889 37.902222 112.156111 37.902222 C 101.586111 37.902222 95.652222 45.812222 85.461111 55.378889 C 71.695 68.297222 63.112778 58.227222 59.558889 50.981111 C 57.367222 46.062778 55.41 40.613889 51.996111 37.417778 C 51.512222 36.961111 51.323889 36.257778 51.465 35.586111 L 51.855 33.77 C 51.915 33.532222 51.746111 33.312778 51.492222 33.286111 C 49.878889 33.176111 48.551111 33.738889 47.375 35.086111 C 46.773333 34.935 46.160556 34.829444 45.542778 34.77 C 41.317222 34.317222 40.468889 36.461111 36.367222 36.461111 L 34.38 36.461111 C 30.67 36.461111 27.567778 38.231111 26.047778 40.832222 C 24.837778 42.907222 24.797778 45.165 26.786111 45.382778 C 26.172778 47.567222 28.216111 48.422778 32.782222 46.328889 C 32.782222 46.328889 36.376111 48.391111 41.348889 48.391111 C 44.04 48.391111 44.841111 48.817222 45.825 53.125 C 48.205 63.597778 57.598889 80.825 76.595 80.825 C 76.793889 81.11 76.985 81.387222 77.172778 81.637222 C 80.398889 86.211111 81.387778 91.988889 79.523889 97.235 C 78.021111 101.477222 76.11 104.735 76.11 104.735 C 76.168889 105.317222 76.168889 105.878889 76.168889 106.442222 C 76.075 110.898889 74.918889 115.946111 73.837222 118.996111 " transform="matrix(7.03125, 0, 0, 7.03125, 0, 0)"/>
<path fill-rule="nonzero" fill="rgb(0%, 35.294118%, 49.019608%)" fill-opacity="1" d="M 317.125 275.152344 C 316.378906 275.5625 315.085938 275.703125 313.628906 275.863281 C 312.589844 282.214844 307.371094 287.101562 300.726562 287.101562 C 294.101562 287.101562 288.773438 282.214844 287.734375 275.863281 C 286.277344 275.863281 284.992188 275.457031 284.21875 275.152344 C 280.863281 273.746094 290.757812 265.789062 300.671875 265.789062 C 310.554688 265.789062 320.441406 273.726562 317.09375 275.152344 Z M 317.125 275.152344 "/>
<path fill="none" stroke-width="5.449" stroke-linecap="butt" stroke-linejoin="round" stroke="rgb(0%, 35.294118%, 49.019608%)" stroke-opacity="1" stroke-miterlimit="4" d="M 119.89 64 C 119.89 94.867778 94.867222 119.89 64 119.89 C 33.132778 119.89 8.11 94.868889 8.11 64 C 8.11 33.132778 33.132778 8.11 64 8.11 C 94.867222 8.11 119.89 33.132778 119.89 64 Z M 119.89 64 " transform="matrix(7.03125, 0, 0, 7.03125, 0, 0)"/>
<path fill="none" stroke-width="5.95" stroke-linecap="butt" stroke-linejoin="round" stroke="rgb(91.372549%, 91.372549%, 91.372549%)" stroke-opacity="1" stroke-miterlimit="4" d="M 125.022778 64 C 125.022778 97.702778 97.702778 125.023889 64 125.023889 C 30.297222 125.023889 2.977222 97.703889 2.977222 64 C 2.977222 30.296111 30.297222 2.977222 64 2.977222 C 97.702778 2.977222 125.022778 30.297222 125.022778 64 Z M 125.022778 64 " transform="matrix(7.03125, 0, 0, 7.03125, 0, 0)"/>
</svg>
