<?xml version="1.0" encoding="UTF-8"?>
<svg xmlns="http://www.w3.org/2000/svg" xmlns:xlink="http://www.w3.org/1999/xlink" width="1800" height="1800" viewBox="0 0 1800 1800">
<path fill-rule="nonzero" fill="rgb(91.372549%, 91.372549%, 91.372549%)" fill-opacity="1" d="M 1675.082031 898.523438 C 1675.082031 1325.222656 1329.1875 1671.117188 902.476562 1671.117188 C 475.761719 1671.117188 129.851562 1325.234375 129.851562 898.539062 C 129.851562 471.824219 475.761719 125.914062 902.476562 125.914062 C 1329.1875 125.914062 1675.082031 471.824219 1675.082031 898.539062 M 1675.082031 898.539062 "/>
<path fill="none" stroke-width="2.349" stroke-linecap="butt" stroke-linejoin="miter" stroke="rgb(0%, 35.294118%, 49.019608%)" stroke-opacity="1" stroke-miterlimit="10" d="M 99.008056 89.913889 C 99.151944 95.52 102.23 103.496111 102.23 103.496111 L 99.836111 106.793056 C 96.57 107.868056 95.546111 105.891111 94.726111 104.61 C 94.726111 104.61 92.066111 97.058889 89.965 91.75 L 88.636944 87.976944 Z M 99.008056 89.913889 " transform="matrix(14.0625, 0, 0, 14.0625, 0, 0)"/>
<path fill-rule="nonzero" fill="rgb(91.372549%, 91.372549%, 91.372549%)" fill-opacity="1" stroke-width="2.349" stroke-linecap="butt" stroke-linejoin="miter" stroke="rgb(0%, 35.294118%, 49.019608%)" stroke-opacity="1" stroke-miterlimit="10" d="M 79.531111 117.82 C 80.878889 112.753889 82.578056 108.285 85.171111 103.625 C 85.171111 103.625 88.491944 96.546944 90.198889 91.066944 C 90.588889 89.796944 91.875 89.026944 93.206944 89.235 C 94.27 89.403056 95.398056 89.563056 96.605 89.7 C 97.043056 89.758056 97.48 89.778056 97.918056 89.825 C 100.57 89.898889 103.141111 90.005 105.618056 90.023889 C 106.834167 90.035278 108.050556 90.016944 109.266111 89.968889 C 110.461111 89.918889 112.5 89.738889 113.641111 89.593889 C 113.968889 89.555 119.911111 88.796944 120.108889 62.941944 C 119.695 37.121944 112.448889 37.901944 112.156111 37.901944 C 101.586111 37.901944 95.651944 45.811944 85.461111 55.378889 C 71.695 68.296944 63.113056 58.226944 59.558889 50.981111 C 57.366944 46.063056 55.41 40.613889 51.996111 37.418056 C 51.511944 36.961111 51.323889 36.258056 51.465 35.586111 L 51.855 33.77 C 51.915 33.531944 51.746111 33.313056 51.491944 33.286111 C 49.878889 33.176111 48.551111 33.738889 47.375 35.086111 C 46.773056 34.935 46.160833 34.829444 45.543056 34.77 C 41.316944 34.316944 40.468889 36.461111 36.366944 36.461111 L 34.38 36.461111 C 30.67 36.461111 27.568056 38.231111 26.048056 40.831944 C 24.838056 42.906944 24.798056 45.165 26.786111 45.383056 C 26.173056 47.566944 28.216111 48.423056 32.781944 46.328889 C 32.781944 46.328889 36.376111 48.391111 41.348889 48.391111 C 44.04 48.391111 44.841111 48.816944 45.825 53.125 C 48.205 63.598056 57.598889 80.825 76.595 80.825 C 76.793889 81.11 76.985 81.386944 77.173056 81.636944 C 80.398889 86.211111 81.388056 91.988889 79.523889 97.235 C 78.021111 101.476944 76.11 104.735 76.11 104.735 C 76.168889 105.316944 76.168889 105.878889 76.168889 106.441944 C 76.075 110.898889 74.918889 115.946111 73.836944 118.996111 " transform="matrix(14.0625, 0, 0, 14.0625, 0, 0)"/>
<path fill-rule="nonzero" fill="rgb(0%, 35.294118%, 49.019608%)" fill-opacity="1" d="M 634.246094 550.308594 C 632.757812 551.125 630.167969 551.40625 627.257812 551.726562 C 625.175781 564.425781 614.742188 574.199219 601.453125 574.199219 C 588.207031 574.199219 577.546875 564.425781 575.464844 551.726562 C 572.554688 551.726562 569.980469 550.914062 568.433594 550.308594 C 561.726562 547.496094 581.511719 531.578125 601.339844 531.578125 C 621.113281 531.578125 640.882812 547.453125 634.191406 550.308594 Z M 634.246094 550.308594 "/>
<path fill="none" stroke-width="5.449" stroke-linecap="butt" stroke-linejoin="round" stroke="rgb(0%, 35.294118%, 49.019608%)" stroke-opacity="1" stroke-miterlimit="4" d="M 119.89 64 C 119.89 94.868056 94.866944 119.89 64 119.89 C 33.133056 119.89 8.11 94.868889 8.11 64 C 8.11 33.133056 33.133056 8.11 64 8.11 C 94.866944 8.11 119.89 33.133056 119.89 64 Z M 119.89 64 " transform="matrix(14.0625, 0, 0, 14.0625, 0, 0)"/>
<path fill="none" stroke-width="5.95" stroke-linecap="butt" stroke-linejoin="round" stroke="rgb(91.372549%, 91.372549%, 91.372549%)" stroke-opacity="1" stroke-miterlimit="4" d="M 125.023056 64 C 125.023056 97.703056 97.703056 125.023889 64 125.023889 C 30.296944 125.023889 2.976944 97.703889 2.976944 64 C 2.976944 30.296111 30.296944 2.976944 64 2.976944 C 97.703056 2.976944 125.023056 30.296944 125.023056 64 Z M 125.023056 64 " transform="matrix(14.0625, 0, 0, 14.0625, 0, 0)"/>
</svg>
