<?xml version="1.0" encoding="UTF-8"?>
<svg xmlns="http://www.w3.org/2000/svg" xmlns:xlink="http://www.w3.org/1999/xlink" width="100" height="100" viewBox="0 0 100 100">
<path fill-rule="nonzero" fill="rgb(91.372549%, 91.372549%, 91.372549%)" fill-opacity="1" d="M 93.058594 49.917969 C 93.058594 73.625 73.84375 92.839844 50.136719 92.839844 C 26.429688 92.839844 7.214844 73.625 7.214844 49.917969 C 7.214844 26.210938 26.429688 6.996094 50.136719 6.996094 C 73.84375 6.996094 93.058594 26.210938 93.058594 49.917969 M 93.058594 49.917969 "/>
<path fill="none" stroke-width="2.349" stroke-linecap="butt" stroke-linejoin="miter" stroke="rgb(0%, 35.294118%, 49.019608%)" stroke-opacity="1" stroke-miterlimit="10" d="M 99.01 89.915 C 99.15 95.52 102.23 103.495 102.23 103.495 L 99.835 106.795 C 96.57 107.87 95.545 105.89 94.725 104.61 C 94.725 104.61 92.065 97.06 89.965 91.75 L 88.635 87.975 Z M 99.01 89.915 " transform="matrix(0.78125, 0, 0, 0.78125, 0, 0)"/>
<path fill-rule="nonzero" fill="rgb(91.372549%, 91.372549%, 91.372549%)" fill-opacity="1" stroke-width="2.349" stroke-linecap="butt" stroke-linejoin="miter" stroke="rgb(0%, 35.294118%, 49.019608%)" stroke-opacity="1" stroke-miterlimit="10" d="M 79.53 117.82 C 80.88 112.755 82.58 108.285 85.17 103.625 C 85.17 103.625 88.49 96.545 90.2 91.065 C 90.59 89.795 91.875 89.025 93.205 89.235 C 94.27 89.405 95.4 89.565 96.605 89.7 C 97.045 89.76 97.48 89.78 97.92 89.825 C 100.57 89.9 103.14 90.005 105.62 90.025 C 106.835 90.035 108.05 90.015 109.265 89.97 C 110.46 89.92 112.5 89.74 113.64 89.595 C 113.97 89.555 119.91 88.795 120.11 62.94 C 119.695 37.12 112.45 37.9 112.155 37.9 C 101.585 37.9 95.65 45.81 85.46 55.38 C 71.695 68.295 63.115 58.225 59.56 50.98 C 57.365 46.065 55.41 40.615 51.995 37.42 C 51.51 36.96 51.325 36.26 51.465 35.585 L 51.855 33.77 C 51.915 33.53 51.745 33.315 51.49 33.285 C 49.88 33.175 48.55 33.74 47.375 35.085 C 46.775 34.935 46.16 34.83 45.545 34.77 C 41.315 34.315 40.47 36.46 36.365 36.46 L 34.38 36.46 C 30.67 36.46 27.57 38.23 26.05 40.83 C 24.84 42.905 24.8 45.165 26.785 45.385 C 26.175 47.565 28.215 48.425 32.78 46.33 C 32.78 46.33 36.375 48.39 41.35 48.39 C 44.04 48.39 44.84 48.815 45.825 53.125 C 48.205 63.6 57.6 80.825 76.595 80.825 C 76.795 81.11 76.985 81.385 77.175 81.635 C 80.4 86.21 81.39 91.99 79.525 97.235 C 78.02 101.475 76.11 104.735 76.11 104.735 C 76.17 105.315 76.17 105.88 76.17 106.44 C 76.075 110.9 74.92 115.945 73.835 118.995 " transform="matrix(0.78125, 0, 0, 0.78125, 0, 0)"/>
<path fill-rule="nonzero" fill="rgb(0%, 35.294118%, 49.019608%)" fill-opacity="1" d="M 35.234375 30.574219 C 35.152344 30.617188 35.007812 30.632812 34.847656 30.652344 C 34.730469 31.355469 34.152344 31.898438 33.414062 31.898438 C 32.679688 31.898438 32.085938 31.355469 31.96875 30.652344 C 31.808594 30.652344 31.664062 30.605469 31.578125 30.574219 C 31.207031 30.417969 32.304688 29.53125 33.40625 29.53125 C 34.507812 29.53125 35.605469 30.414062 35.234375 30.574219 Z M 35.234375 30.574219 "/>
<path fill="none" stroke-width="5.449" stroke-linecap="butt" stroke-linejoin="round" stroke="rgb(0%, 35.294118%, 49.019608%)" stroke-opacity="1" stroke-miterlimit="4" d="M 119.89 64 C 119.89 94.87 94.865 119.89 64 119.89 C 33.135 119.89 8.11 94.87 8.11 64 C 8.11 33.135 33.135 8.11 64 8.11 C 94.865 8.11 119.89 33.135 119.89 64 Z M 119.89 64 " transform="matrix(0.78125, 0, 0, 0.78125, 0, 0)"/>
<path fill="none" stroke-width="5.95" stroke-linecap="butt" stroke-linejoin="round" stroke="rgb(91.372549%, 91.372549%, 91.372549%)" stroke-opacity="1" stroke-miterlimit="4" d="M 125.025 64 C 125.025 97.705 97.705 125.025 64 125.025 C 30.295 125.025 2.975 97.705 2.975 64 C 2.975 30.295 30.295 2.975 64 2.975 C 97.705 2.975 125.025 30.295 125.025 64 Z M 125.025 64 " transform="matrix(0.78125, 0, 0, 0.78125, 0, 0)"/>
</svg>
