<?xml version="1.0" encoding="UTF-8"?>
<svg xmlns="http://www.w3.org/2000/svg" xmlns:xlink="http://www.w3.org/1999/xlink" width="250" height="250" viewBox="0 0 250 250">
<path fill-rule="nonzero" fill="rgb(91.372549%, 91.372549%, 91.372549%)" fill-opacity="1" d="M 232.648438 124.796875 C 232.648438 184.058594 184.609375 232.101562 125.34375 232.101562 C 66.078125 232.101562 18.035156 184.0625 18.035156 124.796875 C 18.035156 65.53125 66.078125 17.488281 125.34375 17.488281 C 184.609375 17.488281 232.648438 65.53125 232.648438 124.796875 M 232.648438 124.796875 "/>
<path fill="none" stroke-width="2.349" stroke-linecap="butt" stroke-linejoin="miter" stroke="rgb(0%, 35.294118%, 49.019608%)" stroke-opacity="1" stroke-miterlimit="10" d="M 99.008 89.914 C 99.152 95.52 102.23 103.496 102.23 103.496 L 99.836 106.792 C 96.57 107.868 95.546 105.892 94.726 104.61 C 94.726 104.61 92.066 97.06 89.964 91.75 L 88.636 87.978 Z M 99.008 89.914 " transform="matrix(1.953125, 0, 0, 1.953125, 0, 0)"/>
<path fill-rule="nonzero" fill="rgb(91.372549%, 91.372549%, 91.372549%)" fill-opacity="1" stroke-width="2.349" stroke-linecap="butt" stroke-linejoin="miter" stroke="rgb(0%, 35.294118%, 49.019608%)" stroke-opacity="1" stroke-miterlimit="10" d="M 79.532 117.82 C 80.88 112.754 82.578 108.284 85.172 103.624 C 85.172 103.624 88.492 96.548 90.2 91.068 C 90.59 89.798 91.876 89.028 93.208 89.236 C 94.27 89.404 95.398 89.564 96.604 89.7 C 97.044 89.758 97.48 89.778 97.918 89.826 C 100.57 89.9 103.14 90.006 105.618 90.024 C 106.834 90.036 108.05 90.016 109.266 89.97 C 110.46 89.92 112.5 89.74 113.64 89.594 C 113.97 89.556 119.912 88.798 120.11 62.942 C 119.696 37.122 112.45 37.902 112.156 37.902 C 101.586 37.902 95.652 45.812 85.462 55.38 C 71.696 68.296 63.114 58.228 59.56 50.982 C 57.368 46.064 55.41 40.614 51.996 37.418 C 51.512 36.962 51.324 36.258 51.466 35.586 L 51.856 33.77 C 51.916 33.532 51.746 33.312 51.492 33.286 C 49.88 33.176 48.552 33.74 47.376 35.086 C 46.774 34.934 46.16 34.83 45.544 34.77 C 41.318 34.316 40.47 36.46 36.368 36.46 L 34.38 36.46 C 30.67 36.46 27.568 38.232 26.048 40.832 C 24.838 42.908 24.798 45.164 26.786 45.384 C 26.172 47.568 28.216 48.424 32.782 46.328 C 32.782 46.328 36.376 48.392 41.35 48.392 C 44.04 48.392 44.84 48.816 45.824 53.124 C 48.206 63.598 57.6 80.824 76.596 80.824 C 76.794 81.11 76.984 81.388 77.172 81.636 C 80.4 86.212 81.388 91.988 79.524 97.236 C 78.02 101.476 76.11 104.736 76.11 104.736 C 76.168 105.316 76.168 105.88 76.168 106.442 C 76.076 110.898 74.92 115.946 73.836 118.996 " transform="matrix(1.953125, 0, 0, 1.953125, 0, 0)"/>
<path fill-rule="nonzero" fill="rgb(0%, 35.294118%, 49.019608%)" fill-opacity="1" d="M 88.089844 76.429688 C 87.882812 76.546875 87.523438 76.585938 87.117188 76.628906 C 86.828125 78.390625 85.378906 79.75 83.535156 79.75 C 81.695312 79.75 80.214844 78.390625 79.925781 76.628906 C 79.519531 76.628906 79.164062 76.515625 78.949219 76.429688 C 78.015625 76.039062 80.765625 73.828125 83.519531 73.828125 C 86.265625 73.828125 89.011719 76.035156 88.082031 76.429688 Z M 88.089844 76.429688 "/>
<path fill="none" stroke-width="5.449" stroke-linecap="butt" stroke-linejoin="round" stroke="rgb(0%, 35.294118%, 49.019608%)" stroke-opacity="1" stroke-miterlimit="4" d="M 119.89 64 C 119.89 94.868 94.868 119.89 64 119.89 C 33.132 119.89 8.11 94.868 8.11 64 C 8.11 33.132 33.132 8.11 64 8.11 C 94.866 8.11 119.89 33.132 119.89 64 Z M 119.89 64 " transform="matrix(1.953125, 0, 0, 1.953125, 0, 0)"/>
<path fill="none" stroke-width="5.95" stroke-linecap="butt" stroke-linejoin="round" stroke="rgb(91.372549%, 91.372549%, 91.372549%)" stroke-opacity="1" stroke-miterlimit="4" d="M 125.024 64 C 125.024 97.704 97.704 125.024 64 125.024 C 30.296 125.024 2.976 97.704 2.976 64 C 2.976 30.296 30.296 2.976 64 2.976 C 97.704 2.976 125.024 30.296 125.024 64 Z M 125.024 64 " transform="matrix(1.953125, 0, 0, 1.953125, 0, 0)"/>
</svg>
