<?xml version="1.0" encoding="UTF-8"?>
<svg xmlns="http://www.w3.org/2000/svg" xmlns:xlink="http://www.w3.org/1999/xlink" width="5000" height="5000" viewBox="0 0 5000 5000">
<path fill-rule="nonzero" fill="rgb(91.372549%, 91.372549%, 91.372549%)" fill-opacity="1" d="M 4653.007812 2495.898438 C 4653.007812 3681.171875 3692.1875 4641.992188 2506.875 4641.992188 C 1321.5625 4641.992188 360.703125 3681.210938 360.703125 2495.9375 C 360.703125 1310.625 1321.5625 349.765625 2506.875 349.765625 C 3692.1875 349.765625 4653.007812 1310.625 4653.007812 2495.9375 M 4653.007812 2495.9375 "/>
<path fill="none" stroke-width="2.349" stroke-linecap="butt" stroke-linejoin="miter" stroke="rgb(0%, 35.294118%, 49.019608%)" stroke-opacity="1" stroke-miterlimit="10" d="M 99.008 89.914 C 99.152 95.52 102.23 103.496 102.23 103.496 L 99.836 106.793 C 96.57 107.868 95.546 105.891 94.726 104.61 C 94.726 104.61 92.066 97.059 89.965 91.75 L 88.637 87.977 Z M 99.008 89.914 " transform="matrix(39.0625, 0, 0, 39.0625, 0, 0)"/>
<path fill-rule="nonzero" fill="rgb(91.372549%, 91.372549%, 91.372549%)" fill-opacity="1" stroke-width="2.349" stroke-linecap="butt" stroke-linejoin="miter" stroke="rgb(0%, 35.294118%, 49.019608%)" stroke-opacity="1" stroke-miterlimit="10" d="M 79.531 117.82 C 80.879 112.754 82.578 108.285 85.171 103.625 C 85.171 103.625 88.492 96.547 90.199 91.067 C 90.589 89.797 91.875 89.027 93.207 89.235 C 94.27 89.403 95.398 89.563 96.605 89.7 C 97.043 89.758 97.48 89.778 97.918 89.825 C 100.57 89.899 103.141 90.005 105.618 90.024 C 106.8343 90.0353 108.0506 90.0169 109.266 89.969 C 110.461 89.919 112.5 89.739 113.641 89.594 C 113.969 89.555 119.911 88.797 120.109 62.942 C 119.695 37.122 112.449 37.902 112.156 37.902 C 101.586 37.902 95.652 45.812 85.461 55.379 C 71.695 68.297 63.113 58.227 59.559 50.981 C 57.367 46.063 55.41 40.614 51.996 37.418 C 51.512 36.961 51.324 36.258 51.465 35.586 L 51.855 33.77 C 51.915 33.532 51.746 33.313 51.492 33.286 C 49.879 33.176 48.551 33.739 47.375 35.086 C 46.7731 34.935 46.1607 34.8293 45.543 34.77 C 41.317 34.317 40.469 36.461 36.367 36.461 L 34.38 36.461 C 30.67 36.461 27.568 38.231 26.048 40.832 C 24.838 42.907 24.798 45.165 26.786 45.383 C 26.173 47.567 28.216 48.423 32.782 46.329 C 32.782 46.329 36.376 48.391 41.349 48.391 C 44.04 48.391 44.841 48.817 45.825 53.125 C 48.205 63.598 57.599 80.825 76.595 80.825 C 76.794 81.11 76.985 81.387 77.173 81.637 C 80.399 86.211 81.388 91.989 79.524 97.235 C 78.021 101.477 76.11 104.735 76.11 104.735 C 76.169 105.317 76.169 105.879 76.169 106.442 C 76.075 110.899 74.919 115.946 73.837 118.996 " transform="matrix(39.0625, 0, 0, 39.0625, 0, 0)"/>
<path fill-rule="nonzero" fill="rgb(0%, 35.294118%, 49.019608%)" fill-opacity="1" d="M 1761.796875 1528.632812 C 1757.65625 1530.898438 1750.46875 1531.679688 1742.382812 1532.578125 C 1736.601562 1567.851562 1707.617188 1595 1670.703125 1595 C 1633.90625 1595 1604.296875 1567.851562 1598.515625 1532.578125 C 1590.429688 1532.578125 1583.28125 1530.3125 1578.984375 1528.632812 C 1560.351562 1520.820312 1615.3125 1476.601562 1670.390625 1476.601562 C 1725.3125 1476.601562 1780.234375 1520.703125 1761.640625 1528.632812 Z M 1761.796875 1528.632812 "/>
<path fill="none" stroke-width="5.449" stroke-linecap="butt" stroke-linejoin="round" stroke="rgb(0%, 35.294118%, 49.019608%)" stroke-opacity="1" stroke-miterlimit="4" d="M 119.89 64 C 119.89 94.868 94.867 119.89 64 119.89 C 33.133 119.89 8.11 94.869 8.11 64 C 8.11 33.133 33.133 8.11 64 8.11 C 94.867 8.11 119.89 33.133 119.89 64 Z M 119.89 64 " transform="matrix(39.0625, 0, 0, 39.0625, 0, 0)"/>
<path fill="none" stroke-width="5.95" stroke-linecap="butt" stroke-linejoin="round" stroke="rgb(91.372549%, 91.372549%, 91.372549%)" stroke-opacity="1" stroke-miterlimit="4" d="M 125.023 64 C 125.023 97.703 97.703 125.024 64 125.024 C 30.297 125.024 2.977 97.704 2.977 64 C 2.977 30.296 30.297 2.977 64 2.977 C 97.703 2.977 125.023 30.297 125.023 64 Z M 125.023 64 " transform="matrix(39.0625, 0, 0, 39.0625, 0, 0)"/>
</svg>
