<?xml version="1.0" encoding="UTF-8"?>
<svg xmlns="http://www.w3.org/2000/svg" xmlns:xlink="http://www.w3.org/1999/xlink" width="32" height="32" viewBox="0 0 32 32">
<path fill-rule="nonzero" fill="rgb(91.372549%, 91.372549%, 91.372549%)" fill-opacity="1" d="M 29.777344 15.972656 C 29.777344 23.558594 23.628906 29.707031 16.042969 29.707031 C 8.457031 29.707031 2.308594 23.558594 2.308594 15.972656 C 2.308594 8.386719 8.457031 2.238281 16.042969 2.238281 C 23.628906 2.238281 29.777344 8.386719 29.777344 15.972656 M 29.777344 15.972656 "/>
<path fill="none" stroke-width="2.349" stroke-linecap="butt" stroke-linejoin="miter" stroke="rgb(0%, 35.294118%, 49.019608%)" stroke-opacity="1" stroke-miterlimit="10" d="M 99.015625 89.90625 C 99.15625 95.515625 102.234375 103.5 102.234375 103.5 L 99.84375 106.796875 C 96.5625 107.875 95.546875 105.890625 94.71875 104.609375 C 94.71875 104.609375 92.0625 97.0625 89.96875 91.75 L 88.640625 87.984375 Z M 99.015625 89.90625 " transform="matrix(0.25, 0, 0, 0.25, 0, 0)"/>
<path fill-rule="nonzero" fill="rgb(91.372549%, 91.372549%, 91.372549%)" fill-opacity="1" stroke-width="2.349" stroke-linecap="butt" stroke-linejoin="miter" stroke="rgb(0%, 35.294118%, 49.019608%)" stroke-opacity="1" stroke-miterlimit="10" d="M 79.53125 117.8125 C 80.875 112.75 82.578125 108.28125 85.171875 103.625 C 85.171875 103.625 88.484375 96.546875 90.203125 91.0625 C 90.59375 89.796875 91.875 89.03125 93.203125 89.234375 C 94.265625 89.40625 95.390625 89.5625 96.609375 89.703125 C 97.046875 89.765625 97.484375 89.78125 97.921875 89.828125 C 100.5625 89.90625 103.140625 90 105.625 90.03125 C 106.828125 90.03125 108.046875 90.015625 109.265625 89.96875 C 110.46875 89.921875 112.5 89.734375 113.640625 89.59375 C 113.96875 89.5625 119.90625 88.796875 120.109375 62.9375 C 119.6875 37.125 112.453125 37.90625 112.15625 37.90625 C 101.59375 37.90625 95.65625 45.8125 85.46875 55.375 C 71.6875 68.296875 63.109375 58.234375 59.5625 50.984375 C 57.359375 46.0625 55.40625 40.609375 52 37.421875 C 51.515625 36.96875 51.328125 36.265625 51.46875 35.59375 L 51.859375 33.765625 C 51.921875 33.53125 51.75 33.3125 51.484375 33.28125 C 49.875 33.171875 48.546875 33.734375 47.375 35.09375 C 46.765625 34.9375 46.15625 34.828125 45.546875 34.765625 C 41.3125 34.3125 40.46875 36.46875 36.359375 36.46875 L 34.375 36.46875 C 30.671875 36.46875 27.5625 38.234375 26.046875 40.828125 C 24.84375 42.90625 24.796875 45.171875 26.78125 45.390625 C 26.171875 47.5625 28.21875 48.421875 32.78125 46.328125 C 32.78125 46.328125 36.375 48.390625 41.34375 48.390625 C 44.046875 48.390625 44.84375 48.8125 45.828125 53.125 C 48.203125 63.59375 57.59375 80.828125 76.59375 80.828125 C 76.796875 81.109375 76.984375 81.390625 77.171875 81.640625 C 80.40625 86.21875 81.390625 91.984375 79.53125 97.234375 C 78.015625 101.484375 76.109375 104.734375 76.109375 104.734375 C 76.171875 105.3125 76.171875 105.875 76.171875 106.4375 C 76.078125 110.90625 74.921875 115.953125 73.84375 119 " transform="matrix(0.25, 0, 0, 0.25, 0, 0)"/>
<path fill-rule="nonzero" fill="rgb(0%, 35.294118%, 49.019608%)" fill-opacity="1" d="M 11.277344 9.785156 C 11.25 9.796875 11.203125 9.804688 11.152344 9.808594 C 11.113281 10.035156 10.929688 10.207031 10.691406 10.207031 C 10.457031 10.207031 10.265625 10.035156 10.230469 9.808594 C 10.179688 9.808594 10.132812 9.792969 10.105469 9.785156 C 9.984375 9.734375 10.339844 9.449219 10.691406 9.449219 C 11.042969 9.449219 11.394531 9.734375 11.273438 9.785156 Z M 11.277344 9.785156 "/>
<path fill="none" stroke-width="5.449" stroke-linecap="butt" stroke-linejoin="round" stroke="rgb(0%, 35.294118%, 49.019608%)" stroke-opacity="1" stroke-miterlimit="4" d="M 119.890625 64 C 119.890625 94.875 94.859375 119.890625 64 119.890625 C 33.140625 119.890625 8.109375 94.875 8.109375 64 C 8.109375 33.140625 33.140625 8.109375 64 8.109375 C 94.859375 8.109375 119.890625 33.140625 119.890625 64 Z M 119.890625 64 " transform="matrix(0.25, 0, 0, 0.25, 0, 0)"/>
<path fill="none" stroke-width="5.95" stroke-linecap="butt" stroke-linejoin="round" stroke="rgb(91.372549%, 91.372549%, 91.372549%)" stroke-opacity="1" stroke-miterlimit="4" d="M 125.015625 64 C 125.015625 97.703125 97.703125 125.03125 64 125.03125 C 30.296875 125.03125 2.984375 97.703125 2.984375 64 C 2.984375 30.296875 30.296875 2.984375 64 2.984375 C 97.703125 2.984375 125.015625 30.296875 125.015625 64 Z M 125.015625 64 " transform="matrix(0.25, 0, 0, 0.25, 0, 0)"/>
</svg>
