<?xml version="1.0" encoding="UTF-8"?>
<svg xmlns="http://www.w3.org/2000/svg" xmlns:xlink="http://www.w3.org/1999/xlink" width="64" height="64" viewBox="0 0 64 64">
<path fill-rule="nonzero" fill="rgb(91.372549%, 91.372549%, 91.372549%)" fill-opacity="1" d="M 59.558594 31.949219 C 59.558594 47.117188 47.261719 59.417969 32.089844 59.417969 C 16.914062 59.417969 4.617188 47.121094 4.617188 31.949219 C 4.617188 16.777344 16.914062 4.476562 32.089844 4.476562 C 47.261719 4.476562 59.558594 16.777344 59.558594 31.949219 M 59.558594 31.949219 "/>
<path fill="none" stroke-width="2.349" stroke-linecap="butt" stroke-linejoin="miter" stroke="rgb(0%, 35.294118%, 49.019608%)" stroke-opacity="1" stroke-miterlimit="10" d="M 99.007812 89.914062 C 99.148438 95.523438 102.226562 103.492188 102.226562 103.492188 L 99.835938 106.796875 C 96.570312 107.867188 95.546875 105.890625 94.726562 104.609375 C 94.726562 104.609375 92.0625 97.0625 89.96875 91.75 L 88.640625 87.976562 Z M 99.007812 89.914062 " transform="matrix(0.5, 0, 0, 0.5, 0, 0)"/>
<path fill-rule="nonzero" fill="rgb(91.372549%, 91.372549%, 91.372549%)" fill-opacity="1" stroke-width="2.349" stroke-linecap="butt" stroke-linejoin="miter" stroke="rgb(0%, 35.294118%, 49.019608%)" stroke-opacity="1" stroke-miterlimit="10" d="M 79.53125 117.820312 C 80.882812 112.757812 82.578125 108.28125 85.171875 103.625 C 85.171875 103.625 88.492188 96.546875 90.195312 91.070312 C 90.585938 89.796875 91.875 89.023438 93.203125 89.234375 C 94.273438 89.40625 95.398438 89.5625 96.601562 89.703125 C 97.046875 89.757812 97.476562 89.78125 97.921875 89.828125 C 100.570312 89.898438 103.140625 90.007812 105.617188 90.023438 C 106.835938 90.039062 108.046875 90.015625 109.265625 89.96875 C 110.460938 89.921875 112.5 89.742188 113.640625 89.59375 C 113.96875 89.554688 119.914062 88.796875 120.109375 62.945312 C 119.695312 37.125 112.445312 37.898438 112.15625 37.898438 C 101.585938 37.898438 95.648438 45.8125 85.460938 55.382812 C 71.695312 68.296875 63.109375 58.226562 59.5625 50.984375 C 57.367188 46.0625 55.40625 40.617188 51.992188 37.421875 C 51.515625 36.960938 51.320312 36.257812 51.46875 35.585938 L 51.851562 33.773438 C 51.914062 33.53125 51.742188 33.3125 51.492188 33.289062 C 49.882812 33.179688 48.554688 33.742188 47.375 35.085938 C 46.773438 34.9375 46.164062 34.828125 45.546875 34.773438 C 41.320312 34.320312 40.46875 36.460938 36.367188 36.460938 L 34.382812 36.460938 C 30.671875 36.460938 27.570312 38.234375 26.046875 40.828125 C 24.835938 42.90625 24.796875 45.164062 26.789062 45.382812 C 26.171875 47.570312 28.21875 48.421875 32.78125 46.328125 C 32.78125 46.328125 36.375 48.390625 41.351562 48.390625 C 44.039062 48.390625 44.84375 48.820312 45.828125 53.125 C 48.203125 63.601562 57.601562 80.828125 76.59375 80.828125 C 76.796875 81.109375 76.984375 81.390625 77.171875 81.640625 C 80.398438 86.210938 81.390625 91.992188 79.523438 97.234375 C 78.023438 101.476562 76.109375 104.734375 76.109375 104.734375 C 76.171875 105.320312 76.171875 105.882812 76.171875 106.445312 C 76.078125 110.898438 74.921875 115.945312 73.835938 118.992188 " transform="matrix(0.5, 0, 0, 0.5, 0, 0)"/>
<path fill-rule="nonzero" fill="rgb(0%, 35.294118%, 49.019608%)" fill-opacity="1" d="M 22.550781 19.566406 C 22.496094 19.59375 22.40625 19.605469 22.300781 19.617188 C 22.226562 20.070312 21.859375 20.414062 21.386719 20.414062 C 20.914062 20.414062 20.535156 20.070312 20.460938 19.617188 C 20.359375 19.617188 20.265625 19.589844 20.210938 19.566406 C 19.972656 19.464844 20.675781 18.902344 21.382812 18.902344 C 22.085938 18.902344 22.785156 19.464844 22.550781 19.566406 Z M 22.550781 19.566406 "/>
<path fill="none" stroke-width="5.449" stroke-linecap="butt" stroke-linejoin="round" stroke="rgb(0%, 35.294118%, 49.019608%)" stroke-opacity="1" stroke-miterlimit="4" d="M 119.890625 64 C 119.890625 94.867188 94.867188 119.890625 64 119.890625 C 33.132812 119.890625 8.109375 94.867188 8.109375 64 C 8.109375 33.132812 33.132812 8.109375 64 8.109375 C 94.867188 8.109375 119.890625 33.132812 119.890625 64 Z M 119.890625 64 " transform="matrix(0.5, 0, 0, 0.5, 0, 0)"/>
<path fill="none" stroke-width="5.95" stroke-linecap="butt" stroke-linejoin="round" stroke="rgb(91.372549%, 91.372549%, 91.372549%)" stroke-opacity="1" stroke-miterlimit="4" d="M 125.023438 64 C 125.023438 97.703125 97.703125 125.023438 64 125.023438 C 30.296875 125.023438 2.976562 97.703125 2.976562 64 C 2.976562 30.296875 30.296875 2.976562 64 2.976562 C 97.703125 2.976562 125.023438 30.296875 125.023438 64 Z M 125.023438 64 " transform="matrix(0.5, 0, 0, 0.5, 0, 0)"/>
</svg>
