<?xml version="1.0" encoding="UTF-8"?>
<svg xmlns="http://www.w3.org/2000/svg" xmlns:xlink="http://www.w3.org/1999/xlink" width="1400" height="1400" viewBox="0 0 1400 1400">
<path fill-rule="nonzero" fill="rgb(91.372549%, 91.372549%, 91.372549%)" fill-opacity="1" d="M 1302.84375 698.851562 C 1302.84375 1030.726562 1033.8125 1299.757812 701.925781 1299.757812 C 370.039062 1299.757812 100.996094 1030.738281 100.996094 698.863281 C 100.996094 366.976562 370.039062 97.933594 701.925781 97.933594 C 1033.8125 97.933594 1302.84375 366.976562 1302.84375 698.863281 M 1302.84375 698.863281 "/>
<path fill="none" stroke-width="2.349" stroke-linecap="butt" stroke-linejoin="miter" stroke="rgb(0%, 35.294118%, 49.019608%)" stroke-opacity="1" stroke-miterlimit="10" d="M 99.007857 89.913929 C 99.152143 95.52 102.23 103.496071 102.23 103.496071 L 99.836071 106.792857 C 96.57 107.867857 95.546071 105.891071 94.726071 104.61 C 94.726071 104.61 92.066071 97.058929 89.965 91.75 L 88.637143 87.977143 Z M 99.007857 89.913929 " transform="matrix(10.9375, 0, 0, 10.9375, 0, 0)"/>
<path fill-rule="nonzero" fill="rgb(91.372549%, 91.372549%, 91.372549%)" fill-opacity="1" stroke-width="2.349" stroke-linecap="butt" stroke-linejoin="miter" stroke="rgb(0%, 35.294118%, 49.019608%)" stroke-opacity="1" stroke-miterlimit="10" d="M 79.531071 117.82 C 80.878929 112.753929 82.577857 108.285 85.171071 103.625 C 85.171071 103.625 88.492143 96.547143 90.198929 91.067143 C 90.588929 89.797143 91.875 89.027143 93.207143 89.235 C 94.27 89.402857 95.397857 89.562857 96.605 89.7 C 97.042857 89.757857 97.48 89.777857 97.917857 89.825 C 100.57 89.898929 103.141071 90.005 105.617857 90.023929 C 106.834286 90.035357 108.050714 90.016786 109.266071 89.968929 C 110.461071 89.918929 112.5 89.738929 113.641071 89.593929 C 113.968929 89.555 119.911071 88.797143 120.108929 62.942143 C 119.695 37.122143 112.448929 37.902143 112.156071 37.902143 C 101.586071 37.902143 95.652143 45.812143 85.461071 55.378929 C 71.695 68.297143 63.112857 58.227143 59.558929 50.981071 C 57.367143 46.062857 55.41 40.613929 51.996071 37.417857 C 51.512143 36.961071 51.323929 36.257857 51.465 35.586071 L 51.855 33.77 C 51.915 33.532143 51.746071 33.312857 51.492143 33.286071 C 49.878929 33.176071 48.551071 33.738929 47.375 35.086071 C 46.773214 34.935 46.160714 34.829286 45.542857 34.77 C 41.317143 34.317143 40.468929 36.461071 36.367143 36.461071 L 34.38 36.461071 C 30.67 36.461071 27.567857 38.231071 26.047857 40.832143 C 24.837857 42.907143 24.797857 45.165 26.786071 45.382857 C 26.172857 47.567143 28.216071 48.422857 32.782143 46.328929 C 32.782143 46.328929 36.376071 48.391071 41.348929 48.391071 C 44.04 48.391071 44.841071 48.817143 45.825 53.125 C 48.205 63.597857 57.598929 80.825 76.595 80.825 C 76.793929 81.11 76.985 81.387143 77.172857 81.637143 C 80.398929 86.211071 81.387857 91.988929 79.523929 97.235 C 78.021071 101.477143 76.11 104.735 76.11 104.735 C 76.168929 105.317143 76.168929 105.878929 76.168929 106.442143 C 76.075 110.898929 74.918929 115.946071 73.837143 118.996071 " transform="matrix(10.9375, 0, 0, 10.9375, 0, 0)"/>
<path fill-rule="nonzero" fill="rgb(0%, 35.294118%, 49.019608%)" fill-opacity="1" d="M 493.304688 428.015625 C 492.144531 428.652344 490.132812 428.871094 487.867188 429.121094 C 486.25 439 478.132812 446.601562 467.796875 446.601562 C 457.492188 446.601562 449.203125 439 447.585938 429.121094 C 445.320312 429.121094 443.320312 428.488281 442.117188 428.015625 C 436.898438 425.828125 452.289062 413.449219 467.710938 413.449219 C 483.085938 413.449219 498.464844 425.796875 493.257812 428.015625 Z M 493.304688 428.015625 "/>
<path fill="none" stroke-width="5.449" stroke-linecap="butt" stroke-linejoin="round" stroke="rgb(0%, 35.294118%, 49.019608%)" stroke-opacity="1" stroke-miterlimit="4" d="M 119.89 64 C 119.89 94.867857 94.867143 119.89 64 119.89 C 33.132857 119.89 8.11 94.868929 8.11 64 C 8.11 33.132857 33.132857 8.11 64 8.11 C 94.867143 8.11 119.89 33.132857 119.89 64 Z M 119.89 64 " transform="matrix(10.9375, 0, 0, 10.9375, 0, 0)"/>
<path fill="none" stroke-width="5.95" stroke-linecap="butt" stroke-linejoin="round" stroke="rgb(91.372549%, 91.372549%, 91.372549%)" stroke-opacity="1" stroke-miterlimit="4" d="M 125.022857 64 C 125.022857 97.702857 97.702857 125.023929 64 125.023929 C 30.297143 125.023929 2.977143 97.703929 2.977143 64 C 2.977143 30.296071 30.297143 2.977143 64 2.977143 C 97.702857 2.977143 125.022857 30.297143 125.022857 64 Z M 125.022857 64 " transform="matrix(10.9375, 0, 0, 10.9375, 0, 0)"/>
</svg>
