<?xml version="1.0" encoding="UTF-8"?>
<svg xmlns="http://www.w3.org/2000/svg" xmlns:xlink="http://www.w3.org/1999/xlink" width="1300" height="1300" viewBox="0 0 1300 1300">
<defs>
<linearGradient id="linear-pattern-0" gradientUnits="userSpaceOnUse" x1="244.822998" y1="-272.52301" x2="1115.339966" y2="-272.52301" gradientTransform="matrix(0.535992, 1.229702, -1.229702, 0.535992, -44.464011, -39.527741)">
<stop offset="0" stop-color="rgb(0%, 45.098039%, 63.137255%)" stop-opacity="1"/>
<stop offset="1" stop-color="rgb(0%, 20.784314%, 33.333333%)" stop-opacity="1"/>
</linearGradient>
</defs>
<path fill-rule="nonzero" fill="rgb(100%, 100%, 100%)" fill-opacity="1" d="M 1300 650 C 1300 1009.003906 1009.003906 1300 650 1300 C 290.996094 1300 0 1009.003906 0 650 C 0 290.996094 290.996094 0 650 0 C 1009.003906 0 1300 290.996094 1300 650 M 1300 650 "/>
<path fill-rule="nonzero" fill="url(#linear-pattern-0)" d="M 665.273438 66.890625 C 581.601562 65.449219 498.59375 82.007812 421.878906 115.445312 C 126.28125 244.308594 -8.925781 588.351562 119.945312 883.949219 C 228.960938 1132.382812 494.730469 1272.933594 761.414062 1223.308594 C 772.757812 1187.09375 782.082031 1147.339844 782.082031 1104.015625 C 782.082031 1097.878906 781.914062 1091.664062 781.574219 1085.367188 C 781.574219 1085.367188 802.433594 1049.78125 818.859375 1003.40625 C 839.210938 946.125 828.457031 882.996094 793.234375 833.046875 C 791.160156 830.304688 789.101562 827.214844 786.886719 824.160156 C 579.394531 824.160156 476.753906 635.996094 450.773438 521.574219 C 439.980469 474.53125 431.253906 469.847656 401.851562 469.847656 C 347.507812 469.847656 308.3125 447.3125 308.3125 447.3125 C 258.394531 470.164062 236.0625 460.878906 242.765625 436.992188 C 221.03125 434.617188 221.507812 409.9375 234.710938 387.289062 C 251.296875 358.882812 285.1875 339.554688 325.722656 339.554688 L 347.425781 339.554688 C 392.253906 339.554688 401.496094 316.113281 447.675781 321.070312 C 454.859375 321.75 461.519531 322.980469 467.714844 324.480469 C 480.523438 309.804688 495.046875 303.621094 512.667969 304.851562 C 515.410156 305.15625 517.144531 307.59375 516.628906 310.132812 L 512.34375 329.957031 C 510.796875 337.339844 512.859375 345.039062 518.132812 349.996094 C 555.425781 384.871094 576.8125 444.417969 600.773438 498.132812 C 639.621094 577.320312 733.320312 687.335938 883.683594 546.171875 C 989.410156 446.945312 1053.285156 364.234375 1158.300781 356.109375 C 1055.59375 180.367188 868.789062 70.78125 665.273438 66.890625 M 417.402344 354.148438 C 401.964844 354.148438 386.609375 366.527344 391.847656 368.710938 C 392.996094 369.21875 394.988281 369.546875 397.242188 369.828125 C 398.867188 379.660156 407.164062 387.277344 417.472656 387.277344 C 427.78125 387.277344 435.925781 379.660156 437.511719 369.820312 C 439.777344 369.546875 441.757812 369.21875 442.902344 368.703125 C 448.144531 366.527344 432.789062 354.148438 417.402344 354.148438 M 962.78125 915.484375 C 950.289062 915.789062 939.097656 923.730469 935.359375 935.835938 L 935.359375 936.039062 C 916.722656 995.902344 880.457031 1073.222656 880.457031 1073.222656 C 880.457031 1073.222656 844.359375 1137.09375 823.925781 1208.664062 C 845.859375 1202.351562 867.402344 1194.75 888.4375 1185.894531 C 929.566406 1167.875 968.484375 1145.191406 1004.433594 1118.285156 C 998.570312 1106.511719 992.097656 1095.058594 985.035156 1083.964844 C 985.035156 1083.964844 973.050781 1030.769531 950.128906 972.804688 C 953.621094 963.195312 956.871094 953.5 959.878906 943.730469 L 960.039062 943.019531 C 960.75 941.667969 962.273438 941.148438 964.011719 941.148438 L 964.171875 941.148438 C 976.15625 943.019531 988.800781 944.917969 1003.527344 946.625 C 1007.96875 946.980469 1012.566406 947.292969 1017.167969 947.8125 C 1022.847656 948.328125 1028.320312 948.847656 1033.957031 949.203125 C 1035.296875 1003 1058.667969 1054.453125 1064.578125 1066.710938 C 1107.65625 1024.304688 1143.886719 975.46875 1171.980469 921.945312 C 1130.402344 926.71875 1079.539062 928.292969 1019.667969 922.351562 C 1014.886719 921.804688 1010.101562 921.339844 1005.304688 920.957031 C 992.894531 919.507812 980.515625 917.800781 968.175781 915.839844 C 966.390625 915.5625 964.585938 915.441406 962.78125 915.484375 M 962.78125 915.484375 "/>
</svg>
