<?xml version="1.0" encoding="UTF-8"?>
<svg xmlns="http://www.w3.org/2000/svg" xmlns:xlink="http://www.w3.org/1999/xlink" width="2250" height="2250" viewBox="0 0 2250 2250">
<defs>
<linearGradient id="linear-pattern-0" gradientUnits="userSpaceOnUse" x1="244.822998" y1="-272.52301" x2="1115.339966" y2="-272.52301" gradientTransform="matrix(0.927678, 2.128331, -2.128331, 0.927678, -76.956941, -68.413398)">
<stop offset="0" stop-color="rgb(0%, 45.098039%, 63.137255%)" stop-opacity="1"/>
<stop offset="1" stop-color="rgb(0%, 20.784314%, 33.333333%)" stop-opacity="1"/>
</linearGradient>
</defs>
<path fill-rule="nonzero" fill="rgb(100%, 100%, 100%)" fill-opacity="1" d="M 2250 1125 C 2250 1746.351562 1746.351562 2250 1125 2250 C 503.648438 2250 0 1746.351562 0 1125 C 0 503.648438 503.648438 0 1125 0 C 1746.351562 0 2250 503.648438 2250 1125 M 2250 1125 "/>
<path fill-rule="nonzero" fill="url(#linear-pattern-0)" d="M 1151.4375 115.769531 C 1006.617188 113.277344 862.953125 141.9375 730.175781 199.808594 C 218.566406 422.84375 -15.453125 1018.300781 207.597656 1529.914062 C 396.28125 1959.890625 856.265625 2203.15625 1317.832031 2117.265625 C 1337.46875 2054.585938 1353.601562 1985.78125 1353.601562 1910.796875 C 1353.601562 1900.179688 1353.3125 1889.421875 1352.726562 1878.523438 C 1352.726562 1878.523438 1388.828125 1816.929688 1417.253906 1736.664062 C 1452.480469 1637.523438 1433.867188 1528.257812 1372.90625 1441.8125 C 1369.320312 1437.0625 1365.75 1431.71875 1361.917969 1426.429688 C 1002.796875 1426.429688 825.152344 1100.757812 780.1875 902.726562 C 761.503906 821.304688 746.402344 813.199219 695.515625 813.199219 C 601.453125 813.199219 533.621094 774.195312 533.621094 774.195312 C 447.222656 813.742188 408.570312 797.679688 420.171875 756.335938 C 382.554688 752.21875 383.378906 709.507812 406.230469 670.304688 C 434.9375 621.140625 493.59375 587.6875 563.75 587.6875 L 601.3125 587.6875 C 678.902344 587.6875 694.898438 547.117188 774.828125 555.695312 C 787.253906 556.875 798.785156 559 809.507812 561.601562 C 831.675781 536.203125 856.8125 525.5 887.308594 527.625 C 892.054688 528.152344 895.0625 532.371094 894.164062 536.765625 L 886.746094 571.078125 C 884.074219 583.855469 887.644531 597.179688 896.765625 605.757812 C 961.3125 666.121094 998.332031 769.183594 1039.800781 862.15625 C 1107.035156 999.210938 1269.210938 1189.617188 1529.457031 945.296875 C 1712.445312 773.5625 1822.992188 630.40625 2004.75 616.34375 C 1826.992188 312.171875 1503.675781 122.507812 1151.4375 115.769531 M 722.425781 612.949219 C 695.707031 612.949219 669.128906 634.375 678.199219 638.15625 C 680.1875 639.035156 683.632812 639.597656 687.53125 640.089844 C 690.34375 657.105469 704.707031 670.289062 722.546875 670.289062 C 740.390625 670.289062 754.488281 657.105469 757.230469 640.070312 C 761.148438 639.597656 764.578125 639.035156 766.5625 638.136719 C 775.632812 634.375 749.054688 612.949219 722.425781 612.949219 M 1666.351562 1584.492188 C 1644.730469 1585.019531 1625.359375 1598.765625 1618.890625 1619.71875 L 1618.890625 1620.070312 C 1586.636719 1723.675781 1523.863281 1857.496094 1523.863281 1857.496094 C 1523.863281 1857.496094 1461.390625 1968.046875 1426.023438 2091.921875 C 1463.988281 2080.996094 1501.273438 2067.835938 1537.679688 2052.511719 C 1608.863281 2021.324219 1676.226562 1982.058594 1738.441406 1935.492188 C 1728.296875 1915.121094 1717.089844 1895.292969 1704.867188 1876.097656 C 1704.867188 1876.09375 1684.125 1784.019531 1644.453125 1683.703125 C 1650.496094 1667.070312 1656.125 1650.292969 1661.328125 1633.378906 L 1661.609375 1632.148438 C 1662.835938 1629.808594 1665.476562 1628.914062 1668.480469 1628.914062 L 1668.761719 1628.914062 C 1689.503906 1632.148438 1711.390625 1635.433594 1736.878906 1638.386719 C 1744.558594 1639 1752.523438 1639.546875 1760.484375 1640.445312 C 1770.3125 1641.339844 1779.785156 1642.238281 1789.542969 1642.851562 C 1791.863281 1735.960938 1832.308594 1825.015625 1842.539062 1846.230469 C 1917.097656 1772.835938 1979.804688 1688.308594 2028.429688 1595.671875 C 1956.464844 1603.933594 1868.433594 1606.65625 1764.808594 1596.375 C 1756.539062 1595.433594 1748.25 1594.628906 1739.953125 1593.96875 C 1718.472656 1591.457031 1697.046875 1588.503906 1675.6875 1585.109375 C 1672.601562 1584.625 1669.476562 1584.421875 1666.355469 1584.492188 M 1666.355469 1584.492188 "/>
</svg>
