<?xml version="1.0" encoding="UTF-8"?>
<svg xmlns="http://www.w3.org/2000/svg" xmlns:xlink="http://www.w3.org/1999/xlink" width="1100" height="1100" viewBox="0 0 1100 1100">
<defs>
<linearGradient id="linear-pattern-0" gradientUnits="userSpaceOnUse" x1="244.822998" y1="-272.52301" x2="1115.339966" y2="-272.52301" gradientTransform="matrix(0.453532, 1.040517, -1.040517, 0.453532, -37.623394, -33.44655)">
<stop offset="0" stop-color="rgb(0%, 45.098039%, 63.137255%)" stop-opacity="1"/>
<stop offset="1" stop-color="rgb(0%, 20.784314%, 33.333333%)" stop-opacity="1"/>
</linearGradient>
</defs>
<path fill-rule="nonzero" fill="rgb(100%, 100%, 100%)" fill-opacity="1" d="M 1100 550 C 1100 853.773438 853.773438 1100 550 1100 C 246.226562 1100 0 853.773438 0 550 C 0 246.226562 246.226562 0 550 0 C 853.773438 0 1100 246.226562 1100 550 M 1100 550 "/>
<path fill-rule="nonzero" fill="url(#linear-pattern-0)" d="M 562.925781 56.597656 C 492.125 55.378906 421.886719 69.390625 356.976562 97.683594 C 106.855469 206.722656 -7.554688 497.835938 101.492188 747.957031 C 193.738281 958.167969 418.617188 1077.097656 644.273438 1035.109375 C 653.871094 1004.464844 661.761719 970.828125 661.761719 934.167969 C 661.761719 928.976562 661.617188 923.714844 661.332031 918.386719 C 661.332031 918.386719 678.984375 888.277344 692.878906 849.035156 C 710.101562 800.566406 701 747.148438 671.199219 704.886719 C 669.445312 702.566406 667.699219 699.953125 665.828125 697.367188 C 490.257812 697.367188 403.40625 538.148438 381.425781 441.332031 C 372.289062 401.527344 364.90625 397.5625 340.027344 397.5625 C 294.042969 397.5625 260.878906 378.496094 260.878906 378.496094 C 218.640625 397.832031 199.746094 389.976562 205.417969 369.761719 C 187.027344 367.753906 187.429688 346.871094 198.601562 327.707031 C 212.636719 303.667969 241.3125 287.316406 275.609375 287.316406 L 293.976562 287.316406 C 331.90625 287.316406 339.726562 267.480469 378.804688 271.675781 C 384.878906 272.25 390.515625 273.289062 395.757812 274.5625 C 406.597656 262.144531 418.886719 256.910156 433.796875 257.949219 C 436.117188 258.207031 437.585938 260.269531 437.148438 262.417969 L 433.519531 279.195312 C 432.214844 285.441406 433.957031 291.957031 438.417969 296.148438 C 469.976562 325.660156 488.074219 376.046875 508.347656 421.496094 C 541.21875 488.503906 620.503906 581.589844 747.734375 462.144531 C 837.195312 378.183594 891.242188 308.199219 980.101562 301.324219 C 893.195312 152.617188 735.128906 59.894531 562.925781 56.597656 M 353.1875 299.664062 C 340.125 299.664062 327.128906 310.140625 331.5625 311.988281 C 332.535156 312.417969 334.21875 312.691406 336.128906 312.933594 C 337.503906 321.25 344.523438 327.695312 353.246094 327.695312 C 361.96875 327.695312 368.859375 321.25 370.203125 312.925781 C 372.117188 312.691406 373.792969 312.417969 374.765625 311.980469 C 379.199219 310.140625 366.207031 299.664062 353.1875 299.664062 M 814.660156 774.640625 C 804.089844 774.898438 794.621094 781.617188 791.457031 791.863281 L 791.457031 792.035156 C 775.6875 842.6875 745 908.109375 745 908.109375 C 745 908.109375 714.457031 962.15625 697.167969 1022.714844 C 715.726562 1017.375 733.957031 1010.941406 751.753906 1003.449219 C 786.554688 988.203125 819.488281 969.007812 849.90625 946.242188 C 844.945312 936.28125 839.464844 926.589844 833.492188 917.203125 C 833.492188 917.203125 823.351562 872.1875 803.953125 823.144531 C 806.910156 815.011719 809.660156 806.808594 812.203125 798.539062 L 812.339844 797.9375 C 812.941406 796.796875 814.230469 796.355469 815.703125 796.355469 L 815.839844 796.355469 C 825.980469 797.9375 836.679688 799.546875 849.140625 800.988281 C 852.894531 801.289062 856.789062 801.554688 860.679688 801.996094 C 865.484375 802.433594 870.117188 802.871094 874.886719 803.171875 C 876.019531 848.691406 895.796875 892.230469 900.796875 902.601562 C 937.246094 866.71875 967.90625 825.394531 991.675781 780.105469 C 956.492188 784.144531 913.457031 785.476562 862.796875 780.449219 C 858.75 779.988281 854.699219 779.597656 850.644531 779.273438 C 840.140625 778.046875 829.667969 776.601562 819.226562 774.941406 C 817.714844 774.707031 816.1875 774.605469 814.660156 774.640625 M 814.660156 774.640625 "/>
</svg>
