<?xml version="1.0" encoding="UTF-8"?>
<svg xmlns="http://www.w3.org/2000/svg" xmlns:xlink="http://www.w3.org/1999/xlink" width="16" height="16" viewBox="0 0 16 16">
<defs>
<linearGradient id="linear-pattern-0" gradientUnits="userSpaceOnUse" x1="244.822998" y1="-272.52301" x2="1115.339966" y2="-272.52301" gradientTransform="matrix(0.00659682, 0.0151348, -0.0151348, 0.00659682, -0.547249, -0.486495)">
<stop offset="0" stop-color="rgb(0%, 45.098039%, 63.137255%)" stop-opacity="1"/>
<stop offset="1" stop-color="rgb(0%, 20.784314%, 33.333333%)" stop-opacity="1"/>
</linearGradient>
</defs>
<path fill-rule="nonzero" fill="rgb(100%, 100%, 100%)" fill-opacity="1" d="M 16 8 C 16 12.417969 12.417969 16 8 16 C 3.582031 16 0 12.417969 0 8 C 0 3.582031 3.582031 0 8 0 C 12.417969 0 16 3.582031 16 8 M 16 8 "/>
<path fill-rule="nonzero" fill="url(#linear-pattern-0)" d="M 8.1875 0.824219 C 7.15625 0.804688 6.136719 1.007812 5.191406 1.421875 C 1.554688 3.007812 -0.109375 7.242188 1.476562 10.878906 C 2.816406 13.9375 6.089844 15.667969 9.371094 15.054688 C 9.511719 14.609375 9.625 14.121094 9.625 13.585938 C 9.625 13.511719 9.625 13.4375 9.621094 13.359375 C 9.621094 13.359375 9.875 12.921875 10.078125 12.351562 C 10.328125 11.644531 10.195312 10.867188 9.761719 10.253906 C 9.738281 10.21875 9.710938 10.179688 9.683594 10.144531 C 7.132812 10.144531 5.867188 7.828125 5.546875 6.417969 C 5.414062 5.839844 5.308594 5.78125 4.945312 5.78125 C 4.277344 5.78125 3.792969 5.503906 3.792969 5.503906 C 3.179688 5.785156 2.90625 5.671875 2.988281 5.378906 C 2.71875 5.347656 2.726562 5.046875 2.890625 4.765625 C 3.09375 4.417969 3.511719 4.179688 4.007812 4.179688 L 4.277344 4.179688 C 4.828125 4.179688 4.941406 3.890625 5.511719 3.953125 C 5.597656 3.960938 5.679688 3.976562 5.757812 3.992188 C 5.914062 3.8125 6.09375 3.738281 6.308594 3.753906 C 6.34375 3.753906 6.363281 3.785156 6.359375 3.816406 L 6.304688 4.0625 C 6.285156 4.152344 6.3125 4.246094 6.378906 4.308594 C 6.835938 4.738281 7.097656 5.46875 7.394531 6.132812 C 7.871094 7.105469 9.027344 8.460938 10.875 6.722656 C 12.175781 5.5 12.964844 4.484375 14.257812 4.382812 C 12.992188 2.21875 10.691406 0.871094 8.1875 0.824219 M 5.136719 4.359375 C 4.945312 4.359375 4.757812 4.511719 4.824219 4.539062 C 4.835938 4.542969 4.863281 4.546875 4.890625 4.550781 C 4.910156 4.671875 5.011719 4.765625 5.136719 4.765625 C 5.265625 4.765625 5.367188 4.671875 5.382812 4.550781 C 5.414062 4.546875 5.4375 4.542969 5.449219 4.539062 C 5.515625 4.511719 5.328125 4.359375 5.136719 4.359375 M 11.851562 11.265625 C 11.695312 11.269531 11.558594 11.367188 11.511719 11.519531 C 11.28125 12.257812 10.835938 13.207031 10.835938 13.207031 C 10.835938 13.207031 10.390625 13.996094 10.140625 14.875 C 10.410156 14.796875 10.675781 14.703125 10.933594 14.59375 C 11.441406 14.375 11.917969 14.09375 12.363281 13.761719 C 12.289062 13.617188 12.210938 13.476562 12.125 13.339844 C 12.125 13.339844 11.976562 12.6875 11.695312 11.972656 C 11.738281 11.855469 11.777344 11.734375 11.8125 11.613281 L 11.816406 11.605469 C 11.824219 11.589844 11.84375 11.582031 11.863281 11.582031 L 11.867188 11.582031 C 12.015625 11.605469 12.167969 11.628906 12.351562 11.652344 C 12.40625 11.65625 12.460938 11.660156 12.519531 11.664062 C 12.589844 11.671875 12.65625 11.679688 12.726562 11.683594 C 12.742188 12.34375 13.03125 12.976562 13.101562 13.128906 C 13.632812 12.605469 14.078125 12.003906 14.425781 11.347656 C 13.914062 11.40625 13.285156 11.425781 12.550781 11.351562 C 12.492188 11.34375 12.433594 11.339844 12.371094 11.335938 C 12.21875 11.316406 12.066406 11.296875 11.914062 11.273438 C 11.894531 11.269531 11.871094 11.265625 11.851562 11.265625 M 11.851562 11.265625 "/>
</svg>
