<?xml version="1.0" encoding="UTF-8"?>
<svg xmlns="http://www.w3.org/2000/svg" xmlns:xlink="http://www.w3.org/1999/xlink" width="250" height="250" viewBox="0 0 250 250">
<defs>
<linearGradient id="linear-pattern-0" gradientUnits="userSpaceOnUse" x1="244.822998" y1="-272.52301" x2="1115.339966" y2="-272.52301" gradientTransform="matrix(0.103075, 0.236481, -0.236481, 0.103075, -8.550771, -7.601489)">
<stop offset="0" stop-color="rgb(0%, 45.098039%, 63.137255%)" stop-opacity="1"/>
<stop offset="1" stop-color="rgb(0%, 20.784314%, 33.333333%)" stop-opacity="1"/>
</linearGradient>
</defs>
<path fill-rule="nonzero" fill="rgb(100%, 100%, 100%)" fill-opacity="1" d="M 250 125 C 250 194.039062 194.039062 250 125 250 C 55.960938 250 0 194.039062 0 125 C 0 55.960938 55.960938 0 125 0 C 194.039062 0 250 55.960938 250 125 M 250 125 "/>
<path fill-rule="nonzero" fill="url(#linear-pattern-0)" d="M 127.9375 12.863281 C 111.847656 12.585938 95.882812 15.769531 81.128906 22.199219 C 24.285156 46.984375 -1.71875 113.144531 23.066406 169.992188 C 44.03125 217.765625 95.140625 244.796875 146.425781 235.25 C 148.609375 228.289062 150.398438 220.640625 150.398438 212.3125 C 150.398438 211.132812 150.367188 209.9375 150.304688 208.726562 C 150.304688 208.726562 154.3125 201.882812 157.472656 192.960938 C 161.386719 181.945312 159.320312 169.804688 152.546875 160.203125 C 152.148438 159.671875 151.75 159.078125 151.324219 158.492188 C 111.421875 158.492188 91.683594 122.304688 86.6875 100.304688 C 84.613281 91.257812 82.933594 90.355469 77.28125 90.355469 C 66.828125 90.355469 59.292969 86.023438 59.292969 86.023438 C 49.691406 90.414062 45.398438 88.632812 46.6875 84.039062 C 42.507812 83.578125 42.597656 78.835938 45.136719 74.476562 C 48.328125 69.015625 54.84375 65.296875 62.640625 65.296875 L 66.8125 65.296875 C 75.433594 65.296875 77.210938 60.789062 86.09375 61.742188 C 87.472656 61.875 88.753906 62.109375 89.945312 62.398438 C 92.410156 59.578125 95.203125 58.390625 98.589844 58.625 C 99.117188 58.683594 99.453125 59.152344 99.351562 59.640625 L 98.527344 63.453125 C 98.230469 64.871094 98.628906 66.351562 99.640625 67.304688 C 106.8125 74.011719 110.925781 85.464844 115.535156 95.796875 C 123.003906 111.023438 141.023438 132.179688 169.941406 105.03125 C 190.273438 85.953125 202.554688 70.046875 222.75 68.484375 C 203 34.6875 167.074219 13.613281 127.9375 12.863281 M 80.269531 68.105469 C 77.300781 68.105469 74.347656 70.484375 75.355469 70.90625 C 75.578125 71.003906 75.960938 71.066406 76.390625 71.121094 C 76.703125 73.011719 78.300781 74.476562 80.28125 74.476562 C 82.265625 74.476562 83.832031 73.011719 84.136719 71.117188 C 84.570312 71.066406 84.953125 71.003906 85.171875 70.902344 C 86.179688 70.484375 83.226562 68.105469 80.269531 68.105469 M 185.148438 176.054688 C 182.75 176.113281 180.59375 177.640625 179.875 179.96875 L 179.875 180.007812 C 176.292969 191.519531 169.316406 206.386719 169.316406 206.386719 C 169.316406 206.386719 162.375 218.671875 158.445312 232.433594 C 162.664062 231.222656 166.808594 229.757812 170.851562 228.058594 C 178.761719 224.589844 186.246094 220.230469 193.160156 215.054688 C 192.03125 212.792969 190.789062 210.589844 189.429688 208.457031 C 189.429688 208.453125 187.125 198.222656 182.71875 187.078125 C 183.386719 185.230469 184.015625 183.367188 184.59375 181.484375 L 184.625 181.351562 C 184.757812 181.089844 185.054688 180.992188 185.386719 180.992188 L 185.417969 180.992188 C 187.722656 181.351562 190.15625 181.714844 192.988281 182.042969 C 193.839844 182.109375 194.726562 182.171875 195.609375 182.273438 C 196.703125 182.371094 197.753906 182.472656 198.839844 182.539062 C 199.097656 192.882812 203.589844 202.78125 204.726562 205.136719 C 213.011719 196.980469 219.976562 187.589844 225.382812 177.296875 C 217.386719 178.214844 207.605469 178.515625 196.089844 177.375 C 195.171875 177.269531 194.25 177.179688 193.328125 177.109375 C 190.941406 176.828125 188.5625 176.5 186.1875 176.125 C 185.84375 176.070312 185.496094 176.046875 185.152344 176.054688 M 185.152344 176.054688 "/>
</svg>
