<?xml version="1.0" encoding="UTF-8"?>
<svg xmlns="http://www.w3.org/2000/svg" xmlns:xlink="http://www.w3.org/1999/xlink" width="1800" height="1800" viewBox="0 0 1800 1800">
<defs>
<linearGradient id="linear-pattern-0" gradientUnits="userSpaceOnUse" x1="244.822998" y1="-272.52301" x2="1115.339966" y2="-272.52301" gradientTransform="matrix(0.742143, 1.702665, -1.702665, 0.742143, -61.565553, -54.730718)">
<stop offset="0" stop-color="rgb(0%, 45.098039%, 63.137255%)" stop-opacity="1"/>
<stop offset="1" stop-color="rgb(0%, 20.784314%, 33.333333%)" stop-opacity="1"/>
</linearGradient>
</defs>
<path fill-rule="nonzero" fill="rgb(100%, 100%, 100%)" fill-opacity="1" d="M 1800 900 C 1800 1397.082031 1397.082031 1800 900 1800 C 402.917969 1800 0 1397.082031 0 900 C 0 402.917969 402.917969 0 900 0 C 1397.082031 0 1800 402.917969 1800 900 M 1800 900 "/>
<path fill-rule="nonzero" fill="url(#linear-pattern-0)" d="M 921.148438 92.617188 C 805.292969 90.621094 690.363281 113.550781 584.140625 159.847656 C 174.851562 338.273438 -12.359375 814.640625 166.078125 1223.929688 C 317.023438 1567.914062 685.011719 1762.523438 1054.265625 1693.8125 C 1069.972656 1643.667969 1082.882812 1588.625 1082.882812 1528.636719 C 1082.882812 1520.140625 1082.648438 1511.535156 1082.179688 1502.816406 C 1082.179688 1502.816406 1111.0625 1453.542969 1133.804688 1389.332031 C 1161.984375 1310.019531 1147.09375 1222.609375 1098.324219 1153.449219 C 1095.453125 1149.652344 1092.601562 1145.375 1089.535156 1141.144531 C 802.238281 1141.144531 660.121094 880.609375 624.148438 722.179688 C 609.203125 657.042969 597.121094 650.558594 556.410156 650.558594 C 481.164062 650.558594 426.894531 619.355469 426.894531 619.355469 C 357.777344 650.996094 326.855469 638.140625 336.136719 605.066406 C 306.042969 601.777344 306.703125 567.605469 324.984375 536.246094 C 347.949219 496.914062 394.875 470.152344 451 470.152344 L 481.050781 470.152344 C 543.121094 470.152344 555.917969 437.695312 619.859375 444.558594 C 629.804688 445.5 639.027344 447.203125 647.605469 449.28125 C 665.339844 428.960938 685.449219 420.398438 709.847656 422.101562 C 713.644531 422.523438 716.046875 425.898438 715.332031 429.414062 L 709.398438 456.863281 C 707.257812 467.085938 710.113281 477.746094 717.414062 484.609375 C 769.050781 532.898438 798.664062 615.347656 831.839844 689.722656 C 885.628906 799.367188 1015.367188 951.695312 1223.5625 756.238281 C 1369.953125 618.847656 1458.394531 504.324219 1603.800781 493.074219 C 1461.59375 249.738281 1202.941406 98.007812 921.148438 92.617188 M 577.941406 490.359375 C 556.566406 490.359375 535.304688 507.5 542.558594 510.523438 C 544.148438 511.226562 546.90625 511.679688 550.027344 512.070312 C 552.277344 525.683594 563.765625 536.230469 578.039062 536.230469 C 592.3125 536.230469 603.589844 525.683594 605.785156 512.058594 C 608.921875 511.679688 611.664062 511.226562 613.25 510.511719 C 620.507812 507.5 599.246094 490.359375 577.941406 490.359375 M 1333.082031 1267.59375 C 1315.785156 1268.015625 1300.289062 1279.011719 1295.113281 1295.773438 L 1295.113281 1296.054688 C 1269.308594 1378.941406 1219.09375 1486 1219.09375 1486 C 1219.09375 1486 1169.113281 1574.4375 1140.820312 1673.535156 C 1171.191406 1664.796875 1201.019531 1654.269531 1230.144531 1642.007812 C 1287.089844 1617.058594 1340.980469 1585.648438 1390.753906 1548.394531 C 1382.636719 1532.09375 1373.671875 1516.234375 1363.894531 1500.875 C 1363.894531 1500.875 1347.300781 1427.21875 1315.5625 1346.960938 C 1320.398438 1333.65625 1324.898438 1320.234375 1329.0625 1306.703125 L 1329.285156 1305.71875 C 1330.269531 1303.847656 1332.378906 1303.128906 1334.785156 1303.128906 L 1335.007812 1303.128906 C 1351.601562 1305.71875 1369.109375 1308.347656 1389.5 1310.710938 C 1395.648438 1311.203125 1402.015625 1311.636719 1408.386719 1312.355469 C 1416.25 1313.070312 1423.828125 1313.789062 1431.632812 1314.28125 C 1433.488281 1388.769531 1465.847656 1460.011719 1474.03125 1476.984375 C 1533.675781 1418.269531 1583.84375 1350.648438 1622.742188 1276.539062 C 1565.171875 1283.148438 1494.746094 1285.328125 1411.847656 1277.101562 C 1405.230469 1276.347656 1398.601562 1275.703125 1391.960938 1275.171875 C 1374.777344 1273.167969 1357.636719 1270.804688 1340.550781 1268.085938 C 1338.082031 1267.699219 1335.582031 1267.535156 1333.082031 1267.59375 M 1333.082031 1267.59375 "/>
</svg>
