<?xml version="1.0" encoding="UTF-8"?>
<svg xmlns="http://www.w3.org/2000/svg" xmlns:xlink="http://www.w3.org/1999/xlink" width="1900" height="1900" viewBox="0 0 1900 1900">
<defs>
<linearGradient id="linear-pattern-0" gradientUnits="userSpaceOnUse" x1="244.822998" y1="-272.52301" x2="1115.339966" y2="-272.52301" gradientTransform="matrix(0.783373, 1.797257, -1.797257, 0.783373, -64.985862, -57.771314)">
<stop offset="0" stop-color="rgb(0%, 45.098039%, 63.137255%)" stop-opacity="1"/>
<stop offset="1" stop-color="rgb(0%, 20.784314%, 33.333333%)" stop-opacity="1"/>
</linearGradient>
</defs>
<path fill-rule="nonzero" fill="rgb(100%, 100%, 100%)" fill-opacity="1" d="M 1900 950 C 1900 1474.695312 1474.695312 1900 950 1900 C 425.304688 1900 0 1474.695312 0 950 C 0 425.304688 425.304688 0 950 0 C 1474.695312 0 1900 425.304688 1900 950 M 1900 950 "/>
<path fill-rule="nonzero" fill="url(#linear-pattern-0)" d="M 972.324219 97.761719 C 850.03125 95.65625 728.714844 119.859375 616.59375 168.730469 C 184.566406 357.066406 -13.046875 859.898438 175.304688 1291.925781 C 334.636719 1655.019531 723.070312 1860.441406 1112.835938 1787.914062 C 1129.417969 1734.980469 1143.042969 1676.882812 1143.042969 1613.558594 C 1143.042969 1604.59375 1142.796875 1595.511719 1142.300781 1586.308594 C 1142.300781 1586.308594 1172.789062 1534.292969 1196.792969 1466.519531 C 1226.539062 1382.800781 1210.820312 1290.53125 1159.339844 1217.527344 C 1156.3125 1213.519531 1153.300781 1209.007812 1150.0625 1204.539062 C 846.804688 1204.539062 696.796875 929.53125 658.824219 762.300781 C 643.046875 693.542969 630.296875 686.703125 587.324219 686.703125 C 507.894531 686.703125 450.613281 653.761719 450.613281 653.761719 C 377.65625 687.160156 345.011719 673.59375 354.808594 638.683594 C 323.042969 635.207031 323.742188 599.136719 343.039062 566.035156 C 367.277344 524.519531 416.8125 496.269531 476.054688 496.269531 L 507.773438 496.269531 C 573.296875 496.269531 586.804688 462.011719 654.296875 469.253906 C 664.792969 470.25 674.53125 472.046875 683.585938 474.242188 C 702.300781 452.792969 723.527344 443.753906 749.28125 445.550781 C 753.289062 445.996094 755.828125 449.558594 755.070312 453.269531 L 748.808594 482.242188 C 746.550781 493.035156 749.566406 504.285156 757.269531 511.53125 C 811.773438 562.503906 843.035156 649.53125 878.050781 728.042969 C 934.828125 843.777344 1071.777344 1004.566406 1291.539062 798.253906 C 1446.0625 653.230469 1539.414062 532.339844 1692.898438 520.464844 C 1542.792969 263.613281 1269.769531 103.453125 972.324219 97.761719 M 610.046875 517.601562 C 587.484375 517.601562 565.042969 535.695312 572.703125 538.886719 C 574.378906 539.628906 577.289062 540.105469 580.582031 540.519531 C 582.957031 554.890625 595.085938 566.023438 610.152344 566.023438 C 625.21875 566.023438 637.125 554.890625 639.4375 540.503906 C 642.75 540.105469 645.644531 539.628906 647.320312 538.871094 C 654.980469 535.695312 632.535156 517.601562 610.046875 517.601562 M 1407.144531 1338.015625 C 1388.886719 1338.460938 1372.527344 1350.070312 1367.066406 1367.761719 L 1367.066406 1368.058594 C 1339.828125 1455.546875 1286.820312 1568.554688 1286.820312 1568.554688 C 1286.820312 1568.554688 1234.066406 1661.90625 1204.199219 1766.511719 C 1236.257812 1757.285156 1267.742188 1746.171875 1298.488281 1733.230469 C 1358.597656 1706.894531 1415.480469 1673.738281 1468.015625 1634.414062 C 1459.449219 1617.210938 1449.988281 1600.46875 1439.664062 1584.257812 C 1439.664062 1584.257812 1422.148438 1506.507812 1388.648438 1421.792969 C 1393.753906 1407.75 1398.503906 1393.578125 1402.898438 1379.296875 L 1403.136719 1378.257812 C 1404.175781 1376.28125 1406.402344 1375.527344 1408.9375 1375.527344 L 1409.175781 1375.527344 C 1426.691406 1378.257812 1445.171875 1381.03125 1466.695312 1383.527344 C 1473.183594 1384.046875 1479.90625 1384.507812 1486.632812 1385.261719 C 1494.929688 1386.019531 1502.929688 1386.777344 1511.167969 1387.296875 C 1513.128906 1465.925781 1547.28125 1541.121094 1555.921875 1559.039062 C 1618.882812 1497.0625 1671.835938 1425.683594 1712.894531 1347.457031 C 1652.125 1354.433594 1577.785156 1356.734375 1490.28125 1348.050781 C 1483.296875 1347.253906 1476.300781 1346.574219 1469.292969 1346.015625 C 1451.15625 1343.898438 1433.0625 1341.402344 1415.023438 1338.535156 C 1412.417969 1338.128906 1409.78125 1337.953125 1407.144531 1338.015625 M 1407.144531 1338.015625 "/>
</svg>
