<?xml version="1.0" encoding="UTF-8"?>
<svg xmlns="http://www.w3.org/2000/svg" xmlns:xlink="http://www.w3.org/1999/xlink" width="100" height="100" viewBox="0 0 100 100">
<defs>
<linearGradient id="linear-pattern-0" gradientUnits="userSpaceOnUse" x1="244.822998" y1="-272.52301" x2="1115.339966" y2="-272.52301" gradientTransform="matrix(0.0412301, 0.0945925, -0.0945925, 0.0412301, -3.420309, -3.040595)">
<stop offset="0" stop-color="rgb(0%, 45.098039%, 63.137255%)" stop-opacity="1"/>
<stop offset="1" stop-color="rgb(0%, 20.784314%, 33.333333%)" stop-opacity="1"/>
</linearGradient>
</defs>
<path fill-rule="nonzero" fill="rgb(100%, 100%, 100%)" fill-opacity="1" d="M 100 50 C 100 77.617188 77.617188 100 50 100 C 22.382812 100 0 77.617188 0 50 C 0 22.382812 22.382812 0 50 0 C 77.617188 0 100 22.382812 100 50 M 100 50 "/>
<path fill-rule="nonzero" fill="url(#linear-pattern-0)" d="M 51.175781 5.144531 C 44.738281 5.035156 38.351562 6.308594 32.453125 8.878906 C 9.714844 18.792969 -0.6875 45.257812 9.226562 67.996094 C 17.613281 87.105469 38.054688 97.917969 58.570312 94.101562 C 59.441406 91.316406 60.160156 88.257812 60.160156 84.925781 C 60.160156 84.453125 60.148438 83.972656 60.121094 83.488281 C 60.121094 83.488281 61.726562 80.753906 62.988281 77.183594 C 64.554688 72.777344 63.726562 67.921875 61.019531 64.082031 C 60.859375 63.871094 60.699219 63.632812 60.53125 63.398438 C 44.570312 63.398438 36.671875 48.921875 34.675781 40.121094 C 33.84375 36.503906 33.171875 36.140625 30.910156 36.140625 C 26.730469 36.140625 23.714844 34.410156 23.714844 34.410156 C 19.875 36.167969 18.160156 35.453125 18.675781 33.613281 C 17.003906 33.433594 17.039062 31.535156 18.054688 29.792969 C 19.332031 27.605469 21.9375 26.121094 25.054688 26.121094 L 26.726562 26.121094 C 30.171875 26.121094 30.882812 24.316406 34.4375 24.699219 C 34.988281 24.75 35.5 24.84375 35.976562 24.960938 C 36.964844 23.832031 38.082031 23.355469 39.4375 23.449219 C 39.648438 23.472656 39.78125 23.660156 39.742188 23.855469 L 39.410156 25.382812 C 39.292969 25.949219 39.449219 26.542969 39.855469 26.921875 C 42.726562 29.605469 44.371094 34.1875 46.214844 38.316406 C 49.203125 44.410156 56.410156 52.871094 67.976562 42.011719 C 76.109375 34.378906 81.023438 28.019531 89.101562 27.394531 C 81.199219 13.875 66.828125 5.445312 51.175781 5.144531 M 32.109375 27.242188 C 30.921875 27.242188 29.738281 28.195312 30.140625 28.363281 C 30.230469 28.402344 30.382812 28.425781 30.558594 28.449219 C 30.683594 29.203125 31.320312 29.789062 32.113281 29.789062 C 32.90625 29.789062 33.53125 29.203125 33.65625 28.449219 C 33.828125 28.425781 33.980469 28.402344 34.070312 28.363281 C 34.472656 28.195312 33.292969 27.242188 32.109375 27.242188 M 74.058594 70.421875 C 73.097656 70.445312 72.238281 71.054688 71.949219 71.988281 L 71.949219 72.003906 C 70.515625 76.609375 67.726562 82.554688 67.726562 82.554688 C 67.726562 82.554688 64.949219 87.46875 63.378906 92.972656 C 65.066406 92.488281 66.722656 91.902344 68.339844 91.222656 C 71.503906 89.835938 74.5 88.089844 77.265625 86.023438 C 76.8125 85.117188 76.316406 84.234375 75.773438 83.382812 C 75.773438 83.382812 74.851562 79.289062 73.085938 74.832031 C 73.355469 74.09375 73.605469 73.347656 73.835938 72.59375 L 73.847656 72.539062 C 73.902344 72.4375 74.019531 72.394531 74.15625 72.394531 L 74.167969 72.394531 C 75.089844 72.539062 76.0625 72.6875 77.195312 72.816406 C 77.535156 72.84375 77.890625 72.867188 78.242188 72.910156 C 78.679688 72.949219 79.101562 72.988281 79.535156 73.015625 C 79.636719 77.152344 81.4375 81.113281 81.890625 82.054688 C 85.203125 78.792969 87.992188 75.035156 90.152344 70.917969 C 86.953125 71.285156 83.042969 71.40625 78.4375 70.949219 C 78.066406 70.90625 77.699219 70.871094 77.332031 70.84375 C 76.375 70.730469 75.425781 70.601562 74.476562 70.449219 C 74.335938 70.429688 74.199219 70.417969 74.058594 70.421875 M 74.058594 70.421875 "/>
</svg>
