<?xml version="1.0" encoding="UTF-8"?>
<svg xmlns="http://www.w3.org/2000/svg" xmlns:xlink="http://www.w3.org/1999/xlink" width="400" height="400" viewBox="0 0 400 400">
<defs>
<linearGradient id="linear-pattern-0" gradientUnits="userSpaceOnUse" x1="244.822998" y1="-272.52301" x2="1115.339966" y2="-272.52301" gradientTransform="matrix(0.164921, 0.37837, -0.37837, 0.164921, -13.681234, -12.162382)">
<stop offset="0" stop-color="rgb(0%, 45.098039%, 63.137255%)" stop-opacity="1"/>
<stop offset="1" stop-color="rgb(0%, 20.784314%, 33.333333%)" stop-opacity="1"/>
</linearGradient>
</defs>
<path fill-rule="nonzero" fill="rgb(100%, 100%, 100%)" fill-opacity="1" d="M 400 200 C 400 310.460938 310.460938 400 200 400 C 89.539062 400 0 310.460938 0 200 C 0 89.539062 89.539062 0 200 0 C 310.460938 0 400 89.539062 400 200 M 400 200 "/>
<path fill-rule="nonzero" fill="url(#linear-pattern-0)" d="M 204.699219 20.582031 C 178.953125 20.136719 153.414062 25.234375 129.808594 35.523438 C 38.855469 75.171875 -2.746094 181.03125 36.90625 271.984375 C 70.449219 348.425781 152.226562 391.671875 234.28125 376.402344 C 237.773438 365.257812 240.640625 353.027344 240.640625 339.695312 C 240.640625 337.808594 240.589844 335.898438 240.484375 333.960938 C 240.484375 333.960938 246.902344 323.007812 251.957031 308.742188 C 258.21875 291.117188 254.910156 271.691406 244.070312 256.320312 C 243.433594 255.476562 242.800781 254.527344 242.117188 253.585938 C 178.273438 253.585938 146.695312 195.691406 138.699219 160.484375 C 135.378906 146.007812 132.695312 144.570312 123.648438 144.570312 C 106.925781 144.570312 94.867188 137.632812 94.867188 137.632812 C 79.507812 144.664062 72.632812 141.808594 74.695312 134.460938 C 68.007812 133.726562 68.15625 126.132812 72.21875 119.164062 C 77.320312 110.425781 87.75 104.476562 100.222656 104.476562 L 106.898438 104.476562 C 120.695312 104.476562 123.539062 97.265625 137.746094 98.789062 C 139.957031 99 142.007812 99.378906 143.914062 99.839844 C 147.851562 95.324219 152.320312 93.421875 157.742188 93.800781 C 158.585938 93.894531 159.121094 94.644531 158.960938 95.425781 L 157.644531 101.523438 C 157.167969 103.796875 157.804688 106.164062 159.425781 107.691406 C 170.898438 118.421875 177.480469 136.742188 184.851562 153.273438 C 196.804688 177.636719 225.636719 211.488281 271.902344 168.054688 C 304.433594 137.523438 324.085938 112.070312 356.398438 109.570312 C 324.796875 55.496094 267.320312 21.78125 204.699219 20.582031 M 128.429688 108.96875 C 123.679688 108.96875 118.957031 112.777344 120.570312 113.449219 C 120.921875 113.605469 121.535156 113.707031 122.226562 113.792969 C 122.726562 116.820312 125.28125 119.164062 128.453125 119.164062 C 131.625 119.164062 134.132812 116.820312 134.617188 113.789062 C 135.316406 113.707031 135.925781 113.605469 136.277344 113.445312 C 137.890625 112.777344 133.164062 108.96875 128.429688 108.96875 M 296.242188 281.6875 C 292.398438 281.78125 288.953125 284.226562 287.804688 287.949219 L 287.804688 288.011719 C 282.070312 306.429688 270.910156 330.222656 270.910156 330.222656 C 270.910156 330.222656 259.804688 349.875 253.515625 371.898438 C 260.265625 369.953125 266.894531 367.617188 273.367188 364.890625 C 286.019531 359.347656 297.996094 352.367188 309.054688 344.085938 C 307.253906 340.464844 305.261719 336.941406 303.085938 333.527344 C 303.085938 333.527344 299.398438 317.160156 292.347656 299.324219 C 293.421875 296.367188 294.421875 293.386719 295.347656 290.378906 L 295.398438 290.160156 C 295.617188 289.742188 296.085938 289.585938 296.617188 289.585938 L 296.667969 289.585938 C 300.355469 290.160156 304.246094 290.742188 308.777344 291.269531 C 310.144531 291.378906 311.558594 291.476562 312.976562 291.632812 C 314.722656 291.792969 316.40625 291.953125 318.140625 292.0625 C 318.554688 308.617188 325.742188 324.445312 327.5625 328.21875 C 340.816406 315.171875 351.964844 300.144531 360.609375 283.675781 C 347.816406 285.144531 332.164062 285.628906 313.742188 283.800781 C 312.273438 283.632812 310.800781 283.488281 309.324219 283.371094 C 305.507812 282.925781 301.695312 282.402344 297.898438 281.796875 C 297.351562 281.710938 296.796875 281.675781 296.242188 281.6875 M 296.242188 281.6875 "/>
</svg>
