<?xml version="1.0" encoding="UTF-8"?>
<svg xmlns="http://www.w3.org/2000/svg" xmlns:xlink="http://www.w3.org/1999/xlink" width="900" height="900" viewBox="0 0 900 900">
<defs>
<linearGradient id="linear-pattern-0" gradientUnits="userSpaceOnUse" x1="244.822998" y1="-272.52301" x2="1115.339966" y2="-272.52301" gradientTransform="matrix(0.371071, 0.851332, -0.851332, 0.371071, -30.782777, -27.365359)">
<stop offset="0" stop-color="rgb(0%, 45.098039%, 63.137255%)" stop-opacity="1"/>
<stop offset="1" stop-color="rgb(0%, 20.784314%, 33.333333%)" stop-opacity="1"/>
</linearGradient>
</defs>
<path fill-rule="nonzero" fill="rgb(100%, 100%, 100%)" fill-opacity="1" d="M 900 450 C 900 698.539062 698.539062 900 450 900 C 201.460938 900 0 698.539062 0 450 C 0 201.460938 201.460938 0 450 0 C 698.539062 0 900 201.460938 900 450 M 900 450 "/>
<path fill-rule="nonzero" fill="url(#linear-pattern-0)" d="M 460.574219 46.308594 C 402.648438 45.308594 345.179688 56.773438 292.070312 79.925781 C 87.425781 169.136719 -6.179688 407.320312 83.039062 611.964844 C 158.511719 783.957031 342.507812 881.261719 527.132812 846.90625 C 534.988281 821.832031 541.441406 794.3125 541.441406 764.316406 C 541.441406 760.070312 541.324219 755.769531 541.089844 751.410156 C 541.089844 751.410156 555.53125 726.769531 566.902344 694.667969 C 580.992188 655.011719 573.546875 611.304688 549.160156 576.722656 C 547.726562 574.824219 546.300781 572.6875 544.765625 570.570312 C 401.117188 570.570312 330.0625 440.304688 312.074219 361.089844 C 304.601562 328.519531 298.5625 325.28125 278.207031 325.28125 C 240.582031 325.28125 213.449219 309.675781 213.449219 309.675781 C 178.890625 325.496094 163.425781 319.070312 168.066406 302.535156 C 153.019531 300.886719 153.351562 283.800781 162.492188 268.121094 C 173.972656 248.457031 197.4375 235.074219 225.5 235.074219 L 240.523438 235.074219 C 271.5625 235.074219 277.960938 218.847656 309.929688 222.277344 C 314.902344 222.75 319.515625 223.601562 323.804688 224.640625 C 332.667969 214.480469 342.722656 210.199219 354.921875 211.050781 C 356.820312 211.261719 358.023438 212.949219 357.664062 214.707031 L 354.699219 228.429688 C 353.628906 233.542969 355.058594 238.871094 358.707031 242.304688 C 384.523438 266.449219 399.332031 307.671875 415.917969 344.863281 C 442.8125 399.683594 507.683594 475.847656 611.78125 378.121094 C 684.976562 309.425781 729.195312 252.160156 801.898438 246.535156 C 730.796875 124.867188 601.46875 49.003906 460.574219 46.308594 M 288.96875 245.179688 C 278.28125 245.179688 267.652344 253.75 271.28125 255.261719 C 272.074219 255.613281 273.453125 255.839844 275.011719 256.035156 C 276.136719 262.84375 281.882812 268.117188 289.019531 268.117188 C 296.15625 268.117188 301.796875 262.84375 302.890625 256.027344 C 304.460938 255.839844 305.832031 255.613281 306.625 255.253906 C 310.253906 253.75 299.621094 245.179688 288.96875 245.179688 M 666.542969 633.796875 C 657.894531 634.007812 650.144531 639.507812 647.558594 647.886719 L 647.558594 648.027344 C 634.65625 689.46875 609.546875 743 609.546875 743 C 609.546875 743 584.558594 787.21875 570.410156 836.769531 C 585.59375 832.398438 600.507812 827.132812 615.074219 821.003906 C 643.546875 808.53125 670.488281 792.824219 695.375 774.195312 C 691.320312 766.046875 686.835938 758.117188 681.945312 750.4375 C 681.945312 750.4375 673.648438 713.609375 657.78125 673.480469 C 660.199219 666.828125 662.449219 660.117188 664.53125 653.351562 L 664.644531 652.859375 C 665.136719 651.921875 666.191406 651.566406 667.390625 651.566406 L 667.503906 651.566406 C 675.800781 652.859375 684.554688 654.171875 694.75 655.355469 C 697.824219 655.601562 701.007812 655.820312 704.195312 656.175781 C 708.125 656.535156 711.914062 656.894531 715.816406 657.140625 C 716.746094 694.386719 732.921875 730.003906 737.015625 738.492188 C 766.839844 709.132812 791.921875 675.324219 811.371094 638.269531 C 782.585938 641.574219 747.371094 642.664062 705.921875 638.550781 C 702.613281 638.171875 699.300781 637.851562 695.980469 637.585938 C 687.390625 636.582031 678.816406 635.402344 670.273438 634.042969 C 669.039062 633.851562 667.789062 633.769531 666.542969 633.796875 M 666.542969 633.796875 "/>
</svg>
