<?xml version="1.0" encoding="UTF-8"?>
<svg xmlns="http://www.w3.org/2000/svg" xmlns:xlink="http://www.w3.org/1999/xlink" width="2000" height="2000" viewBox="0 0 2000 2000">
<defs>
<linearGradient id="linear-pattern-0" gradientUnits="userSpaceOnUse" x1="244.822998" y1="-272.52301" x2="1115.339966" y2="-272.52301" gradientTransform="matrix(0.824603, 1.89185, -1.89185, 0.824603, -68.40617, -60.811909)">
<stop offset="0" stop-color="rgb(0%, 45.098039%, 63.137255%)" stop-opacity="1"/>
<stop offset="1" stop-color="rgb(0%, 20.784314%, 33.333333%)" stop-opacity="1"/>
</linearGradient>
</defs>
<path fill-rule="nonzero" fill="rgb(100%, 100%, 100%)" fill-opacity="1" d="M 2000 1000 C 2000 1552.3125 1552.3125 2000 1000 2000 C 447.6875 2000 0 1552.3125 0 1000 C 0 447.6875 447.6875 0 1000 0 C 1552.3125 0 2000 447.6875 2000 1000 M 2000 1000 "/>
<path fill-rule="nonzero" fill="url(#linear-pattern-0)" d="M 1023.5 102.90625 C 894.773438 100.691406 767.070312 126.167969 649.046875 177.609375 C 194.28125 375.859375 -13.734375 905.15625 184.53125 1359.921875 C 352.25 1742.125 761.125 1958.359375 1171.40625 1882.015625 C 1188.859375 1826.296875 1203.203125 1765.140625 1203.203125 1698.484375 C 1203.203125 1689.046875 1202.941406 1679.484375 1202.421875 1669.796875 C 1202.421875 1669.796875 1234.515625 1615.046875 1259.78125 1543.703125 C 1291.09375 1455.578125 1274.546875 1358.453125 1220.359375 1281.609375 C 1217.171875 1277.390625 1214 1272.640625 1210.59375 1267.9375 C 891.375 1267.9375 733.46875 978.453125 693.5 802.421875 C 676.890625 730.046875 663.46875 722.84375 618.234375 722.84375 C 534.625 722.84375 474.328125 688.171875 474.328125 688.171875 C 397.53125 723.328125 363.171875 709.046875 373.484375 672.296875 C 340.046875 668.640625 340.78125 630.671875 361.09375 595.828125 C 386.609375 552.125 438.75 522.390625 501.109375 522.390625 L 534.5 522.390625 C 603.46875 522.390625 617.6875 486.328125 688.734375 493.953125 C 699.78125 495 710.03125 496.890625 719.5625 499.203125 C 739.265625 476.625 761.609375 467.109375 788.71875 469 C 792.9375 469.46875 795.609375 473.21875 794.8125 477.125 L 788.21875 507.625 C 785.84375 518.984375 789.015625 530.828125 797.125 538.453125 C 854.5 592.109375 887.40625 683.71875 924.265625 766.359375 C 984.03125 888.1875 1128.1875 1057.4375 1359.515625 840.265625 C 1522.171875 687.609375 1620.4375 560.359375 1782 547.859375 C 1623.992188 277.488281 1336.601562 108.898438 1023.5 102.90625 M 642.15625 544.84375 C 618.40625 544.84375 594.78125 563.890625 602.84375 567.25 C 604.609375 568.03125 607.671875 568.53125 611.140625 568.96875 C 613.640625 584.09375 626.40625 595.8125 642.265625 595.8125 C 658.125 595.8125 670.65625 584.09375 673.09375 568.953125 C 676.578125 568.53125 679.625 568.03125 681.390625 567.234375 C 689.453125 563.890625 665.828125 544.84375 642.15625 544.84375 M 1481.203125 1408.4375 C 1461.984375 1408.90625 1444.765625 1421.125 1439.015625 1439.75 L 1439.015625 1440.0625 C 1410.34375 1532.15625 1354.546875 1651.109375 1354.546875 1651.109375 C 1354.546875 1651.109375 1299.015625 1749.375 1267.578125 1859.484375 C 1301.324219 1849.773438 1334.464844 1838.078125 1366.828125 1824.453125 C 1430.101562 1796.730469 1489.976562 1761.832031 1545.28125 1720.4375 C 1536.265625 1702.328125 1526.300781 1684.707031 1515.4375 1667.640625 C 1515.4375 1667.640625 1497 1585.796875 1461.734375 1496.625 C 1467.109375 1481.839844 1472.109375 1466.925781 1476.734375 1451.890625 L 1476.984375 1450.796875 C 1478.078125 1448.71875 1480.421875 1447.921875 1483.09375 1447.921875 L 1483.34375 1447.921875 C 1501.78125 1450.796875 1521.234375 1453.71875 1543.890625 1456.34375 C 1550.71875 1456.890625 1557.796875 1457.375 1564.875 1458.171875 C 1573.609375 1458.96875 1582.03125 1459.765625 1590.703125 1460.3125 C 1592.765625 1543.078125 1628.71875 1622.234375 1637.8125 1641.09375 C 1704.085938 1575.851562 1759.828125 1500.71875 1803.046875 1418.375 C 1739.078125 1425.71875 1660.828125 1428.140625 1568.71875 1419 C 1561.367188 1418.160156 1554 1417.449219 1546.625 1416.859375 C 1527.53125 1414.628906 1508.484375 1412.003906 1489.5 1408.984375 C 1486.757812 1408.558594 1483.980469 1408.375 1481.203125 1408.4375 M 1481.203125 1408.4375 "/>
</svg>
