<?xml version="1.0" encoding="UTF-8"?>
<svg xmlns="http://www.w3.org/2000/svg" xmlns:xlink="http://www.w3.org/1999/xlink" width="800" height="800" viewBox="0 0 800 800">
<defs>
<linearGradient id="linear-pattern-0" gradientUnits="userSpaceOnUse" x1="244.822998" y1="-272.52301" x2="1115.339966" y2="-272.52301" gradientTransform="matrix(0.329841, 0.75674, -0.75674, 0.329841, -27.362468, -24.324764)">
<stop offset="0" stop-color="rgb(0%, 45.098039%, 63.137255%)" stop-opacity="1"/>
<stop offset="1" stop-color="rgb(0%, 20.784314%, 33.333333%)" stop-opacity="1"/>
</linearGradient>
</defs>
<path fill-rule="nonzero" fill="rgb(100%, 100%, 100%)" fill-opacity="1" d="M 800 400 C 800 620.925781 620.925781 800 400 800 C 179.074219 800 0 620.925781 0 400 C 0 179.074219 179.074219 0 400 0 C 620.925781 0 800 179.074219 800 400 M 800 400 "/>
<path fill-rule="nonzero" fill="url(#linear-pattern-0)" d="M 409.398438 41.164062 C 357.910156 40.277344 306.828125 50.464844 259.617188 71.042969 C 77.710938 150.34375 -5.492188 362.0625 73.8125 543.96875 C 140.898438 696.851562 304.449219 783.34375 468.5625 752.804688 C 475.542969 730.519531 481.28125 706.054688 481.28125 679.394531 C 481.28125 675.617188 481.175781 671.792969 480.96875 667.917969 C 480.96875 667.917969 493.804688 646.019531 503.914062 617.480469 C 516.4375 582.230469 509.820312 543.382812 488.144531 512.644531 C 486.867188 510.957031 485.601562 509.054688 484.238281 507.175781 C 356.550781 507.175781 293.386719 391.382812 277.398438 320.96875 C 270.757812 292.019531 265.386719 289.136719 247.292969 289.136719 C 213.851562 289.136719 189.730469 275.269531 189.730469 275.269531 C 159.011719 289.332031 145.269531 283.617188 149.394531 268.917969 C 136.019531 267.457031 136.3125 252.269531 144.4375 238.332031 C 154.644531 220.851562 175.5 208.957031 200.445312 208.957031 L 213.800781 208.957031 C 241.386719 208.957031 247.074219 194.53125 275.492188 197.582031 C 279.914062 198 284.011719 198.757812 287.824219 199.679688 C 295.707031 190.648438 304.644531 186.84375 315.488281 187.601562 C 317.175781 187.789062 318.242188 189.289062 317.925781 190.851562 L 315.289062 203.050781 C 314.335938 207.59375 315.605469 212.332031 318.851562 215.382812 C 341.800781 236.84375 354.960938 273.488281 369.707031 306.542969 C 393.613281 355.273438 451.273438 422.976562 543.804688 336.105469 C 608.867188 275.042969 648.175781 224.144531 712.800781 219.144531 C 649.597656 110.996094 534.640625 43.558594 409.398438 41.164062 M 256.863281 217.9375 C 247.363281 217.9375 237.914062 225.554688 241.136719 226.898438 C 241.84375 227.210938 243.070312 227.414062 244.457031 227.585938 C 245.457031 233.636719 250.5625 238.324219 256.90625 238.324219 C 263.25 238.324219 268.261719 233.636719 269.238281 227.582031 C 270.632812 227.414062 271.851562 227.210938 272.554688 226.894531 C 275.78125 225.554688 266.332031 217.9375 256.863281 217.9375 M 592.480469 563.375 C 584.792969 563.5625 577.90625 568.449219 575.605469 575.898438 L 575.605469 576.023438 C 564.136719 612.863281 541.820312 660.445312 541.820312 660.445312 C 541.820312 660.445312 519.605469 699.75 507.03125 743.792969 C 520.527344 739.910156 533.785156 735.230469 546.730469 729.78125 C 572.039062 718.691406 595.992188 704.734375 618.113281 688.175781 C 614.503906 680.929688 610.519531 673.882812 606.175781 667.054688 C 606.175781 667.054688 598.800781 634.320312 584.695312 598.648438 C 586.84375 592.738281 588.84375 586.769531 590.695312 580.757812 L 590.792969 580.320312 C 591.230469 579.488281 592.167969 579.167969 593.238281 579.167969 L 593.335938 579.167969 C 600.710938 580.320312 608.492188 581.488281 617.554688 582.539062 C 620.289062 582.757812 623.117188 582.949219 625.949219 583.269531 C 629.445312 583.585938 632.8125 583.90625 636.28125 584.125 C 637.105469 617.230469 651.488281 648.894531 655.125 656.4375 C 681.632812 630.339844 703.929688 600.289062 721.21875 567.351562 C 695.632812 570.289062 664.332031 571.257812 627.488281 567.601562 C 624.546875 567.265625 621.601562 566.980469 618.648438 566.742188 C 611.011719 565.851562 603.394531 564.800781 595.800781 563.59375 C 594.703125 563.421875 593.589844 563.347656 592.480469 563.375 M 592.480469 563.375 "/>
</svg>
