<?xml version="1.0" encoding="UTF-8"?>
<svg xmlns="http://www.w3.org/2000/svg" xmlns:xlink="http://www.w3.org/1999/xlink" width="32" height="32" viewBox="0 0 32 32">
<defs>
<linearGradient id="linear-pattern-0" gradientUnits="userSpaceOnUse" x1="244.822998" y1="-272.52301" x2="1115.339966" y2="-272.52301" gradientTransform="matrix(0.0131936, 0.0302696, -0.0302696, 0.0131936, -1.094499, -0.972991)">
<stop offset="0" stop-color="rgb(0%, 45.098039%, 63.137255%)" stop-opacity="1"/>
<stop offset="1" stop-color="rgb(0%, 20.784314%, 33.333333%)" stop-opacity="1"/>
</linearGradient>
</defs>
<path fill-rule="nonzero" fill="rgb(100%, 100%, 100%)" fill-opacity="1" d="M 32 16 C 32 24.835938 24.835938 32 16 32 C 7.164062 32 0 24.835938 0 16 C 0 7.164062 7.164062 0 16 0 C 24.835938 0 32 7.164062 32 16 M 32 16 "/>
<path fill-rule="nonzero" fill="url(#linear-pattern-0)" d="M 16.375 1.648438 C 14.316406 1.609375 12.273438 2.019531 10.382812 2.839844 C 3.109375 6.015625 -0.21875 14.484375 2.953125 21.757812 C 5.636719 27.875 12.179688 31.332031 18.742188 30.113281 C 19.023438 29.222656 19.25 28.242188 19.25 27.175781 C 19.25 27.023438 19.246094 26.871094 19.238281 26.714844 C 19.238281 26.714844 19.753906 25.839844 20.15625 24.699219 C 20.65625 23.289062 20.394531 21.734375 19.527344 20.503906 C 19.476562 20.4375 19.425781 20.363281 19.371094 20.285156 C 14.261719 20.285156 11.734375 15.65625 11.097656 12.839844 C 10.832031 11.679688 10.617188 11.566406 9.890625 11.566406 C 8.554688 11.566406 7.589844 11.011719 7.589844 11.011719 C 6.359375 11.574219 5.8125 11.34375 5.976562 10.757812 C 5.441406 10.699219 5.453125 10.089844 5.777344 9.535156 C 6.1875 8.835938 7.019531 8.359375 8.019531 8.359375 L 8.550781 8.359375 C 9.65625 8.359375 9.882812 7.78125 11.019531 7.902344 C 11.195312 7.921875 11.359375 7.949219 11.511719 7.988281 C 11.828125 7.625 12.1875 7.472656 12.621094 7.503906 C 12.6875 7.511719 12.730469 7.570312 12.71875 7.632812 L 12.613281 8.121094 C 12.574219 8.304688 12.625 8.492188 12.753906 8.617188 C 13.671875 9.472656 14.199219 10.941406 14.789062 12.261719 C 15.746094 14.210938 18.050781 16.917969 21.753906 13.445312 C 24.355469 11 25.925781 8.964844 28.511719 8.765625 C 25.984375 4.441406 21.386719 1.742188 16.375 1.648438 M 10.273438 8.71875 C 9.894531 8.71875 9.515625 9.023438 9.644531 9.074219 C 9.671875 9.089844 9.722656 9.097656 9.777344 9.101562 C 9.816406 9.34375 10.023438 9.53125 10.277344 9.53125 C 10.53125 9.53125 10.730469 9.34375 10.769531 9.101562 C 10.824219 9.097656 10.875 9.089844 10.902344 9.074219 C 11.03125 9.023438 10.652344 8.71875 10.273438 8.71875 M 23.699219 22.535156 C 23.390625 22.542969 23.117188 22.738281 23.023438 23.035156 L 23.023438 23.039062 C 22.566406 24.515625 21.671875 26.417969 21.671875 26.417969 C 21.671875 26.417969 20.785156 27.988281 20.28125 29.75 C 20.820312 29.597656 21.351562 29.410156 21.871094 29.191406 C 22.882812 28.746094 23.839844 28.1875 24.722656 27.527344 C 24.582031 27.238281 24.421875 26.957031 24.246094 26.683594 C 24.246094 26.683594 23.953125 25.371094 23.386719 23.945312 C 23.472656 23.710938 23.554688 23.472656 23.628906 23.230469 L 23.632812 23.210938 C 23.648438 23.179688 23.6875 23.167969 23.730469 23.167969 L 23.734375 23.167969 C 24.027344 23.210938 24.339844 23.257812 24.703125 23.300781 C 24.8125 23.308594 24.925781 23.316406 25.039062 23.332031 C 25.179688 23.34375 25.3125 23.355469 25.453125 23.363281 C 25.484375 24.6875 26.058594 25.957031 26.203125 26.257812 C 27.265625 25.214844 28.15625 24.011719 28.847656 22.695312 C 27.824219 22.8125 26.574219 22.851562 25.097656 22.703125 C 24.980469 22.691406 24.863281 22.679688 24.746094 22.667969 C 24.441406 22.632812 24.136719 22.59375 23.832031 22.542969 C 23.789062 22.535156 23.742188 22.535156 23.699219 22.535156 M 23.699219 22.535156 "/>
</svg>
