<?xml version="1.0" encoding="UTF-8"?>
<svg xmlns="http://www.w3.org/2000/svg" xmlns:xlink="http://www.w3.org/1999/xlink" width="1600" height="1600" viewBox="0 0 1600 1600">
<defs>
<linearGradient id="linear-pattern-0" gradientUnits="userSpaceOnUse" x1="244.822998" y1="-272.52301" x2="1115.339966" y2="-272.52301" gradientTransform="matrix(0.659682, 1.51348, -1.51348, 0.659682, -54.724936, -48.649527)">
<stop offset="0" stop-color="rgb(0%, 45.098039%, 63.137255%)" stop-opacity="1"/>
<stop offset="1" stop-color="rgb(0%, 20.784314%, 33.333333%)" stop-opacity="1"/>
</linearGradient>
</defs>
<path fill-rule="nonzero" fill="rgb(100%, 100%, 100%)" fill-opacity="1" d="M 1600 800 C 1600 1241.851562 1241.851562 1600 800 1600 C 358.148438 1600 0 1241.851562 0 800 C 0 358.148438 358.148438 0 800 0 C 1241.851562 0 1600 358.148438 1600 800 M 1600 800 "/>
<path fill-rule="nonzero" fill="url(#linear-pattern-0)" d="M 818.800781 82.324219 C 715.816406 80.550781 613.65625 100.933594 519.238281 142.085938 C 155.425781 300.6875 -10.988281 724.125 147.625 1087.9375 C 281.800781 1393.699219 608.898438 1566.6875 937.125 1505.613281 C 951.085938 1461.039062 962.5625 1412.113281 962.5625 1358.789062 C 962.5625 1351.238281 962.355469 1343.585938 961.9375 1335.835938 C 961.9375 1335.835938 987.613281 1292.039062 1007.824219 1234.960938 C 1032.875 1164.460938 1019.636719 1086.761719 976.289062 1025.289062 C 973.738281 1021.914062 971.199219 1018.113281 968.476562 1014.351562 C 713.101562 1014.351562 586.773438 782.761719 554.800781 641.9375 C 541.511719 584.039062 530.773438 578.273438 494.585938 578.273438 C 427.699219 578.273438 379.460938 550.539062 379.460938 550.539062 C 318.023438 578.664062 290.539062 567.238281 298.789062 537.835938 C 272.039062 534.914062 272.625 504.539062 288.875 476.664062 C 309.289062 441.699219 351 417.914062 400.886719 417.914062 L 427.601562 417.914062 C 482.773438 417.914062 494.148438 389.0625 550.988281 395.164062 C 559.824219 396 568.023438 397.511719 575.648438 399.363281 C 591.414062 381.300781 609.289062 373.6875 630.976562 375.199219 C 634.351562 375.574219 636.488281 378.574219 635.851562 381.699219 L 630.574219 406.101562 C 628.675781 415.1875 631.210938 424.664062 637.699219 430.761719 C 683.601562 473.6875 709.925781 546.976562 739.414062 613.085938 C 787.226562 710.550781 902.550781 845.949219 1087.613281 672.210938 C 1217.738281 550.085938 1296.351562 448.289062 1425.601562 438.289062 C 1299.191406 221.988281 1069.28125 87.117188 818.800781 82.324219 M 513.726562 435.875 C 494.726562 435.875 475.824219 451.113281 482.273438 453.800781 C 483.6875 454.425781 486.136719 454.824219 488.914062 455.175781 C 490.914062 467.273438 501.125 476.648438 513.8125 476.648438 C 526.5 476.648438 536.523438 467.273438 538.476562 455.164062 C 541.261719 454.824219 543.699219 454.425781 545.113281 453.789062 C 551.5625 451.113281 532.664062 435.875 513.726562 435.875 M 1184.960938 1126.75 C 1169.585938 1127.125 1155.8125 1136.898438 1151.210938 1151.800781 L 1151.210938 1152.050781 C 1128.273438 1225.726562 1083.636719 1320.886719 1083.636719 1320.886719 C 1083.636719 1320.886719 1039.210938 1399.5 1014.0625 1487.585938 C 1041.058594 1479.820312 1067.570312 1470.460938 1093.460938 1459.5625 C 1144.082031 1437.386719 1191.984375 1409.464844 1236.226562 1376.351562 C 1229.011719 1361.863281 1221.042969 1347.765625 1212.351562 1334.113281 C 1212.351562 1334.113281 1197.601562 1268.636719 1169.386719 1197.300781 C 1173.6875 1185.472656 1177.6875 1173.539062 1181.386719 1161.511719 L 1181.585938 1160.636719 C 1182.460938 1158.976562 1184.335938 1158.335938 1186.476562 1158.335938 L 1186.675781 1158.335938 C 1201.425781 1160.636719 1216.988281 1162.976562 1235.113281 1165.074219 C 1240.574219 1165.511719 1246.238281 1165.898438 1251.898438 1166.539062 C 1258.886719 1167.175781 1265.625 1167.8125 1272.5625 1168.25 C 1274.210938 1234.460938 1302.976562 1297.789062 1310.25 1312.875 C 1363.269531 1260.683594 1407.863281 1200.574219 1442.4375 1134.699219 C 1391.261719 1140.574219 1328.664062 1142.511719 1254.976562 1135.199219 C 1249.09375 1134.53125 1243.199219 1133.957031 1237.300781 1133.488281 C 1222.023438 1131.703125 1206.789062 1129.601562 1191.601562 1127.1875 C 1189.40625 1126.84375 1187.183594 1126.699219 1184.960938 1126.75 M 1184.960938 1126.75 "/>
</svg>
