<?xml version="1.0" encoding="UTF-8"?>
<svg xmlns="http://www.w3.org/2000/svg" xmlns:xlink="http://www.w3.org/1999/xlink" width="5000" height="5000" viewBox="0 0 5000 5000">
<defs>
<linearGradient id="linear-pattern-0" gradientUnits="userSpaceOnUse" x1="244.822998" y1="-272.52301" x2="1115.339966" y2="-272.52301" gradientTransform="matrix(2.061507, 4.729624, -4.729624, 2.061507, -171.015425, -152.029773)">
<stop offset="0" stop-color="rgb(0%, 45.098039%, 63.137255%)" stop-opacity="1"/>
<stop offset="1" stop-color="rgb(0%, 20.784314%, 33.333333%)" stop-opacity="1"/>
</linearGradient>
</defs>
<path fill-rule="nonzero" fill="rgb(100%, 100%, 100%)" fill-opacity="1" d="M 5000 2500 C 5000 3880.78125 3880.78125 5000 2500 5000 C 1119.21875 5000 0 3880.78125 0 2500 C 0 1119.21875 1119.21875 0 2500 0 C 3880.78125 0 5000 1119.21875 5000 2500 M 5000 2500 "/>
<path fill-rule="nonzero" fill="url(#linear-pattern-0)" d="M 2558.75 257.265625 C 2236.929688 251.722656 1917.675781 315.414062 1622.617188 444.023438 C 485.703125 939.648438 -34.335938 2262.890625 461.328125 3399.804688 C 880.625 4355.3125 1902.8125 4895.898438 2928.515625 4705.039062 C 2972.148438 4565.742188 3008.007812 4412.851562 3008.007812 4246.210938 C 3008.007812 4222.617188 3007.355469 4198.710938 3006.054688 4174.492188 C 3006.054688 4174.492188 3086.289062 4037.617188 3149.453125 3859.257812 C 3227.734375 3638.945312 3186.367188 3396.132812 3050.898438 3204.023438 C 3042.929688 3193.476562 3035 3181.601562 3026.484375 3169.84375 C 2228.4375 3169.84375 1833.671875 2446.132812 1733.75 2006.054688 C 1692.226562 1825.117188 1658.671875 1807.109375 1545.585938 1807.109375 C 1336.5625 1807.109375 1185.820312 1720.429688 1185.820312 1720.429688 C 993.828125 1808.320312 907.929688 1772.617188 933.710938 1680.742188 C 850.117188 1671.601562 851.953125 1576.679688 902.734375 1489.570312 C 966.523438 1380.3125 1096.875 1305.976562 1252.773438 1305.976562 L 1336.25 1305.976562 C 1508.671875 1305.976562 1544.21875 1215.820312 1721.835938 1234.882812 C 1749.453125 1237.5 1775.078125 1242.226562 1798.90625 1248.007812 C 1848.164062 1191.5625 1904.023438 1167.773438 1971.796875 1172.5 C 1982.34375 1173.671875 1989.023438 1183.046875 1987.03125 1192.8125 L 1970.546875 1269.0625 C 1964.609375 1297.460938 1972.539062 1327.070312 1992.8125 1346.132812 C 2136.25 1480.273438 2218.515625 1709.296875 2310.664062 1915.898438 C 2460.078125 2220.46875 2820.46875 2643.59375 3398.789062 2100.664062 C 3805.429688 1719.023438 4051.09375 1400.898438 4455 1369.648438 C 4059.976562 693.71875 3341.503906 272.242188 2558.75 257.265625 M 1605.390625 1362.109375 C 1546.015625 1362.109375 1486.953125 1409.726562 1507.109375 1418.125 C 1511.523438 1420.078125 1519.179688 1421.328125 1527.851562 1422.421875 C 1534.101562 1460.234375 1566.015625 1489.53125 1605.664062 1489.53125 C 1645.3125 1489.53125 1676.640625 1460.234375 1682.734375 1422.382812 C 1691.445312 1421.328125 1699.0625 1420.078125 1703.476562 1418.085938 C 1723.632812 1409.726562 1664.570312 1362.109375 1605.390625 1362.109375 M 3703.007812 3521.09375 C 3654.960938 3522.265625 3611.914062 3552.8125 3597.539062 3599.375 L 3597.539062 3600.15625 C 3525.859375 3830.390625 3386.367188 4127.773438 3386.367188 4127.773438 C 3386.367188 4127.773438 3247.539062 4373.4375 3168.945312 4648.710938 C 3253.308594 4624.433594 3336.160156 4595.191406 3417.070312 4561.132812 C 3575.253906 4491.832031 3724.945312 4404.578125 3863.203125 4301.09375 C 3840.660156 4255.820312 3815.753906 4211.761719 3788.59375 4169.101562 C 3788.59375 4169.101562 3742.5 3964.492188 3654.335938 3741.5625 C 3667.773438 3704.605469 3680.277344 3667.3125 3691.835938 3629.726562 L 3692.460938 3626.992188 C 3695.195312 3621.796875 3701.054688 3619.804688 3707.734375 3619.804688 L 3708.359375 3619.804688 C 3754.453125 3626.992188 3803.085938 3634.296875 3859.726562 3640.859375 C 3876.796875 3642.226562 3894.492188 3643.4375 3912.1875 3645.429688 C 3934.023438 3647.421875 3955.078125 3649.414062 3976.757812 3650.78125 C 3981.914062 3857.695312 4071.796875 4055.585938 4094.53125 4102.734375 C 4260.214844 3939.632812 4399.570312 3751.796875 4507.617188 3545.9375 C 4347.695312 3564.296875 4152.070312 3570.351562 3921.796875 3547.5 C 3903.417969 3545.40625 3885.003906 3543.621094 3866.5625 3542.148438 C 3818.828125 3536.574219 3771.214844 3530.011719 3723.75 3522.460938 C 3716.890625 3521.390625 3709.949219 3520.933594 3703.007812 3521.09375 M 3703.007812 3521.09375 "/>
</svg>
