<?xml version="1.0" encoding="UTF-8"?>
<svg xmlns="http://www.w3.org/2000/svg" xmlns:xlink="http://www.w3.org/1999/xlink" width="1200" height="1200" viewBox="0 0 1200 1200">
<defs>
<linearGradient id="linear-pattern-0" gradientUnits="userSpaceOnUse" x1="244.822998" y1="-272.52301" x2="1115.339966" y2="-272.52301" gradientTransform="matrix(0.494762, 1.13511, -1.13511, 0.494762, -41.043702, -36.487146)">
<stop offset="0" stop-color="rgb(0%, 45.098039%, 63.137255%)" stop-opacity="1"/>
<stop offset="1" stop-color="rgb(0%, 20.784314%, 33.333333%)" stop-opacity="1"/>
</linearGradient>
</defs>
<path fill-rule="nonzero" fill="rgb(100%, 100%, 100%)" fill-opacity="1" d="M 1200 600 C 1200 931.386719 931.386719 1200 600 1200 C 268.613281 1200 0 931.386719 0 600 C 0 268.613281 268.613281 0 600 0 C 931.386719 0 1200 268.613281 1200 600 M 1200 600 "/>
<path fill-rule="nonzero" fill="url(#linear-pattern-0)" d="M 614.101562 61.742188 C 536.863281 60.414062 460.242188 75.699219 389.429688 106.566406 C 116.570312 225.515625 -8.242188 543.09375 110.71875 815.953125 C 211.351562 1045.273438 456.675781 1175.015625 702.84375 1129.210938 C 713.316406 1095.777344 721.921875 1059.085938 721.921875 1019.089844 C 721.921875 1013.429688 721.765625 1007.691406 721.453125 1001.878906 C 721.453125 1001.878906 740.710938 969.027344 755.867188 926.222656 C 774.65625 873.347656 764.726562 815.070312 732.214844 768.964844 C 730.304688 766.433594 728.398438 763.585938 726.355469 760.761719 C 534.824219 760.761719 440.082031 587.070312 416.101562 481.453125 C 406.132812 438.027344 398.082031 433.707031 370.941406 433.707031 C 320.773438 433.707031 284.597656 412.902344 284.597656 412.902344 C 238.519531 433.996094 217.902344 425.429688 224.089844 403.378906 C 204.027344 401.183594 204.46875 378.402344 216.65625 357.496094 C 231.964844 331.273438 263.25 313.433594 300.664062 313.433594 L 320.699219 313.433594 C 362.082031 313.433594 370.613281 291.796875 413.242188 296.371094 C 419.867188 297 426.019531 298.132812 431.738281 299.523438 C 443.558594 285.976562 456.964844 280.265625 473.230469 281.398438 C 475.761719 281.679688 477.367188 283.929688 476.886719 286.273438 L 472.929688 304.574219 C 471.507812 311.390625 473.410156 318.496094 478.273438 323.070312 C 512.699219 355.265625 532.445312 410.230469 554.558594 459.816406 C 590.417969 532.914062 676.914062 634.460938 815.710938 504.160156 C 913.304688 412.566406 972.261719 336.214844 1069.199219 328.714844 C 974.394531 166.492188 801.960938 65.339844 614.101562 61.742188 M 385.292969 326.90625 C 371.042969 326.90625 356.867188 338.335938 361.707031 340.351562 C 362.765625 340.820312 364.601562 341.117188 366.683594 341.382812 C 368.183594 350.457031 375.84375 357.488281 385.359375 357.488281 C 394.875 357.488281 402.394531 350.457031 403.855469 341.371094 C 405.945312 341.117188 407.773438 340.820312 408.835938 340.339844 C 413.671875 338.335938 399.496094 326.90625 385.292969 326.90625 M 888.722656 845.0625 C 877.191406 845.34375 866.859375 852.675781 863.410156 863.851562 L 863.410156 864.039062 C 846.207031 919.292969 812.726562 990.664062 812.726562 990.664062 C 812.726562 990.664062 779.410156 1049.625 760.546875 1115.691406 C 780.792969 1109.863281 800.679688 1102.847656 820.097656 1094.671875 C 858.0625 1078.039062 893.988281 1057.097656 927.167969 1032.261719 C 921.757812 1021.398438 915.78125 1010.824219 909.261719 1000.585938 C 909.261719 1000.585938 898.199219 951.476562 877.039062 897.976562 C 880.265625 889.105469 883.265625 880.15625 886.039062 871.132812 L 886.191406 870.476562 C 886.847656 869.230469 888.253906 868.753906 889.855469 868.753906 L 890.007812 868.753906 C 901.070312 870.476562 912.742188 872.230469 926.335938 873.804688 C 930.429688 874.132812 934.679688 874.425781 938.925781 874.902344 C 944.164062 875.382812 949.21875 875.859375 954.421875 876.1875 C 955.660156 925.847656 977.230469 973.339844 982.6875 984.65625 C 1022.453125 945.511719 1055.894531 900.429688 1081.828125 851.023438 C 1043.445312 855.429688 996.496094 856.882812 941.230469 851.398438 C 936.820312 850.898438 932.402344 850.46875 927.976562 850.117188 C 916.519531 848.777344 905.089844 847.203125 893.699219 845.390625 C 892.054688 845.132812 890.386719 845.023438 888.722656 845.0625 M 888.722656 845.0625 "/>
</svg>
