<?xml version="1.0" encoding="UTF-8"?>
<svg xmlns="http://www.w3.org/2000/svg" xmlns:xlink="http://www.w3.org/1999/xlink" width="2500" height="2500" viewBox="0 0 2500 2500">
<defs>
<linearGradient id="linear-pattern-0" gradientUnits="userSpaceOnUse" x1="244.822998" y1="-272.52301" x2="1115.339966" y2="-272.52301" gradientTransform="matrix(1.030753, 2.364812, -2.364812, 1.030753, -85.507713, -76.014887)">
<stop offset="0" stop-color="rgb(0%, 45.098039%, 63.137255%)" stop-opacity="1"/>
<stop offset="1" stop-color="rgb(0%, 20.784314%, 33.333333%)" stop-opacity="1"/>
</linearGradient>
</defs>
<path fill-rule="nonzero" fill="rgb(100%, 100%, 100%)" fill-opacity="1" d="M 2500 1250 C 2500 1940.390625 1940.390625 2500 1250 2500 C 559.609375 2500 0 1940.390625 0 1250 C 0 559.609375 559.609375 0 1250 0 C 1940.390625 0 2500 559.609375 2500 1250 M 2500 1250 "/>
<path fill-rule="nonzero" fill="url(#linear-pattern-0)" d="M 1279.375 128.632812 C 1118.464844 125.863281 958.835938 157.707031 811.308594 222.011719 C 242.851562 469.824219 -17.167969 1131.445312 230.664062 1699.902344 C 440.3125 2177.65625 951.40625 2447.949219 1464.257812 2352.519531 C 1486.074219 2282.871094 1504.003906 2206.425781 1504.003906 2123.105469 C 1504.003906 2111.308594 1503.679688 2099.355469 1503.027344 2087.246094 C 1503.027344 2087.246094 1543.144531 2018.808594 1574.726562 1929.628906 C 1613.867188 1819.472656 1593.183594 1698.066406 1525.449219 1602.011719 C 1521.464844 1596.738281 1517.5 1590.800781 1513.242188 1584.921875 C 1114.21875 1584.921875 916.835938 1223.066406 866.875 1003.027344 C 846.113281 912.558594 829.335938 903.554688 772.792969 903.554688 C 668.28125 903.554688 592.910156 860.214844 592.910156 860.214844 C 496.914062 904.160156 453.964844 886.308594 466.855469 840.371094 C 425.058594 835.800781 425.976562 788.339844 451.367188 744.785156 C 483.261719 690.15625 548.4375 652.988281 626.386719 652.988281 L 668.125 652.988281 C 754.335938 652.988281 772.109375 607.910156 860.917969 617.441406 C 874.726562 618.75 887.539062 621.113281 899.453125 624.003906 C 924.082031 595.78125 952.011719 583.886719 985.898438 586.25 C 991.171875 586.835938 994.511719 591.523438 993.515625 596.40625 L 985.273438 634.53125 C 982.304688 648.730469 986.269531 663.535156 996.40625 673.066406 C 1068.125 740.136719 1109.257812 854.648438 1155.332031 957.949219 C 1230.039062 1110.234375 1410.234375 1321.796875 1699.394531 1050.332031 C 1902.714844 859.511719 2025.546875 700.449219 2227.5 684.824219 C 2029.988281 346.859375 1670.75 136.121094 1279.375 128.632812 M 802.695312 681.054688 C 773.007812 681.054688 743.476562 704.863281 753.554688 709.0625 C 755.761719 710.039062 759.589844 710.664062 763.925781 711.210938 C 767.050781 730.117188 783.007812 744.765625 802.832031 744.765625 C 822.65625 744.765625 838.320312 730.117188 841.367188 711.191406 C 845.722656 710.664062 849.53125 710.039062 851.738281 709.042969 C 861.816406 704.863281 832.285156 681.054688 802.695312 681.054688 M 1851.503906 1760.546875 C 1827.480469 1761.132812 1805.957031 1776.40625 1798.769531 1799.6875 L 1798.769531 1800.078125 C 1762.929688 1915.195312 1693.183594 2063.886719 1693.183594 2063.886719 C 1693.183594 2063.886719 1623.769531 2186.71875 1584.472656 2324.355469 C 1626.652344 2312.21875 1668.082031 2297.59375 1708.535156 2280.566406 C 1787.625 2245.914062 1862.472656 2202.289062 1931.601562 2150.546875 C 1920.328125 2127.910156 1907.878906 2105.882812 1894.296875 2084.550781 C 1894.296875 2084.550781 1871.25 1982.246094 1827.167969 1870.78125 C 1833.886719 1852.300781 1840.136719 1833.65625 1845.917969 1814.863281 L 1846.230469 1813.496094 C 1847.597656 1810.898438 1850.527344 1809.902344 1853.867188 1809.902344 L 1854.179688 1809.902344 C 1877.226562 1813.496094 1901.542969 1817.148438 1929.863281 1820.429688 C 1938.398438 1821.113281 1947.246094 1821.71875 1956.09375 1822.714844 C 1967.011719 1823.710938 1977.539062 1824.707031 1988.378906 1825.390625 C 1990.957031 1928.847656 2035.898438 2027.792969 2047.265625 2051.367188 C 2130.105469 1969.816406 2199.785156 1875.898438 2253.808594 1772.96875 C 2173.847656 1782.148438 2076.035156 1785.175781 1960.898438 1773.75 C 1951.707031 1772.703125 1942.5 1771.808594 1933.28125 1771.074219 C 1909.414062 1768.285156 1885.605469 1765.003906 1861.875 1761.230469 C 1858.445312 1760.695312 1854.972656 1760.46875 1851.503906 1760.546875 M 1851.503906 1760.546875 "/>
</svg>
