<?xml version="1.0" encoding="UTF-8"?>
<svg xmlns="http://www.w3.org/2000/svg" xmlns:xlink="http://www.w3.org/1999/xlink" width="3000" height="3000" viewBox="0 0 3000 3000">
<defs>
<linearGradient id="linear-pattern-0" gradientUnits="userSpaceOnUse" x1="244.822998" y1="-272.52301" x2="1115.339966" y2="-272.52301" gradientTransform="matrix(1.236904, 2.837774, -2.837774, 1.236904, -102.609255, -91.217864)">
<stop offset="0" stop-color="rgb(0%, 45.098039%, 63.137255%)" stop-opacity="1"/>
<stop offset="1" stop-color="rgb(0%, 20.784314%, 33.333333%)" stop-opacity="1"/>
</linearGradient>
</defs>
<path fill-rule="nonzero" fill="rgb(100%, 100%, 100%)" fill-opacity="1" d="M 3000 1500 C 3000 2328.46875 2328.46875 3000 1500 3000 C 671.53125 3000 0 2328.46875 0 1500 C 0 671.53125 671.53125 0 1500 0 C 2328.46875 0 3000 671.53125 3000 1500 M 3000 1500 "/>
<path fill-rule="nonzero" fill="url(#linear-pattern-0)" d="M 1535.25 154.359375 C 1342.15625 151.035156 1150.605469 189.25 973.570312 266.414062 C 291.421875 563.789062 -20.601562 1357.734375 276.796875 2039.882812 C 528.375 2613.1875 1141.6875 2937.539062 1757.109375 2823.023438 C 1783.289062 2739.445312 1804.804688 2647.710938 1804.804688 2547.726562 C 1804.804688 2533.570312 1804.414062 2519.226562 1803.632812 2504.695312 C 1803.632812 2504.695312 1851.773438 2422.570312 1889.671875 2315.554688 C 1936.640625 2183.367188 1911.820312 2037.679688 1830.539062 1922.414062 C 1825.757812 1916.085938 1821 1908.960938 1815.890625 1901.90625 C 1337.0625 1901.90625 1100.203125 1467.679688 1040.25 1203.632812 C 1015.335938 1095.070312 995.203125 1084.265625 927.351562 1084.265625 C 801.9375 1084.265625 711.492188 1032.257812 711.492188 1032.257812 C 596.296875 1084.992188 544.757812 1063.570312 560.226562 1008.445312 C 510.070312 1002.960938 511.171875 946.007812 541.640625 893.742188 C 579.914062 828.1875 658.125 783.585938 751.664062 783.585938 L 801.75 783.585938 C 905.203125 783.585938 926.53125 729.492188 1033.101562 740.929688 C 1049.671875 742.5 1065.046875 745.335938 1079.34375 748.804688 C 1108.898438 714.9375 1142.414062 700.664062 1183.078125 703.5 C 1189.40625 704.203125 1193.414062 709.828125 1192.21875 715.6875 L 1182.328125 761.4375 C 1178.765625 778.476562 1183.523438 796.242188 1195.6875 807.679688 C 1281.75 888.164062 1331.109375 1025.578125 1386.398438 1149.539062 C 1476.046875 1332.28125 1692.28125 1586.15625 2039.273438 1260.398438 C 2283.257812 1031.414062 2430.65625 840.539062 2673 821.789062 C 2435.988281 416.230469 2004.902344 163.34375 1535.25 154.359375 M 963.234375 817.265625 C 927.609375 817.265625 892.171875 845.835938 904.265625 850.875 C 906.914062 852.046875 911.507812 852.796875 916.710938 853.453125 C 920.460938 876.140625 939.609375 893.71875 963.398438 893.71875 C 987.1875 893.71875 1005.984375 876.140625 1009.640625 853.429688 C 1014.867188 852.796875 1019.4375 852.046875 1022.085938 850.851562 C 1034.179688 845.835938 998.742188 817.265625 963.234375 817.265625 M 2221.804688 2112.65625 C 2192.976562 2113.359375 2167.148438 2131.6875 2158.523438 2159.625 L 2158.523438 2160.09375 C 2115.515625 2298.234375 2031.820312 2476.664062 2031.820312 2476.664062 C 2031.820312 2476.664062 1948.523438 2624.0625 1901.367188 2789.226562 C 1951.984375 2774.660156 2001.695312 2757.113281 2050.242188 2736.679688 C 2145.152344 2695.097656 2234.96875 2642.746094 2317.921875 2580.65625 C 2304.394531 2553.492188 2289.453125 2527.058594 2273.15625 2501.460938 C 2273.15625 2501.460938 2245.5 2378.695312 2192.601562 2244.9375 C 2200.664062 2222.761719 2208.164062 2200.386719 2215.101562 2177.835938 L 2215.476562 2176.195312 C 2217.117188 2173.078125 2220.632812 2171.882812 2224.640625 2171.882812 L 2225.015625 2171.882812 C 2252.671875 2176.195312 2281.851562 2180.578125 2315.835938 2184.515625 C 2326.078125 2185.335938 2336.695312 2186.0625 2347.3125 2187.257812 C 2360.414062 2188.453125 2373.046875 2189.648438 2386.054688 2190.46875 C 2389.148438 2314.617188 2443.078125 2433.351562 2456.71875 2461.640625 C 2556.128906 2363.78125 2639.742188 2251.078125 2704.570312 2127.5625 C 2608.617188 2138.578125 2491.242188 2142.210938 2353.078125 2128.5 C 2342.050781 2127.242188 2331 2126.171875 2319.9375 2125.289062 C 2291.296875 2121.945312 2262.726562 2118.007812 2234.25 2113.476562 C 2230.132812 2112.835938 2225.96875 2112.558594 2221.804688 2112.65625 M 2221.804688 2112.65625 "/>
</svg>
