<?xml version="1.0" encoding="UTF-8"?>
<svg xmlns="http://www.w3.org/2000/svg" xmlns:xlink="http://www.w3.org/1999/xlink" width="500" height="500" viewBox="0 0 500 500">
<defs>
<linearGradient id="linear-pattern-0" gradientUnits="userSpaceOnUse" x1="244.822998" y1="-272.52301" x2="1115.339966" y2="-272.52301" gradientTransform="matrix(0.206151, 0.472962, -0.472962, 0.206151, -17.101543, -15.202977)">
<stop offset="0" stop-color="rgb(0%, 45.098039%, 63.137255%)" stop-opacity="1"/>
<stop offset="1" stop-color="rgb(0%, 20.784314%, 33.333333%)" stop-opacity="1"/>
</linearGradient>
</defs>
<path fill-rule="nonzero" fill="rgb(100%, 100%, 100%)" fill-opacity="1" d="M 500 250 C 500 388.078125 388.078125 500 250 500 C 111.921875 500 0 388.078125 0 250 C 0 111.921875 111.921875 0 250 0 C 388.078125 0 500 111.921875 500 250 M 500 250 "/>
<path fill-rule="nonzero" fill="url(#linear-pattern-0)" d="M 255.875 25.726562 C 223.691406 25.171875 191.765625 31.542969 162.261719 44.402344 C 48.570312 93.964844 -3.433594 226.289062 46.132812 339.980469 C 88.0625 435.53125 190.28125 489.589844 292.851562 470.503906 C 297.214844 456.574219 300.800781 441.285156 300.800781 424.621094 C 300.800781 422.261719 300.734375 419.871094 300.605469 417.449219 C 300.605469 417.449219 308.628906 403.761719 314.945312 385.925781 C 322.773438 363.894531 318.636719 339.613281 305.089844 320.402344 C 304.292969 319.347656 303.5 318.160156 302.648438 316.984375 C 222.84375 316.984375 183.367188 244.613281 173.375 200.605469 C 169.222656 182.511719 165.867188 180.710938 154.558594 180.710938 C 133.65625 180.710938 118.582031 172.042969 118.582031 172.042969 C 99.382812 180.832031 90.792969 177.261719 93.371094 168.074219 C 85.011719 167.160156 85.195312 157.667969 90.273438 148.957031 C 96.652344 138.03125 109.6875 130.597656 125.277344 130.597656 L 133.625 130.597656 C 150.867188 130.597656 154.421875 121.582031 172.183594 123.488281 C 174.945312 123.75 177.507812 124.222656 179.890625 124.800781 C 184.816406 119.15625 190.402344 116.777344 197.179688 117.25 C 198.234375 117.367188 198.902344 118.304688 198.703125 119.28125 L 197.054688 126.90625 C 196.460938 129.746094 197.253906 132.707031 199.28125 134.613281 C 213.625 148.027344 221.851562 170.929688 231.066406 191.589844 C 246.007812 222.046875 282.046875 264.359375 339.878906 210.066406 C 380.542969 171.902344 405.109375 140.089844 445.5 136.964844 C 405.996094 69.371094 334.148438 27.222656 255.875 25.726562 M 160.539062 136.210938 C 154.601562 136.210938 148.695312 140.972656 150.710938 141.8125 C 151.152344 142.007812 151.917969 142.132812 152.785156 142.242188 C 153.410156 146.023438 156.601562 148.953125 160.566406 148.953125 C 164.53125 148.953125 167.664062 146.023438 168.273438 142.238281 C 169.144531 142.132812 169.90625 142.007812 170.347656 141.808594 C 172.363281 140.972656 166.457031 136.210938 160.539062 136.210938 M 370.300781 352.109375 C 365.496094 352.226562 361.191406 355.28125 359.753906 359.9375 L 359.753906 360.015625 C 352.585938 383.039062 338.636719 412.777344 338.636719 412.777344 C 338.636719 412.777344 324.753906 437.34375 316.894531 464.871094 C 325.332031 462.445312 333.617188 459.519531 341.707031 456.113281 C 357.523438 449.183594 372.496094 440.457031 386.320312 430.109375 C 384.066406 425.582031 381.574219 421.175781 378.859375 416.910156 C 378.859375 416.910156 374.25 396.449219 365.433594 374.15625 C 366.777344 370.460938 368.027344 366.730469 369.183594 362.972656 L 369.246094 362.699219 C 369.519531 362.179688 370.105469 361.980469 370.773438 361.980469 L 370.835938 361.980469 C 375.445312 362.699219 380.308594 363.429688 385.972656 364.085938 C 387.679688 364.222656 389.449219 364.34375 391.21875 364.542969 C 393.402344 364.742188 395.507812 364.941406 397.675781 365.078125 C 398.191406 385.769531 407.179688 405.558594 409.453125 410.273438 C 426.019531 393.964844 439.957031 375.179688 450.761719 354.59375 C 434.769531 356.429688 415.207031 357.035156 392.179688 354.75 C 390.339844 354.539062 388.5 354.363281 386.65625 354.214844 C 381.882812 353.65625 377.121094 353 372.375 352.246094 C 371.6875 352.140625 370.996094 352.09375 370.300781 352.109375 M 370.300781 352.109375 "/>
</svg>
