<?xml version="1.0" encoding="UTF-8"?>
<svg xmlns="http://www.w3.org/2000/svg" xmlns:xlink="http://www.w3.org/1999/xlink" width="1400" height="1400" viewBox="0 0 1400 1400">
<defs>
<linearGradient id="linear-pattern-0" gradientUnits="userSpaceOnUse" x1="244.822998" y1="-272.52301" x2="1115.339966" y2="-272.52301" gradientTransform="matrix(0.577222, 1.324295, -1.324295, 0.577222, -47.884319, -42.568336)">
<stop offset="0" stop-color="rgb(0%, 45.098039%, 63.137255%)" stop-opacity="1"/>
<stop offset="1" stop-color="rgb(0%, 20.784314%, 33.333333%)" stop-opacity="1"/>
</linearGradient>
</defs>
<path fill-rule="nonzero" fill="rgb(100%, 100%, 100%)" fill-opacity="1" d="M 1400 700 C 1400 1086.617188 1086.617188 1400 700 1400 C 313.382812 1400 0 1086.617188 0 700 C 0 313.382812 313.382812 0 700 0 C 1086.617188 0 1400 313.382812 1400 700 M 1400 700 "/>
<path fill-rule="nonzero" fill="url(#linear-pattern-0)" d="M 716.449219 72.035156 C 626.339844 70.484375 536.949219 88.316406 454.332031 124.328125 C 135.996094 263.101562 -9.613281 633.609375 129.171875 951.945312 C 246.574219 1219.488281 532.789062 1370.851562 819.984375 1317.410156 C 832.203125 1278.40625 842.242188 1235.597656 842.242188 1188.9375 C 842.242188 1182.332031 842.058594 1175.640625 841.695312 1168.859375 C 841.695312 1168.859375 864.160156 1130.53125 881.847656 1080.59375 C 903.765625 1018.90625 892.183594 950.917969 854.25 897.125 C 852.019531 894.171875 849.800781 890.847656 847.414062 887.554688 C 623.960938 887.554688 513.429688 684.917969 485.449219 561.695312 C 473.824219 511.03125 464.429688 505.992188 432.765625 505.992188 C 374.238281 505.992188 332.03125 481.71875 332.03125 481.71875 C 278.273438 506.328125 254.21875 496.332031 261.4375 470.609375 C 238.03125 468.046875 238.546875 441.46875 252.765625 417.078125 C 270.625 386.488281 307.125 365.671875 350.777344 365.671875 L 374.148438 365.671875 C 422.429688 365.671875 432.382812 340.429688 482.113281 345.765625 C 489.847656 346.5 497.023438 347.824219 503.695312 349.441406 C 517.484375 333.636719 533.125 326.976562 552.101562 328.300781 C 555.054688 328.628906 556.925781 331.253906 556.367188 333.988281 L 551.753906 355.335938 C 550.089844 363.289062 552.3125 371.578125 557.988281 376.917969 C 598.148438 414.476562 621.183594 478.601562 646.984375 536.453125 C 688.820312 621.730469 789.730469 740.207031 951.660156 588.1875 C 1065.519531 481.328125 1134.304688 392.25 1247.398438 383.5 C 1136.792969 194.242188 935.621094 76.226562 716.449219 72.035156 M 449.507812 381.390625 C 432.882812 381.390625 416.347656 394.722656 421.992188 397.074219 C 423.226562 397.621094 425.371094 397.972656 427.796875 398.277344 C 429.546875 408.867188 438.484375 417.070312 449.585938 417.070312 C 460.6875 417.070312 469.460938 408.867188 471.164062 398.265625 C 473.605469 397.972656 475.738281 397.621094 476.972656 397.0625 C 482.617188 394.722656 466.078125 381.390625 449.507812 381.390625 M 1036.84375 985.90625 C 1023.390625 986.234375 1011.335938 994.789062 1007.3125 1007.824219 L 1007.3125 1008.042969 C 987.242188 1072.507812 948.183594 1155.777344 948.183594 1155.777344 C 948.183594 1155.777344 909.3125 1224.5625 887.304688 1301.640625 C 910.925781 1294.84375 934.125 1286.652344 956.78125 1277.117188 C 1001.070312 1257.710938 1042.984375 1233.28125 1081.695312 1204.304688 C 1075.382812 1191.628906 1068.410156 1179.292969 1060.804688 1167.347656 C 1060.804688 1167.347656 1047.898438 1110.058594 1023.214844 1047.636719 C 1026.976562 1037.289062 1030.476562 1026.847656 1033.714844 1016.324219 L 1033.890625 1015.558594 C 1034.65625 1014.101562 1036.296875 1013.546875 1038.164062 1013.546875 L 1038.339844 1013.546875 C 1051.246094 1015.558594 1064.863281 1017.601562 1080.722656 1019.441406 C 1085.503906 1019.824219 1090.457031 1020.164062 1095.414062 1020.71875 C 1101.527344 1021.277344 1107.421875 1021.835938 1113.492188 1022.21875 C 1114.9375 1080.15625 1140.101562 1135.5625 1146.46875 1148.765625 C 1192.859375 1103.097656 1231.878906 1050.503906 1262.132812 992.863281 C 1217.355469 998.003906 1162.578125 999.699219 1098.101562 993.300781 C 1092.957031 992.714844 1087.800781 992.214844 1082.636719 991.800781 C 1069.273438 990.242188 1055.941406 988.402344 1042.648438 986.289062 C 1040.730469 985.988281 1038.785156 985.863281 1036.84375 985.90625 M 1036.84375 985.90625 "/>
</svg>
