<?xml version="1.0" encoding="UTF-8"?>
<svg xmlns="http://www.w3.org/2000/svg" xmlns:xlink="http://www.w3.org/1999/xlink" width="1700" height="1700" viewBox="0 0 1700 1700">
<defs>
<linearGradient id="linear-pattern-0" gradientUnits="userSpaceOnUse" x1="244.822998" y1="-272.52301" x2="1115.339966" y2="-272.52301" gradientTransform="matrix(0.700912, 1.608072, -1.608072, 0.700912, -58.145245, -51.690123)">
<stop offset="0" stop-color="rgb(0%, 45.098039%, 63.137255%)" stop-opacity="1"/>
<stop offset="1" stop-color="rgb(0%, 20.784314%, 33.333333%)" stop-opacity="1"/>
</linearGradient>
</defs>
<path fill-rule="nonzero" fill="rgb(100%, 100%, 100%)" fill-opacity="1" d="M 1700 850 C 1700 1319.464844 1319.464844 1700 850 1700 C 380.535156 1700 0 1319.464844 0 850 C 0 380.535156 380.535156 0 850 0 C 1319.464844 0 1700 380.535156 1700 850 M 1700 850 "/>
<path fill-rule="nonzero" fill="url(#linear-pattern-0)" d="M 869.976562 87.46875 C 760.554688 85.585938 652.007812 107.242188 551.691406 150.96875 C 165.140625 319.480469 -11.675781 769.382812 156.851562 1155.933594 C 299.414062 1480.804688 646.957031 1664.605469 995.695312 1599.714844 C 1010.53125 1552.351562 1022.722656 1500.371094 1022.722656 1443.710938 C 1022.722656 1435.691406 1022.5 1427.5625 1022.058594 1419.328125 C 1022.058594 1419.328125 1049.339844 1372.789062 1070.8125 1312.148438 C 1097.429688 1237.242188 1083.363281 1154.683594 1037.304688 1089.367188 C 1034.597656 1085.78125 1031.898438 1081.746094 1029.003906 1077.746094 C 757.667969 1077.746094 623.449219 831.683594 589.476562 682.058594 C 575.355469 620.539062 563.949219 614.417969 525.5 614.417969 C 454.429688 614.417969 403.179688 584.945312 403.179688 584.945312 C 337.902344 614.828125 308.695312 602.691406 317.460938 571.453125 C 289.039062 568.34375 289.664062 536.070312 306.929688 506.453125 C 328.617188 469.304688 372.9375 444.03125 425.941406 444.03125 L 454.324219 444.03125 C 512.949219 444.03125 525.035156 413.378906 585.425781 419.859375 C 594.8125 420.75 603.527344 422.355469 611.628906 424.324219 C 628.375 405.132812 647.367188 397.042969 670.410156 398.648438 C 673.996094 399.046875 676.269531 402.234375 675.589844 405.554688 L 669.984375 431.480469 C 667.96875 441.136719 670.664062 451.203125 677.554688 457.683594 C 726.324219 503.292969 754.296875 581.160156 785.625 651.40625 C 836.425781 754.960938 958.960938 898.820312 1155.589844 714.226562 C 1293.847656 584.46875 1377.371094 476.304688 1514.699219 465.679688 C 1380.394531 235.863281 1136.109375 92.5625 869.976562 87.46875 M 545.832031 463.117188 C 525.644531 463.117188 505.5625 479.308594 512.417969 482.164062 C 513.917969 482.828125 516.519531 483.25 519.46875 483.625 C 521.59375 496.480469 532.445312 506.441406 545.925781 506.441406 C 559.40625 506.441406 570.058594 496.480469 572.128906 483.609375 C 575.089844 483.25 577.679688 482.828125 579.183594 482.148438 C 586.035156 479.308594 565.953125 463.117188 545.832031 463.117188 M 1259.023438 1197.171875 C 1242.6875 1197.570312 1228.050781 1207.957031 1223.164062 1223.789062 L 1223.164062 1224.054688 C 1198.792969 1302.332031 1151.363281 1403.441406 1151.363281 1403.441406 C 1151.363281 1403.441406 1104.164062 1486.96875 1077.441406 1580.5625 C 1106.125 1572.308594 1134.292969 1562.363281 1161.804688 1550.785156 C 1215.585938 1527.222656 1266.480469 1497.558594 1313.488281 1462.371094 C 1305.824219 1446.980469 1297.355469 1432 1288.121094 1417.496094 C 1288.121094 1417.496094 1272.449219 1347.925781 1242.472656 1272.132812 C 1247.042969 1259.566406 1251.292969 1246.886719 1255.222656 1234.105469 L 1255.4375 1233.175781 C 1256.367188 1231.410156 1258.359375 1230.734375 1260.628906 1230.734375 L 1260.84375 1230.734375 C 1276.515625 1233.175781 1293.050781 1235.660156 1312.308594 1237.890625 C 1318.109375 1238.355469 1324.128906 1238.769531 1330.144531 1239.445312 C 1337.566406 1240.125 1344.726562 1240.800781 1352.097656 1241.265625 C 1353.851562 1311.617188 1384.410156 1378.898438 1392.140625 1394.929688 C 1448.472656 1339.476562 1495.851562 1275.609375 1532.589844 1205.617188 C 1478.214844 1211.859375 1411.703125 1213.917969 1333.410156 1206.148438 C 1327.160156 1205.4375 1320.902344 1204.832031 1314.632812 1204.332031 C 1298.402344 1202.433594 1282.210938 1200.203125 1266.074219 1197.636719 C 1263.742188 1197.273438 1261.382812 1197.117188 1259.023438 1197.171875 M 1259.023438 1197.171875 "/>
</svg>
