<?xml version="1.0" encoding="UTF-8"?>
<svg xmlns="http://www.w3.org/2000/svg" xmlns:xlink="http://www.w3.org/1999/xlink" width="1500" height="1500" viewBox="0 0 1500 1500">
<defs>
<linearGradient id="linear-pattern-0" gradientUnits="userSpaceOnUse" x1="244.822998" y1="-272.52301" x2="1115.339966" y2="-272.52301" gradientTransform="matrix(0.618452, 1.418887, -1.418887, 0.618452, -51.304628, -45.608932)">
<stop offset="0" stop-color="rgb(0%, 45.098039%, 63.137255%)" stop-opacity="1"/>
<stop offset="1" stop-color="rgb(0%, 20.784314%, 33.333333%)" stop-opacity="1"/>
</linearGradient>
</defs>
<path fill-rule="nonzero" fill="rgb(100%, 100%, 100%)" fill-opacity="1" d="M 1500 750 C 1500 1164.234375 1164.234375 1500 750 1500 C 335.765625 1500 0 1164.234375 0 750 C 0 335.765625 335.765625 0 750 0 C 1164.234375 0 1500 335.765625 1500 750 M 1500 750 "/>
<path fill-rule="nonzero" fill="url(#linear-pattern-0)" d="M 767.625 77.179688 C 671.078125 75.515625 575.300781 94.625 486.785156 133.207031 C 145.710938 281.894531 -10.300781 678.867188 138.398438 1019.941406 C 264.1875 1306.59375 570.84375 1468.769531 878.554688 1411.511719 C 891.644531 1369.722656 902.402344 1323.855469 902.402344 1273.863281 C 902.402344 1266.785156 902.207031 1259.613281 901.816406 1252.347656 C 901.816406 1252.347656 925.886719 1211.285156 944.835938 1157.777344 C 968.320312 1091.683594 955.910156 1018.839844 915.269531 961.207031 C 912.878906 958.042969 910.5 954.480469 907.945312 950.953125 C 668.53125 950.953125 550.101562 733.839844 520.125 601.816406 C 507.667969 547.535156 497.601562 542.132812 463.675781 542.132812 C 400.96875 542.132812 355.746094 516.128906 355.746094 516.128906 C 298.148438 542.496094 272.378906 531.785156 280.113281 504.222656 C 255.035156 501.480469 255.585938 473.003906 270.820312 446.871094 C 289.957031 414.09375 329.0625 391.792969 375.832031 391.792969 L 400.875 391.792969 C 452.601562 391.792969 463.265625 364.746094 516.550781 370.464844 C 524.835938 371.25 532.523438 372.667969 539.671875 374.402344 C 554.449219 357.46875 571.207031 350.332031 591.539062 351.75 C 594.703125 352.101562 596.707031 354.914062 596.109375 357.84375 L 591.164062 380.71875 C 589.382812 389.238281 591.761719 398.121094 597.84375 403.839844 C 640.875 444.082031 665.554688 512.789062 693.199219 574.769531 C 738.023438 666.140625 846.140625 793.078125 1019.636719 630.199219 C 1141.628906 515.707031 1215.328125 420.269531 1336.5 410.894531 C 1217.992188 208.113281 1002.449219 81.671875 767.625 77.179688 M 481.617188 408.632812 C 463.804688 408.632812 446.085938 422.917969 452.132812 425.4375 C 453.457031 426.023438 455.753906 426.398438 458.355469 426.726562 C 460.230469 438.070312 469.804688 446.859375 481.699219 446.859375 C 493.59375 446.859375 502.992188 438.070312 504.820312 426.714844 C 507.433594 426.398438 509.71875 426.023438 511.042969 425.425781 C 517.089844 422.917969 499.371094 408.632812 481.617188 408.632812 M 1110.902344 1056.328125 C 1096.488281 1056.679688 1083.574219 1065.84375 1079.261719 1079.8125 L 1079.261719 1080.046875 C 1057.757812 1149.117188 1015.910156 1238.332031 1015.910156 1238.332031 C 1015.910156 1238.332031 974.261719 1312.03125 950.683594 1394.613281 C 975.992188 1387.332031 1000.847656 1378.558594 1025.121094 1368.339844 C 1072.574219 1347.550781 1117.484375 1321.375 1158.960938 1290.328125 C 1152.199219 1276.746094 1144.726562 1263.527344 1136.578125 1250.730469 C 1136.578125 1250.730469 1122.75 1189.347656 1096.300781 1122.46875 C 1100.332031 1111.382812 1104.082031 1100.195312 1107.550781 1088.917969 L 1107.738281 1088.097656 C 1108.558594 1086.539062 1110.316406 1085.941406 1112.320312 1085.941406 L 1112.507812 1085.941406 C 1126.335938 1088.097656 1140.925781 1090.289062 1157.917969 1092.257812 C 1163.039062 1092.667969 1168.347656 1093.03125 1173.65625 1093.628906 C 1180.207031 1094.226562 1186.523438 1094.824219 1193.027344 1095.234375 C 1194.574219 1157.308594 1221.539062 1216.675781 1228.359375 1230.820312 C 1278.0625 1181.890625 1319.871094 1125.539062 1352.285156 1063.78125 C 1304.308594 1069.289062 1245.621094 1071.105469 1176.539062 1064.25 C 1171.023438 1063.621094 1165.5 1063.085938 1159.96875 1062.644531 C 1145.648438 1060.972656 1131.363281 1059.003906 1117.125 1056.738281 C 1115.066406 1056.417969 1112.984375 1056.28125 1110.902344 1056.328125 M 1110.902344 1056.328125 "/>
</svg>
