<?xml version="1.0" encoding="UTF-8"?>
<svg xmlns="http://www.w3.org/2000/svg" xmlns:xlink="http://www.w3.org/1999/xlink" width="2750" height="2750" viewBox="0 0 2750 2750">
<defs>
<linearGradient id="linear-pattern-0" gradientUnits="userSpaceOnUse" x1="244.822998" y1="-272.52301" x2="1115.339966" y2="-272.52301" gradientTransform="matrix(1.133829, 2.601293, -2.601293, 1.133829, -94.058484, -83.616375)">
<stop offset="0" stop-color="rgb(0%, 45.098039%, 63.137255%)" stop-opacity="1"/>
<stop offset="1" stop-color="rgb(0%, 20.784314%, 33.333333%)" stop-opacity="1"/>
</linearGradient>
</defs>
<path fill-rule="nonzero" fill="rgb(100%, 100%, 100%)" fill-opacity="1" d="M 2750 1375 C 2750 2134.429688 2134.429688 2750 1375 2750 C 615.570312 2750 0 2134.429688 0 1375 C 0 615.570312 615.570312 0 1375 0 C 2134.429688 0 2750 615.570312 2750 1375 M 2750 1375 "/>
<path fill-rule="nonzero" fill="url(#linear-pattern-0)" d="M 1407.3125 141.496094 C 1230.3125 138.449219 1054.722656 173.476562 892.4375 244.210938 C 267.136719 516.804688 -18.882812 1244.589844 253.730469 1869.890625 C 484.34375 2395.421875 1046.546875 2692.742188 1610.683594 2587.773438 C 1634.679688 2511.15625 1654.40625 2427.070312 1654.40625 2335.414062 C 1654.40625 2322.4375 1654.046875 2309.289062 1653.328125 2295.96875 C 1653.328125 2295.96875 1697.460938 2220.6875 1732.199219 2122.59375 C 1775.253906 2001.421875 1752.5 1867.875 1677.996094 1762.210938 C 1673.613281 1756.414062 1669.25 1749.882812 1664.566406 1743.414062 C 1225.640625 1743.414062 1008.519531 1345.375 953.5625 1103.328125 C 930.726562 1003.8125 912.269531 993.910156 850.074219 993.910156 C 735.109375 993.910156 652.203125 946.234375 652.203125 946.234375 C 546.605469 994.578125 499.363281 974.9375 513.542969 924.40625 C 467.566406 919.382812 468.574219 867.171875 496.503906 819.265625 C 531.589844 759.171875 603.28125 718.289062 689.027344 718.289062 L 734.9375 718.289062 C 829.769531 718.289062 849.320312 668.703125 947.011719 679.1875 C 962.199219 680.625 976.292969 683.226562 989.398438 686.40625 C 1016.492188 655.359375 1047.214844 642.273438 1084.488281 644.875 C 1090.289062 645.519531 1093.964844 650.675781 1092.867188 656.046875 L 1083.800781 697.984375 C 1080.535156 713.601562 1084.898438 729.890625 1096.046875 740.375 C 1174.9375 814.148438 1220.183594 940.113281 1270.867188 1053.742188 C 1353.042969 1221.257812 1551.257812 1453.976562 1869.335938 1155.367188 C 2092.988281 945.464844 2228.101562 770.492188 2450.25 753.304688 C 2232.988281 381.542969 1837.828125 149.734375 1407.3125 141.496094 M 882.964844 749.160156 C 850.308594 749.160156 817.824219 775.351562 828.910156 779.96875 C 831.335938 781.042969 835.546875 781.730469 840.320312 782.332031 C 843.753906 803.128906 861.308594 819.242188 883.113281 819.242188 C 904.921875 819.242188 922.152344 803.128906 925.503906 782.308594 C 930.292969 781.730469 934.484375 781.042969 936.910156 779.945312 C 947.996094 775.347656 915.511719 749.160156 882.964844 749.160156 M 2036.65625 1936.601562 C 2010.226562 1937.246094 1986.554688 1954.046875 1978.644531 1979.65625 L 1978.644531 1980.085938 C 1939.222656 2106.714844 1862.5 2270.273438 1862.5 2270.273438 C 1862.5 2270.273438 1786.144531 2405.390625 1742.917969 2556.789062 C 1789.320312 2543.4375 1834.886719 2527.355469 1879.386719 2508.625 C 1966.390625 2470.507812 2048.71875 2422.519531 2124.761719 2365.601562 C 2112.363281 2340.703125 2098.664062 2316.46875 2083.726562 2293.007812 C 2083.726562 2293.003906 2058.375 2180.46875 2009.882812 2057.859375 C 2017.273438 2037.53125 2024.152344 2017.023438 2030.507812 1996.351562 L 2030.851562 1994.84375 C 2032.355469 1991.988281 2035.578125 1990.890625 2039.253906 1990.890625 L 2039.597656 1990.890625 C 2064.949219 1994.84375 2091.695312 1998.863281 2122.851562 2002.472656 C 2132.238281 2003.226562 2141.972656 2003.890625 2151.703125 2004.988281 C 2163.714844 2006.082031 2175.292969 2007.179688 2187.21875 2007.929688 C 2190.054688 2121.734375 2239.488281 2230.570312 2251.992188 2256.503906 C 2343.117188 2166.796875 2419.761719 2063.488281 2479.1875 1950.265625 C 2391.234375 1960.363281 2283.640625 1963.695312 2156.988281 1951.125 C 2146.878906 1949.972656 2136.75 1948.992188 2126.609375 1948.179688 C 2100.355469 1945.117188 2074.167969 1941.503906 2048.0625 1937.355469 C 2044.289062 1936.765625 2040.472656 1936.515625 2036.65625 1936.601562 M 2036.65625 1936.601562 "/>
</svg>
