<?xml version="1.0" encoding="UTF-8"?>
<svg xmlns="http://www.w3.org/2000/svg" xmlns:xlink="http://www.w3.org/1999/xlink" width="200" height="200" viewBox="0 0 200 200">
<defs>
<linearGradient id="linear-pattern-0" gradientUnits="userSpaceOnUse" x1="244.822998" y1="-272.52301" x2="1115.339966" y2="-272.52301" gradientTransform="matrix(0.0824603, 0.189185, -0.189185, 0.0824603, -6.840617, -6.081191)">
<stop offset="0" stop-color="rgb(0%, 45.098039%, 63.137255%)" stop-opacity="1"/>
<stop offset="1" stop-color="rgb(0%, 20.784314%, 33.333333%)" stop-opacity="1"/>
</linearGradient>
</defs>
<path fill-rule="nonzero" fill="rgb(100%, 100%, 100%)" fill-opacity="1" d="M 200 100 C 200 155.230469 155.230469 200 100 200 C 44.769531 200 0 155.230469 0 100 C 0 44.769531 44.769531 0 100 0 C 155.230469 0 200 44.769531 200 100 M 200 100 "/>
<path fill-rule="nonzero" fill="url(#linear-pattern-0)" d="M 102.351562 10.289062 C 89.476562 10.070312 76.707031 12.617188 64.90625 17.761719 C 19.429688 37.585938 -1.375 90.515625 18.453125 135.992188 C 35.226562 174.210938 76.113281 195.835938 117.140625 188.203125 C 118.886719 182.628906 120.320312 176.515625 120.320312 169.847656 C 120.320312 168.90625 120.292969 167.949219 120.242188 166.980469 C 120.242188 166.980469 123.453125 161.503906 125.976562 154.371094 C 129.109375 145.558594 127.453125 135.84375 122.035156 128.160156 C 121.71875 127.738281 121.398438 127.265625 121.058594 126.792969 C 89.136719 126.792969 73.347656 97.84375 69.351562 80.242188 C 67.6875 73.003906 66.347656 72.285156 61.824219 72.285156 C 53.460938 72.285156 47.433594 68.816406 47.433594 68.816406 C 39.753906 72.332031 36.316406 70.90625 37.347656 67.230469 C 34.003906 66.863281 34.078125 63.066406 36.109375 59.582031 C 38.660156 55.210938 43.875 52.238281 50.109375 52.238281 L 53.449219 52.238281 C 60.347656 52.238281 61.769531 48.632812 68.875 49.394531 C 69.976562 49.5 71.003906 49.6875 71.957031 49.921875 C 73.925781 47.664062 76.160156 46.710938 78.871094 46.898438 C 79.292969 46.945312 79.5625 47.320312 79.480469 47.710938 L 78.820312 50.761719 C 78.585938 51.898438 78.902344 53.082031 79.710938 53.84375 C 85.449219 59.210938 88.742188 68.371094 92.425781 76.636719 C 98.402344 88.820312 112.820312 105.742188 135.953125 84.027344 C 152.21875 68.761719 162.042969 56.035156 178.199219 54.785156 C 162.398438 27.75 133.660156 10.890625 102.351562 10.289062 M 64.214844 54.484375 C 61.839844 54.484375 59.476562 56.390625 60.285156 56.726562 C 60.460938 56.804688 60.765625 56.851562 61.113281 56.898438 C 61.363281 58.410156 62.640625 59.582031 64.226562 59.582031 C 65.8125 59.582031 67.066406 58.410156 67.308594 56.894531 C 67.65625 56.851562 67.960938 56.804688 68.140625 56.722656 C 68.945312 56.390625 66.582031 54.484375 64.214844 54.484375 M 148.121094 140.84375 C 146.199219 140.890625 144.476562 142.113281 143.902344 143.976562 L 143.902344 144.007812 C 141.035156 153.214844 135.453125 165.109375 135.453125 165.109375 C 135.453125 165.109375 129.902344 174.9375 126.757812 185.949219 C 130.132812 184.976562 133.445312 183.808594 136.683594 182.445312 C 143.011719 179.671875 148.996094 176.183594 154.527344 172.042969 C 153.625 170.234375 152.628906 168.46875 151.542969 166.765625 C 151.542969 166.765625 149.699219 158.578125 146.171875 149.664062 C 146.710938 148.183594 147.210938 146.691406 147.671875 145.1875 L 147.699219 145.078125 C 147.808594 144.871094 148.042969 144.792969 148.308594 144.792969 L 148.335938 144.792969 C 150.179688 145.078125 152.125 145.371094 154.390625 145.632812 C 155.070312 145.6875 155.78125 145.738281 156.488281 145.816406 C 157.359375 145.898438 158.203125 145.976562 159.070312 146.03125 C 159.277344 154.308594 162.871094 162.222656 163.78125 164.109375 C 170.410156 157.585938 175.984375 150.070312 180.304688 141.835938 C 173.90625 142.570312 166.082031 142.8125 156.871094 141.898438 C 156.136719 141.816406 155.398438 141.746094 154.664062 141.6875 C 152.753906 141.464844 150.847656 141.199219 148.949219 140.898438 C 148.675781 140.855469 148.398438 140.835938 148.121094 140.84375 M 148.121094 140.84375 "/>
</svg>
