<?xml version="1.0" encoding="UTF-8"?>
<svg xmlns="http://www.w3.org/2000/svg" xmlns:xlink="http://www.w3.org/1999/xlink" width="3500" height="3500" viewBox="0 0 3500 3500">
<defs>
<linearGradient id="linear-pattern-0" gradientUnits="userSpaceOnUse" x1="244.822998" y1="-272.52301" x2="1115.339966" y2="-272.52301" gradientTransform="matrix(1.443055, 3.310737, -3.310737, 1.443055, -119.710798, -106.420841)">
<stop offset="0" stop-color="rgb(0%, 45.098039%, 63.137255%)" stop-opacity="1"/>
<stop offset="1" stop-color="rgb(0%, 20.784314%, 33.333333%)" stop-opacity="1"/>
</linearGradient>
</defs>
<path fill-rule="nonzero" fill="rgb(100%, 100%, 100%)" fill-opacity="1" d="M 3500 1750 C 3500 2716.546875 2716.546875 3500 1750 3500 C 783.453125 3500 0 2716.546875 0 1750 C 0 783.453125 783.453125 0 1750 0 C 2716.546875 0 3500 783.453125 3500 1750 M 3500 1750 "/>
<path fill-rule="nonzero" fill="url(#linear-pattern-0)" d="M 1791.125 180.085938 C 1565.851562 176.207031 1342.371094 220.789062 1135.832031 310.816406 C 339.992188 657.753906 -24.035156 1584.023438 322.929688 2379.863281 C 616.4375 3048.71875 1331.96875 3427.128906 2049.960938 3293.527344 C 2080.503906 3196.019531 2105.605469 3088.996094 2105.605469 2972.347656 C 2105.605469 2955.832031 2105.148438 2939.097656 2104.238281 2922.144531 C 2104.238281 2922.144531 2160.402344 2826.332031 2204.617188 2701.480469 C 2259.414062 2547.261719 2230.457031 2377.292969 2135.628906 2242.816406 C 2130.050781 2235.433594 2124.5 2227.121094 2118.539062 2218.890625 C 1559.90625 2218.890625 1283.570312 1712.292969 1213.625 1404.238281 C 1184.558594 1277.582031 1161.070312 1264.976562 1081.910156 1264.976562 C 935.59375 1264.976562 830.074219 1204.300781 830.074219 1204.300781 C 695.679688 1265.824219 635.550781 1240.832031 653.597656 1176.519531 C 595.082031 1170.121094 596.367188 1103.675781 631.914062 1042.699219 C 676.566406 966.21875 767.8125 914.183594 876.941406 914.183594 L 935.375 914.183594 C 1056.070312 914.183594 1080.953125 851.074219 1205.285156 864.417969 C 1224.617188 866.25 1242.554688 869.558594 1259.234375 873.605469 C 1293.714844 834.09375 1332.816406 817.441406 1380.257812 820.75 C 1387.640625 821.570312 1392.316406 828.132812 1390.921875 834.96875 L 1379.382812 888.34375 C 1375.226562 908.222656 1380.777344 928.949219 1394.96875 942.292969 C 1495.375 1036.191406 1552.960938 1196.507812 1617.464844 1341.128906 C 1722.054688 1554.328125 1974.328125 1850.515625 2379.152344 1470.464844 C 2663.800781 1203.316406 2835.765625 980.628906 3118.5 958.753906 C 2841.984375 485.601562 2339.050781 190.570312 1791.125 180.085938 M 1123.773438 953.476562 C 1082.210938 953.476562 1040.867188 986.808594 1054.976562 992.6875 C 1058.066406 994.054688 1063.425781 994.929688 1069.496094 995.695312 C 1073.871094 1022.164062 1096.210938 1042.671875 1123.964844 1042.671875 C 1151.71875 1042.671875 1173.648438 1022.164062 1177.914062 995.667969 C 1184.011719 994.929688 1189.34375 994.054688 1192.433594 992.660156 C 1206.542969 986.808594 1165.199219 953.476562 1123.773438 953.476562 M 2592.105469 2464.765625 C 2558.472656 2465.585938 2528.339844 2486.96875 2518.277344 2519.5625 L 2518.277344 2520.109375 C 2468.101562 2681.273438 2370.457031 2889.441406 2370.457031 2889.441406 C 2370.457031 2889.441406 2273.277344 3061.40625 2218.261719 3254.097656 C 2277.316406 3237.105469 2335.3125 3216.632812 2391.949219 3192.792969 C 2502.675781 3144.28125 2607.460938 3083.207031 2704.242188 3010.765625 C 2688.460938 2979.074219 2671.027344 2948.234375 2652.015625 2918.371094 C 2652.015625 2918.371094 2619.75 2775.144531 2558.035156 2619.09375 C 2567.441406 2593.222656 2576.191406 2567.121094 2584.285156 2540.808594 L 2584.722656 2538.894531 C 2586.636719 2535.257812 2590.738281 2533.863281 2595.414062 2533.863281 L 2595.851562 2533.863281 C 2628.117188 2538.894531 2662.160156 2544.007812 2701.808594 2548.601562 C 2713.757812 2549.558594 2726.144531 2550.40625 2738.53125 2551.800781 C 2753.816406 2553.195312 2768.554688 2554.589844 2783.730469 2555.546875 C 2787.339844 2700.386719 2850.257812 2838.910156 2866.171875 2871.914062 C 2982.148438 2757.742188 3079.699219 2626.257812 3155.332031 2482.15625 C 3043.386719 2495.007812 2906.449219 2499.246094 2745.257812 2483.25 C 2732.390625 2481.785156 2719.503906 2480.535156 2706.59375 2479.503906 C 2673.179688 2475.601562 2639.847656 2471.007812 2606.625 2465.722656 C 2601.824219 2464.972656 2596.964844 2464.652344 2592.105469 2464.765625 M 2592.105469 2464.765625 "/>
</svg>
