<?xml version="1.0" encoding="UTF-8"?>
<svg xmlns="http://www.w3.org/2000/svg" xmlns:xlink="http://www.w3.org/1999/xlink" width="1000" height="1000" viewBox="0 0 1000 1000">
<defs>
<linearGradient id="linear-pattern-0" gradientUnits="userSpaceOnUse" x1="244.822998" y1="-272.52301" x2="1115.339966" y2="-272.52301" gradientTransform="matrix(0.412301, 0.945925, -0.945925, 0.412301, -34.203085, -30.405955)">
<stop offset="0" stop-color="rgb(0%, 45.098039%, 63.137255%)" stop-opacity="1"/>
<stop offset="1" stop-color="rgb(0%, 20.784314%, 33.333333%)" stop-opacity="1"/>
</linearGradient>
</defs>
<path fill-rule="nonzero" fill="rgb(100%, 100%, 100%)" fill-opacity="1" d="M 1000 500 C 1000 776.15625 776.15625 1000 500 1000 C 223.84375 1000 0 776.15625 0 500 C 0 223.84375 223.84375 0 500 0 C 776.15625 0 1000 223.84375 1000 500 M 1000 500 "/>
<path fill-rule="nonzero" fill="url(#linear-pattern-0)" d="M 511.75 51.453125 C 447.386719 50.34375 383.535156 63.082031 324.523438 88.804688 C 97.140625 187.929688 -6.867188 452.578125 92.265625 679.960938 C 176.125 871.0625 380.5625 979.179688 585.703125 941.007812 C 594.429688 913.148438 601.601562 882.570312 601.601562 849.242188 C 601.601562 844.523438 601.472656 839.742188 601.210938 834.898438 C 601.210938 834.898438 617.257812 807.523438 629.890625 771.851562 C 645.546875 727.789062 637.273438 679.226562 610.179688 640.804688 C 608.585938 638.695312 607 636.320312 605.296875 633.96875 C 445.6875 633.96875 366.734375 489.226562 346.75 401.210938 C 338.445312 365.023438 331.734375 361.421875 309.117188 361.421875 C 267.3125 361.421875 237.164062 344.085938 237.164062 344.085938 C 198.765625 361.664062 181.585938 354.523438 186.742188 336.148438 C 170.023438 334.320312 170.390625 315.335938 180.546875 297.914062 C 193.304688 276.0625 219.375 261.195312 250.554688 261.195312 L 267.25 261.195312 C 301.734375 261.195312 308.84375 243.164062 344.367188 246.976562 C 349.890625 247.5 355.015625 248.445312 359.78125 249.601562 C 369.632812 238.3125 380.804688 233.554688 394.359375 234.5 C 396.46875 234.734375 397.804688 236.609375 397.40625 238.5625 L 394.109375 253.8125 C 392.921875 259.492188 394.507812 265.414062 398.5625 269.226562 C 427.25 296.054688 443.703125 341.859375 462.132812 383.179688 C 492.015625 444.09375 564.09375 528.71875 679.757812 420.132812 C 761.085938 343.804688 810.21875 280.179688 891 273.929688 C 811.996094 138.742188 668.300781 54.449219 511.75 51.453125 M 321.078125 272.421875 C 309.203125 272.421875 297.390625 281.945312 301.421875 283.625 C 302.304688 284.015625 303.835938 284.265625 305.570312 284.484375 C 306.820312 292.046875 313.203125 297.90625 321.132812 297.90625 C 329.0625 297.90625 335.328125 292.046875 336.546875 284.476562 C 338.289062 284.265625 339.8125 284.015625 340.695312 283.617188 C 344.726562 281.945312 332.914062 272.421875 321.078125 272.421875 M 740.601562 704.21875 C 730.992188 704.453125 722.382812 710.5625 719.507812 719.875 L 719.507812 720.03125 C 705.171875 766.078125 677.273438 825.554688 677.273438 825.554688 C 677.273438 825.554688 649.507812 874.6875 633.789062 929.742188 C 650.660156 924.886719 667.230469 919.039062 683.414062 912.226562 C 715.050781 898.367188 744.988281 880.914062 772.640625 860.21875 C 768.132812 851.164062 763.152344 842.351562 757.71875 833.820312 C 757.71875 833.820312 748.5 792.898438 730.867188 748.3125 C 733.554688 740.921875 736.054688 733.460938 738.367188 725.945312 L 738.492188 725.398438 C 739.039062 724.359375 740.210938 723.960938 741.546875 723.960938 L 741.671875 723.960938 C 750.890625 725.398438 760.617188 726.859375 771.945312 728.171875 C 775.359375 728.445312 778.898438 728.6875 782.4375 729.085938 C 786.804688 729.484375 791.015625 729.882812 795.351562 730.15625 C 796.382812 771.539062 814.359375 811.117188 818.90625 820.546875 C 852.042969 787.925781 879.914062 750.359375 901.523438 709.1875 C 869.539062 712.859375 830.414062 714.070312 784.359375 709.5 C 780.683594 709.082031 777 708.722656 773.3125 708.429688 C 763.765625 707.316406 754.242188 706.003906 744.75 704.492188 C 743.378906 704.277344 741.988281 704.1875 740.601562 704.21875 M 740.601562 704.21875 "/>
</svg>
