<?xml version="1.0" encoding="UTF-8"?>
<svg xmlns="http://www.w3.org/2000/svg" xmlns:xlink="http://www.w3.org/1999/xlink" width="350" height="350" viewBox="0 0 350 350">
<path fill-rule="nonzero" fill="rgb(100%, 100%, 100%)" fill-opacity="1" d="M 350 175 C 350 271.65625 271.65625 350 175 350 C 78.34375 350 0 271.65625 0 175 C 0 78.34375 78.34375 0 175 0 C 271.65625 0 350 78.34375 350 175 M 350 175 "/>
<path fill-rule="nonzero" fill="rgb(0%, 0%, 0%)" fill-opacity="1" d="M 179.113281 18.019531 C 156.585938 17.625 134.238281 22.078125 113.582031 31.082031 C 34 65.773438 -2.390625 158.402344 32.292969 237.984375 C 61.644531 304.871094 133.1875 342.726562 204.996094 329.351562 C 208.058594 319.601562 210.5625 308.898438 210.5625 297.234375 C 210.5625 295.582031 210.515625 293.910156 210.421875 292.214844 C 210.421875 292.214844 216.050781 282.632812 220.460938 270.148438 C 225.941406 254.726562 223.046875 237.730469 213.5625 224.28125 C 213.003906 223.542969 212.449219 222.722656 211.855469 221.890625 C 155.992188 221.890625 128.355469 171.230469 121.363281 140.414062 C 118.457031 127.753906 116.105469 126.496094 108.191406 126.496094 C 93.558594 126.496094 83.007812 120.429688 83.007812 120.429688 C 69.566406 126.59375 63.554688 124.070312 65.359375 117.652344 C 59.507812 117.011719 59.636719 110.367188 63.191406 104.269531 C 67.65625 96.621094 76.78125 91.417969 87.695312 91.417969 L 93.539062 91.417969 C 105.605469 91.417969 108.09375 85.109375 120.527344 86.441406 C 122.460938 86.632812 124.253906 86.957031 125.914062 87.371094 C 129.375 83.40625 133.28125 81.753906 138.027344 82.0625 C 138.773438 82.160156 139.230469 82.8125 139.082031 83.492188 L 137.9375 88.835938 C 137.523438 90.820312 138.078125 92.894531 139.496094 94.230469 C 149.539062 103.628906 155.296875 119.652344 161.746094 134.113281 C 172.207031 155.433594 197.433594 185.039062 237.925781 147.046875 C 266.390625 120.332031 283.578125 98.0625 311.851562 95.875 C 284.203125 48.554688 233.90625 19.054688 179.113281 18.019531 M 112.378906 95.347656 C 108.230469 95.347656 104.085938 98.679688 105.496094 99.28125 C 105.804688 99.40625 106.34375 99.492188 106.949219 99.554688 C 107.386719 102.214844 109.621094 104.265625 112.394531 104.265625 C 115.171875 104.265625 117.363281 102.214844 117.792969 99.554688 C 118.402344 99.492188 118.933594 99.40625 119.242188 99.28125 C 120.652344 98.679688 116.519531 95.347656 112.378906 95.347656 M 259.210938 246.476562 C 255.847656 246.558594 252.835938 248.695312 251.828125 251.964844 L 251.828125 252.007812 C 246.808594 268.128906 237.046875 288.945312 237.046875 288.945312 C 237.046875 288.945312 227.328125 306.140625 221.824219 325.421875 C 227.730469 323.710938 233.527344 321.660156 239.195312 319.28125 C 250.269531 314.429688 260.746094 308.320312 270.425781 301.078125 C 268.847656 297.90625 267.101562 294.824219 265.203125 291.835938 C 265.203125 291.835938 261.976562 277.515625 255.804688 261.910156 C 256.742188 259.316406 257.617188 256.707031 258.429688 254.082031 L 258.484375 253.890625 C 258.667969 253.527344 259.082031 253.386719 259.542969 253.386719 L 259.585938 253.386719 C 263.101562 253.949219 266.628906 254.4375 270.167969 254.859375 C 271.375 254.945312 272.613281 255.039062 273.863281 255.179688 C 275.382812 255.320312 276.855469 255.460938 278.375 255.554688 C 278.734375 270.039062 285.027344 283.890625 286.617188 287.191406 C 298.214844 275.773438 307.96875 262.625 315.53125 248.214844 C 304.339844 249.5 290.644531 249.925781 274.527344 248.324219 C 273.238281 248.179688 271.949219 248.054688 270.660156 247.949219 C 267.320312 247.5625 263.992188 247.101562 260.671875 246.574219 C 260.191406 246.496094 259.699219 246.464844 259.210938 246.476562 "/>
</svg>
