<?xml version="1.0" encoding="UTF-8"?>
<svg xmlns="http://www.w3.org/2000/svg" xmlns:xlink="http://www.w3.org/1999/xlink" width="1100" height="1100" viewBox="0 0 1100 1100">
<path fill-rule="nonzero" fill="rgb(100%, 100%, 100%)" fill-opacity="1" d="M 1100 550 C 1100 853.773438 853.773438 1100 550 1100 C 246.226562 1100 0 853.773438 0 550 C 0 246.226562 246.226562 0 550 0 C 853.773438 0 1100 246.226562 1100 550 M 1100 550 "/>
<path fill-rule="nonzero" fill="rgb(0%, 0%, 0%)" fill-opacity="1" d="M 562.925781 56.632812 C 492.125 55.390625 421.886719 69.390625 356.976562 97.683594 C 106.855469 206.722656 -7.519531 497.835938 101.492188 747.957031 C 193.738281 958.167969 418.585938 1077.140625 644.273438 1035.109375 C 653.898438 1004.464844 661.761719 970.828125 661.761719 934.167969 C 661.761719 928.976562 661.617188 923.714844 661.332031 918.386719 C 661.332031 918.386719 679.019531 888.277344 692.878906 849.035156 C 710.101562 800.566406 701 747.148438 671.199219 704.886719 C 669.445312 702.566406 667.699219 699.988281 665.828125 697.367188 C 490.257812 697.367188 403.40625 538.148438 381.425781 441.304688 C 372.289062 401.515625 364.90625 397.5625 340.027344 397.5625 C 294.042969 397.5625 260.878906 378.496094 260.878906 378.496094 C 218.640625 397.863281 199.746094 389.941406 205.417969 369.761719 C 187.027344 367.753906 187.429688 346.871094 198.601562 327.707031 C 212.636719 303.667969 241.3125 287.316406 275.609375 287.316406 L 293.976562 287.316406 C 331.90625 287.316406 339.726562 267.480469 378.804688 271.675781 C 384.878906 272.277344 390.515625 273.289062 395.726562 274.597656 C 406.605469 262.136719 418.886719 256.9375 433.796875 257.914062 C 436.140625 258.214844 437.585938 260.261719 437.113281 262.410156 L 433.519531 279.195312 C 432.214844 285.441406 433.957031 291.957031 438.417969 296.148438 C 469.976562 325.6875 488.074219 376.046875 508.347656 421.496094 C 541.21875 488.503906 620.503906 581.554688 747.769531 462.144531 C 837.230469 378.183594 891.242188 308.199219 980.101562 301.324219 C 893.210938 152.605469 735.132812 59.886719 562.925781 56.632812 M 353.1875 299.664062 C 340.15625 299.664062 327.128906 310.140625 331.5625 312.023438 C 332.535156 312.417969 334.21875 312.691406 336.128906 312.890625 C 337.503906 321.25 344.523438 327.695312 353.246094 327.695312 C 361.96875 327.695312 368.859375 321.25 370.203125 312.890625 C 372.117188 312.691406 373.792969 312.417969 374.765625 312.023438 C 379.199219 310.132812 366.207031 299.664062 353.1875 299.664062 M 814.660156 774.640625 C 804.089844 774.898438 794.621094 781.617188 791.457031 791.886719 L 791.457031 792.027344 C 775.6875 842.6875 745 908.109375 745 908.109375 C 745 908.109375 714.457031 962.15625 697.167969 1022.75 C 715.722656 1017.378906 733.949219 1010.933594 751.753906 1003.449219 C 786.554688 988.203125 819.488281 969.007812 849.90625 946.242188 C 844.945312 936.28125 839.464844 926.589844 833.492188 917.203125 C 833.492188 917.203125 823.351562 872.1875 803.953125 823.144531 C 806.910156 814.992188 809.660156 806.789062 812.203125 798.539062 L 812.375 797.9375 C 812.953125 796.796875 814.257812 796.355469 815.703125 796.355469 L 815.839844 796.355469 C 826.894531 798.121094 837.980469 799.667969 849.097656 800.988281 C 852.894531 801.253906 856.789062 801.554688 860.714844 801.996094 C 865.484375 802.433594 870.117188 802.871094 874.886719 803.171875 C 876.019531 848.691406 895.796875 892.230469 900.796875 902.601562 C 937.246094 866.71875 967.90625 825.394531 991.675781 780.105469 C 956.492188 784.144531 913.457031 785.476562 862.796875 780.449219 C 858.75 779.988281 854.699219 779.597656 850.644531 779.273438 C 840.152344 778.050781 829.6875 776.605469 819.257812 774.941406 C 817.738281 774.703125 816.199219 774.601562 814.660156 774.640625 "/>
</svg>
