<?xml version="1.0" encoding="UTF-8"?>
<svg xmlns="http://www.w3.org/2000/svg" xmlns:xlink="http://www.w3.org/1999/xlink" width="5000" height="5000" viewBox="0 0 5000 5000">
<path fill-rule="nonzero" fill="rgb(100%, 100%, 100%)" fill-opacity="1" d="M 5000 2500 C 5000 3880.78125 3880.78125 5000 2500 5000 C 1119.21875 5000 0 3880.78125 0 2500 C 0 1119.21875 1119.21875 0 2500 0 C 3880.78125 0 5000 1119.21875 5000 2500 M 5000 2500 "/>
<path fill-rule="nonzero" fill="rgb(0%, 0%, 0%)" fill-opacity="1" d="M 2558.75 257.421875 C 2236.933594 251.769531 1917.667969 315.410156 1622.617188 444.023438 C 485.703125 939.648438 -34.179688 2262.890625 461.328125 3399.804688 C 880.625 4355.3125 1902.65625 4896.09375 2928.515625 4705.039062 C 2972.265625 4565.742188 3008.007812 4412.851562 3008.007812 4246.210938 C 3008.007812 4222.617188 3007.355469 4198.710938 3006.054688 4174.492188 C 3006.054688 4174.492188 3086.445312 4037.617188 3149.453125 3859.257812 C 3227.734375 3638.945312 3186.367188 3396.132812 3050.898438 3204.023438 C 3042.929688 3193.476562 3035 3181.757812 3026.484375 3169.84375 C 2228.4375 3169.84375 1833.671875 2446.132812 1733.75 2005.9375 C 1692.226562 1825.078125 1658.671875 1807.109375 1545.585938 1807.109375 C 1336.5625 1807.109375 1185.820312 1720.429688 1185.820312 1720.429688 C 993.828125 1808.476562 907.929688 1772.460938 933.710938 1680.742188 C 850.117188 1671.601562 851.953125 1576.679688 902.734375 1489.570312 C 966.523438 1380.3125 1096.875 1305.976562 1252.773438 1305.976562 L 1336.25 1305.976562 C 1508.671875 1305.976562 1544.21875 1215.820312 1721.835938 1234.882812 C 1749.453125 1237.617188 1775.078125 1242.226562 1798.75 1248.164062 C 1848.203125 1191.523438 1904.023438 1167.890625 1971.796875 1172.34375 C 1982.460938 1173.710938 1989.023438 1183.007812 1986.875 1192.773438 L 1970.546875 1269.0625 C 1964.609375 1297.460938 1972.539062 1327.070312 1992.8125 1346.132812 C 2136.25 1480.390625 2218.515625 1709.296875 2310.664062 1915.898438 C 2460.078125 2220.46875 2820.46875 2643.4375 3398.945312 2100.664062 C 3805.585938 1719.023438 4051.09375 1400.898438 4455 1369.648438 C 4060.050781 693.664062 3341.511719 272.214844 2558.75 257.421875 M 1605.390625 1362.109375 C 1546.171875 1362.109375 1486.953125 1409.726562 1507.109375 1418.28125 C 1511.523438 1420.078125 1519.179688 1421.328125 1527.851562 1422.226562 C 1534.101562 1460.234375 1566.015625 1489.53125 1605.664062 1489.53125 C 1645.3125 1489.53125 1676.640625 1460.234375 1682.734375 1422.226562 C 1691.445312 1421.328125 1699.0625 1420.078125 1703.476562 1418.28125 C 1723.632812 1409.6875 1664.570312 1362.109375 1605.390625 1362.109375 M 3703.007812 3521.09375 C 3654.960938 3522.265625 3611.914062 3552.8125 3597.539062 3599.492188 L 3597.539062 3600.117188 C 3525.859375 3830.390625 3386.367188 4127.773438 3386.367188 4127.773438 C 3386.367188 4127.773438 3247.539062 4373.4375 3168.945312 4648.867188 C 3253.285156 4624.453125 3336.132812 4595.160156 3417.070312 4561.132812 C 3575.253906 4491.832031 3724.945312 4404.578125 3863.203125 4301.09375 C 3840.660156 4255.820312 3815.753906 4211.761719 3788.59375 4169.101562 C 3788.59375 4169.101562 3742.5 3964.492188 3654.335938 3741.5625 C 3667.773438 3704.503906 3680.273438 3667.226562 3691.835938 3629.726562 L 3692.617188 3626.992188 C 3695.234375 3621.796875 3701.171875 3619.804688 3707.734375 3619.804688 L 3708.359375 3619.804688 C 3758.605469 3627.828125 3809.003906 3634.847656 3859.53125 3640.859375 C 3876.796875 3642.070312 3894.492188 3643.4375 3912.34375 3645.429688 C 3934.023438 3647.421875 3955.078125 3649.414062 3976.757812 3650.78125 C 3981.914062 3857.695312 4071.796875 4055.585938 4094.53125 4102.734375 C 4260.214844 3939.632812 4399.570312 3751.796875 4507.617188 3545.9375 C 4347.695312 3564.296875 4152.070312 3570.351562 3921.796875 3547.5 C 3903.417969 3545.40625 3885.003906 3543.621094 3866.5625 3542.148438 C 3818.875 3536.59375 3771.3125 3530.03125 3723.90625 3522.460938 C 3716.996094 3521.382812 3710 3520.925781 3703.007812 3521.09375 "/>
</svg>
