<?xml version="1.0" encoding="UTF-8"?>
<svg xmlns="http://www.w3.org/2000/svg" xmlns:xlink="http://www.w3.org/1999/xlink" width="700" height="700" viewBox="0 0 700 700">
<path fill-rule="nonzero" fill="rgb(100%, 100%, 100%)" fill-opacity="1" d="M 700 350 C 700 543.308594 543.308594 700 350 700 C 156.691406 700 0 543.308594 0 350 C 0 156.691406 156.691406 0 350 0 C 543.308594 0 700 156.691406 700 350 M 700 350 "/>
<path fill-rule="nonzero" fill="rgb(0%, 0%, 0%)" fill-opacity="1" d="M 358.226562 36.039062 C 313.171875 35.246094 268.472656 44.15625 227.167969 62.164062 C 68 131.550781 -4.785156 316.804688 64.585938 475.972656 C 123.289062 609.742188 266.371094 685.453125 409.992188 658.707031 C 416.117188 639.203125 421.121094 617.800781 421.121094 594.46875 C 421.121094 591.167969 421.03125 587.820312 420.847656 584.429688 C 420.847656 584.429688 432.101562 565.265625 440.921875 540.296875 C 451.882812 509.453125 446.089844 475.457031 427.125 448.5625 C 426.011719 447.085938 424.898438 445.445312 423.707031 443.777344 C 311.980469 443.777344 256.714844 342.457031 242.726562 280.832031 C 236.910156 255.511719 232.214844 252.996094 216.382812 252.996094 C 187.117188 252.996094 166.015625 240.859375 166.015625 240.859375 C 139.136719 253.1875 127.109375 248.144531 130.71875 235.304688 C 119.015625 234.023438 119.273438 220.734375 126.382812 208.539062 C 135.3125 193.242188 153.5625 182.835938 175.386719 182.835938 L 187.074219 182.835938 C 211.214844 182.835938 216.191406 170.214844 241.058594 172.882812 C 244.921875 173.265625 248.511719 173.910156 251.824219 174.742188 C 258.75 166.8125 266.5625 163.503906 276.050781 164.128906 C 277.542969 164.320312 278.464844 165.621094 278.164062 166.988281 L 275.875 177.667969 C 275.046875 181.644531 276.15625 185.789062 278.992188 188.457031 C 299.074219 207.253906 310.59375 239.300781 323.492188 268.226562 C 344.410156 310.867188 394.867188 370.082031 475.851562 294.09375 C 532.78125 240.664062 567.152344 196.125 623.699219 191.75 C 568.40625 97.113281 467.8125 38.109375 358.226562 36.039062 M 224.753906 190.695312 C 216.464844 190.695312 208.171875 197.363281 210.996094 198.558594 C 211.613281 198.8125 212.683594 198.984375 213.898438 199.113281 C 214.773438 204.433594 219.242188 208.535156 224.792969 208.535156 C 230.34375 208.535156 234.730469 204.433594 235.582031 199.113281 C 236.800781 198.984375 237.867188 198.8125 238.488281 198.558594 C 241.308594 197.355469 233.039062 190.695312 224.753906 190.695312 M 518.421875 492.953125 C 511.695312 493.117188 505.667969 497.394531 503.65625 503.929688 L 503.65625 504.015625 C 493.621094 536.253906 474.089844 577.886719 474.089844 577.886719 C 474.089844 577.886719 454.65625 612.28125 443.652344 650.839844 C 455.460938 647.421875 467.058594 643.324219 478.390625 638.558594 C 500.535156 628.855469 521.492188 616.640625 540.847656 602.152344 C 537.691406 595.816406 534.207031 589.648438 530.402344 583.675781 C 530.402344 583.675781 523.949219 555.027344 511.605469 523.820312 C 513.488281 518.628906 515.238281 513.410156 516.855469 508.160156 L 516.964844 507.777344 C 517.332031 507.050781 518.164062 506.773438 519.082031 506.773438 L 519.171875 506.773438 C 526.203125 507.894531 533.261719 508.878906 540.335938 509.71875 C 542.75 509.890625 545.230469 510.082031 547.726562 510.359375 C 550.761719 510.640625 553.710938 510.917969 556.746094 511.109375 C 557.46875 540.078125 570.050781 567.78125 573.234375 574.382812 C 596.429688 551.546875 615.941406 525.25 631.066406 496.429688 C 608.675781 499 581.289062 499.847656 549.050781 496.648438 C 546.476562 496.355469 543.902344 496.105469 541.320312 495.902344 C 534.644531 495.125 527.984375 494.203125 521.347656 493.144531 C 520.378906 492.992188 519.398438 492.929688 518.421875 492.953125 "/>
</svg>
