<?xml version="1.0" encoding="UTF-8"?>
<svg xmlns="http://www.w3.org/2000/svg" xmlns:xlink="http://www.w3.org/1999/xlink" width="600" height="600" viewBox="0 0 600 600">
<path fill-rule="nonzero" fill="rgb(100%, 100%, 100%)" fill-opacity="1" d="M 600 300 C 600 465.695312 465.695312 600 300 600 C 134.304688 600 0 465.695312 0 300 C 0 134.304688 134.304688 0 300 0 C 465.695312 0 600 134.304688 600 300 M 600 300 "/>
<path fill-rule="nonzero" fill="rgb(0%, 0%, 0%)" fill-opacity="1" d="M 307.050781 30.890625 C 268.433594 30.210938 230.121094 37.847656 194.714844 53.28125 C 58.285156 112.757812 -4.101562 271.546875 55.359375 407.976562 C 105.675781 522.636719 228.320312 587.53125 351.421875 564.605469 C 356.671875 547.890625 360.960938 529.542969 360.960938 509.546875 C 360.960938 506.714844 360.882812 503.84375 360.726562 500.9375 C 360.726562 500.9375 370.375 484.515625 377.933594 463.109375 C 387.328125 436.671875 382.363281 407.535156 366.109375 384.484375 C 365.152344 383.21875 364.199219 381.8125 363.179688 380.382812 C 267.414062 380.382812 220.039062 293.535156 208.050781 240.710938 C 203.066406 219.007812 199.039062 216.851562 185.46875 216.851562 C 160.386719 216.851562 142.296875 206.453125 142.296875 206.453125 C 119.257812 217.015625 108.953125 212.695312 112.046875 201.6875 C 102.015625 200.59375 102.234375 189.203125 108.328125 178.75 C 115.984375 165.636719 131.625 156.71875 150.332031 156.71875 L 160.351562 156.71875 C 181.039062 156.71875 185.304688 145.898438 206.621094 148.1875 C 209.933594 148.515625 213.007812 149.066406 215.851562 149.78125 C 221.785156 142.984375 228.484375 140.148438 236.617188 140.679688 C 237.894531 140.84375 238.683594 141.960938 238.425781 143.132812 L 236.464844 152.289062 C 235.753906 155.695312 236.703125 159.25 239.136719 161.535156 C 256.351562 177.648438 266.222656 205.117188 277.28125 229.90625 C 295.210938 266.457031 338.457031 317.210938 407.875 252.078125 C 456.671875 206.28125 486.132812 168.109375 534.601562 164.359375 C 487.207031 83.238281 400.980469 32.664062 307.050781 30.890625 M 192.648438 163.453125 C 185.539062 163.453125 178.433594 169.167969 180.851562 170.195312 C 181.382812 170.410156 182.300781 170.558594 183.34375 170.667969 C 184.09375 175.226562 187.921875 178.742188 192.679688 178.742188 C 197.4375 178.742188 201.195312 175.226562 201.929688 170.667969 C 202.972656 170.558594 203.886719 170.410156 204.417969 170.195312 C 206.835938 169.164062 199.75 163.453125 192.648438 163.453125 M 444.359375 422.53125 C 438.59375 422.671875 433.429688 426.335938 431.703125 431.9375 L 431.703125 432.015625 C 423.101562 459.648438 406.363281 495.332031 406.363281 495.332031 C 406.363281 495.332031 389.703125 524.8125 380.273438 557.863281 C 390.394531 554.933594 400.335938 551.417969 410.046875 547.335938 C 429.03125 539.019531 446.992188 528.550781 463.585938 516.132812 C 460.878906 510.699219 457.890625 505.410156 454.632812 500.292969 C 454.632812 500.292969 449.101562 475.738281 438.519531 448.988281 C 440.132812 444.539062 441.632812 440.066406 443.019531 435.566406 L 443.113281 435.238281 C 443.429688 434.617188 444.140625 434.375 444.929688 434.375 L 445.003906 434.375 C 451.03125 435.339844 457.082031 436.179688 463.144531 436.902344 C 465.214844 437.046875 467.339844 437.210938 469.480469 437.453125 C 472.082031 437.691406 474.609375 437.929688 477.210938 438.09375 C 477.828125 462.921875 488.617188 486.671875 491.34375 492.328125 C 511.226562 472.757812 527.949219 450.214844 540.914062 425.511719 C 521.722656 427.714844 498.25 428.441406 470.617188 425.699219 C 468.410156 425.449219 466.199219 425.234375 463.988281 425.058594 C 458.265625 424.390625 452.558594 423.605469 446.867188 422.695312 C 446.039062 422.566406 445.199219 422.511719 444.359375 422.53125 "/>
</svg>
