<?xml version="1.0" encoding="UTF-8"?>
<svg xmlns="http://www.w3.org/2000/svg" xmlns:xlink="http://www.w3.org/1999/xlink" width="300" height="300" viewBox="0 0 300 300">
<path fill-rule="nonzero" fill="rgb(100%, 100%, 100%)" fill-opacity="1" d="M 300 150 C 300 232.847656 232.847656 300 150 300 C 67.152344 300 0 232.847656 0 150 C 0 67.152344 67.152344 0 150 0 C 232.847656 0 300 67.152344 300 150 M 300 150 "/>
<path fill-rule="nonzero" fill="rgb(0%, 0%, 0%)" fill-opacity="1" d="M 153.523438 15.445312 C 134.214844 15.105469 115.058594 18.925781 97.355469 26.640625 C 29.140625 56.378906 -2.050781 135.773438 27.679688 203.988281 C 52.835938 261.320312 114.160156 293.765625 175.710938 282.300781 C 178.335938 273.945312 180.480469 264.769531 180.480469 254.773438 C 180.480469 253.355469 180.441406 251.921875 180.363281 250.46875 C 180.363281 250.46875 185.1875 242.257812 188.96875 231.554688 C 193.664062 218.335938 191.183594 203.769531 183.054688 192.242188 C 182.574219 191.609375 182.101562 190.90625 181.589844 190.191406 C 133.707031 190.191406 110.019531 146.769531 104.023438 120.355469 C 101.535156 109.503906 99.519531 108.425781 92.734375 108.425781 C 80.195312 108.425781 71.148438 103.226562 71.148438 103.226562 C 59.628906 108.507812 54.476562 106.347656 56.023438 100.84375 C 51.007812 100.296875 51.117188 94.601562 54.164062 89.375 C 57.992188 82.820312 65.8125 78.359375 75.167969 78.359375 L 80.175781 78.359375 C 90.519531 78.359375 92.652344 72.949219 103.308594 74.09375 C 104.96875 74.257812 106.503906 74.535156 107.925781 74.890625 C 110.890625 71.492188 114.242188 70.074219 118.308594 70.339844 C 118.949219 70.421875 119.339844 70.980469 119.210938 71.566406 L 118.234375 76.144531 C 117.875 77.847656 118.351562 79.625 119.570312 80.769531 C 128.175781 88.824219 133.109375 102.558594 138.640625 114.953125 C 147.605469 133.226562 169.226562 158.605469 203.9375 126.039062 C 228.335938 103.140625 243.066406 84.054688 267.300781 82.179688 C 243.601562 41.621094 200.492188 16.332031 153.523438 15.445312 M 96.324219 81.726562 C 92.769531 81.726562 89.21875 84.582031 90.425781 85.097656 C 90.691406 85.203125 91.152344 85.28125 91.671875 85.332031 C 92.046875 87.613281 93.960938 89.371094 96.339844 89.371094 C 98.71875 89.371094 100.597656 87.613281 100.964844 85.332031 C 101.488281 85.28125 101.945312 85.203125 102.207031 85.097656 C 103.417969 84.582031 99.875 81.726562 96.324219 81.726562 M 222.179688 211.265625 C 219.296875 211.335938 216.714844 213.167969 215.851562 215.96875 L 215.851562 216.007812 C 211.550781 229.824219 203.183594 247.667969 203.183594 247.667969 C 203.183594 247.667969 194.851562 262.40625 190.136719 278.933594 C 195.195312 277.46875 200.167969 275.710938 205.023438 273.667969 C 214.515625 269.511719 223.496094 264.273438 231.792969 258.066406 C 230.441406 255.347656 228.945312 252.707031 227.316406 250.144531 C 227.316406 250.144531 224.550781 237.871094 219.261719 224.492188 C 220.066406 222.269531 220.816406 220.035156 221.511719 217.785156 L 221.558594 217.621094 C 221.714844 217.308594 222.070312 217.1875 222.464844 217.1875 L 222.5 217.1875 C 225.515625 217.667969 228.539062 218.089844 231.570312 218.453125 C 232.609375 218.523438 233.667969 218.605469 234.742188 218.726562 C 236.042969 218.84375 237.304688 218.964844 238.605469 219.046875 C 238.914062 231.460938 244.308594 243.335938 245.671875 246.164062 C 255.613281 236.378906 263.972656 225.109375 270.457031 212.757812 C 260.863281 213.859375 249.125 214.222656 235.308594 212.851562 C 234.203125 212.722656 233.101562 212.617188 231.992188 212.527344 C 229.132812 212.195312 226.277344 211.800781 223.433594 211.347656 C 223.019531 211.28125 222.601562 211.253906 222.179688 211.265625 "/>
</svg>
