<?xml version="1.0" encoding="UTF-8"?>
<svg xmlns="http://www.w3.org/2000/svg" xmlns:xlink="http://www.w3.org/1999/xlink" width="1000" height="1000" viewBox="0 0 1000 1000">
<path fill-rule="nonzero" fill="rgb(100%, 100%, 100%)" fill-opacity="1" d="M 1000 500 C 1000 776.15625 776.15625 1000 500 1000 C 223.84375 1000 0 776.15625 0 500 C 0 223.84375 223.84375 0 500 0 C 776.15625 0 1000 223.84375 1000 500 M 1000 500 "/>
<path fill-rule="nonzero" fill="rgb(0%, 0%, 0%)" fill-opacity="1" d="M 511.75 51.484375 C 447.386719 50.355469 383.535156 63.082031 324.523438 88.804688 C 97.140625 187.929688 -6.835938 452.578125 92.265625 679.960938 C 176.125 871.0625 380.53125 979.21875 585.703125 941.007812 C 594.453125 913.148438 601.601562 882.570312 601.601562 849.242188 C 601.601562 844.523438 601.472656 839.742188 601.210938 834.898438 C 601.210938 834.898438 617.289062 807.523438 629.890625 771.851562 C 645.546875 727.789062 637.273438 679.226562 610.179688 640.804688 C 608.585938 638.695312 607 636.351562 605.296875 633.96875 C 445.6875 633.96875 366.734375 489.226562 346.75 401.1875 C 338.445312 365.015625 331.734375 361.421875 309.117188 361.421875 C 267.3125 361.421875 237.164062 344.085938 237.164062 344.085938 C 198.765625 361.695312 181.585938 354.492188 186.742188 336.148438 C 170.023438 334.320312 170.390625 315.335938 180.546875 297.914062 C 193.304688 276.0625 219.375 261.195312 250.554688 261.195312 L 267.25 261.195312 C 301.734375 261.195312 308.84375 243.164062 344.367188 246.976562 C 349.890625 247.523438 355.015625 248.445312 359.75 249.632812 C 369.640625 238.304688 380.804688 233.578125 394.359375 234.46875 C 396.492188 234.742188 397.804688 236.601562 397.375 238.554688 L 394.109375 253.8125 C 392.921875 259.492188 394.507812 265.414062 398.5625 269.226562 C 427.25 296.078125 443.703125 341.859375 462.132812 383.179688 C 492.015625 444.09375 564.09375 528.6875 679.789062 420.132812 C 761.117188 343.804688 810.21875 280.179688 891 273.929688 C 812.011719 138.734375 668.300781 54.441406 511.75 51.484375 M 321.078125 272.421875 C 309.234375 272.421875 297.390625 281.945312 301.421875 283.65625 C 302.304688 284.015625 303.835938 284.265625 305.570312 284.445312 C 306.820312 292.046875 313.203125 297.90625 321.132812 297.90625 C 329.0625 297.90625 335.328125 292.046875 336.546875 284.445312 C 338.289062 284.265625 339.8125 284.015625 340.695312 283.65625 C 344.726562 281.9375 332.914062 272.421875 321.078125 272.421875 M 740.601562 704.21875 C 730.992188 704.453125 722.382812 710.5625 719.507812 719.898438 L 719.507812 720.023438 C 705.171875 766.078125 677.273438 825.554688 677.273438 825.554688 C 677.273438 825.554688 649.507812 874.6875 633.789062 929.773438 C 650.65625 924.890625 667.226562 919.03125 683.414062 912.226562 C 715.050781 898.367188 744.988281 880.914062 772.640625 860.21875 C 768.132812 851.164062 763.152344 842.351562 757.71875 833.820312 C 757.71875 833.820312 748.5 792.898438 730.867188 748.3125 C 733.554688 740.902344 736.054688 733.445312 738.367188 725.945312 L 738.523438 725.398438 C 739.046875 724.359375 740.234375 723.960938 741.546875 723.960938 L 741.671875 723.960938 C 751.722656 725.566406 761.800781 726.96875 771.90625 728.171875 C 775.359375 728.414062 778.898438 728.6875 782.46875 729.085938 C 786.804688 729.484375 791.015625 729.882812 795.351562 730.15625 C 796.382812 771.539062 814.359375 811.117188 818.90625 820.546875 C 852.042969 787.925781 879.914062 750.359375 901.523438 709.1875 C 869.539062 712.859375 830.414062 714.070312 784.359375 709.5 C 780.683594 709.082031 777 708.722656 773.3125 708.429688 C 763.773438 707.320312 754.261719 706.007812 744.78125 704.492188 C 743.398438 704.277344 742 704.183594 740.601562 704.21875 "/>
</svg>
