<?xml version="1.0" encoding="UTF-8"?>
<svg xmlns="http://www.w3.org/2000/svg" xmlns:xlink="http://www.w3.org/1999/xlink" width="150" height="150" viewBox="0 0 150 150">
<path fill-rule="nonzero" fill="rgb(100%, 100%, 100%)" fill-opacity="1" d="M 150 75 C 150 116.421875 116.421875 150 75 150 C 33.578125 150 0 116.421875 0 75 C 0 33.578125 33.578125 0 75 0 C 116.421875 0 150 33.578125 150 75 M 150 75 "/>
<path fill-rule="nonzero" fill="rgb(0%, 0%, 0%)" fill-opacity="1" d="M 76.761719 7.722656 C 67.109375 7.554688 57.53125 9.460938 48.679688 13.320312 C 14.570312 28.1875 -1.023438 67.886719 13.839844 101.992188 C 26.417969 130.660156 57.078125 146.882812 87.855469 141.152344 C 89.167969 136.972656 90.242188 132.386719 90.242188 127.386719 C 90.242188 126.679688 90.21875 125.960938 90.179688 125.234375 C 90.179688 125.234375 92.59375 121.128906 94.484375 115.777344 C 96.832031 109.167969 95.589844 101.882812 91.527344 96.121094 C 91.289062 95.804688 91.050781 95.453125 90.792969 95.09375 C 66.851562 95.09375 55.011719 73.382812 52.011719 60.179688 C 50.765625 54.753906 49.761719 54.214844 46.367188 54.214844 C 40.097656 54.214844 35.574219 51.613281 35.574219 51.613281 C 29.816406 54.253906 27.238281 53.171875 28.011719 50.421875 C 25.503906 50.148438 25.558594 47.300781 27.082031 44.6875 C 28.996094 41.410156 32.90625 39.179688 37.582031 39.179688 L 40.085938 39.179688 C 45.261719 39.179688 46.328125 36.476562 51.65625 37.046875 C 52.484375 37.128906 53.253906 37.265625 53.960938 37.445312 C 55.445312 35.746094 57.121094 35.035156 59.152344 35.171875 C 59.472656 35.210938 59.671875 35.492188 59.605469 35.78125 L 59.117188 38.070312 C 58.9375 38.921875 59.175781 39.8125 59.785156 40.382812 C 64.085938 44.410156 66.554688 51.277344 69.320312 57.476562 C 73.800781 66.613281 84.613281 79.304688 101.96875 63.019531 C 114.167969 51.570312 121.53125 42.027344 133.648438 41.089844 C 121.800781 20.808594 100.246094 8.167969 76.761719 7.722656 M 48.160156 40.863281 C 46.386719 40.863281 44.609375 42.292969 45.214844 42.546875 C 45.34375 42.601562 45.574219 42.640625 45.835938 42.667969 C 46.023438 43.808594 46.980469 44.6875 48.167969 44.6875 C 49.359375 44.6875 50.300781 43.808594 50.480469 42.667969 C 50.742188 42.640625 50.972656 42.601562 51.105469 42.546875 C 51.707031 42.289062 49.9375 40.863281 48.160156 40.863281 M 111.089844 105.632812 C 109.648438 105.667969 108.359375 106.585938 107.925781 107.984375 L 107.925781 108.003906 C 105.777344 114.910156 101.589844 123.832031 101.589844 123.832031 C 101.589844 123.832031 97.425781 131.203125 95.066406 139.464844 C 97.597656 138.734375 100.082031 137.855469 102.511719 136.835938 C 107.257812 134.753906 111.75 132.136719 115.894531 129.03125 C 115.21875 127.675781 114.472656 126.351562 113.65625 125.074219 C 113.65625 125.074219 112.273438 118.933594 109.628906 112.246094 C 110.03125 111.136719 110.40625 110.015625 110.753906 108.890625 L 110.777344 108.808594 C 110.855469 108.652344 111.035156 108.59375 111.230469 108.59375 L 111.25 108.59375 C 112.757812 108.835938 114.269531 109.046875 115.785156 109.226562 C 116.304688 109.261719 116.835938 109.304688 117.371094 109.363281 C 118.019531 109.421875 118.652344 109.484375 119.304688 109.523438 C 119.457031 115.730469 122.152344 121.667969 122.835938 123.082031 C 127.804688 118.1875 131.988281 112.554688 135.226562 106.378906 C 130.429688 106.929688 124.5625 107.109375 117.652344 106.425781 C 117.101562 106.363281 116.550781 106.308594 115.996094 106.265625 C 114.566406 106.097656 113.140625 105.902344 111.71875 105.675781 C 111.511719 105.640625 111.300781 105.628906 111.089844 105.632812 "/>
</svg>
