<?xml version="1.0" encoding="UTF-8"?>
<svg xmlns="http://www.w3.org/2000/svg" xmlns:xlink="http://www.w3.org/1999/xlink" width="96" height="96" viewBox="0 0 96 96">
<path fill-rule="nonzero" fill="rgb(100%, 100%, 100%)" fill-opacity="1" d="M 96 48 C 96 74.511719 74.511719 96 48 96 C 21.488281 96 0 74.511719 0 48 C 0 21.488281 21.488281 0 48 0 C 74.511719 0 96 21.488281 96 48 M 96 48 "/>
<path fill-rule="nonzero" fill="rgb(0%, 0%, 0%)" fill-opacity="1" d="M 49.128906 4.941406 C 42.949219 4.835938 36.820312 6.054688 31.152344 8.523438 C 9.324219 18.042969 -0.65625 43.449219 8.859375 65.277344 C 16.90625 83.621094 36.53125 94.003906 56.226562 90.335938 C 57.066406 87.664062 57.753906 84.726562 57.753906 81.527344 C 57.753906 81.074219 57.742188 80.617188 57.714844 80.148438 C 57.714844 80.148438 59.257812 77.523438 60.46875 74.097656 C 61.972656 69.867188 61.179688 65.207031 58.578125 61.515625 C 58.425781 61.316406 58.273438 61.089844 58.109375 60.859375 C 42.785156 60.859375 35.207031 46.964844 33.289062 38.515625 C 32.492188 35.042969 31.847656 34.695312 29.675781 34.695312 C 25.660156 34.695312 22.769531 33.03125 22.769531 33.03125 C 19.082031 34.722656 17.433594 34.03125 17.925781 32.269531 C 16.320312 32.09375 16.359375 30.273438 17.332031 28.601562 C 18.558594 26.503906 21.058594 25.074219 24.054688 25.074219 L 25.65625 25.074219 C 28.964844 25.074219 29.648438 23.34375 33.058594 23.710938 C 33.589844 23.761719 34.082031 23.851562 34.535156 23.964844 C 35.484375 22.878906 36.558594 22.421875 37.859375 22.507812 C 38.0625 22.535156 38.1875 22.714844 38.148438 22.902344 L 37.835938 24.367188 C 37.71875 24.910156 37.871094 25.480469 38.261719 25.847656 C 41.015625 28.421875 42.59375 32.820312 44.363281 36.785156 C 47.234375 42.632812 54.152344 50.753906 65.257812 40.332031 C 73.066406 33.003906 77.78125 26.898438 85.535156 26.296875 C 77.953125 13.320312 64.15625 5.226562 49.128906 4.941406 M 30.824219 26.152344 C 29.6875 26.152344 28.550781 27.066406 28.9375 27.230469 C 29.019531 27.265625 29.167969 27.289062 29.335938 27.308594 C 29.453125 28.035156 30.066406 28.597656 30.828125 28.597656 C 31.589844 28.597656 32.191406 28.035156 32.308594 27.308594 C 32.476562 27.289062 32.621094 27.265625 32.707031 27.230469 C 33.09375 27.066406 31.960938 26.152344 30.824219 26.152344 M 71.097656 67.605469 C 70.175781 67.628906 69.347656 68.214844 69.074219 69.109375 L 69.074219 69.121094 C 67.695312 73.542969 65.019531 79.253906 65.019531 79.253906 C 65.019531 79.253906 62.351562 83.96875 60.84375 89.257812 C 62.464844 88.789062 64.054688 88.226562 65.609375 87.574219 C 68.644531 86.242188 71.519531 84.566406 74.171875 82.582031 C 73.742188 81.710938 73.261719 80.867188 72.742188 80.046875 C 72.742188 80.046875 71.855469 76.117188 70.164062 71.839844 C 70.421875 71.125 70.660156 70.410156 70.882812 69.691406 L 70.898438 69.636719 C 70.949219 69.539062 71.0625 69.5 71.1875 69.5 L 71.199219 69.5 C 72.164062 69.652344 73.132812 69.789062 74.101562 69.90625 C 74.433594 69.929688 74.773438 69.953125 75.117188 69.992188 C 75.535156 70.03125 75.9375 70.070312 76.355469 70.09375 C 76.453125 74.066406 78.179688 77.867188 78.613281 78.773438 C 81.796875 75.640625 84.472656 72.035156 86.546875 68.082031 C 83.476562 68.433594 79.71875 68.550781 75.296875 68.113281 C 74.945312 68.070312 74.59375 68.039062 74.238281 68.007812 C 73.324219 67.902344 72.410156 67.777344 71.5 67.632812 C 71.367188 67.609375 71.230469 67.601562 71.097656 67.605469 "/>
</svg>
