<?xml version="1.0" encoding="UTF-8"?>
<svg xmlns="http://www.w3.org/2000/svg" xmlns:xlink="http://www.w3.org/1999/xlink" width="3500" height="3500" viewBox="0 0 3500 3500">
<path fill-rule="nonzero" fill="rgb(100%, 100%, 100%)" fill-opacity="1" d="M 3500 1750 C 3500 2716.546875 2716.546875 3500 1750 3500 C 783.453125 3500 0 2716.546875 0 1750 C 0 783.453125 783.453125 0 1750 0 C 2716.546875 0 3500 783.453125 3500 1750 M 3500 1750 "/>
<path fill-rule="nonzero" fill="rgb(0%, 0%, 0%)" fill-opacity="1" d="M 1791.125 180.195312 C 1565.855469 176.238281 1342.367188 220.789062 1135.832031 310.816406 C 339.992188 657.753906 -23.925781 1584.023438 322.929688 2379.863281 C 616.4375 3048.71875 1331.859375 3427.265625 2049.960938 3293.527344 C 2080.585938 3196.019531 2105.605469 3088.996094 2105.605469 2972.347656 C 2105.605469 2955.832031 2105.148438 2939.097656 2104.238281 2922.144531 C 2104.238281 2922.144531 2160.511719 2826.332031 2204.617188 2701.480469 C 2259.414062 2547.261719 2230.457031 2377.292969 2135.628906 2242.816406 C 2130.050781 2235.433594 2124.5 2227.230469 2118.539062 2218.890625 C 1559.90625 2218.890625 1283.570312 1712.292969 1213.625 1404.15625 C 1184.558594 1277.554688 1161.070312 1264.976562 1081.910156 1264.976562 C 935.59375 1264.976562 830.074219 1204.300781 830.074219 1204.300781 C 695.679688 1265.933594 635.550781 1240.722656 653.597656 1176.519531 C 595.082031 1170.121094 596.367188 1103.675781 631.914062 1042.699219 C 676.566406 966.21875 767.8125 914.183594 876.941406 914.183594 L 935.375 914.183594 C 1056.070312 914.183594 1080.953125 851.074219 1205.285156 864.417969 C 1224.617188 866.332031 1242.554688 869.558594 1259.125 873.714844 C 1293.742188 834.066406 1332.816406 817.523438 1380.257812 820.640625 C 1387.722656 821.597656 1392.316406 828.105469 1390.8125 834.941406 L 1379.382812 888.34375 C 1375.226562 908.222656 1380.777344 928.949219 1394.96875 942.292969 C 1495.375 1036.273438 1552.960938 1196.507812 1617.464844 1341.128906 C 1722.054688 1554.328125 1974.328125 1850.40625 2379.261719 1470.464844 C 2663.910156 1203.316406 2835.765625 980.628906 3118.5 958.753906 C 2842.035156 485.566406 2339.058594 190.550781 1791.125 180.195312 M 1123.773438 953.476562 C 1082.320312 953.476562 1040.867188 986.808594 1054.976562 992.796875 C 1058.066406 994.054688 1063.425781 994.929688 1069.496094 995.558594 C 1073.871094 1022.164062 1096.210938 1042.671875 1123.964844 1042.671875 C 1151.71875 1042.671875 1173.648438 1022.164062 1177.914062 995.558594 C 1184.011719 994.929688 1189.34375 994.054688 1192.433594 992.796875 C 1206.542969 986.78125 1165.199219 953.476562 1123.773438 953.476562 M 2592.105469 2464.765625 C 2558.472656 2465.585938 2528.339844 2486.96875 2518.277344 2519.644531 L 2518.277344 2520.082031 C 2468.101562 2681.273438 2370.457031 2889.441406 2370.457031 2889.441406 C 2370.457031 2889.441406 2273.277344 3061.40625 2218.261719 3254.207031 C 2277.296875 3237.117188 2335.292969 3216.613281 2391.949219 3192.792969 C 2502.675781 3144.28125 2607.460938 3083.207031 2704.242188 3010.765625 C 2688.460938 2979.074219 2671.027344 2948.234375 2652.015625 2918.371094 C 2652.015625 2918.371094 2619.75 2775.144531 2558.035156 2619.09375 C 2567.441406 2593.152344 2576.191406 2567.058594 2584.285156 2540.808594 L 2584.832031 2538.894531 C 2586.664062 2535.257812 2590.820312 2533.863281 2595.414062 2533.863281 L 2595.851562 2533.863281 C 2631.023438 2539.480469 2666.304688 2544.390625 2701.671875 2548.601562 C 2713.757812 2549.449219 2726.144531 2550.40625 2738.640625 2551.800781 C 2753.816406 2553.195312 2768.554688 2554.589844 2783.730469 2555.546875 C 2787.339844 2700.386719 2850.257812 2838.910156 2866.171875 2871.914062 C 2982.148438 2757.742188 3079.699219 2626.257812 3155.332031 2482.15625 C 3043.386719 2495.007812 2906.449219 2499.246094 2745.257812 2483.25 C 2732.390625 2481.785156 2719.503906 2480.535156 2706.59375 2479.503906 C 2673.214844 2475.617188 2639.917969 2471.019531 2606.734375 2465.722656 C 2601.894531 2464.96875 2597 2464.648438 2592.105469 2464.765625 "/>
</svg>
