<?xml version="1.0" encoding="UTF-8"?>
<svg xmlns="http://www.w3.org/2000/svg" xmlns:xlink="http://www.w3.org/1999/xlink" width="4000" height="4000" viewBox="0 0 4000 4000">
<path fill-rule="nonzero" fill="rgb(100%, 100%, 100%)" fill-opacity="1" d="M 4000 2000 C 4000 3104.625 3104.625 4000 2000 4000 C 895.375 4000 0 3104.625 0 2000 C 0 895.375 895.375 0 2000 0 C 3104.625 0 4000 895.375 4000 2000 M 4000 2000 "/>
<path fill-rule="nonzero" fill="rgb(0%, 0%, 0%)" fill-opacity="1" d="M 2047 205.9375 C 1789.546875 201.417969 1534.136719 252.328125 1298.09375 355.21875 C 388.5625 751.71875 -27.34375 1810.3125 369.0625 2719.84375 C 704.5 3484.25 1522.125 3916.875 2342.8125 3764.03125 C 2377.8125 3652.59375 2406.40625 3530.28125 2406.40625 3396.96875 C 2406.40625 3378.09375 2405.886719 3358.96875 2404.84375 3339.59375 C 2404.84375 3339.59375 2469.15625 3230.09375 2519.5625 3087.40625 C 2582.1875 2911.15625 2549.09375 2716.90625 2440.71875 2563.21875 C 2434.34375 2554.78125 2428 2545.40625 2421.1875 2535.875 C 1782.75 2535.875 1466.9375 1956.90625 1387 1604.75 C 1353.78125 1460.0625 1326.9375 1445.6875 1236.46875 1445.6875 C 1069.25 1445.6875 948.65625 1376.34375 948.65625 1376.34375 C 795.0625 1446.78125 726.34375 1417.96875 746.96875 1344.59375 C 680.09375 1337.28125 681.5625 1261.34375 722.1875 1191.65625 C 773.21875 1104.25 877.5 1044.78125 1002.21875 1044.78125 L 1069 1044.78125 C 1206.9375 1044.78125 1235.375 972.65625 1377.46875 987.90625 C 1399.5625 990.09375 1420.0625 993.78125 1439 998.53125 C 1478.5625 953.21875 1523.21875 934.3125 1577.4375 937.875 C 1585.96875 938.96875 1591.21875 946.40625 1589.5 954.21875 L 1576.4375 1015.25 C 1571.6875 1037.96875 1578.03125 1061.65625 1594.25 1076.90625 C 1709 1184.3125 1774.8125 1367.4375 1848.53125 1532.71875 C 1968.0625 1776.375 2256.375 2114.75 2719.15625 1680.53125 C 3044.46875 1375.21875 3240.875 1120.71875 3564 1095.71875 C 3248.042969 554.933594 2673.210938 217.769531 2047 205.9375 M 1284.3125 1089.6875 C 1236.9375 1089.6875 1189.5625 1127.78125 1205.6875 1134.625 C 1209.21875 1136.0625 1215.34375 1137.0625 1222.28125 1137.78125 C 1227.28125 1168.1875 1252.8125 1191.625 1284.53125 1191.625 C 1316.25 1191.625 1341.3125 1168.1875 1346.1875 1137.78125 C 1353.15625 1137.0625 1359.25 1136.0625 1362.78125 1134.625 C 1378.90625 1127.75 1331.65625 1089.6875 1284.3125 1089.6875 M 2962.40625 2816.875 C 2923.96875 2817.8125 2889.53125 2842.25 2878.03125 2879.59375 L 2878.03125 2880.09375 C 2820.6875 3064.3125 2709.09375 3302.21875 2709.09375 3302.21875 C 2709.09375 3302.21875 2598.03125 3498.75 2535.15625 3719.09375 C 2602.628906 3699.5625 2668.90625 3676.128906 2733.65625 3648.90625 C 2860.203125 3593.464844 2979.957031 3523.664062 3090.5625 3440.875 C 3072.527344 3404.65625 3052.605469 3369.410156 3030.875 3335.28125 C 3030.875 3335.28125 2994 3171.59375 2923.46875 2993.25 C 2934.21875 2963.605469 2944.21875 2933.78125 2953.46875 2903.78125 L 2954.09375 2901.59375 C 2956.1875 2897.4375 2960.9375 2895.84375 2966.1875 2895.84375 L 2966.6875 2895.84375 C 3006.882812 2902.261719 3047.203125 2907.878906 3087.625 2912.6875 C 3101.4375 2913.65625 3115.59375 2914.75 3129.875 2916.34375 C 3147.21875 2917.9375 3164.0625 2919.53125 3181.40625 2920.625 C 3185.53125 3086.15625 3257.4375 3244.46875 3275.625 3282.1875 C 3408.171875 3151.707031 3519.65625 3001.4375 3606.09375 2836.75 C 3478.15625 2851.4375 3321.65625 2856.28125 3137.4375 2838 C 3122.734375 2836.324219 3108.003906 2834.898438 3093.25 2833.71875 C 3055.101562 2829.277344 3017.050781 2824.023438 2979.125 2817.96875 C 2973.597656 2817.105469 2968 2816.738281 2962.40625 2816.875 "/>
</svg>
