<?xml version="1.0" encoding="UTF-8"?>
<svg xmlns="http://www.w3.org/2000/svg" xmlns:xlink="http://www.w3.org/1999/xlink" width="2250" height="2250" viewBox="0 0 2250 2250">
<path fill-rule="nonzero" fill="rgb(100%, 100%, 100%)" fill-opacity="1" d="M 2250 1125 C 2250 1746.351562 1746.351562 2250 1125 2250 C 503.648438 2250 0 1746.351562 0 1125 C 0 503.648438 503.648438 0 1125 0 C 1746.351562 0 2250 503.648438 2250 1125 M 2250 1125 "/>
<path fill-rule="nonzero" fill="rgb(0%, 0%, 0%)" fill-opacity="1" d="M 1151.4375 115.839844 C 1006.621094 113.296875 862.949219 141.933594 730.179688 199.8125 C 218.566406 422.84375 -15.382812 1018.300781 207.597656 1529.914062 C 396.28125 1959.890625 856.195312 2203.242188 1317.832031 2117.265625 C 1337.519531 2054.585938 1353.601562 1985.78125 1353.601562 1910.796875 C 1353.601562 1900.179688 1353.3125 1889.421875 1352.726562 1878.523438 C 1352.726562 1878.523438 1388.898438 1816.929688 1417.253906 1736.664062 C 1452.480469 1637.523438 1433.867188 1528.257812 1372.90625 1441.8125 C 1369.320312 1437.0625 1365.75 1431.789062 1361.917969 1426.429688 C 1002.796875 1426.429688 825.152344 1100.757812 780.1875 902.671875 C 761.503906 821.285156 746.402344 813.199219 695.515625 813.199219 C 601.453125 813.199219 533.621094 774.195312 533.621094 774.195312 C 447.222656 813.8125 408.570312 797.609375 420.171875 756.335938 C 382.554688 752.21875 383.378906 709.507812 406.230469 670.304688 C 434.9375 621.140625 493.59375 587.6875 563.75 587.6875 L 601.3125 587.6875 C 678.902344 587.6875 694.898438 547.117188 774.828125 555.695312 C 787.253906 556.929688 798.785156 559 809.4375 561.671875 C 831.691406 536.1875 856.8125 525.550781 887.308594 527.554688 C 892.109375 528.171875 895.0625 532.351562 894.09375 536.75 L 886.746094 571.078125 C 884.074219 583.855469 887.644531 597.179688 896.765625 605.757812 C 961.3125 666.175781 998.332031 769.183594 1039.800781 862.15625 C 1107.035156 999.210938 1269.210938 1189.546875 1529.523438 945.296875 C 1712.515625 773.5625 1822.992188 630.40625 2004.75 616.34375 C 1827.023438 312.148438 1503.679688 122.496094 1151.4375 115.839844 M 722.425781 612.949219 C 695.777344 612.949219 669.128906 634.375 678.199219 638.226562 C 680.1875 639.035156 683.632812 639.597656 687.53125 640 C 690.34375 657.105469 704.707031 670.289062 722.546875 670.289062 C 740.390625 670.289062 754.488281 657.105469 757.230469 640 C 761.148438 639.597656 764.578125 639.035156 766.5625 638.226562 C 775.632812 634.359375 749.054688 612.949219 722.425781 612.949219 M 1666.351562 1584.492188 C 1644.730469 1585.019531 1625.359375 1598.765625 1618.890625 1619.773438 L 1618.890625 1620.054688 C 1586.636719 1723.675781 1523.863281 1857.5 1523.863281 1857.5 C 1523.863281 1857.5 1461.390625 1968.046875 1426.023438 2091.992188 C 1463.976562 2081.003906 1501.257812 2067.824219 1537.679688 2052.511719 C 1608.863281 2021.324219 1676.226562 1982.058594 1738.441406 1935.492188 C 1728.296875 1915.121094 1717.089844 1895.292969 1704.867188 1876.097656 C 1704.867188 1876.097656 1684.125 1784.023438 1644.453125 1683.703125 C 1650.5 1667.027344 1656.121094 1650.253906 1661.328125 1633.378906 L 1661.675781 1632.148438 C 1662.855469 1629.808594 1665.527344 1628.914062 1668.480469 1628.914062 L 1668.761719 1628.914062 C 1691.371094 1632.523438 1714.050781 1635.679688 1736.789062 1638.386719 C 1744.558594 1638.933594 1752.523438 1639.546875 1760.554688 1640.445312 C 1770.3125 1641.339844 1779.785156 1642.238281 1789.542969 1642.851562 C 1791.863281 1735.964844 1832.308594 1825.015625 1842.539062 1846.230469 C 1917.097656 1772.835938 1979.804688 1688.308594 2028.429688 1595.671875 C 1956.464844 1603.933594 1868.429688 1606.660156 1764.808594 1596.375 C 1756.539062 1595.433594 1748.25 1594.628906 1739.953125 1593.96875 C 1718.496094 1591.46875 1697.089844 1588.511719 1675.757812 1585.109375 C 1672.648438 1584.621094 1669.5 1584.417969 1666.355469 1584.492188 "/>
</svg>
