<?xml version="1.0" encoding="UTF-8"?>
<svg xmlns="http://www.w3.org/2000/svg" xmlns:xlink="http://www.w3.org/1999/xlink" width="48" height="48" viewBox="0 0 48 48">
<path fill-rule="nonzero" fill="rgb(100%, 100%, 100%)" fill-opacity="1" d="M 48 24 C 48 37.253906 37.253906 48 24 48 C 10.746094 48 0 37.253906 0 24 C 0 10.746094 10.746094 0 24 0 C 37.253906 0 48 10.746094 48 24 M 48 24 "/>
<path fill-rule="nonzero" fill="rgb(0%, 0%, 0%)" fill-opacity="1" d="M 24.5625 2.472656 C 21.472656 2.417969 18.410156 3.027344 15.578125 4.261719 C 4.664062 9.019531 -0.328125 21.722656 4.429688 32.636719 C 8.453125 41.8125 18.265625 47.003906 28.113281 45.167969 C 28.535156 43.832031 28.875 42.363281 28.875 40.761719 C 28.875 40.539062 28.871094 40.308594 28.859375 40.074219 C 28.859375 40.074219 29.628906 38.761719 30.234375 37.050781 C 30.984375 34.933594 30.589844 32.601562 29.289062 30.757812 C 29.210938 30.65625 29.136719 30.542969 29.054688 30.429688 C 21.394531 30.429688 17.601562 23.484375 16.644531 19.257812 C 16.246094 17.519531 15.921875 17.347656 14.835938 17.347656 C 12.832031 17.347656 11.382812 16.515625 11.382812 16.515625 C 9.539062 17.363281 8.714844 17.015625 8.964844 16.136719 C 8.160156 16.046875 8.179688 15.136719 8.667969 14.300781 C 9.277344 13.25 10.53125 12.539062 12.027344 12.539062 L 12.828125 12.539062 C 14.484375 12.539062 14.824219 11.671875 16.53125 11.855469 C 16.792969 11.882812 17.039062 11.925781 17.269531 11.980469 C 17.742188 11.4375 18.277344 11.210938 18.929688 11.253906 C 19.03125 11.269531 19.09375 11.355469 19.074219 11.449219 L 18.917969 12.183594 C 18.859375 12.457031 18.9375 12.738281 19.132812 12.921875 C 20.507812 14.210938 21.296875 16.410156 22.183594 18.394531 C 23.617188 21.316406 27.078125 25.378906 32.628906 20.167969 C 36.535156 16.503906 38.890625 13.449219 42.769531 13.148438 C 38.976562 6.660156 32.078125 2.613281 24.5625 2.472656 M 15.410156 13.078125 C 14.84375 13.078125 14.273438 13.535156 14.46875 13.617188 C 14.511719 13.632812 14.585938 13.644531 14.667969 13.652344 C 14.726562 14.019531 15.035156 14.300781 15.414062 14.300781 C 15.796875 14.300781 16.097656 14.019531 16.152344 13.652344 C 16.238281 13.644531 16.3125 13.632812 16.351562 13.617188 C 16.546875 13.53125 15.980469 13.078125 15.410156 13.078125 M 35.550781 33.800781 C 35.085938 33.8125 34.675781 34.105469 34.535156 34.554688 L 34.535156 34.5625 C 33.847656 36.773438 32.507812 39.625 32.507812 39.625 C 32.507812 39.625 31.175781 41.984375 30.421875 44.628906 C 31.230469 44.394531 32.027344 44.113281 32.804688 43.785156 C 34.324219 43.121094 35.757812 42.285156 37.085938 41.289062 C 36.871094 40.855469 36.632812 40.433594 36.371094 40.023438 C 36.371094 40.023438 35.929688 38.058594 35.082031 35.917969 C 35.210938 35.5625 35.332031 35.207031 35.441406 34.84375 L 35.449219 34.820312 C 35.472656 34.769531 35.53125 34.75 35.59375 34.75 L 35.601562 34.75 C 36.082031 34.828125 36.566406 34.894531 37.050781 34.953125 C 37.21875 34.964844 37.386719 34.976562 37.558594 34.996094 C 37.765625 35.015625 37.96875 35.035156 38.175781 35.046875 C 38.226562 37.035156 39.089844 38.933594 39.308594 39.386719 C 40.898438 37.820312 42.234375 36.015625 43.273438 34.039062 C 41.738281 34.21875 39.859375 34.273438 37.648438 34.054688 C 37.472656 34.035156 37.296875 34.019531 37.117188 34.003906 C 36.660156 33.953125 36.203125 33.886719 35.75 33.816406 C 35.683594 33.804688 35.617188 33.800781 35.550781 33.800781 "/>
</svg>
