<?xml version="1.0" encoding="UTF-8"?>
<svg xmlns="http://www.w3.org/2000/svg" xmlns:xlink="http://www.w3.org/1999/xlink" width="1200" height="1200" viewBox="0 0 1200 1200">
<path fill-rule="nonzero" fill="rgb(100%, 100%, 100%)" fill-opacity="1" d="M 1200 600 C 1200 931.386719 931.386719 1200 600 1200 C 268.613281 1200 0 931.386719 0 600 C 0 268.613281 268.613281 0 600 0 C 931.386719 0 1200 268.613281 1200 600 M 1200 600 "/>
<path fill-rule="nonzero" fill="rgb(0%, 0%, 0%)" fill-opacity="1" d="M 614.101562 61.78125 C 536.863281 60.425781 460.242188 75.699219 389.429688 106.566406 C 116.570312 225.515625 -8.203125 543.09375 110.71875 815.953125 C 211.351562 1045.273438 456.636719 1175.0625 702.84375 1129.210938 C 713.34375 1095.777344 721.921875 1059.085938 721.921875 1019.089844 C 721.921875 1013.429688 721.765625 1007.691406 721.453125 1001.878906 C 721.453125 1001.878906 740.746094 969.027344 755.867188 926.222656 C 774.65625 873.347656 764.726562 815.070312 732.214844 768.964844 C 730.304688 766.433594 728.398438 763.621094 726.355469 760.761719 C 534.824219 760.761719 440.082031 587.070312 416.101562 481.425781 C 406.132812 438.019531 398.082031 433.707031 370.941406 433.707031 C 320.773438 433.707031 284.597656 412.902344 284.597656 412.902344 C 238.519531 434.035156 217.902344 425.390625 224.089844 403.378906 C 204.027344 401.183594 204.46875 378.402344 216.65625 357.496094 C 231.964844 331.273438 263.25 313.433594 300.664062 313.433594 L 320.699219 313.433594 C 362.082031 313.433594 370.613281 291.796875 413.242188 296.371094 C 419.867188 297.027344 426.019531 298.132812 431.699219 299.558594 C 443.570312 285.964844 456.964844 280.292969 473.230469 281.363281 C 475.789062 281.691406 477.367188 283.921875 476.851562 286.265625 L 472.929688 304.574219 C 471.507812 311.390625 473.410156 318.496094 478.273438 323.070312 C 512.699219 355.292969 532.445312 410.230469 554.558594 459.816406 C 590.417969 532.914062 676.914062 634.425781 815.746094 504.160156 C 913.339844 412.566406 972.261719 336.214844 1069.199219 328.714844 C 974.414062 166.480469 801.964844 65.332031 614.101562 61.78125 M 385.292969 326.90625 C 371.082031 326.90625 356.867188 338.335938 361.707031 340.386719 C 362.765625 340.820312 364.601562 341.117188 366.683594 341.335938 C 368.183594 350.457031 375.84375 357.488281 385.359375 357.488281 C 394.875 357.488281 402.394531 350.457031 403.855469 341.335938 C 405.945312 341.117188 407.773438 340.820312 408.835938 340.386719 C 413.671875 338.324219 399.496094 326.90625 385.292969 326.90625 M 888.722656 845.0625 C 877.191406 845.34375 866.859375 852.675781 863.410156 863.878906 L 863.410156 864.027344 C 846.207031 919.292969 812.726562 990.664062 812.726562 990.664062 C 812.726562 990.664062 779.410156 1049.625 760.546875 1115.726562 C 780.789062 1109.871094 800.671875 1102.839844 820.097656 1094.671875 C 858.0625 1078.039062 893.988281 1057.097656 927.167969 1032.261719 C 921.757812 1021.398438 915.78125 1010.824219 909.261719 1000.585938 C 909.261719 1000.585938 898.199219 951.476562 877.039062 897.976562 C 880.265625 889.082031 883.265625 880.132812 886.039062 871.132812 L 886.226562 870.476562 C 886.855469 869.230469 888.28125 868.753906 889.855469 868.753906 L 890.007812 868.753906 C 902.066406 870.679688 914.160156 872.363281 926.289062 873.804688 C 930.429688 874.097656 934.679688 874.425781 938.960938 874.902344 C 944.164062 875.382812 949.21875 875.859375 954.421875 876.1875 C 955.660156 925.847656 977.230469 973.339844 982.6875 984.65625 C 1022.453125 945.511719 1055.894531 900.429688 1081.828125 851.023438 C 1043.445312 855.429688 996.496094 856.882812 941.230469 851.398438 C 936.820312 850.898438 932.402344 850.46875 927.976562 850.117188 C 916.53125 848.78125 905.117188 847.207031 893.738281 845.390625 C 892.078125 845.132812 890.398438 845.023438 888.722656 845.0625 "/>
</svg>
