<?xml version="1.0" encoding="UTF-8"?>
<svg xmlns="http://www.w3.org/2000/svg" xmlns:xlink="http://www.w3.org/1999/xlink" width="1800" height="1800" viewBox="0 0 1800 1800">
<path fill-rule="nonzero" fill="rgb(100%, 100%, 100%)" fill-opacity="1" d="M 1800 900 C 1800 1397.082031 1397.082031 1800 900 1800 C 402.917969 1800 0 1397.082031 0 900 C 0 402.917969 402.917969 0 900 0 C 1397.082031 0 1800 402.917969 1800 900 M 1800 900 "/>
<path fill-rule="nonzero" fill="rgb(0%, 0%, 0%)" fill-opacity="1" d="M 921.148438 92.671875 C 805.296875 90.636719 690.359375 113.546875 584.140625 159.847656 C 174.851562 338.273438 -12.304688 814.640625 166.078125 1223.929688 C 317.023438 1567.914062 684.957031 1762.59375 1054.265625 1693.8125 C 1070.015625 1643.667969 1082.882812 1588.625 1082.882812 1528.636719 C 1082.882812 1520.140625 1082.648438 1511.535156 1082.179688 1502.816406 C 1082.179688 1502.816406 1111.121094 1453.542969 1133.804688 1389.332031 C 1161.984375 1310.019531 1147.09375 1222.609375 1098.324219 1153.449219 C 1095.453125 1149.652344 1092.601562 1145.433594 1089.535156 1141.144531 C 802.238281 1141.144531 660.121094 880.609375 624.148438 722.136719 C 609.203125 657.027344 597.121094 650.558594 556.410156 650.558594 C 481.164062 650.558594 426.894531 619.355469 426.894531 619.355469 C 357.777344 651.050781 326.855469 638.085938 336.136719 605.066406 C 306.042969 601.777344 306.703125 567.605469 324.984375 536.246094 C 347.949219 496.914062 394.875 470.152344 451 470.152344 L 481.050781 470.152344 C 543.121094 470.152344 555.917969 437.695312 619.859375 444.558594 C 629.804688 445.542969 639.027344 447.203125 647.550781 449.339844 C 665.351562 428.949219 685.449219 420.441406 709.847656 422.042969 C 713.6875 422.535156 716.046875 425.882812 715.273438 429.398438 L 709.398438 456.863281 C 707.257812 467.085938 710.113281 477.746094 717.414062 484.609375 C 769.050781 532.941406 798.664062 615.347656 831.839844 689.722656 C 885.628906 799.367188 1015.367188 951.636719 1223.621094 756.238281 C 1370.011719 618.847656 1458.394531 504.324219 1603.800781 493.074219 C 1461.617188 249.71875 1202.945312 97.996094 921.148438 92.671875 M 577.941406 490.359375 C 556.621094 490.359375 535.304688 507.5 542.558594 510.582031 C 544.148438 511.226562 546.90625 511.679688 550.027344 512 C 552.277344 525.683594 563.765625 536.230469 578.039062 536.230469 C 592.3125 536.230469 603.589844 525.683594 605.785156 512 C 608.921875 511.679688 611.664062 511.226562 613.25 510.582031 C 620.507812 507.488281 599.246094 490.359375 577.941406 490.359375 M 1333.082031 1267.59375 C 1315.785156 1268.015625 1300.289062 1279.011719 1295.113281 1295.816406 L 1295.113281 1296.042969 C 1269.308594 1378.941406 1219.09375 1486 1219.09375 1486 C 1219.09375 1486 1169.113281 1574.4375 1140.820312 1673.59375 C 1171.183594 1664.804688 1201.007812 1654.257812 1230.144531 1642.007812 C 1287.089844 1617.058594 1340.980469 1585.648438 1390.753906 1548.394531 C 1382.636719 1532.09375 1373.671875 1516.234375 1363.894531 1500.875 C 1363.894531 1500.875 1347.300781 1427.21875 1315.5625 1346.960938 C 1320.398438 1333.621094 1324.898438 1320.203125 1329.0625 1306.703125 L 1329.34375 1305.71875 C 1330.285156 1303.847656 1332.421875 1303.128906 1334.785156 1303.128906 L 1335.007812 1303.128906 C 1353.097656 1306.019531 1371.242188 1308.542969 1389.429688 1310.710938 C 1395.648438 1311.144531 1402.015625 1311.636719 1408.445312 1312.355469 C 1416.25 1313.070312 1423.828125 1313.789062 1431.632812 1314.28125 C 1433.488281 1388.769531 1465.847656 1460.011719 1474.03125 1476.984375 C 1533.675781 1418.269531 1583.84375 1350.648438 1622.742188 1276.539062 C 1565.171875 1283.148438 1494.746094 1285.328125 1411.847656 1277.101562 C 1405.230469 1276.347656 1398.601562 1275.703125 1391.960938 1275.171875 C 1374.796875 1273.175781 1357.671875 1270.8125 1340.605469 1268.085938 C 1338.117188 1267.699219 1335.601562 1267.53125 1333.082031 1267.59375 "/>
</svg>
