<?xml version="1.0" encoding="UTF-8"?>
<svg xmlns="http://www.w3.org/2000/svg" xmlns:xlink="http://www.w3.org/1999/xlink" width="1400" height="1400" viewBox="0 0 1400 1400">
<path fill-rule="nonzero" fill="rgb(100%, 100%, 100%)" fill-opacity="1" d="M 1400 700 C 1400 1086.617188 1086.617188 1400 700 1400 C 313.382812 1400 0 1086.617188 0 700 C 0 313.382812 313.382812 0 700 0 C 1086.617188 0 1400 313.382812 1400 700 M 1400 700 "/>
<path fill-rule="nonzero" fill="rgb(0%, 0%, 0%)" fill-opacity="1" d="M 716.449219 72.078125 C 626.339844 70.496094 536.949219 88.316406 454.332031 124.328125 C 135.996094 263.101562 -9.570312 633.609375 129.171875 951.945312 C 246.574219 1219.488281 532.742188 1370.90625 819.984375 1317.410156 C 832.234375 1278.40625 842.242188 1235.597656 842.242188 1188.9375 C 842.242188 1182.332031 842.058594 1175.640625 841.695312 1168.859375 C 841.695312 1168.859375 864.203125 1130.53125 881.847656 1080.59375 C 903.765625 1018.90625 892.183594 950.917969 854.25 897.125 C 852.019531 894.171875 849.800781 890.890625 847.414062 887.554688 C 623.960938 887.554688 513.429688 684.917969 485.449219 561.664062 C 473.824219 511.023438 464.429688 505.992188 432.765625 505.992188 C 374.238281 505.992188 332.03125 481.71875 332.03125 481.71875 C 278.273438 506.375 254.21875 496.289062 261.4375 470.609375 C 238.03125 468.046875 238.546875 441.46875 252.765625 417.078125 C 270.625 386.488281 307.125 365.671875 350.777344 365.671875 L 374.148438 365.671875 C 422.429688 365.671875 432.382812 340.429688 482.113281 345.765625 C 489.847656 346.53125 497.023438 347.824219 503.648438 349.484375 C 517.496094 333.625 533.125 327.007812 552.101562 328.257812 C 555.089844 328.640625 556.925781 331.242188 556.324219 333.976562 L 551.753906 355.335938 C 550.089844 363.289062 552.3125 371.578125 557.988281 376.917969 C 598.148438 414.507812 621.183594 478.601562 646.984375 536.453125 C 688.820312 621.730469 789.730469 740.164062 951.703125 588.1875 C 1065.5625 481.328125 1134.304688 392.25 1247.398438 383.5 C 1136.8125 194.226562 935.625 76.21875 716.449219 72.078125 M 449.507812 381.390625 C 432.929688 381.390625 416.347656 394.722656 421.992188 397.117188 C 423.226562 397.621094 425.371094 397.972656 427.796875 398.222656 C 429.546875 408.867188 438.484375 417.070312 449.585938 417.070312 C 460.6875 417.070312 469.460938 408.867188 471.164062 398.222656 C 473.605469 397.972656 475.738281 397.621094 476.972656 397.117188 C 482.617188 394.710938 466.078125 381.390625 449.507812 381.390625 M 1036.84375 985.90625 C 1023.390625 986.234375 1011.335938 994.789062 1007.3125 1007.859375 L 1007.3125 1008.03125 C 987.242188 1072.507812 948.183594 1155.777344 948.183594 1155.777344 C 948.183594 1155.777344 909.3125 1224.5625 887.304688 1301.683594 C 910.917969 1294.847656 934.117188 1286.644531 956.78125 1277.117188 C 1001.070312 1257.710938 1042.984375 1233.28125 1081.695312 1204.304688 C 1075.382812 1191.628906 1068.410156 1179.292969 1060.804688 1167.347656 C 1060.804688 1167.347656 1047.898438 1110.058594 1023.214844 1047.636719 C 1026.976562 1037.261719 1030.476562 1026.824219 1033.714844 1016.324219 L 1033.933594 1015.558594 C 1034.664062 1014.101562 1036.328125 1013.546875 1038.164062 1013.546875 L 1038.339844 1013.546875 C 1052.410156 1015.792969 1066.523438 1017.757812 1080.667969 1019.441406 C 1085.503906 1019.78125 1090.457031 1020.164062 1095.457031 1020.71875 C 1101.527344 1021.277344 1107.421875 1021.835938 1113.492188 1022.21875 C 1114.9375 1080.15625 1140.101562 1135.5625 1146.46875 1148.765625 C 1192.859375 1103.097656 1231.878906 1050.503906 1262.132812 992.863281 C 1217.355469 998.003906 1162.578125 999.699219 1098.101562 993.300781 C 1092.957031 992.714844 1087.800781 992.214844 1082.636719 991.800781 C 1069.285156 990.246094 1055.96875 988.410156 1042.695312 986.289062 C 1040.757812 985.988281 1038.800781 985.859375 1036.84375 985.90625 "/>
</svg>
