<?xml version="1.0" encoding="UTF-8"?>
<svg xmlns="http://www.w3.org/2000/svg" xmlns:xlink="http://www.w3.org/1999/xlink" width="2500" height="2500" viewBox="0 0 2500 2500">
<path fill-rule="nonzero" fill="rgb(100%, 100%, 100%)" fill-opacity="1" d="M 2500 1250 C 2500 1940.390625 1940.390625 2500 1250 2500 C 559.609375 2500 0 1940.390625 0 1250 C 0 559.609375 559.609375 0 1250 0 C 1940.390625 0 2500 559.609375 2500 1250 M 2500 1250 "/>
<path fill-rule="nonzero" fill="rgb(0%, 0%, 0%)" fill-opacity="1" d="M 1279.375 128.710938 C 1118.46875 125.886719 958.835938 157.707031 811.308594 222.011719 C 242.851562 469.824219 -17.089844 1131.445312 230.664062 1699.902344 C 440.3125 2177.65625 951.328125 2448.046875 1464.257812 2352.519531 C 1486.132812 2282.871094 1504.003906 2206.425781 1504.003906 2123.105469 C 1504.003906 2111.308594 1503.679688 2099.355469 1503.027344 2087.246094 C 1503.027344 2087.246094 1543.222656 2018.808594 1574.726562 1929.628906 C 1613.867188 1819.472656 1593.183594 1698.066406 1525.449219 1602.011719 C 1521.464844 1596.738281 1517.5 1590.878906 1513.242188 1584.921875 C 1114.21875 1584.921875 916.835938 1223.066406 866.875 1002.96875 C 846.113281 912.539062 829.335938 903.554688 772.792969 903.554688 C 668.28125 903.554688 592.910156 860.214844 592.910156 860.214844 C 496.914062 904.238281 453.964844 886.230469 466.855469 840.371094 C 425.058594 835.800781 425.976562 788.339844 451.367188 744.785156 C 483.261719 690.15625 548.4375 652.988281 626.386719 652.988281 L 668.125 652.988281 C 754.335938 652.988281 772.109375 607.910156 860.917969 617.441406 C 874.726562 618.808594 887.539062 621.113281 899.375 624.082031 C 924.101562 595.761719 952.011719 583.945312 985.898438 586.171875 C 991.230469 586.855469 994.511719 591.503906 993.4375 596.386719 L 985.273438 634.53125 C 982.304688 648.730469 986.269531 663.535156 996.40625 673.066406 C 1068.125 740.195312 1109.257812 854.648438 1155.332031 957.949219 C 1230.039062 1110.234375 1410.234375 1321.71875 1699.472656 1050.332031 C 1902.792969 859.511719 2025.546875 700.449219 2227.5 684.824219 C 2030.027344 346.832031 1670.757812 136.105469 1279.375 128.710938 M 802.695312 681.054688 C 773.085938 681.054688 743.476562 704.863281 753.554688 709.140625 C 755.761719 710.039062 759.589844 710.664062 763.925781 711.113281 C 767.050781 730.117188 783.007812 744.765625 802.832031 744.765625 C 822.65625 744.765625 838.320312 730.117188 841.367188 711.113281 C 845.722656 710.664062 849.53125 710.039062 851.738281 709.140625 C 861.816406 704.84375 832.285156 681.054688 802.695312 681.054688 M 1851.503906 1760.546875 C 1827.480469 1761.132812 1805.957031 1776.40625 1798.769531 1799.746094 L 1798.769531 1800.058594 C 1762.929688 1915.195312 1693.183594 2063.886719 1693.183594 2063.886719 C 1693.183594 2063.886719 1623.769531 2186.71875 1584.472656 2324.433594 C 1626.640625 2312.226562 1668.066406 2297.582031 1708.535156 2280.566406 C 1787.625 2245.914062 1862.472656 2202.289062 1931.601562 2150.546875 C 1920.328125 2127.910156 1907.878906 2105.882812 1894.296875 2084.550781 C 1894.296875 2084.550781 1871.25 1982.246094 1827.167969 1870.78125 C 1833.886719 1852.253906 1840.136719 1833.613281 1845.917969 1814.863281 L 1846.308594 1813.496094 C 1847.617188 1810.898438 1850.585938 1809.902344 1853.867188 1809.902344 L 1854.179688 1809.902344 C 1879.300781 1813.914062 1904.503906 1817.421875 1929.765625 1820.429688 C 1938.398438 1821.035156 1947.246094 1821.71875 1956.171875 1822.714844 C 1967.011719 1823.710938 1977.539062 1824.707031 1988.378906 1825.390625 C 1990.957031 1928.847656 2035.898438 2027.792969 2047.265625 2051.367188 C 2130.105469 1969.816406 2199.785156 1875.898438 2253.808594 1772.96875 C 2173.847656 1782.148438 2076.035156 1785.175781 1960.898438 1773.75 C 1951.707031 1772.703125 1942.5 1771.808594 1933.28125 1771.074219 C 1909.4375 1768.296875 1885.65625 1765.015625 1861.953125 1761.230469 C 1858.496094 1760.691406 1855 1760.460938 1851.503906 1760.546875 "/>
</svg>
