<?xml version="1.0" encoding="UTF-8"?>
<svg xmlns="http://www.w3.org/2000/svg" xmlns:xlink="http://www.w3.org/1999/xlink" width="3000" height="3000" viewBox="0 0 3000 3000">
<path fill-rule="nonzero" fill="rgb(100%, 100%, 100%)" fill-opacity="1" d="M 3000 1500 C 3000 2328.46875 2328.46875 3000 1500 3000 C 671.53125 3000 0 2328.46875 0 1500 C 0 671.53125 671.53125 0 1500 0 C 2328.46875 0 3000 671.53125 3000 1500 M 3000 1500 "/>
<path fill-rule="nonzero" fill="rgb(0%, 0%, 0%)" fill-opacity="1" d="M 1535.25 154.453125 C 1342.160156 151.0625 1150.601562 189.246094 973.570312 266.414062 C 291.421875 563.789062 -20.507812 1357.734375 276.796875 2039.882812 C 528.375 2613.1875 1141.59375 2937.65625 1757.109375 2823.023438 C 1783.359375 2739.445312 1804.804688 2647.710938 1804.804688 2547.726562 C 1804.804688 2533.570312 1804.414062 2519.226562 1803.632812 2504.695312 C 1803.632812 2504.695312 1851.867188 2422.570312 1889.671875 2315.554688 C 1936.640625 2183.367188 1911.820312 2037.679688 1830.539062 1922.414062 C 1825.757812 1916.085938 1821 1909.054688 1815.890625 1901.90625 C 1337.0625 1901.90625 1100.203125 1467.679688 1040.25 1203.5625 C 1015.335938 1095.046875 995.203125 1084.265625 927.351562 1084.265625 C 801.9375 1084.265625 711.492188 1032.257812 711.492188 1032.257812 C 596.296875 1085.085938 544.757812 1063.476562 560.226562 1008.445312 C 510.070312 1002.960938 511.171875 946.007812 541.640625 893.742188 C 579.914062 828.1875 658.125 783.585938 751.664062 783.585938 L 801.75 783.585938 C 905.203125 783.585938 926.53125 729.492188 1033.101562 740.929688 C 1049.671875 742.570312 1065.046875 745.335938 1079.25 748.898438 C 1108.921875 714.914062 1142.414062 700.734375 1183.078125 703.40625 C 1189.476562 704.226562 1193.414062 709.804688 1192.125 715.664062 L 1182.328125 761.4375 C 1178.765625 778.476562 1183.523438 796.242188 1195.6875 807.679688 C 1281.75 888.234375 1331.109375 1025.578125 1386.398438 1149.539062 C 1476.046875 1332.28125 1692.28125 1586.0625 2039.367188 1260.398438 C 2283.351562 1031.414062 2430.65625 840.539062 2673 821.789062 C 2436.03125 416.199219 2004.90625 163.328125 1535.25 154.453125 M 963.234375 817.265625 C 927.703125 817.265625 892.171875 845.835938 904.265625 850.96875 C 906.914062 852.046875 911.507812 852.796875 916.710938 853.335938 C 920.460938 876.140625 939.609375 893.71875 963.398438 893.71875 C 987.1875 893.71875 1005.984375 876.140625 1009.640625 853.335938 C 1014.867188 852.796875 1019.4375 852.046875 1022.085938 850.96875 C 1034.179688 845.8125 998.742188 817.265625 963.234375 817.265625 M 2221.804688 2112.65625 C 2192.976562 2113.359375 2167.148438 2131.6875 2158.523438 2159.695312 L 2158.523438 2160.070312 C 2115.515625 2298.234375 2031.820312 2476.664062 2031.820312 2476.664062 C 2031.820312 2476.664062 1948.523438 2624.0625 1901.367188 2789.320312 C 1951.96875 2774.671875 2001.679688 2757.097656 2050.242188 2736.679688 C 2145.152344 2695.097656 2234.96875 2642.746094 2317.921875 2580.65625 C 2304.394531 2553.492188 2289.453125 2527.058594 2273.15625 2501.460938 C 2273.15625 2501.460938 2245.5 2378.695312 2192.601562 2244.9375 C 2200.664062 2222.703125 2208.164062 2200.335938 2215.101562 2177.835938 L 2215.570312 2176.195312 C 2217.140625 2173.078125 2220.703125 2171.882812 2224.640625 2171.882812 L 2225.015625 2171.882812 C 2255.164062 2176.695312 2285.402344 2180.90625 2315.71875 2184.515625 C 2326.078125 2185.242188 2336.695312 2186.0625 2347.40625 2187.257812 C 2360.414062 2188.453125 2373.046875 2189.648438 2386.054688 2190.46875 C 2389.148438 2314.617188 2443.078125 2433.351562 2456.71875 2461.640625 C 2556.128906 2363.78125 2639.742188 2251.078125 2704.570312 2127.5625 C 2608.617188 2138.578125 2491.242188 2142.210938 2353.078125 2128.5 C 2342.050781 2127.242188 2331 2126.171875 2319.9375 2125.289062 C 2291.324219 2121.957031 2262.789062 2118.019531 2234.34375 2113.476562 C 2230.195312 2112.828125 2226 2112.554688 2221.804688 2112.65625 "/>
</svg>
