<?xml version="1.0" encoding="UTF-8"?>
<svg xmlns="http://www.w3.org/2000/svg" xmlns:xlink="http://www.w3.org/1999/xlink" width="250" height="250" viewBox="0 0 250 250">
<path fill-rule="nonzero" fill="rgb(100%, 100%, 100%)" fill-opacity="1" d="M 250 125 C 250 194.039062 194.039062 250 125 250 C 55.960938 250 0 194.039062 0 125 C 0 55.960938 55.960938 0 125 0 C 194.039062 0 250 55.960938 250 125 M 250 125 "/>
<path fill-rule="nonzero" fill="rgb(0%, 0%, 0%)" fill-opacity="1" d="M 127.9375 12.871094 C 111.847656 12.589844 95.882812 15.769531 81.132812 22.203125 C 24.285156 46.984375 -1.710938 113.144531 23.066406 169.992188 C 44.03125 217.765625 95.132812 244.804688 146.425781 235.25 C 148.613281 228.289062 150.398438 220.640625 150.398438 212.3125 C 150.398438 211.132812 150.367188 209.9375 150.304688 208.726562 C 150.304688 208.726562 154.320312 201.882812 157.472656 192.960938 C 161.386719 181.945312 159.320312 169.804688 152.546875 160.203125 C 152.148438 159.671875 151.75 159.085938 151.324219 158.492188 C 111.421875 158.492188 91.683594 122.304688 86.6875 100.296875 C 84.613281 91.253906 82.933594 90.355469 77.28125 90.355469 C 66.828125 90.355469 59.292969 86.023438 59.292969 86.023438 C 49.691406 90.421875 45.398438 88.625 46.6875 84.039062 C 42.507812 83.578125 42.597656 78.835938 45.136719 74.476562 C 48.328125 69.015625 54.84375 65.296875 62.640625 65.296875 L 66.8125 65.296875 C 75.433594 65.296875 77.210938 60.789062 86.09375 61.742188 C 87.472656 61.882812 88.753906 62.109375 89.9375 62.40625 C 92.410156 59.578125 95.203125 58.394531 98.589844 58.617188 C 99.125 58.6875 99.453125 59.148438 99.34375 59.640625 L 98.527344 63.453125 C 98.230469 64.871094 98.628906 66.351562 99.640625 67.304688 C 106.8125 74.019531 110.925781 85.464844 115.535156 95.796875 C 123.003906 111.023438 141.023438 132.171875 169.945312 105.03125 C 190.28125 85.953125 202.554688 70.046875 222.75 68.484375 C 203.003906 34.683594 167.074219 13.609375 127.9375 12.871094 M 80.269531 68.105469 C 77.308594 68.105469 74.347656 70.484375 75.355469 70.914062 C 75.578125 71.003906 75.960938 71.066406 76.390625 71.109375 C 76.703125 73.011719 78.300781 74.476562 80.28125 74.476562 C 82.265625 74.476562 83.832031 73.011719 84.136719 71.109375 C 84.570312 71.066406 84.953125 71.003906 85.171875 70.914062 C 86.179688 70.484375 83.226562 68.105469 80.269531 68.105469 M 185.148438 176.054688 C 182.75 176.113281 180.59375 177.640625 179.875 179.976562 L 179.875 180.007812 C 176.292969 191.519531 169.316406 206.390625 169.316406 206.390625 C 169.316406 206.390625 162.375 218.671875 158.445312 232.445312 C 162.664062 231.222656 166.804688 229.757812 170.851562 228.058594 C 178.761719 224.589844 186.246094 220.230469 193.160156 215.054688 C 192.03125 212.792969 190.789062 210.589844 189.429688 208.457031 C 189.429688 208.457031 187.125 198.226562 182.71875 187.078125 C 183.390625 185.226562 184.011719 183.363281 184.59375 181.488281 L 184.628906 181.351562 C 184.761719 181.089844 185.058594 180.992188 185.386719 180.992188 L 185.417969 180.992188 C 187.929688 181.390625 190.449219 181.742188 192.976562 182.042969 C 193.839844 182.105469 194.726562 182.171875 195.617188 182.273438 C 196.703125 182.371094 197.753906 182.472656 198.835938 182.539062 C 199.097656 192.886719 203.589844 202.78125 204.726562 205.136719 C 213.011719 196.980469 219.976562 187.589844 225.382812 177.296875 C 217.386719 178.214844 207.601562 178.519531 196.089844 177.375 C 195.171875 177.269531 194.25 177.179688 193.328125 177.109375 C 190.945312 176.828125 188.566406 176.5 186.195312 176.125 C 185.851562 176.070312 185.5 176.046875 185.152344 176.054688 "/>
</svg>
