<?xml version="1.0" encoding="UTF-8"?>
<svg xmlns="http://www.w3.org/2000/svg" xmlns:xlink="http://www.w3.org/1999/xlink" width="64" height="64" viewBox="0 0 64 64">
<path fill-rule="nonzero" fill="rgb(100%, 100%, 100%)" fill-opacity="1" d="M 64 32 C 64 49.675781 49.675781 64 32 64 C 14.324219 64 0 49.675781 0 32 C 0 14.324219 14.324219 0 32 0 C 49.675781 0 64 14.324219 64 32 M 64 32 "/>
<path fill-rule="nonzero" fill="rgb(0%, 0%, 0%)" fill-opacity="1" d="M 32.753906 3.296875 C 28.632812 3.222656 24.546875 4.039062 20.769531 5.683594 C 6.21875 12.027344 -0.4375 28.964844 5.90625 43.515625 C 11.273438 55.746094 24.355469 62.671875 37.484375 60.222656 C 38.046875 58.441406 38.503906 56.484375 38.503906 54.351562 C 38.503906 54.050781 38.496094 53.742188 38.476562 53.433594 C 38.476562 53.433594 39.507812 51.679688 40.3125 49.398438 C 41.316406 46.578125 40.785156 43.46875 39.050781 41.011719 C 38.949219 40.875 38.847656 40.726562 38.738281 40.574219 C 28.523438 40.574219 23.472656 31.308594 22.191406 25.675781 C 21.660156 23.359375 21.230469 23.132812 19.785156 23.132812 C 17.109375 23.132812 15.179688 22.023438 15.179688 22.023438 C 12.722656 23.148438 11.621094 22.6875 11.953125 21.511719 C 10.882812 21.398438 10.90625 20.179688 11.554688 19.066406 C 12.371094 17.667969 14.039062 16.714844 16.035156 16.714844 L 17.105469 16.714844 C 19.3125 16.714844 19.765625 15.5625 22.039062 15.804688 C 22.394531 15.839844 22.722656 15.902344 23.023438 15.976562 C 23.65625 15.25 24.371094 14.949219 25.238281 15.007812 C 25.375 15.023438 25.460938 15.140625 25.433594 15.265625 L 25.222656 16.242188 C 25.148438 16.609375 25.25 16.988281 25.507812 17.230469 C 27.34375 18.949219 28.398438 21.878906 29.578125 24.523438 C 31.488281 28.421875 36.101562 33.835938 43.507812 26.886719 C 48.710938 22.003906 51.855469 17.929688 57.023438 17.53125 C 51.96875 8.878906 42.769531 3.484375 32.753906 3.296875 M 20.550781 17.433594 C 19.789062 17.433594 19.03125 18.042969 19.289062 18.152344 C 19.347656 18.175781 19.445312 18.191406 19.554688 18.203125 C 19.636719 18.691406 20.046875 19.066406 20.550781 19.066406 C 21.058594 19.066406 21.460938 18.691406 21.539062 18.203125 C 21.652344 18.191406 21.746094 18.175781 21.804688 18.152344 C 22.0625 18.042969 21.304688 17.433594 20.550781 17.433594 M 47.398438 45.070312 C 46.785156 45.085938 46.234375 45.476562 46.046875 46.074219 L 46.046875 46.082031 C 45.132812 49.027344 43.34375 52.835938 43.34375 52.835938 C 43.34375 52.835938 41.570312 55.980469 40.5625 59.503906 C 41.640625 59.191406 42.703125 58.816406 43.738281 58.382812 C 45.761719 57.496094 47.679688 56.378906 49.449219 55.054688 C 49.160156 54.472656 48.839844 53.910156 48.492188 53.363281 C 48.492188 53.363281 47.902344 50.746094 46.777344 47.890625 C 46.949219 47.417969 47.109375 46.941406 47.253906 46.460938 L 47.265625 46.425781 C 47.300781 46.359375 47.375 46.332031 47.460938 46.332031 L 47.46875 46.332031 C 48.109375 46.4375 48.753906 46.527344 49.402344 46.601562 C 49.621094 46.617188 49.847656 46.636719 50.078125 46.660156 C 50.355469 46.6875 50.625 46.710938 50.902344 46.730469 C 50.96875 49.378906 52.117188 51.910156 52.410156 52.515625 C 54.53125 50.425781 56.316406 48.023438 57.699219 45.386719 C 55.652344 45.621094 53.148438 45.699219 50.199219 45.40625 C 49.964844 45.382812 49.726562 45.359375 49.492188 45.339844 C 48.882812 45.269531 48.273438 45.183594 47.664062 45.085938 C 47.578125 45.074219 47.488281 45.066406 47.398438 45.070312 "/>
</svg>
