<?xml version="1.0" encoding="UTF-8"?>
<svg xmlns="http://www.w3.org/2000/svg" xmlns:xlink="http://www.w3.org/1999/xlink" width="1500" height="1500" viewBox="0 0 1500 1500">
<path fill-rule="nonzero" fill="rgb(100%, 100%, 100%)" fill-opacity="1" d="M 1500 750 C 1500 1164.234375 1164.234375 1500 750 1500 C 335.765625 1500 0 1164.234375 0 750 C 0 335.765625 335.765625 0 750 0 C 1164.234375 0 1500 335.765625 1500 750 M 1500 750 "/>
<path fill-rule="nonzero" fill="rgb(0%, 0%, 0%)" fill-opacity="1" d="M 767.625 77.226562 C 671.082031 75.53125 575.300781 94.625 486.785156 133.207031 C 145.710938 281.894531 -10.253906 678.867188 138.398438 1019.941406 C 264.1875 1306.59375 570.796875 1468.828125 878.554688 1411.511719 C 891.679688 1369.722656 902.402344 1323.855469 902.402344 1273.863281 C 902.402344 1266.785156 902.207031 1259.613281 901.816406 1252.347656 C 901.816406 1252.347656 925.933594 1211.285156 944.835938 1157.777344 C 968.320312 1091.683594 955.910156 1018.839844 915.269531 961.207031 C 912.878906 958.042969 910.5 954.527344 907.945312 950.953125 C 668.53125 950.953125 550.101562 733.839844 520.125 601.78125 C 507.667969 547.523438 497.601562 542.132812 463.675781 542.132812 C 400.96875 542.132812 355.746094 516.128906 355.746094 516.128906 C 298.148438 542.542969 272.378906 531.738281 280.113281 504.222656 C 255.035156 501.480469 255.585938 473.003906 270.820312 446.871094 C 289.957031 414.09375 329.0625 391.792969 375.832031 391.792969 L 400.875 391.792969 C 452.601562 391.792969 463.265625 364.746094 516.550781 370.464844 C 524.835938 371.285156 532.523438 372.667969 539.625 374.449219 C 554.460938 357.457031 571.207031 350.367188 591.539062 351.703125 C 594.738281 352.113281 596.707031 354.902344 596.0625 357.832031 L 591.164062 380.71875 C 589.382812 389.238281 591.761719 398.121094 597.84375 403.839844 C 640.875 444.117188 665.554688 512.789062 693.199219 574.769531 C 738.023438 666.140625 846.140625 793.03125 1019.683594 630.199219 C 1141.675781 515.707031 1215.328125 420.269531 1336.5 410.894531 C 1218.015625 208.101562 1002.453125 81.664062 767.625 77.226562 M 481.617188 408.632812 C 463.851562 408.632812 446.085938 422.917969 452.132812 425.484375 C 453.457031 426.023438 455.753906 426.398438 458.355469 426.667969 C 460.230469 438.070312 469.804688 446.859375 481.699219 446.859375 C 493.59375 446.859375 502.992188 438.070312 504.820312 426.667969 C 507.433594 426.398438 509.71875 426.023438 511.042969 425.484375 C 517.089844 422.90625 499.371094 408.632812 481.617188 408.632812 M 1110.902344 1056.328125 C 1096.488281 1056.679688 1083.574219 1065.84375 1079.261719 1079.847656 L 1079.261719 1080.035156 C 1057.757812 1149.117188 1015.910156 1238.332031 1015.910156 1238.332031 C 1015.910156 1238.332031 974.261719 1312.03125 950.683594 1394.660156 C 975.984375 1387.335938 1000.839844 1378.546875 1025.121094 1368.339844 C 1072.574219 1347.550781 1117.484375 1321.375 1158.960938 1290.328125 C 1152.199219 1276.746094 1144.726562 1263.527344 1136.578125 1250.730469 C 1136.578125 1250.730469 1122.75 1189.347656 1096.300781 1122.46875 C 1100.332031 1111.351562 1104.082031 1100.167969 1107.550781 1088.917969 L 1107.785156 1088.097656 C 1108.570312 1086.539062 1110.351562 1085.941406 1112.320312 1085.941406 L 1112.507812 1085.941406 C 1127.582031 1088.347656 1142.703125 1090.453125 1157.859375 1092.257812 C 1163.039062 1092.621094 1168.347656 1093.03125 1173.703125 1093.628906 C 1180.207031 1094.226562 1186.523438 1094.824219 1193.027344 1095.234375 C 1194.574219 1157.308594 1221.539062 1216.675781 1228.359375 1230.820312 C 1278.0625 1181.890625 1319.871094 1125.539062 1352.285156 1063.78125 C 1304.308594 1069.289062 1245.621094 1071.105469 1176.539062 1064.25 C 1171.023438 1063.621094 1165.5 1063.085938 1159.96875 1062.644531 C 1145.664062 1060.976562 1131.394531 1059.007812 1117.171875 1056.738281 C 1115.097656 1056.414062 1113 1056.277344 1110.902344 1056.328125 "/>
</svg>
