<?xml version="1.0" encoding="UTF-8"?>
<svg xmlns="http://www.w3.org/2000/svg" xmlns:xlink="http://www.w3.org/1999/xlink" width="32" height="32" viewBox="0 0 32 32">
<path fill-rule="nonzero" fill="rgb(100%, 100%, 100%)" fill-opacity="1" d="M 32 16 C 32 24.835938 24.835938 32 16 32 C 7.164062 32 0 24.835938 0 16 C 0 7.164062 7.164062 0 16 0 C 24.835938 0 32 7.164062 32 16 M 32 16 "/>
<path fill-rule="nonzero" fill="rgb(0%, 35.294118%, 49.019608%)" fill-opacity="1" d="M 16.296875 0.00390625 C 14 -0.0351562 11.722656 0.417969 9.617188 1.335938 C 1.507812 4.867188 -2.203125 14.308594 1.335938 22.417969 C 4.324219 29.234375 11.617188 33.089844 18.933594 31.730469 C 19.246094 30.734375 19.5 29.644531 19.5 28.457031 C 19.5 28.285156 19.496094 28.117188 19.488281 27.945312 C 19.488281 27.945312 20.058594 26.96875 20.507812 25.695312 C 21.066406 24.125 20.773438 22.390625 19.804688 21.023438 C 19.75 20.949219 19.691406 20.863281 19.632812 20.777344 C 13.941406 20.777344 11.125 15.617188 10.410156 12.476562 C 10.117188 11.183594 9.875 11.058594 9.070312 11.058594 C 7.578125 11.058594 6.5 10.441406 6.5 10.441406 C 5.132812 11.066406 4.519531 10.808594 4.703125 10.15625 C 4.109375 10.089844 4.121094 9.414062 4.484375 8.792969 C 4.9375 8.011719 5.867188 7.484375 6.980469 7.484375 L 7.578125 7.484375 C 8.804688 7.484375 9.058594 6.839844 10.328125 6.976562 C 10.523438 6.996094 10.707031 7.027344 10.875 7.070312 C 11.226562 6.664062 11.625 6.496094 12.109375 6.53125 C 12.183594 6.539062 12.230469 6.605469 12.21875 6.675781 L 12.097656 7.21875 C 12.058594 7.421875 12.113281 7.632812 12.257812 7.769531 C 13.28125 8.726562 13.871094 10.359375 14.527344 11.832031 C 15.589844 14.003906 18.164062 17.023438 22.289062 13.152344 C 25.191406 10.429688 26.941406 8.160156 29.820312 7.9375 C 27.003906 3.113281 21.878906 0.109375 16.296875 0.00390625 M 9.496094 7.882812 C 9.074219 7.882812 8.652344 8.222656 8.796875 8.285156 C 8.828125 8.296875 8.878906 8.304688 8.941406 8.3125 C 8.988281 8.582031 9.214844 8.792969 9.496094 8.792969 C 9.78125 8.792969 10.003906 8.582031 10.046875 8.3125 C 10.109375 8.304688 10.164062 8.296875 10.195312 8.285156 C 10.339844 8.222656 9.917969 7.882812 9.496094 7.882812 M 24.460938 23.285156 C 24.117188 23.292969 23.808594 23.507812 23.707031 23.84375 L 23.707031 23.847656 C 23.195312 25.492188 22.199219 27.609375 22.199219 27.609375 C 22.199219 27.609375 21.210938 29.363281 20.648438 31.328125 C 21.25 31.152344 21.839844 30.945312 22.417969 30.703125 C 23.546875 30.207031 24.617188 29.585938 25.601562 28.847656 C 25.441406 28.523438 25.261719 28.210938 25.070312 27.90625 C 25.070312 27.90625 24.742188 26.445312 24.109375 24.855469 C 24.207031 24.59375 24.296875 24.328125 24.378906 24.058594 L 24.382812 24.039062 C 24.402344 24.003906 24.445312 23.988281 24.492188 23.988281 L 24.496094 23.988281 C 24.824219 24.039062 25.171875 24.089844 25.578125 24.140625 C 25.699219 24.148438 25.824219 24.15625 25.953125 24.171875 C 26.105469 24.183594 26.257812 24.199219 26.410156 24.210938 C 26.449219 25.683594 27.089844 27.097656 27.25 27.433594 C 28.433594 26.269531 29.425781 24.929688 30.195312 23.460938 C 29.058594 23.59375 27.660156 23.636719 26.019531 23.472656 C 25.890625 23.457031 25.757812 23.445312 25.625 23.433594 C 25.285156 23.394531 24.945312 23.347656 24.609375 23.292969 C 24.558594 23.285156 24.507812 23.28125 24.460938 23.285156 "/>
</svg>
