<?xml version="1.0" encoding="UTF-8"?>
<svg xmlns="http://www.w3.org/2000/svg" xmlns:xlink="http://www.w3.org/1999/xlink" width="1800" height="1800" viewBox="0 0 1800 1800">
<path fill-rule="nonzero" fill="rgb(100%, 100%, 100%)" fill-opacity="1" d="M 1800 900 C 1800 1397.082031 1397.082031 1800 900 1800 C 402.917969 1800 0 1397.082031 0 900 C 0 402.917969 402.917969 0 900 0 C 1397.082031 0 1800 402.917969 1800 900 M 1800 900 "/>
<path fill-rule="nonzero" fill="rgb(0%, 35.294118%, 49.019608%)" fill-opacity="1" d="M 916.707031 0.167969 C 787.5625 -2.078125 659.441406 23.453125 541.027344 75.039062 C 84.867188 273.882812 -123.820312 804.910156 75.039062 1261.070312 C 243.296875 1644.425781 653.414062 1861.410156 1065.007812 1784.785156 C 1082.53125 1728.859375 1096.929688 1667.503906 1096.929688 1600.648438 C 1096.929688 1591.144531 1096.648438 1581.652344 1096.15625 1571.863281 C 1096.15625 1571.863281 1128.359375 1516.992188 1153.671875 1445.414062 C 1185.089844 1356.976562 1168.4375 1259.578125 1114.074219 1182.515625 C 1110.9375 1178.296875 1107.746094 1173.515625 1104.34375 1168.777344 C 784.097656 1168.777344 625.726562 878.414062 585.578125 701.804688 C 568.984375 629.183594 555.46875 621.984375 510.144531 621.984375 C 426.261719 621.984375 365.722656 587.222656 365.722656 587.222656 C 288.71875 622.492188 254.277344 608.089844 264.613281 571.289062 C 231.101562 567.605469 231.75 529.539062 252.195312 494.550781 C 277.734375 450.71875 330.03125 420.890625 392.652344 420.890625 L 426.164062 420.890625 C 495.324219 420.890625 509.554688 384.75 580.851562 392.371094 C 591.890625 393.425781 602.226562 395.28125 611.71875 397.644531 C 631.492188 374.960938 653.960938 365.457031 681.160156 367.328125 C 685.378906 367.820312 688.023438 371.546875 687.25 375.511719 L 680.597656 406.109375 C 678.234375 417.472656 681.425781 429.34375 689.609375 437.046875 C 747.125 490.867188 780.144531 582.722656 817.101562 665.605469 C 877.035156 787.824219 1021.667969 957.570312 1253.757812 739.8125 C 1416.910156 586.671875 1515.460938 458.957031 1677.5 446.429688 C 1519.03125 175.226562 1230.757812 6.136719 916.707031 0.167969 M 534.09375 443.460938 C 510.328125 443.460938 486.632812 462.53125 494.71875 465.933594 C 496.476562 466.691406 499.542969 467.199219 503.015625 467.578125 C 505.546875 482.792969 518.34375 494.550781 534.207031 494.550781 C 550.140625 494.550781 562.726562 482.792969 565.144531 467.578125 C 568.660156 467.199219 571.726562 466.707031 573.484375 465.933594 C 581.554688 462.53125 557.832031 443.460938 534.109375 443.460938 M 1375.820312 1309.738281 C 1356.539062 1310.230469 1339.226562 1322.421875 1333.460938 1341.15625 L 1333.460938 1341.4375 C 1304.675781 1433.828125 1248.765625 1553.132812 1248.765625 1553.132812 C 1248.765625 1553.132812 1193.0625 1651.738281 1161.535156 1762.214844 C 1195.363281 1752.421875 1228.59375 1740.683594 1261.070312 1727.058594 C 1324.5625 1699.246094 1384.648438 1664.226562 1440.140625 1622.6875 C 1431.058594 1604.546875 1421.046875 1586.890625 1410.144531 1569.78125 C 1410.144531 1569.78125 1391.695312 1487.65625 1356.257812 1398.179688 C 1361.632812 1383.339844 1366.648438 1368.371094 1371.304688 1353.289062 L 1371.585938 1352.25 C 1372.625 1350.113281 1375.046875 1349.339844 1377.6875 1349.339844 L 1377.96875 1349.339844 C 1396.421875 1352.25 1415.910156 1355.160156 1438.664062 1357.804688 C 1445.527344 1358.351562 1452.613281 1358.84375 1459.757812 1359.617188 C 1468.476562 1360.433594 1476.941406 1361.207031 1485.632812 1361.757812 C 1487.714844 1444.808594 1523.742188 1524.179688 1532.867188 1543.132812 C 1599.320312 1477.675781 1655.226562 1402.316406 1698.59375 1319.738281 C 1634.441406 1327.050781 1555.945312 1329.511719 1463.609375 1320.34375 C 1456.246094 1319.460938 1448.859375 1318.746094 1441.460938 1318.191406 C 1422.308594 1315.996094 1403.207031 1313.363281 1384.171875 1310.289062 C 1381.410156 1309.855469 1378.613281 1309.667969 1375.820312 1309.726562 "/>
</svg>
