<?xml version="1.0" encoding="UTF-8"?>
<svg xmlns="http://www.w3.org/2000/svg" xmlns:xlink="http://www.w3.org/1999/xlink" width="700" height="700" viewBox="0 0 700 700">
<path fill-rule="nonzero" fill="rgb(100%, 100%, 100%)" fill-opacity="1" d="M 700 350 C 700 543.308594 543.308594 700 350 700 C 156.691406 700 0 543.308594 0 350 C 0 156.691406 156.691406 0 350 0 C 543.308594 0 700 156.691406 700 350 M 700 350 "/>
<path fill-rule="nonzero" fill="rgb(0%, 35.294118%, 49.019608%)" fill-opacity="1" d="M 356.496094 0.0664062 C 306.273438 -0.808594 256.449219 9.121094 210.398438 29.179688 C 33.003906 106.507812 -48.152344 313.019531 29.179688 490.414062 C 94.613281 639.5 254.105469 723.882812 414.171875 694.082031 C 420.984375 672.332031 426.585938 648.472656 426.585938 622.476562 C 426.585938 618.777344 426.476562 615.085938 426.285156 611.28125 C 426.285156 611.28125 438.808594 589.941406 448.652344 562.105469 C 460.867188 527.710938 454.394531 489.835938 433.25 459.867188 C 432.03125 458.226562 430.789062 456.367188 429.464844 454.523438 C 304.925781 454.523438 243.335938 341.605469 227.722656 272.921875 C 221.269531 244.683594 216.015625 241.882812 198.390625 241.882812 C 165.769531 241.882812 142.226562 228.363281 142.226562 228.363281 C 112.277344 242.078125 98.886719 236.480469 102.90625 222.167969 C 89.875 220.734375 90.125 205.929688 98.078125 192.324219 C 108.007812 175.277344 128.347656 163.679688 152.699219 163.679688 L 165.730469 163.679688 C 192.625 163.679688 198.160156 149.625 225.886719 152.589844 C 230.179688 153 234.199219 153.722656 237.890625 154.640625 C 245.578125 145.820312 254.320312 142.121094 264.894531 142.847656 C 266.535156 143.039062 267.5625 144.488281 267.261719 146.03125 L 264.675781 157.933594 C 263.757812 162.351562 265 166.964844 268.183594 169.964844 C 290.550781 190.890625 303.390625 226.613281 317.761719 258.847656 C 341.070312 306.375 397.316406 372.390625 487.570312 287.707031 C 551.019531 228.152344 589.34375 178.484375 652.363281 173.609375 C 590.734375 68.144531 478.628906 2.386719 356.496094 0.0664062 M 207.703125 172.457031 C 198.460938 172.457031 189.246094 179.871094 192.390625 181.195312 C 193.074219 181.492188 194.265625 181.6875 195.617188 181.835938 C 196.601562 187.753906 201.578125 192.324219 207.746094 192.324219 C 213.941406 192.324219 218.835938 187.753906 219.777344 181.835938 C 221.144531 181.6875 222.335938 181.496094 223.019531 181.195312 C 226.160156 179.871094 216.933594 172.457031 207.707031 172.457031 M 535.039062 509.34375 C 527.542969 509.535156 520.8125 514.277344 518.570312 521.558594 L 518.570312 521.667969 C 507.375 557.597656 485.628906 603.996094 485.628906 603.996094 C 485.628906 603.996094 463.96875 642.34375 451.707031 685.304688 C 464.863281 681.496094 477.789062 676.933594 490.414062 671.632812 C 515.109375 660.816406 538.472656 647.199219 560.054688 631.042969 C 556.523438 623.992188 552.628906 617.125 548.390625 610.472656 C 548.390625 610.472656 541.214844 578.535156 527.433594 543.734375 C 529.523438 537.964844 531.476562 532.144531 533.285156 526.28125 L 533.394531 525.875 C 533.800781 525.042969 534.738281 524.742188 535.769531 524.742188 L 535.878906 524.742188 C 543.050781 525.875 550.632812 527.007812 559.480469 528.035156 C 562.148438 528.25 564.90625 528.441406 567.683594 528.742188 C 571.074219 529.058594 574.367188 529.359375 577.746094 529.570312 C 578.554688 561.871094 592.566406 592.734375 596.117188 600.109375 C 621.957031 574.652344 643.699219 545.34375 660.566406 513.230469 C 635.617188 516.074219 605.089844 517.03125 569.183594 513.464844 C 566.316406 513.125 563.445312 512.84375 560.570312 512.628906 C 553.121094 511.777344 545.691406 510.753906 538.289062 509.554688 C 537.214844 509.386719 536.128906 509.316406 535.039062 509.335938 "/>
</svg>
