<?xml version="1.0" encoding="UTF-8"?>
<svg xmlns="http://www.w3.org/2000/svg" xmlns:xlink="http://www.w3.org/1999/xlink" width="300" height="300" viewBox="0 0 300 300">
<path fill-rule="nonzero" fill="rgb(100%, 100%, 100%)" fill-opacity="1" d="M 300 150 C 300 232.847656 232.847656 300 150 300 C 67.152344 300 0 232.847656 0 150 C 0 67.152344 67.152344 0 150 0 C 232.847656 0 300 67.152344 300 150 M 300 150 "/>
<path fill-rule="nonzero" fill="rgb(0%, 35.294118%, 49.019608%)" fill-opacity="1" d="M 152.785156 0.0273438 C 131.261719 -0.347656 109.90625 3.910156 90.171875 12.507812 C 14.144531 45.648438 -20.636719 134.152344 12.507812 210.179688 C 40.550781 274.070312 108.902344 310.234375 177.5 297.464844 C 180.421875 288.144531 182.820312 277.917969 182.820312 266.773438 C 182.820312 265.191406 182.773438 263.609375 182.691406 261.976562 C 182.691406 261.976562 188.058594 252.832031 192.277344 240.902344 C 197.515625 226.164062 194.738281 209.929688 185.679688 197.085938 C 185.15625 196.382812 184.625 195.585938 184.058594 194.796875 C 130.683594 194.796875 104.289062 146.402344 97.597656 116.96875 C 94.832031 104.863281 92.578125 103.664062 85.023438 103.664062 C 71.042969 103.664062 60.953125 97.871094 60.953125 97.871094 C 48.121094 103.75 42.378906 101.347656 44.101562 95.214844 C 38.515625 94.601562 38.625 88.257812 42.03125 82.425781 C 46.289062 75.121094 55.003906 70.148438 65.441406 70.148438 L 71.027344 70.148438 C 82.554688 70.148438 84.925781 64.125 96.808594 65.394531 C 98.648438 65.570312 100.371094 65.878906 101.953125 66.273438 C 105.25 62.492188 108.992188 60.910156 113.527344 61.222656 C 114.230469 61.304688 114.671875 61.925781 114.542969 62.585938 L 113.433594 67.683594 C 113.039062 69.578125 113.570312 71.558594 114.933594 72.839844 C 124.519531 81.8125 130.023438 97.121094 136.183594 110.933594 C 146.171875 131.304688 170.277344 159.59375 208.960938 123.300781 C 236.152344 97.777344 252.578125 76.492188 279.582031 74.40625 C 253.171875 29.203125 205.125 1.023438 152.785156 0.0273438 M 89.015625 73.910156 C 85.054688 73.910156 81.105469 77.089844 82.453125 77.65625 C 82.746094 77.78125 83.257812 77.867188 83.835938 77.929688 C 84.257812 80.464844 86.390625 82.425781 89.035156 82.425781 C 91.691406 82.425781 93.789062 80.464844 94.191406 77.929688 C 94.777344 77.867188 95.289062 77.785156 95.582031 77.65625 C 96.925781 77.089844 92.972656 73.910156 89.019531 73.910156 M 229.304688 218.289062 C 226.089844 218.371094 223.203125 220.402344 222.242188 223.527344 L 222.242188 223.574219 C 217.445312 238.972656 208.128906 258.855469 208.128906 258.855469 C 208.128906 258.855469 198.84375 275.289062 193.589844 293.703125 C 199.226562 292.070312 204.765625 290.113281 210.179688 287.84375 C 220.761719 283.207031 230.773438 277.371094 240.023438 270.449219 C 238.507812 267.425781 236.839844 264.480469 235.023438 261.628906 C 235.023438 261.628906 231.949219 247.941406 226.042969 233.03125 C 226.9375 230.554688 227.773438 228.0625 228.550781 225.546875 L 228.597656 225.375 C 228.769531 225.019531 229.175781 224.890625 229.613281 224.890625 L 229.660156 224.890625 C 232.738281 225.375 235.984375 225.859375 239.777344 226.300781 C 240.921875 226.390625 242.101562 226.472656 243.292969 226.601562 C 244.746094 226.738281 246.15625 226.867188 247.605469 226.960938 C 247.953125 240.800781 253.957031 254.03125 255.476562 257.1875 C 266.554688 246.28125 275.871094 233.71875 283.097656 219.957031 C 272.40625 221.175781 259.324219 221.585938 243.933594 220.058594 C 242.707031 219.910156 241.476562 219.789062 240.242188 219.699219 C 237.050781 219.332031 233.867188 218.894531 230.695312 218.382812 C 230.234375 218.308594 229.769531 218.277344 229.304688 218.289062 "/>
</svg>
