<?xml version="1.0" encoding="UTF-8"?>
<svg xmlns="http://www.w3.org/2000/svg" xmlns:xlink="http://www.w3.org/1999/xlink" width="2000" height="2000" viewBox="0 0 2000 2000">
<path fill-rule="nonzero" fill="rgb(100%, 100%, 100%)" fill-opacity="1" d="M 2000 1000 C 2000 1552.3125 1552.3125 2000 1000 2000 C 447.6875 2000 0 1552.3125 0 1000 C 0 447.6875 447.6875 0 1000 0 C 1552.3125 0 2000 447.6875 2000 1000 M 2000 1000 "/>
<path fill-rule="nonzero" fill="rgb(0%, 35.294118%, 49.019608%)" fill-opacity="1" d="M 1018.5625 0.1875 C 875.070312 -2.308594 732.714844 26.058594 601.140625 83.375 C 94.296875 304.3125 -137.578125 894.34375 83.375 1401.1875 C 270.328125 1827.140625 726.015625 2068.234375 1183.34375 1983.09375 C 1202.8125 1920.953125 1218.8125 1852.78125 1218.8125 1778.5 C 1218.8125 1767.9375 1218.5 1757.390625 1217.953125 1746.515625 C 1217.953125 1746.515625 1253.734375 1685.546875 1281.859375 1606.015625 C 1316.765625 1507.75 1298.265625 1399.53125 1237.859375 1313.90625 C 1234.375 1309.21875 1230.828125 1303.90625 1227.046875 1298.640625 C 871.21875 1298.640625 695.25 976.015625 650.640625 779.78125 C 632.203125 699.09375 617.1875 691.09375 566.828125 691.09375 C 473.625 691.09375 406.359375 652.46875 406.359375 652.46875 C 320.796875 691.65625 282.53125 675.65625 294.015625 634.765625 C 256.78125 630.671875 257.5 588.375 280.21875 549.5 C 308.59375 500.796875 366.703125 467.65625 436.28125 467.65625 L 473.515625 467.65625 C 550.359375 467.65625 566.171875 427.5 645.390625 435.96875 C 657.65625 437.140625 669.140625 439.203125 679.6875 441.828125 C 701.65625 416.625 726.625 406.0625 756.84375 408.140625 C 761.53125 408.6875 764.46875 412.828125 763.609375 417.234375 L 756.21875 451.234375 C 753.59375 463.859375 757.140625 477.046875 766.234375 485.609375 C 830.140625 545.40625 866.828125 647.46875 907.890625 739.5625 C 974.484375 875.359375 1135.1875 1063.96875 1393.0625 822.015625 C 1574.34375 651.859375 1683.84375 509.953125 1863.890625 496.03125 C 1687.808594 194.699219 1367.507812 6.816406 1018.5625 0.1875 M 593.4375 492.734375 C 567.03125 492.734375 540.703125 513.921875 549.6875 517.703125 C 551.640625 518.546875 555.046875 519.109375 558.90625 519.53125 C 561.71875 536.4375 575.9375 549.5 593.5625 549.5 C 611.265625 549.5 625.25 536.4375 627.9375 519.53125 C 631.84375 519.109375 635.25 518.5625 637.203125 517.703125 C 646.171875 513.921875 619.8125 492.734375 593.453125 492.734375 M 1528.6875 1455.265625 C 1507.265625 1455.8125 1488.03125 1469.359375 1481.625 1490.171875 L 1481.625 1490.484375 C 1449.640625 1593.140625 1387.515625 1725.703125 1387.515625 1725.703125 C 1387.515625 1725.703125 1325.625 1835.265625 1290.59375 1958.015625 C 1328.179688 1947.136719 1365.105469 1934.09375 1401.1875 1918.953125 C 1471.734375 1888.050781 1538.496094 1849.140625 1600.15625 1802.984375 C 1590.0625 1782.832031 1578.941406 1763.210938 1566.828125 1744.203125 C 1566.828125 1744.203125 1546.328125 1652.953125 1506.953125 1553.53125 C 1512.925781 1537.042969 1518.5 1520.414062 1523.671875 1503.65625 L 1523.984375 1502.5 C 1525.140625 1500.125 1527.828125 1499.265625 1530.765625 1499.265625 L 1531.078125 1499.265625 C 1551.578125 1502.5 1573.234375 1505.734375 1598.515625 1508.671875 C 1606.140625 1509.28125 1614.015625 1509.828125 1621.953125 1510.6875 C 1631.640625 1511.59375 1641.046875 1512.453125 1650.703125 1513.0625 C 1653.015625 1605.34375 1693.046875 1693.53125 1703.1875 1714.59375 C 1777.023438 1641.863281 1839.140625 1558.128906 1887.328125 1466.375 C 1816.046875 1474.5 1728.828125 1477.234375 1626.234375 1467.046875 C 1618.050781 1466.070312 1609.84375 1465.273438 1601.625 1464.65625 C 1580.339844 1462.21875 1559.117188 1459.292969 1537.96875 1455.875 C 1534.898438 1455.394531 1531.792969 1455.1875 1528.6875 1455.25 "/>
</svg>
