<?xml version="1.0" encoding="UTF-8"?>
<svg xmlns="http://www.w3.org/2000/svg" xmlns:xlink="http://www.w3.org/1999/xlink" width="500" height="500" viewBox="0 0 500 500">
<path fill-rule="nonzero" fill="rgb(100%, 100%, 100%)" fill-opacity="1" d="M 500 250 C 500 388.078125 388.078125 500 250 500 C 111.921875 500 0 388.078125 0 250 C 0 111.921875 111.921875 0 250 0 C 388.078125 0 500 111.921875 500 250 M 500 250 "/>
<path fill-rule="nonzero" fill="rgb(0%, 35.294118%, 49.019608%)" fill-opacity="1" d="M 254.640625 0.046875 C 218.765625 -0.578125 183.179688 6.515625 150.285156 20.84375 C 23.574219 76.078125 -34.394531 223.585938 20.84375 350.296875 C 67.582031 456.785156 181.503906 517.058594 295.835938 495.773438 C 300.703125 480.238281 304.703125 463.195312 304.703125 444.625 C 304.703125 441.984375 304.625 439.347656 304.488281 436.628906 C 304.488281 436.628906 313.433594 421.386719 320.464844 401.503906 C 329.191406 376.9375 324.566406 349.882812 309.464844 328.476562 C 308.59375 327.304688 307.707031 325.976562 306.761719 324.660156 C 217.804688 324.660156 173.8125 244.003906 162.660156 194.945312 C 158.050781 174.773438 154.296875 172.773438 141.707031 172.773438 C 118.40625 172.773438 101.589844 163.117188 101.589844 163.117188 C 80.199219 172.914062 70.632812 168.914062 73.503906 158.691406 C 64.195312 157.667969 64.375 147.09375 70.054688 137.375 C 77.148438 125.199219 91.675781 116.914062 109.070312 116.914062 L 118.378906 116.914062 C 137.589844 116.914062 141.542969 106.875 161.347656 108.992188 C 164.414062 109.285156 167.285156 109.800781 169.921875 110.457031 C 175.414062 104.15625 181.65625 101.515625 189.210938 102.035156 C 190.382812 102.171875 191.117188 103.207031 190.902344 104.308594 L 189.054688 112.808594 C 188.398438 115.964844 189.285156 119.261719 191.558594 121.402344 C 207.535156 136.351562 216.707031 161.867188 226.972656 184.890625 C 243.621094 218.839844 283.796875 265.992188 348.265625 205.503906 C 393.585938 162.964844 420.960938 127.488281 465.972656 124.007812 C 421.953125 48.675781 341.875 1.703125 254.640625 0.046875 M 148.359375 123.183594 C 141.757812 123.183594 135.175781 128.480469 137.421875 129.425781 C 137.910156 129.636719 138.761719 129.777344 139.726562 129.882812 C 140.429688 134.109375 143.984375 137.375 148.390625 137.375 C 152.816406 137.375 156.3125 134.109375 156.984375 129.882812 C 157.960938 129.777344 158.8125 129.640625 159.300781 129.425781 C 161.542969 128.480469 154.953125 123.183594 148.363281 123.183594 M 382.171875 363.816406 C 376.816406 363.953125 372.007812 367.339844 370.40625 372.542969 L 370.40625 372.621094 C 362.410156 398.285156 346.878906 431.425781 346.878906 431.425781 C 346.878906 431.425781 331.40625 458.816406 322.648438 489.503906 C 332.046875 486.785156 341.277344 483.523438 350.296875 479.738281 C 367.933594 472.011719 384.625 462.285156 400.039062 450.746094 C 397.515625 445.707031 394.734375 440.804688 391.707031 436.050781 C 391.707031 436.050781 386.582031 413.238281 376.738281 388.382812 C 378.230469 384.261719 379.625 380.101562 380.917969 375.914062 L 380.996094 375.625 C 381.285156 375.03125 381.957031 374.816406 382.691406 374.816406 L 382.769531 374.816406 C 387.894531 375.625 393.308594 376.433594 399.628906 377.167969 C 401.535156 377.320312 403.503906 377.457031 405.488281 377.671875 C 407.910156 377.898438 410.261719 378.113281 412.675781 378.265625 C 413.253906 401.335938 423.261719 423.382812 425.796875 428.648438 C 444.253906 410.464844 459.785156 389.53125 471.832031 366.59375 C 454.011719 368.625 432.207031 369.308594 406.558594 366.761719 C 404.511719 366.515625 402.460938 366.316406 400.40625 366.164062 C 395.085938 365.554688 389.777344 364.824219 384.492188 363.96875 C 383.726562 363.847656 382.949219 363.796875 382.171875 363.8125 "/>
</svg>
