<?xml version="1.0" encoding="UTF-8"?>
<svg xmlns="http://www.w3.org/2000/svg" xmlns:xlink="http://www.w3.org/1999/xlink" width="1500" height="1500" viewBox="0 0 1500 1500">
<path fill-rule="nonzero" fill="rgb(100%, 100%, 100%)" fill-opacity="1" d="M 1500 750 C 1500 1164.234375 1164.234375 1500 750 1500 C 335.765625 1500 0 1164.234375 0 750 C 0 335.765625 335.765625 0 750 0 C 1164.234375 0 1500 335.765625 1500 750 M 1500 750 "/>
<path fill-rule="nonzero" fill="rgb(0%, 35.294118%, 49.019608%)" fill-opacity="1" d="M 763.921875 0.140625 C 656.300781 -1.734375 549.535156 19.542969 450.855469 62.53125 C 70.722656 228.234375 -103.183594 670.757812 62.53125 1050.890625 C 202.746094 1370.355469 544.511719 1551.175781 887.507812 1487.320312 C 902.109375 1440.714844 914.109375 1389.585938 914.109375 1333.875 C 914.109375 1325.953125 913.875 1318.042969 913.464844 1309.886719 C 913.464844 1309.886719 940.300781 1264.160156 961.394531 1204.511719 C 987.574219 1130.8125 973.699219 1049.648438 928.394531 985.429688 C 925.78125 981.914062 923.121094 977.929688 920.285156 973.980469 C 653.414062 973.980469 521.4375 732.011719 487.980469 584.835938 C 474.152344 524.320312 462.890625 518.320312 425.121094 518.320312 C 355.21875 518.320312 304.769531 489.351562 304.769531 489.351562 C 240.597656 518.742188 211.898438 506.742188 220.511719 476.074219 C 192.585938 473.003906 193.125 441.28125 210.164062 412.125 C 231.445312 375.597656 275.027344 350.742188 327.210938 350.742188 L 355.136719 350.742188 C 412.769531 350.742188 424.628906 320.625 484.042969 326.976562 C 493.242188 327.855469 501.855469 329.402344 509.765625 331.371094 C 526.242188 312.46875 544.96875 304.546875 567.632812 306.105469 C 571.148438 306.515625 573.351562 309.621094 572.707031 312.925781 L 567.164062 338.425781 C 565.195312 347.894531 567.855469 357.785156 574.675781 364.207031 C 622.605469 409.054688 650.121094 485.601562 680.917969 554.671875 C 730.863281 656.519531 851.390625 797.976562 1044.796875 616.511719 C 1180.757812 488.894531 1262.882812 382.464844 1397.917969 372.023438 C 1265.859375 146.023438 1025.628906 5.113281 763.921875 0.140625 M 445.078125 369.550781 C 425.273438 369.550781 405.527344 385.441406 412.265625 388.277344 C 413.730469 388.910156 416.285156 389.332031 419.179688 389.648438 C 421.289062 402.328125 431.953125 412.125 445.171875 412.125 C 458.449219 412.125 468.9375 402.328125 470.953125 389.648438 C 473.882812 389.332031 476.4375 388.921875 477.902344 388.277344 C 484.628906 385.441406 464.859375 369.550781 445.089844 369.550781 M 1146.515625 1091.449219 C 1130.449219 1091.859375 1116.023438 1102.019531 1111.21875 1117.628906 L 1111.21875 1117.863281 C 1087.230469 1194.855469 1040.636719 1294.277344 1040.636719 1294.277344 C 1040.636719 1294.277344 994.21875 1376.449219 967.945312 1468.511719 C 996.136719 1460.351562 1023.828125 1450.570312 1050.890625 1439.214844 C 1103.800781 1416.039062 1153.875 1386.855469 1200.117188 1352.238281 C 1192.546875 1337.125 1184.203125 1322.410156 1175.121094 1308.152344 C 1175.121094 1308.152344 1159.746094 1239.714844 1130.214844 1165.148438 C 1134.695312 1152.78125 1138.875 1140.308594 1142.753906 1127.742188 L 1142.988281 1126.875 C 1143.855469 1125.09375 1145.871094 1124.449219 1148.074219 1124.449219 L 1148.308594 1124.449219 C 1163.683594 1126.875 1179.925781 1129.300781 1198.886719 1131.503906 C 1204.605469 1131.960938 1210.511719 1132.371094 1216.464844 1133.015625 C 1223.730469 1133.695312 1230.785156 1134.339844 1238.027344 1134.796875 C 1239.761719 1204.007812 1269.785156 1270.148438 1277.390625 1285.945312 C 1332.765625 1231.398438 1379.355469 1168.597656 1415.496094 1099.78125 C 1362.035156 1105.875 1296.621094 1107.925781 1219.675781 1100.285156 C 1213.539062 1099.550781 1207.382812 1098.953125 1201.21875 1098.492188 C 1185.257812 1096.664062 1169.335938 1094.46875 1153.476562 1091.90625 C 1151.175781 1091.546875 1148.84375 1091.390625 1146.515625 1091.4375 "/>
</svg>
