<?xml version="1.0" encoding="UTF-8"?>
<svg xmlns="http://www.w3.org/2000/svg" xmlns:xlink="http://www.w3.org/1999/xlink" width="1100" height="1100" viewBox="0 0 1100 1100">
<path fill-rule="nonzero" fill="rgb(100%, 100%, 100%)" fill-opacity="1" d="M 1100 550 C 1100 853.773438 853.773438 1100 550 1100 C 246.226562 1100 0 853.773438 0 550 C 0 246.226562 246.226562 0 550 0 C 853.773438 0 1100 246.226562 1100 550 M 1100 550 "/>
<path fill-rule="nonzero" fill="rgb(0%, 35.294118%, 49.019608%)" fill-opacity="1" d="M 560.210938 0.101562 C 481.289062 -1.269531 402.992188 14.332031 330.628906 45.855469 C 51.863281 167.371094 -75.667969 491.890625 45.855469 770.652344 C 148.679688 1004.925781 399.308594 1137.527344 650.839844 1090.703125 C 661.546875 1056.523438 670.347656 1019.03125 670.347656 978.175781 C 670.347656 972.367188 670.175781 966.566406 669.875 960.582031 C 669.875 960.582031 689.554688 927.050781 705.023438 883.308594 C 724.222656 829.261719 714.046875 769.742188 680.824219 722.648438 C 678.90625 720.070312 676.957031 717.148438 674.875 714.253906 C 479.171875 714.253906 382.386719 536.808594 357.851562 428.878906 C 347.710938 384.5 339.453125 380.101562 311.753906 380.101562 C 260.492188 380.101562 223.496094 358.859375 223.496094 358.859375 C 176.4375 380.410156 155.390625 371.609375 161.707031 349.121094 C 141.230469 346.871094 141.625 323.605469 154.121094 302.226562 C 169.726562 275.4375 201.6875 257.210938 239.953125 257.210938 L 260.433594 257.210938 C 302.699219 257.210938 311.394531 235.125 354.964844 239.78125 C 361.710938 240.425781 368.027344 241.5625 373.828125 243.003906 C 385.910156 229.144531 399.644531 223.335938 416.265625 224.476562 C 418.84375 224.777344 420.457031 227.054688 419.984375 229.480469 L 415.921875 248.179688 C 414.476562 255.121094 416.425781 262.375 421.429688 267.085938 C 456.578125 299.972656 476.753906 356.109375 499.339844 406.757812 C 535.964844 481.449219 624.351562 585.183594 766.183594 452.109375 C 865.890625 358.523438 926.113281 280.472656 1025.140625 272.816406 C 928.296875 107.082031 752.128906 3.75 560.210938 0.101562 M 326.390625 271.003906 C 311.867188 271.003906 297.386719 282.65625 302.328125 284.738281 C 303.402344 285.199219 305.277344 285.511719 307.398438 285.742188 C 308.945312 295.039062 316.765625 302.226562 326.460938 302.226562 C 336.195312 302.226562 343.886719 295.039062 345.367188 285.742188 C 347.515625 285.511719 349.386719 285.210938 350.460938 284.738281 C 355.394531 282.65625 340.898438 271.003906 326.398438 271.003906 M 840.777344 800.394531 C 828.996094 800.695312 818.417969 808.148438 814.894531 819.59375 L 814.894531 819.765625 C 797.300781 876.226562 763.132812 949.136719 763.132812 949.136719 C 763.132812 949.136719 729.09375 1009.394531 709.828125 1076.910156 C 730.5 1070.925781 750.808594 1063.75 770.652344 1055.425781 C 809.453125 1038.429688 846.171875 1017.027344 880.085938 991.640625 C 874.535156 980.558594 868.417969 969.765625 861.753906 959.3125 C 861.753906 959.3125 850.480469 909.125 828.824219 854.441406 C 832.109375 845.375 835.175781 836.226562 838.019531 827.011719 L 838.191406 826.375 C 838.828125 825.070312 840.304688 824.597656 841.921875 824.597656 L 842.09375 824.597656 C 853.367188 826.375 865.277344 828.152344 879.183594 829.769531 C 883.378906 830.105469 887.707031 830.40625 892.074219 830.878906 C 897.402344 831.375 902.574219 831.847656 907.886719 832.183594 C 909.160156 882.9375 931.175781 931.441406 936.753906 943.027344 C 977.363281 903.023438 1011.527344 856.972656 1038.03125 806.507812 C 998.824219 810.976562 950.855469 812.480469 894.429688 806.875 C 889.925781 806.339844 885.414062 805.898438 880.894531 805.5625 C 869.1875 804.222656 857.515625 802.609375 845.882812 800.730469 C 844.195312 800.46875 842.488281 800.351562 840.777344 800.386719 "/>
</svg>
