<?xml version="1.0" encoding="UTF-8"?>
<svg xmlns="http://www.w3.org/2000/svg" xmlns:xlink="http://www.w3.org/1999/xlink" width="1000" height="1000" viewBox="0 0 1000 1000">
<path fill-rule="nonzero" fill="rgb(100%, 100%, 100%)" fill-opacity="1" d="M 1000 500 C 1000 776.15625 776.15625 1000 500 1000 C 223.84375 1000 0 776.15625 0 500 C 0 223.84375 223.84375 0 500 0 C 776.15625 0 1000 223.84375 1000 500 M 1000 500 "/>
<path fill-rule="nonzero" fill="rgb(0%, 35.294118%, 49.019608%)" fill-opacity="1" d="M 509.28125 0.09375 C 437.535156 -1.15625 366.355469 13.03125 300.570312 41.6875 C 47.148438 152.15625 -68.789062 447.171875 41.6875 700.59375 C 135.164062 913.570312 363.007812 1034.117188 591.671875 991.546875 C 601.40625 960.476562 609.40625 926.390625 609.40625 889.25 C 609.40625 883.96875 609.25 878.695312 608.976562 873.257812 C 608.976562 873.257812 626.867188 842.773438 640.929688 803.007812 C 658.382812 753.875 649.132812 699.765625 618.929688 656.953125 C 617.1875 654.609375 615.414062 651.953125 613.523438 649.320312 C 435.609375 649.320312 347.625 488.007812 325.320312 389.890625 C 316.101562 349.546875 308.59375 345.546875 283.414062 345.546875 C 236.8125 345.546875 203.179688 326.234375 203.179688 326.234375 C 160.398438 345.828125 141.265625 337.828125 147.007812 317.382812 C 128.390625 315.335938 128.75 294.1875 140.109375 274.75 C 154.296875 250.398438 183.351562 233.828125 218.140625 233.828125 L 236.757812 233.828125 C 275.179688 233.828125 283.085938 213.75 322.695312 217.984375 C 328.828125 218.570312 334.570312 219.601562 339.84375 220.914062 C 350.828125 208.3125 363.3125 203.03125 378.421875 204.070312 C 380.765625 204.34375 382.234375 206.414062 381.804688 208.617188 L 378.109375 225.617188 C 376.796875 231.929688 378.570312 238.523438 383.117188 242.804688 C 415.070312 272.703125 433.414062 323.734375 453.945312 369.78125 C 487.242188 437.679688 567.59375 531.984375 696.53125 411.007812 C 787.171875 325.929688 841.921875 254.976562 931.945312 248.015625 C 843.90625 97.347656 683.753906 3.410156 509.28125 0.09375 M 296.71875 246.367188 C 283.515625 246.367188 270.351562 256.960938 274.84375 258.851562 C 275.820312 259.273438 277.523438 259.554688 279.453125 259.765625 C 280.859375 268.21875 287.96875 274.75 296.78125 274.75 C 305.632812 274.75 312.625 268.21875 313.96875 259.765625 C 315.921875 259.554688 317.625 259.28125 318.601562 258.851562 C 323.085938 256.960938 309.90625 246.367188 296.726562 246.367188 M 764.34375 727.632812 C 753.632812 727.90625 744.015625 734.679688 740.8125 745.085938 L 740.8125 745.242188 C 724.820312 796.570312 693.757812 862.851562 693.757812 862.851562 C 693.757812 862.851562 662.8125 917.632812 645.296875 979.007812 C 664.089844 973.566406 682.554688 967.046875 700.59375 959.476562 C 735.867188 944.027344 769.25 924.570312 800.078125 901.492188 C 795.03125 891.414062 789.46875 881.605469 783.414062 872.101562 C 783.414062 872.101562 773.164062 826.476562 753.476562 776.765625 C 756.460938 768.519531 759.25 760.207031 761.835938 751.828125 L 761.992188 751.25 C 762.570312 750.0625 763.914062 749.632812 765.382812 749.632812 L 765.539062 749.632812 C 775.789062 751.25 786.617188 752.867188 799.257812 754.335938 C 803.070312 754.640625 807.007812 754.914062 810.976562 755.34375 C 815.820312 755.796875 820.523438 756.226562 825.351562 756.53125 C 826.507812 802.671875 846.523438 846.765625 851.59375 857.296875 C 888.511719 820.933594 919.570312 779.066406 943.664062 733.1875 C 908.023438 737.25 864.414062 738.617188 813.117188 733.523438 C 809.023438 733.035156 804.921875 732.636719 800.8125 732.328125 C 790.171875 731.109375 779.558594 729.644531 768.984375 727.9375 C 767.449219 727.699219 765.898438 727.59375 764.34375 727.625 "/>
</svg>
