<?xml version="1.0" encoding="UTF-8"?>
<svg xmlns="http://www.w3.org/2000/svg" xmlns:xlink="http://www.w3.org/1999/xlink" width="1600" height="1600" viewBox="0 0 1600 1600">
<path fill-rule="nonzero" fill="rgb(100%, 100%, 100%)" fill-opacity="1" d="M 1600 800 C 1600 1241.851562 1241.851562 1600 800 1600 C 358.148438 1600 0 1241.851562 0 800 C 0 358.148438 358.148438 0 800 0 C 1241.851562 0 1600 358.148438 1600 800 M 1600 800 "/>
<path fill-rule="nonzero" fill="rgb(0%, 35.294118%, 49.019608%)" fill-opacity="1" d="M 814.851562 0.148438 C 700.054688 -1.847656 586.171875 20.847656 480.914062 66.699219 C 75.4375 243.449219 -110.0625 715.476562 66.699219 1120.949219 C 216.261719 1461.710938 580.8125 1654.585938 946.675781 1586.476562 C 962.25 1536.761719 975.050781 1482.226562 975.050781 1422.800781 C 975.050781 1414.351562 974.800781 1405.914062 974.363281 1397.210938 C 974.363281 1397.210938 1002.988281 1348.4375 1025.488281 1284.8125 C 1053.414062 1206.199219 1038.613281 1119.625 990.289062 1051.125 C 987.5 1047.375 984.664062 1043.125 981.636719 1038.914062 C 696.976562 1038.914062 556.199219 780.8125 520.511719 623.824219 C 505.761719 559.273438 493.75 552.875 453.460938 552.875 C 378.898438 552.875 325.085938 521.976562 325.085938 521.976562 C 256.636719 553.324219 226.023438 540.523438 235.210938 507.8125 C 205.425781 504.539062 206 470.699219 224.175781 439.601562 C 246.875 400.636719 293.363281 374.125 349.023438 374.125 L 378.8125 374.125 C 440.289062 374.125 452.9375 342 516.3125 348.773438 C 526.125 349.710938 535.3125 351.363281 543.75 353.460938 C 561.324219 333.300781 581.300781 324.851562 605.476562 326.511719 C 609.226562 326.949219 611.574219 330.261719 610.886719 333.789062 L 604.976562 360.988281 C 602.875 371.085938 605.710938 381.636719 612.988281 388.488281 C 664.113281 436.324219 693.460938 517.976562 726.3125 591.648438 C 779.585938 700.289062 908.148438 851.175781 1114.449219 657.613281 C 1259.476562 521.488281 1347.074219 407.960938 1491.113281 396.824219 C 1350.25 155.757812 1094.003906 5.453125 814.851562 0.148438 M 474.75 394.1875 C 453.625 394.1875 432.5625 411.136719 439.75 414.164062 C 441.3125 414.835938 444.039062 415.289062 447.125 415.625 C 449.375 429.148438 460.75 439.601562 474.851562 439.601562 C 489.011719 439.601562 500.199219 429.148438 502.351562 415.625 C 505.476562 415.289062 508.199219 414.851562 509.761719 414.164062 C 516.9375 411.136719 495.851562 394.1875 474.761719 394.1875 M 1222.949219 1164.210938 C 1205.8125 1164.648438 1190.425781 1175.488281 1185.300781 1192.136719 L 1185.300781 1192.386719 C 1159.710938 1274.511719 1110.011719 1380.5625 1110.011719 1380.5625 C 1110.011719 1380.5625 1060.5 1468.210938 1032.476562 1566.414062 C 1062.542969 1557.707031 1092.085938 1547.273438 1120.949219 1535.164062 C 1177.390625 1510.441406 1230.796875 1479.3125 1280.125 1442.386719 C 1272.050781 1426.265625 1263.152344 1410.570312 1253.460938 1395.363281 C 1253.460938 1395.363281 1237.0625 1322.363281 1205.5625 1242.824219 C 1210.339844 1229.632812 1214.800781 1216.332031 1218.9375 1202.925781 L 1219.1875 1202 C 1220.113281 1200.101562 1222.261719 1199.414062 1224.613281 1199.414062 L 1224.863281 1199.414062 C 1241.261719 1202 1258.585938 1204.585938 1278.8125 1206.9375 C 1284.914062 1207.425781 1291.210938 1207.863281 1297.5625 1208.550781 C 1305.3125 1209.273438 1312.835938 1209.960938 1320.5625 1210.449219 C 1322.414062 1284.273438 1354.4375 1354.824219 1362.550781 1371.675781 C 1421.617188 1313.492188 1471.3125 1246.503906 1509.863281 1173.101562 C 1452.835938 1179.601562 1383.0625 1181.789062 1300.988281 1173.636719 C 1294.441406 1172.855469 1287.875 1172.21875 1281.300781 1171.726562 C 1264.273438 1169.777344 1247.292969 1167.433594 1230.375 1164.699219 C 1227.917969 1164.316406 1225.433594 1164.148438 1222.949219 1164.199219 "/>
</svg>
