<?xml version="1.0" encoding="UTF-8"?>
<svg xmlns="http://www.w3.org/2000/svg" xmlns:xlink="http://www.w3.org/1999/xlink" width="2250" height="2250" viewBox="0 0 2250 2250">
<path fill-rule="nonzero" fill="rgb(100%, 100%, 100%)" fill-opacity="1" d="M 2250 1125 C 2250 1746.351562 1746.351562 2250 1125 2250 C 503.648438 2250 0 1746.351562 0 1125 C 0 503.648438 503.648438 0 1125 0 C 1746.351562 0 2250 503.648438 2250 1125 M 2250 1125 "/>
<path fill-rule="nonzero" fill="rgb(0%, 35.294118%, 49.019608%)" fill-opacity="1" d="M 1145.882812 0.210938 C 984.453125 -2.597656 824.304688 29.316406 676.285156 93.796875 C 106.085938 342.351562 -154.773438 1006.136719 93.796875 1576.335938 C 304.121094 2055.53125 816.765625 2326.765625 1331.261719 2230.980469 C 1353.164062 2161.070312 1371.164062 2084.378906 1371.164062 2000.8125 C 1371.164062 1988.929688 1370.8125 1977.066406 1370.195312 1964.832031 C 1370.195312 1964.832031 1410.449219 1896.242188 1442.089844 1806.769531 C 1481.359375 1696.21875 1460.546875 1574.472656 1392.589844 1478.144531 C 1388.671875 1472.871094 1384.679688 1466.894531 1380.425781 1460.96875 C 980.121094 1460.96875 782.15625 1098.015625 731.96875 877.253906 C 711.226562 786.480469 694.335938 777.480469 637.679688 777.480469 C 532.828125 777.480469 457.152344 734.027344 457.152344 734.027344 C 360.894531 778.113281 317.847656 760.113281 330.765625 714.109375 C 288.878906 709.503906 289.6875 661.921875 315.246094 618.1875 C 347.167969 563.394531 412.539062 526.113281 490.816406 526.113281 L 532.703125 526.113281 C 619.152344 526.113281 636.941406 480.9375 726.0625 490.464844 C 739.863281 491.78125 752.78125 494.101562 764.648438 497.054688 C 789.363281 468.703125 817.453125 456.820312 851.449219 459.15625 C 856.722656 459.773438 860.027344 464.429688 859.058594 469.386719 L 850.746094 507.636719 C 847.792969 521.84375 851.78125 536.679688 862.011719 546.3125 C 933.90625 613.582031 975.179688 728.402344 1021.375 832.007812 C 1096.296875 984.777344 1277.085938 1196.964844 1567.195312 924.765625 C 1771.136719 733.339844 1894.324219 573.695312 2096.875 558.035156 C 1898.785156 219.035156 1538.445312 7.667969 1145.882812 0.210938 M 667.617188 554.328125 C 637.910156 554.328125 608.289062 578.164062 618.398438 582.414062 C 620.59375 583.367188 624.429688 584 628.769531 584.472656 C 631.933594 603.492188 647.929688 618.1875 667.757812 618.1875 C 687.671875 618.1875 703.40625 603.492188 706.429688 584.472656 C 710.824219 584 714.65625 583.382812 716.855469 582.414062 C 726.945312 578.164062 697.289062 554.328125 667.636719 554.328125 M 1719.773438 1637.171875 C 1695.675781 1637.789062 1674.035156 1653.03125 1666.828125 1676.445312 L 1666.828125 1676.792969 C 1630.847656 1792.28125 1560.957031 1941.414062 1560.957031 1941.414062 C 1560.957031 1941.414062 1491.328125 2064.671875 1451.917969 2202.765625 C 1494.203125 2190.527344 1535.746094 2175.855469 1576.335938 2158.824219 C 1655.703125 2124.058594 1730.808594 2080.28125 1800.175781 2028.359375 C 1788.820312 2005.683594 1776.308594 1983.613281 1762.683594 1962.226562 C 1762.683594 1962.226562 1739.621094 1859.570312 1695.324219 1747.722656 C 1702.039062 1729.171875 1708.3125 1710.464844 1714.128906 1691.613281 L 1714.484375 1690.3125 C 1715.785156 1687.640625 1718.804688 1686.671875 1722.113281 1686.671875 L 1722.460938 1686.671875 C 1745.523438 1690.3125 1769.890625 1693.949219 1798.332031 1697.253906 C 1806.90625 1697.941406 1815.769531 1698.554688 1824.699219 1699.523438 C 1835.597656 1700.542969 1846.179688 1701.507812 1857.042969 1702.195312 C 1859.640625 1806.011719 1904.679688 1905.222656 1916.085938 1928.917969 C 1999.148438 1847.097656 2069.03125 1752.894531 2123.242188 1649.671875 C 2043.054688 1658.8125 1944.929688 1661.886719 1829.515625 1650.429688 C 1820.304688 1649.328125 1811.074219 1648.433594 1801.828125 1647.738281 C 1777.882812 1644.996094 1754.007812 1641.703125 1730.214844 1637.859375 C 1726.761719 1637.320312 1723.269531 1637.085938 1719.773438 1637.15625 "/>
</svg>
