<?xml version="1.0" encoding="UTF-8"?>
<svg xmlns="http://www.w3.org/2000/svg" xmlns:xlink="http://www.w3.org/1999/xlink" width="600" height="600" viewBox="0 0 600 600">
<path fill-rule="nonzero" fill="rgb(100%, 100%, 100%)" fill-opacity="1" d="M 600 300 C 600 465.695312 465.695312 600 300 600 C 134.304688 600 0 465.695312 0 300 C 0 134.304688 134.304688 0 300 0 C 465.695312 0 600 134.304688 600 300 M 600 300 "/>
<path fill-rule="nonzero" fill="rgb(0%, 35.294118%, 49.019608%)" fill-opacity="1" d="M 305.570312 0.0546875 C 262.519531 -0.691406 219.8125 7.816406 180.34375 25.011719 C 28.289062 91.292969 -41.273438 268.304688 25.011719 420.355469 C 81.097656 548.140625 217.804688 620.46875 355.003906 594.929688 C 360.84375 576.285156 365.644531 555.835938 365.644531 533.550781 C 365.644531 530.382812 365.550781 527.21875 365.386719 523.953125 C 365.386719 523.953125 376.121094 505.664062 384.558594 481.804688 C 395.03125 452.324219 389.480469 419.859375 371.359375 394.171875 C 370.3125 392.765625 369.25 391.171875 368.113281 389.59375 C 261.367188 389.59375 208.574219 292.804688 195.191406 233.933594 C 189.660156 209.726562 185.15625 207.328125 170.046875 207.328125 C 142.085938 207.328125 121.90625 195.742188 121.90625 195.742188 C 96.238281 207.496094 84.757812 202.695312 88.203125 190.429688 C 77.035156 189.203125 77.25 176.511719 84.066406 164.851562 C 92.578125 150.238281 110.011719 140.296875 130.882812 140.296875 L 142.054688 140.296875 C 165.109375 140.296875 169.851562 128.25 193.617188 130.789062 C 197.296875 131.140625 200.742188 131.761719 203.90625 132.546875 C 210.496094 124.988281 217.988281 121.820312 227.054688 122.441406 C 228.460938 122.605469 229.339844 123.847656 229.082031 125.171875 L 226.867188 135.371094 C 226.078125 139.15625 227.140625 143.113281 229.871094 145.683594 C 249.042969 163.621094 260.046875 194.242188 272.367188 221.867188 C 292.34375 262.609375 340.554688 319.191406 417.917969 246.605469 C 472.304688 195.558594 505.152344 152.984375 559.167969 148.808594 C 506.34375 58.410156 410.253906 2.046875 305.570312 0.0546875 M 178.03125 147.820312 C 170.109375 147.820312 162.210938 154.175781 164.90625 155.3125 C 165.492188 155.5625 166.515625 155.734375 167.671875 155.859375 C 168.515625 160.929688 172.78125 164.851562 178.070312 164.851562 C 183.378906 164.851562 187.574219 160.929688 188.382812 155.859375 C 189.554688 155.734375 190.574219 155.570312 191.160156 155.3125 C 193.851562 154.175781 185.945312 147.820312 178.035156 147.820312 M 458.605469 436.578125 C 452.179688 436.742188 446.410156 440.808594 444.488281 447.050781 L 444.488281 447.144531 C 434.890625 477.941406 416.253906 517.710938 416.253906 517.710938 C 416.253906 517.710938 397.6875 550.578125 387.179688 587.40625 C 398.453125 584.140625 409.53125 580.226562 420.355469 575.6875 C 441.519531 566.414062 461.550781 554.742188 480.046875 540.894531 C 477.019531 534.847656 473.683594 528.964844 470.046875 523.261719 C 470.046875 523.261719 463.898438 495.886719 452.085938 466.058594 C 453.878906 461.113281 455.550781 456.125 457.101562 451.097656 L 457.195312 450.75 C 457.542969 450.039062 458.347656 449.78125 459.230469 449.78125 L 459.324219 449.78125 C 465.472656 450.75 471.96875 451.71875 479.554688 452.601562 C 481.84375 452.785156 484.203125 452.949219 486.585938 453.207031 C 489.492188 453.476562 492.3125 453.734375 495.210938 453.917969 C 495.90625 481.601562 507.914062 508.058594 510.957031 514.378906 C 533.105469 492.558594 551.742188 467.4375 566.199219 439.914062 C 544.8125 442.351562 518.648438 443.171875 487.871094 440.113281 C 485.414062 439.820312 482.953125 439.582031 480.488281 439.398438 C 474.101562 438.664062 467.734375 437.789062 461.390625 436.761719 C 460.46875 436.617188 459.539062 436.554688 458.605469 436.574219 "/>
</svg>
