<?xml version="1.0" encoding="UTF-8"?>
<svg xmlns="http://www.w3.org/2000/svg" xmlns:xlink="http://www.w3.org/1999/xlink" width="400" height="400" viewBox="0 0 400 400">
<path fill-rule="nonzero" fill="rgb(100%, 100%, 100%)" fill-opacity="1" d="M 400 200 C 400 310.460938 310.460938 400 200 400 C 89.539062 400 0 310.460938 0 200 C 0 89.539062 89.539062 0 200 0 C 310.460938 0 400 89.539062 400 200 M 400 200 "/>
<path fill-rule="nonzero" fill="rgb(0%, 35.294118%, 49.019608%)" fill-opacity="1" d="M 203.710938 0.0390625 C 175.015625 -0.460938 146.542969 5.210938 120.226562 16.675781 C 18.859375 60.863281 -27.515625 178.867188 16.675781 280.238281 C 54.066406 365.429688 145.203125 413.648438 236.667969 396.617188 C 240.5625 384.191406 243.761719 370.554688 243.761719 355.699219 C 243.761719 353.585938 243.699219 351.476562 243.589844 349.304688 C 243.589844 349.304688 250.746094 337.109375 256.371094 321.203125 C 263.351562 301.550781 259.652344 279.90625 247.570312 262.78125 C 246.875 261.84375 246.164062 260.78125 245.410156 259.726562 C 174.242188 259.726562 139.050781 195.203125 130.128906 155.957031 C 126.441406 139.820312 123.4375 138.21875 113.367188 138.21875 C 94.726562 138.21875 81.273438 130.492188 81.273438 130.492188 C 64.160156 138.332031 56.507812 135.132812 58.804688 126.953125 C 51.355469 126.132812 51.5 117.675781 56.042969 109.898438 C 61.71875 100.160156 73.339844 93.53125 87.257812 93.53125 L 94.703125 93.53125 C 110.070312 93.53125 113.234375 85.5 129.078125 87.195312 C 131.53125 87.429688 133.828125 87.839844 135.9375 88.367188 C 140.332031 83.324219 145.324219 81.210938 151.367188 81.628906 C 152.304688 81.738281 152.894531 82.566406 152.722656 83.445312 L 151.242188 90.246094 C 150.71875 92.773438 151.429688 95.410156 153.246094 97.121094 C 166.027344 109.082031 173.367188 129.492188 181.578125 147.914062 C 194.898438 175.070312 227.039062 212.792969 278.613281 164.402344 C 314.867188 130.371094 336.769531 101.992188 372.777344 99.207031 C 337.5625 38.941406 273.5 1.363281 203.710938 0.0390625 M 118.6875 98.546875 C 113.40625 98.546875 108.140625 102.785156 109.9375 103.539062 C 110.328125 103.710938 111.007812 103.820312 111.78125 103.90625 C 112.34375 107.289062 115.1875 109.898438 118.710938 109.898438 C 122.253906 109.898438 125.050781 107.289062 125.585938 103.90625 C 126.367188 103.820312 127.050781 103.710938 127.441406 103.539062 C 129.234375 102.785156 123.960938 98.546875 118.691406 98.546875 M 305.738281 291.054688 C 301.453125 291.164062 297.605469 293.871094 296.324219 298.035156 L 296.324219 298.097656 C 289.929688 318.628906 277.503906 345.140625 277.503906 345.140625 C 277.503906 345.140625 265.125 367.054688 258.117188 391.601562 C 265.636719 389.425781 273.019531 386.820312 280.238281 383.789062 C 294.347656 377.609375 307.699219 369.828125 320.03125 360.597656 C 318.011719 356.566406 315.789062 352.640625 313.367188 348.839844 C 313.367188 348.839844 309.265625 330.589844 301.390625 310.707031 C 302.585938 307.410156 303.699219 304.082031 304.734375 300.730469 L 304.796875 300.5 C 305.027344 300.023438 305.566406 299.851562 306.152344 299.851562 L 306.214844 299.851562 C 310.316406 300.5 314.648438 301.148438 319.703125 301.734375 C 321.226562 301.855469 322.804688 301.964844 324.390625 302.136719 C 326.328125 302.320312 328.210938 302.492188 330.140625 302.613281 C 330.601562 321.070312 338.609375 338.707031 340.636719 342.917969 C 355.40625 328.371094 367.828125 311.625 377.464844 293.273438 C 363.210938 294.898438 345.765625 295.445312 325.246094 293.410156 C 323.609375 293.214844 321.96875 293.054688 320.324219 292.929688 C 316.066406 292.445312 311.824219 291.859375 307.59375 291.175781 C 306.980469 291.078125 306.359375 291.039062 305.738281 291.050781 "/>
</svg>
