<?xml version="1.0" encoding="UTF-8"?>
<svg xmlns="http://www.w3.org/2000/svg" xmlns:xlink="http://www.w3.org/1999/xlink" width="1300" height="1300" viewBox="0 0 1300 1300">
<path fill-rule="nonzero" fill="rgb(100%, 100%, 100%)" fill-opacity="1" d="M 1300 650 C 1300 1009.003906 1009.003906 1300 650 1300 C 290.996094 1300 0 1009.003906 0 650 C 0 290.996094 290.996094 0 650 0 C 1009.003906 0 1300 290.996094 1300 650 M 1300 650 "/>
<path fill-rule="nonzero" fill="rgb(0%, 45.098039%, 63.137255%)" fill-opacity="1" d="M 662.066406 0.121094 C 568.792969 -1.5 476.265625 16.9375 390.742188 54.195312 C 61.292969 197.804688 -89.425781 581.324219 54.195312 910.773438 C 175.714844 1187.640625 471.910156 1344.351562 769.171875 1289.011719 C 781.828125 1248.621094 792.226562 1204.308594 792.226562 1156.023438 C 792.226562 1149.160156 792.023438 1142.304688 791.667969 1135.234375 C 791.667969 1135.234375 814.925781 1095.605469 833.207031 1043.910156 C 855.898438 980.039062 843.871094 909.695312 804.609375 854.039062 C 802.34375 850.992188 800.039062 847.539062 797.582031 844.117188 C 566.292969 844.117188 451.914062 634.410156 422.917969 506.859375 C 410.933594 454.410156 401.171875 449.210938 368.4375 449.210938 C 307.855469 449.210938 264.132812 424.105469 264.132812 424.105469 C 208.519531 449.578125 183.644531 439.175781 191.109375 412.597656 C 166.90625 409.9375 167.375 382.445312 182.140625 357.175781 C 200.585938 325.519531 238.355469 303.976562 283.582031 303.976562 L 307.785156 303.976562 C 357.734375 303.976562 368.011719 277.875 419.503906 283.378906 C 427.476562 284.140625 434.941406 285.480469 441.796875 287.1875 C 456.078125 270.804688 472.304688 263.941406 491.949219 265.292969 C 494.996094 265.648438 496.90625 268.339844 496.347656 271.203125 L 491.542969 293.300781 C 489.835938 301.507812 492.140625 310.082031 498.050781 315.644531 C 539.589844 354.515625 563.4375 420.855469 590.128906 480.714844 C 633.414062 568.984375 737.871094 691.578125 905.492188 534.308594 C 1023.324219 423.707031 1094.5 331.46875 1211.527344 322.421875 C 1097.078125 126.554688 888.878906 4.429688 662.066406 0.121094 M 385.734375 320.277344 C 368.570312 320.277344 351.457031 334.050781 357.296875 336.507812 C 358.566406 337.054688 360.78125 337.421875 363.289062 337.695312 C 365.117188 348.683594 374.359375 357.175781 385.816406 357.175781 C 397.324219 357.175781 406.414062 348.683594 408.160156 337.695312 C 410.699219 337.421875 412.914062 337.066406 414.183594 336.507812 C 420.011719 334.050781 402.878906 320.277344 385.746094 320.277344 M 993.648438 945.921875 C 979.722656 946.277344 967.21875 955.082031 963.054688 968.613281 L 963.054688 968.816406 C 942.265625 1035.542969 901.886719 1121.707031 901.886719 1121.707031 C 901.886719 1121.707031 861.65625 1192.921875 838.886719 1272.710938 C 863.316406 1265.636719 887.320312 1257.160156 910.773438 1247.320312 C 956.628906 1227.234375 1000.023438 1201.941406 1040.101562 1171.941406 C 1033.542969 1158.839844 1026.3125 1146.085938 1018.4375 1133.730469 C 1018.4375 1133.730469 1005.113281 1074.417969 979.519531 1009.796875 C 983.402344 999.078125 987.023438 988.269531 990.386719 977.375 L 990.589844 976.625 C 991.339844 975.082031 993.089844 974.523438 994.996094 974.523438 L 995.199219 974.523438 C 1008.527344 976.625 1022.601562 978.726562 1039.035156 980.636719 C 1043.992188 981.03125 1049.109375 981.386719 1054.269531 981.945312 C 1060.566406 982.535156 1066.679688 983.09375 1072.957031 983.492188 C 1074.460938 1043.472656 1100.480469 1100.796875 1107.070312 1114.484375 C 1155.0625 1067.210938 1195.441406 1012.785156 1226.761719 953.144531 C 1180.429688 958.425781 1123.738281 960.203125 1057.050781 953.582031 C 1051.730469 952.945312 1046.398438 952.425781 1041.054688 952.027344 C 1027.222656 950.441406 1013.425781 948.539062 999.679688 946.320312 C 997.683594 946.007812 995.664062 945.871094 993.648438 945.914062 "/>
</svg>
