<?xml version="1.0" encoding="UTF-8"?>
<svg xmlns="http://www.w3.org/2000/svg" xmlns:xlink="http://www.w3.org/1999/xlink" width="1900" height="1900" viewBox="0 0 1900 1900">
<path fill-rule="nonzero" fill="rgb(100%, 100%, 100%)" fill-opacity="1" d="M 1900 950 C 1900 1474.695312 1474.695312 1900 950 1900 C 425.304688 1900 0 1474.695312 0 950 C 0 425.304688 425.304688 0 950 0 C 1474.695312 0 1900 425.304688 1900 950 M 1900 950 "/>
<path fill-rule="nonzero" fill="rgb(0%, 45.098039%, 63.137255%)" fill-opacity="1" d="M 967.632812 0.179688 C 831.316406 -2.195312 696.078125 24.757812 571.082031 79.207031 C 89.582031 289.097656 -130.699219 849.625 79.207031 1331.128906 C 256.8125 1735.785156 689.714844 1964.824219 1124.175781 1883.9375 C 1142.671875 1824.90625 1157.871094 1760.140625 1157.871094 1689.574219 C 1157.871094 1679.539062 1157.574219 1669.519531 1157.054688 1659.191406 C 1157.054688 1659.191406 1191.046875 1601.269531 1217.765625 1525.714844 C 1250.925781 1432.363281 1233.351562 1329.554688 1175.964844 1248.210938 C 1172.65625 1243.757812 1169.285156 1238.710938 1165.695312 1233.707031 C 827.65625 1233.707031 660.488281 927.214844 618.109375 740.792969 C 600.59375 664.140625 586.328125 656.539062 538.488281 656.539062 C 449.945312 656.539062 386.042969 619.84375 386.042969 619.84375 C 304.757812 657.074219 268.40625 641.875 279.316406 603.027344 C 243.941406 599.136719 244.625 558.957031 266.207031 522.023438 C 293.164062 475.757812 348.367188 444.273438 414.46875 444.273438 L 449.839844 444.273438 C 522.839844 444.273438 537.863281 406.125 613.121094 414.171875 C 624.773438 415.285156 635.683594 417.242188 645.703125 419.738281 C 666.574219 395.792969 690.292969 385.757812 719 387.734375 C 723.453125 388.253906 726.246094 392.1875 725.429688 396.371094 L 718.40625 428.671875 C 715.914062 440.667969 719.285156 453.195312 727.921875 461.328125 C 788.632812 518.136719 823.488281 615.09375 862.496094 702.585938 C 925.761719 831.589844 1078.429688 1010.769531 1323.410156 780.914062 C 1495.625 619.265625 1599.652344 484.457031 1770.695312 471.230469 C 1603.421875 184.964844 1299.132812 6.476562 967.632812 0.179688 M 563.765625 468.097656 C 538.679688 468.097656 513.667969 488.226562 522.203125 491.816406 C 524.058594 492.621094 527.292969 493.152344 530.960938 493.554688 C 533.632812 509.617188 547.140625 522.023438 563.882812 522.023438 C 580.703125 522.023438 593.988281 509.617188 596.539062 493.554688 C 600.25 493.152344 603.488281 492.632812 605.34375 491.816406 C 613.863281 488.226562 588.820312 468.097656 563.78125 468.097656 M 1452.253906 1382.503906 C 1431.902344 1383.023438 1413.628906 1395.890625 1407.542969 1415.664062 L 1407.542969 1415.960938 C 1377.160156 1513.484375 1318.140625 1639.417969 1318.140625 1639.417969 C 1318.140625 1639.417969 1259.34375 1743.503906 1226.0625 1860.113281 C 1261.769531 1849.777344 1296.851562 1837.390625 1331.128906 1823.003906 C 1398.148438 1793.648438 1461.574219 1756.683594 1520.148438 1712.835938 C 1510.558594 1693.691406 1499.992188 1675.050781 1488.488281 1656.992188 C 1488.488281 1656.992188 1469.011719 1570.304688 1431.605469 1475.855469 C 1437.277344 1460.191406 1442.574219 1444.390625 1447.488281 1428.472656 L 1447.785156 1427.375 C 1448.882812 1425.117188 1451.4375 1424.300781 1454.226562 1424.300781 L 1454.523438 1424.300781 C 1474 1427.375 1494.574219 1430.449219 1518.589844 1433.238281 C 1525.832031 1433.816406 1533.316406 1434.335938 1540.855469 1435.152344 C 1550.058594 1436.015625 1558.996094 1436.832031 1568.167969 1437.410156 C 1570.363281 1525.078125 1608.394531 1608.855469 1618.027344 1628.863281 C 1688.171875 1559.769531 1747.183594 1480.222656 1792.960938 1393.054688 C 1725.246094 1400.773438 1642.386719 1403.371094 1544.921875 1393.695312 C 1537.148438 1392.765625 1529.351562 1392.007812 1521.542969 1391.421875 C 1501.324219 1389.109375 1481.160156 1386.328125 1461.070312 1383.082031 C 1458.152344 1382.625 1455.203125 1382.425781 1452.253906 1382.488281 "/>
</svg>
