<?xml version="1.0" encoding="UTF-8"?>
<svg xmlns="http://www.w3.org/2000/svg" xmlns:xlink="http://www.w3.org/1999/xlink" width="1400" height="1400" viewBox="0 0 1400 1400">
<path fill-rule="nonzero" fill="rgb(100%, 100%, 100%)" fill-opacity="1" d="M 1400 700 C 1400 1086.617188 1086.617188 1400 700 1400 C 313.382812 1400 0 1086.617188 0 700 C 0 313.382812 313.382812 0 700 0 C 1086.617188 0 1400 313.382812 1400 700 M 1400 700 "/>
<path fill-rule="nonzero" fill="rgb(0%, 45.098039%, 63.137255%)" fill-opacity="1" d="M 712.992188 0.132812 C 612.546875 -1.617188 512.898438 18.242188 420.796875 58.363281 C 66.007812 213.019531 -96.304688 626.039062 58.363281 980.832031 C 189.230469 1279 508.210938 1447.765625 828.339844 1388.164062 C 841.96875 1344.667969 853.167969 1296.945312 853.167969 1244.949219 C 853.167969 1237.554688 852.949219 1230.171875 852.566406 1222.5625 C 852.566406 1222.5625 877.613281 1179.882812 897.300781 1124.210938 C 921.734375 1055.425781 908.785156 979.671875 866.5 919.734375 C 864.0625 916.453125 861.578125 912.734375 858.933594 909.046875 C 609.851562 909.046875 486.675781 683.210938 455.449219 545.847656 C 442.542969 489.367188 432.03125 483.765625 396.78125 483.765625 C 331.539062 483.765625 284.453125 456.726562 284.453125 456.726562 C 224.558594 484.160156 197.773438 472.960938 205.8125 444.335938 C 179.746094 441.46875 180.25 411.863281 196.152344 384.648438 C 216.015625 350.558594 256.691406 327.359375 305.398438 327.359375 L 331.460938 327.359375 C 385.25 327.359375 396.320312 299.25 451.773438 305.179688 C 460.359375 306 468.398438 307.441406 475.78125 309.28125 C 491.160156 291.636719 508.636719 284.242188 529.789062 285.699219 C 533.070312 286.082031 535.128906 288.980469 534.527344 292.0625 L 529.351562 315.863281 C 527.515625 324.703125 530 333.933594 536.363281 339.925781 C 581.097656 381.785156 606.78125 453.226562 635.523438 517.695312 C 682.140625 612.75 794.632812 744.777344 975.144531 575.410156 C 1102.039062 456.300781 1178.691406 356.96875 1304.722656 347.222656 C 1181.46875 136.289062 957.253906 4.773438 712.992188 0.132812 M 415.40625 344.914062 C 396.921875 344.914062 378.492188 359.746094 384.78125 362.390625 C 386.148438 362.984375 388.53125 363.375 391.234375 363.671875 C 393.203125 375.507812 403.15625 384.648438 415.492188 384.648438 C 427.886719 384.648438 437.675781 375.507812 439.554688 363.671875 C 442.289062 363.375 444.675781 362.992188 446.042969 362.390625 C 452.320312 359.746094 433.867188 344.914062 415.417969 344.914062 M 1070.082031 1018.6875 C 1055.085938 1019.070312 1041.621094 1028.550781 1037.136719 1043.121094 L 1037.136719 1043.339844 C 1014.75 1115.199219 971.261719 1207.992188 971.261719 1207.992188 C 971.261719 1207.992188 927.9375 1284.6875 903.414062 1370.609375 C 929.726562 1362.996094 955.574219 1353.867188 980.832031 1343.265625 C 1030.214844 1321.636719 1076.949219 1294.398438 1120.109375 1262.089844 C 1113.042969 1247.980469 1105.257812 1234.25 1096.78125 1220.941406 C 1096.78125 1220.941406 1082.429688 1157.066406 1054.867188 1087.472656 C 1059.046875 1075.929688 1062.949219 1064.289062 1066.570312 1052.558594 L 1066.789062 1051.75 C 1067.597656 1050.085938 1069.480469 1049.484375 1071.535156 1049.484375 L 1071.753906 1049.484375 C 1086.105469 1051.75 1101.265625 1054.015625 1118.960938 1056.070312 C 1124.296875 1056.496094 1129.8125 1056.878906 1135.367188 1057.480469 C 1142.148438 1058.117188 1148.734375 1058.71875 1155.492188 1059.144531 C 1157.109375 1123.742188 1185.132812 1185.472656 1192.230469 1200.214844 C 1243.914062 1149.304688 1287.398438 1090.691406 1321.128906 1026.460938 C 1271.234375 1032.148438 1210.179688 1034.0625 1138.363281 1026.933594 C 1132.636719 1026.25 1126.890625 1025.691406 1121.136719 1025.257812 C 1106.238281 1023.554688 1091.382812 1021.503906 1076.578125 1019.113281 C 1074.429688 1018.777344 1072.253906 1018.628906 1070.082031 1018.675781 "/>
</svg>
