<?xml version="1.0" encoding="UTF-8"?>
<svg xmlns="http://www.w3.org/2000/svg" xmlns:xlink="http://www.w3.org/1999/xlink" width="4000" height="4000" viewBox="0 0 4000 4000">
<path fill-rule="nonzero" fill="rgb(100%, 100%, 100%)" fill-opacity="1" d="M 4000 2000 C 4000 3104.625 3104.625 4000 2000 4000 C 895.375 4000 0 3104.625 0 2000 C 0 895.375 895.375 0 2000 0 C 3104.625 0 4000 895.375 4000 2000 M 4000 2000 "/>
<path fill-rule="nonzero" fill="rgb(0%, 45.098039%, 63.137255%)" fill-opacity="1" d="M 2037.125 0.375 C 1750.136719 -4.621094 1465.429688 52.121094 1202.28125 166.75 C 188.59375 608.625 -275.15625 1788.6875 166.75 2802.375 C 540.65625 3654.28125 1452.03125 4136.46875 2366.6875 3966.1875 C 2405.625 3841.90625 2437.625 3705.5625 2437.625 3557 C 2437.625 3535.875 2437 3514.78125 2435.90625 3493.03125 C 2435.90625 3493.03125 2507.46875 3371.09375 2563.71875 3212.03125 C 2633.53125 3015.5 2596.53125 2799.0625 2475.71875 2627.8125 C 2468.75 2618.4375 2461.65625 2607.8125 2454.09375 2597.28125 C 1742.4375 2597.28125 1390.5 1952.03125 1301.28125 1559.5625 C 1264.40625 1398.1875 1234.375 1382.1875 1133.65625 1382.1875 C 947.25 1382.1875 812.71875 1304.9375 812.71875 1304.9375 C 641.59375 1383.3125 565.0625 1351.3125 588.03125 1269.53125 C 513.5625 1261.34375 515 1176.75 560.4375 1099 C 617.1875 1001.59375 733.40625 935.3125 872.5625 935.3125 L 947.03125 935.3125 C 1100.71875 935.3125 1132.34375 855 1290.78125 871.9375 C 1315.3125 874.28125 1338.28125 878.40625 1359.375 883.65625 C 1403.3125 833.25 1453.25 812.125 1513.6875 816.28125 C 1523.0625 817.375 1528.9375 825.65625 1527.21875 834.46875 L 1512.4375 902.46875 C 1507.1875 927.71875 1514.28125 954.09375 1532.46875 971.21875 C 1660.28125 1090.8125 1733.65625 1294.9375 1815.78125 1479.125 C 1948.96875 1750.71875 2270.375 2127.9375 2786.125 1644.03125 C 3148.6875 1303.71875 3367.6875 1019.90625 3727.78125 992.0625 C 3375.621094 389.394531 2735.011719 13.636719 2037.125 0.375 M 1186.875 985.46875 C 1134.0625 985.46875 1081.40625 1027.84375 1099.375 1035.40625 C 1103.28125 1037.09375 1110.09375 1038.21875 1117.8125 1039.0625 C 1123.4375 1072.875 1151.875 1099 1187.125 1099 C 1222.53125 1099 1250.5 1072.875 1255.875 1039.0625 C 1263.6875 1038.21875 1270.5 1037.125 1274.40625 1035.40625 C 1292.34375 1027.84375 1239.625 985.46875 1186.90625 985.46875 M 3057.375 2910.53125 C 3014.53125 2911.625 2976.0625 2938.71875 2963.25 2980.34375 L 2963.25 2980.96875 C 2899.28125 3186.28125 2775.03125 3451.40625 2775.03125 3451.40625 C 2775.03125 3451.40625 2651.25 3670.53125 2581.1875 3916.03125 C 2656.359375 3894.273438 2730.210938 3868.1875 2802.375 3837.90625 C 2943.472656 3776.101562 3076.996094 3698.277344 3200.3125 3605.96875 C 3180.128906 3565.664062 3157.878906 3526.421875 3133.65625 3488.40625 C 3133.65625 3488.40625 3092.65625 3305.90625 3013.90625 3107.0625 C 3025.851562 3074.085938 3037 3040.824219 3047.34375 3007.3125 L 3047.96875 3005 C 3050.28125 3000.25 3055.65625 2998.53125 3061.53125 2998.53125 L 3062.15625 2998.53125 C 3103.15625 3005 3146.46875 3011.46875 3197.03125 3017.34375 C 3212.28125 3018.5625 3228.03125 3019.65625 3243.90625 3021.375 C 3263.28125 3023.1875 3282.09375 3024.90625 3301.40625 3026.125 C 3306.03125 3210.6875 3386.09375 3387.0625 3406.375 3429.1875 C 3554.042969 3283.726562 3678.277344 3116.261719 3774.65625 2932.75 C 3632.09375 2949 3457.65625 2954.46875 3252.46875 2934.09375 C 3236.097656 2932.140625 3219.6875 2930.546875 3203.25 2929.3125 C 3160.683594 2924.441406 3118.234375 2918.585938 3075.9375 2911.75 C 3069.796875 2910.792969 3063.585938 2910.375 3057.375 2910.5 "/>
</svg>
