<?xml version="1.0" encoding="UTF-8"?>
<svg xmlns="http://www.w3.org/2000/svg" xmlns:xlink="http://www.w3.org/1999/xlink" width="1700" height="1700" viewBox="0 0 1700 1700">
<path fill-rule="nonzero" fill="rgb(100%, 100%, 100%)" fill-opacity="1" d="M 1700 850 C 1700 1319.464844 1319.464844 1700 850 1700 C 380.535156 1700 0 1319.464844 0 850 C 0 380.535156 380.535156 0 850 0 C 1319.464844 0 1700 380.535156 1700 850 M 1700 850 "/>
<path fill-rule="nonzero" fill="rgb(0%, 45.098039%, 63.137255%)" fill-opacity="1" d="M 865.777344 0.160156 C 743.808594 -1.964844 622.808594 22.152344 510.96875 70.867188 C 80.152344 258.664062 -116.941406 760.191406 70.867188 1191.007812 C 229.777344 1553.070312 617.113281 1758 1005.84375 1685.628906 C 1022.390625 1632.808594 1035.992188 1574.863281 1035.992188 1511.726562 C 1035.992188 1502.746094 1035.726562 1493.78125 1035.261719 1484.539062 C 1035.261719 1484.539062 1065.675781 1432.714844 1089.582031 1365.113281 C 1119.25 1281.585938 1103.527344 1189.601562 1052.179688 1116.820312 C 1049.21875 1112.835938 1046.203125 1108.320312 1042.988281 1103.84375 C 740.535156 1103.84375 590.960938 829.613281 553.042969 662.8125 C 537.371094 594.230469 524.609375 587.429688 481.804688 587.429688 C 402.582031 587.429688 345.40625 554.597656 345.40625 554.597656 C 272.675781 587.90625 240.152344 574.308594 249.914062 539.550781 C 218.265625 536.070312 218.875 500.117188 238.1875 467.074219 C 262.304688 425.675781 311.699219 397.507812 370.839844 397.507812 L 402.488281 397.507812 C 467.804688 397.507812 481.246094 363.375 548.582031 370.574219 C 559.007812 371.570312 568.769531 373.324219 577.734375 375.554688 C 596.40625 354.132812 617.632812 345.152344 643.316406 346.917969 C 647.300781 347.382812 649.796875 350.902344 649.066406 354.648438 L 642.785156 383.550781 C 640.554688 394.28125 643.570312 405.488281 651.300781 412.769531 C 705.621094 463.59375 736.804688 550.347656 771.707031 628.628906 C 828.3125 744.054688 964.910156 904.375 1184.101562 698.714844 C 1338.191406 554.082031 1431.265625 433.460938 1584.308594 421.625 C 1434.640625 165.492188 1162.378906 5.792969 865.777344 0.160156 M 504.421875 418.824219 C 481.976562 418.824219 459.597656 436.832031 467.234375 440.046875 C 468.894531 440.765625 471.789062 441.242188 475.070312 441.601562 C 477.460938 455.972656 489.546875 467.074219 504.527344 467.074219 C 519.574219 467.074219 531.460938 455.972656 533.746094 441.601562 C 537.066406 441.242188 539.960938 440.777344 541.621094 440.046875 C 549.246094 436.832031 526.839844 418.824219 504.433594 418.824219 M 1299.382812 1236.976562 C 1281.175781 1237.441406 1264.828125 1248.957031 1259.382812 1266.644531 L 1259.382812 1266.910156 C 1232.195312 1354.167969 1179.386719 1466.847656 1179.386719 1466.847656 C 1179.386719 1466.847656 1126.78125 1559.976562 1097.003906 1664.3125 C 1128.953125 1655.066406 1160.339844 1643.980469 1191.007812 1631.109375 C 1250.976562 1604.84375 1307.722656 1571.769531 1360.132812 1532.535156 C 1351.554688 1515.40625 1342.097656 1498.730469 1331.804688 1482.574219 C 1331.804688 1482.574219 1314.378906 1405.011719 1280.910156 1320.5 C 1285.984375 1306.484375 1290.726562 1292.351562 1295.121094 1278.109375 L 1295.386719 1277.125 C 1296.371094 1275.105469 1298.652344 1274.375 1301.152344 1274.375 L 1301.417969 1274.375 C 1318.839844 1277.125 1337.25 1279.875 1358.738281 1282.371094 C 1365.21875 1282.890625 1371.914062 1283.355469 1378.660156 1284.085938 C 1386.894531 1284.855469 1394.890625 1285.585938 1403.097656 1286.101562 C 1405.0625 1364.542969 1439.089844 1439.5 1447.710938 1457.40625 C 1510.46875 1395.582031 1563.269531 1324.410156 1604.230469 1246.417969 C 1543.640625 1253.324219 1469.503906 1255.648438 1382.300781 1246.988281 C 1375.34375 1246.160156 1368.367188 1245.480469 1361.382812 1244.957031 C 1343.289062 1242.886719 1325.25 1240.398438 1307.273438 1237.492188 C 1304.664062 1237.085938 1302.023438 1236.910156 1299.382812 1236.960938 "/>
</svg>
