<?xml version="1.0" encoding="UTF-8"?>
<svg xmlns="http://www.w3.org/2000/svg" xmlns:xlink="http://www.w3.org/1999/xlink" width="64" height="64" viewBox="0 0 64 64">
<path fill-rule="nonzero" fill="rgb(100%, 100%, 100%)" fill-opacity="1" d="M 64 32 C 64 49.675781 49.675781 64 32 64 C 14.324219 64 0 49.675781 0 32 C 0 14.324219 14.324219 0 32 0 C 49.675781 0 64 14.324219 64 32 M 64 32 "/>
<path fill-rule="nonzero" fill="rgb(0%, 45.098039%, 63.137255%)" fill-opacity="1" d="M 32.59375 0.0078125 C 28.003906 -0.0742188 23.445312 0.832031 19.238281 2.667969 C 3.015625 9.738281 -4.402344 28.617188 2.667969 44.839844 C 8.652344 58.46875 23.234375 66.183594 37.867188 63.460938 C 38.488281 61.46875 39.003906 59.289062 39.003906 56.910156 C 39.003906 56.574219 38.992188 56.238281 38.972656 55.886719 C 38.972656 55.886719 40.121094 53.9375 41.019531 51.390625 C 42.136719 48.246094 41.542969 44.785156 39.613281 42.046875 C 39.5 41.894531 39.386719 41.726562 39.265625 41.554688 C 27.878906 41.554688 22.246094 31.234375 20.820312 24.953125 C 20.230469 22.371094 19.75 22.113281 18.136719 22.113281 C 15.15625 22.113281 13.003906 20.878906 13.003906 20.878906 C 10.265625 22.132812 9.039062 21.621094 9.410156 20.3125 C 8.21875 20.179688 8.238281 18.828125 8.96875 17.585938 C 9.875 16.027344 11.734375 14.964844 13.960938 14.964844 L 15.152344 14.964844 C 17.613281 14.964844 18.117188 13.679688 20.652344 13.949219 C 21.046875 13.988281 21.414062 14.054688 21.75 14.136719 C 22.453125 13.332031 23.253906 12.992188 24.21875 13.058594 C 24.367188 13.078125 24.464844 13.210938 24.433594 13.351562 L 24.199219 14.441406 C 24.113281 14.84375 24.226562 15.265625 24.519531 15.539062 C 26.566406 17.453125 27.738281 20.71875 29.050781 23.664062 C 31.183594 28.011719 36.324219 34.046875 44.578125 26.304688 C 50.378906 20.859375 53.882812 16.320312 59.644531 15.871094 C 54.011719 6.230469 43.761719 0.21875 32.59375 0.0078125 M 18.988281 15.765625 C 18.144531 15.765625 17.300781 16.445312 17.589844 16.566406 C 17.652344 16.59375 17.761719 16.613281 17.886719 16.625 C 17.976562 17.164062 18.429688 17.585938 18.992188 17.585938 C 19.558594 17.585938 20.007812 17.164062 20.09375 16.625 C 20.21875 16.613281 20.328125 16.59375 20.390625 16.566406 C 20.675781 16.445312 19.835938 15.765625 18.992188 15.765625 M 48.917969 46.570312 C 48.234375 46.585938 47.617188 47.019531 47.410156 47.683594 L 47.410156 47.695312 C 46.386719 50.980469 44.402344 55.222656 44.402344 55.222656 C 44.402344 55.222656 42.421875 58.726562 41.300781 62.65625 C 42.5 62.308594 43.683594 61.890625 44.839844 61.40625 C 47.09375 60.417969 49.230469 59.171875 51.203125 57.695312 C 50.882812 57.050781 50.527344 56.421875 50.136719 55.816406 C 50.136719 55.816406 49.484375 52.894531 48.222656 49.714844 C 48.414062 49.183594 48.59375 48.652344 48.757812 48.117188 L 48.765625 48.078125 C 48.804688 48.003906 48.890625 47.976562 48.984375 47.976562 L 48.996094 47.976562 C 49.652344 48.078125 50.34375 48.183594 51.152344 48.277344 C 51.398438 48.296875 51.648438 48.316406 51.902344 48.34375 C 52.210938 48.371094 52.511719 48.398438 52.824219 48.417969 C 52.898438 51.371094 54.175781 54.191406 54.503906 54.867188 C 56.863281 52.539062 58.851562 49.859375 60.394531 46.925781 C 58.113281 47.183594 55.324219 47.273438 52.039062 46.945312 C 51.777344 46.914062 51.515625 46.890625 51.253906 46.867188 C 50.570312 46.792969 49.890625 46.699219 49.214844 46.589844 C 49.117188 46.574219 49.015625 46.566406 48.917969 46.566406 "/>
</svg>
