<?xml version="1.0" encoding="UTF-8"?>
<svg xmlns="http://www.w3.org/2000/svg" xmlns:xlink="http://www.w3.org/1999/xlink" width="1200" height="1200" viewBox="0 0 1200 1200">
<path fill-rule="nonzero" fill="rgb(100%, 100%, 100%)" fill-opacity="1" d="M 1200 600 C 1200 931.386719 931.386719 1200 600 1200 C 268.613281 1200 0 931.386719 0 600 C 0 268.613281 268.613281 0 600 0 C 931.386719 0 1200 268.613281 1200 600 M 1200 600 "/>
<path fill-rule="nonzero" fill="rgb(0%, 45.098039%, 63.137255%)" fill-opacity="1" d="M 611.136719 0.113281 C 525.042969 -1.386719 439.628906 15.636719 360.683594 50.023438 C 56.578125 182.585938 -82.546875 536.605469 50.023438 840.710938 C 162.195312 1096.285156 435.609375 1240.941406 710.007812 1189.855469 C 721.6875 1152.570312 731.289062 1111.667969 731.289062 1067.101562 C 731.289062 1060.761719 731.101562 1054.433594 730.773438 1047.910156 C 730.773438 1047.910156 752.242188 1011.328125 769.117188 963.609375 C 790.058594 904.648438 778.960938 839.71875 742.714844 788.34375 C 740.625 785.53125 738.496094 782.34375 736.226562 779.183594 C 522.730469 779.183594 417.148438 585.609375 390.382812 467.867188 C 379.320312 419.457031 370.3125 414.65625 340.097656 414.65625 C 284.175781 414.65625 243.816406 391.480469 243.816406 391.480469 C 192.476562 414.992188 169.519531 405.394531 176.410156 380.859375 C 154.070312 378.402344 154.5 353.023438 168.132812 329.699219 C 185.15625 300.476562 220.023438 280.59375 261.769531 280.59375 L 284.109375 280.59375 C 330.214844 280.59375 339.703125 256.5 387.234375 261.582031 C 394.59375 262.285156 401.484375 263.523438 407.8125 265.097656 C 420.992188 249.976562 435.976562 243.636719 454.105469 244.882812 C 456.917969 245.210938 458.679688 247.695312 458.164062 250.339844 L 453.730469 270.742188 C 452.15625 278.316406 454.285156 286.226562 459.742188 291.367188 C 498.085938 327.242188 520.097656 388.480469 544.734375 443.738281 C 584.691406 525.214844 681.113281 638.382812 835.835938 493.210938 C 944.605469 391.117188 1010.304688 305.972656 1118.335938 297.617188 C 1012.6875 116.820312 820.503906 4.089844 611.136719 0.113281 M 356.0625 295.640625 C 340.21875 295.640625 324.421875 308.351562 329.8125 310.621094 C 330.984375 311.128906 333.027344 311.464844 335.34375 311.71875 C 337.03125 321.863281 345.5625 329.699219 356.136719 329.699219 C 366.757812 329.699219 375.148438 321.863281 376.761719 311.71875 C 379.105469 311.464844 381.148438 311.136719 382.320312 310.621094 C 387.703125 308.351562 371.886719 295.640625 356.070312 295.640625 M 917.210938 873.160156 C 904.359375 873.488281 892.820312 881.617188 888.976562 894.101562 L 888.976562 894.289062 C 869.785156 955.882812 832.507812 1035.421875 832.507812 1035.421875 C 832.507812 1035.421875 795.375 1101.160156 774.355469 1174.808594 C 796.90625 1168.28125 819.0625 1160.457031 840.710938 1151.371094 C 883.042969 1132.832031 923.097656 1109.484375 960.09375 1081.789062 C 954.039062 1069.699219 947.363281 1057.925781 940.097656 1046.523438 C 940.097656 1046.523438 927.796875 991.773438 904.171875 932.117188 C 907.753906 922.226562 911.101562 912.246094 914.203125 902.195312 L 914.390625 901.5 C 915.085938 900.074219 916.695312 899.558594 918.460938 899.558594 L 918.648438 899.558594 C 930.945312 901.5 943.941406 903.441406 959.109375 905.203125 C 963.683594 905.570312 968.410156 905.898438 973.171875 906.414062 C 978.984375 906.957031 984.628906 907.472656 990.421875 907.835938 C 991.808594 963.207031 1015.828125 1016.117188 1021.914062 1028.757812 C 1066.214844 985.117188 1103.484375 934.878906 1132.398438 879.824219 C 1089.628906 884.699219 1037.296875 886.339844 975.742188 880.226562 C 970.828125 879.640625 965.90625 879.164062 960.976562 878.792969 C 948.203125 877.332031 935.46875 875.574219 922.78125 873.523438 C 920.941406 873.238281 919.074219 873.113281 917.210938 873.148438 "/>
</svg>
