<?xml version="1.0" encoding="UTF-8"?>
<svg xmlns="http://www.w3.org/2000/svg" xmlns:xlink="http://www.w3.org/1999/xlink" width="96" height="96" viewBox="0 0 96 96">
<path fill-rule="nonzero" fill="rgb(100%, 100%, 100%)" fill-opacity="1" d="M 96 48 C 96 74.511719 74.511719 96 48 96 C 21.488281 96 0 74.511719 0 48 C 0 21.488281 21.488281 0 48 0 C 74.511719 0 96 21.488281 96 48 M 96 48 "/>
<path fill-rule="nonzero" fill="rgb(0%, 45.098039%, 63.137255%)" fill-opacity="1" d="M 48.890625 0.0078125 C 42.003906 -0.109375 35.171875 1.25 28.855469 4.003906 C 4.527344 14.605469 -6.605469 42.929688 4.003906 67.257812 C 12.976562 87.703125 34.847656 99.273438 56.800781 95.1875 C 57.734375 92.207031 58.503906 88.933594 58.503906 85.367188 C 58.503906 84.859375 58.488281 84.355469 58.460938 83.832031 C 58.460938 83.832031 60.179688 80.90625 61.527344 77.089844 C 63.203125 72.371094 62.316406 67.175781 59.417969 63.066406 C 59.25 62.84375 59.078125 62.585938 58.898438 62.335938 C 41.820312 62.335938 33.371094 46.847656 31.230469 37.429688 C 30.347656 33.554688 29.625 33.171875 27.207031 33.171875 C 22.734375 33.171875 19.503906 31.320312 19.503906 31.320312 C 15.398438 33.199219 13.5625 32.429688 14.113281 30.46875 C 12.324219 30.273438 12.359375 28.242188 13.449219 26.375 C 14.8125 24.039062 17.601562 22.449219 20.941406 22.449219 L 22.730469 22.449219 C 26.417969 22.449219 27.175781 20.519531 30.980469 20.925781 C 31.566406 20.984375 32.117188 21.082031 32.625 21.207031 C 33.679688 19.996094 34.878906 19.492188 36.328125 19.589844 C 36.554688 19.617188 36.695312 19.816406 36.652344 20.027344 L 36.296875 21.660156 C 36.171875 22.265625 36.34375 22.898438 36.777344 23.308594 C 39.847656 26.179688 41.609375 31.078125 43.578125 35.5 C 46.773438 42.015625 54.488281 51.070312 66.867188 39.457031 C 75.570312 31.289062 80.824219 24.476562 89.464844 23.808594 C 81.015625 9.34375 65.640625 0.328125 48.890625 0.0078125 M 28.484375 23.652344 C 27.21875 23.652344 25.953125 24.667969 26.386719 24.851562 C 26.480469 24.890625 26.640625 24.917969 26.828125 24.9375 C 26.960938 25.75 27.644531 26.375 28.492188 26.375 C 29.339844 26.375 30.011719 25.75 30.140625 24.9375 C 30.328125 24.917969 30.492188 24.890625 30.585938 24.851562 C 31.015625 24.667969 29.75 23.652344 28.484375 23.652344 M 73.378906 69.851562 C 72.347656 69.878906 71.425781 70.527344 71.117188 71.527344 L 71.117188 71.542969 C 69.582031 76.472656 66.601562 82.832031 66.601562 82.832031 C 66.601562 82.832031 63.628906 88.09375 61.949219 93.984375 C 63.753906 93.460938 65.523438 92.835938 67.257812 92.109375 C 70.644531 90.625 73.847656 88.757812 76.808594 86.542969 C 76.324219 85.574219 75.789062 84.632812 75.207031 83.722656 C 75.207031 83.722656 74.222656 79.339844 72.332031 74.570312 C 72.621094 73.777344 72.886719 72.980469 73.136719 72.175781 L 73.152344 72.121094 C 73.207031 72.007812 73.335938 71.964844 73.476562 71.964844 L 73.492188 71.964844 C 74.476562 72.121094 75.515625 72.273438 76.730469 72.417969 C 77.09375 72.445312 77.472656 72.472656 77.855469 72.511719 C 78.320312 72.554688 78.769531 72.597656 79.234375 72.628906 C 79.34375 77.054688 81.265625 81.289062 81.753906 82.300781 C 85.296875 78.808594 88.277344 74.789062 90.589844 70.386719 C 87.171875 70.777344 82.984375 70.90625 78.058594 70.417969 C 77.667969 70.371094 77.273438 70.332031 76.878906 70.304688 C 75.855469 70.1875 74.835938 70.046875 73.824219 69.882812 C 73.675781 69.859375 73.527344 69.847656 73.378906 69.851562 "/>
</svg>
