<?xml version="1.0" encoding="UTF-8"?>
<svg xmlns="http://www.w3.org/2000/svg" xmlns:xlink="http://www.w3.org/1999/xlink" width="2750" height="2750" viewBox="0 0 2750 2750">
<path fill-rule="nonzero" fill="rgb(100%, 100%, 100%)" fill-opacity="1" d="M 2750 1375 C 2750 2134.429688 2134.429688 2750 1375 2750 C 615.570312 2750 0 2134.429688 0 1375 C 0 615.570312 615.570312 0 1375 0 C 2134.429688 0 2750 615.570312 2750 1375 M 2750 1375 "/>
<path fill-rule="nonzero" fill="rgb(0%, 45.098039%, 63.137255%)" fill-opacity="1" d="M 1400.523438 0.257812 C 1203.21875 -3.175781 1007.480469 35.832031 826.570312 114.640625 C 129.65625 418.429688 -189.171875 1229.722656 114.640625 1926.632812 C 371.703125 2512.320312 998.269531 2843.824219 1627.097656 2726.753906 C 1653.867188 2641.3125 1675.867188 2547.574219 1675.867188 2445.4375 C 1675.867188 2430.914062 1675.4375 2416.414062 1674.683594 2401.460938 C 1674.683594 2401.460938 1723.882812 2317.628906 1762.554688 2208.273438 C 1810.550781 2073.15625 1785.113281 1924.355469 1702.054688 1806.621094 C 1697.265625 1800.175781 1692.386719 1792.871094 1687.1875 1785.632812 C 1197.925781 1785.632812 955.96875 1342.023438 894.628906 1072.199219 C 869.277344 961.253906 848.632812 950.253906 779.386719 950.253906 C 651.234375 950.253906 558.742188 897.144531 558.742188 897.144531 C 441.09375 951.027344 388.480469 929.027344 404.269531 872.800781 C 353.074219 867.171875 354.0625 809.015625 385.300781 755.5625 C 424.316406 688.59375 504.214844 643.027344 599.886719 643.027344 L 651.082031 643.027344 C 756.742188 643.027344 778.484375 587.8125 887.410156 599.457031 C 904.277344 601.066406 920.066406 603.902344 934.570312 607.511719 C 964.777344 572.859375 999.109375 558.335938 1040.660156 561.191406 C 1047.105469 561.945312 1051.144531 567.636719 1049.960938 573.695312 L 1039.800781 620.445312 C 1036.191406 637.804688 1041.066406 655.9375 1053.570312 667.710938 C 1141.441406 749.933594 1191.890625 890.269531 1248.351562 1016.898438 C 1339.914062 1203.617188 1560.882812 1462.957031 1915.460938 1130.269531 C 2164.722656 896.304688 2315.285156 701.183594 2562.847656 682.042969 C 2320.738281 267.710938 1880.320312 9.375 1400.523438 0.257812 M 815.976562 677.507812 C 779.667969 677.507812 743.464844 706.640625 755.820312 711.84375 C 758.507812 713.003906 763.191406 713.777344 768.496094 714.355469 C 772.363281 737.601562 791.914062 755.5625 816.148438 755.5625 C 840.492188 755.5625 859.71875 737.601562 863.414062 714.355469 C 868.785156 713.773438 873.46875 713.023438 876.15625 711.84375 C 888.488281 706.644531 852.242188 677.511719 816 677.511719 M 2101.945312 2000.992188 C 2072.492188 2001.742188 2046.042969 2020.367188 2037.234375 2048.984375 L 2037.234375 2049.414062 C 1993.257812 2190.566406 1907.835938 2372.84375 1907.835938 2372.84375 C 1907.835938 2372.84375 1822.734375 2523.492188 1774.566406 2692.269531 C 1826.246094 2677.3125 1877.019531 2659.378906 1926.632812 2638.5625 C 2023.636719 2596.070312 2115.433594 2542.566406 2200.214844 2479.105469 C 2186.335938 2451.394531 2171.042969 2424.414062 2154.390625 2398.28125 C 2154.390625 2398.28125 2126.203125 2272.808594 2072.0625 2136.105469 C 2080.273438 2113.433594 2087.9375 2090.566406 2095.046875 2067.527344 L 2095.480469 2065.9375 C 2097.070312 2062.671875 2100.765625 2061.488281 2104.804688 2061.488281 L 2105.234375 2061.488281 C 2133.421875 2065.9375 2163.195312 2070.382812 2197.960938 2074.421875 C 2208.445312 2075.261719 2219.273438 2076.015625 2230.1875 2077.195312 C 2243.507812 2078.441406 2256.4375 2079.625 2269.71875 2080.460938 C 2272.898438 2207.347656 2327.9375 2328.605469 2341.882812 2357.566406 C 2443.40625 2257.5625 2528.816406 2142.429688 2595.074219 2016.265625 C 2497.0625 2027.4375 2377.140625 2031.195312 2236.070312 2017.191406 C 2224.820312 2015.847656 2213.535156 2014.75 2202.234375 2013.902344 C 2172.96875 2010.550781 2143.785156 2006.527344 2114.707031 2001.828125 C 2110.488281 2001.167969 2106.214844 2000.882812 2101.945312 2000.96875 "/>
</svg>
