<?xml version="1.0" encoding="UTF-8"?>
<svg xmlns="http://www.w3.org/2000/svg" xmlns:xlink="http://www.w3.org/1999/xlink" width="3500" height="3500" viewBox="0 0 3500 3500">
<path fill-rule="nonzero" fill="rgb(100%, 100%, 100%)" fill-opacity="1" d="M 3500 1750 C 3500 2716.546875 2716.546875 3500 1750 3500 C 783.453125 3500 0 2716.546875 0 1750 C 0 783.453125 783.453125 0 1750 0 C 2716.546875 0 3500 783.453125 3500 1750 M 3500 1750 "/>
<path fill-rule="nonzero" fill="rgb(0%, 45.098039%, 63.137255%)" fill-opacity="1" d="M 1782.484375 0.328125 C 1531.371094 -4.042969 1282.25 45.605469 1051.996094 145.90625 C 165.019531 532.546875 -240.761719 1565.101562 145.90625 2452.078125 C 473.074219 3197.496094 1270.527344 3619.410156 2070.851562 3470.414062 C 2104.921875 3361.667969 2132.921875 3242.367188 2132.921875 3112.375 C 2132.921875 3093.890625 2132.375 3075.433594 2131.417969 3056.402344 C 2131.417969 3056.402344 2194.035156 2949.707031 2243.253906 2810.527344 C 2304.339844 2638.5625 2271.964844 2449.179688 2166.253906 2299.335938 C 2160.15625 2291.132812 2153.949219 2281.835938 2147.332031 2272.621094 C 1524.632812 2272.621094 1216.6875 1708.027344 1138.621094 1364.617188 C 1106.355469 1223.414062 1080.078125 1209.414062 991.949219 1209.414062 C 828.84375 1209.414062 711.128906 1141.820312 711.128906 1141.820312 C 561.394531 1210.398438 494.429688 1182.398438 514.527344 1110.839844 C 449.367188 1103.675781 450.625 1029.65625 490.382812 961.625 C 540.039062 876.394531 641.730469 818.398438 763.492188 818.398438 L 828.652344 818.398438 C 963.128906 818.398438 990.800781 748.125 1129.433594 762.945312 C 1150.898438 764.996094 1170.996094 768.605469 1189.453125 773.199219 C 1227.898438 729.09375 1271.59375 710.609375 1324.476562 714.246094 C 1332.679688 715.203125 1337.820312 722.449219 1336.316406 730.160156 L 1323.382812 789.660156 C 1318.789062 811.753906 1324.996094 834.832031 1340.910156 849.816406 C 1452.746094 954.460938 1516.949219 1133.070312 1588.808594 1294.234375 C 1705.347656 1531.878906 1986.578125 1861.945312 2437.859375 1438.527344 C 2755.101562 1140.753906 2946.726562 892.417969 3261.808594 868.054688 C 2953.667969 340.722656 2393.136719 11.929688 1782.484375 0.328125 M 1038.515625 862.285156 C 992.304688 862.285156 946.230469 899.363281 961.953125 905.980469 C 965.371094 907.457031 971.332031 908.441406 978.085938 909.179688 C 983.007812 938.765625 1007.890625 961.625 1038.734375 961.625 C 1069.714844 961.625 1094.1875 938.765625 1098.890625 909.179688 C 1105.726562 908.441406 1111.6875 907.484375 1115.105469 905.980469 C 1130.800781 899.363281 1084.671875 862.285156 1038.542969 862.285156 M 2675.203125 2546.714844 C 2637.714844 2547.671875 2604.054688 2571.378906 2592.84375 2607.800781 L 2592.84375 2608.347656 C 2536.871094 2787.996094 2428.152344 3019.980469 2428.152344 3019.980469 C 2428.152344 3019.980469 2319.84375 3211.714844 2258.539062 3426.527344 C 2324.316406 3407.488281 2388.9375 3384.664062 2452.078125 3358.167969 C 2575.539062 3304.089844 2692.371094 3235.992188 2800.273438 3155.222656 C 2782.613281 3119.953125 2763.144531 3085.621094 2741.949219 3052.355469 C 2741.949219 3052.355469 2706.074219 2892.667969 2637.167969 2718.679688 C 2647.617188 2689.824219 2657.375 2660.722656 2666.425781 2631.398438 L 2666.972656 2629.375 C 2668.996094 2625.21875 2673.699219 2623.714844 2678.839844 2623.714844 L 2679.386719 2623.714844 C 2715.261719 2629.375 2753.160156 2635.035156 2797.402344 2640.175781 C 2810.746094 2641.242188 2824.527344 2642.199219 2838.417969 2643.703125 C 2855.371094 2645.289062 2871.832031 2646.792969 2888.730469 2647.859375 C 2892.777344 2809.351562 2962.832031 2963.679688 2980.578125 3000.539062 C 3109.789062 2873.261719 3218.492188 2726.726562 3302.824219 2566.15625 C 3178.082031 2580.375 3025.449219 2585.160156 2845.910156 2567.332031 C 2831.585938 2565.621094 2817.226562 2564.226562 2802.84375 2563.148438 C 2765.597656 2558.886719 2728.453125 2553.761719 2691.445312 2547.78125 C 2686.074219 2546.941406 2680.640625 2546.578125 2675.203125 2546.6875 "/>
</svg>
