<?xml version="1.0" encoding="UTF-8"?>
<svg xmlns="http://www.w3.org/2000/svg" xmlns:xlink="http://www.w3.org/1999/xlink" width="900" height="900" viewBox="0 0 900 900">
<path fill-rule="nonzero" fill="rgb(100%, 100%, 100%)" fill-opacity="1" d="M 900 450 C 900 698.539062 698.539062 900 450 900 C 201.460938 900 0 698.539062 0 450 C 0 201.460938 201.460938 0 450 0 C 698.539062 0 900 201.460938 900 450 M 900 450 "/>
<path fill-rule="nonzero" fill="rgb(0%, 45.098039%, 63.137255%)" fill-opacity="1" d="M 458.351562 0.0859375 C 393.78125 -1.039062 329.722656 11.726562 270.511719 37.519531 C 42.433594 136.941406 -61.910156 402.453125 37.519531 630.535156 C 121.648438 822.214844 326.707031 930.707031 532.503906 892.390625 C 541.265625 864.429688 548.464844 833.75 548.464844 800.324219 C 548.464844 795.570312 548.324219 790.824219 548.078125 785.933594 C 548.078125 785.933594 564.179688 758.496094 576.835938 722.707031 C 592.542969 678.488281 584.21875 629.789062 557.035156 591.257812 C 555.46875 589.148438 553.871094 586.757812 552.171875 584.386719 C 392.046875 584.386719 312.863281 439.207031 292.789062 350.902344 C 284.492188 314.59375 277.734375 310.992188 255.074219 310.992188 C 213.132812 310.992188 182.863281 293.609375 182.863281 293.609375 C 144.359375 311.246094 127.140625 304.046875 132.308594 285.644531 C 115.550781 283.800781 115.875 264.769531 126.097656 247.273438 C 138.867188 225.359375 165.015625 210.445312 196.328125 210.445312 L 213.082031 210.445312 C 247.660156 210.445312 254.777344 192.375 290.425781 196.1875 C 295.945312 196.714844 301.113281 197.640625 305.859375 198.824219 C 315.746094 187.480469 326.980469 182.726562 340.578125 183.664062 C 342.6875 183.910156 344.011719 185.773438 343.625 187.753906 L 340.296875 203.054688 C 339.117188 208.738281 340.714844 214.671875 344.804688 218.523438 C 373.5625 245.433594 390.074219 291.359375 408.550781 332.804688 C 438.519531 393.910156 510.835938 478.785156 626.878906 369.90625 C 708.453125 293.335938 757.730469 229.480469 838.75 223.214844 C 759.515625 87.613281 615.378906 3.066406 458.351562 0.0859375 M 267.046875 221.730469 C 255.164062 221.730469 243.316406 231.265625 247.359375 232.964844 C 248.238281 233.347656 249.769531 233.597656 251.507812 233.789062 C 252.773438 241.398438 259.171875 247.273438 267.101562 247.273438 C 275.070312 247.273438 281.363281 241.398438 282.570312 233.789062 C 284.328125 233.597656 285.863281 233.351562 286.742188 232.964844 C 290.777344 231.265625 278.914062 221.730469 267.054688 221.730469 M 687.910156 654.871094 C 678.269531 655.117188 669.613281 661.210938 666.730469 670.578125 L 666.730469 670.71875 C 652.339844 716.914062 624.382812 776.566406 624.382812 776.566406 C 624.382812 776.566406 596.53125 825.871094 580.765625 881.105469 C 597.679688 876.210938 614.296875 870.34375 630.535156 863.527344 C 662.28125 849.621094 692.324219 832.113281 720.070312 811.34375 C 715.527344 802.273438 710.523438 793.445312 705.074219 784.890625 C 705.074219 784.890625 695.847656 743.828125 678.128906 699.089844 C 680.816406 691.667969 683.324219 684.1875 685.652344 676.644531 L 685.792969 676.125 C 686.3125 675.054688 687.523438 674.667969 688.84375 674.667969 L 688.984375 674.667969 C 698.210938 676.125 707.957031 677.582031 719.332031 678.902344 C 722.761719 679.175781 726.308594 679.421875 729.878906 679.808594 C 734.238281 680.21875 738.472656 680.605469 742.816406 680.878906 C 743.855469 722.40625 761.871094 762.089844 766.433594 771.566406 C 799.660156 738.839844 827.613281 701.160156 849.296875 659.867188 C 817.222656 663.523438 777.972656 664.753906 731.804688 660.171875 C 728.121094 659.730469 724.429688 659.371094 720.730469 659.09375 C 711.152344 658 701.601562 656.679688 692.085938 655.144531 C 690.703125 654.929688 689.308594 654.832031 687.910156 654.863281 "/>
</svg>
