<?xml version="1.0" encoding="UTF-8"?>
<svg xmlns="http://www.w3.org/2000/svg" xmlns:xlink="http://www.w3.org/1999/xlink" width="16" height="16" viewBox="0 0 16 16">
<path fill-rule="nonzero" fill="rgb(100%, 100%, 100%)" fill-opacity="1" d="M 16 8 C 16 12.417969 12.417969 16 8 16 C 3.582031 16 0 12.417969 0 8 C 0 3.582031 3.582031 0 8 0 C 12.417969 0 16 3.582031 16 8 M 16 8 "/>
<path fill-rule="nonzero" fill="rgb(0%, 0%, 0%)" fill-opacity="1" d="M 8.148438 0 C 7 -0.0195312 5.863281 0.207031 4.808594 0.667969 C 0.753906 2.433594 -1.101562 7.15625 0.667969 11.210938 C 2.164062 14.617188 5.808594 16.546875 9.464844 15.863281 C 9.621094 15.367188 9.75 14.820312 9.75 14.226562 C 9.75 14.144531 9.746094 14.058594 9.742188 13.972656 C 9.742188 13.972656 10.03125 13.484375 10.253906 12.847656 C 10.535156 12.0625 10.386719 11.195312 9.902344 10.511719 C 9.875 10.472656 9.847656 10.429688 9.816406 10.390625 C 6.96875 10.390625 5.5625 7.808594 5.207031 6.238281 C 5.058594 5.59375 4.9375 5.527344 4.535156 5.527344 C 3.789062 5.527344 3.25 5.21875 3.25 5.21875 C 2.566406 5.535156 2.261719 5.40625 2.351562 5.078125 C 2.054688 5.046875 2.058594 4.707031 2.242188 4.394531 C 2.46875 4.007812 2.933594 3.742188 3.492188 3.742188 L 3.789062 3.742188 C 4.402344 3.742188 4.53125 3.421875 5.164062 3.488281 C 5.261719 3.496094 5.351562 3.511719 5.4375 3.535156 C 5.613281 3.332031 5.8125 3.25 6.054688 3.265625 C 6.09375 3.269531 6.117188 3.300781 6.109375 3.335938 L 6.050781 3.609375 C 6.027344 3.710938 6.058594 3.816406 6.128906 3.886719 C 6.640625 4.363281 6.933594 5.179688 7.261719 5.917969 C 7.796875 7.003906 9.082031 8.511719 11.144531 6.574219 C 12.59375 5.214844 13.472656 4.078125 14.910156 3.96875 C 13.503906 1.558594 10.941406 0.0546875 8.148438 0 M 4.746094 3.941406 C 4.535156 3.941406 4.324219 4.113281 4.398438 4.140625 C 4.414062 4.148438 4.441406 4.152344 4.472656 4.15625 C 4.492188 4.292969 4.609375 4.394531 4.75 4.394531 C 4.890625 4.394531 5.003906 4.292969 5.023438 4.15625 C 5.054688 4.152344 5.082031 4.148438 5.097656 4.140625 C 5.167969 4.113281 4.957031 3.941406 4.746094 3.941406 M 12.230469 11.640625 C 12.058594 11.648438 11.902344 11.753906 11.851562 11.921875 L 11.851562 11.925781 C 11.597656 12.746094 11.101562 13.804688 11.101562 13.804688 C 11.101562 13.804688 10.605469 14.683594 10.324219 15.664062 C 10.625 15.578125 10.921875 15.472656 11.210938 15.351562 C 11.773438 15.105469 12.308594 14.792969 12.800781 14.425781 C 12.71875 14.261719 12.632812 14.105469 12.535156 13.953125 C 12.535156 13.953125 12.371094 13.222656 12.054688 12.429688 C 12.101562 12.296875 12.148438 12.164062 12.1875 12.027344 L 12.191406 12.019531 C 12.199219 12 12.222656 11.992188 12.246094 11.992188 L 12.25 11.992188 C 12.414062 12.019531 12.585938 12.046875 12.789062 12.070312 C 12.847656 12.074219 12.914062 12.078125 12.976562 12.085938 C 13.054688 12.09375 13.128906 12.101562 13.207031 12.105469 C 13.222656 12.84375 13.542969 13.546875 13.625 13.714844 C 14.214844 13.136719 14.714844 12.464844 15.097656 11.730469 C 14.527344 11.796875 13.832031 11.816406 13.011719 11.738281 C 12.945312 11.730469 12.878906 11.722656 12.8125 11.71875 C 12.644531 11.699219 12.472656 11.675781 12.304688 11.648438 C 12.277344 11.644531 12.253906 11.640625 12.230469 11.640625 "/>
</svg>
