<?xml version="1.0" encoding="UTF-8"?>
<svg xmlns="http://www.w3.org/2000/svg" xmlns:xlink="http://www.w3.org/1999/xlink" width="48" height="48" viewBox="0 0 48 48">
<path fill-rule="nonzero" fill="rgb(100%, 100%, 100%)" fill-opacity="1" d="M 48 24 C 48 37.253906 37.253906 48 24 48 C 10.746094 48 0 37.253906 0 24 C 0 10.746094 10.746094 0 24 0 C 37.253906 0 48 10.746094 48 24 M 48 24 "/>
<path fill-rule="nonzero" fill="rgb(0%, 0%, 0%)" fill-opacity="1" d="M 24.445312 0.00390625 C 21 -0.0546875 17.585938 0.625 14.425781 2 C 2.261719 7.304688 -3.300781 21.464844 2 33.628906 C 6.488281 43.851562 17.425781 49.636719 28.398438 47.59375 C 28.867188 46.101562 29.25 44.464844 29.25 42.683594 C 29.25 42.429688 29.242188 42.175781 29.230469 41.917969 C 29.230469 41.917969 30.089844 40.453125 30.765625 38.542969 C 31.601562 36.1875 31.160156 33.589844 29.707031 31.535156 C 29.625 31.421875 29.539062 31.292969 29.449219 31.167969 C 20.910156 31.167969 16.6875 23.425781 15.617188 18.714844 C 15.171875 16.777344 14.8125 16.585938 13.605469 16.585938 C 11.367188 16.585938 9.753906 15.660156 9.753906 15.660156 C 7.699219 16.601562 6.78125 16.214844 7.054688 15.234375 C 6.164062 15.136719 6.179688 14.121094 6.726562 13.1875 C 7.40625 12.019531 8.800781 11.222656 10.472656 11.222656 L 11.363281 11.222656 C 13.207031 11.222656 13.589844 10.261719 15.488281 10.464844 C 15.785156 10.492188 16.058594 10.539062 16.3125 10.605469 C 16.839844 10 17.4375 9.746094 18.164062 9.796875 C 18.277344 9.808594 18.347656 9.90625 18.328125 10.011719 L 18.148438 10.828125 C 18.085938 11.132812 18.171875 11.449219 18.390625 11.65625 C 19.921875 13.089844 20.804688 15.539062 21.789062 17.75 C 23.386719 21.007812 27.246094 25.535156 33.433594 19.726562 C 37.785156 15.644531 40.414062 12.238281 44.734375 11.90625 C 40.507812 4.671875 32.820312 0.164062 24.445312 0.00390625 M 14.242188 11.824219 C 13.609375 11.824219 12.976562 12.335938 13.191406 12.425781 C 13.238281 12.445312 13.320312 12.457031 13.414062 12.46875 C 13.480469 12.875 13.824219 13.1875 14.246094 13.1875 C 14.671875 13.1875 15.007812 12.875 15.070312 12.46875 C 15.164062 12.457031 15.246094 12.445312 15.292969 12.425781 C 15.507812 12.335938 14.875 11.824219 14.242188 11.824219 M 36.6875 34.925781 C 36.175781 34.941406 35.710938 35.265625 35.558594 35.765625 L 35.558594 35.773438 C 34.792969 38.234375 33.300781 41.417969 33.300781 41.417969 C 33.300781 41.417969 31.816406 44.046875 30.972656 46.992188 C 31.875 46.730469 32.761719 46.417969 33.628906 46.054688 C 35.320312 45.3125 36.925781 44.378906 38.402344 43.273438 C 38.160156 42.789062 37.894531 42.316406 37.605469 41.859375 C 37.605469 41.859375 37.113281 39.671875 36.167969 37.285156 C 36.308594 36.890625 36.445312 36.488281 36.566406 36.085938 L 36.574219 36.058594 C 36.601562 36.003906 36.667969 35.980469 36.738281 35.980469 L 36.746094 35.980469 C 37.238281 36.058594 37.757812 36.136719 38.363281 36.207031 C 38.546875 36.222656 38.738281 36.234375 38.925781 36.257812 C 39.160156 36.277344 39.386719 36.300781 39.617188 36.3125 C 39.671875 38.527344 40.632812 40.644531 40.875 41.148438 C 42.648438 39.40625 44.140625 37.394531 45.296875 35.191406 C 43.585938 35.386719 41.492188 35.453125 39.03125 35.210938 C 38.832031 35.1875 38.636719 35.167969 38.4375 35.152344 C 37.929688 35.09375 37.417969 35.023438 36.910156 34.941406 C 36.835938 34.929688 36.761719 34.925781 36.6875 34.925781 "/>
</svg>
