<?xml version="1.0" encoding="UTF-8"?>
<svg xmlns="http://www.w3.org/2000/svg" xmlns:xlink="http://www.w3.org/1999/xlink" width="800" height="800" viewBox="0 0 800 800">
<path fill-rule="nonzero" fill="rgb(100%, 100%, 100%)" fill-opacity="1" d="M 800 400 C 800 620.925781 620.925781 800 400 800 C 179.074219 800 0 620.925781 0 400 C 0 179.074219 179.074219 0 400 0 C 620.925781 0 800 179.074219 800 400 M 800 400 "/>
<path fill-rule="nonzero" fill="rgb(0%, 0%, 0%)" fill-opacity="1" d="M 407.425781 0.0742188 C 350.027344 -0.925781 293.085938 10.425781 240.457031 33.351562 C 37.71875 121.726562 -55.03125 357.738281 33.351562 560.476562 C 108.132812 730.855469 290.40625 827.292969 473.335938 793.238281 C 481.125 768.382812 487.523438 741.113281 487.523438 711.398438 C 487.523438 707.175781 487.398438 702.957031 487.179688 698.605469 C 487.179688 698.605469 501.492188 674.21875 512.742188 642.40625 C 526.707031 603.101562 519.304688 559.8125 495.144531 525.5625 C 493.75 523.6875 492.332031 521.5625 490.820312 519.457031 C 348.488281 519.457031 278.101562 390.40625 260.257812 311.914062 C 252.882812 279.636719 246.875 276.4375 226.730469 276.4375 C 189.449219 276.4375 162.542969 260.988281 162.542969 260.988281 C 128.320312 276.664062 113.011719 270.261719 117.605469 253.90625 C 102.710938 252.269531 103 235.351562 112.085938 219.800781 C 123.4375 200.320312 146.679688 187.0625 174.511719 187.0625 L 189.40625 187.0625 C 220.144531 187.0625 226.46875 171 258.15625 174.386719 C 263.0625 174.855469 267.65625 175.679688 271.875 176.730469 C 280.664062 166.648438 290.648438 162.425781 302.738281 163.257812 C 304.613281 163.476562 305.789062 165.132812 305.445312 166.894531 L 302.488281 180.492188 C 301.4375 185.542969 302.855469 190.820312 306.492188 194.242188 C 332.054688 218.164062 346.730469 258.988281 363.15625 295.824219 C 389.792969 350.144531 454.074219 425.585938 557.226562 328.804688 C 629.738281 260.742188 673.539062 203.980469 745.554688 198.414062 C 675.125 77.878906 547.003906 2.726562 407.425781 0.0742188 M 237.375 197.09375 C 226.8125 197.09375 216.28125 205.570312 219.875 207.082031 C 220.65625 207.417969 222.019531 207.644531 223.5625 207.8125 C 224.6875 214.574219 230.375 219.800781 237.425781 219.800781 C 244.507812 219.800781 250.101562 214.574219 251.175781 207.8125 C 252.738281 207.644531 254.101562 207.425781 254.882812 207.082031 C 258.46875 205.570312 247.925781 197.09375 237.382812 197.09375 M 611.476562 582.105469 C 602.90625 582.324219 595.210938 587.742188 592.648438 596.070312 L 592.648438 596.195312 C 579.855469 637.257812 555.007812 690.28125 555.007812 690.28125 C 555.007812 690.28125 530.25 734.105469 516.238281 783.207031 C 531.273438 778.855469 546.042969 773.636719 560.476562 767.582031 C 588.695312 755.21875 615.398438 739.65625 640.0625 721.195312 C 636.027344 713.132812 631.574219 705.285156 626.730469 697.679688 C 626.730469 697.679688 618.53125 661.179688 602.78125 621.414062 C 605.171875 614.816406 607.398438 608.164062 609.46875 601.460938 L 609.59375 601 C 610.054688 600.050781 611.132812 599.707031 612.304688 599.707031 L 612.429688 599.707031 C 620.632812 601 629.292969 602.292969 639.40625 603.46875 C 642.457031 603.710938 645.605469 603.929688 648.78125 604.273438 C 652.65625 604.636719 656.417969 604.980469 660.28125 605.226562 C 661.207031 642.136719 677.21875 677.414062 681.273438 685.835938 C 710.808594 656.746094 735.65625 623.253906 754.929688 586.550781 C 726.417969 589.800781 691.53125 590.894531 650.492188 586.820312 C 647.21875 586.429688 643.9375 586.109375 640.648438 585.863281 C 632.136719 584.886719 623.648438 583.71875 615.1875 582.351562 C 613.960938 582.160156 612.71875 582.074219 611.476562 582.101562 "/>
</svg>
