<?xml version="1.0" encoding="UTF-8"?>
<svg xmlns="http://www.w3.org/2000/svg" xmlns:xlink="http://www.w3.org/1999/xlink" width="3000" height="3000" viewBox="0 0 3000 3000">
<path fill-rule="nonzero" fill="rgb(100%, 100%, 100%)" fill-opacity="1" d="M 3000 1500 C 3000 2328.46875 2328.46875 3000 1500 3000 C 671.53125 3000 0 2328.46875 0 1500 C 0 671.53125 671.53125 0 1500 0 C 2328.46875 0 3000 671.53125 3000 1500 M 3000 1500 "/>
<path fill-rule="nonzero" fill="rgb(0%, 0%, 0%)" fill-opacity="1" d="M 1527.84375 0.28125 C 1312.601562 -3.464844 1099.070312 39.089844 901.710938 125.0625 C 141.445312 456.46875 -206.367188 1341.515625 125.0625 2101.78125 C 405.492188 2740.710938 1089.023438 3102.351562 1775.015625 2974.640625 C 1804.21875 2881.429688 1828.21875 2779.171875 1828.21875 2667.75 C 1828.21875 2651.90625 1827.75 2636.085938 1826.929688 2619.773438 C 1826.929688 2619.773438 1880.601562 2528.320312 1922.789062 2409.023438 C 1975.148438 2261.625 1947.398438 2099.296875 1856.789062 1970.859375 C 1851.5625 1963.828125 1846.242188 1955.859375 1840.570312 1947.960938 C 1306.828125 1947.960938 1042.875 1464.023438 975.960938 1169.671875 C 948.304688 1048.640625 925.78125 1036.640625 850.242188 1036.640625 C 710.4375 1036.640625 609.539062 978.703125 609.539062 978.703125 C 481.195312 1037.484375 423.796875 1013.484375 441.023438 952.148438 C 385.171875 946.007812 386.25 882.5625 420.328125 824.25 C 462.890625 751.195312 550.054688 701.484375 654.421875 701.484375 L 710.273438 701.484375 C 825.539062 701.484375 849.257812 641.25 968.085938 653.953125 C 986.484375 655.710938 1003.710938 658.804688 1019.53125 662.742188 C 1052.484375 624.9375 1089.9375 609.09375 1135.265625 612.210938 C 1142.296875 613.03125 1146.703125 619.242188 1145.414062 625.851562 L 1134.328125 676.851562 C 1130.390625 695.789062 1135.710938 715.570312 1149.351562 728.414062 C 1245.210938 818.109375 1300.242188 971.203125 1361.835938 1109.34375 C 1461.726562 1313.039062 1702.78125 1595.953125 2089.59375 1233.023438 C 2361.515625 977.789062 2525.765625 764.929688 2795.835938 744.046875 C 2531.714844 292.046875 2051.261719 10.226562 1527.84375 0.28125 M 890.15625 739.101562 C 850.546875 739.101562 811.054688 770.882812 824.53125 776.554688 C 827.460938 777.820312 832.570312 778.664062 838.359375 779.296875 C 842.578125 804.65625 863.90625 824.25 890.34375 824.25 C 916.898438 824.25 937.875 804.65625 941.90625 779.296875 C 947.765625 778.664062 952.875 777.84375 955.804688 776.554688 C 969.257812 770.882812 929.71875 739.101562 890.179688 739.101562 M 2293.03125 2182.898438 C 2260.898438 2183.71875 2232.046875 2204.039062 2222.4375 2235.257812 L 2222.4375 2235.726562 C 2174.460938 2389.710938 2081.273438 2588.554688 2081.273438 2588.554688 C 2081.273438 2588.554688 1988.4375 2752.898438 1935.890625 2937.023438 C 1992.269531 2920.703125 2047.660156 2901.140625 2101.78125 2878.429688 C 2207.605469 2832.078125 2307.746094 2773.710938 2400.234375 2704.476562 C 2385.09375 2674.246094 2368.410156 2644.816406 2350.242188 2616.304688 C 2350.242188 2616.304688 2319.492188 2479.429688 2260.429688 2330.296875 C 2269.386719 2305.5625 2277.75 2280.621094 2285.507812 2255.484375 L 2285.976562 2253.75 C 2287.710938 2250.1875 2291.742188 2248.898438 2296.148438 2248.898438 L 2296.617188 2248.898438 C 2327.367188 2253.75 2359.851562 2258.601562 2397.773438 2263.007812 C 2409.210938 2263.921875 2421.023438 2264.742188 2432.929688 2266.03125 C 2447.460938 2267.390625 2461.570312 2268.679688 2476.054688 2269.59375 C 2479.523438 2408.015625 2539.570312 2540.296875 2554.78125 2571.890625 C 2665.53125 2462.796875 2758.707031 2337.195312 2830.992188 2199.5625 C 2724.070312 2211.75 2593.242188 2215.851562 2439.351562 2200.570312 C 2427.074219 2199.105469 2414.765625 2197.910156 2402.4375 2196.984375 C 2370.511719 2193.328125 2338.675781 2188.9375 2306.953125 2183.8125 C 2302.347656 2183.09375 2297.691406 2182.78125 2293.03125 2182.875 "/>
</svg>
