<?xml version="1.0" encoding="UTF-8"?>
<svg xmlns="http://www.w3.org/2000/svg" xmlns:xlink="http://www.w3.org/1999/xlink" width="2500" height="2500" viewBox="0 0 2500 2500">
<path fill-rule="nonzero" fill="rgb(100%, 100%, 100%)" fill-opacity="1" d="M 2500 1250 C 2500 1940.390625 1940.390625 2500 1250 2500 C 559.609375 2500 0 1940.390625 0 1250 C 0 559.609375 559.609375 0 1250 0 C 1940.390625 0 2500 559.609375 2500 1250 M 2500 1250 "/>
<path fill-rule="nonzero" fill="rgb(0%, 0%, 0%)" fill-opacity="1" d="M 1273.203125 0.234375 C 1093.835938 -2.886719 915.894531 32.574219 751.425781 104.21875 C 117.871094 380.390625 -171.972656 1117.929688 104.21875 1751.484375 C 337.910156 2283.925781 907.519531 2585.292969 1479.179688 2478.867188 C 1503.515625 2401.191406 1523.515625 2315.976562 1523.515625 2223.125 C 1523.515625 2209.921875 1523.125 2196.738281 1522.441406 2183.144531 C 1522.441406 2183.144531 1567.167969 2106.933594 1602.324219 2007.519531 C 1645.957031 1884.6875 1622.832031 1749.414062 1547.324219 1642.382812 C 1542.96875 1636.523438 1538.535156 1629.882812 1533.808594 1623.300781 C 1089.023438 1623.300781 869.0625 1220.019531 813.300781 974.726562 C 790.253906 873.867188 771.484375 863.867188 708.535156 863.867188 C 592.03125 863.867188 507.949219 815.585938 507.949219 815.585938 C 400.996094 864.570312 353.164062 844.570312 367.519531 793.457031 C 320.976562 788.339844 321.875 735.46875 350.273438 686.875 C 385.742188 625.996094 458.378906 584.570312 545.351562 584.570312 L 591.894531 584.570312 C 687.949219 584.570312 707.714844 534.375 806.738281 544.960938 C 822.070312 546.425781 836.425781 549.003906 849.609375 552.285156 C 877.070312 520.78125 908.28125 507.578125 946.054688 510.175781 C 951.914062 510.859375 955.585938 516.035156 954.511719 521.542969 L 945.273438 564.042969 C 941.992188 579.824219 946.425781 596.308594 957.792969 607.011719 C 1037.675781 681.757812 1083.535156 809.335938 1134.863281 924.453125 C 1218.105469 1094.199219 1418.984375 1329.960938 1741.328125 1027.519531 C 1967.929688 814.824219 2104.804688 637.441406 2329.863281 620.039062 C 2109.761719 243.371094 1709.382812 8.523438 1273.203125 0.234375 M 741.796875 615.917969 C 708.789062 615.917969 675.878906 642.402344 687.109375 647.128906 C 689.550781 648.183594 693.808594 648.886719 698.632812 649.414062 C 702.148438 670.546875 719.921875 686.875 741.953125 686.875 C 764.082031 686.875 781.5625 670.546875 784.921875 649.414062 C 789.804688 648.886719 794.0625 648.203125 796.503906 647.128906 C 807.714844 642.402344 774.765625 615.917969 741.816406 615.917969 M 1910.859375 1819.082031 C 1884.082031 1819.765625 1860.039062 1836.699219 1852.03125 1862.714844 L 1852.03125 1863.105469 C 1812.050781 1991.425781 1734.394531 2157.128906 1734.394531 2157.128906 C 1734.394531 2157.128906 1657.03125 2294.082031 1613.242188 2447.519531 C 1660.226562 2433.921875 1706.382812 2417.617188 1751.484375 2398.691406 C 1839.671875 2360.0625 1923.121094 2311.425781 2000.195312 2253.730469 C 1987.578125 2228.539062 1973.675781 2204.015625 1958.535156 2180.253906 C 1958.535156 2180.253906 1932.910156 2066.191406 1883.691406 1941.914062 C 1891.15625 1921.304688 1898.125 1900.515625 1904.589844 1879.570312 L 1904.980469 1878.125 C 1906.425781 1875.15625 1909.785156 1874.082031 1913.457031 1874.082031 L 1913.847656 1874.082031 C 1939.472656 1878.125 1966.542969 1882.167969 1998.144531 1885.839844 C 2007.675781 1886.601562 2017.519531 1887.285156 2027.441406 1888.359375 C 2039.550781 1889.492188 2051.308594 1890.566406 2063.378906 1891.328125 C 2066.269531 2006.679688 2116.308594 2116.914062 2128.984375 2143.242188 C 2221.277344 2052.328125 2298.921875 1947.664062 2359.160156 1832.96875 C 2270.058594 1843.125 2161.035156 1846.542969 2032.792969 1833.808594 C 2022.5625 1832.585938 2012.304688 1831.589844 2002.03125 1830.820312 C 1975.425781 1827.773438 1948.894531 1824.113281 1922.460938 1819.84375 C 1918.625 1819.246094 1914.742188 1818.984375 1910.859375 1819.0625 "/>
</svg>
