<?xml version="1.0" encoding="UTF-8"?>
<svg xmlns="http://www.w3.org/2000/svg" xmlns:xlink="http://www.w3.org/1999/xlink" width="100" height="100" viewBox="0 0 100 100">
<path fill-rule="nonzero" fill="rgb(100%, 100%, 100%)" fill-opacity="1" d="M 100 50 C 100 77.617188 77.617188 100 50 100 C 22.382812 100 0 77.617188 0 50 C 0 22.382812 22.382812 0 50 0 C 77.617188 0 100 22.382812 100 50 M 100 50 "/>
<path fill-rule="nonzero" fill="rgb(0%, 0%, 0%)" fill-opacity="1" d="M 50.929688 0.0078125 C 43.753906 -0.117188 36.636719 1.304688 30.058594 4.167969 C 4.714844 15.214844 -6.878906 44.71875 4.167969 70.058594 C 13.515625 91.355469 36.300781 103.410156 59.167969 99.15625 C 60.140625 96.046875 60.941406 92.640625 60.941406 88.925781 C 60.941406 88.398438 60.925781 87.871094 60.898438 87.324219 C 60.898438 87.324219 62.6875 84.277344 64.09375 80.300781 C 65.839844 75.386719 64.914062 69.976562 61.894531 65.695312 C 61.71875 65.460938 61.542969 65.195312 61.351562 64.933594 C 43.5625 64.933594 34.761719 48.800781 32.53125 38.988281 C 31.609375 34.953125 30.859375 34.554688 28.339844 34.554688 C 23.679688 34.554688 20.316406 32.625 20.316406 32.625 C 16.039062 34.582031 14.125 33.78125 14.699219 31.738281 C 12.839844 31.535156 12.875 29.417969 14.011719 27.476562 C 15.429688 25.039062 18.335938 23.382812 21.8125 23.382812 L 23.675781 23.382812 C 27.519531 23.382812 28.308594 21.375 32.269531 21.796875 C 32.882812 21.855469 33.457031 21.960938 33.984375 22.089844 C 35.082031 20.832031 36.332031 20.304688 37.84375 20.40625 C 38.078125 20.433594 38.222656 20.640625 38.179688 20.863281 L 37.8125 22.5625 C 37.679688 23.191406 37.855469 23.851562 38.3125 24.28125 C 41.507812 27.269531 43.339844 32.375 45.394531 36.976562 C 48.722656 43.769531 56.757812 53.199219 69.652344 41.101562 C 78.71875 32.59375 84.191406 25.496094 93.195312 24.800781 C 84.390625 9.734375 68.375 0.339844 50.929688 0.0078125 M 29.671875 24.636719 C 28.351562 24.636719 27.035156 25.695312 27.484375 25.886719 C 27.582031 25.925781 27.753906 25.957031 27.945312 25.976562 C 28.085938 26.820312 28.796875 27.476562 29.679688 27.476562 C 30.5625 27.476562 31.261719 26.820312 31.398438 25.976562 C 31.59375 25.957031 31.761719 25.929688 31.859375 25.886719 C 32.308594 25.695312 30.992188 24.636719 29.671875 24.636719 M 76.433594 72.761719 C 75.363281 72.789062 74.402344 73.46875 74.082031 74.507812 L 74.082031 74.523438 C 72.480469 79.65625 69.375 86.285156 69.375 86.285156 C 69.375 86.285156 66.28125 91.761719 64.53125 97.902344 C 66.410156 97.355469 68.253906 96.703125 70.058594 95.949219 C 73.585938 94.402344 76.925781 92.457031 80.007812 90.148438 C 79.503906 89.140625 78.945312 88.160156 78.339844 87.210938 C 78.339844 87.210938 77.316406 82.648438 75.347656 77.675781 C 75.644531 76.851562 75.925781 76.019531 76.183594 75.183594 L 76.199219 75.125 C 76.257812 75.007812 76.390625 74.964844 76.539062 74.964844 L 76.554688 74.964844 C 77.578125 75.125 78.660156 75.285156 79.925781 75.433594 C 80.308594 75.464844 80.699219 75.492188 81.097656 75.535156 C 81.582031 75.578125 82.050781 75.621094 82.535156 75.652344 C 82.652344 80.265625 84.652344 84.675781 85.160156 85.730469 C 88.851562 82.09375 91.957031 77.90625 94.367188 73.320312 C 90.800781 73.726562 86.441406 73.863281 81.3125 73.351562 C 80.902344 73.304688 80.492188 73.261719 80.082031 73.234375 C 79.015625 73.109375 77.957031 72.964844 76.898438 72.792969 C 76.746094 72.769531 76.589844 72.757812 76.433594 72.761719 "/>
</svg>
