<?xml version="1.0" encoding="UTF-8"?>
<svg xmlns="http://www.w3.org/2000/svg" xmlns:xlink="http://www.w3.org/1999/xlink" width="200" height="200" viewBox="0 0 200 200">
<path fill-rule="nonzero" fill="rgb(100%, 100%, 100%)" fill-opacity="1" d="M 200 100 C 200 155.230469 155.230469 200 100 200 C 44.769531 200 0 155.230469 0 100 C 0 44.769531 44.769531 0 100 0 C 155.230469 0 200 44.769531 200 100 M 200 100 "/>
<path fill-rule="nonzero" fill="rgb(0%, 0%, 0%)" fill-opacity="1" d="M 101.855469 0.0195312 C 87.507812 -0.230469 73.269531 2.605469 60.113281 8.335938 C 9.429688 30.429688 -13.757812 89.433594 8.335938 140.117188 C 27.03125 182.714844 72.601562 206.824219 118.335938 198.308594 C 120.28125 192.09375 121.882812 185.277344 121.882812 177.851562 C 121.882812 176.792969 121.851562 175.738281 121.796875 174.652344 C 121.796875 174.652344 125.375 168.554688 128.1875 160.601562 C 131.675781 150.773438 129.828125 139.953125 123.785156 131.390625 C 123.4375 130.921875 123.082031 130.390625 122.703125 129.863281 C 87.121094 129.863281 69.523438 97.601562 65.0625 77.976562 C 63.21875 69.910156 61.71875 69.109375 56.683594 69.109375 C 47.363281 69.109375 40.636719 65.246094 40.636719 65.246094 C 32.078125 69.164062 28.253906 67.566406 29.402344 63.476562 C 25.679688 63.066406 25.75 58.835938 28.023438 54.949219 C 30.859375 50.078125 36.671875 46.765625 43.628906 46.765625 L 47.351562 46.765625 C 55.035156 46.765625 56.617188 42.75 64.539062 43.597656 C 65.765625 43.714844 66.914062 43.921875 67.96875 44.183594 C 70.164062 41.664062 72.664062 40.605469 75.683594 40.8125 C 76.152344 40.867188 76.445312 41.28125 76.359375 41.722656 L 75.621094 45.125 C 75.359375 46.386719 75.714844 47.703125 76.625 48.5625 C 83.015625 54.539062 86.683594 64.746094 90.789062 73.957031 C 97.449219 87.535156 113.519531 106.398438 139.304688 82.203125 C 157.433594 65.1875 168.382812 50.996094 186.390625 49.601562 C 168.78125 19.46875 136.75 0.683594 101.855469 0.0195312 M 59.34375 49.273438 C 56.703125 49.273438 54.070312 51.390625 54.96875 51.769531 C 55.164062 51.855469 55.503906 51.910156 55.890625 51.953125 C 56.171875 53.644531 57.59375 54.949219 59.355469 54.949219 C 61.125 54.949219 62.523438 53.644531 62.792969 51.953125 C 63.183594 51.910156 63.523438 51.855469 63.71875 51.769531 C 64.617188 51.390625 61.980469 49.273438 59.34375 49.273438 M 152.867188 145.527344 C 150.726562 145.582031 148.804688 146.9375 148.164062 149.015625 L 148.164062 149.046875 C 144.964844 159.3125 138.75 172.570312 138.75 172.570312 C 138.75 172.570312 132.5625 183.527344 129.058594 195.800781 C 132.816406 194.714844 136.511719 193.410156 140.117188 191.894531 C 147.171875 188.804688 153.851562 184.914062 160.015625 180.296875 C 159.007812 178.28125 157.894531 176.320312 156.683594 174.421875 C 156.683594 174.421875 154.632812 165.296875 150.695312 155.351562 C 151.292969 153.703125 151.851562 152.042969 152.367188 150.367188 L 152.398438 150.25 C 152.515625 150.011719 152.78125 149.925781 153.078125 149.925781 L 153.109375 149.925781 C 155.15625 150.25 157.324219 150.574219 159.851562 150.867188 C 160.613281 150.929688 161.402344 150.984375 162.195312 151.070312 C 163.164062 151.160156 164.105469 151.246094 165.070312 151.304688 C 165.300781 160.535156 169.304688 169.351562 170.320312 171.460938 C 177.703125 164.1875 183.914062 155.8125 188.734375 146.636719 C 181.605469 147.449219 172.882812 147.722656 162.625 146.703125 C 161.804688 146.605469 160.984375 146.527344 160.164062 146.464844 C 158.035156 146.222656 155.910156 145.929688 153.796875 145.585938 C 153.488281 145.539062 153.179688 145.519531 152.867188 145.523438 "/>
</svg>
