<?xml version="1.0" encoding="UTF-8"?>
<svg xmlns="http://www.w3.org/2000/svg" xmlns:xlink="http://www.w3.org/1999/xlink" width="350" height="350" viewBox="0 0 350 350">
<path fill-rule="nonzero" fill="rgb(100%, 100%, 100%)" fill-opacity="1" d="M 350 175 C 350 271.65625 271.65625 350 175 350 C 78.34375 350 0 271.65625 0 175 C 0 78.34375 78.34375 0 175 0 C 271.65625 0 350 78.34375 350 175 M 350 175 "/>
<path fill-rule="nonzero" fill="rgb(0%, 0%, 0%)" fill-opacity="1" d="M 178.25 0.03125 C 153.136719 -0.402344 128.226562 4.558594 105.199219 14.589844 C 16.5 53.253906 -24.078125 156.511719 14.589844 245.207031 C 47.308594 319.75 127.050781 361.941406 207.085938 347.042969 C 210.492188 336.167969 213.292969 324.238281 213.292969 311.238281 C 213.292969 309.390625 213.238281 307.542969 213.140625 305.640625 C 213.140625 305.640625 219.402344 294.972656 224.324219 281.054688 C 230.433594 263.855469 227.195312 244.917969 216.625 229.933594 C 216.015625 229.113281 215.394531 228.183594 214.734375 227.261719 C 152.464844 227.261719 121.667969 170.804688 113.863281 136.460938 C 110.636719 122.339844 108.007812 120.941406 99.195312 120.941406 C 82.882812 120.941406 71.113281 114.183594 71.113281 114.183594 C 56.140625 121.039062 49.441406 118.238281 51.453125 111.082031 C 44.9375 110.367188 45.0625 102.964844 49.039062 96.164062 C 54.003906 87.640625 64.171875 81.839844 76.347656 81.839844 L 82.863281 81.839844 C 96.3125 81.839844 99.078125 74.8125 112.941406 76.292969 C 115.089844 76.5 117.097656 76.859375 118.945312 77.320312 C 122.789062 72.910156 127.160156 71.0625 132.449219 71.425781 C 133.269531 71.519531 133.78125 72.246094 133.632812 73.015625 L 132.339844 78.964844 C 131.878906 81.175781 132.5 83.484375 134.089844 84.980469 C 145.273438 95.445312 151.695312 113.308594 158.882812 129.421875 C 170.535156 153.1875 198.65625 186.195312 243.785156 143.851562 C 275.511719 114.074219 294.671875 89.242188 326.179688 86.804688 C 295.367188 34.070312 239.3125 1.191406 178.25 0.03125 M 103.851562 86.226562 C 99.230469 86.226562 94.621094 89.9375 96.195312 90.597656 C 96.539062 90.746094 97.132812 90.84375 97.808594 90.917969 C 98.300781 93.875 100.789062 96.164062 103.875 96.164062 C 106.972656 96.164062 109.417969 93.875 109.890625 90.917969 C 110.574219 90.84375 111.167969 90.75 111.511719 90.597656 C 113.082031 89.9375 108.46875 86.230469 103.855469 86.230469 M 267.519531 254.671875 C 263.773438 254.765625 260.40625 257.136719 259.285156 260.78125 L 259.285156 260.835938 C 253.6875 278.800781 242.816406 302 242.816406 302 C 242.816406 302 231.984375 321.171875 225.855469 342.652344 C 232.429688 340.75 238.894531 338.464844 245.207031 335.816406 C 257.554688 330.410156 269.238281 323.597656 280.027344 315.523438 C 278.261719 311.996094 276.3125 308.5625 274.195312 305.234375 C 274.195312 305.234375 270.609375 289.265625 263.71875 271.867188 C 264.761719 268.984375 265.738281 266.070312 266.640625 263.140625 L 266.699219 262.9375 C 266.898438 262.523438 267.371094 262.371094 267.882812 262.371094 L 267.9375 262.371094 C 271.527344 262.9375 275.316406 263.503906 279.742188 264.015625 C 281.074219 264.125 282.453125 264.21875 283.84375 264.371094 C 285.539062 264.527344 287.183594 264.679688 288.875 264.785156 C 289.277344 280.933594 296.28125 296.367188 298.058594 300.054688 C 310.980469 287.324219 321.847656 272.671875 330.28125 256.617188 C 317.808594 258.039062 302.546875 258.515625 284.589844 256.734375 C 283.160156 256.5625 281.722656 256.421875 280.285156 256.316406 C 276.558594 255.886719 272.84375 255.375 269.144531 254.777344 C 268.605469 254.695312 268.0625 254.65625 267.519531 254.667969 "/>
</svg>
