<?xml version="1.0" encoding="UTF-8"?>
<svg xmlns="http://www.w3.org/2000/svg" xmlns:xlink="http://www.w3.org/1999/xlink" width="5000" height="5000" viewBox="0 0 5000 5000">
<path fill-rule="nonzero" fill="rgb(100%, 100%, 100%)" fill-opacity="1" d="M 5000 2500 C 5000 3880.78125 3880.78125 5000 2500 5000 C 1119.21875 5000 0 3880.78125 0 2500 C 0 1119.21875 1119.21875 0 2500 0 C 3880.78125 0 5000 1119.21875 5000 2500 M 5000 2500 "/>
<path fill-rule="nonzero" fill="rgb(0%, 0%, 0%)" fill-opacity="1" d="M 2546.40625 0.46875 C 2187.671875 -5.773438 1831.785156 65.148438 1502.851562 208.4375 C 235.742188 760.78125 -343.945312 2235.859375 208.4375 3502.96875 C 675.820312 4567.851562 1815.039062 5170.585938 2958.359375 4957.734375 C 3007.03125 4802.382812 3047.03125 4631.953125 3047.03125 4446.25 C 3047.03125 4419.84375 3046.25 4393.476562 3044.882812 4366.289062 C 3044.882812 4366.289062 3134.335938 4213.867188 3204.648438 4015.039062 C 3291.914062 3769.375 3245.664062 3498.828125 3094.648438 3284.765625 C 3085.9375 3273.046875 3077.070312 3259.765625 3067.617188 3246.601562 C 2178.046875 3246.601562 1738.125 2440.039062 1626.601562 1949.453125 C 1580.507812 1747.734375 1542.96875 1727.734375 1417.070312 1727.734375 C 1184.0625 1727.734375 1015.898438 1631.171875 1015.898438 1631.171875 C 801.992188 1729.140625 706.328125 1689.140625 735.039062 1586.914062 C 641.953125 1576.679688 643.75 1470.9375 700.546875 1373.75 C 771.484375 1251.992188 916.757812 1169.140625 1090.703125 1169.140625 L 1183.789062 1169.140625 C 1375.898438 1169.140625 1415.429688 1068.75 1613.476562 1089.921875 C 1644.140625 1092.851562 1672.851562 1098.007812 1699.21875 1104.570312 C 1754.140625 1041.5625 1816.5625 1015.15625 1892.109375 1020.351562 C 1903.828125 1021.71875 1911.171875 1032.070312 1909.023438 1043.085938 L 1890.546875 1128.085938 C 1883.984375 1159.648438 1892.851562 1192.617188 1915.585938 1214.023438 C 2075.351562 1363.515625 2167.070312 1618.671875 2269.726562 1848.90625 C 2436.210938 2188.398438 2837.96875 2659.921875 3482.65625 2055.039062 C 3935.859375 1629.648438 4209.609375 1274.882812 4659.726562 1240.078125 C 4219.527344 486.746094 3418.765625 17.042969 2546.40625 0.46875 M 1483.59375 1231.835938 C 1417.578125 1231.835938 1351.757812 1284.804688 1374.21875 1294.257812 C 1379.101562 1296.367188 1387.617188 1297.773438 1397.265625 1298.828125 C 1404.296875 1341.09375 1439.84375 1373.75 1483.90625 1373.75 C 1528.164062 1373.75 1563.125 1341.09375 1569.84375 1298.828125 C 1579.609375 1297.773438 1588.125 1296.40625 1593.007812 1294.257812 C 1615.429688 1284.804688 1549.53125 1231.835938 1483.632812 1231.835938 M 3821.71875 3638.164062 C 3768.164062 3639.53125 3720.078125 3673.398438 3704.0625 3725.429688 L 3704.0625 3726.210938 C 3624.101562 3982.851562 3468.789062 4314.257812 3468.789062 4314.257812 C 3468.789062 4314.257812 3314.0625 4588.164062 3226.484375 4895.039062 C 3320.449219 4867.839844 3412.765625 4835.234375 3502.96875 4797.382812 C 3679.339844 4720.128906 3846.246094 4622.847656 4000.390625 4507.460938 C 3975.160156 4457.078125 3947.347656 4408.027344 3917.070312 4360.507812 C 3917.070312 4360.507812 3865.820312 4132.382812 3767.382812 3883.828125 C 3782.3125 3842.605469 3796.25 3801.03125 3809.179688 3759.140625 L 3809.960938 3756.25 C 3812.851562 3750.3125 3819.570312 3748.164062 3826.914062 3748.164062 L 3827.695312 3748.164062 C 3878.945312 3756.25 3933.085938 3764.335938 3996.289062 3771.679688 C 4015.351562 3773.203125 4035.039062 3774.570312 4054.882812 3776.71875 C 4079.101562 3778.984375 4102.617188 3781.132812 4126.757812 3782.65625 C 4132.539062 4013.359375 4232.617188 4233.828125 4257.96875 4286.484375 C 4442.554688 4104.660156 4597.847656 3895.324219 4718.320312 3665.9375 C 4540.117188 3686.25 4322.070312 3693.085938 4065.585938 3667.617188 C 4045.125 3665.175781 4024.613281 3663.183594 4004.0625 3661.640625 C 3950.855469 3655.550781 3897.792969 3648.230469 3844.921875 3639.6875 C 3837.25 3638.488281 3829.484375 3637.964844 3821.71875 3638.125 "/>
</svg>
