<?xml version="1.0" encoding="UTF-8"?>
<svg xmlns="http://www.w3.org/2000/svg" xmlns:xlink="http://www.w3.org/1999/xlink" width="250" height="250" viewBox="0 0 250 250">
<path fill-rule="nonzero" fill="rgb(100%, 100%, 100%)" fill-opacity="1" d="M 250 125 C 250 194.039062 194.039062 250 125 250 C 55.960938 250 0 194.039062 0 125 C 0 55.960938 55.960938 0 125 0 C 194.039062 0 250 55.960938 250 125 M 250 125 "/>
<path fill-rule="nonzero" fill="rgb(0%, 0%, 0%)" fill-opacity="1" d="M 127.320312 0.0234375 C 109.382812 -0.289062 91.589844 3.257812 75.144531 10.421875 C 11.789062 38.039062 -17.195312 111.792969 10.421875 175.148438 C 33.792969 228.390625 90.75 258.53125 147.917969 247.886719 C 150.351562 240.117188 152.351562 231.597656 152.351562 222.3125 C 152.351562 220.992188 152.3125 219.675781 152.242188 218.316406 C 152.242188 218.316406 156.714844 210.695312 160.230469 200.753906 C 164.59375 188.46875 162.28125 174.941406 154.730469 164.238281 C 154.296875 163.652344 153.851562 162.988281 153.378906 162.328125 C 108.902344 162.328125 86.90625 122 81.328125 97.472656 C 79.023438 87.386719 77.148438 86.386719 70.851562 86.386719 C 59.203125 86.386719 50.792969 81.558594 50.792969 81.558594 C 40.097656 86.457031 35.316406 84.457031 36.75 79.34375 C 32.097656 78.832031 32.1875 73.546875 35.027344 68.6875 C 38.574219 62.597656 45.835938 58.457031 54.535156 58.457031 L 59.1875 58.457031 C 68.792969 58.457031 70.769531 53.4375 80.671875 54.496094 C 82.207031 54.640625 83.640625 54.898438 84.960938 55.226562 C 87.707031 52.078125 90.828125 50.757812 94.605469 51.015625 C 95.191406 51.085938 95.558594 51.601562 95.449219 52.152344 L 94.527344 56.402344 C 94.199219 57.980469 94.640625 59.632812 95.777344 60.699219 C 103.765625 68.175781 108.351562 80.933594 113.484375 92.445312 C 121.8125 109.417969 141.898438 132.996094 174.132812 102.75 C 196.792969 81.480469 210.480469 63.742188 232.984375 62.003906 C 210.976562 24.335938 170.9375 0.851562 127.320312 0.0234375 M 74.179688 61.59375 C 70.878906 61.59375 67.585938 64.242188 68.710938 64.710938 C 68.953125 64.820312 69.382812 64.890625 69.863281 64.941406 C 70.214844 67.054688 71.992188 68.6875 74.195312 68.6875 C 76.40625 68.6875 78.15625 67.054688 78.492188 64.941406 C 78.980469 64.890625 79.40625 64.820312 79.652344 64.710938 C 80.773438 64.242188 77.476562 61.59375 74.183594 61.59375 M 191.085938 181.90625 C 188.410156 181.976562 186.003906 183.671875 185.203125 186.273438 L 185.203125 186.308594 C 181.207031 199.140625 173.441406 215.710938 173.441406 215.710938 C 173.441406 215.710938 165.703125 229.40625 161.324219 244.75 C 166.023438 243.390625 170.636719 241.761719 175.148438 239.871094 C 183.96875 236.007812 192.3125 231.140625 200.019531 225.375 C 198.757812 222.855469 197.367188 220.402344 195.855469 218.023438 C 195.855469 218.023438 193.292969 206.617188 188.371094 194.191406 C 189.117188 192.128906 189.8125 190.050781 190.457031 187.957031 L 190.5 187.8125 C 190.644531 187.515625 190.976562 187.40625 191.347656 187.40625 L 191.382812 187.40625 C 193.945312 187.8125 196.65625 188.214844 199.8125 188.582031 C 200.765625 188.660156 201.753906 188.726562 202.742188 188.835938 C 203.957031 188.949219 205.132812 189.054688 206.339844 189.132812 C 206.625 200.667969 211.632812 211.691406 212.898438 214.324219 C 222.128906 205.234375 229.890625 194.765625 235.914062 183.296875 C 227.007812 184.3125 216.101562 184.652344 203.28125 183.382812 C 202.257812 183.257812 201.230469 183.160156 200.203125 183.082031 C 197.542969 182.777344 194.890625 182.410156 192.246094 181.984375 C 191.863281 181.925781 191.472656 181.898438 191.085938 181.90625 "/>
</svg>
