<?xml version="1.0" encoding="UTF-8"?>
<svg xmlns="http://www.w3.org/2000/svg" xmlns:xlink="http://www.w3.org/1999/xlink" width="150" height="150" viewBox="0 0 150 150">
<path fill-rule="nonzero" fill="rgb(100%, 100%, 100%)" fill-opacity="1" d="M 150 75 C 150 116.421875 116.421875 150 75 150 C 33.578125 150 0 116.421875 0 75 C 0 33.578125 33.578125 0 75 0 C 116.421875 0 150 33.578125 150 75 M 150 75 "/>
<path fill-rule="nonzero" fill="rgb(0%, 0%, 0%)" fill-opacity="1" d="M 76.390625 0.015625 C 65.628906 -0.171875 54.953125 1.953125 45.085938 6.253906 C 7.070312 22.824219 -10.320312 67.074219 6.253906 105.089844 C 20.273438 137.035156 54.449219 155.117188 88.75 148.730469 C 90.210938 144.070312 91.410156 138.957031 91.410156 133.386719 C 91.410156 132.59375 91.386719 131.804688 91.347656 130.988281 C 91.347656 130.988281 94.03125 126.417969 96.140625 120.453125 C 98.757812 113.082031 97.371094 104.964844 92.839844 98.542969 C 92.578125 98.191406 92.3125 97.792969 92.027344 97.398438 C 65.339844 97.398438 52.144531 73.203125 48.796875 58.484375 C 47.414062 52.433594 46.289062 51.832031 42.511719 51.832031 C 35.523438 51.832031 30.476562 48.933594 30.476562 48.933594 C 24.058594 51.875 21.191406 50.675781 22.050781 47.605469 C 19.257812 47.300781 19.3125 44.128906 21.015625 41.210938 C 23.144531 37.558594 27.503906 35.074219 32.722656 35.074219 L 35.511719 35.074219 C 41.277344 35.074219 42.460938 32.0625 48.402344 32.699219 C 49.324219 32.785156 50.183594 32.941406 50.976562 33.136719 C 52.625 31.246094 54.496094 30.453125 56.761719 30.609375 C 57.113281 30.652344 57.335938 30.960938 57.269531 31.292969 L 56.714844 33.84375 C 56.519531 34.789062 56.785156 35.777344 57.46875 36.421875 C 62.261719 40.90625 65.011719 48.558594 68.09375 55.46875 C 73.085938 65.652344 85.140625 79.796875 104.480469 61.652344 C 118.074219 48.890625 126.289062 38.246094 139.792969 37.203125 C 126.585938 14.601562 102.5625 0.511719 76.390625 0.015625 M 44.507812 36.953125 C 42.527344 36.953125 40.550781 38.542969 41.226562 38.828125 C 41.375 38.890625 41.628906 38.933594 41.917969 38.964844 C 42.128906 40.234375 43.195312 41.210938 44.515625 41.210938 C 45.84375 41.210938 46.894531 40.234375 47.09375 38.964844 C 47.386719 38.933594 47.644531 38.890625 47.789062 38.828125 C 48.464844 38.542969 46.484375 36.957031 44.507812 36.957031 M 114.652344 109.144531 C 113.046875 109.1875 111.601562 110.203125 111.121094 111.761719 L 111.121094 111.785156 C 108.722656 119.484375 104.0625 129.429688 104.0625 129.429688 C 104.0625 129.429688 99.421875 137.644531 96.792969 146.851562 C 99.613281 146.035156 102.382812 145.058594 105.089844 143.921875 C 110.378906 141.605469 115.386719 138.683594 120.011719 135.222656 C 119.253906 133.710938 118.421875 132.242188 117.511719 130.816406 C 117.511719 130.816406 115.976562 123.972656 113.023438 116.515625 C 113.46875 115.277344 113.886719 114.03125 114.273438 112.773438 L 114.300781 112.6875 C 114.386719 112.507812 114.585938 112.445312 114.808594 112.445312 L 114.832031 112.445312 C 116.367188 112.6875 117.992188 112.929688 119.890625 113.148438 C 120.460938 113.195312 121.050781 113.238281 121.648438 113.300781 C 122.375 113.371094 123.078125 113.433594 123.804688 113.480469 C 123.976562 120.402344 126.976562 127.015625 127.738281 128.59375 C 133.277344 123.140625 137.933594 116.859375 141.550781 109.976562 C 136.203125 110.585938 129.664062 110.792969 121.96875 110.027344 C 121.355469 109.957031 120.738281 109.894531 120.121094 109.847656 C 118.527344 109.667969 116.933594 109.445312 115.347656 109.191406 C 115.117188 109.15625 114.882812 109.140625 114.652344 109.144531 "/>
</svg>
